<?xml version="1.0" encoding="UTF-8"?>
<svg id="_イヤー_1" data-name="レイヤー 1" xmlns="http://www.w3.org/2000/svg" width="220.476mm" height="85.169mm" xmlns:xlink="http://www.w3.org/1999/xlink" viewBox="0 0 624.971 241.425">
  <defs>
    <style>
      .cls-1, .cls-2, .cls-3, .cls-4, .cls-5 {
        fill: none;
      }

      .cls-1, .cls-4 {
        stroke-linejoin: round;
      }

      .cls-1, .cls-4, .cls-5 {
        stroke: #ad363d;
      }

      .cls-1, .cls-5 {
        stroke-width: 1.34px;
      }

      .cls-6 {
        fill: url(#_称未設定グラデーション_138-2);
      }

      .cls-6, .cls-7, .cls-8, .cls-9, .cls-10, .cls-11, .cls-12, .cls-13 {
        stroke: #804f21;
        stroke-width: 1.465px;
      }

      .cls-6, .cls-7, .cls-8, .cls-9, .cls-10, .cls-11, .cls-12, .cls-13, .cls-2, .cls-3, .cls-5 {
        stroke-miterlimit: 10;
      }

      .cls-7 {
        fill: url(#_称未設定グラデーション_138-3);
      }

      .cls-8 {
        fill: url(#_称未設定グラデーション_138-4);
      }

      .cls-14 {
        fill: url(#_規グラデーションスウォッチ_4-110);
      }

      .cls-14, .cls-15, .cls-16, .cls-17, .cls-18, .cls-19, .cls-20, .cls-21, .cls-22, .cls-23 {
        opacity: .091;
      }

      .cls-15 {
        fill: url(#_規グラデーションスウォッチ_4-2);
      }

      .cls-24 {
        fill: #e73828;
      }

      .cls-25 {
        fill: #ad363d;
      }

      .cls-26 {
        fill: #231815;
      }

      .cls-27 {
        fill: #9ad4df;
      }

      .cls-28 {
        fill: url(#_規グラデーションスウォッチ_4-61);
      }

      .cls-28, .cls-29, .cls-30, .cls-31, .cls-32, .cls-33, .cls-34, .cls-35, .cls-36, .cls-37 {
        opacity: 0;
      }

      .cls-29 {
        fill: url(#_規グラデーションスウォッチ_4-37);
      }

      .cls-30 {
        fill: url(#_規グラデーションスウォッチ_4-49);
      }

      .cls-31 {
        fill: url(#_規グラデーションスウォッチ_4-85);
      }

      .cls-32 {
        fill: url(#_規グラデーションスウォッチ_4-97);
      }

      .cls-33 {
        fill: url(#_規グラデーションスウォッチ_4-73);
      }

      .cls-34 {
        fill: url(#_規グラデーションスウォッチ_4-25);
      }

      .cls-35 {
        fill: url(#_規グラデーションスウォッチ_4-13);
      }

      .cls-9 {
        fill: url(#_称未設定グラデーション_49);
      }

      .cls-10 {
        fill: url(#_称未設定グラデーション_49-2);
      }

      .cls-11 {
        fill: url(#_称未設定グラデーション_49-3);
      }

      .cls-12 {
        fill: url(#_称未設定グラデーション_49-4);
      }

      .cls-38 {
        fill: url(#_規グラデーションスウォッチ_4-108);
      }

      .cls-39 {
        fill: url(#_規グラデーションスウォッチ_4-120);
      }

      .cls-36 {
        fill: url(#_規グラデーションスウォッチ_4-109);
      }

      .cls-40 {
        fill: url(#_規グラデーションスウォッチ_4-82);
      }

      .cls-40, .cls-41, .cls-42, .cls-43, .cls-44, .cls-45, .cls-46, .cls-47, .cls-48, .cls-49 {
        opacity: .818;
      }

      .cls-41 {
        fill: url(#_規グラデーションスウォッチ_4-94);
      }

      .cls-42 {
        fill: url(#_規グラデーションスウォッチ_4-70);
      }

      .cls-43 {
        fill: url(#_規グラデーションスウォッチ_4-58);
      }

      .cls-44 {
        fill: url(#_規グラデーションスウォッチ_4-46);
      }

      .cls-45 {
        fill: url(#_規グラデーションスウォッチ_4-34);
      }

      .cls-46 {
        fill: url(#_規グラデーションスウォッチ_4-22);
      }

      .cls-47 {
        fill: url(#_規グラデーションスウォッチ_4-10);
      }

      .cls-50 {
        fill: url(#_規グラデーションスウォッチ_4-35);
      }

      .cls-50, .cls-51, .cls-52, .cls-53, .cls-54, .cls-55, .cls-56, .cls-57, .cls-58, .cls-59 {
        opacity: .909;
      }

      .cls-51 {
        fill: url(#_規グラデーションスウォッチ_4-47);
      }

      .cls-52 {
        fill: url(#_規グラデーションスウォッチ_4-59);
      }

      .cls-53 {
        fill: url(#_規グラデーションスウォッチ_4-23);
      }

      .cls-54 {
        fill: url(#_規グラデーションスウォッチ_4-11);
      }

      .cls-55 {
        fill: url(#_規グラデーションスウォッチ_4-83);
      }

      .cls-56 {
        fill: url(#_規グラデーションスウォッチ_4-95);
      }

      .cls-57 {
        fill: url(#_規グラデーションスウォッチ_4-71);
      }

      .cls-60 {
        fill: url(#_規グラデーションスウォッチ_4-81);
      }

      .cls-60, .cls-61, .cls-62, .cls-63, .cls-64, .cls-65, .cls-66, .cls-67, .cls-68, .cls-69 {
        opacity: .727;
      }

      .cls-61 {
        fill: url(#_規グラデーションスウォッチ_4-93);
      }

      .cls-62 {
        fill: url(#_規グラデーションスウォッチ_4-45);
      }

      .cls-63 {
        fill: url(#_規グラデーションスウォッチ_4-33);
      }

      .cls-64 {
        fill: url(#_規グラデーションスウォッチ_4-69);
      }

      .cls-65 {
        fill: url(#_規グラデーションスウォッチ_4-57);
      }

      .cls-66 {
        fill: url(#_規グラデーションスウォッチ_4-21);
      }

      .cls-70 {
        fill: url(#_規グラデーションスウォッチ_4-42);
      }

      .cls-70, .cls-71, .cls-72, .cls-73, .cls-74, .cls-75, .cls-76, .cls-77, .cls-78, .cls-79 {
        opacity: .455;
      }

      .cls-71 {
        fill: url(#_規グラデーションスウォッチ_4-78);
      }

      .cls-72 {
        fill: url(#_規グラデーションスウォッチ_4-30);
      }

      .cls-73 {
        fill: url(#_規グラデーションスウォッチ_4-66);
      }

      .cls-74 {
        fill: url(#_規グラデーションスウォッチ_4-54);
      }

      .cls-75 {
        fill: url(#_規グラデーションスウォッチ_4-90);
      }

      .cls-76 {
        fill: url(#_規グラデーションスウォッチ_4-18);
      }

      .cls-80 {
        fill: url(#_規グラデーションスウォッチ_4-80);
      }

      .cls-80, .cls-81, .cls-82, .cls-83, .cls-84, .cls-85, .cls-86, .cls-87, .cls-88, .cls-89 {
        opacity: .636;
      }

      .cls-81 {
        fill: url(#_規グラデーションスウォッチ_4-92);
      }

      .cls-82 {
        fill: url(#_規グラデーションスウォッチ_4-44);
      }

      .cls-83 {
        fill: url(#_規グラデーションスウォッチ_4-32);
      }

      .cls-84 {
        fill: url(#_規グラデーションスウォッチ_4-68);
      }

      .cls-85 {
        fill: url(#_規グラデーションスウォッチ_4-56);
      }

      .cls-86 {
        fill: url(#_規グラデーションスウォッチ_4-20);
      }

      .cls-90 {
        fill: url(#_規グラデーションスウォッチ_4-41);
      }

      .cls-90, .cls-91, .cls-92, .cls-93, .cls-94, .cls-95, .cls-96, .cls-97, .cls-98, .cls-99 {
        opacity: .364;
      }

      .cls-91 {
        fill: url(#_規グラデーションスウォッチ_4-77);
      }

      .cls-92 {
        fill: url(#_規グラデーションスウォッチ_4-65);
      }

      .cls-93 {
        fill: url(#_規グラデーションスウォッチ_4-53);
      }

      .cls-94 {
        fill: url(#_規グラデーションスウォッチ_4-89);
      }

      .cls-95 {
        fill: url(#_規グラデーションスウォッチ_4-29);
      }

      .cls-96 {
        fill: url(#_規グラデーションスウォッチ_4-17);
      }

      .cls-100 {
        fill: url(#_規グラデーションスウォッチ_4-19);
      }

      .cls-100, .cls-101, .cls-102, .cls-103, .cls-104, .cls-105, .cls-106, .cls-107, .cls-108, .cls-109 {
        opacity: .545;
      }

      .cls-101 {
        fill: url(#_規グラデーションスウォッチ_4-91);
      }

      .cls-102 {
        fill: url(#_規グラデーションスウォッチ_4-79);
      }

      .cls-103 {
        fill: url(#_規グラデーションスウォッチ_4-43);
      }

      .cls-104 {
        fill: url(#_規グラデーションスウォッチ_4-31);
      }

      .cls-105 {
        fill: url(#_規グラデーションスウォッチ_4-67);
      }

      .cls-106 {
        fill: url(#_規グラデーションスウォッチ_4-55);
      }

      .cls-110 {
        fill: url(#_規グラデーションスウォッチ_4-75);
      }

      .cls-110, .cls-111, .cls-112, .cls-113, .cls-114, .cls-115, .cls-116, .cls-117, .cls-118, .cls-119 {
        opacity: .182;
      }

      .cls-111 {
        fill: url(#_規グラデーションスウォッチ_4-63);
      }

      .cls-112 {
        fill: url(#_規グラデーションスウォッチ_4-51);
      }

      .cls-113 {
        fill: url(#_規グラデーションスウォッチ_4-39);
      }

      .cls-114 {
        fill: url(#_規グラデーションスウォッチ_4-99);
      }

      .cls-115 {
        fill: url(#_規グラデーションスウォッチ_4-87);
      }

      .cls-116 {
        fill: url(#_規グラデーションスウォッチ_4-15);
      }

      .cls-117 {
        fill: url(#_規グラデーションスウォッチ_4-27);
      }

      .cls-120 {
        fill: url(#_規グラデーションスウォッチ_4-76);
      }

      .cls-120, .cls-121, .cls-122, .cls-123, .cls-124, .cls-125, .cls-126, .cls-127, .cls-128, .cls-129 {
        opacity: .273;
      }

      .cls-121 {
        fill: url(#_規グラデーションスウォッチ_4-40);
      }

      .cls-122 {
        fill: url(#_規グラデーションスウォッチ_4-64);
      }

      .cls-123 {
        fill: url(#_規グラデーションスウォッチ_4-52);
      }

      .cls-124 {
        fill: url(#_規グラデーションスウォッチ_4-88);
      }

      .cls-125 {
        fill: url(#_規グラデーションスウォッチ_4-16);
      }

      .cls-126 {
        fill: url(#_規グラデーションスウォッチ_4-28);
      }

      .cls-130 {
        fill: url(#_規グラデーションスウォッチ_4-24);
      }

      .cls-131 {
        fill: url(#_規グラデーションスウォッチ_4-12);
      }

      .cls-132 {
        fill: url(#_規グラデーションスウォッチ_4-36);
      }

      .cls-133 {
        fill: url(#_規グラデーションスウォッチ_4-60);
      }

      .cls-134 {
        fill: url(#_規グラデーションスウォッチ_4-48);
      }

      .cls-135 {
        fill: url(#_規グラデーションスウォッチ_4-72);
      }

      .cls-136 {
        fill: url(#_規グラデーションスウォッチ_4-96);
      }

      .cls-137 {
        fill: url(#_規グラデーションスウォッチ_4-84);
      }

      .cls-37 {
        fill: url(#_規グラデーションスウォッチ_4);
      }

      .cls-13 {
        fill: url(#_称未設定グラデーション_138);
      }

      .cls-2 {
        stroke: #fff;
        stroke-width: 2px;
      }

      .cls-67 {
        fill: url(#_規グラデーションスウォッチ_4-9);
      }

      .cls-138 {
        fill: url(#_称未設定グラデーション_6);
      }

      .cls-107 {
        fill: url(#_規グラデーションスウォッチ_4-7);
      }

      .cls-97 {
        fill: url(#_規グラデーションスウォッチ_4-5);
      }

      .cls-87 {
        fill: url(#_規グラデーションスウォッチ_4-8);
      }

      .cls-118 {
        fill: url(#_規グラデーションスウォッチ_4-111);
      }

      .cls-127 {
        fill: url(#_規グラデーションスウォッチ_4-4);
      }

      .cls-77 {
        fill: url(#_規グラデーションスウォッチ_4-6);
      }

      .cls-119 {
        fill: url(#_規グラデーションスウォッチ_4-3);
      }

      .cls-139 {
        opacity: .23;
      }

      .cls-3 {
        stroke: #231815;
        stroke-width: 1.2px;
      }

      .cls-140 {
        opacity: .7;
      }

      .cls-108 {
        fill: url(#_規グラデーションスウォッチ_4-115);
      }

      .cls-109 {
        fill: url(#_規グラデーションスウォッチ_4-103);
      }

      .cls-58 {
        fill: url(#_規グラデーションスウォッチ_4-107);
      }

      .cls-59 {
        fill: url(#_規グラデーションスウォッチ_4-119);
      }

      .cls-48 {
        fill: url(#_規グラデーションスウォッチ_4-106);
      }

      .cls-49 {
        fill: url(#_規グラデーションスウォッチ_4-118);
      }

      .cls-68 {
        fill: url(#_規グラデーションスウォッチ_4-105);
      }

      .cls-69 {
        fill: url(#_規グラデーションスウォッチ_4-117);
      }

      .cls-128 {
        fill: url(#_規グラデーションスウォッチ_4-100);
      }

      .cls-129 {
        fill: url(#_規グラデーションスウォッチ_4-112);
      }

      .cls-78 {
        fill: url(#_規グラデーションスウォッチ_4-114);
      }

      .cls-79 {
        fill: url(#_規グラデーションスウォッチ_4-102);
      }

      .cls-88 {
        fill: url(#_規グラデーションスウォッチ_4-104);
      }

      .cls-89 {
        fill: url(#_規グラデーションスウォッチ_4-116);
      }

      .cls-98 {
        fill: url(#_規グラデーションスウォッチ_4-101);
      }

      .cls-99 {
        fill: url(#_規グラデーションスウォッチ_4-113);
      }

      .cls-4 {
        stroke-linecap: round;
        stroke-width: 1.362px;
      }

      .cls-16 {
        fill: url(#_規グラデーションスウォッチ_4-26);
      }

      .cls-17 {
        fill: url(#_規グラデーションスウォッチ_4-14);
      }

      .cls-18 {
        fill: url(#_規グラデーションスウォッチ_4-62);
      }

      .cls-19 {
        fill: url(#_規グラデーションスウォッチ_4-38);
      }

      .cls-20 {
        fill: url(#_規グラデーションスウォッチ_4-50);
      }

      .cls-21 {
        fill: url(#_規グラデーションスウォッチ_4-86);
      }

      .cls-22 {
        fill: url(#_規グラデーションスウォッチ_4-98);
      }

      .cls-23 {
        fill: url(#_規グラデーションスウォッチ_4-74);
      }
    </style>
    <linearGradient id="_称未設定グラデーション_138" data-name="名称未設定グラデーション 138" x1="394.981" y1="141.182" x2="546.722" y2="141.182" gradientTransform="matrix(1, 0, 0, 1, 0, 0)" gradientUnits="userSpaceOnUse">
      <stop offset="0" stop-color="#ce5b46"/>
      <stop offset=".504" stop-color="#ebc2a2"/>
      <stop offset="1" stop-color="#ce5b46"/>
    </linearGradient>
    <linearGradient id="_称未設定グラデーション_138-2" data-name="名称未設定グラデーション 138" x1="368.14" y1="66.884" x2="572.123" y2="66.884" xlink:href="#_称未設定グラデーション_138"/>
    <linearGradient id="_規グラデーションスウォッチ_4" data-name="新規グラデーションスウォッチ 4" x1="467.904" y1="70.535" x2="477.791" y2="70.535" gradientTransform="matrix(1, 0, 0, 1, 0, 0)" gradientUnits="userSpaceOnUse">
      <stop offset="0" stop-color="#be725a"/>
      <stop offset="1" stop-color="#be725a"/>
    </linearGradient>
    <linearGradient id="_規グラデーションスウォッチ_4-2" data-name="新規グラデーションスウォッチ 4" x1="468.138" x2="477.558" xlink:href="#_規グラデーションスウォッチ_4"/>
    <linearGradient id="_規グラデーションスウォッチ_4-3" data-name="新規グラデーションスウォッチ 4" x1="468.372" x2="477.324" xlink:href="#_規グラデーションスウォッチ_4"/>
    <linearGradient id="_規グラデーションスウォッチ_4-4" data-name="新規グラデーションスウォッチ 4" x1="468.606" x2="477.09" xlink:href="#_規グラデーションスウォッチ_4"/>
    <linearGradient id="_規グラデーションスウォッチ_4-5" data-name="新規グラデーションスウォッチ 4" x1="468.839" y1="70.535" x2="476.857" y2="70.535" xlink:href="#_規グラデーションスウォッチ_4"/>
    <linearGradient id="_規グラデーションスウォッチ_4-6" data-name="新規グラデーションスウォッチ 4" x1="469.073" x2="476.623" xlink:href="#_規グラデーションスウォッチ_4"/>
    <linearGradient id="_規グラデーションスウォッチ_4-7" data-name="新規グラデーションスウォッチ 4" x1="469.307" x2="476.389" xlink:href="#_規グラデーションスウォッチ_4"/>
    <linearGradient id="_規グラデーションスウォッチ_4-8" data-name="新規グラデーションスウォッチ 4" x1="469.54" x2="476.156" xlink:href="#_規グラデーションスウォッチ_4"/>
    <linearGradient id="_規グラデーションスウォッチ_4-9" data-name="新規グラデーションスウォッチ 4" x1="469.774" x2="475.922" xlink:href="#_規グラデーションスウォッチ_4"/>
    <linearGradient id="_規グラデーションスウォッチ_4-10" data-name="新規グラデーションスウォッチ 4" x1="470.008" x2="475.688" xlink:href="#_規グラデーションスウォッチ_4"/>
    <linearGradient id="_規グラデーションスウォッチ_4-11" data-name="新規グラデーションスウォッチ 4" x1="470.241" y1="70.535" x2="475.454" y2="70.535" xlink:href="#_規グラデーションスウォッチ_4"/>
    <linearGradient id="_規グラデーションスウォッチ_4-12" data-name="新規グラデーションスウォッチ 4" x1="470.475" x2="475.221" xlink:href="#_規グラデーションスウォッチ_4"/>
    <linearGradient id="_規グラデーションスウォッチ_4-13" data-name="新規グラデーションスウォッチ 4" x1="482.341" y1="69.487" x2="492.228" y2="69.487" xlink:href="#_規グラデーションスウォッチ_4"/>
    <linearGradient id="_規グラデーションスウォッチ_4-14" data-name="新規グラデーションスウォッチ 4" x1="482.575" y1="69.487" x2="491.995" y2="69.487" xlink:href="#_規グラデーションスウォッチ_4"/>
    <linearGradient id="_規グラデーションスウォッチ_4-15" data-name="新規グラデーションスウォッチ 4" x1="482.809" y1="69.487" x2="491.761" y2="69.487" xlink:href="#_規グラデーションスウォッチ_4"/>
    <linearGradient id="_規グラデーションスウォッチ_4-16" data-name="新規グラデーションスウォッチ 4" x1="483.042" y1="69.487" x2="491.527" y2="69.487" xlink:href="#_規グラデーションスウォッチ_4"/>
    <linearGradient id="_規グラデーションスウォッチ_4-17" data-name="新規グラデーションスウォッチ 4" x1="483.276" y1="69.487" x2="491.293" y2="69.487" xlink:href="#_規グラデーションスウォッチ_4"/>
    <linearGradient id="_規グラデーションスウォッチ_4-18" data-name="新規グラデーションスウォッチ 4" x1="483.51" y1="69.487" x2="491.06" y2="69.487" xlink:href="#_規グラデーションスウォッチ_4"/>
    <linearGradient id="_規グラデーションスウォッチ_4-19" data-name="新規グラデーションスウォッチ 4" x1="483.743" y1="69.487" x2="490.826" y2="69.487" xlink:href="#_規グラデーションスウォッチ_4"/>
    <linearGradient id="_規グラデーションスウォッチ_4-20" data-name="新規グラデーションスウォッチ 4" x1="483.977" y1="69.487" x2="490.592" y2="69.487" xlink:href="#_規グラデーションスウォッチ_4"/>
    <linearGradient id="_規グラデーションスウォッチ_4-21" data-name="新規グラデーションスウォッチ 4" x1="484.211" y1="69.487" x2="490.359" y2="69.487" xlink:href="#_規グラデーションスウォッチ_4"/>
    <linearGradient id="_規グラデーションスウォッチ_4-22" data-name="新規グラデーションスウォッチ 4" x1="484.444" y1="69.487" x2="490.125" y2="69.487" xlink:href="#_規グラデーションスウォッチ_4"/>
    <linearGradient id="_規グラデーションスウォッチ_4-23" data-name="新規グラデーションスウォッチ 4" x1="484.678" y1="69.487" x2="489.891" y2="69.487" xlink:href="#_規グラデーションスウォッチ_4"/>
    <linearGradient id="_規グラデーションスウォッチ_4-24" data-name="新規グラデーションスウォッチ 4" x1="484.912" y1="69.487" x2="489.658" y2="69.487" xlink:href="#_規グラデーションスウォッチ_4"/>
    <linearGradient id="_規グラデーションスウォッチ_4-25" data-name="新規グラデーションスウォッチ 4" x1="484.886" y1="54.391" x2="494.773" y2="54.391" gradientTransform="translate(559.935 -420.342) rotate(90)" xlink:href="#_規グラデーションスウォッチ_4"/>
    <linearGradient id="_規グラデーションスウォッチ_4-26" data-name="新規グラデーションスウォッチ 4" x1="485.119" y1="54.391" x2="494.539" y2="54.391" gradientTransform="translate(559.935 -420.342) rotate(90)" xlink:href="#_規グラデーションスウォッチ_4"/>
    <linearGradient id="_規グラデーションスウォッチ_4-27" data-name="新規グラデーションスウォッチ 4" x1="485.353" y1="54.391" x2="494.305" y2="54.391" gradientTransform="translate(559.935 -420.342) rotate(90)" xlink:href="#_規グラデーションスウォッチ_4"/>
    <linearGradient id="_規グラデーションスウォッチ_4-28" data-name="新規グラデーションスウォッチ 4" x1="485.587" y1="54.391" x2="494.072" y2="54.391" gradientTransform="translate(559.935 -420.342) rotate(90)" xlink:href="#_規グラデーションスウォッチ_4"/>
    <linearGradient id="_規グラデーションスウォッチ_4-29" data-name="新規グラデーションスウォッチ 4" x1="485.82" y1="54.391" x2="493.838" y2="54.391" gradientTransform="translate(559.935 -420.342) rotate(90)" xlink:href="#_規グラデーションスウォッチ_4"/>
    <linearGradient id="_規グラデーションスウォッチ_4-30" data-name="新規グラデーションスウォッチ 4" x1="486.054" y1="54.391" x2="493.604" y2="54.391" gradientTransform="translate(559.935 -420.342) rotate(90)" xlink:href="#_規グラデーションスウォッチ_4"/>
    <linearGradient id="_規グラデーションスウォッチ_4-31" data-name="新規グラデーションスウォッチ 4" x1="486.288" y1="54.391" x2="493.37" y2="54.391" gradientTransform="translate(559.935 -420.342) rotate(90)" xlink:href="#_規グラデーションスウォッチ_4"/>
    <linearGradient id="_規グラデーションスウォッチ_4-32" data-name="新規グラデーションスウォッチ 4" x1="486.521" y1="54.391" x2="493.137" y2="54.391" gradientTransform="translate(559.935 -420.342) rotate(90)" xlink:href="#_規グラデーションスウォッチ_4"/>
    <linearGradient id="_規グラデーションスウォッチ_4-33" data-name="新規グラデーションスウォッチ 4" x1="486.755" y1="54.391" x2="492.903" y2="54.391" gradientTransform="translate(559.935 -420.342) rotate(90)" xlink:href="#_規グラデーションスウォッチ_4"/>
    <linearGradient id="_規グラデーションスウォッチ_4-34" data-name="新規グラデーションスウォッチ 4" x1="486.989" y1="54.391" x2="492.669" y2="54.391" gradientTransform="translate(559.935 -420.342) rotate(90)" xlink:href="#_規グラデーションスウォッチ_4"/>
    <linearGradient id="_規グラデーションスウォッチ_4-35" data-name="新規グラデーションスウォッチ 4" x1="487.223" y1="54.391" x2="492.436" y2="54.391" gradientTransform="translate(559.935 -420.342) rotate(90)" xlink:href="#_規グラデーションスウォッチ_4"/>
    <linearGradient id="_規グラデーションスウォッチ_4-36" data-name="新規グラデーションスウォッチ 4" x1="487.456" y1="54.391" x2="492.202" y2="54.391" gradientTransform="translate(559.935 -420.342) rotate(90)" xlink:href="#_規グラデーションスウォッチ_4"/>
    <linearGradient id="_規グラデーションスウォッチ_4-37" data-name="新規グラデーションスウォッチ 4" x1="453.155" y1="69.487" x2="463.042" y2="69.487" xlink:href="#_規グラデーションスウォッチ_4"/>
    <linearGradient id="_規グラデーションスウォッチ_4-38" data-name="新規グラデーションスウォッチ 4" x1="453.389" y1="69.487" x2="462.808" y2="69.487" xlink:href="#_規グラデーションスウォッチ_4"/>
    <linearGradient id="_規グラデーションスウォッチ_4-39" data-name="新規グラデーションスウォッチ 4" x1="453.622" y1="69.487" x2="462.575" y2="69.487" xlink:href="#_規グラデーションスウォッチ_4"/>
    <linearGradient id="_規グラデーションスウォッチ_4-40" data-name="新規グラデーションスウォッチ 4" x1="453.856" y1="69.487" x2="462.341" y2="69.487" xlink:href="#_規グラデーションスウォッチ_4"/>
    <linearGradient id="_規グラデーションスウォッチ_4-41" data-name="新規グラデーションスウォッチ 4" x1="454.09" y1="69.487" x2="462.107" y2="69.487" xlink:href="#_規グラデーションスウォッチ_4"/>
    <linearGradient id="_規グラデーションスウォッチ_4-42" data-name="新規グラデーションスウォッチ 4" x1="454.323" y1="69.487" x2="461.873" y2="69.487" xlink:href="#_規グラデーションスウォッチ_4"/>
    <linearGradient id="_規グラデーションスウォッチ_4-43" data-name="新規グラデーションスウォッチ 4" x1="454.557" y1="69.487" x2="461.64" y2="69.487" xlink:href="#_規グラデーションスウォッチ_4"/>
    <linearGradient id="_規グラデーションスウォッチ_4-44" data-name="新規グラデーションスウォッチ 4" x1="454.791" y1="69.487" x2="461.406" y2="69.487" xlink:href="#_規グラデーションスウォッチ_4"/>
    <linearGradient id="_規グラデーションスウォッチ_4-45" data-name="新規グラデーションスウォッチ 4" x1="455.024" y1="69.487" x2="461.172" y2="69.487" xlink:href="#_規グラデーションスウォッチ_4"/>
    <linearGradient id="_規グラデーションスウォッチ_4-46" data-name="新規グラデーションスウォッチ 4" x1="455.258" y1="69.487" x2="460.939" y2="69.487" xlink:href="#_規グラデーションスウォッチ_4"/>
    <linearGradient id="_規グラデーションスウォッチ_4-47" data-name="新規グラデーションスウォッチ 4" x1="455.492" y1="69.487" x2="460.705" y2="69.487" xlink:href="#_規グラデーションスウォッチ_4"/>
    <linearGradient id="_規グラデーションスウォッチ_4-48" data-name="新規グラデーションスウォッチ 4" x1="455.726" y1="69.487" x2="460.471" y2="69.487" xlink:href="#_規グラデーションスウォッチ_4"/>
    <linearGradient id="_規グラデーションスウォッチ_4-49" data-name="新規グラデーションスウォッチ 4" x1="450.51" y1="83.5" x2="460.397" y2="83.5" gradientTransform="translate(-13.012 -14.013)" xlink:href="#_規グラデーションスウォッチ_4"/>
    <linearGradient id="_規グラデーションスウォッチ_4-50" data-name="新規グラデーションスウォッチ 4" x1="450.743" y1="83.5" x2="460.163" y2="83.5" gradientTransform="translate(-13.012 -14.013)" xlink:href="#_規グラデーションスウォッチ_4"/>
    <linearGradient id="_規グラデーションスウォッチ_4-51" data-name="新規グラデーションスウォッチ 4" x1="450.977" y1="83.5" x2="459.929" y2="83.5" gradientTransform="translate(-13.012 -14.013)" xlink:href="#_規グラデーションスウォッチ_4"/>
    <linearGradient id="_規グラデーションスウォッチ_4-52" data-name="新規グラデーションスウォッチ 4" x1="451.211" y1="83.5" x2="459.696" y2="83.5" gradientTransform="translate(-13.012 -14.013)" xlink:href="#_規グラデーションスウォッチ_4"/>
    <linearGradient id="_規グラデーションスウォッチ_4-53" data-name="新規グラデーションスウォッチ 4" x1="451.445" y1="83.5" x2="459.462" y2="83.5" gradientTransform="translate(-13.012 -14.013)" xlink:href="#_規グラデーションスウォッチ_4"/>
    <linearGradient id="_規グラデーションスウォッチ_4-54" data-name="新規グラデーションスウォッチ 4" x1="451.678" y1="83.5" x2="459.228" y2="83.5" gradientTransform="translate(-13.012 -14.013)" xlink:href="#_規グラデーションスウォッチ_4"/>
    <linearGradient id="_規グラデーションスウォッチ_4-55" data-name="新規グラデーションスウォッチ 4" x1="451.912" y1="83.5" x2="458.995" y2="83.5" gradientTransform="translate(-13.012 -14.013)" xlink:href="#_規グラデーションスウォッチ_4"/>
    <linearGradient id="_規グラデーションスウォッチ_4-56" data-name="新規グラデーションスウォッチ 4" x1="452.146" y1="83.5" x2="458.761" y2="83.5" gradientTransform="translate(-13.012 -14.013)" xlink:href="#_規グラデーションスウォッチ_4"/>
    <linearGradient id="_規グラデーションスウォッチ_4-57" data-name="新規グラデーションスウォッチ 4" x1="452.379" y1="83.5" x2="458.527" y2="83.5" gradientTransform="translate(-13.012 -14.013)" xlink:href="#_規グラデーションスウォッチ_4"/>
    <linearGradient id="_規グラデーションスウォッチ_4-58" data-name="新規グラデーションスウォッチ 4" x1="452.613" y1="83.5" x2="458.293" y2="83.5" gradientTransform="translate(-13.012 -14.013)" xlink:href="#_規グラデーションスウォッチ_4"/>
    <linearGradient id="_規グラデーションスウォッチ_4-59" data-name="新規グラデーションスウォッチ 4" x1="452.847" y1="83.5" x2="458.06" y2="83.5" gradientTransform="translate(-13.012 -14.013)" xlink:href="#_規グラデーションスウォッチ_4"/>
    <linearGradient id="_規グラデーションスウォッチ_4-60" data-name="新規グラデーションスウォッチ 4" x1="453.08" y1="83.5" x2="457.826" y2="83.5" gradientTransform="translate(-13.012 -14.013)" xlink:href="#_規グラデーションスウォッチ_4"/>
    <linearGradient id="_称未設定グラデーション_49" data-name="名称未設定グラデーション 49" x1="916.953" y1="206.25" x2="916.953" y2="1" gradientTransform="translate(1304.456) rotate(-180) scale(1 -1)" gradientUnits="userSpaceOnUse">
      <stop offset="0" stop-color="#f09576"/>
      <stop offset="1" stop-color="#f7e9cf"/>
    </linearGradient>
    <linearGradient id="_称未設定グラデーション_49-2" data-name="名称未設定グラデーション 49" x1="1011.809" y1="207.753" x2="1011.809" y2="1.145" gradientTransform="translate(-449.909)" xlink:href="#_称未設定グラデーション_49"/>
    <linearGradient id="_称未設定グラデーション_6" data-name="名称未設定グラデーション 6" x1="398.559" y1="69.765" x2="460.252" y2="69.765" gradientTransform="matrix(1, 0, 0, 1, 0, 0)" gradientUnits="userSpaceOnUse">
      <stop offset="0" stop-color="#f1ddc3" stop-opacity="0"/>
      <stop offset=".319" stop-color="#cb827a" stop-opacity=".163"/>
      <stop offset=".598" stop-color="#b5494c" stop-opacity=".264"/>
      <stop offset=".803" stop-color="#ad363d" stop-opacity=".3"/>
    </linearGradient>
    <linearGradient id="_称未設定グラデーション_138-3" data-name="名称未設定グラデーション 138" x1="80.961" x2="232.702" xlink:href="#_称未設定グラデーション_138"/>
    <linearGradient id="_称未設定グラデーション_138-4" data-name="名称未設定グラデーション 138" x1="54.12" y1="66.884" x2="258.103" y2="66.884" xlink:href="#_称未設定グラデーション_138"/>
    <linearGradient id="_規グラデーションスウォッチ_4-61" data-name="新規グラデーションスウォッチ 4" x1="153.885" x2="163.772" xlink:href="#_規グラデーションスウォッチ_4"/>
    <linearGradient id="_規グラデーションスウォッチ_4-62" data-name="新規グラデーションスウォッチ 4" x1="154.118" x2="163.538" xlink:href="#_規グラデーションスウォッチ_4"/>
    <linearGradient id="_規グラデーションスウォッチ_4-63" data-name="新規グラデーションスウォッチ 4" x1="154.352" x2="163.304" xlink:href="#_規グラデーションスウォッチ_4"/>
    <linearGradient id="_規グラデーションスウォッチ_4-64" data-name="新規グラデーションスウォッチ 4" x1="154.586" x2="163.071" xlink:href="#_規グラデーションスウォッチ_4"/>
    <linearGradient id="_規グラデーションスウォッチ_4-65" data-name="新規グラデーションスウォッチ 4" x1="154.819" y1="70.535" x2="162.837" y2="70.535" xlink:href="#_規グラデーションスウォッチ_4"/>
    <linearGradient id="_規グラデーションスウォッチ_4-66" data-name="新規グラデーションスウォッチ 4" x1="155.053" x2="162.603" xlink:href="#_規グラデーションスウォッチ_4"/>
    <linearGradient id="_規グラデーションスウォッチ_4-67" data-name="新規グラデーションスウォッチ 4" x1="155.287" x2="162.369" xlink:href="#_規グラデーションスウォッチ_4"/>
    <linearGradient id="_規グラデーションスウォッチ_4-68" data-name="新規グラデーションスウォッチ 4" x1="155.52" x2="162.136" xlink:href="#_規グラデーションスウォッチ_4"/>
    <linearGradient id="_規グラデーションスウォッチ_4-69" data-name="新規グラデーションスウォッチ 4" x1="155.754" x2="161.902" xlink:href="#_規グラデーションスウォッチ_4"/>
    <linearGradient id="_規グラデーションスウォッチ_4-70" data-name="新規グラデーションスウォッチ 4" x1="155.988" x2="161.668" xlink:href="#_規グラデーションスウォッチ_4"/>
    <linearGradient id="_規グラデーションスウォッチ_4-71" data-name="新規グラデーションスウォッチ 4" x1="156.222" y1="70.535" x2="161.435" y2="70.535" xlink:href="#_規グラデーションスウォッチ_4"/>
    <linearGradient id="_規グラデーションスウォッチ_4-72" data-name="新規グラデーションスウォッチ 4" x1="156.455" x2="161.201" xlink:href="#_規グラデーションスウォッチ_4"/>
    <linearGradient id="_規グラデーションスウォッチ_4-73" data-name="新規グラデーションスウォッチ 4" x1="168.321" y1="69.487" x2="178.208" y2="69.487" xlink:href="#_規グラデーションスウォッチ_4"/>
    <linearGradient id="_規グラデーションスウォッチ_4-74" data-name="新規グラデーションスウォッチ 4" x1="168.555" y1="69.487" x2="177.975" y2="69.487" xlink:href="#_規グラデーションスウォッチ_4"/>
    <linearGradient id="_規グラデーションスウォッチ_4-75" data-name="新規グラデーションスウォッチ 4" x1="168.789" y1="69.487" x2="177.741" y2="69.487" xlink:href="#_規グラデーションスウォッチ_4"/>
    <linearGradient id="_規グラデーションスウォッチ_4-76" data-name="新規グラデーションスウォッチ 4" x1="169.023" y1="69.487" x2="177.507" y2="69.487" xlink:href="#_規グラデーションスウォッチ_4"/>
    <linearGradient id="_規グラデーションスウォッチ_4-77" data-name="新規グラデーションスウォッチ 4" x1="169.256" y1="69.487" x2="177.274" y2="69.487" xlink:href="#_規グラデーションスウォッチ_4"/>
    <linearGradient id="_規グラデーションスウォッチ_4-78" data-name="新規グラデーションスウォッチ 4" x1="169.49" y1="69.487" x2="177.04" y2="69.487" xlink:href="#_規グラデーションスウォッチ_4"/>
    <linearGradient id="_規グラデーションスウォッチ_4-79" data-name="新規グラデーションスウォッチ 4" x1="169.724" y1="69.487" x2="176.806" y2="69.487" xlink:href="#_規グラデーションスウォッチ_4"/>
    <linearGradient id="_規グラデーションスウォッチ_4-80" data-name="新規グラデーションスウォッチ 4" x1="169.957" y1="69.487" x2="176.573" y2="69.487" xlink:href="#_規グラデーションスウォッチ_4"/>
    <linearGradient id="_規グラデーションスウォッチ_4-81" data-name="新規グラデーションスウォッチ 4" x1="170.191" y1="69.487" x2="176.339" y2="69.487" xlink:href="#_規グラデーションスウォッチ_4"/>
    <linearGradient id="_規グラデーションスウォッチ_4-82" data-name="新規グラデーションスウォッチ 4" x1="170.425" y1="69.487" x2="176.105" y2="69.487" xlink:href="#_規グラデーションスウォッチ_4"/>
    <linearGradient id="_規グラデーションスウォッチ_4-83" data-name="新規グラデーションスウォッチ 4" x1="170.658" y1="69.487" x2="175.872" y2="69.487" xlink:href="#_規グラデーションスウォッチ_4"/>
    <linearGradient id="_規グラデーションスウォッチ_4-84" data-name="新規グラデーションスウォッチ 4" x1="170.892" y1="69.487" x2="175.638" y2="69.487" xlink:href="#_規グラデーションスウォッチ_4"/>
    <linearGradient id="_規グラデーションスウォッチ_4-85" data-name="新規グラデーションスウォッチ 4" x1="172.288" y1="84.247" x2="182.175" y2="84.247" gradientTransform="translate(275.772 -107.745) rotate(90)" xlink:href="#_規グラデーションスウォッチ_4"/>
    <linearGradient id="_規グラデーションスウォッチ_4-86" data-name="新規グラデーションスウォッチ 4" x1="172.522" y1="84.247" x2="181.942" y2="84.247" gradientTransform="translate(275.772 -107.745) rotate(90)" xlink:href="#_規グラデーションスウォッチ_4"/>
    <linearGradient id="_規グラデーションスウォッチ_4-87" data-name="新規グラデーションスウォッチ 4" x1="172.756" y1="84.247" x2="181.708" y2="84.247" gradientTransform="translate(275.772 -107.745) rotate(90)" xlink:href="#_規グラデーションスウォッチ_4"/>
    <linearGradient id="_規グラデーションスウォッチ_4-88" data-name="新規グラデーションスウォッチ 4" x1="172.99" y1="84.247" x2="181.474" y2="84.247" gradientTransform="translate(275.772 -107.745) rotate(90)" xlink:href="#_規グラデーションスウォッチ_4"/>
    <linearGradient id="_規グラデーションスウォッチ_4-89" data-name="新規グラデーションスウォッチ 4" x1="173.223" y1="84.247" x2="181.241" y2="84.247" gradientTransform="translate(275.772 -107.745) rotate(90)" xlink:href="#_規グラデーションスウォッチ_4"/>
    <linearGradient id="_規グラデーションスウォッチ_4-90" data-name="新規グラデーションスウォッチ 4" x1="173.457" y1="84.247" x2="181.007" y2="84.247" gradientTransform="translate(275.772 -107.745) rotate(90)" xlink:href="#_規グラデーションスウォッチ_4"/>
    <linearGradient id="_規グラデーションスウォッチ_4-91" data-name="新規グラデーションスウォッチ 4" x1="173.691" y1="84.247" x2="180.773" y2="84.247" gradientTransform="translate(275.772 -107.745) rotate(90)" xlink:href="#_規グラデーションスウォッチ_4"/>
    <linearGradient id="_規グラデーションスウォッチ_4-92" data-name="新規グラデーションスウォッチ 4" x1="173.924" y1="84.247" x2="180.54" y2="84.247" gradientTransform="translate(275.772 -107.745) rotate(90)" xlink:href="#_規グラデーションスウォッチ_4"/>
    <linearGradient id="_規グラデーションスウォッチ_4-93" data-name="新規グラデーションスウォッチ 4" x1="174.158" y1="84.247" x2="180.306" y2="84.247" gradientTransform="translate(275.772 -107.745) rotate(90)" xlink:href="#_規グラデーションスウォッチ_4"/>
    <linearGradient id="_規グラデーションスウォッチ_4-94" data-name="新規グラデーションスウォッチ 4" x1="174.392" y1="84.247" x2="180.072" y2="84.247" gradientTransform="translate(275.772 -107.745) rotate(90)" xlink:href="#_規グラデーションスウォッチ_4"/>
    <linearGradient id="_規グラデーションスウォッチ_4-95" data-name="新規グラデーションスウォッチ 4" x1="174.625" y1="84.247" x2="179.839" y2="84.247" gradientTransform="translate(275.772 -107.745) rotate(90)" xlink:href="#_規グラデーションスウォッチ_4"/>
    <linearGradient id="_規グラデーションスウォッチ_4-96" data-name="新規グラデーションスウォッチ 4" x1="174.859" y1="84.247" x2="179.605" y2="84.247" gradientTransform="translate(275.772 -107.745) rotate(90)" xlink:href="#_規グラデーションスウォッチ_4"/>
    <linearGradient id="_規グラデーションスウォッチ_4-97" data-name="新規グラデーションスウォッチ 4" x1="139.135" y1="69.487" x2="149.022" y2="69.487" xlink:href="#_規グラデーションスウォッチ_4"/>
    <linearGradient id="_規グラデーションスウォッチ_4-98" data-name="新規グラデーションスウォッチ 4" x1="139.369" y1="69.487" x2="148.788" y2="69.487" xlink:href="#_規グラデーションスウォッチ_4"/>
    <linearGradient id="_規グラデーションスウォッチ_4-99" data-name="新規グラデーションスウォッチ 4" x1="139.603" y1="69.487" x2="148.555" y2="69.487" xlink:href="#_規グラデーションスウォッチ_4"/>
    <linearGradient id="_規グラデーションスウォッチ_4-100" data-name="新規グラデーションスウォッチ 4" x1="139.836" y1="69.487" x2="148.321" y2="69.487" xlink:href="#_規グラデーションスウォッチ_4"/>
    <linearGradient id="_規グラデーションスウォッチ_4-101" data-name="新規グラデーションスウォッチ 4" x1="140.07" y1="69.487" x2="148.087" y2="69.487" xlink:href="#_規グラデーションスウォッチ_4"/>
    <linearGradient id="_規グラデーションスウォッチ_4-102" data-name="新規グラデーションスウォッチ 4" x1="140.304" y1="69.487" x2="147.854" y2="69.487" xlink:href="#_規グラデーションスウォッチ_4"/>
    <linearGradient id="_規グラデーションスウォッチ_4-103" data-name="新規グラデーションスウォッチ 4" x1="140.537" y1="69.487" x2="147.62" y2="69.487" xlink:href="#_規グラデーションスウォッチ_4"/>
    <linearGradient id="_規グラデーションスウォッチ_4-104" data-name="新規グラデーションスウォッチ 4" x1="140.771" y1="69.487" x2="147.386" y2="69.487" xlink:href="#_規グラデーションスウォッチ_4"/>
    <linearGradient id="_規グラデーションスウォッチ_4-105" data-name="新規グラデーションスウォッチ 4" x1="141.005" y1="69.487" x2="147.153" y2="69.487" xlink:href="#_規グラデーションスウォッチ_4"/>
    <linearGradient id="_規グラデーションスウォッチ_4-106" data-name="新規グラデーションスウォッチ 4" x1="141.238" y1="69.487" x2="146.919" y2="69.487" xlink:href="#_規グラデーションスウォッチ_4"/>
    <linearGradient id="_規グラデーションスウォッチ_4-107" data-name="新規グラデーションスウォッチ 4" x1="141.472" y1="69.487" x2="146.685" y2="69.487" xlink:href="#_規グラデーションスウォッチ_4"/>
    <linearGradient id="_規グラデーションスウォッチ_4-108" data-name="新規グラデーションスウォッチ 4" x1="141.706" y1="69.487" x2="146.452" y2="69.487" xlink:href="#_規グラデーションスウォッチ_4"/>
    <linearGradient id="_規グラデーションスウォッチ_4-109" data-name="新規グラデーションスウォッチ 4" x1="137.664" y1="56.375" x2="147.551" y2="56.375" gradientTransform="translate(-14.186 13.112)" xlink:href="#_規グラデーションスウォッチ_4"/>
    <linearGradient id="_規グラデーションスウォッチ_4-110" data-name="新規グラデーションスウォッチ 4" x1="137.897" y1="56.375" x2="147.317" y2="56.375" gradientTransform="translate(-14.186 13.112)" xlink:href="#_規グラデーションスウォッチ_4"/>
    <linearGradient id="_規グラデーションスウォッチ_4-111" data-name="新規グラデーションスウォッチ 4" x1="138.131" y1="56.375" x2="147.083" y2="56.375" gradientTransform="translate(-14.186 13.112)" xlink:href="#_規グラデーションスウォッチ_4"/>
    <linearGradient id="_規グラデーションスウォッチ_4-112" data-name="新規グラデーションスウォッチ 4" x1="138.365" y1="56.375" x2="146.85" y2="56.375" gradientTransform="translate(-14.186 13.112)" xlink:href="#_規グラデーションスウォッチ_4"/>
    <linearGradient id="_規グラデーションスウォッチ_4-113" data-name="新規グラデーションスウォッチ 4" x1="138.598" y1="56.375" x2="146.616" y2="56.375" gradientTransform="translate(-14.186 13.112)" xlink:href="#_規グラデーションスウォッチ_4"/>
    <linearGradient id="_規グラデーションスウォッチ_4-114" data-name="新規グラデーションスウォッチ 4" x1="138.832" y1="56.375" x2="146.382" y2="56.375" gradientTransform="translate(-14.186 13.112)" xlink:href="#_規グラデーションスウォッチ_4"/>
    <linearGradient id="_規グラデーションスウォッチ_4-115" data-name="新規グラデーションスウォッチ 4" x1="139.066" y1="56.375" x2="146.148" y2="56.375" gradientTransform="translate(-14.186 13.112)" xlink:href="#_規グラデーションスウォッチ_4"/>
    <linearGradient id="_規グラデーションスウォッチ_4-116" data-name="新規グラデーションスウォッチ 4" x1="139.3" y1="56.375" x2="145.915" y2="56.375" gradientTransform="translate(-14.186 13.112)" xlink:href="#_規グラデーションスウォッチ_4"/>
    <linearGradient id="_規グラデーションスウォッチ_4-117" data-name="新規グラデーションスウォッチ 4" x1="139.533" y1="56.375" x2="145.681" y2="56.375" gradientTransform="translate(-14.186 13.112)" xlink:href="#_規グラデーションスウォッチ_4"/>
    <linearGradient id="_規グラデーションスウォッチ_4-118" data-name="新規グラデーションスウォッチ 4" x1="139.767" y1="56.375" x2="145.447" y2="56.375" gradientTransform="translate(-14.186 13.112)" xlink:href="#_規グラデーションスウォッチ_4"/>
    <linearGradient id="_規グラデーションスウォッチ_4-119" data-name="新規グラデーションスウォッチ 4" x1="140.001" y1="56.375" x2="145.214" y2="56.375" gradientTransform="translate(-14.186 13.112)" xlink:href="#_規グラデーションスウォッチ_4"/>
    <linearGradient id="_規グラデーションスウォッチ_4-120" data-name="新規グラデーションスウォッチ 4" x1="140.234" y1="56.375" x2="144.98" y2="56.375" gradientTransform="translate(-14.186 13.112)" xlink:href="#_規グラデーションスウォッチ_4"/>
    <linearGradient id="_称未設定グラデーション_49-3" data-name="名称未設定グラデーション 49" x1="697.789" y1="207.753" x2="697.789" y2="1.145" gradientTransform="translate(-449.909)" xlink:href="#_称未設定グラデーション_49"/>
    <linearGradient id="_称未設定グラデーション_49-4" data-name="名称未設定グラデーション 49" x1="759.54" y1="207.753" x2="759.54" y2="1.145" gradientTransform="translate(823.909) rotate(-180) scale(1 -1)" xlink:href="#_称未設定グラデーション_49"/>
  </defs>
  <g>
    <g id="_1" data-name="01">
      <g>
        <rect class="cls-27" x="315.495" y="1" width="308.476" height="239.425"/>
        <path class="cls-13" d="M399.898,187.553c.894-.223,36.203-20.783,70.172-20.783s74.194,23.689,74.194,23.689l2.458-98.553s-151.741,.223-151.741,1.117,4.916,94.531,4.916,94.531Z"/>
        <path class="cls-6" d="M368.14,1.688c.616,40.257,6.592,118.36,22.931,126.951,21.677,11.397,30.616-9.163,30.616-9.163,0,0-3.39-9.027,.415-9.115,2.853-.066,5.166,4.156,5.79,5.056s5.082,8.929,6.921,8.779c1.704-.14,2.59-3.744,3.602-4.878,1.272-1.426,2.593-5.554,4.894-6.099,1.087-.257,2.123,.419,3.173,2.032,0,0,1.406,2.725,3.308,2.661,2.514-.084,3.365-2.123,3.861-3.268s1.415-3.376,3.485-3.38c2.347-.004,3.24,3.045,3.408,3.38,.168,.335,1.119,3.396,3.771,3.492,3.101,.112,3.967-2.849,4.302-3.715s1.229-3.192,3.324-3.16,3.06,2.012,3.967,3.44c.578,.91,1.397,2.594,2.877,2.654,2.067,.084,2.961-2.458,3.296-3.101,.335-.642,1.341-2.598,3.129-2.598s2.933,1.257,3.659,3.017c.41,.994,1.313,3.659,4.162,3.548,2.849-.112,3.014-2.04,3.157-2.598,.307-1.201,.894-2.51,2.258-2.622,3.955-.323,4.393,6.833,7.878,7.991,3.927,1.304,10.173,.039,10.646,.552l1.149-16.265s4.154-6.298,12.128-3.324c23.116,8.622,31.318-53.165,41.876-100.265"/>
        <g class="cls-139">
          <ellipse class="cls-37" cx="472.848" cy="70.535" rx="4.943" ry="44.276"/>
          <ellipse class="cls-15" cx="472.848" cy="70.535" rx="4.71" ry="43.8"/>
          <ellipse class="cls-119" cx="472.848" cy="70.535" rx="4.476" ry="43.323"/>
          <ellipse class="cls-127" cx="472.848" cy="70.535" rx="4.242" ry="42.846"/>
          <ellipse class="cls-97" cx="472.848" cy="70.535" rx="4.009" ry="42.369"/>
          <ellipse class="cls-77" cx="472.848" cy="70.535" rx="3.775" ry="41.892"/>
          <ellipse class="cls-107" cx="472.848" cy="70.535" rx="3.541" ry="41.416"/>
          <ellipse class="cls-87" cx="472.848" cy="70.535" rx="3.308" ry="40.939"/>
          <ellipse class="cls-67" cx="472.848" cy="70.535" rx="3.074" ry="40.462"/>
          <ellipse class="cls-47" cx="472.848" cy="70.535" rx="2.84" ry="39.985"/>
          <ellipse class="cls-54" cx="472.848" cy="70.535" rx="2.607" ry="39.508"/>
          <ellipse class="cls-131" cx="472.848" cy="70.535" rx="2.373" ry="39.031"/>
        </g>
        <g class="cls-139">
          <ellipse class="cls-35" cx="487.285" cy="69.487" rx="4.943" ry="44.276"/>
          <ellipse class="cls-17" cx="487.285" cy="69.487" rx="4.71" ry="43.8"/>
          <ellipse class="cls-116" cx="487.285" cy="69.487" rx="4.476" ry="43.323"/>
          <ellipse class="cls-125" cx="487.285" cy="69.487" rx="4.242" ry="42.846"/>
          <ellipse class="cls-96" cx="487.285" cy="69.487" rx="4.009" ry="42.369"/>
          <ellipse class="cls-76" cx="487.285" cy="69.487" rx="3.775" ry="41.892"/>
          <ellipse class="cls-100" cx="487.285" cy="69.487" rx="3.541" ry="41.416"/>
          <ellipse class="cls-86" cx="487.285" cy="69.487" rx="3.308" ry="40.939"/>
          <ellipse class="cls-66" cx="487.285" cy="69.487" rx="3.074" ry="40.462"/>
          <ellipse class="cls-46" cx="487.285" cy="69.487" rx="2.84" ry="39.985"/>
          <ellipse class="cls-53" cx="487.285" cy="69.487" rx="2.607" ry="39.508"/>
          <ellipse class="cls-130" cx="487.285" cy="69.487" rx="2.373" ry="39.031"/>
        </g>
        <g class="cls-139">
          <ellipse class="cls-34" cx="505.544" cy="69.487" rx="44.276" ry="4.943" transform="translate(388.305 566.134) rotate(-84.544)"/>
          <ellipse class="cls-16" cx="505.544" cy="69.487" rx="43.8" ry="4.71" transform="translate(388.305 566.134) rotate(-84.544)"/>
          <ellipse class="cls-117" cx="505.544" cy="69.487" rx="43.323" ry="4.476" transform="translate(388.305 566.134) rotate(-84.544)"/>
          <ellipse class="cls-126" cx="505.544" cy="69.487" rx="42.846" ry="4.242" transform="translate(388.305 566.134) rotate(-84.544)"/>
          <ellipse class="cls-95" cx="505.544" cy="69.487" rx="42.369" ry="4.009" transform="translate(388.305 566.134) rotate(-84.544)"/>
          <ellipse class="cls-72" cx="505.544" cy="69.487" rx="41.892" ry="3.775" transform="translate(388.305 566.134) rotate(-84.544)"/>
          <ellipse class="cls-104" cx="505.544" cy="69.487" rx="41.416" ry="3.541" transform="translate(388.305 566.134) rotate(-84.544)"/>
          <ellipse class="cls-83" cx="505.544" cy="69.487" rx="40.939" ry="3.308" transform="translate(388.305 566.134) rotate(-84.544)"/>
          <ellipse class="cls-63" cx="505.544" cy="69.487" rx="40.462" ry="3.074" transform="translate(388.305 566.134) rotate(-84.544)"/>
          <ellipse class="cls-45" cx="505.544" cy="69.487" rx="39.985" ry="2.84" transform="translate(388.305 566.134) rotate(-84.544)"/>
          <ellipse class="cls-50" cx="505.544" cy="69.487" rx="39.508" ry="2.607" transform="translate(388.305 566.134) rotate(-84.544)"/>
          <ellipse class="cls-132" cx="505.544" cy="69.487" rx="39.031" ry="2.373" transform="translate(388.305 566.134) rotate(-84.544)"/>
        </g>
        <g class="cls-139">
          <ellipse class="cls-29" cx="458.098" cy="69.487" rx="4.943" ry="44.276"/>
          <ellipse class="cls-19" cx="458.098" cy="69.487" rx="4.71" ry="43.8"/>
          <ellipse class="cls-113" cx="458.098" cy="69.487" rx="4.476" ry="43.323"/>
          <ellipse class="cls-121" cx="458.098" cy="69.487" rx="4.242" ry="42.846"/>
          <ellipse class="cls-90" cx="458.098" cy="69.487" rx="4.009" ry="42.369"/>
          <ellipse class="cls-70" cx="458.098" cy="69.487" rx="3.775" ry="41.892"/>
          <ellipse class="cls-103" cx="458.098" cy="69.487" rx="3.541" ry="41.416"/>
          <ellipse class="cls-82" cx="458.098" cy="69.487" rx="3.308" ry="40.939"/>
          <ellipse class="cls-62" cx="458.098" cy="69.487" rx="3.074" ry="40.462"/>
          <ellipse class="cls-44" cx="458.098" cy="69.487" rx="2.84" ry="39.985"/>
          <ellipse class="cls-51" cx="458.098" cy="69.487" rx="2.607" ry="39.508"/>
          <ellipse class="cls-134" cx="458.098" cy="69.487" rx="2.373" ry="39.031"/>
        </g>
        <g class="cls-139">
          <ellipse class="cls-30" cx="442.441" cy="69.487" rx="4.943" ry="44.276" transform="translate(-4.349 38.478) rotate(-4.955)"/>
          <ellipse class="cls-20" cx="442.441" cy="69.487" rx="4.71" ry="43.8" transform="translate(-4.349 38.478) rotate(-4.955)"/>
          <ellipse class="cls-112" cx="442.441" cy="69.487" rx="4.476" ry="43.323" transform="translate(-4.349 38.478) rotate(-4.955)"/>
          <ellipse class="cls-123" cx="442.441" cy="69.487" rx="4.242" ry="42.846" transform="translate(-4.349 38.478) rotate(-4.955)"/>
          <ellipse class="cls-93" cx="442.441" cy="69.487" rx="4.009" ry="42.369" transform="translate(-4.349 38.478) rotate(-4.955)"/>
          <ellipse class="cls-74" cx="442.441" cy="69.487" rx="3.775" ry="41.892" transform="translate(-4.349 38.478) rotate(-4.955)"/>
          <ellipse class="cls-106" cx="442.441" cy="69.487" rx="3.541" ry="41.416" transform="translate(-4.349 38.478) rotate(-4.955)"/>
          <ellipse class="cls-85" cx="442.441" cy="69.487" rx="3.308" ry="40.939" transform="translate(-4.349 38.478) rotate(-4.955)"/>
          <ellipse class="cls-65" cx="442.441" cy="69.487" rx="3.074" ry="40.462" transform="translate(-4.349 38.478) rotate(-4.955)"/>
          <ellipse class="cls-43" cx="442.441" cy="69.487" rx="2.84" ry="39.985" transform="translate(-4.349 38.478) rotate(-4.955)"/>
          <ellipse class="cls-52" cx="442.441" cy="69.487" rx="2.607" ry="39.508" transform="translate(-4.349 38.478) rotate(-4.955)"/>
          <ellipse class="cls-133" cx="442.441" cy="69.487" rx="2.373" ry="39.031" transform="translate(-4.349 38.478) rotate(-4.955)"/>
        </g>
        <path class="cls-9" d="M400.678,21.948c14.918,19.031,36.24,31.503,42.494,36.629,3.005,2.463,19.284,14.736,16.495,34.015-1.963,13.568-13.256,19.471-13.256,19.471,0,0-10.114,5.326-13.927,7.022-1.543,.686,3.15-.525,3.15-.525,0,0,3.219-2.365,4.634-1.35,1.551,1.112,2.143,2.087-.303,8.865-.547,1.516-1.723,12.354-2.021,21.293-.298,8.939-1.78,10.313-4.313,13.888-2.533,3.576-3.768,11.516-5.178,14.832-3.44,8.09-9.662,16.573-24.99,22.837-6.119,2.501-37.323,12.546-88.015,3.837l-.429-201.763,75.792,.033c1.774,7.038,4.651,14.263,9.866,20.915Z"/>
        <path class="cls-10" d="M541.274,21.948c-11.043,18.463-17.993,25.685-20.078,28.962-2.086,3.278-17.942,19.125-16.451,44.486,.475,8.071,3.223,13.015,3.223,13.015,0,0,5.039,10.149,1.499,10.674-1.671,.248-3.15-.525-3.15-.525,0,0-3.219-2.365-4.634-1.35-1.551,1.112-2.143,2.087,.303,8.865,.547,1.516,1.723,12.354,2.021,21.293,.298,8.939,1.78,10.313,4.313,13.888,2.533,3.576,3.768,11.516,5.178,14.832,3.44,8.09,11.828,17.037,27.156,23.301,5.723,2.339,37.555,12.639,82.707,6.366l.104-204.611-73.643,.087c-1.908,6.397-4.575,14.072-8.548,20.716Z"/>
      </g>
      <g class="cls-140">
        <path class="cls-5" d="M516.959,132.215c.146-8.595,9.675-24.148,12.099-35.64,1.906-9.037,2.11-16.987,3.216-27.553,1.07-10.221,.038-12.72,2.932-19.6s18.462-21.787,22.878-46.28"/>
        <path class="cls-5" d="M601.078,185.625s-22.715,8.325-35.797,10.521c-11.932,2.003-16.801,2.877-33.345-5.351-13.812-6.869-16.472-26.435-16.472-29.832s1.428-28.77,1.6-31.941c.172-3.171,2.925-5.513-4.958-21.632-5.477-11.199-3.202-26.708,2.142-39.257,2.171-5.097,6.731-12.047,13.328-19.063,8.552-9.096,23.053-26.822,26.382-45.928"/>
        <path class="cls-5" d="M534.701,50.824l-8.693,14.352,1.081,6.305-.422,7.036,.011,4.703-3.506,4.502s4.851,5.511,5.455,10.833"/>
        <line class="cls-5" x1="527.577" y1="49.07" x2="529.148" y2="60.566"/>
        <path class="cls-5" d="M521.44,55.532l4.568,9.644-3.549,9.603s.159,6.246-1.411,11.317c0,0,.871,6.722-2.839,11.94l-1.145,5.946,3.73,7.755"/>
        <line class="cls-5" x1="531.244" y1="75.623" x2="527.09" y2="71.481"/>
        <path class="cls-5" d="M515.785,65.41s.244,5.647,1.279,6.893,2.876,1.597,2.876,1.597l2.519,.879,1.304,2.651,2.905,1.086s2.817,.992,4.353,4.276"/>
        <path class="cls-5" d="M512.818,72.5s3.931,2.846,3.586,6.13-5.598,7.873-7.602,9.343"/>
        <path class="cls-5" d="M519.94,73.9s.741,4.369-3.511,3.53"/>
        <path class="cls-5" d="M519.258,76.856s-1.099,6.267,2.862,10.117c0,0,3.599,1.982,2.909,5.029s-4.256,5.424-7.964,4.745-8.262,.881-8.262,.881"/>
        <path class="cls-5" d="M511.581,85.632s5.612-4.204,8.409-3.452"/>
        <path class="cls-5" d="M508.802,87.973c.737,.655,4.976,5.135,3.812,9.238"/>
        <path class="cls-5" d="M521.048,86.097s-3.951,7.564-8.826,6.838"/>
        <path class="cls-5" d="M526.679,83.219s2.198,2.18,3.132,9.339"/>
        <path class="cls-5" d="M527.101,103.633s-4.626-7.502-5.921-7.346l-.572,22.918"/>
        <line class="cls-5" x1="512.222" y1="106.332" x2="517.064" y2="103.983"/>
        <path class="cls-5" d="M600.152,181.765s-25.514,6.39-42.068,7.206c-10.564,.521-22.524-5.912-26.608-10.096-7.351-7.529-13.619-13.778-15.459-30.466"/>
        <path class="cls-5" d="M547.293,191.032c6.719,2.311,11.627,0,11.627,0"/>
        <path class="cls-5" d="M544.798,193.572s5.158,1.932,8.434,0c4.033-2.379,19.81-6.123,19.81-6.123"/>
        <path class="cls-1" d="M536.892,192.876c1.336-.812,2.883-3.096,2.516-8.571,.069,.379,6.468,11.799,6.179,11.262"/>
        <path class="cls-1" d="M549.957,188.18c-.657,2.712-2.44,4.105-7.545,1.364"/>
        <path class="cls-1" d="M553.233,193.572s16.881-.856,18.951,1.104"/>
        <path class="cls-1" d="M521.35,166.502c-.115,1.102,2.548,13.842,2.182,16.619"/>
        <path class="cls-1" d="M517.003,169.971s3.952,2.109,5.843,6.15"/>
        <path class="cls-1" d="M527.101,174.282s.236,7.18,1.839,9.498c1.275,1.843,2.129,.289,1.709,5.765"/>
        <line class="cls-1" x1="523.532" y1="183.122" x2="528.116" y2="181.753"/>
        <line class="cls-1" x1="526.481" y1="186.977" x2="528.94" y2="183.78"/>
        <path class="cls-1" d="M530.165,186.976s2.949-.666,4.329-.566,2.777,5.554,2.777,5.554"/>
        <line class="cls-1" x1="531.476" y1="178.875" x2="534.494" y2="186.41"/>
      </g>
      <g id="_1-2" data-name="01">
        <g>
          <path class="cls-4" d="M384.169,2.241c6.665,26.739,17.631,50.961,17.631,50.961,0,0,4.92,9.26,3.81,19.393s.428,20.04,4.91,28.555c5.677,10.786,9.772,17.063,9.961,25.567"/>
          <path class="cls-4" d="M387.691,2.418c3.395,12.947,9.646,28.225,21.048,37.682,8.428,6.99,26.638,16.773,29.103,19.686,2.465,2.913,39.177,37.779-.137,51.954-12.11,4.366-16.588,7.702-17.458,9.617-1.301,2.864,6.069,33.417,6.069,36.779s-3.27,28.558-17.612,33.924c-14.342,5.366-27.443,6.495-43.499,1.326-9.625-3.098-24.008-7.761-24.008-7.761"/>
          <path class="cls-4" d="M401.8,53.202l16.743,9.84-11.954,11.652,10.263-.136,3.434,12.362s-9.649,7.641-10.434,12.907"/>
          <line class="cls-4" x1="413.01" y1="43.231" x2="412.18" y2="59.302"/>
          <path class="cls-4" d="M424.773,50.881l-6.229,12.161,5.691,8.167c-.373,.238,10.272,12.389,12.949,17.001,0,0-8.624,7.124-5.812,12.569l1.558,6.551-12.135,4.37"/>
          <line class="cls-4" x1="405.226" y1="79.681" x2="412.18" y2="59.302"/>
          <path class="cls-4" d="M431.49,55.14s-5.911,14.836-7.256,16.069-7.382,3.349-7.382,3.349c0,0-8.341,8.946-10.57,11.829"/>
          <path class="cls-4" d="M439.499,62.314s1.49,12.451,1.938,15.701,12.726,10.925,15.328,12.38"/>
          <path class="cls-4" d="M425.937,74.231s9.977,4.614,15.5,3.784"/>
          <path class="cls-4" d="M426.996,74.694s-1.564,8.416-6.709,12.226c0,0,1.366,3.996,2.262,7.011s8.822,6.848,8.822,6.848c4.961,.105,15.882,.676,18.861,3.96"/>
          <path class="cls-4" d="M441.437,78.015c-.028,.423-.66,10.028-4.254,10.195"/>
          <path class="cls-4" d="M454.624,90.179c-2.228-.149-8.118,2.794-4.902,14.085"/>
          <path class="cls-4" d="M437.183,88.21s9.21,12.233,13.049,15.517"/>
          <path class="cls-4" d="M420.286,86.92s-10.254-.569-12.921,6.528"/>
          <path class="cls-4" d="M413.224,105.5c3.577-.634,7.873-10.293,9.324-11.569l-2.302,27.426"/>
          <line class="cls-4" x1="441.437" y1="110.288" x2="432.929" y2="107.33"/>
          <path class="cls-4" d="M342.123,181.765s11.03,2.502,27.109,5.225c17.459,2.956,19.964,1.729,26.996-.012,15.686-3.884,28.883-21.198,28.609-37.336"/>
          <path class="cls-4" d="M379.566,190.94c-8.964,4.391-22.186-5.065-22.186-5.065"/>
          <path class="cls-4" d="M397.43,193.706s-4.368,.294-11.151-1.373c-4.212-1.035-16.188-4.676-16.188-4.676"/>
          <path class="cls-4" d="M404.92,193.349s-3.67,.469-2.176-8.334c0,0-4.296,4.931-5.768,10.044"/>
          <path class="cls-4" d="M390.861,188.989s3.244,3.599,8.341,.555"/>
          <path class="cls-4" d="M389.992,193.349s-16.845-.857-19.534,1.083"/>
          <path class="cls-4" d="M419.144,168.698c.149,1.091-1.311,7.287-3.411,9.415"/>
          <path class="cls-4" d="M422.883,172.81s-3.307-1.159-5.764,2.84"/>
          <path class="cls-4" d="M410.799,178.875s2.798,5.165,.707,6.707c-2.092,1.542-6.669,1.876-6.123,7.294"/>
          <line class="cls-4" x1="420.229" y1="180.049" x2="413.573" y2="183.376"/>
          <line class="cls-4" x1="415.349" y1="186.4" x2="413.046" y2="185.015"/>
          <path class="cls-4" d="M412.525,183.78s-3.71-1.441-5.503-1.342-4.161,9.109-4.161,9.109"/>
          <line class="cls-4" x1="415.174" y1="174.812" x2="412.902" y2="184.305"/>
        </g>
        <g>
          <g>
            <ellipse class="cls-25" cx="407.684" cy="38.133" rx="4.295" ry="4.927" transform="translate(103.899 312.678) rotate(-47.449)"/>
            <path class="cls-25" d="M401.918,33.869s1.232,.93,1.277,3.228l3.395-3.38s-1.788,.469-3.71-.978-2.447-.424-.962,1.131Z"/>
            <path class="cls-25" d="M412.367,43.831s-1.161-1.455-3.262-1.312l3.06-3.183s-.209,2.005,1.157,3.281,.203,2.093-.955,1.215Z"/>
          </g>
          <g>
            <ellipse class="cls-25" cx="423.888" cy="50.5" rx="3.365" ry="3.59" transform="translate(190.638 408.027) rotate(-63.673)"/>
            <path class="cls-25" d="M418.664,47.848s1.652,.943,1.716,2.978l2.168-3.546s-1.131,.615-2.888-.526-2.115-.009-.996,1.093Z"/>
            <path class="cls-25" d="M428.437,52.27s-.948-.175-1.002-1.596l-2.095,3.004s1.538-.61,3.097,.357c1.559,.967,2.28-.059,0-1.765Z"/>
          </g>
          <g>
            <ellipse class="cls-25" cx="453.934" cy="84.554" rx="4.706" ry="5.154" transform="translate(-4.32 141.197) rotate(-17.598)"/>
            <path class="cls-25" d="M450.638,78.485s.786,1.179,0,2.206l4.189-1.103s-1.92-.431-3.012-2.083c-1.092-1.653-1.905-.812-1.176,.98Z"/>
            <path class="cls-25" d="M455.064,91.482s.191-1.505-1.515-1.859l4.058-1.625s-1.086,.375-1.03,3.484c.056,3.109-.952,3.417-1.513,0Z"/>
          </g>
          <g>
            <circle class="cls-25" cx="436.558" cy="59.085" r="3.557"/>
            <path class="cls-25" d="M432.396,56.64s.744,.743,.609,2.275l2.068-3.062s-.601,.441-1.721-.325-2.935-.737-.955,1.112Z"/>
            <path class="cls-25" d="M439.499,62.314s-.581-.322-1.663,.091l2.269-3.06s-.426,1.403,.191,2,1.481,2.332-.797,.968Z"/>
          </g>
          <g>
            <ellipse class="cls-25" cx="446.369" cy="69.523" rx="3.341" ry="3.721" transform="translate(45.087 277.011) rotate(-36.195)"/>
            <path class="cls-25" d="M443.19,66.627s.368,.296-.007,1.127l2.661-1.819s-.895,.228-1.675-.478c-.59-.534-2.208-1.021-.98,1.17Z"/>
            <path class="cls-25" d="M448.525,73.588s-.252-.635-1.281-.513l2.423-2.066s-.393,.913,.113,1.714,1.075,3.143-1.255,.865Z"/>
          </g>
          <g>
            <circle class="cls-25" cx="412.061" cy="80.156" r="2.956"/>
            <path class="cls-25" d="M413.713,76.808s-.308,.533-1.317,.393l2.522,2.205s-.362-1.197,.099-1.757,1.301-2.717-1.304-.84Z"/>
            <path class="cls-25" d="M408.703,82.326c.171-.199,.507-.612,.466-1.567l2.892,2.354s-1.822-.226-2.634,.67c-.922,1.018-2.289,.364-.724-1.457Z"/>
          </g>
          <g>
            <circle class="cls-25" cx="421.803" cy="93.046" r="3.673"/>
            <path class="cls-25" d="M419.903,88.21s.5,1.306-.394,1.969l3.384-.639s-1.122-.491-1.692-2.003-1.354-3.331-1.298,.674Z"/>
          </g>
          <g>
            <circle class="cls-25" cx="431.371" cy="100.246" r="4.018"/>
            <path class="cls-25" d="M429.249,96.836s.963-.389,1.663-1.959,1.988-2.001,1.373,.457c-.224,.894,.517,1.103,.91,1.333l-3.946,.169Z"/>
            <path class="cls-25" d="M431.696,105.267s-.038-.678-1.149-1.09c0,0,3.417-.86,3.34-.801s-1.084,.466-.846,1.362-.094,3.133-1.345,.528Z"/>
          </g>
          <g>
            <circle class="cls-25" cx="421.065" cy="110.489" r="3.772"/>
            <path class="cls-25" d="M420.576,105.687s-.06,.764-1.571,1.643l4.656,.423s-1.628-1.225-1.572-2.066-.42-3.81-1.513,0Z"/>
            <path class="cls-25" d="M419.679,116.108s.248-1.613-.674-2.461c0,0,3.674,.257,3.544,.31s-1.33,.415-1.483,2.263c-.153,1.849-1.41,2.885-1.386-.112Z"/>
          </g>
          <g>
            <circle class="cls-25" cx="441.567" cy="110.035" r="3.731"/>
            <path class="cls-25" d="M445.534,107.33s-.64,.564-1.65-.217l1.347,3.623s.135-1.603,1.059-2.051,3.417-2.849-.756-1.355Z"/>
            <path class="cls-25" d="M436.99,112.774s1.132-.482,2.201,.137l-1.34-3.193s-.104,1.061-1.337,1.597-2.913,2.328,.476,1.46Z"/>
          </g>
          <g>
            <circle class="cls-25" cx="442.072" cy="94.706" r="5.309"/>
            <path class="cls-25" d="M445.879,100.246c-.129-.109-.496-1.011-2.172-.488l3.322-3.153s-.879,1.695,.157,2.892,1.97,3.508-1.307,.749Z"/>
            <path class="cls-25" d="M437.382,89.833s.617,1.037,.114,2.181l3.512-2.509s-1.469,.16-2.618-.821c-1.148-.98-2.465-2.325-1.008,1.148Z"/>
          </g>
          <g>
            <ellipse class="cls-25" cx="440.768" cy="77.947" rx="4.47" ry="4.827"/>
            <path class="cls-25" d="M439.903,72.018s-.088,1.113-1.151,1.621l4.419,.241s-1.588-.881-1.868-2.394c-.28-1.513-1.148-3.193-1.401,.532Z"/>
            <path class="cls-25" d="M439.499,84.554s.311-1.495-.746-2.299h4.032s-1.295,.771-1.822,2.536-1.868,2.213-1.464,0"/>
          </g>
          <g>
            <ellipse class="cls-25" cx="428.437" cy="76.861" rx="4.258" ry="4.594" transform="translate(47.569 287.587) rotate(-39.125)"/>
            <path class="cls-25" d="M424.161,72.634s.717,1.126,.12,2.468l3.885-2.703s-2.241,.151-3.053-.942-2.213-3.109-.952,1.176Z"/>
            <path class="cls-25" d="M432.284,82.521c-.084-.07-.945-1.285-3.036-1.23l3.386-2.798s-.602,1.452,.378,2.685c1.329,1.671,2.661,4.158-.728,1.343Z"/>
          </g>
          <g>
            <circle class="cls-25" cx="414.433" cy="67.039" r="3.683"/>
            <path class="cls-25" d="M410.52,69.765s.537-.395,.339-1.844l2.794,2.717s-1.396-.496-2.237,.316-2.017,.76-.896-1.189Z"/>
            <path class="cls-25" d="M417.27,63.185s-.649,.7-1.991,.271l2.748,2.785s-.533-1.226,.307-2.01,1.765-3.407-1.064-1.045Z"/>
          </g>
          <g>
            <ellipse class="cls-25" cx="404.502" cy="60.789" rx="3.744" ry="4.056" transform="translate(-2.495 101.663) rotate(-14.281)"/>
            <path class="cls-25" d="M402.172,55.967s.473,.936-.688,2.289l4.174-1.258s-1.445-.3-2.087-1.717-2.463-4.357-1.399,.685Z"/>
            <path class="cls-25" d="M404.805,66.379s-.346-1.367-1.461-1.799l3.828-.839s-.926,.883-.89,2.284-.637,3.82-1.477,.355Z"/>
          </g>
          <g>
            <ellipse class="cls-25" cx="428.09" cy="63.395" rx="3.715" ry="3.249" transform="translate(196.81 429.167) rotate(-66.118)"/>
            <path class="cls-25" d="M425.34,67.564s.473-.84-.199-2.171l3.296,1.569s-1.177,.11-1.648,1.196-2.203,1.619-1.449-.594Z"/>
            <path class="cls-25" d="M429.175,58.713s-.528,.893-1.707,1.189l3.695,1.769s-.868-1.401-.532-2.586,1.148-4.322-1.457-.373Z"/>
          </g>
          <g>
            <ellipse class="cls-25" cx="412.646" cy="51.094" rx="4.258" ry="4.594"/>
            <path class="cls-25" d="M412.18,45.491s-.6,.905-1.43,1.489l4.318,.336s-1.467-1.068-1.523-1.825-.405-4.286-1.365,0Z"/>
            <path class="cls-25" d="M411.523,56.781s.007-1.097-1.03-1.725l4.168,.085s-1.57,.715-1.651,1.752-1.1,2.915-1.487-.111Z"/>
          </g>
        </g>
        <path class="cls-138" d="M401.958,22.438s6.877,13.246,29.879,28.236c23.002,14.99,33.249,28.908,26.241,47.323-7.008,18.416-27.014,18.948-30.214,20.041s-13.05-3.455-18.284-14.328c-5.234-10.872-16.726-92.775-7.621-81.273Z"/>
      </g>
    </g>
    <g>
      <path class="cls-26" d="M458.815,214.653v12.614c0,.894-.209,1.312-.854,1.539-.646,.209-1.824,.228-3.553,.228-.057-.38-.266-.949-.456-1.311,.703,.02,1.387,.038,1.938,.038,1.577,0,1.653,0,1.653-.494v-11.36h-5.946c-.038,.779-.133,1.596-.323,2.432,1.976,1.729,4.351,4.027,5.547,5.49l-1.045,.817c-1.044-1.312-3.039-3.382-4.882-5.072-.703,1.919-2.108,3.818-4.845,5.414-.189-.285-.607-.741-.911-.969,4.331-2.337,5.053-5.548,5.167-8.112h-5.643v13.127h-1.272v-14.381h6.934v-3.324l1.672,.114c-.019,.133-.113,.228-.38,.266v2.944h7.2Z"/>
      <path class="cls-26" d="M480.817,214.501h-13.431v4.844c0,2.982-.361,7.048-2.888,9.727-.171-.247-.646-.702-.912-.854,1.615-1.71,2.223-3.913,2.47-6.022l-2.279,1.349c0,.152-.076,.285-.19,.343l-.569-1.33c.816-.361,1.938-.969,3.134-1.634,.038-.532,.038-1.063,.038-1.577v-5.983h6.099v-2.014l1.71,.113c-.02,.133-.134,.229-.38,.267v1.634h7.199v1.14Zm-16.527,.531c.665,1.121,1.292,2.604,1.481,3.553l-1.045,.513c-.171-.969-.778-2.488-1.405-3.628l.969-.438Zm10.677,4.579h5.889v1.102h-12.898v-1.102h5.756v-2.109h-4.389v-1.082h4.389v-1.691l1.634,.095c-.02,.134-.114,.229-.38,.267v1.33h4.635v1.082h-4.635v2.109Zm2.83,1.425c-.038,.133-.133,.228-.38,.266v1.292h3.191v1.083h-3.191v3.875c0,1.387-.627,1.425-3.647,1.425-.038-.323-.228-.779-.398-1.121,.493,.02,.949,.02,1.329,.02q1.482,0,1.482-.342v-3.856h-7.96v-1.083h7.96v-1.634l1.614,.076Zm-5.718,6.459c-.418-.836-1.444-2.014-2.394-2.812l.949-.551c.969,.778,2.014,1.918,2.451,2.754l-1.007,.608Z"/>
      <path class="cls-26" d="M488.381,218.263c.589,.722,2.185,3.001,2.546,3.552l-.741,1.007c-.322-.665-1.158-2.014-1.805-3.039v9.176h-1.196v-9.404c-.685,2.242-1.615,4.427-2.584,5.757-.133-.343-.456-.836-.684-1.121,1.234-1.653,2.507-4.769,3.115-7.485h-2.755v-1.196h2.907v-4.18l1.576,.114c-.019,.114-.133,.209-.38,.247v3.818h2.413v1.196h-2.413v1.559Zm12.443,10.79c-.741-.95-2.166-2.394-3.477-3.571-1.786,1.463-3.951,2.659-6.326,3.515-.171-.323-.513-.761-.798-1.045,4.331-1.425,7.96-4.123,9.879-7.447l1.443,.551c-.057,.095-.189,.171-.398,.152-.76,1.254-1.729,2.432-2.907,3.515,1.312,1.14,2.831,2.583,3.609,3.533l-1.025,.798Zm-.854-11.531c-.038,.133-.19,.171-.38,.189-1.71,2.774-4.75,5.51-8.074,7.144-.19-.305-.532-.685-.836-.931,1.349-.608,2.659-1.425,3.838-2.356-.874-.931-2.242-2.09-3.382-2.944l.798-.816,.969,.722c.722-.893,1.558-2.071,2.166-3.059h-4.142v-1.178h4.807v-2.964l1.634,.114c-.02,.133-.114,.228-.381,.266v2.584h4.73v1.178h-5.281l.399,.228c-.076,.096-.229,.152-.418,.134-.665,.969-1.767,2.374-2.679,3.362,.646,.531,1.272,1.083,1.748,1.558,1.234-1.14,2.317-2.413,3.077-3.724l1.406,.494Z"/>
    </g>
    <line class="cls-3" x1="471.196" y1="200.936" x2="437.382" y2="89.833"/>
    <rect class="cls-2" x="315.02" y="1" width="308.951" height="239.425"/>
  </g>
  <g>
    <g id="_1-3" data-name="01">
      <g>
        <rect class="cls-27" x="1.475" y="1" width="308.476" height="239.425"/>
        <path class="cls-7" d="M85.878,187.553c.894-.223,36.203-20.783,70.172-20.783s74.194,23.689,74.194,23.689l2.458-98.553s-151.741,.223-151.741,1.117,4.916,94.531,4.916,94.531Z"/>
        <path class="cls-8" d="M54.12,1.688c.616,40.257,6.592,118.36,22.931,126.951,21.677,11.397,30.616-9.163,30.616-9.163,0,0-3.39-9.027,.415-9.115,2.853-.066,5.166,4.156,5.79,5.056s5.082,8.929,6.921,8.779c1.704-.14,2.59-3.744,3.602-4.878,1.272-1.426,2.593-5.554,4.894-6.099,1.087-.257,2.123,.419,3.173,2.032,0,0,1.406,2.725,3.308,2.661,2.514-.084,3.365-2.123,3.861-3.268s1.415-3.376,3.485-3.38c2.347-.004,3.24,3.045,3.408,3.38,.168,.335,1.119,3.396,3.771,3.492,3.101,.112,3.967-2.849,4.302-3.715s1.229-3.192,3.324-3.16,3.06,2.012,3.967,3.44c.578,.91,1.397,2.594,2.877,2.654,2.067,.084,2.961-2.458,3.296-3.101,.335-.642,1.341-2.598,3.129-2.598s2.933,1.257,3.659,3.017c.41,.994,1.313,3.659,4.162,3.548,2.849-.112,3.014-2.04,3.157-2.598,.307-1.201,.894-2.51,2.258-2.622,3.955-.323,4.393,6.833,7.878,7.991,3.927,1.304,10.173,.039,10.646,.552l1.149-16.265s4.154-6.298,12.128-3.324c23.116,8.622,31.318-53.165,41.876-100.265"/>
        <g class="cls-139">
          <ellipse class="cls-28" cx="158.828" cy="70.535" rx="4.943" ry="44.276"/>
          <ellipse class="cls-18" cx="158.828" cy="70.535" rx="4.71" ry="43.8"/>
          <ellipse class="cls-111" cx="158.828" cy="70.535" rx="4.476" ry="43.323"/>
          <ellipse class="cls-122" cx="158.828" cy="70.535" rx="4.242" ry="42.846"/>
          <ellipse class="cls-92" cx="158.828" cy="70.535" rx="4.009" ry="42.369"/>
          <ellipse class="cls-73" cx="158.828" cy="70.535" rx="3.775" ry="41.892"/>
          <ellipse class="cls-105" cx="158.828" cy="70.535" rx="3.541" ry="41.416"/>
          <ellipse class="cls-84" cx="158.828" cy="70.535" rx="3.308" ry="40.939"/>
          <ellipse class="cls-64" cx="158.828" cy="70.535" rx="3.074" ry="40.462"/>
          <ellipse class="cls-42" cx="158.828" cy="70.535" rx="2.84" ry="39.985"/>
          <ellipse class="cls-57" cx="158.828" cy="70.535" rx="2.607" ry="39.508"/>
          <ellipse class="cls-135" cx="158.828" cy="70.535" rx="2.373" ry="39.031"/>
        </g>
        <g class="cls-139">
          <ellipse class="cls-33" cx="173.265" cy="69.487" rx="4.943" ry="44.276"/>
          <ellipse class="cls-23" cx="173.265" cy="69.487" rx="4.71" ry="43.8"/>
          <ellipse class="cls-110" cx="173.265" cy="69.487" rx="4.476" ry="43.323"/>
          <ellipse class="cls-120" cx="173.265" cy="69.487" rx="4.242" ry="42.846"/>
          <ellipse class="cls-91" cx="173.265" cy="69.487" rx="4.009" ry="42.369"/>
          <ellipse class="cls-71" cx="173.265" cy="69.487" rx="3.775" ry="41.892"/>
          <ellipse class="cls-102" cx="173.265" cy="69.487" rx="3.541" ry="41.416"/>
          <ellipse class="cls-80" cx="173.265" cy="69.487" rx="3.308" ry="40.939"/>
          <ellipse class="cls-60" cx="173.265" cy="69.487" rx="3.074" ry="40.462"/>
          <ellipse class="cls-40" cx="173.265" cy="69.487" rx="2.84" ry="39.985"/>
          <ellipse class="cls-55" cx="173.265" cy="69.487" rx="2.607" ry="39.508"/>
          <ellipse class="cls-137" cx="173.265" cy="69.487" rx="2.373" ry="39.031"/>
        </g>
        <g class="cls-139">
          <ellipse class="cls-31" cx="191.524" cy="69.487" rx="44.276" ry="4.943" transform="translate(104.142 253.537) rotate(-84.544)"/>
          <ellipse class="cls-21" cx="191.524" cy="69.487" rx="43.8" ry="4.71" transform="translate(104.142 253.537) rotate(-84.544)"/>
          <ellipse class="cls-115" cx="191.524" cy="69.487" rx="43.323" ry="4.476" transform="translate(104.142 253.537) rotate(-84.544)"/>
          <ellipse class="cls-124" cx="191.524" cy="69.487" rx="42.846" ry="4.242" transform="translate(104.142 253.537) rotate(-84.544)"/>
          <ellipse class="cls-94" cx="191.524" cy="69.487" rx="42.369" ry="4.009" transform="translate(104.142 253.537) rotate(-84.544)"/>
          <ellipse class="cls-75" cx="191.524" cy="69.487" rx="41.892" ry="3.775" transform="translate(104.142 253.537) rotate(-84.544)"/>
          <ellipse class="cls-101" cx="191.524" cy="69.487" rx="41.416" ry="3.541" transform="translate(104.142 253.537) rotate(-84.544)"/>
          <ellipse class="cls-81" cx="191.524" cy="69.487" rx="40.939" ry="3.308" transform="translate(104.142 253.537) rotate(-84.544)"/>
          <ellipse class="cls-61" cx="191.524" cy="69.487" rx="40.462" ry="3.074" transform="translate(104.142 253.537) rotate(-84.544)"/>
          <ellipse class="cls-41" cx="191.524" cy="69.487" rx="39.985" ry="2.84" transform="translate(104.142 253.537) rotate(-84.544)"/>
          <ellipse class="cls-56" cx="191.524" cy="69.487" rx="39.508" ry="2.607" transform="translate(104.142 253.537) rotate(-84.544)"/>
          <ellipse class="cls-136" cx="191.524" cy="69.487" rx="39.031" ry="2.373" transform="translate(104.142 253.537) rotate(-84.544)"/>
        </g>
        <g class="cls-139">
          <ellipse class="cls-32" cx="144.079" cy="69.487" rx="4.943" ry="44.276"/>
          <ellipse class="cls-22" cx="144.079" cy="69.487" rx="4.71" ry="43.8"/>
          <ellipse class="cls-114" cx="144.079" cy="69.487" rx="4.476" ry="43.323"/>
          <ellipse class="cls-128" cx="144.079" cy="69.487" rx="4.242" ry="42.846"/>
          <ellipse class="cls-98" cx="144.079" cy="69.487" rx="4.009" ry="42.369"/>
          <ellipse class="cls-79" cx="144.079" cy="69.487" rx="3.775" ry="41.892"/>
          <ellipse class="cls-109" cx="144.079" cy="69.487" rx="3.541" ry="41.416"/>
          <ellipse class="cls-88" cx="144.079" cy="69.487" rx="3.308" ry="40.939"/>
          <ellipse class="cls-68" cx="144.079" cy="69.487" rx="3.074" ry="40.462"/>
          <ellipse class="cls-48" cx="144.079" cy="69.487" rx="2.84" ry="39.985"/>
          <ellipse class="cls-58" cx="144.079" cy="69.487" rx="2.607" ry="39.508"/>
          <ellipse class="cls-38" cx="144.079" cy="69.487" rx="2.373" ry="39.031"/>
        </g>
        <g class="cls-139">
          <ellipse class="cls-36" cx="128.421" cy="69.487" rx="4.943" ry="44.276" transform="translate(-5.522 11.353) rotate(-4.955)"/>
          <ellipse class="cls-14" cx="128.421" cy="69.487" rx="4.71" ry="43.8" transform="translate(-5.522 11.353) rotate(-4.955)"/>
          <ellipse class="cls-118" cx="128.421" cy="69.487" rx="4.476" ry="43.323" transform="translate(-5.522 11.353) rotate(-4.955)"/>
          <ellipse class="cls-129" cx="128.421" cy="69.487" rx="4.242" ry="42.846" transform="translate(-5.522 11.353) rotate(-4.955)"/>
          <ellipse class="cls-99" cx="128.421" cy="69.487" rx="4.009" ry="42.369" transform="translate(-5.522 11.353) rotate(-4.955)"/>
          <ellipse class="cls-78" cx="128.421" cy="69.487" rx="3.775" ry="41.892" transform="translate(-5.522 11.353) rotate(-4.955)"/>
          <ellipse class="cls-108" cx="128.421" cy="69.487" rx="3.541" ry="41.416" transform="translate(-5.522 11.353) rotate(-4.955)"/>
          <ellipse class="cls-89" cx="128.421" cy="69.487" rx="3.308" ry="40.939" transform="translate(-5.522 11.353) rotate(-4.955)"/>
          <ellipse class="cls-69" cx="128.421" cy="69.487" rx="3.074" ry="40.462" transform="translate(-5.522 11.353) rotate(-4.955)"/>
          <ellipse class="cls-49" cx="128.421" cy="69.487" rx="2.84" ry="39.985" transform="translate(-5.522 11.353) rotate(-4.955)"/>
          <ellipse class="cls-59" cx="128.421" cy="69.487" rx="2.607" ry="39.508" transform="translate(-5.522 11.353) rotate(-4.955)"/>
          <ellipse class="cls-39" cx="128.421" cy="69.487" rx="2.373" ry="39.031" transform="translate(-5.522 11.353) rotate(-4.955)"/>
        </g>
        <path class="cls-11" d="M227.255,21.948c-11.043,18.463-17.993,25.685-20.078,28.962s-17.942,19.125-16.451,44.486c.475,8.071,3.223,13.015,3.223,13.015,0,0,5.039,10.149,1.499,10.674-1.671,.248-3.15-.525-3.15-.525,0,0-3.219-2.365-4.634-1.35-1.551,1.112-2.143,2.087,.303,8.865,.547,1.516,1.723,12.354,2.021,21.293,.298,8.939,1.78,10.313,4.313,13.888,2.533,3.576,3.768,11.516,5.178,14.832,3.44,8.09,11.828,17.037,27.156,23.301,5.723,2.339,37.555,12.639,82.707,6.366l.104-204.611-73.643,.087c-1.908,6.397-4.575,14.072-8.548,20.716Z"/>
        <path class="cls-12" d="M86.494,21.948c11.043,18.463,17.993,25.685,20.078,28.962s17.942,19.125,16.451,44.486c-.475,8.071-3.223,13.015-3.223,13.015,0,0-5.039,10.149-1.499,10.674,1.671,.248,3.15-.525,3.15-.525,0,0,3.219-2.365,4.634-1.35,1.551,1.112,2.143,2.087-.303,8.865-.547,1.516-1.723,12.354-2.021,21.293-.298,8.939-1.78,10.313-4.313,13.888-2.533,3.576-3.768,11.516-5.178,14.832-3.44,8.09-11.828,17.037-27.156,23.301-5.723,2.339-40.556,12.639-85.707,6.366L1.303,1.145l76.643,.087c1.908,6.397,4.575,14.072,8.548,20.716Z"/>
      </g>
      <g class="cls-140">
        <path class="cls-5" d="M111.295,132.215c-.146-8.595-9.675-24.148-12.099-35.64-1.906-9.037-2.11-16.987-3.216-27.553-1.07-10.221-.038-12.72-2.932-19.6-2.894-6.88-19.811-26.432-23.715-47.003"/>
        <path class="cls-5" d="M27.176,185.625s22.715,8.325,35.797,10.521c11.932,2.003,16.801,2.877,33.345-5.351,13.812-6.869,16.472-26.435,16.472-29.832,0-3.397-1.428-28.77-1.6-31.941s-2.925-5.513,4.958-21.632c5.477-11.199,3.202-26.708-2.142-39.257-2.171-5.097-6.731-12.047-13.328-19.063-8.552-9.096-23.053-26.822-26.382-45.928"/>
        <path class="cls-5" d="M93.553,50.824l8.693,14.352-1.081,6.305,.422,7.036-.011,4.703,3.506,4.502s-4.851,5.511-5.455,10.833"/>
        <line class="cls-5" x1="100.678" y1="49.07" x2="99.106" y2="60.566"/>
        <path class="cls-5" d="M106.815,55.532l-4.568,9.644,3.549,9.603s-.159,6.246,1.411,11.317c0,0-.871,6.722,2.839,11.94l1.145,5.946-3.73,7.755"/>
        <line class="cls-5" x1="97.01" y1="75.623" x2="101.165" y2="71.481"/>
        <path class="cls-5" d="M112.47,65.41s-.244,5.647-1.279,6.893-2.876,1.597-2.876,1.597l-2.519,.879-1.304,2.651-2.905,1.086s-2.817,.992-4.353,4.276"/>
        <path class="cls-5" d="M115.437,72.5s-3.931,2.846-3.586,6.13c.345,3.284,5.598,7.873,7.602,9.343"/>
        <path class="cls-5" d="M108.315,73.9s-.741,4.369,3.511,3.53"/>
        <path class="cls-5" d="M108.996,76.856s1.099,6.267-2.862,10.117c0,0-3.599,1.982-2.909,5.029s4.256,5.424,7.964,4.745c3.709-.679,8.262,.881,8.262,.881"/>
        <path class="cls-5" d="M116.674,85.632s-5.612-4.204-8.409-3.452"/>
        <path class="cls-5" d="M119.453,87.973c-.737,.655-4.976,5.135-3.812,9.238"/>
        <path class="cls-5" d="M107.206,86.097s3.951,7.564,8.826,6.838"/>
        <path class="cls-5" d="M101.576,83.219s-2.198,2.18-3.132,9.339"/>
        <path class="cls-5" d="M101.154,103.633s4.626-7.502,5.921-7.346l.572,22.918"/>
        <line class="cls-5" x1="116.033" y1="106.332" x2="111.19" y2="103.983"/>
        <path class="cls-5" d="M28.103,181.765s25.514,6.39,42.068,7.206c10.564,.521,22.524-5.912,26.608-10.096,7.351-7.529,13.619-13.778,15.459-30.466"/>
        <path class="cls-5" d="M80.961,191.032c-6.719,2.311-11.627,0-11.627,0"/>
        <path class="cls-5" d="M83.456,193.572s-5.158,1.932-8.434,0c-4.033-2.379-19.81-6.123-19.81-6.123"/>
        <path class="cls-1" d="M91.362,192.876c-1.336-.812-2.883-3.096-2.516-8.571-.069,.379-6.468,11.799-6.179,11.262"/>
        <path class="cls-1" d="M78.298,188.18c.657,2.712,2.44,4.105,7.545,1.364"/>
        <path class="cls-1" d="M75.022,193.572s-16.881-.856-18.951,1.104"/>
        <path class="cls-1" d="M106.905,166.502c.115,1.102-2.548,13.842-2.182,16.619"/>
        <path class="cls-1" d="M111.251,169.971s-3.952,2.109-5.843,6.15"/>
        <path class="cls-1" d="M101.154,174.282s-.236,7.18-1.839,9.498c-1.275,1.843-2.129,.289-1.709,5.765"/>
        <line class="cls-1" x1="104.722" y1="183.122" x2="100.139" y2="181.753"/>
        <line class="cls-1" x1="101.773" y1="186.977" x2="99.315" y2="183.78"/>
        <path class="cls-1" d="M98.089,186.976s-2.949-.666-4.329-.566-2.777,5.554-2.777,5.554"/>
        <line class="cls-1" x1="96.779" y1="178.875" x2="93.761" y2="186.41"/>
      </g>
      <g class="cls-140">
        <path class="cls-5" d="M202.94,132.215c.146-8.595,9.675-24.148,12.099-35.64,1.906-9.037,2.11-16.987,3.216-27.553,1.07-10.221,.038-12.72,2.932-19.6s18.462-21.787,22.878-46.28"/>
        <path class="cls-5" d="M287.059,185.625s-22.715,8.325-35.797,10.521c-11.932,2.003-16.801,2.877-33.345-5.351-13.812-6.869-16.472-26.435-16.472-29.832,0-3.397,1.428-28.77,1.6-31.941,.172-3.171,2.925-5.513-4.958-21.632-5.477-11.199-3.202-26.708,2.142-39.257,2.171-5.097,6.731-12.047,13.328-19.063,8.552-9.096,23.053-26.822,26.382-45.928"/>
        <path class="cls-5" d="M220.681,50.824l-8.693,14.352,1.081,6.305-.422,7.036,.011,4.703-3.506,4.502s4.851,5.511,5.455,10.833"/>
        <line class="cls-5" x1="213.557" y1="49.07" x2="215.129" y2="60.566"/>
        <path class="cls-5" d="M207.42,55.532l4.568,9.644-3.549,9.603s.159,6.246-1.411,11.317c0,0,.871,6.722-2.839,11.94l-1.145,5.946,3.73,7.755"/>
        <line class="cls-5" x1="217.225" y1="75.623" x2="213.07" y2="71.481"/>
        <path class="cls-5" d="M201.765,65.41s.244,5.647,1.279,6.893,2.876,1.597,2.876,1.597l2.519,.879,1.304,2.651,2.905,1.086s2.817,.992,4.353,4.276"/>
        <path class="cls-5" d="M198.798,72.5s3.931,2.846,3.586,6.13-5.598,7.873-7.602,9.343"/>
        <path class="cls-5" d="M205.92,73.9s.741,4.369-3.511,3.53"/>
        <path class="cls-5" d="M205.239,76.856s-1.099,6.267,2.862,10.117c0,0,3.599,1.982,2.909,5.029s-4.256,5.424-7.964,4.745-8.262,.881-8.262,.881"/>
        <path class="cls-5" d="M197.561,85.632s5.612-4.204,8.409-3.452"/>
        <path class="cls-5" d="M194.782,87.973c.737,.655,4.976,5.135,3.812,9.238"/>
        <path class="cls-5" d="M207.029,86.097s-3.951,7.564-8.826,6.838"/>
        <path class="cls-5" d="M212.659,83.219s2.198,2.18,3.132,9.339"/>
        <path class="cls-5" d="M213.081,103.633s-4.626-7.502-5.921-7.346l-.572,22.918"/>
        <line class="cls-5" x1="198.202" y1="106.332" x2="203.045" y2="103.983"/>
        <path class="cls-5" d="M286.132,181.765s-25.514,6.39-42.068,7.206c-10.564,.521-22.524-5.912-26.608-10.096-7.351-7.529-13.619-13.778-15.459-30.466"/>
        <path class="cls-5" d="M233.274,191.032c6.719,2.311,11.627,0,11.627,0"/>
        <path class="cls-5" d="M230.779,193.572s5.158,1.932,8.434,0c4.033-2.379,19.81-6.123,19.81-6.123"/>
        <path class="cls-1" d="M222.872,192.876c1.336-.812,2.883-3.096,2.516-8.571,.069,.379,6.468,11.799,6.179,11.262"/>
        <path class="cls-1" d="M235.937,188.18c-.657,2.712-2.44,4.105-7.545,1.364"/>
        <path class="cls-1" d="M239.213,193.572s16.881-.856,18.951,1.104"/>
        <path class="cls-1" d="M207.33,166.502c-.115,1.102,2.548,13.842,2.182,16.619"/>
        <path class="cls-1" d="M202.984,169.971s3.952,2.109,5.843,6.15"/>
        <path class="cls-1" d="M213.081,174.282s.236,7.18,1.839,9.498c1.275,1.843,2.129,.289,1.709,5.765"/>
        <line class="cls-1" x1="209.512" y1="183.122" x2="214.096" y2="181.753"/>
        <line class="cls-1" x1="212.462" y1="186.977" x2="214.92" y2="183.78"/>
        <path class="cls-5" d="M216.145,186.976s2.949-.666,4.329-.566,2.777,5.554,2.777,5.554"/>
        <line class="cls-1" x1="217.456" y1="178.875" x2="220.474" y2="186.41"/>
      </g>
    </g>
    <g>
      <path class="cls-26" d="M123.794,214.653v12.614c0,.894-.209,1.312-.854,1.539-.646,.209-1.824,.228-3.553,.228-.057-.38-.266-.949-.456-1.311,.703,.02,1.387,.038,1.938,.038,1.577,0,1.653,0,1.653-.494v-11.36h-5.946c-.038,.779-.133,1.596-.323,2.432,1.976,1.729,4.351,4.027,5.547,5.49l-1.045,.817c-1.044-1.312-3.039-3.382-4.882-5.072-.703,1.919-2.108,3.818-4.845,5.414-.189-.285-.607-.741-.911-.969,4.331-2.337,5.053-5.548,5.167-8.112h-5.643v13.127h-1.272v-14.381h6.934v-3.324l1.672,.114c-.019,.133-.113,.228-.38,.266v2.944h7.2Z"/>
      <path class="cls-26" d="M145.796,214.501h-13.431v4.844c0,2.982-.361,7.048-2.888,9.727-.171-.247-.646-.702-.912-.854,1.615-1.71,2.223-3.913,2.47-6.022l-2.279,1.349c0,.152-.076,.285-.19,.343l-.569-1.33c.816-.361,1.938-.969,3.134-1.634,.038-.532,.038-1.063,.038-1.577v-5.983h6.099v-2.014l1.71,.113c-.02,.133-.134,.229-.38,.267v1.634h7.199v1.14Zm-16.527,.531c.665,1.121,1.292,2.604,1.481,3.553l-1.045,.513c-.171-.969-.778-2.488-1.405-3.628l.969-.438Zm10.677,4.579h5.889v1.102h-12.898v-1.102h5.756v-2.109h-4.389v-1.082h4.389v-1.691l1.634,.095c-.02,.134-.114,.229-.38,.267v1.33h4.635v1.082h-4.635v2.109Zm2.83,1.425c-.038,.133-.133,.228-.38,.266v1.292h3.191v1.083h-3.191v3.875c0,1.387-.627,1.425-3.647,1.425-.038-.323-.228-.779-.398-1.121,.493,.02,.949,.02,1.329,.02q1.482,0,1.482-.342v-3.856h-7.96v-1.083h7.96v-1.634l1.614,.076Zm-5.718,6.459c-.418-.836-1.444-2.014-2.394-2.812l.949-.551c.969,.778,2.014,1.918,2.451,2.754l-1.007,.608Z"/>
      <path class="cls-26" d="M157.519,217.673v.988h-8.491v-.988h3.686v-1.367h-2.698v-.969h2.698v-1.273h-3.287v-.987h3.287v-1.748l1.614,.114c-.019,.133-.113,.209-.38,.247v1.387h3.382v.987h-3.382v1.273h2.85v.969h-2.85v1.367h3.571Zm-.969,2.242v7.731c0,1.254-.627,1.368-2.944,1.368-.057-.323-.247-.798-.418-1.102,.874,.019,1.615,.019,1.843,.019,.228-.019,.304-.076,.304-.285v-1.899h-3.951v3.249h-1.178v-9.081h6.345Zm-1.216,1.007h-3.951v1.443h3.951v-1.443Zm-3.951,3.875h3.951v-1.481h-3.951v1.481Zm15.482-4.996v1.102h-1.291v4.065h-1.179v-.702h-2.317v3.21c0,1.368-.513,1.521-3.286,1.521-.058-.343-.247-.855-.418-1.197,.513,.019,.987,.019,1.367,.019,1.026,0,1.141,0,1.141-.342v-3.21h-2.66v-1.083h2.66v-2.28h-3.629v-1.102h3.629v-2.203h-2.565v-.988l-.437,.456c-.209-.19-.607-.551-.874-.722,1.235-1.14,2.47-3.078,3.173-5.016l1.425,.438c-.058,.133-.209,.189-.399,.171-.171,.398-.342,.798-.551,1.196h3.04l.209-.057,.874,.569c-.038,.076-.152,.134-.247,.152-.438,.816-1.083,1.843-1.748,2.697h2.793v3.306h1.291Zm-5.356-3.306c.531-.664,1.082-1.538,1.481-2.317h-2.906c-.514,.854-1.083,1.653-1.672,2.317h3.097Zm.569,1.103v2.203h2.317v-2.203h-2.317Zm2.317,5.585v-2.28h-2.317v2.28h2.317Z"/>
      <path class="cls-26" d="M176.026,212.05v15.407c0,1.387-.627,1.558-3.021,1.52-.038-.304-.209-.854-.38-1.178,.456,0,.874,.019,1.197,.019,1.007,0,1.045,0,1.045-.38v-4.996h-2.717c-.152,2.28-.532,4.712-1.368,6.555-.228-.209-.722-.494-1.025-.608,1.272-2.717,1.367-6.592,1.367-9.423v-6.915h4.901Zm-3.761,6.915c0,.703-.02,1.463-.038,2.28h2.641v-3.458h-2.603v1.178Zm2.603-5.718h-2.603v3.362h2.603v-3.362Zm4.084,.36c2.488-.589,5.167-1.405,6.688-2.223l1.216,1.026c-.076,.076-.114,.076-.399,.076-1.805,.854-4.807,1.652-7.522,2.261v5.11c0,2.697-.209,6.478-1.919,9.175-.171-.266-.627-.664-.931-.816,1.5-2.47,1.652-5.794,1.652-8.358v-6.611l1.216,.36Zm8.492,2.831c-.076,.057-.114,.057-.38,.057-.779,.323-1.748,.665-2.831,1.007,.114,1.159,.285,2.299,.475,3.382,.703-.627,1.482-1.406,1.957-1.995l1.063,1.121c-.057,.058-.151,.076-.246,.076-.058,0-.114,0-.172-.019-.569,.569-1.558,1.387-2.374,1.976,.589,2.583,1.463,4.729,2.83,5.946-.304,.228-.74,.702-.949,1.063-2.166-2.185-3.116-6.402-3.609-11.246l-1.425,.398v10.771h-1.178v-10.448c-.381,.095-.741,.171-1.103,.266-.057-.285-.266-.722-.418-.987,2.584-.665,5.548-1.615,7.238-2.413l1.121,1.045Z"/>
      <path class="cls-26" d="M208.248,221.511h-9.347v7.485h-1.178v-1.653c-2.298,.209-4.597,.418-6.098,.532-.02,.133-.133,.209-.247,.247l-.475-1.254,1.861-.114v-5.243h-1.672v-.969h7.884v-1.121h-5.889v-.874h5.889v-1.083h-6.857v-.893h4.312c-.19-.456-.57-1.025-.912-1.463l.437-.133h-4.787v-.987h3.211c-.285-.627-.836-1.501-1.33-2.166l1.063-.323c.551,.684,1.178,1.615,1.444,2.242l-.723,.247h2.395v-2.66l1.558,.095c-.02,.134-.114,.229-.361,.267v2.299h2.413v-2.66l1.558,.095c-.02,.134-.114,.229-.361,.267v2.299h2.128l-.513-.19c.493-.646,1.14-1.634,1.481-2.317l1.463,.475c-.038,.114-.19,.171-.38,.171-.361,.532-.931,1.292-1.425,1.862h3.4v.987h-4.351l.38,.114c-.057,.114-.189,.171-.398,.171-.247,.38-.608,.874-.95,1.311h4.445v.893h-7.066v1.083h6.136v.874h-6.136v1.121h7.997v.969Zm-10.524,1.083v-1.083h-3.799v1.083h3.799Zm0,1.919v-1.083h-3.799v1.083h3.799Zm-3.799,.836v1.329c1.196-.095,2.488-.171,3.799-.285v-1.044h-3.799Zm7.94-8.777c-.114-.038-.209-.076-.285-.095,.305-.418,.685-1.007,.95-1.501h-5.737c.38,.475,.741,1.045,.893,1.481l-.36,.114h4.54Zm4.636,5.813l.74,.342c-.019,.076-.095,.133-.151,.171-.57,1.481-1.501,2.697-2.66,3.647,1.159,.665,2.527,1.159,4.009,1.425-.247,.228-.57,.665-.722,.988-1.577-.343-3.002-.932-4.218-1.71-1.102,.722-2.355,1.272-3.647,1.634-.133-.267-.398-.703-.627-.931,1.178-.285,2.337-.761,3.362-1.387-.969-.799-1.767-1.768-2.317-2.888l.817-.247h-1.539v-1.007h6.744l.209-.038Zm-5.187,1.045c.494,.969,1.234,1.805,2.185,2.508,.893-.685,1.634-1.521,2.146-2.508h-4.331Z"/>
    </g>
    <rect class="cls-2" x="1" y="1" width="308.951" height="239.425"/>
  </g>
  <path class="cls-24" d="M339.365,116.743l-20.039,10.632v-4.23l7.904-3.785h-37.35v-5.344h37.35l-7.904-3.618v-4.342l20.039,10.688Z"/>
  <polyline class="cls-3" points="109.315 83.773 156.832 204.482 209.474 86.404"/>
</svg>