<?xml version="1.0" encoding="UTF-8"?>
<svg id="_イヤー_1" data-name="レイヤー 1" xmlns="http://www.w3.org/2000/svg" width="145.242mm" height="97.13mm" xmlns:xlink="http://www.w3.org/1999/xlink" viewBox="0 0 411.711 275.329">
  <defs>
    <style>
      .cls-1 {
        fill: url(#_称未設定グラデーション_49);
      }

      .cls-2 {
        fill: url(#_称未設定グラデーション_96);
      }

      .cls-3 {
        fill: url(#_称未設定グラデーション_138-2);
      }

      .cls-3, .cls-4, .cls-5, .cls-6 {
        stroke-miterlimit: 10;
      }

      .cls-3, .cls-5, .cls-6 {
        stroke: #7e4f22;
        stroke-width: 1.465px;
      }

      .cls-7 {
        fill: url(#_規グラデーションスウォッチ_4-2);
      }

      .cls-7, .cls-8, .cls-9, .cls-10, .cls-11 {
        opacity: .091;
      }

      .cls-12 {
        fill: #89c6cb;
      }

      .cls-13 {
        fill: url(#_規グラデーションスウォッチ_4-37);
      }

      .cls-13, .cls-14, .cls-15, .cls-16, .cls-17 {
        opacity: 0;
      }

      .cls-14 {
        fill: url(#_規グラデーションスウォッチ_4-49);
      }

      .cls-15 {
        fill: url(#_規グラデーションスウォッチ_4-25);
      }

      .cls-16 {
        fill: url(#_規グラデーションスウォッチ_4-13);
      }

      .cls-4, .cls-5, .cls-18 {
        fill: none;
      }

      .cls-4, .cls-18 {
        stroke: #ae373e;
        stroke-width: 1.279px;
      }

      .cls-19 {
        fill: url(#_規グラデーションスウォッチ_4-58);
      }

      .cls-19, .cls-20, .cls-21, .cls-22, .cls-23 {
        opacity: .818;
      }

      .cls-20 {
        fill: url(#_規グラデーションスウォッチ_4-46);
      }

      .cls-21 {
        fill: url(#_規グラデーションスウォッチ_4-34);
      }

      .cls-22 {
        fill: url(#_規グラデーションスウォッチ_4-22);
      }

      .cls-23 {
        fill: url(#_規グラデーションスウォッチ_4-10);
      }

      .cls-24 {
        fill: url(#_規グラデーションスウォッチ_4-35);
      }

      .cls-24, .cls-25, .cls-26, .cls-27, .cls-28 {
        opacity: .909;
      }

      .cls-25 {
        fill: url(#_規グラデーションスウォッチ_4-47);
      }

      .cls-26 {
        fill: url(#_規グラデーションスウォッチ_4-59);
      }

      .cls-27 {
        fill: url(#_規グラデーションスウォッチ_4-23);
      }

      .cls-28 {
        fill: url(#_規グラデーションスウォッチ_4-11);
      }

      .cls-29 {
        fill: url(#_規グラデーションスウォッチ_4-45);
      }

      .cls-29, .cls-30, .cls-31, .cls-32, .cls-33 {
        opacity: .727;
      }

      .cls-30 {
        fill: url(#_規グラデーションスウォッチ_4-33);
      }

      .cls-31 {
        fill: url(#_規グラデーションスウォッチ_4-57);
      }

      .cls-32 {
        fill: url(#_規グラデーションスウォッチ_4-21);
      }

      .cls-34 {
        fill: url(#_規グラデーションスウォッチ_4-42);
      }

      .cls-34, .cls-35, .cls-36, .cls-37, .cls-38 {
        opacity: .455;
      }

      .cls-35 {
        fill: url(#_規グラデーションスウォッチ_4-30);
      }

      .cls-36 {
        fill: url(#_規グラデーションスウォッチ_4-54);
      }

      .cls-37 {
        fill: url(#_規グラデーションスウォッチ_4-18);
      }

      .cls-39 {
        fill: url(#_規グラデーションスウォッチ_4-44);
      }

      .cls-39, .cls-40, .cls-41, .cls-42, .cls-43 {
        opacity: .636;
      }

      .cls-40 {
        fill: url(#_規グラデーションスウォッチ_4-32);
      }

      .cls-41 {
        fill: url(#_規グラデーションスウォッチ_4-56);
      }

      .cls-42 {
        fill: url(#_規グラデーションスウォッチ_4-20);
      }

      .cls-44 {
        fill: url(#_規グラデーションスウォッチ_4-41);
      }

      .cls-44, .cls-45, .cls-46, .cls-47, .cls-48 {
        opacity: .364;
      }

      .cls-45 {
        fill: url(#_規グラデーションスウォッチ_4-53);
      }

      .cls-46 {
        fill: url(#_規グラデーションスウォッチ_4-29);
      }

      .cls-47 {
        fill: url(#_規グラデーションスウォッチ_4-17);
      }

      .cls-49 {
        fill: url(#_規グラデーションスウォッチ_4-19);
      }

      .cls-49, .cls-50, .cls-51, .cls-52, .cls-53 {
        opacity: .545;
      }

      .cls-50 {
        fill: url(#_規グラデーションスウォッチ_4-43);
      }

      .cls-51 {
        fill: url(#_規グラデーションスウォッチ_4-31);
      }

      .cls-52 {
        fill: url(#_規グラデーションスウォッチ_4-55);
      }

      .cls-54 {
        fill: url(#_規グラデーションスウォッチ_4-51);
      }

      .cls-54, .cls-55, .cls-56, .cls-57, .cls-58 {
        opacity: .182;
      }

      .cls-55 {
        fill: url(#_規グラデーションスウォッチ_4-39);
      }

      .cls-56 {
        fill: url(#_規グラデーションスウォッチ_4-15);
      }

      .cls-57 {
        fill: url(#_規グラデーションスウォッチ_4-27);
      }

      .cls-59 {
        fill: url(#_規グラデーションスウォッチ_4-40);
      }

      .cls-59, .cls-60, .cls-61, .cls-62, .cls-63 {
        opacity: .273;
      }

      .cls-60 {
        fill: url(#_規グラデーションスウォッチ_4-52);
      }

      .cls-61 {
        fill: url(#_規グラデーションスウォッチ_4-16);
      }

      .cls-62 {
        fill: url(#_規グラデーションスウォッチ_4-28);
      }

      .cls-64 {
        fill: url(#_規グラデーションスウォッチ_4-24);
      }

      .cls-65 {
        fill: url(#_規グラデーションスウォッチ_4-12);
      }

      .cls-66 {
        fill: url(#_規グラデーションスウォッチ_4-36);
      }

      .cls-67 {
        fill: url(#_規グラデーションスウォッチ_4-60);
      }

      .cls-68 {
        fill: url(#_規グラデーションスウォッチ_4-48);
      }

      .cls-17 {
        fill: url(#_規グラデーションスウォッチ_4);
      }

      .cls-6 {
        fill: url(#_称未設定グラデーション_138);
      }

      .cls-18 {
        stroke-linejoin: round;
      }

      .cls-33 {
        fill: url(#_規グラデーションスウォッチ_4-9);
      }

      .cls-53 {
        fill: url(#_規グラデーションスウォッチ_4-7);
      }

      .cls-48 {
        fill: url(#_規グラデーションスウォッチ_4-5);
      }

      .cls-43 {
        fill: url(#_規グラデーションスウォッチ_4-8);
      }

      .cls-63 {
        fill: url(#_規グラデーションスウォッチ_4-4);
      }

      .cls-38 {
        fill: url(#_規グラデーションスウォッチ_4-6);
      }

      .cls-58 {
        fill: url(#_規グラデーションスウォッチ_4-3);
      }

      .cls-69 {
        opacity: .23;
      }

      .cls-70 {
        opacity: .7;
      }

      .cls-8 {
        fill: url(#_規グラデーションスウォッチ_4-26);
      }

      .cls-9 {
        fill: url(#_規グラデーションスウォッチ_4-14);
      }

      .cls-10 {
        fill: url(#_規グラデーションスウォッチ_4-38);
      }

      .cls-11 {
        fill: url(#_規グラデーションスウォッチ_4-50);
      }
    </style>
    <linearGradient id="_称未設定グラデーション_138" data-name="名称未設定グラデーション 138" x1="131.841" y1="157.378" x2="276.705" y2="157.378" gradientTransform="matrix(1, 0, 0, 1, 0, 0)" gradientUnits="userSpaceOnUse">
      <stop offset="0" stop-color="#c65a45"/>
      <stop offset=".504" stop-color="#e6bfa0"/>
      <stop offset="1" stop-color="#c65a45"/>
    </linearGradient>
    <linearGradient id="_称未設定グラデーション_138-2" data-name="名称未設定グラデーション 138" x1="106.216" y1="74.513" x2="300.955" y2="74.513" xlink:href="#_称未設定グラデーション_138"/>
    <linearGradient id="_規グラデーションスウォッチ_4" data-name="新規グラデーションスウォッチ 4" x1="201.459" y1="89.933" x2="210.898" y2="89.933" gradientTransform="matrix(1, 0, 0, 1, 0, 0)" gradientUnits="userSpaceOnUse">
      <stop offset="0" stop-color="#c0725a"/>
      <stop offset="1" stop-color="#c0725a"/>
    </linearGradient>
    <linearGradient id="_規グラデーションスウォッチ_4-2" data-name="新規グラデーションスウォッチ 4" x1="201.682" x2="210.675" xlink:href="#_規グラデーションスウォッチ_4"/>
    <linearGradient id="_規グラデーションスウォッチ_4-3" data-name="新規グラデーションスウォッチ 4" x1="201.906" x2="210.452" xlink:href="#_規グラデーションスウォッチ_4"/>
    <linearGradient id="_規グラデーションスウォッチ_4-4" data-name="新規グラデーションスウォッチ 4" x1="202.129" x2="210.229" xlink:href="#_規グラデーションスウォッチ_4"/>
    <linearGradient id="_規グラデーションスウォッチ_4-5" data-name="新規グラデーションスウォッチ 4" x1="202.352" y1="89.933" x2="210.006" y2="89.933" xlink:href="#_規グラデーションスウォッチ_4"/>
    <linearGradient id="_規グラデーションスウォッチ_4-6" data-name="新規グラデーションスウォッチ 4" x1="202.575" x2="209.783" xlink:href="#_規グラデーションスウォッチ_4"/>
    <linearGradient id="_規グラデーションスウォッチ_4-7" data-name="新規グラデーションスウォッチ 4" x1="202.798" x2="209.56" xlink:href="#_規グラデーションスウォッチ_4"/>
    <linearGradient id="_規グラデーションスウォッチ_4-8" data-name="新規グラデーションスウォッチ 4" x1="203.021" x2="209.337" xlink:href="#_規グラデーションスウォッチ_4"/>
    <linearGradient id="_規グラデーションスウォッチ_4-9" data-name="新規グラデーションスウォッチ 4" x1="203.244" x2="209.113" xlink:href="#_規グラデーションスウォッチ_4"/>
    <linearGradient id="_規グラデーションスウォッチ_4-10" data-name="新規グラデーションスウォッチ 4" x1="203.467" y1="89.933" x2="208.89" y2="89.933" xlink:href="#_規グラデーションスウォッチ_4"/>
    <linearGradient id="_規グラデーションスウォッチ_4-11" data-name="新規グラデーションスウォッチ 4" x1="203.69" x2="208.667" xlink:href="#_規グラデーションスウォッチ_4"/>
    <linearGradient id="_規グラデーションスウォッチ_4-12" data-name="新規グラデーションスウォッチ 4" x1="203.913" y1="89.933" x2="208.444" y2="89.933" xlink:href="#_規グラデーションスウォッチ_4"/>
    <linearGradient id="_規グラデーションスウォッチ_4-13" data-name="新規グラデーションスウォッチ 4" x1="215.242" y1="88.933" x2="224.681" y2="88.933" xlink:href="#_規グラデーションスウォッチ_4"/>
    <linearGradient id="_規グラデーションスウォッチ_4-14" data-name="新規グラデーションスウォッチ 4" x1="215.465" y1="88.933" x2="224.458" y2="88.933" xlink:href="#_規グラデーションスウォッチ_4"/>
    <linearGradient id="_規グラデーションスウォッチ_4-15" data-name="新規グラデーションスウォッチ 4" x1="215.688" y1="88.933" x2="224.235" y2="88.933" xlink:href="#_規グラデーションスウォッチ_4"/>
    <linearGradient id="_規グラデーションスウォッチ_4-16" data-name="新規グラデーションスウォッチ 4" x1="215.911" y1="88.933" x2="224.011" y2="88.933" xlink:href="#_規グラデーションスウォッチ_4"/>
    <linearGradient id="_規グラデーションスウォッチ_4-17" data-name="新規グラデーションスウォッチ 4" x1="216.134" y1="88.933" x2="223.788" y2="88.933" xlink:href="#_規グラデーションスウォッチ_4"/>
    <linearGradient id="_規グラデーションスウォッチ_4-18" data-name="新規グラデーションスウォッチ 4" x1="216.357" y1="88.933" x2="223.565" y2="88.933" xlink:href="#_規グラデーションスウォッチ_4"/>
    <linearGradient id="_規グラデーションスウォッチ_4-19" data-name="新規グラデーションスウォッチ 4" x1="216.581" y1="88.933" x2="223.342" y2="88.933" xlink:href="#_規グラデーションスウォッチ_4"/>
    <linearGradient id="_規グラデーションスウォッチ_4-20" data-name="新規グラデーションスウォッチ 4" x1="216.804" y1="88.933" x2="223.119" y2="88.933" xlink:href="#_規グラデーションスウォッチ_4"/>
    <linearGradient id="_規グラデーションスウォッチ_4-21" data-name="新規グラデーションスウォッチ 4" x1="217.027" y1="88.933" x2="222.896" y2="88.933" xlink:href="#_規グラデーションスウォッチ_4"/>
    <linearGradient id="_規グラデーションスウォッチ_4-22" data-name="新規グラデーションスウォッチ 4" x1="217.25" y1="88.933" x2="222.673" y2="88.933" xlink:href="#_規グラデーションスウォッチ_4"/>
    <linearGradient id="_規グラデーションスウォッチ_4-23" data-name="新規グラデーションスウォッチ 4" x1="217.473" y1="88.933" x2="222.45" y2="88.933" xlink:href="#_規グラデーションスウォッチ_4"/>
    <linearGradient id="_規グラデーションスウォッチ_4-24" data-name="新規グラデーションスウォッチ 4" x1="217.696" y1="88.933" x2="222.227" y2="88.933" xlink:href="#_規グラデーションスウォッチ_4"/>
    <linearGradient id="_規グラデーションスウォッチ_4-25" data-name="新規グラデーションスウォッチ 4" x1="229.228" y1="89.218" x2="238.667" y2="89.218" gradientTransform="translate(326.611 -145.015) rotate(90)" xlink:href="#_規グラデーションスウォッチ_4"/>
    <linearGradient id="_規グラデーションスウォッチ_4-26" data-name="新規グラデーションスウォッチ 4" x1="229.451" y1="89.218" x2="238.444" y2="89.218" gradientTransform="translate(326.611 -145.015) rotate(90)" xlink:href="#_規グラデーションスウォッチ_4"/>
    <linearGradient id="_規グラデーションスウォッチ_4-27" data-name="新規グラデーションスウォッチ 4" x1="229.674" y1="89.218" x2="238.221" y2="89.218" gradientTransform="translate(326.611 -145.015) rotate(90)" xlink:href="#_規グラデーションスウォッチ_4"/>
    <linearGradient id="_規グラデーションスウォッチ_4-28" data-name="新規グラデーションスウォッチ 4" x1="229.898" y1="89.218" x2="237.998" y2="89.218" gradientTransform="translate(326.611 -145.015) rotate(90)" xlink:href="#_規グラデーションスウォッチ_4"/>
    <linearGradient id="_規グラデーションスウォッチ_4-29" data-name="新規グラデーションスウォッチ 4" x1="230.121" y1="89.218" x2="237.775" y2="89.218" gradientTransform="translate(326.611 -145.015) rotate(90)" xlink:href="#_規グラデーションスウォッチ_4"/>
    <linearGradient id="_規グラデーションスウォッチ_4-30" data-name="新規グラデーションスウォッチ 4" x1="230.344" y1="89.218" x2="237.552" y2="89.218" gradientTransform="translate(326.611 -145.015) rotate(90)" xlink:href="#_規グラデーションスウォッチ_4"/>
    <linearGradient id="_規グラデーションスウォッチ_4-31" data-name="新規グラデーションスウォッチ 4" x1="230.567" y1="89.218" x2="237.328" y2="89.218" gradientTransform="translate(326.611 -145.015) rotate(90)" xlink:href="#_規グラデーションスウォッチ_4"/>
    <linearGradient id="_規グラデーションスウォッチ_4-32" data-name="新規グラデーションスウォッチ 4" x1="230.79" y1="89.218" x2="237.105" y2="89.218" gradientTransform="translate(326.611 -145.015) rotate(90)" xlink:href="#_規グラデーションスウォッチ_4"/>
    <linearGradient id="_規グラデーションスウォッチ_4-33" data-name="新規グラデーションスウォッチ 4" x1="231.013" y1="89.218" x2="236.882" y2="89.218" gradientTransform="translate(326.611 -145.015) rotate(90)" xlink:href="#_規グラデーションスウォッチ_4"/>
    <linearGradient id="_規グラデーションスウォッチ_4-34" data-name="新規グラデーションスウォッチ 4" x1="231.236" y1="89.218" x2="236.659" y2="89.218" gradientTransform="translate(326.611 -145.015) rotate(90)" xlink:href="#_規グラデーションスウォッチ_4"/>
    <linearGradient id="_規グラデーションスウォッチ_4-35" data-name="新規グラデーションスウォッチ 4" x1="231.459" y1="89.218" x2="236.436" y2="89.218" gradientTransform="translate(326.611 -145.015) rotate(90)" xlink:href="#_規グラデーションスウォッチ_4"/>
    <linearGradient id="_規グラデーションスウォッチ_4-36" data-name="新規グラデーションスウォッチ 4" x1="231.682" y1="89.218" x2="236.213" y2="89.218" gradientTransform="translate(326.611 -145.015) rotate(90)" xlink:href="#_規グラデーションスウォッチ_4"/>
    <linearGradient id="_規グラデーションスウォッチ_4-37" data-name="新規グラデーションスウォッチ 4" x1="187.378" y1="88.933" x2="196.817" y2="88.933" xlink:href="#_規グラデーションスウォッチ_4"/>
    <linearGradient id="_規グラデーションスウォッチ_4-38" data-name="新規グラデーションスウォッチ 4" x1="187.601" y1="88.933" x2="196.594" y2="88.933" xlink:href="#_規グラデーションスウォッチ_4"/>
    <linearGradient id="_規グラデーションスウォッチ_4-39" data-name="新規グラデーションスウォッチ 4" x1="187.825" y1="88.933" x2="196.371" y2="88.933" xlink:href="#_規グラデーションスウォッチ_4"/>
    <linearGradient id="_規グラデーションスウォッチ_4-40" data-name="新規グラデーションスウォッチ 4" x1="188.048" y1="88.933" x2="196.148" y2="88.933" xlink:href="#_規グラデーションスウォッチ_4"/>
    <linearGradient id="_規グラデーションスウォッチ_4-41" data-name="新規グラデーションスウォッチ 4" x1="188.271" y1="88.933" x2="195.925" y2="88.933" xlink:href="#_規グラデーションスウォッチ_4"/>
    <linearGradient id="_規グラデーションスウォッチ_4-42" data-name="新規グラデーションスウォッチ 4" x1="188.494" y1="88.933" x2="195.702" y2="88.933" xlink:href="#_規グラデーションスウォッチ_4"/>
    <linearGradient id="_規グラデーションスウォッチ_4-43" data-name="新規グラデーションスウォッチ 4" x1="188.717" y1="88.933" x2="195.479" y2="88.933" xlink:href="#_規グラデーションスウォッチ_4"/>
    <linearGradient id="_規グラデーションスウォッチ_4-44" data-name="新規グラデーションスウォッチ 4" x1="188.94" y1="88.933" x2="195.256" y2="88.933" xlink:href="#_規グラデーションスウォッチ_4"/>
    <linearGradient id="_規グラデーションスウォッチ_4-45" data-name="新規グラデーションスウォッチ 4" x1="189.163" y1="88.933" x2="195.032" y2="88.933" xlink:href="#_規グラデーションスウォッチ_4"/>
    <linearGradient id="_規グラデーションスウォッチ_4-46" data-name="新規グラデーションスウォッチ 4" x1="189.386" y1="88.933" x2="194.809" y2="88.933" xlink:href="#_規グラデーションスウォッチ_4"/>
    <linearGradient id="_規グラデーションスウォッチ_4-47" data-name="新規グラデーションスウォッチ 4" x1="189.609" y1="88.933" x2="194.586" y2="88.933" xlink:href="#_規グラデーションスウォッチ_4"/>
    <linearGradient id="_規グラデーションスウォッチ_4-48" data-name="新規グラデーションスウォッチ 4" x1="189.832" y1="88.933" x2="194.363" y2="88.933" xlink:href="#_規グラデーションスウォッチ_4"/>
    <linearGradient id="_規グラデーションスウォッチ_4-49" data-name="新規グラデーションスウォッチ 4" x1="175.601" y1="88.268" x2="185.04" y2="88.268" gradientTransform="translate(-3.17 .665)" xlink:href="#_規グラデーションスウォッチ_4"/>
    <linearGradient id="_規グラデーションスウォッチ_4-50" data-name="新規グラデーションスウォッチ 4" x1="175.824" y1="88.268" x2="184.817" y2="88.268" gradientTransform="translate(-3.17 .665)" xlink:href="#_規グラデーションスウォッチ_4"/>
    <linearGradient id="_規グラデーションスウォッチ_4-51" data-name="新規グラデーションスウォッチ 4" x1="176.047" y1="88.268" x2="184.594" y2="88.268" gradientTransform="translate(-3.17 .665)" xlink:href="#_規グラデーションスウォッチ_4"/>
    <linearGradient id="_規グラデーションスウォッチ_4-52" data-name="新規グラデーションスウォッチ 4" x1="176.27" y1="88.268" x2="184.371" y2="88.268" gradientTransform="translate(-3.17 .665)" xlink:href="#_規グラデーションスウォッチ_4"/>
    <linearGradient id="_規グラデーションスウォッチ_4-53" data-name="新規グラデーションスウォッチ 4" x1="176.493" y1="88.268" x2="184.147" y2="88.268" gradientTransform="translate(-3.17 .665)" xlink:href="#_規グラデーションスウォッチ_4"/>
    <linearGradient id="_規グラデーションスウォッチ_4-54" data-name="新規グラデーションスウォッチ 4" x1="176.716" y1="88.268" x2="183.924" y2="88.268" gradientTransform="translate(-3.17 .665)" xlink:href="#_規グラデーションスウォッチ_4"/>
    <linearGradient id="_規グラデーションスウォッチ_4-55" data-name="新規グラデーションスウォッチ 4" x1="176.94" y1="88.268" x2="183.701" y2="88.268" gradientTransform="translate(-3.17 .665)" xlink:href="#_規グラデーションスウォッチ_4"/>
    <linearGradient id="_規グラデーションスウォッチ_4-56" data-name="新規グラデーションスウォッチ 4" x1="177.163" y1="88.268" x2="183.478" y2="88.268" gradientTransform="translate(-3.17 .665)" xlink:href="#_規グラデーションスウォッチ_4"/>
    <linearGradient id="_規グラデーションスウォッチ_4-57" data-name="新規グラデーションスウォッチ 4" x1="177.386" y1="88.268" x2="183.255" y2="88.268" gradientTransform="translate(-3.17 .665)" xlink:href="#_規グラデーションスウォッチ_4"/>
    <linearGradient id="_規グラデーションスウォッチ_4-58" data-name="新規グラデーションスウォッチ 4" x1="177.609" y1="88.268" x2="183.032" y2="88.268" gradientTransform="translate(-3.17 .665)" xlink:href="#_規グラデーションスウォッチ_4"/>
    <linearGradient id="_規グラデーションスウォッチ_4-59" data-name="新規グラデーションスウォッチ 4" x1="177.832" y1="88.268" x2="182.809" y2="88.268" gradientTransform="translate(-3.17 .665)" xlink:href="#_規グラデーションスウォッチ_4"/>
    <linearGradient id="_規グラデーションスウォッチ_4-60" data-name="新規グラデーションスウォッチ 4" x1="178.055" y1="88.268" x2="182.586" y2="88.268" gradientTransform="translate(-3.17 .665)" xlink:href="#_規グラデーションスウォッチ_4"/>
    <linearGradient id="_称未設定グラデーション_96" data-name="名称未設定グラデーション 96" x1="1014.861" y1="261.065" x2="1014.861" y2=".338" gradientTransform="translate(1103.245) rotate(-180) scale(1 -1)" gradientUnits="userSpaceOnUse">
      <stop offset="0" stop-color="#cc5f5d"/>
      <stop offset=".164" stop-color="#e79274"/>
      <stop offset=".35" stop-color="#eaab8f"/>
      <stop offset=".624" stop-color="#efcbb1"/>
      <stop offset=".851" stop-color="#f2dfc6"/>
      <stop offset="1" stop-color="#f4e7ce"/>
    </linearGradient>
    <linearGradient id="_称未設定グラデーション_49" data-name="名称未設定グラデーション 49" x1="771.809" y1="220.932" x2="771.809" y2=".338" gradientTransform="translate(-449.909)" gradientUnits="userSpaceOnUse">
      <stop offset="0" stop-color="#e79274"/>
      <stop offset="1" stop-color="#f4e7ce"/>
    </linearGradient>
  </defs>
  <g>
    <rect class="cls-12" width="411.711" height="275.329"/>
    <path class="cls-6" d="M136.535,201.647c.853-.213,34.563-19.841,66.992-19.841s70.832,22.615,70.832,22.615l2.347-94.087s-144.864,.213-144.864,1.067,4.694,90.247,4.694,90.247Z"/>
    <path class="cls-3" d="M106.216,.338c.588,38.433,6.293,136.864,21.891,145.066,20.695,10.881,29.229-8.747,29.229-8.747,0,0-3.236-8.618,.396-8.702,2.723-.063,4.932,3.968,5.527,4.827s4.852,8.525,6.608,8.381c1.627-.133,2.473-3.574,3.438-4.657,1.214-1.362,2.476-5.303,4.672-5.823,1.038-.246,2.027,.4,3.029,1.939,0,0,1.343,2.601,3.158,2.541,2.4-.08,3.212-2.027,3.686-3.12s1.351-3.223,3.327-3.227c2.24-.004,3.094,2.907,3.254,3.227,.16,.32,1.068,3.242,3.6,3.334,2.96,.107,3.787-2.72,4.107-3.547s1.173-3.048,3.174-3.017,2.921,1.921,3.787,3.284c.552,.869,1.334,2.476,2.747,2.534,1.973,.08,2.827-2.347,3.147-2.96,.32-.613,1.28-2.48,2.987-2.48s2.8,1.2,3.494,2.88c.392,.949,1.253,3.494,3.974,3.387,2.72-.107,2.877-1.948,3.014-2.48,.293-1.147,.853-2.396,2.156-2.503,3.776-.309,4.193,6.523,7.521,7.628,3.749,1.245,9.712,.037,10.163,.527l1.097-15.528s3.966-6.012,11.578-3.173c22.068,8.232,29.899-74.624,39.978-119.59"/>
    <g class="cls-69">
      <ellipse class="cls-17" cx="206.179" cy="89.933" rx="4.719" ry="42.27"/>
      <ellipse class="cls-7" cx="206.179" cy="89.933" rx="4.496" ry="41.815"/>
      <ellipse class="cls-58" cx="206.179" cy="89.933" rx="4.273" ry="41.359"/>
      <ellipse class="cls-63" cx="206.179" cy="89.933" rx="4.05" ry="40.904"/>
      <ellipse class="cls-48" cx="206.179" cy="89.933" rx="3.827" ry="40.449"/>
      <ellipse class="cls-38" cx="206.179" cy="89.933" rx="3.604" ry="39.994"/>
      <ellipse class="cls-53" cx="206.179" cy="89.933" rx="3.381" ry="39.539"/>
      <ellipse class="cls-43" cx="206.179" cy="89.933" rx="3.158" ry="39.083"/>
      <ellipse class="cls-33" cx="206.179" cy="89.933" rx="2.935" ry="38.628"/>
      <ellipse class="cls-23" cx="206.179" cy="89.933" rx="2.712" ry="38.173"/>
      <ellipse class="cls-28" cx="206.179" cy="89.933" rx="2.488" ry="37.718"/>
      <ellipse class="cls-65" cx="206.179" cy="89.933" rx="2.265" ry="37.263"/>
    </g>
    <g class="cls-69">
      <ellipse class="cls-16" cx="219.961" cy="88.933" rx="4.719" ry="42.27"/>
      <ellipse class="cls-9" cx="219.961" cy="88.933" rx="4.496" ry="41.815"/>
      <ellipse class="cls-56" cx="219.961" cy="88.933" rx="4.273" ry="41.359"/>
      <ellipse class="cls-61" cx="219.961" cy="88.933" rx="4.05" ry="40.904"/>
      <ellipse class="cls-47" cx="219.961" cy="88.933" rx="3.827" ry="40.449"/>
      <ellipse class="cls-37" cx="219.961" cy="88.933" rx="3.604" ry="39.994"/>
      <ellipse class="cls-49" cx="219.961" cy="88.933" rx="3.381" ry="39.539"/>
      <ellipse class="cls-42" cx="219.961" cy="88.933" rx="3.158" ry="39.083"/>
      <ellipse class="cls-32" cx="219.961" cy="88.933" rx="2.935" ry="38.628"/>
      <ellipse class="cls-22" cx="219.961" cy="88.933" rx="2.712" ry="38.173"/>
      <ellipse class="cls-27" cx="219.961" cy="88.933" rx="2.488" ry="37.718"/>
      <ellipse class="cls-64" cx="219.961" cy="88.933" rx="2.265" ry="37.263"/>
    </g>
    <g class="cls-69">
      <ellipse class="cls-15" cx="237.393" cy="88.933" rx="42.27" ry="4.719" transform="translate(126.293 316.795) rotate(-84.544)"/>
      <ellipse class="cls-8" cx="237.393" cy="88.933" rx="41.815" ry="4.496" transform="translate(126.293 316.795) rotate(-84.544)"/>
      <ellipse class="cls-57" cx="237.393" cy="88.933" rx="41.359" ry="4.273" transform="translate(126.293 316.795) rotate(-84.544)"/>
      <ellipse class="cls-62" cx="237.393" cy="88.933" rx="40.904" ry="4.05" transform="translate(126.293 316.795) rotate(-84.544)"/>
      <ellipse class="cls-46" cx="237.393" cy="88.933" rx="40.449" ry="3.827" transform="translate(126.293 316.795) rotate(-84.544)"/>
      <ellipse class="cls-35" cx="237.393" cy="88.933" rx="39.994" ry="3.604" transform="translate(126.293 316.795) rotate(-84.544)"/>
      <ellipse class="cls-51" cx="237.393" cy="88.933" rx="39.539" ry="3.381" transform="translate(126.293 316.795) rotate(-84.544)"/>
      <ellipse class="cls-40" cx="237.393" cy="88.933" rx="39.083" ry="3.158" transform="translate(126.293 316.795) rotate(-84.544)"/>
      <ellipse class="cls-30" cx="237.393" cy="88.933" rx="38.628" ry="2.935" transform="translate(126.293 316.795) rotate(-84.544)"/>
      <ellipse class="cls-21" cx="237.393" cy="88.933" rx="38.173" ry="2.712" transform="translate(126.293 316.795) rotate(-84.544)"/>
      <ellipse class="cls-24" cx="237.393" cy="88.933" rx="37.718" ry="2.488" transform="translate(126.293 316.795) rotate(-84.544)"/>
      <ellipse class="cls-66" cx="237.393" cy="88.933" rx="37.263" ry="2.265" transform="translate(126.293 316.795) rotate(-84.544)"/>
    </g>
    <g class="cls-69">
      <ellipse class="cls-13" cx="192.098" cy="88.933" rx="4.719" ry="42.27"/>
      <ellipse class="cls-10" cx="192.098" cy="88.933" rx="4.496" ry="41.815"/>
      <ellipse class="cls-55" cx="192.098" cy="88.933" rx="4.273" ry="41.359"/>
      <ellipse class="cls-59" cx="192.098" cy="88.933" rx="4.05" ry="40.904"/>
      <ellipse class="cls-44" cx="192.098" cy="88.933" rx="3.827" ry="40.449"/>
      <ellipse class="cls-34" cx="192.098" cy="88.933" rx="3.604" ry="39.994"/>
      <ellipse class="cls-50" cx="192.098" cy="88.933" rx="3.381" ry="39.539"/>
      <ellipse class="cls-39" cx="192.098" cy="88.933" rx="3.158" ry="39.083"/>
      <ellipse class="cls-29" cx="192.098" cy="88.933" rx="2.935" ry="38.628"/>
      <ellipse class="cls-20" cx="192.098" cy="88.933" rx="2.712" ry="38.173"/>
      <ellipse class="cls-25" cx="192.098" cy="88.933" rx="2.488" ry="37.718"/>
      <ellipse class="cls-68" cx="192.098" cy="88.933" rx="2.265" ry="37.263"/>
    </g>
    <g class="cls-69">
      <ellipse class="cls-14" cx="177.15" cy="88.933" rx="4.719" ry="42.27" transform="translate(-7.02 15.635) rotate(-4.955)"/>
      <ellipse class="cls-11" cx="177.15" cy="88.933" rx="4.496" ry="41.815" transform="translate(-7.02 15.635) rotate(-4.955)"/>
      <ellipse class="cls-54" cx="177.15" cy="88.933" rx="4.273" ry="41.359" transform="translate(-7.02 15.635) rotate(-4.955)"/>
      <ellipse class="cls-60" cx="177.15" cy="88.933" rx="4.05" ry="40.904" transform="translate(-7.02 15.635) rotate(-4.955)"/>
      <ellipse class="cls-45" cx="177.15" cy="88.933" rx="3.827" ry="40.449" transform="translate(-7.02 15.635) rotate(-4.955)"/>
      <ellipse class="cls-36" cx="177.15" cy="88.933" rx="3.604" ry="39.994" transform="translate(-7.02 15.635) rotate(-4.955)"/>
      <ellipse class="cls-52" cx="177.15" cy="88.933" rx="3.381" ry="39.539" transform="translate(-7.02 15.635) rotate(-4.955)"/>
      <ellipse class="cls-41" cx="177.15" cy="88.933" rx="3.158" ry="39.083" transform="translate(-7.02 15.635) rotate(-4.955)"/>
      <ellipse class="cls-31" cx="177.15" cy="88.933" rx="2.935" ry="38.628" transform="translate(-7.02 15.635) rotate(-4.955)"/>
      <ellipse class="cls-19" cx="177.15" cy="88.933" rx="2.712" ry="38.173" transform="translate(-7.02 15.635) rotate(-4.955)"/>
      <ellipse class="cls-26" cx="177.15" cy="88.933" rx="2.488" ry="37.718" transform="translate(-7.02 15.635) rotate(-4.955)"/>
      <ellipse class="cls-67" cx="177.15" cy="88.933" rx="2.265" ry="37.263" transform="translate(-7.02 15.635) rotate(-4.955)"/>
    </g>
    <path class="cls-2" d="M137.279,43.547c10.542,17.627,17.177,24.521,19.168,27.65s17.129,18.258,15.705,42.47c-.453,7.705-3.077,12.425-3.077,12.425,0,0-4.811,9.689-1.431,10.19,1.595,.236,3.007-.501,3.007-.501,0,0,3.073-2.258,4.424-1.289,1.481,1.062,2.046,1.992-.289,8.463-.522,1.447-1.645,11.794-1.929,20.328-.285,8.534-1.7,9.845-4.118,13.259-2.418,3.414-3.598,10.994-4.944,14.16-1.596,3.754-5.828,5.782-5.828,14.757,0,7.697,3.713,54.802-13.168,55.58-23.979,1.106-17.268-34.064-30.948-38.931-8.791-3.127-18.652-2.168-32.475-2.923-21.942-1.199-49.298-6.08-80.973-18.442V.338l123.749,.319c2.02,11.567,3.812,27.318,13.126,42.89Z"/>
    <path class="cls-5" d="M124.153,.657c2.02,11.567,3.812,27.318,13.126,42.89,10.542,17.627,17.177,24.521,19.168,27.65s17.129,18.258,15.705,42.47c-.453,7.705-3.077,12.425-3.077,12.425,0,0-4.811,9.689-1.431,10.19,1.595,.236,3.007-.501,3.007-.501,0,0,3.073-2.258,4.424-1.289,1.481,1.062,2.046,1.992-.289,8.463-.522,1.447-1.645,11.794-1.929,20.328-.285,8.534-1.7,9.845-4.118,13.259-2.418,3.414-3.598,10.994-4.944,14.16-1.596,3.754-5.828,5.782-5.828,14.757,0,7.697,3.713,54.802-13.168,55.58-23.979,1.106-17.268-34.064-30.948-38.931-8.791-3.127-18.652-2.168-32.475-2.923-21.942-1.199-49.298-6.08-80.973-18.442"/>
    <path class="cls-1" d="M271.504,43.547c-10.542,17.627-17.177,24.521-19.168,27.65-1.991,3.129-17.129,18.258-15.705,42.47,.453,7.705,3.077,12.425,3.077,12.425,0,0,4.811,9.689,1.431,10.19-1.595,.236-3.007-.501-3.007-.501,0,0-3.073-2.258-4.424-1.289-1.481,1.062-2.046,1.992,.289,8.463,.522,1.447,1.645,11.794,1.929,20.328,.285,8.534,1.7,9.845,4.118,13.259,2.418,3.414,3.598,10.994,4.944,14.16,3.284,7.723,11.292,16.265,25.925,22.245,7.807,3.19,66.502,21.899,140.467-12.204V.338l-126.749,.319c-2.02,11.567-3.812,27.318-13.126,42.89Z"/>
    <path class="cls-5" d="M284.63,.657c-2.02,11.567-3.812,27.318-13.126,42.89-10.542,17.627-17.177,24.521-19.168,27.65-1.991,3.129-17.129,18.258-15.705,42.47,.453,7.705,3.077,12.425,3.077,12.425,0,0,4.811,9.689,1.431,10.19-1.595,.236-3.007-.501-3.007-.501,0,0-3.073-2.258-4.424-1.289-1.481,1.062-2.046,1.992,.289,8.463,.522,1.447,1.645,11.794,1.929,20.328,.285,8.534,1.7,9.845,4.118,13.259,2.418,3.414,3.598,10.994,4.944,14.16,3.284,7.723,11.292,16.265,25.925,22.245,7.807,3.19,66.502,21.899,140.467-12.204"/>
  </g>
  <g class="cls-70">
    <path class="cls-4" d="M160.8,148.817c-.139-8.206-9.237-23.054-11.55-34.025-1.819-8.627-2.014-16.217-3.07-26.305-1.021-9.758-.037-12.143-2.8-18.711s-15.195-20.759-19.879-37.266c-2.93-10.326-5.894-24.545-6.14-31.628"/>
    <path class="cls-4" d="M80.493,199.807s21.686,7.947,34.175,10.044c11.392,1.912,16.039,2.747,31.833-5.108,13.186-6.558,15.726-25.237,15.726-28.48,0-3.243-1.363-27.466-1.528-30.493s-2.793-5.264,4.733-20.652c5.229-10.692,3.057-25.497-2.045-37.478-2.072-4.866-6.426-11.501-12.724-18.199-8.165-8.683-22.008-25.606-25.187-43.847,0,0-3.066-12.792-4.488-24.479"/>
    <path class="cls-4" d="M143.862,71.115l8.299,13.702-1.032,6.019,.403,6.717-.011,4.49,3.347,4.298s-4.631,5.261-5.207,10.342"/>
    <line class="cls-4" x1="150.664" y1="69.441" x2="149.164" y2="80.416"/>
    <path class="cls-4" d="M156.523,75.61l-4.361,9.207,3.388,9.168s-.152,5.963,1.347,10.804c0,0-.832,6.417,2.711,11.399l1.093,5.677-3.561,7.403"/>
    <line class="cls-4" x1="147.163" y1="94.79" x2="151.129" y2="90.836"/>
    <path class="cls-4" d="M161.921,85.04s-.233,5.391-1.221,6.581-2.745,1.525-2.745,1.525l-2.405,.84-1.245,2.531-2.773,1.037s-2.689,.947-4.156,4.082"/>
    <path class="cls-4" d="M164.754,91.808s-3.753,2.717-3.424,5.852c.329,3.135,5.345,7.516,7.257,8.919"/>
    <path class="cls-4" d="M157.955,93.145s-.707,4.171,3.352,3.37"/>
    <path class="cls-4" d="M158.605,95.968s1.049,5.983-2.732,9.659c0,0-3.436,1.892-2.777,4.801,.659,2.909,4.063,5.179,7.603,4.53,3.541-.649,7.888,.841,7.888,.841"/>
    <path class="cls-4" d="M165.935,104.346s-5.358-4.013-8.028-3.295"/>
    <path class="cls-4" d="M168.588,106.58c-.703,.625-4.751,4.902-3.639,8.82"/>
    <path class="cls-4" d="M156.897,104.789s3.772,7.221,8.426,6.528"/>
    <path class="cls-4" d="M151.521,102.042s-2.098,2.082-2.99,8.916"/>
    <path class="cls-4" d="M151.118,121.531s4.416-7.162,5.653-7.013l.546,21.879"/>
    <line class="cls-4" x1="165.323" y1="124.107" x2="160.7" y2="121.865"/>
    <path class="cls-4" d="M81.378,196.122s24.357,6.1,40.161,6.879c10.085,.497,21.503-5.644,25.403-9.638,7.018-7.188,13.002-13.154,14.758-29.085"/>
    <path class="cls-4" d="M131.841,204.969c-6.414,2.207-11.1,0-11.1,0"/>
    <path class="cls-4" d="M134.223,207.394s-4.924,1.845-8.052,0c-3.85-2.271-18.912-5.846-18.912-5.846"/>
    <path class="cls-18" d="M141.771,206.729c-1.275-.775-2.752-2.956-2.402-8.183-.066,.362-6.175,11.265-5.899,10.751"/>
    <path class="cls-18" d="M129.298,202.246c.627,2.589,2.33,3.919,7.203,1.302"/>
    <path class="cls-18" d="M126.171,207.394s-16.116-.817-18.092,1.054"/>
    <path class="cls-18" d="M156.609,181.551c.11,1.052-2.432,13.215-2.083,15.866"/>
    <path class="cls-18" d="M160.758,184.862s-3.773,2.014-5.578,5.872"/>
    <path class="cls-18" d="M151.118,188.978s-.225,6.855-1.756,9.067c-1.217,1.759-2.033,.276-1.632,5.503"/>
    <line class="cls-18" x1="154.525" y1="197.417" x2="150.15" y2="196.11"/>
    <line class="cls-18" x1="151.71" y1="201.098" x2="149.362" y2="198.045"/>
    <path class="cls-18" d="M148.193,201.097s-2.815-.636-4.133-.54-2.651,5.302-2.651,5.302"/>
    <line class="cls-18" x1="146.942" y1="193.362" x2="144.06" y2="200.557"/>
  </g>
  <g class="cls-70">
    <path class="cls-4" d="M248.291,148.817c.139-8.206,9.237-23.054,11.55-34.025,1.819-8.627,2.014-16.217,3.07-26.305,1.021-9.758,.037-12.143,2.8-18.711,2.763-6.568,15.195-20.759,19.879-37.266,2.93-10.326,5.894-24.545,6.14-31.628"/>
    <path class="cls-4" d="M328.598,199.807s-21.686,7.947-34.175,10.044c-11.392,1.912-16.039,2.747-31.833-5.108-13.186-6.558-15.726-25.237-15.726-28.48,0-3.243,1.363-27.466,1.528-30.493,.165-3.027,2.793-5.264-4.733-20.652-5.229-10.692-3.057-25.497,2.045-37.478,2.072-4.866,6.426-11.501,12.724-18.199,8.165-8.683,22.008-25.606,25.187-43.847,0,0,3.066-12.792,4.488-24.479"/>
    <path class="cls-4" d="M265.229,71.115l-8.299,13.702,1.032,6.019-.403,6.717,.011,4.49-3.347,4.298s4.631,5.261,5.207,10.342"/>
    <line class="cls-4" x1="258.427" y1="69.441" x2="259.928" y2="80.416"/>
    <path class="cls-4" d="M252.569,75.61l4.361,9.207-3.388,9.168s.152,5.963-1.347,10.804c0,0,.832,6.417-2.711,11.399l-1.093,5.677,3.561,7.403"/>
    <line class="cls-4" x1="261.929" y1="94.79" x2="257.962" y2="90.836"/>
    <path class="cls-4" d="M247.17,85.04s.233,5.391,1.221,6.581,2.745,1.525,2.745,1.525l2.405,.84,1.245,2.531,2.773,1.037s2.689,.947,4.156,4.082"/>
    <path class="cls-4" d="M244.337,91.808s3.753,2.717,3.424,5.852c-.329,3.135-5.345,7.516-7.257,8.919"/>
    <path class="cls-4" d="M251.137,93.145s.707,4.171-3.352,3.37"/>
    <path class="cls-4" d="M250.486,95.968s-1.049,5.983,2.732,9.659c0,0,3.436,1.892,2.777,4.801-.659,2.909-4.063,5.179-7.603,4.53s-7.888,.841-7.888,.841"/>
    <path class="cls-4" d="M243.156,104.346s5.358-4.013,8.028-3.295"/>
    <path class="cls-4" d="M240.504,106.58c.703,.625,4.751,4.902,3.639,8.82"/>
    <path class="cls-4" d="M252.195,104.789s-3.772,7.221-8.426,6.528"/>
    <path class="cls-4" d="M257.57,102.042s2.098,2.082,2.99,8.916"/>
    <path class="cls-4" d="M257.973,121.531s-4.416-7.162-5.653-7.013l-.546,21.879"/>
    <line class="cls-4" x1="243.769" y1="124.107" x2="248.391" y2="121.865"/>
    <path class="cls-4" d="M327.713,196.122s-24.357,6.1-40.161,6.879c-10.085,.497-21.503-5.644-25.403-9.638-7.018-7.188-13.002-13.154-14.758-29.085"/>
    <path class="cls-4" d="M277.25,204.969c6.414,2.207,11.1,0,11.1,0"/>
    <path class="cls-4" d="M274.868,207.394s4.924,1.845,8.052,0c3.85-2.271,18.912-5.846,18.912-5.846"/>
    <path class="cls-18" d="M267.321,206.729c1.275-.775,2.752-2.956,2.402-8.183,.066,.362,6.175,11.265,5.899,10.751"/>
    <path class="cls-18" d="M279.793,202.246c-.627,2.589-2.33,3.919-7.203,1.302"/>
    <path class="cls-18" d="M282.921,207.394s16.116-.817,18.092,1.054"/>
    <path class="cls-18" d="M252.483,181.551c-.11,1.052,2.432,13.215,2.083,15.866"/>
    <path class="cls-18" d="M248.333,184.862s3.773,2.014,5.578,5.872"/>
    <path class="cls-18" d="M257.973,188.978s.225,6.855,1.756,9.067c1.217,1.759,2.033,.276,1.632,5.503"/>
    <line class="cls-18" x1="254.566" y1="197.417" x2="258.942" y2="196.11"/>
    <line class="cls-18" x1="257.382" y1="201.098" x2="259.729" y2="198.045"/>
    <path class="cls-18" d="M260.898,201.097s2.815-.636,4.133-.54,2.651,5.302,2.651,5.302"/>
    <line class="cls-18" x1="262.15" y1="193.362" x2="265.031" y2="200.557"/>
  </g>
</svg>