<?xml version="1.0" encoding="UTF-8"?>
<svg id="_イヤー_1" data-name="レイヤー 1" xmlns="http://www.w3.org/2000/svg" width="168.628mm" height="38.384mm" xmlns:xlink="http://www.w3.org/1999/xlink" viewBox="0 0 478 108.806">
  <defs>
    <style>
      .cls-1 {
        fill: #8fd0ec;
        opacity: .04;
      }

      .cls-2 {
        fill: #8fd0ed;
        opacity: .035;
      }

      .cls-3, .cls-4, .cls-5, .cls-6, .cls-7 {
        fill: none;
      }

      .cls-8 {
        fill: #8ed0ee;
        opacity: .03;
      }

      .cls-9 {
        fill: #91cfe9;
        opacity: .055;
      }

      .cls-10 {
        fill: #90d0ea;
        opacity: .05;
      }

      .cls-11 {
        fill: #90d0eb;
        opacity: .045;
      }

      .cls-12 {
        fill: #94cfe3;
        opacity: .085;
      }

      .cls-13 {
        fill: #94cfe4;
        opacity: .08;
      }

      .cls-14 {
        fill: #8ed0ef;
        opacity: .025;
      }

      .cls-15 {
        fill: #98cedb;
        opacity: .125;
      }

      .cls-16 {
        fill: #98cedc;
        opacity: .12;
      }

      .cls-17 {
        fill: url(#_称未設定グラデーション_1154);
      }

      .cls-18 {
        fill: url(#_称未設定グラデーション_67-2);
      }

      .cls-19 {
        fill: url(#_称未設定グラデーション_1053);
      }

      .cls-20 {
        fill: #93cfe5;
        opacity: .075;
      }

      .cls-21 {
        fill: #93cfe6;
        opacity: .07;
      }

      .cls-22 {
        fill: #92cfe7;
        opacity: .065;
      }

      .cls-23 {
        fill: #91cfe8;
        opacity: .06;
      }

      .cls-24 {
        fill: #97cedd;
        opacity: .115;
      }

      .cls-25 {
        fill: #97cede;
        opacity: .11;
      }

      .cls-26 {
        fill: #96cedf;
        opacity: .105;
      }

      .cls-27 {
        fill: #96cee0;
        opacity: .1;
      }

      .cls-28 {
        fill: #95cee1;
        opacity: .095;
      }

      .cls-29 {
        fill: #95cee2;
        opacity: .09;
      }

      .cls-30 {
        fill: url(#_称未設定グラデーション_11);
      }

      .cls-31 {
        fill: url(#_称未設定グラデーション_37);
      }

      .cls-32 {
        fill: url(#_称未設定グラデーション_67);
      }

      .cls-33 {
        fill: #f7b52c;
      }

      .cls-34 {
        fill: #e4d873;
      }

      .cls-35 {
        fill: #c30d23;
      }

      .cls-36 {
        fill: #40210f;
      }

      .cls-37 {
        fill: url(#_称未設定グラデーション_680-2);
      }

      .cls-38 {
        fill: url(#_称未設定グラデーション_610-2);
      }

      .cls-4 {
        stroke: #f8be50;
        stroke-width: 3.085px;
      }

      .cls-4, .cls-5, .cls-6, .cls-7 {
        stroke-miterlimit: 10;
      }

      .cls-39 {
        fill: #9acdd9;
        opacity: .135;
      }

      .cls-40 {
        fill: #9bcdd6;
        opacity: .15;
      }

      .cls-41 {
        fill: #9bcdd7;
        opacity: .145;
      }

      .cls-42 {
        fill: #9ccdd5;
        opacity: .155;
      }

      .cls-43 {
        fill: #99cdda;
        opacity: .13;
      }

      .cls-44 {
        fill: #9acdd8;
        opacity: .14;
      }

      .cls-45 {
        fill: #a3cbc7;
        opacity: .225;
      }

      .cls-46 {
        fill: #a4cac5;
        opacity: .235;
      }

      .cls-47 {
        fill: #a1cbcb;
        opacity: .205;
      }

      .cls-48 {
        fill: #a2cbca;
        opacity: .21;
      }

      .cls-49 {
        fill: #a3cbc8;
        opacity: .22;
      }

      .cls-50 {
        fill: #a2cbc9;
        opacity: .215;
      }

      .cls-51 {
        fill: #a0cccd;
        opacity: .195;
      }

      .cls-52 {
        fill: #a0ccce;
        opacity: .19;
      }

      .cls-53 {
        fill: #a1cbcc;
        opacity: .2;
      }

      .cls-54 {
        fill: #9eccd0;
        opacity: .18;
      }

      .cls-55 {
        fill: #9eccd1;
        opacity: .175;
      }

      .cls-56 {
        fill: #9fcccf;
        opacity: .185;
      }

      .cls-57 {
        fill: #afc8b2;
        opacity: .33;
      }

      .cls-58 {
        fill: #aec8b3;
        opacity: .325;
      }

      .cls-59 {
        fill: #aec8b4;
        opacity: .32;
      }

      .cls-60 {
        fill: #b0c7af;
        opacity: .345;
      }

      .cls-61 {
        fill: #b0c7b0;
        opacity: .34;
      }

      .cls-62 {
        fill: #9dccd3;
        opacity: .165;
      }

      .cls-63 {
        fill: #9ccdd4;
        opacity: .16;
      }

      .cls-64 {
        fill: #9dccd2;
        opacity: .17;
      }

      .cls-65 {
        fill: url(#_称未設定グラデーション_6);
      }

      .cls-66 {
        fill: url(#_規グラデーションスウォッチ_8);
      }

      .cls-67 {
        opacity: .78;
      }

      .cls-5 {
        stroke: #c30d23;
      }

      .cls-5, .cls-6 {
        stroke-width: 1.774px;
      }

      .cls-6, .cls-7 {
        stroke: #231815;
      }

      .cls-68 {
        fill: #8dd0f0;
        opacity: .02;
      }

      .cls-69 {
        fill: #8dd1f1;
        opacity: .015;
      }

      .cls-70 {
        fill: #8bd1f4;
        opacity: 0;
      }

      .cls-7 {
        stroke-width: .887px;
      }

      .cls-71 {
        fill: #8cd1f2;
        opacity: .01;
      }

      .cls-72 {
        fill: #8cd1f3;
        opacity: .005;
      }

      .cls-73 {
        fill: url(#_称未設定グラデーション_447);
      }

      .cls-74 {
        fill: url(#_称未設定グラデーション_937);
      }

      .cls-75 {
        fill: url(#_称未設定グラデーション_948);
      }

      .cls-76 {
        fill: url(#_称未設定グラデーション_930);
      }

      .cls-77 {
        fill: url(#_称未設定グラデーション_610);
      }

      .cls-78 {
        fill: url(#_称未設定グラデーション_111);
      }

      .cls-79 {
        fill: url(#_称未設定グラデーション_822);
      }

      .cls-80 {
        fill: url(#_称未設定グラデーション_680);
      }

      .cls-81 {
        fill: url(#_称未設定グラデーション_106);
      }

      .cls-82 {
        fill: url(#_称未設定グラデーション_587);
      }

      .cls-83 {
        fill: url(#_称未設定グラデーション_377);
      }

      .cls-84 {
        fill: #d5be6b;
        opacity: .685;
      }

      .cls-85 {
        fill: #d4be6c;
        opacity: .68;
      }

      .cls-86 {
        fill: #d3be6f;
        opacity: .665;
      }

      .cls-87 {
        fill: #d6be6a;
        opacity: .69;
      }

      .cls-88 {
        fill: #c9c182;
        opacity: .57;
      }

      .cls-89 {
        fill: #c9c181;
        opacity: .575;
      }

      .cls-90 {
        fill: #cac180;
        opacity: .58;
      }

      .cls-91 {
        fill: #cbc07e;
        opacity: .59;
      }

      .cls-92 {
        fill: #cbc07d;
        opacity: .595;
      }

      .cls-93 {
        fill: #ccc07b;
        opacity: .605;
      }

      .cls-94 {
        fill: #ccc07c;
        opacity: .6;
      }

      .cls-95 {
        fill: #cdc07a;
        opacity: .61;
      }

      .cls-96 {
        fill: #cac17f;
        opacity: .585;
      }

      .cls-97 {
        fill: #cec078;
        opacity: .62;
      }

      .cls-98 {
        fill: #cdc079;
        opacity: .615;
      }

      .cls-99 {
        fill: #cfbf77;
        opacity: .625;
      }

      .cls-100 {
        fill: #c2c38e;
        opacity: .51;
      }

      .cls-101 {
        fill: #c3c38d;
        opacity: .515;
      }

      .cls-102 {
        fill: #c4c28b;
        opacity: .525;
      }

      .cls-103 {
        fill: #c4c28a;
        opacity: .53;
      }

      .cls-104 {
        fill: #c5c289;
        opacity: .535;
      }

      .cls-105 {
        fill: #c2c38f;
        opacity: .505;
      }

      .cls-106 {
        fill: #c5c288;
        opacity: .54;
      }

      .cls-107 {
        fill: #c6c287;
        opacity: .545;
      }

      .cls-108 {
        fill: #c3c28c;
        opacity: .52;
      }

      .cls-109 {
        fill: #c6c286;
        opacity: .55;
      }

      .cls-110 {
        fill: #c7c185;
        opacity: .555;
      }

      .cls-111 {
        fill: #c7c184;
        opacity: .56;
      }

      .cls-112 {
        fill: #c8c183;
        opacity: .565;
      }

      .cls-113 {
        fill: #bfc494;
        opacity: .48;
      }

      .cls-114 {
        fill: #bec495;
        opacity: .475;
      }

      .cls-115 {
        fill: #bfc393;
        opacity: .485;
      }

      .cls-116 {
        fill: #c1c390;
        opacity: .5;
      }

      .cls-117 {
        fill: #c0c391;
        opacity: .495;
      }

      .cls-118 {
        fill: #c0c392;
        opacity: .49;
      }

      .cls-119 {
        fill: #eab844;
        opacity: .88;
      }

      .cls-120 {
        fill: #ebb842;
        opacity: .89;
      }

      .cls-121 {
        fill: #ecb841;
        opacity: .895;
      }

      .cls-122 {
        fill: #edb83f;
        opacity: .905;
      }

      .cls-123 {
        fill: #ebb843;
        opacity: .885;
      }

      .cls-124 {
        fill: #edb83e;
        opacity: .91;
      }

      .cls-125 {
        fill: #eeb73c;
        opacity: .92;
      }

      .cls-126 {
        fill: #ecb840;
        opacity: .9;
      }

      .cls-127 {
        fill: #efb73b;
        opacity: .925;
      }

      .cls-128 {
        fill: #f0b739;
        opacity: .935;
      }

      .cls-129 {
        fill: #eeb73d;
        opacity: .915;
      }

      .cls-130 {
        fill: #e4ba4f;
        opacity: .825;
      }

      .cls-131 {
        fill: #e5ba4e;
        opacity: .83;
      }

      .cls-132 {
        clip-path: url(#clippath);
      }

      .cls-133 {
        fill: #e2ba53;
        opacity: .805;
      }

      .cls-134 {
        fill: #e6b94c;
        opacity: .84;
      }

      .cls-135 {
        fill: #e6b94b;
        opacity: .845;
      }

      .cls-136 {
        fill: #e4ba50;
        opacity: .82;
      }

      .cls-137 {
        fill: #e7b94a;
        opacity: .85;
      }

      .cls-138 {
        fill: #e7b949;
        opacity: .855;
      }

      .cls-139 {
        fill: #e8b948;
        opacity: .86;
      }

      .cls-140 {
        fill: #e5ba4d;
        opacity: .835;
      }

      .cls-141 {
        fill: #e8b947;
        opacity: .865;
      }

      .cls-142 {
        fill: #e9b946;
        opacity: .87;
      }

      .cls-143 {
        fill: #eab845;
        opacity: .875;
      }

      .cls-144 {
        fill: #ddbc5d;
        opacity: .755;
      }

      .cls-145 {
        fill: #ddbc5c;
        opacity: .76;
      }

      .cls-146 {
        fill: #debc5b;
        opacity: .765;
      }

      .cls-147 {
        fill: #dbbc60;
        opacity: .74;
      }

      .cls-148 {
        fill: #debb5a;
        opacity: .77;
      }

      .cls-149 {
        fill: #dfbb59;
        opacity: .775;
      }

      .cls-150 {
        fill: #dfbb58;
        opacity: .78;
      }

      .cls-151 {
        fill: #e0bb57;
        opacity: .785;
      }

      .cls-152 {
        fill: #e1bb55;
        opacity: .795;
      }

      .cls-153 {
        fill: #e1bb54;
        opacity: .8;
      }

      .cls-154 {
        fill: #e2ba52;
        opacity: .81;
      }

      .cls-155 {
        fill: #e3ba51;
        opacity: .815;
      }

      .cls-156 {
        fill: #e0bb56;
        opacity: .79;
      }

      .cls-157 {
        fill: #d7bd68;
        opacity: .7;
      }

      .cls-158 {
        fill: #d6be69;
        opacity: .695;
      }

      .cls-159 {
        fill: #d7bd67;
        opacity: .705;
      }

      .cls-160 {
        fill: #d8bd65;
        opacity: .715;
      }

      .cls-161 {
        fill: #d9bd64;
        opacity: .72;
      }

      .cls-162 {
        fill: #dabc61;
        opacity: .735;
      }

      .cls-163 {
        fill: #dabd62;
        opacity: .73;
      }

      .cls-164 {
        fill: #d8bd66;
        opacity: .71;
      }

      .cls-165 {
        fill: #dbbc5f;
        opacity: .745;
      }

      .cls-166 {
        fill: #dcbc5e;
        opacity: .75;
      }

      .cls-167 {
        fill: #d9bd63;
        opacity: .725;
      }

      .cls-168 {
        fill: #abc9b9;
        opacity: .295;
      }

      .cls-169 {
        fill: #aac9ba;
        opacity: .29;
      }

      .cls-170 {
        fill: #aac9bb;
        opacity: .285;
      }

      .cls-171 {
        fill: #adc8b5;
        opacity: .315;
      }

      .cls-172 {
        fill: #acc8b6;
        opacity: .31;
      }

      .cls-173 {
        fill: #acc8b7;
        opacity: .305;
      }

      .cls-174 {
        fill: #abc9b8;
        opacity: .3;
      }

      .cls-175 {
        fill: #a7cac0;
        opacity: .26;
      }

      .cls-176 {
        fill: #a7cac1;
        opacity: .255;
      }

      .cls-177 {
        fill: #a8cabf;
        opacity: .265;
      }

      .cls-178 {
        fill: #a9c9bc;
        opacity: .28;
      }

      .cls-179 {
        fill: #a9c9bd;
        opacity: .275;
      }

      .cls-180 {
        fill: #a8c9be;
        opacity: .27;
      }

      .cls-181 {
        fill: #a5cac4;
        opacity: .24;
      }

      .cls-182 {
        fill: #a4cbc6;
        opacity: .23;
      }

      .cls-183 {
        fill: #a6cac2;
        opacity: .25;
      }

      .cls-184 {
        fill: #a5cac3;
        opacity: .245;
      }

      .cls-185 {
        fill: #bcc49a;
        opacity: .45;
      }

      .cls-186 {
        fill: #b9c59e;
        opacity: .43;
      }

      .cls-187 {
        fill: #bbc59b;
        opacity: .445;
      }

      .cls-188 {
        fill: #bbc59c;
        opacity: .44;
      }

      .cls-189 {
        fill: #bcc499;
        opacity: .455;
      }

      .cls-190 {
        fill: #bdc497;
        opacity: .465;
      }

      .cls-191 {
        fill: #bdc498;
        opacity: .46;
      }

      .cls-192 {
        fill: #bec496;
        opacity: .47;
      }

      .cls-193 {
        fill: #b8c5a0;
        opacity: .42;
      }

      .cls-194 {
        fill: #b6c6a4;
        opacity: .4;
      }

      .cls-195 {
        fill: #b7c6a2;
        opacity: .41;
      }

      .cls-196 {
        fill: #bac59d;
        opacity: .435;
      }

      .cls-197 {
        fill: #b8c5a1;
        opacity: .415;
      }

      .cls-198 {
        fill: #b9c59f;
        opacity: .425;
      }

      .cls-199 {
        fill: #b5c6a6;
        opacity: .39;
      }

      .cls-200 {
        fill: #b5c6a7;
        opacity: .385;
      }

      .cls-201 {
        fill: #b4c6a8;
        opacity: .38;
      }

      .cls-202 {
        fill: #b7c6a3;
        opacity: .405;
      }

      .cls-203 {
        fill: #b6c6a5;
        opacity: .395;
      }

      .cls-204 {
        fill: #b1c7ad;
        opacity: .355;
      }

      .cls-205 {
        fill: #b2c7ac;
        opacity: .36;
      }

      .cls-206 {
        fill: #afc8b1;
        opacity: .335;
      }

      .cls-207 {
        fill: #b1c7ae;
        opacity: .35;
      }

      .cls-208 {
        fill: #b3c7aa;
        opacity: .37;
      }

      .cls-209 {
        fill: #b2c7ab;
        opacity: .365;
      }

      .cls-210 {
        fill: #b3c7a9;
        opacity: .375;
      }

      .cls-211 {
        fill: #d0bf75;
        opacity: .635;
      }

      .cls-212 {
        fill: #cfbf76;
        opacity: .63;
      }

      .cls-213 {
        fill: #d0bf74;
        opacity: .64;
      }

      .cls-214 {
        fill: #d1bf73;
        opacity: .645;
      }

      .cls-215 {
        fill: #d1bf72;
        opacity: .65;
      }

      .cls-216 {
        fill: #d2bf71;
        opacity: .655;
      }

      .cls-217 {
        fill: #d2bf70;
        opacity: .66;
      }

      .cls-218 {
        fill: #d3be6e;
        opacity: .67;
      }

      .cls-219 {
        fill: #d4be6d;
        opacity: .675;
      }

      .cls-220 {
        fill: #f2b635;
        opacity: .955;
      }

      .cls-221 {
        fill: #f1b738;
        opacity: .94;
      }

      .cls-222 {
        fill: #f2b636;
        opacity: .95;
      }

      .cls-223 {
        fill: #efb73a;
        opacity: .93;
      }

      .cls-224 {
        fill: #f3b634;
        opacity: .96;
      }

      .cls-225 {
        fill: #f4b632;
        opacity: .97;
      }

      .cls-226 {
        fill: #f3b633;
        opacity: .965;
      }

      .cls-227 {
        fill: #f1b737;
        opacity: .945;
      }

      .cls-228 {
        fill: #f4b631;
        opacity: .975;
      }

      .cls-229 {
        fill: #f5b52f;
        opacity: .985;
      }

      .cls-230 {
        fill: #f5b630;
        opacity: .98;
      }

      .cls-231 {
        fill: #f6b52d;
        opacity: .995;
      }

      .cls-232 {
        fill: #f6b52e;
        opacity: .99;
      }

      .cls-233 {
        fill: url(#_規グラデーションスウォッチ_8-2);
      }
    </style>
    <linearGradient id="_称未設定グラデーション_1053" data-name="名称未設定グラデーション 1053" x1="239" y1="0" x2="239" y2="108.806" gradientTransform="matrix(1, 0, 0, 1, 0, 0)" gradientUnits="userSpaceOnUse">
      <stop offset=".003" stop-color="#8ed2f4"/>
      <stop offset=".998" stop-color="#def1fb"/>
    </linearGradient>
    <linearGradient id="_称未設定グラデーション_937" data-name="名称未設定グラデーション 937" x1="201.838" y1="235.129" x2="225.858" y2="224.132" gradientTransform="translate(-82.636 -184.125) rotate(95.4) scale(1 -1)" gradientUnits="userSpaceOnUse">
      <stop offset="0" stop-color="#fcdd99"/>
      <stop offset=".028" stop-color="#ffe59b"/>
      <stop offset=".202" stop-color="#fbdc8f"/>
      <stop offset=".508" stop-color="#f2c472"/>
      <stop offset=".909" stop-color="#e49d42"/>
      <stop offset="1" stop-color="#e19437"/>
    </linearGradient>
    <linearGradient id="_称未設定グラデーション_680" data-name="名称未設定グラデーション 680" x1="262.848" y1="40.127" x2="262.848" y2="66.829" gradientTransform="matrix(1, 0, 0, 1, 0, 0)" gradientUnits="userSpaceOnUse">
      <stop offset="0" stop-color="#a3cea8"/>
      <stop offset=".18" stop-color="#7cc098"/>
      <stop offset=".455" stop-color="#47ae84"/>
      <stop offset=".693" stop-color="#20a175"/>
      <stop offset=".882" stop-color="#08986c"/>
      <stop offset="1" stop-color="#009669"/>
    </linearGradient>
    <linearGradient id="_称未設定グラデーション_587" data-name="名称未設定グラデーション 587" x1="515.793" y1="53.236" x2="515.793" y2="118.618" gradientTransform="translate(579.335 126.446) rotate(-166.123) scale(1 -1)" gradientUnits="userSpaceOnUse">
      <stop offset="0" stop-color="#82a788"/>
      <stop offset="1" stop-color="#007550"/>
    </linearGradient>
    <linearGradient id="_称未設定グラデーション_680-2" data-name="名称未設定グラデーション 680" x1="898.967" y1="165.457" x2="898.967" y2="209.652" gradientTransform="translate(-468.412 126.446) rotate(-13.877)" xlink:href="#_称未設定グラデーション_680"/>
    <linearGradient id="_称未設定グラデーション_447" data-name="名称未設定グラデーション 447" x1="475.793" y1="87.949" x2="508.506" y2="31.288" gradientTransform="translate(576.91 68.335) rotate(-172.344) scale(1 -1)" gradientUnits="userSpaceOnUse">
      <stop offset="0" stop-color="#918e74"/>
      <stop offset=".217" stop-color="#a3a086"/>
      <stop offset=".732" stop-color="#c9c7ad"/>
      <stop offset="1" stop-color="#d8d6bd"/>
    </linearGradient>
    <linearGradient id="_称未設定グラデーション_106" data-name="名称未設定グラデーション 106" x1="509.772" y1="55.327" x2="519.765" y2="38.019" gradientTransform="translate(576.91 68.335) rotate(-172.344) scale(1 -1)" gradientUnits="userSpaceOnUse">
      <stop offset="0" stop-color="#c9c5a2"/>
      <stop offset=".613" stop-color="#e3e0c1"/>
      <stop offset="1" stop-color="#f0edd1"/>
    </linearGradient>
    <linearGradient id="_称未設定グラデーション_111" data-name="名称未設定グラデーション 111" x1="515.118" y1="94.809" x2="531.15" y2="67.04" gradientTransform="translate(576.91 68.335) rotate(-172.344) scale(1 -1)" gradientUnits="userSpaceOnUse">
      <stop offset="0" stop-color="#9c997e"/>
      <stop offset=".304" stop-color="#b9b69b"/>
      <stop offset=".761" stop-color="#e0ddc2"/>
      <stop offset="1" stop-color="#f0edd1"/>
    </linearGradient>
    <linearGradient id="_称未設定グラデーション_822" data-name="名称未設定グラデーション 822" x1="232.108" y1="72.778" x2="254.401" y2="202.158" gradientTransform="matrix(1, 0, 0, 1, 0, 0)" gradientUnits="userSpaceOnUse">
      <stop offset="0" stop-color="#599b68"/>
      <stop offset=".176" stop-color="#83b47f"/>
      <stop offset=".362" stop-color="#a8ca93"/>
      <stop offset=".535" stop-color="#c2daa1"/>
      <stop offset=".688" stop-color="#d3e4aa"/>
      <stop offset=".806" stop-color="#d9e8ae"/>
    </linearGradient>
    <linearGradient id="_称未設定グラデーション_1154" data-name="名称未設定グラデーション 1154" x1="538.26" y1="37.844" x2="549.925" y2="17.638" gradientTransform="translate(571.46) rotate(-180) scale(1 -1)" gradientUnits="userSpaceOnUse">
      <stop offset="0" stop-color="#fac42f"/>
      <stop offset=".139" stop-color="#f5cf61"/>
      <stop offset=".289" stop-color="#f1da90"/>
      <stop offset=".439" stop-color="#ede3b6"/>
      <stop offset=".587" stop-color="#eaead5"/>
      <stop offset=".731" stop-color="#e8efea"/>
      <stop offset=".87" stop-color="#e7f2f7"/>
      <stop offset="1" stop-color="#e7f4fc"/>
    </linearGradient>
    <linearGradient id="_称未設定グラデーション_6" data-name="名称未設定グラデーション 6" x1="313.641" y1="31.516" x2="330.203" y2="2.829" gradientTransform="translate(-93.744)" gradientUnits="userSpaceOnUse">
      <stop offset="0" stop-color="#fac42f"/>
      <stop offset=".027" stop-color="#f8c73f"/>
      <stop offset=".109" stop-color="#f4d26b"/>
      <stop offset=".197" stop-color="#f0db92"/>
      <stop offset=".29" stop-color="#ede2b3"/>
      <stop offset=".389" stop-color="#ebe9cd"/>
      <stop offset=".497" stop-color="#e9ede2"/>
      <stop offset=".619" stop-color="#e8f1f0"/>
      <stop offset=".765" stop-color="#e7f3f9"/>
      <stop offset="1" stop-color="#e7f4fc"/>
    </linearGradient>
    <linearGradient id="_称未設定グラデーション_377" data-name="名称未設定グラデーション 377" x1="95.37" y1="9.667" x2="119.267" y2="33.565" gradientTransform="translate(571.46) rotate(-180) scale(1 -1)" gradientUnits="userSpaceOnUse">
      <stop offset="0" stop-color="#fff"/>
      <stop offset=".109" stop-color="#f5f7f7"/>
      <stop offset=".398" stop-color="#e2e7e8"/>
      <stop offset=".693" stop-color="#d6dedf"/>
      <stop offset="1" stop-color="#d3dbdd"/>
    </linearGradient>
    <linearGradient id="_称未設定グラデーション_610" data-name="名称未設定グラデーション 610" x1="423.318" y1="40.95" x2="423.318" y2="65.353" gradientTransform="translate(546.543 -81.679) rotate(167.174) scale(1 -1)" gradientUnits="userSpaceOnUse">
      <stop offset="0" stop-color="#81a587"/>
      <stop offset=".028" stop-color="#7ca485"/>
      <stop offset=".353" stop-color="#479e79"/>
      <stop offset=".636" stop-color="#209970"/>
      <stop offset=".86" stop-color="#08976b"/>
      <stop offset="1" stop-color="#009669"/>
    </linearGradient>
    <linearGradient id="_称未設定グラデーション_610-2" data-name="名称未設定グラデーション 610" x1="413.556" y1="53.343" x2="413.556" y2="73.261" gradientTransform="translate(551.245 -72.981) rotate(169.203) scale(1 -1)" xlink:href="#_称未設定グラデーション_610"/>
    <clipPath id="clippath">
      <rect class="cls-3" x="275.756" width="158.267" height="108.806"/>
    </clipPath>
    <linearGradient id="_称未設定グラデーション_37" data-name="名称未設定グラデーション 37" x1="292.378" y1="99.275" x2="390.889" y2="99.275" gradientTransform="matrix(1, 0, 0, 1, 0, 0)" gradientUnits="userSpaceOnUse">
      <stop offset="0" stop-color="#008e90"/>
      <stop offset="1" stop-color="#00607c"/>
    </linearGradient>
    <linearGradient id="_規グラデーションスウォッチ_8" data-name="新規グラデーションスウォッチ 8" x1="323.758" y1="45.179" x2="319.065" y2="45.179" gradientTransform="matrix(1, 0, 0, 1, 0, 0)" gradientUnits="userSpaceOnUse">
      <stop offset="0" stop-color="#ed7d4c"/>
      <stop offset="1" stop-color="#f7c7b5"/>
    </linearGradient>
    <linearGradient id="_規グラデーションスウォッチ_8-2" data-name="新規グラデーションスウォッチ 8" x1="342.749" y1="70.589" x2="342.749" y2="103.677" xlink:href="#_規グラデーションスウォッチ_8"/>
    <linearGradient id="_称未設定グラデーション_948" data-name="名称未設定グラデーション 948" x1="372.094" y1="56.204" x2="322.954" y2="38.319" gradientTransform="matrix(1, 0, 0, 1, 0, 0)" gradientUnits="userSpaceOnUse">
      <stop offset="0" stop-color="#ed7d4c"/>
      <stop offset=".283" stop-color="#f09670"/>
      <stop offset=".759" stop-color="#f7c7b5"/>
    </linearGradient>
    <linearGradient id="_称未設定グラデーション_11" data-name="名称未設定グラデーション 11" x1="374.392" y1="41.019" x2="317.689" y2="8.281" gradientTransform="matrix(1, 0, 0, 1, 0, 0)" gradientUnits="userSpaceOnUse">
      <stop offset="0" stop-color="#40210f"/>
      <stop offset="1" stop-color="#804f21"/>
    </linearGradient>
    <linearGradient id="_称未設定グラデーション_930" data-name="名称未設定グラデーション 930" x1="344.164" y1="87.067" x2="344.164" y2="112.456" gradientTransform="matrix(1, 0, 0, 1, 0, 0)" gradientUnits="userSpaceOnUse">
      <stop offset="0" stop-color="#c7cebb"/>
      <stop offset=".217" stop-color="#cbd2c0"/>
      <stop offset=".495" stop-color="#d8ddd0"/>
      <stop offset=".805" stop-color="#eef0ea"/>
      <stop offset="1" stop-color="#fff"/>
    </linearGradient>
    <linearGradient id="_称未設定グラデーション_67" data-name="名称未設定グラデーション 67" x1="331.493" y1="101.824" x2="331.493" y2="74.776" gradientTransform="matrix(1, 0, 0, 1, 0, 0)" gradientUnits="userSpaceOnUse">
      <stop offset="0" stop-color="#c7cebb"/>
      <stop offset="1" stop-color="#fff"/>
    </linearGradient>
    <linearGradient id="_称未設定グラデーション_67-2" data-name="名称未設定グラデーション 67" x1="354.753" y1="105.149" x2="354.753" y2="73.446" xlink:href="#_称未設定グラデーション_67"/>
  </defs>
  <rect class="cls-19" width="478" height="108.806"/>
  <g class="cls-67">
    <ellipse class="cls-70" cx="179.784" cy="51.986" rx="179.784" ry="49.901"/>
    <path class="cls-72" d="M358.72,52.05c0,27.494-80.42,49.736-179.346,49.736C.357,101.786,.147,123.602,.147,52.027,.147,2.622,.357,2.22,179.374,2.22c98.927,0,179.346,22.335,179.346,49.83Z"/>
    <path class="cls-71" d="M357.871,52.113c0,27.429-80.347,49.572-178.909,49.572C.714,101.685,.295,123.356,.295,52.068,.295,2.838,.714,2.355,178.963,2.355c98.561,0,178.909,22.329,178.909,49.758Z"/>
    <path class="cls-69" d="M357.023,52.177c0,27.364-80.275,49.407-178.471,49.407C1.071,101.584,.442,123.11,.442,52.109,.442,3.055,1.071,2.49,178.552,2.49c98.196,0,178.471,22.323,178.471,49.687Z"/>
    <path class="cls-68" d="M356.174,52.241c0,27.299-80.202,49.243-178.033,49.243C1.428,101.483,.59,122.865,.59,52.15,.59,3.271,1.428,2.625,178.141,2.625c97.831,0,178.033,22.317,178.033,49.616Z"/>
    <path class="cls-14" d="M355.326,52.304c0,27.234-80.13,49.078-177.595,49.078C1.785,101.382,.737,122.619,.737,52.191,.737,3.487,1.785,2.76,177.731,2.76c97.465,0,177.595,22.311,177.595,49.545Z"/>
    <path class="cls-8" d="M354.477,52.368c0,27.169-80.058,48.914-177.158,48.914C2.143,101.281,.885,122.373,.885,52.231,.885,3.703,2.143,2.895,177.32,2.895c97.1,0,177.158,22.305,177.158,49.473Z"/>
    <path class="cls-2" d="M353.629,52.431c0,27.104-79.985,48.749-176.72,48.749C2.5,101.18,1.032,122.127,1.032,52.272,1.032,3.919,2.5,3.029,176.909,3.029c96.735,0,176.72,22.298,176.72,49.402Z"/>
    <path class="cls-1" d="M352.78,52.495c0,27.039-79.913,48.584-176.282,48.584C2.857,101.08,1.18,121.882,1.18,52.313,1.18,4.135,2.857,3.164,176.498,3.164c96.369,0,176.282,22.292,176.282,49.331Z"/>
    <path class="cls-11" d="M351.932,52.559c0,26.973-79.84,48.42-175.844,48.42C3.214,100.979,1.327,121.636,1.327,52.354,1.327,4.351,3.214,3.299,176.088,3.299c96.004,0,175.844,22.286,175.844,49.259Z"/>
    <path class="cls-10" d="M351.083,52.622c0,26.908-79.768,48.255-175.406,48.255C3.571,100.878,1.475,121.39,1.475,52.395,1.475,4.568,3.571,3.434,175.677,3.434c95.638,0,175.406,22.28,175.406,49.188Z"/>
    <path class="cls-9" d="M350.235,52.686c0,26.843-79.695,48.091-174.969,48.091C3.928,100.777,1.622,121.145,1.622,52.436,1.622,4.784,3.928,3.569,175.266,3.569c95.273,0,174.969,22.274,174.969,49.117Z"/>
    <path class="cls-23" d="M349.386,52.75c0,26.778-79.623,47.926-174.531,47.926C4.285,100.676,1.77,120.899,1.77,52.477,1.77,5,4.285,3.704,174.855,3.704c94.908,0,174.531,22.268,174.531,49.046Z"/>
    <path class="cls-22" d="M348.538,52.813c0,26.713-79.551,47.761-174.093,47.761C4.642,100.575,1.917,120.653,1.917,52.518,1.917,5.216,4.642,3.839,174.445,3.839c94.542,0,174.093,22.261,174.093,48.974Z"/>
    <path class="cls-21" d="M347.689,52.877c0,26.648-79.478,47.597-173.655,47.597C4.999,100.474,2.065,120.407,2.065,52.559,2.065,5.432,4.999,3.974,174.034,3.974c94.177,0,173.655,22.255,173.655,48.903Z"/>
    <path class="cls-20" d="M346.84,52.941c0,26.583-79.406,47.432-173.217,47.432C5.356,100.373,2.212,120.162,2.212,52.6,2.212,5.648,5.356,4.109,173.623,4.109c93.812,0,173.217,22.249,173.217,48.832Z"/>
    <path class="cls-13" d="M345.992,53.004c0,26.517-79.333,47.268-172.78,47.268C5.713,100.272,2.36,119.916,2.36,52.641,2.36,5.865,5.713,4.244,173.212,4.244c93.446,0,172.78,22.243,172.78,48.761Z"/>
    <path class="cls-12" d="M345.143,53.068c0,26.452-79.261,47.103-172.342,47.103C6.07,100.171,2.507,119.67,2.507,52.682,2.507,6.081,6.07,4.379,172.802,4.379c93.081,0,172.342,22.237,172.342,48.689Z"/>
    <path class="cls-29" d="M344.295,53.132c0,26.387-79.189,46.939-171.904,46.939C6.428,100.07,2.654,119.425,2.654,52.723,2.654,6.297,6.428,4.514,172.391,4.514c92.715,0,171.904,22.231,171.904,48.618Z"/>
    <path class="cls-28" d="M343.446,53.195c0,26.322-79.116,46.774-171.466,46.774C6.785,99.969,2.802,119.179,2.802,52.763,2.802,6.513,6.785,4.649,171.98,4.649c92.35,0,171.466,22.225,171.466,48.547Z"/>
    <path class="cls-27" d="M342.598,53.259c0,26.257-79.044,46.609-171.028,46.609C7.142,99.868,2.949,118.933,2.949,52.804,2.949,6.729,7.142,4.784,171.569,4.784c91.985,0,171.028,22.218,171.028,48.475Z"/>
    <path class="cls-26" d="M341.749,53.323c0,26.192-78.971,46.445-170.591,46.445C7.499,99.767,3.097,118.687,3.097,52.845,3.097,6.945,7.499,4.918,171.159,4.918c91.619,0,170.591,22.212,170.591,48.404Z"/>
    <path class="cls-25" d="M340.901,53.386c0,26.127-78.899,46.28-170.153,46.28C7.856,99.667,3.244,118.442,3.244,52.886,3.244,7.161,7.856,5.053,170.748,5.053c91.254,0,170.153,22.206,170.153,48.333Z"/>
    <path class="cls-24" d="M340.052,53.45c0,26.062-78.826,46.116-169.715,46.116C8.213,99.566,3.392,118.196,3.392,52.927,3.392,7.378,8.213,5.188,170.337,5.188c90.889,0,169.715,22.2,169.715,48.262Z"/>
    <path class="cls-16" d="M339.204,53.514c0,25.996-78.754,45.951-169.277,45.951C8.57,99.465,3.539,117.95,3.539,52.968,3.539,7.594,8.57,5.323,169.926,5.323c90.523,0,169.277,22.194,169.277,48.19Z"/>
    <path class="cls-15" d="M338.355,53.577c0,25.931-78.682,45.787-168.839,45.787C8.927,99.364,3.687,117.705,3.687,53.009,3.687,7.81,8.927,5.458,169.516,5.458c90.158,0,168.839,22.188,168.839,48.119Z"/>
    <path class="cls-43" d="M337.507,53.641c0,25.866-78.609,45.622-168.402,45.622C9.284,99.263,3.834,117.459,3.834,53.05,3.834,8.026,9.284,5.593,169.105,5.593c89.793,0,168.402,22.182,168.402,48.048Z"/>
    <path class="cls-39" d="M336.658,53.704c0,25.801-78.537,45.457-167.964,45.457C9.641,99.162,3.982,117.213,3.982,53.091,3.982,8.242,9.641,5.728,168.694,5.728c89.427,0,167.964,22.175,167.964,47.976Z"/>
    <path class="cls-44" d="M335.809,53.768c0,25.736-78.464,45.293-167.526,45.293C9.998,99.061,4.129,116.967,4.129,53.132,4.129,8.458,9.998,5.863,168.283,5.863c89.062,0,167.526,22.169,167.526,47.905Z"/>
    <path class="cls-41" d="M334.961,53.832c0,25.671-78.392,45.128-167.088,45.128C10.355,98.96,4.277,116.722,4.277,53.173,4.277,8.675,10.355,5.998,167.873,5.998c88.696,0,167.088,22.163,167.088,47.834Z"/>
    <path class="cls-40" d="M334.112,53.895c0,25.606-78.319,44.964-166.65,44.964C10.713,98.859,4.424,116.476,4.424,53.214,4.424,8.891,10.713,6.133,167.462,6.133c88.331,0,166.65,22.157,166.65,47.763Z"/>
    <path class="cls-42" d="M333.264,53.959c0,25.541-78.247,44.799-166.213,44.799C11.07,98.758,4.572,116.23,4.572,53.255,4.572,9.107,11.07,6.268,167.051,6.268c87.966,0,166.213,22.151,166.213,47.691Z"/>
    <path class="cls-63" d="M332.415,54.023c0,25.475-78.175,44.635-165.775,44.635C11.427,98.657,4.719,115.985,4.719,53.295,4.719,9.323,11.427,6.403,166.64,6.403c87.6,0,165.775,22.145,165.775,47.62Z"/>
    <path class="cls-62" d="M331.567,54.086c0,25.41-78.102,44.47-165.337,44.47C11.784,98.556,4.867,115.739,4.867,53.336,4.867,9.539,11.784,6.538,166.23,6.538c87.235,0,165.337,22.139,165.337,47.549Z"/>
    <path class="cls-64" d="M330.718,54.15c0,25.345-78.03,44.305-164.899,44.305C12.141,98.455,5.014,115.493,5.014,53.377,5.014,9.755,12.141,6.673,165.819,6.673c86.87,0,164.899,22.132,164.899,47.478Z"/>
    <path class="cls-55" d="M329.87,54.214c0,25.28-77.957,44.141-164.462,44.141C12.498,98.355,5.162,115.247,5.162,53.418,5.162,9.971,12.498,6.807,165.408,6.807c86.504,0,164.462,22.126,164.462,47.406Z"/>
    <path class="cls-54" d="M329.021,54.277c0,25.215-77.885,43.976-164.024,43.976C12.855,98.254,5.309,115.002,5.309,53.459,5.309,10.188,12.855,6.942,164.997,6.942c86.139,0,164.024,22.12,164.024,47.335Z"/>
    <path class="cls-56" d="M328.173,54.341c0,25.15-77.812,43.812-163.586,43.812C13.212,98.153,5.456,114.756,5.456,53.5,5.456,10.404,13.212,7.077,164.587,7.077c85.773,0,163.586,22.114,163.586,47.264Z"/>
    <path class="cls-52" d="M327.324,54.405c0,25.085-77.74,43.647-163.148,43.647C13.569,98.052,5.604,114.51,5.604,53.541,5.604,10.62,13.569,7.212,164.176,7.212c85.408,0,163.148,22.108,163.148,47.192Z"/>
    <path class="cls-51" d="M326.476,54.468c0,25.02-77.668,43.483-162.71,43.483C13.926,97.951,5.751,114.265,5.751,53.582,5.751,10.836,13.926,7.347,163.765,7.347c85.043,0,162.71,22.102,162.71,47.121Z"/>
    <path class="cls-53" d="M325.627,54.532c0,24.954-77.595,43.318-162.273,43.318C14.283,97.85,5.899,114.019,5.899,53.623,5.899,11.052,14.283,7.482,163.354,7.482c84.677,0,162.273,22.095,162.273,47.05Z"/>
    <path class="cls-47" d="M324.778,54.596c0,24.889-77.523,43.153-161.835,43.153C14.64,97.749,6.046,113.773,6.046,53.664,6.046,11.268,14.64,7.617,162.944,7.617c84.312,0,161.835,22.089,161.835,46.979Z"/>
    <path class="cls-48" d="M323.93,54.659c0,24.824-77.45,42.989-161.397,42.989C14.998,97.648,6.194,113.527,6.194,53.705,6.194,11.485,14.998,7.752,162.533,7.752c83.947,0,161.397,22.083,161.397,46.907Z"/>
    <path class="cls-50" d="M323.081,54.723c0,24.759-77.378,42.824-160.959,42.824C15.355,97.547,6.341,113.282,6.341,53.746,6.341,11.701,15.355,7.887,162.122,7.887c83.581,0,160.959,22.077,160.959,46.836Z"/>
    <path class="cls-49" d="M322.233,54.787c0,24.694-77.306,42.66-160.521,42.66C15.712,97.446,6.489,113.036,6.489,53.787,6.489,11.917,15.712,8.022,161.711,8.022c83.216,0,160.521,22.071,160.521,46.765Z"/>
    <path class="cls-45" d="M321.384,54.85c0,24.629-77.233,42.495-160.084,42.495C16.069,97.345,6.636,112.79,6.636,53.828,6.636,12.133,16.069,8.157,161.301,8.157c82.85,0,160.084,22.065,160.084,46.693Z"/>
    <path class="cls-182" d="M320.536,54.914c0,24.564-77.161,42.331-159.646,42.331C16.426,97.244,6.784,112.545,6.784,53.868,6.784,12.349,16.426,8.292,160.89,8.292c82.485,0,159.646,22.059,159.646,46.622Z"/>
    <path class="cls-46" d="M319.687,54.978c0,24.498-77.088,42.166-159.208,42.166C16.783,97.143,6.931,112.299,6.931,53.909,6.931,12.565,16.783,8.427,160.479,8.427c82.12,0,159.208,22.052,159.208,46.551Z"/>
    <path class="cls-181" d="M318.839,55.041c0,24.433-77.016,42.001-158.77,42.001C17.14,97.043,7.079,112.053,7.079,53.95,7.079,12.781,17.14,8.562,160.068,8.562c81.754,0,158.77,22.046,158.77,46.48Z"/>
    <path class="cls-184" d="M317.99,55.105c0,24.368-76.943,41.837-158.332,41.837C17.497,96.942,7.226,111.807,7.226,53.991,7.226,12.998,17.497,8.696,159.658,8.696c81.389,0,158.332,22.04,158.332,46.408Z"/>
    <path class="cls-183" d="M317.142,55.168c0,24.303-76.871,41.672-157.895,41.672C17.854,96.841,7.374,111.562,7.374,54.032,7.374,13.214,17.854,8.831,159.247,8.831c81.024,0,157.895,22.034,157.895,46.337Z"/>
    <path class="cls-176" d="M316.293,55.232c0,24.238-76.799,41.508-157.457,41.508C18.211,96.74,7.521,111.316,7.521,54.073,7.521,13.43,18.211,8.966,158.836,8.966c80.658,0,157.457,22.028,157.457,46.266Z"/>
    <path class="cls-175" d="M315.445,55.296c0,24.173-76.726,41.343-157.019,41.343C18.568,96.639,7.669,111.07,7.669,54.114,7.669,13.646,18.568,9.101,158.425,9.101c80.293,0,157.019,22.022,157.019,46.195Z"/>
    <path class="cls-177" d="M314.596,55.359c0,24.108-76.654,41.179-156.581,41.179C18.925,96.538,7.816,110.825,7.816,54.155,7.816,13.862,18.925,9.236,158.015,9.236c79.928,0,156.581,22.016,156.581,46.123Z"/>
    <path class="cls-180" d="M313.747,55.423c0,24.043-76.581,41.014-156.143,41.014C19.283,96.437,7.963,110.579,7.963,54.196,7.963,14.078,19.283,9.371,157.604,9.371c79.562,0,156.143,22.009,156.143,46.052Z"/>
    <path class="cls-179" d="M312.899,55.487c0,23.977-76.509,40.849-155.706,40.849C19.64,96.336,8.111,110.333,8.111,54.237,8.111,14.295,19.64,9.506,157.193,9.506c79.197,0,155.706,22.003,155.706,45.981Z"/>
    <path class="cls-178" d="M312.05,55.55c0,23.912-76.436,40.685-155.268,40.685C19.997,96.235,8.258,110.087,8.258,54.278,8.258,14.511,19.997,9.641,156.783,9.641c78.831,0,155.268,21.997,155.268,45.909Z"/>
    <path class="cls-170" d="M311.202,55.614c0,23.847-76.364,40.52-154.83,40.52C20.354,96.134,8.406,109.842,8.406,54.319,8.406,14.727,20.354,9.776,156.372,9.776c78.466,0,154.83,21.991,154.83,45.838Z"/>
    <path class="cls-169" d="M310.353,55.678c0,23.782-76.292,40.356-154.392,40.356C20.711,96.033,8.553,109.596,8.553,54.36,8.553,14.943,20.711,9.911,155.961,9.911c78.101,0,154.392,21.985,154.392,45.767Z"/>
    <path class="cls-168" d="M309.505,55.741c0,23.717-76.219,40.191-153.954,40.191C21.068,95.932,8.701,109.35,8.701,54.4,8.701,15.159,21.068,10.046,155.55,10.046c77.735,0,153.954,21.979,153.954,45.696Z"/>
    <path class="cls-174" d="M308.656,55.805c0,23.652-76.147,40.026-153.517,40.026C21.425,95.831,8.848,109.105,8.848,54.441,8.848,15.375,21.425,10.181,155.14,10.181c77.37,0,153.517,21.972,153.517,45.624Z"/>
    <path class="cls-173" d="M307.808,55.869c0,23.587-76.074,39.862-153.079,39.862C21.782,95.731,8.996,108.859,8.996,54.482,8.996,15.591,21.782,10.316,154.729,10.316c77.005,0,153.079,21.966,153.079,45.553Z"/>
    <path class="cls-172" d="M306.959,55.932c0,23.522-76.002,39.697-152.641,39.697C22.139,95.63,9.143,108.613,9.143,54.523,9.143,15.808,22.139,10.451,154.318,10.451c76.639,0,152.641,21.96,152.641,45.482Z"/>
    <path class="cls-171" d="M306.111,55.996c0,23.456-75.929,39.533-152.203,39.533C22.496,95.529,9.291,108.367,9.291,54.564,9.291,16.024,22.496,10.585,153.907,10.585c76.274,0,152.203,21.954,152.203,45.41Z"/>
    <path class="cls-59" d="M305.262,56.06c0,23.391-75.857,39.368-151.766,39.368C22.853,95.428,9.438,108.122,9.438,54.605,9.438,16.24,22.853,10.72,153.497,10.72c75.908,0,151.766,21.948,151.766,45.339Z"/>
    <path class="cls-58" d="M304.414,56.123c0,23.326-75.785,39.204-151.328,39.204C23.21,95.327,9.586,107.876,9.586,54.646,9.586,16.456,23.21,10.855,153.086,10.855c75.543,0,151.328,21.942,151.328,45.268Z"/>
    <path class="cls-57" d="M303.565,56.187c0,23.261-75.712,39.039-150.89,39.039C23.568,95.226,9.733,107.63,9.733,54.687,9.733,16.672,23.568,10.99,152.675,10.99c75.178,0,150.89,21.936,150.89,45.197Z"/>
    <path class="cls-206" d="M302.716,56.251c0,23.196-75.64,38.874-150.452,38.874C23.925,95.125,9.881,107.385,9.881,54.728,9.881,16.888,23.925,11.125,152.264,11.125c74.812,0,150.452,21.929,150.452,45.125Z"/>
    <path class="cls-61" d="M301.868,56.314c0,23.131-75.567,38.71-150.014,38.71C24.282,95.024,10.028,107.139,10.028,54.769,10.028,17.105,24.282,11.26,151.854,11.26c74.447,0,150.014,21.923,150.014,45.054Z"/>
    <path class="cls-60" d="M301.019,56.378c0,23.066-75.495,38.545-149.577,38.545C24.639,94.923,10.176,106.893,10.176,54.81,10.176,17.321,24.639,11.395,151.443,11.395c74.082,0,149.577,21.917,149.577,44.983Z"/>
    <path class="cls-207" d="M300.171,56.441c0,23.001-75.423,38.381-149.139,38.381C24.996,94.822,10.323,106.647,10.323,54.851,10.323,17.537,24.996,11.53,151.032,11.53c73.716,0,149.139,21.911,149.139,44.912Z"/>
    <path class="cls-204" d="M299.322,56.505c0,22.935-75.35,38.216-148.701,38.216C25.353,94.721,10.47,106.402,10.47,54.892,10.47,17.753,25.353,11.665,150.621,11.665c73.351,0,148.701,21.905,148.701,44.84Z"/>
    <path class="cls-205" d="M298.474,56.569c0,22.87-75.278,38.052-148.263,38.052C25.71,94.62,10.618,106.156,10.618,54.932,10.618,17.969,25.71,11.8,150.211,11.8c72.986,0,148.263,21.899,148.263,44.769Z"/>
    <path class="cls-209" d="M297.625,56.632c0,22.805-75.205,37.887-147.825,37.887C26.067,94.519,10.765,105.91,10.765,54.973,10.765,18.185,26.067,11.935,149.8,11.935c72.62,0,147.825,21.893,147.825,44.698Z"/>
    <path class="cls-208" d="M296.777,56.696c0,22.74-75.133,37.722-147.388,37.722C26.424,94.419,10.913,105.665,10.913,55.014,10.913,18.401,26.424,12.07,149.389,12.07c72.255,0,147.388,21.886,147.388,44.626Z"/>
    <path class="cls-210" d="M295.928,56.76c0,22.675-75.06,37.558-146.95,37.558C26.781,94.318,11.06,105.419,11.06,55.055,11.06,18.618,26.781,12.205,148.978,12.205c71.889,0,146.95,21.88,146.95,44.555Z"/>
    <path class="cls-201" d="M295.08,56.823c0,22.61-74.988,37.393-146.512,37.393C27.138,94.217,11.208,105.173,11.208,55.096,11.208,18.834,27.138,12.34,148.568,12.34c71.524,0,146.512,21.874,146.512,44.484Z"/>
    <path class="cls-200" d="M294.231,56.887c0,22.545-74.916,37.229-146.074,37.229C27.496,94.116,11.355,104.927,11.355,55.137,11.355,19.05,27.496,12.474,148.157,12.474c71.159,0,146.074,21.868,146.074,44.413Z"/>
    <path class="cls-199" d="M293.383,56.951c0,22.479-74.843,37.064-145.636,37.064C27.853,94.015,11.503,104.682,11.503,55.178,11.503,19.266,27.853,12.609,147.746,12.609c70.793,0,145.636,21.862,145.636,44.341Z"/>
    <path class="cls-203" d="M292.534,57.014c0,22.414-74.771,36.9-145.199,36.9C28.21,93.914,11.65,104.436,11.65,55.219,11.65,19.482,28.21,12.744,147.335,12.744c70.428,0,145.199,21.856,145.199,44.27Z"/>
    <path class="cls-194" d="M291.685,57.078c0,22.349-74.698,36.735-144.761,36.735C28.567,93.813,11.798,104.19,11.798,55.26,11.798,19.698,28.567,12.879,146.925,12.879c70.063,0,144.761,21.849,144.761,44.199Z"/>
    <path class="cls-202" d="M290.837,57.142c0,22.284-74.626,36.57-144.323,36.57C28.924,93.712,11.945,103.945,11.945,55.301,11.945,19.915,28.924,13.014,146.514,13.014c69.697,0,144.323,21.843,144.323,44.127Z"/>
    <path class="cls-195" d="M289.988,57.205c0,22.219-74.553,36.406-143.885,36.406C29.281,93.611,12.093,103.699,12.093,55.342,12.093,20.131,29.281,13.149,146.103,13.149c69.332,0,143.885,21.837,143.885,44.056Z"/>
    <path class="cls-197" d="M289.14,57.269c0,22.154-74.481,36.241-143.447,36.241C29.638,93.51,12.24,103.453,12.24,55.383,12.24,20.347,29.638,13.284,145.692,13.284c68.966,0,143.447,21.831,143.447,43.985Z"/>
    <path class="cls-193" d="M288.291,57.333c0,22.089-74.409,36.077-143.01,36.077C29.995,93.409,12.388,103.207,12.388,55.424,12.388,20.563,29.995,13.419,145.282,13.419c68.601,0,143.01,21.825,143.01,43.914Z"/>
    <path class="cls-198" d="M287.443,57.396c0,22.024-74.336,35.912-142.572,35.912C30.352,93.308,12.535,102.962,12.535,55.464,12.535,20.779,30.352,13.554,144.871,13.554c68.236,0,142.572,21.819,142.572,43.842Z"/>
    <path class="cls-186" d="M286.594,57.46c0,21.958-74.264,35.748-142.134,35.748C30.709,93.207,12.683,102.716,12.683,55.505,12.683,20.995,30.709,13.689,144.46,13.689c67.87,0,142.134,21.813,142.134,43.771Z"/>
    <path class="cls-196" d="M285.746,57.524c0,21.893-74.191,35.583-141.696,35.583C31.066,93.107,12.83,102.47,12.83,55.546,12.83,21.212,31.066,13.824,144.049,13.824c67.505,0,141.696,21.806,141.696,43.7Z"/>
    <path class="cls-188" d="M284.897,57.587c0,21.828-74.119,35.418-141.258,35.418C31.423,93.006,12.978,102.225,12.978,55.587,12.978,21.428,31.423,13.959,143.639,13.959c67.14,0,141.258,21.8,141.258,43.628Z"/>
    <path class="cls-187" d="M284.049,57.651c0,21.763-74.046,35.254-140.821,35.254C31.781,92.905,13.125,101.979,13.125,55.628,13.125,21.644,31.781,14.094,143.228,14.094c66.774,0,140.821,21.794,140.821,43.557Z"/>
    <path class="cls-185" d="M283.2,57.715c0,21.698-73.974,35.089-140.383,35.089-110.68,0-129.545,8.929-129.545-37.135C13.272,21.86,32.138,14.229,142.817,14.229c66.409,0,140.383,21.788,140.383,43.486Z"/>
    <path class="cls-189" d="M282.352,57.778c0,21.633-73.902,34.925-139.945,34.925-109.912,0-128.986,8.785-128.986-36.993C13.42,22.076,32.495,14.363,142.406,14.363c66.043,0,139.945,21.782,139.945,43.415Z"/>
    <path class="cls-191" d="M281.503,57.842c0,21.568-73.829,34.76-139.507,34.76-109.144,0-128.428,8.64-128.428-36.851C13.567,22.292,32.852,14.498,141.996,14.498c65.678,0,139.507,21.776,139.507,43.343Z"/>
    <path class="cls-190" d="M280.654,57.905c0,21.503-73.757,34.596-139.07,34.596-108.376,0-127.87,8.495-127.87-36.709,0-33.283,19.494-41.159,127.87-41.159,65.313,0,139.07,21.77,139.07,43.272Z"/>
    <path class="cls-192" d="M279.806,57.969c0,21.437-73.684,34.431-138.632,34.431-107.608,0-127.312,8.35-127.312-36.567,0-33.108,19.704-41.065,127.312-41.065,64.947,0,138.632,21.763,138.632,43.201Z"/>
    <path class="cls-114" d="M278.957,58.033c0,21.372-73.612,34.266-138.194,34.266-106.84,0-126.754,8.205-126.754-36.425,0-32.933,19.913-40.971,126.754-40.971,64.582,0,138.194,21.757,138.194,43.13Z"/>
    <path class="cls-113" d="M278.109,58.096c0,21.307-73.539,34.102-137.756,34.102-106.073,0-126.195,8.061-126.195-36.284,0-32.758,20.123-40.877,126.195-40.877,64.217,0,137.756,21.751,137.756,43.058Z"/>
    <path class="cls-115" d="M277.26,58.16c0,21.242-73.467,33.937-137.318,33.937-105.305,0-125.637,7.916-125.637-36.142,0-32.583,20.332-40.782,125.637-40.782,63.851,0,137.318,21.745,137.318,42.987Z"/>
    <path class="cls-118" d="M276.412,58.224c0,21.177-73.395,33.773-136.881,33.773-104.537,0-125.079,7.771-125.079-36,0-32.407,20.542-40.688,125.079-40.688,63.486,0,136.881,21.739,136.881,42.916Z"/>
    <path class="cls-117" d="M275.563,58.287c0,21.112-73.322,33.608-136.443,33.608-103.769,0-124.521,7.626-124.521-35.858,0-32.232,20.752-40.594,124.521-40.594,63.121,0,136.443,21.733,136.443,42.844Z"/>
    <path class="cls-116" d="M274.715,58.351c0,21.047-73.25,33.444-136.005,33.444-103.001,0-123.963,7.481-123.963-35.716,0-32.057,20.961-40.5,123.963-40.5,62.755,0,136.005,21.727,136.005,42.773Z"/>
    <path class="cls-105" d="M273.866,58.415c0,20.982-73.177,33.279-135.567,33.279-102.233,0-123.404,7.337-123.404-35.574,0-31.882,21.171-40.406,123.404-40.406,62.39,0,135.567,21.72,135.567,42.702Z"/>
    <path class="cls-100" d="M273.018,58.478c0,20.916-73.105,33.114-135.129,33.114-101.466,0-122.846,7.192-122.846-35.432,0-31.706,21.381-40.312,122.846-40.312,62.024,0,135.129,21.714,135.129,42.631Z"/>
    <path class="cls-101" d="M272.169,58.542c0,20.851-73.033,32.95-134.692,32.95-100.698,0-122.288,7.047-122.288-35.291,0-31.531,21.59-40.218,122.288-40.218,61.659,0,134.692,21.708,134.692,42.559Z"/>
    <path class="cls-108" d="M271.321,58.606c0,20.786-72.96,32.785-134.254,32.785-99.93,0-121.73,6.902-121.73-35.149,0-31.356,21.8-40.124,121.73-40.124,61.294,0,134.254,21.702,134.254,42.488Z"/>
    <path class="cls-102" d="M270.472,58.669c0,20.721-72.888,32.621-133.816,32.621-99.162,0-121.171,6.758-121.171-35.007,0-31.181,22.009-40.03,121.171-40.03,60.928,0,133.816,21.696,133.816,42.417Z"/>
    <path class="cls-103" d="M269.623,58.733c0,20.656-72.815,32.456-133.378,32.456-98.394,0-120.613,6.613-120.613-34.865,0-31.005,22.219-39.936,120.613-39.936,60.563,0,133.378,21.69,133.378,42.345Z"/>
    <path class="cls-104" d="M268.775,58.797c0,20.591-72.743,32.291-132.94,32.291-97.626,0-120.055,6.468-120.055-34.723,0-30.83,22.429-39.842,120.055-39.842,60.198,0,132.94,21.683,132.94,42.274Z"/>
    <path class="cls-106" d="M267.926,58.86c0,20.526-72.67,32.127-132.503,32.127-96.859,0-119.497,6.323-119.497-34.581,0-30.655,22.638-39.748,119.497-39.748,59.832,0,132.503,21.677,132.503,42.203Z"/>
    <path class="cls-107" d="M267.078,58.924c0,20.46-72.598,31.962-132.065,31.962-96.091,0-118.939,6.178-118.939-34.44,0-30.48,22.848-39.654,118.939-39.654,59.467,0,132.065,21.671,132.065,42.132Z"/>
    <path class="cls-109" d="M266.229,58.988c0,20.395-72.526,31.798-131.627,31.798-95.323,0-118.38,6.034-118.38-34.298,0-30.305,23.057-39.56,118.38-39.56,59.101,0,131.627,21.665,131.627,42.06Z"/>
    <path class="cls-110" d="M265.381,59.051c0,20.33-72.453,31.633-131.189,31.633-94.555,0-117.822,5.889-117.822-34.156,0-30.129,23.267-39.466,117.822-39.466,58.736,0,131.189,21.659,131.189,41.989Z"/>
    <path class="cls-111" d="M264.532,59.115c0,20.265-72.381,31.469-130.751,31.469-93.787,0-117.264,5.744-117.264-34.014,0-29.954,23.477-39.372,117.264-39.372,58.371,0,130.751,21.653,130.751,41.918Z"/>
    <path class="cls-112" d="M263.684,59.178c0,20.2-72.308,31.304-130.314,31.304-93.019,0-116.706,5.599-116.706-33.872,0-29.779,23.686-39.278,116.706-39.278,58.005,0,130.314,21.647,130.314,41.847Z"/>
    <path class="cls-88" d="M262.835,59.242c0,20.135-72.236,31.139-129.876,31.139-92.252,0-116.147,5.454-116.147-33.73,0-29.604,23.896-39.184,116.147-39.184,57.64,0,129.876,21.64,129.876,41.775Z"/>
    <path class="cls-89" d="M261.987,59.306c0,20.07-72.163,30.975-129.438,30.975-91.484,0-115.589,5.31-115.589-33.588,0-29.428,24.105-39.09,115.589-39.09,57.275,0,129.438,21.634,129.438,41.704Z"/>
    <path class="cls-90" d="M261.138,59.369c0,20.005-72.091,30.81-129,30.81-90.716,0-115.031,5.165-115.031-33.447,0-29.253,24.315-38.996,115.031-38.996,56.909,0,129,21.628,129,41.633Z"/>
    <path class="cls-96" d="M260.29,59.433c0,19.939-72.019,30.646-128.562,30.646-89.948,0-114.473,5.02-114.473-33.305,0-29.078,24.525-38.902,114.473-38.902,56.544,0,128.562,21.622,128.562,41.561Z"/>
    <path class="cls-91" d="M259.441,59.497c0,19.874-71.946,30.481-128.125,30.481-89.18,0-113.915,4.875-113.915-33.163,0-28.903,24.734-38.808,113.915-38.808,56.179,0,128.125,21.616,128.125,41.49Z"/>
    <path class="cls-92" d="M258.592,59.56c0,19.809-71.874,30.317-127.687,30.317-88.412,0-113.356,4.73-113.356-33.021,0-28.727,24.944-38.714,113.356-38.714,55.813,0,127.687,21.61,127.687,41.419Z"/>
    <path class="cls-94" d="M257.744,59.624c0,19.744-71.801,30.152-127.249,30.152-87.645,0-112.798,4.586-112.798-32.879,0-28.552,25.154-38.62,112.798-38.62,55.448,0,127.249,21.604,127.249,41.348Z"/>
    <path class="cls-93" d="M256.895,59.688c0,19.679-71.729,29.987-126.811,29.987-86.877,0-112.24,4.441-112.24-32.737,0-28.377,25.363-38.526,112.24-38.526,55.082,0,126.811,21.597,126.811,41.276Z"/>
    <path class="cls-95" d="M256.047,59.751c0,19.614-71.656,29.823-126.374,29.823-86.109,0-111.682,4.296-111.682-32.596,0-28.202,25.573-38.432,111.682-38.432,54.717,0,126.374,21.591,126.374,41.205Z"/>
    <path class="cls-98" d="M255.198,59.815c0,19.549-71.584,29.658-125.936,29.658-85.341,0-111.124,4.151-111.124-32.454,0-28.027,25.782-38.338,111.124-38.338,54.352,0,125.936,21.585,125.936,41.134Z"/>
    <path class="cls-97" d="M254.35,59.879c0,19.484-71.512,29.494-125.498,29.494-84.573,0-110.565,4.006-110.565-32.312,0-27.851,25.992-38.244,110.565-38.244,53.986,0,125.498,21.579,125.498,41.062Z"/>
    <path class="cls-99" d="M253.501,59.942c0,19.418-71.439,29.329-125.06,29.329-83.805,0-110.007,3.862-110.007-32.17,0-27.676,26.202-38.15,110.007-38.15,53.621,0,125.06,21.573,125.06,40.991Z"/>
    <path class="cls-212" d="M252.653,60.006c0,19.353-71.367,29.165-124.622,29.165-83.038,0-109.449,3.717-109.449-32.028,0-27.501,26.411-38.056,109.449-38.056,53.256,0,124.622,21.567,124.622,40.92Z"/>
    <path class="cls-211" d="M251.804,60.07c0,19.288-71.294,29-124.185,29-82.27,0-108.891,3.572-108.891-31.886,0-27.326,26.621-37.962,108.891-37.962,52.89,0,124.185,21.56,124.185,40.849Z"/>
    <path class="cls-213" d="M250.956,60.133c0,19.223-71.222,28.835-123.747,28.835-81.502,0-108.332,3.427-108.332-31.744,0-27.15,26.83-37.868,108.332-37.868,52.525,0,123.747,21.554,123.747,40.777Z"/>
    <path class="cls-214" d="M250.107,60.197c0,19.158-71.15,28.671-123.309,28.671-80.734,0-107.774,3.283-107.774-31.603,0-26.975,27.04-37.774,107.774-37.774,52.159,0,123.309,21.548,123.309,40.706Z"/>
    <path class="cls-215" d="M249.259,60.261c0,19.093-71.077,28.506-122.871,28.506-79.966,0-107.216,3.138-107.216-31.461,0-26.8,27.25-37.68,107.216-37.68,51.794,0,122.871,21.542,122.871,40.635Z"/>
    <path class="cls-216" d="M248.41,60.324c0,19.028-71.005,28.342-122.433,28.342-79.199,0-106.658,2.993-106.658-31.319,0-26.625,27.459-37.586,106.658-37.586,51.429,0,122.433,21.536,122.433,40.564Z"/>
    <path class="cls-217" d="M247.561,60.388c0,18.963-70.932,28.177-121.996,28.177-78.431,0-106.1,2.848-106.1-31.177,0-26.449,27.669-37.492,106.1-37.492,51.063,0,121.996,21.53,121.996,40.492Z"/>
    <path class="cls-86" d="M246.713,60.451c0,18.897-70.86,28.013-121.558,28.013-77.663,0-105.541,2.703-105.541-31.035,0-26.274,27.879-37.398,105.541-37.398,50.698,0,121.558,21.524,121.558,40.421Z"/>
    <path class="cls-218" d="M245.864,60.515c0,18.832-70.787,27.848-121.12,27.848-76.895,0-104.983,2.559-104.983-30.893,0-26.099,28.088-37.304,104.983-37.304,50.333,0,121.12,21.517,121.12,40.35Z"/>
    <path class="cls-219" d="M245.016,60.579c0,18.767-70.715,27.683-120.682,27.683-76.127,0-104.425,2.414-104.425-30.752,0-25.924,28.298-37.21,104.425-37.21,49.967,0,120.682,21.511,120.682,40.278Z"/>
    <path class="cls-85" d="M244.167,60.642c0,18.702-70.643,27.519-120.244,27.519-75.359,0-103.867,2.269-103.867-30.61,0-25.749,28.507-37.116,103.867-37.116,49.602,0,120.244,21.505,120.244,40.207Z"/>
    <path class="cls-84" d="M243.319,60.706c0,18.637-70.57,27.354-119.807,27.354-74.592,0-103.308,2.124-103.308-30.468,0-25.573,28.717-37.022,103.308-37.022,49.237,0,119.807,21.499,119.807,40.136Z"/>
    <path class="cls-87" d="M242.47,60.77c0,18.572-70.498,27.19-119.369,27.19-73.824,0-102.75,1.979-102.75-30.326,0-25.398,28.927-36.928,102.75-36.928,48.871,0,119.369,21.493,119.369,40.065Z"/>
    <path class="cls-158" d="M241.622,60.833c0,18.507-70.425,27.025-118.931,27.025-73.056,0-102.192,1.835-102.192-30.184,0-25.223,29.136-36.834,102.192-36.834,48.506,0,118.931,21.487,118.931,39.993Z"/>
    <path class="cls-157" d="M240.773,60.897c0,18.441-70.353,26.861-118.493,26.861-72.288,0-101.634,1.69-101.634-30.042,0-25.048,29.346-36.74,101.634-36.74,48.14,0,118.493,21.481,118.493,39.922Z"/>
    <path class="cls-159" d="M239.925,60.961c0,18.376-70.28,26.696-118.055,26.696-71.52,0-101.076,1.545-101.076-29.9,0-24.872,29.555-36.646,101.076-36.646,47.775,0,118.055,21.474,118.055,39.851Z"/>
    <path class="cls-164" d="M239.076,61.024c0,18.311-70.208,26.531-117.618,26.531-70.752,0-100.517,1.4-100.517-29.759,0-24.697,29.765-36.552,100.517-36.552,47.41,0,117.618,21.468,117.618,39.779Z"/>
    <path class="cls-160" d="M238.228,61.088c0,18.246-70.136,26.367-117.18,26.367-69.985,0-99.959,1.255-99.959-29.617,0-24.522,29.975-36.458,99.959-36.458,47.044,0,117.18,21.462,117.18,39.708Z"/>
    <path class="cls-161" d="M237.379,61.152c0,18.181-70.063,26.202-116.742,26.202-69.217,0-99.401,1.111-99.401-29.475,0-24.347,30.184-36.364,99.401-36.364,46.679,0,116.742,21.456,116.742,39.637Z"/>
    <path class="cls-167" d="M236.53,61.215c0,18.116-69.991,26.038-116.304,26.038-68.449,0-98.843,.966-98.843-29.333,0-24.171,30.394-36.27,98.843-36.27,46.314,0,116.304,21.45,116.304,39.566Z"/>
    <path class="cls-163" d="M235.682,61.279c0,18.051-69.918,25.873-115.866,25.873-67.681,0-98.285,.821-98.285-29.191,0-23.996,30.603-36.176,98.285-36.176,45.948,0,115.866,21.444,115.866,39.494Z"/>
    <path class="cls-162" d="M234.833,61.343c0,17.986-69.846,25.709-115.429,25.709-66.913,0-97.726,.676-97.726-29.049,0-23.821,30.813-36.082,97.726-36.082,45.583,0,115.429,21.437,115.429,39.423Z"/>
    <path class="cls-147" d="M233.985,61.406c0,17.92-69.773,25.544-114.991,25.544-66.145,0-97.168,.531-97.168-28.908,0-23.646,31.023-35.988,97.168-35.988,45.217,0,114.991,21.431,114.991,39.352Z"/>
    <path class="cls-165" d="M233.136,61.47c0,17.855-69.701,25.379-114.553,25.379-65.378,0-96.61,.387-96.61-28.766,0-23.471,31.232-35.894,96.61-35.894,44.852,0,114.553,21.425,114.553,39.281Z"/>
    <path class="cls-166" d="M232.288,61.534c0,17.79-69.629,25.215-114.115,25.215-64.61,0-96.052,.242-96.052-28.624,0-23.295,31.442-35.8,96.052-35.8,44.487,0,114.115,21.419,114.115,39.209Z"/>
    <path class="cls-144" d="M231.439,61.597c0,17.725-69.556,25.05-113.678,25.05-63.842,0-95.493,.097-95.493-28.482,0-23.12,31.652-35.706,95.493-35.706,44.121,0,113.678,21.413,113.678,39.138Z"/>
    <path class="cls-145" d="M230.591,61.661c0,17.66-69.484,24.886-113.24,24.886-63.074,0-94.935-.048-94.935-28.34,0-22.945,31.861-35.612,94.935-35.612,43.756,0,113.24,21.407,113.24,39.067Z"/>
    <path class="cls-146" d="M229.742,61.725c0,17.595-69.411,24.721-112.802,24.721-62.306,0-94.377-.192-94.377-28.198,0-22.77,32.071-35.518,94.377-35.518,43.391,0,112.802,21.401,112.802,38.995Z"/>
    <path class="cls-148" d="M228.894,61.788c0,17.53-69.339,24.556-112.364,24.556-61.538,0-93.819-.337-93.819-28.056,0-22.594,32.28-35.424,93.819-35.424,43.025,0,112.364,21.394,112.364,38.924Z"/>
    <path class="cls-149" d="M228.045,61.852c0,17.465-69.267,24.392-111.926,24.392-60.771,0-93.261-.482-93.261-27.915,0-22.419,32.49-35.33,93.261-35.33,42.66,0,111.926,21.388,111.926,38.853Z"/>
    <path class="cls-150" d="M227.197,61.915c0,17.399-69.194,24.227-111.489,24.227-60.003,0-92.702-.627-92.702-27.773,0-22.244,32.7-35.236,92.702-35.236,42.294,0,111.489,21.382,111.489,38.782Z"/>
    <path class="cls-151" d="M226.348,61.979c0,17.334-69.122,24.063-111.051,24.063-59.235,0-92.144-.772-92.144-27.631,0-22.069,32.909-35.142,92.144-35.142,41.929,0,111.051,21.376,111.051,38.71Z"/>
    <path class="cls-156" d="M225.499,62.043c0,17.269-69.049,23.898-110.613,23.898-58.467,0-91.586-.916-91.586-27.489,0-21.893,33.119-35.048,91.586-35.048,41.564,0,110.613,21.37,110.613,38.639Z"/>
    <path class="cls-152" d="M224.651,62.106c0,17.204-68.977,23.734-110.175,23.734-57.699,0-91.028-1.061-91.028-27.347,0-21.718,33.328-34.954,91.028-34.954,41.198,0,110.175,21.364,110.175,38.568Z"/>
    <path class="cls-153" d="M223.802,62.17c0,17.139-68.904,23.569-109.737,23.569-56.931,0-90.469-1.206-90.469-27.205,0-21.543,33.538-34.86,90.469-34.86,40.833,0,109.737,21.358,109.737,38.496Z"/>
    <path class="cls-133" d="M222.954,62.234c0,17.074-68.832,23.404-109.3,23.404-56.164,0-89.911-1.351-89.911-27.063,0-21.368,33.748-34.766,89.911-34.766,40.468,0,109.3,21.351,109.3,38.425Z"/>
    <path class="cls-154" d="M222.105,62.297c0,17.009-68.76,23.24-108.862,23.24-55.396,0-89.353-1.496-89.353-26.922,0-21.193,33.957-34.672,89.353-34.672,40.102,0,108.862,21.345,108.862,38.354Z"/>
    <path class="cls-155" d="M221.257,62.361c0,16.944-68.687,23.075-108.424,23.075-54.628,0-88.795-1.64-88.795-26.78,0-21.017,34.167-34.578,88.795-34.578,39.737,0,108.424,21.339,108.424,38.283Z"/>
    <path class="cls-136" d="M220.408,62.425c0,16.878-68.615,22.911-107.986,22.911-53.86,0-88.237-1.785-88.237-26.638,0-20.842,34.377-34.484,88.237-34.484,39.372,0,107.986,21.333,107.986,38.211Z"/>
    <path class="cls-130" d="M219.56,62.488c0,16.813-68.542,22.746-107.548,22.746-53.092,0-87.678-1.93-87.678-26.496,0-20.667,34.586-34.39,87.678-34.39,39.006,0,107.548,21.327,107.548,38.14Z"/>
    <path class="cls-131" d="M218.711,62.552c0,16.748-68.47,22.582-107.111,22.582-52.324,0-87.12-2.075-87.12-26.354,0-20.492,34.796-34.296,87.12-34.296,38.641,0,107.111,21.321,107.111,38.069Z"/>
    <path class="cls-140" d="M217.863,62.616c0,16.683-68.397,22.417-106.673,22.417-51.557,0-86.562-2.22-86.562-26.212,0-20.316,35.005-34.202,86.562-34.202,38.275,0,106.673,21.315,106.673,37.998Z"/>
    <path class="cls-134" d="M217.014,62.679c0,16.618-68.325,22.252-106.235,22.252-50.789,0-86.004-2.364-86.004-26.071,0-20.141,35.215-34.108,86.004-34.108,37.91,0,106.235,21.308,106.235,37.926Z"/>
    <path class="cls-135" d="M216.166,62.743c0,16.553-68.253,22.088-105.797,22.088-50.021,0-85.446-2.509-85.446-25.929,0-19.966,35.425-34.014,85.446-34.014,37.545,0,105.797,21.302,105.797,37.855Z"/>
    <path class="cls-137" d="M215.317,62.807c0,16.488-68.18,21.923-105.359,21.923-49.253,0-84.887-2.654-84.887-25.787,0-19.791,35.634-33.92,84.887-33.92,37.179,0,105.359,21.296,105.359,37.784Z"/>
    <path class="cls-138" d="M214.468,62.87c0,16.423-68.108,21.759-104.922,21.759-48.485,0-84.329-2.799-84.329-25.645,0-19.615,35.844-33.826,84.329-33.826,36.814,0,104.922,21.29,104.922,37.712Z"/>
    <path class="cls-139" d="M213.62,62.934c0,16.357-68.035,21.594-104.484,21.594-47.717,0-83.771-2.944-83.771-25.503,0-19.44,36.053-33.732,83.771-33.732,36.449,0,104.484,21.284,104.484,37.641Z"/>
    <path class="cls-141" d="M212.771,62.998c0,16.292-67.963,21.43-104.046,21.43-46.95,0-83.213-3.088-83.213-25.361,0-19.265,36.263-33.638,83.213-33.638,36.083,0,104.046,21.278,104.046,37.57Z"/>
    <path class="cls-142" d="M211.923,63.061c0,16.227-67.89,21.265-103.608,21.265-46.182,0-82.654-3.233-82.654-25.219,0-19.09,36.473-33.544,82.654-33.544,35.718,0,103.608,21.271,103.608,37.499Z"/>
    <path class="cls-143" d="M211.074,63.125c0,16.162-67.818,21.1-103.171,21.1-45.414,0-82.096-3.378-82.096-25.078,0-18.915,36.682-33.45,82.096-33.45,35.352,0,103.171,21.265,103.171,37.427Z"/>
    <path class="cls-119" d="M210.226,63.188c0,16.097-67.746,20.936-102.733,20.936-44.646,0-81.538-3.523-81.538-24.936,0-18.739,36.892-33.356,81.538-33.356,34.987,0,102.733,21.259,102.733,37.356Z"/>
    <path class="cls-123" d="M209.377,63.252c0,16.032-67.673,20.771-102.295,20.771-43.878,0-80.98-3.667-80.98-24.794,0-18.564,37.101-33.262,80.98-33.262,34.622,0,102.295,21.253,102.295,37.285Z"/>
    <path class="cls-120" d="M208.529,63.316c0,15.967-67.601,20.607-101.857,20.607-43.11,0-80.422-3.812-80.422-24.652,0-18.389,37.311-33.168,80.422-33.168,34.256,0,101.857,21.247,101.857,37.213Z"/>
    <path class="cls-121" d="M207.68,63.379c0,15.901-67.528,20.442-101.419,20.442-42.343,0-79.863-3.957-79.863-24.51,0-18.214,37.521-33.074,79.863-33.074,33.891,0,101.419,21.241,101.419,37.142Z"/>
    <path class="cls-126" d="M206.832,63.443c0,15.836-67.456,20.278-100.982,20.278-41.575,0-79.305-4.102-79.305-24.368,0-18.038,37.73-32.98,79.305-32.98,33.526,0,100.982,21.235,100.982,37.071Z"/>
    <path class="cls-122" d="M205.983,63.507c0,15.771-67.383,20.113-100.544,20.113-40.807,0-78.747-4.247-78.747-24.227,0-17.863,37.94-32.886,78.747-32.886,33.16,0,100.544,21.228,100.544,37Z"/>
    <path class="cls-124" d="M205.135,63.57c0,15.706-67.311,19.948-100.106,19.948-40.039,0-78.189-4.391-78.189-24.085,0-17.688,38.15-32.792,78.189-32.792,32.795,0,100.106,21.222,100.106,36.928Z"/>
    <path class="cls-129" d="M204.286,63.634c0,15.641-67.239,19.784-99.668,19.784-39.271,0-77.63-4.536-77.63-23.943,0-17.513,38.359-32.698,77.63-32.698,32.43,0,99.668,21.216,99.668,36.857Z"/>
    <path class="cls-125" d="M203.437,63.698c0,15.576-67.166,19.619-99.23,19.619-38.504,0-77.072-4.681-77.072-23.801,0-17.337,38.569-32.604,77.072-32.604,32.064,0,99.23,21.21,99.23,36.786Z"/>
    <path class="cls-127" d="M202.589,63.761c0,15.511-67.094,19.455-98.793,19.455-37.736,0-76.514-4.826-76.514-23.659,0-17.162,38.778-32.51,76.514-32.51,31.699,0,98.793,21.204,98.793,36.715Z"/>
    <path class="cls-223" d="M201.74,63.825c0,15.446-67.021,19.29-98.355,19.29-36.968,0-75.956-4.971-75.956-23.517,0-16.987,38.988-32.416,75.956-32.416,31.333,0,98.355,21.198,98.355,36.643Z"/>
    <path class="cls-128" d="M200.892,63.889c0,15.38-66.949,19.126-97.917,19.126-36.2,0-75.398-5.115-75.398-23.375,0-16.812,39.198-32.322,75.398-32.322,30.968,0,97.917,21.192,97.917,36.572Z"/>
    <path class="cls-221" d="M200.043,63.952c0,15.315-66.877,18.961-97.479,18.961-35.432,0-74.839-5.26-74.839-23.234,0-16.637,39.407-32.228,74.839-32.228,30.603,0,97.479,21.185,97.479,36.501Z"/>
    <path class="cls-227" d="M199.195,64.016c0,15.25-66.804,18.796-97.041,18.796-34.664,0-74.281-5.405-74.281-23.092,0-16.461,39.617-32.134,74.281-32.134,30.237,0,97.041,21.179,97.041,36.429Z"/>
    <path class="cls-222" d="M198.346,64.08c0,15.185-66.732,18.632-96.604,18.632-33.897,0-73.723-5.55-73.723-22.95,0-16.286,39.826-32.04,73.723-32.04,29.872,0,96.604,21.173,96.604,36.358Z"/>
    <path class="cls-220" d="M197.498,64.143c0,15.12-66.659,18.467-96.166,18.467-33.129,0-73.165-5.695-73.165-22.808,0-16.111,40.036-31.946,73.165-31.946,29.507,0,96.166,21.167,96.166,36.287Z"/>
    <path class="cls-224" d="M196.649,64.207c0,15.055-66.587,18.303-95.728,18.303-32.361,0-72.607-5.839-72.607-22.666,0-15.936,40.246-31.852,72.607-31.852,29.141,0,95.728,21.161,95.728,36.216Z"/>
    <path class="cls-226" d="M195.801,64.271c0,14.99-66.514,18.138-95.29,18.138-31.593,0-72.048-5.984-72.048-22.524,0-15.76,40.455-31.758,72.048-31.758,28.776,0,95.29,21.155,95.29,36.144Z"/>
    <path class="cls-225" d="M194.952,64.334c0,14.925-66.442,17.974-94.852,17.974-30.825,0-71.49-6.129-71.49-22.383,0-15.585,40.665-31.664,71.49-31.664,28.41,0,94.852,21.148,94.852,36.073Z"/>
    <path class="cls-228" d="M194.104,64.398c0,14.859-66.37,17.809-94.415,17.809-30.057,0-70.932-6.274-70.932-22.241,0-15.41,40.875-31.57,70.932-31.57,28.045,0,94.415,21.142,94.415,36.002Z"/>
    <path class="cls-230" d="M193.255,64.461c0,14.794-66.297,17.644-93.977,17.644-29.29,0-70.374-6.418-70.374-22.099,0-15.235,41.084-31.476,70.374-31.476,27.68,0,93.977,21.136,93.977,35.93Z"/>
    <path class="cls-229" d="M192.406,64.525c0,14.729-66.225,17.48-93.539,17.48-28.522,0-69.815-6.563-69.815-21.957,0-15.059,41.294-31.382,69.815-31.382,27.314,0,93.539,21.13,93.539,35.859Z"/>
    <path class="cls-232" d="M191.558,64.589c0,14.664-66.152,17.315-93.101,17.315-27.754,0-69.257-6.708-69.257-21.815,0-14.884,41.503-31.288,69.257-31.288,26.949,0,93.101,21.124,93.101,35.788Z"/>
    <path class="cls-231" d="M190.709,64.652c0,14.599-66.08,17.151-92.663,17.151-26.986,0-68.699-6.853-68.699-21.673,0-14.709,41.713-31.194,68.699-31.194,26.584,0,92.663,21.118,92.663,35.717Z"/>
    <path class="cls-33" d="M189.861,64.716c0,14.534-66.007,16.986-92.226,16.986s-68.141-6.998-68.141-21.531,41.923-31.1,68.141-31.1,92.226,21.112,92.226,35.645Z"/>
  </g>
  <g>
    <circle class="cls-74" cx="125.852" cy="50.383" r="13.205"/>
    <line class="cls-4" x1="94.246" y1="44.978" x2="106.863" y2="48.107"/>
    <line class="cls-4" x1="144.347" y1="55.912" x2="158.039" y2="61.596"/>
    <line class="cls-4" x1="145.532" y1="43.369" x2="162.198" y2="40.554"/>
    <line class="cls-4" x1="139.123" y1="33.911" x2="148.955" y2="23.549"/>
    <path class="cls-4" d="M126.233,18.044l.626,13.488-.626-13.488Z"/>
    <line class="cls-4" x1="113.947" y1="35.993" x2="105.44" y2="23.18"/>
  </g>
  <path class="cls-80" d="M315.937,91.816c-3.512-21.114,3.32-44.05-5.606-46.502-8.926-2.451-11.156,10.314-11.156,10.314,.143-2.791-4.367-4.365-7.863-3.694-3.496,.671-5.634,9.767-5.634,9.767-1.606-10.65-9.764-4.35-9.764-4.35,2.431-12.526,.869-17.113-3.419-20.233-2.159-1.57-4.742-1.65-6.099-1.288-5.25,.75-8.401,6.085-8.901,18.835,0,0-6.5-8-10.5,2,0,0,0-9.344-3.25-10.797-3.25-1.453-8-.953-8.5,1.797,0,0,.75-12.937-8.5-12.594s-7.848,24.235-16.098,43.985c-5.842,13.986,12.135,22.703,29.347,29.749h32.502v-5.175l10.043-1.275c18.367-2.92,35.886,4.411,33.4-10.54Z"/>
  <path class="cls-82" d="M0,63.589c14.272-1.944,19.82,6.595,19.82,6.595,4.372-2.906,12.373,5.05,12.373,5.05l66.378-10.51c14.929-3.953,17.161,11.216,17.161,11.216,10.1,3.492,3.724,17.198,3.724,17.198L0,105.51V63.589Z"/>
  <path class="cls-37" d="M477.285,66.854c-14.272-1.944-19.82,6.595-19.82,6.595-4.372-2.906-12.373,5.05-12.373,5.05l-6.374-3.509c-14.929-3.953-17.161,11.216-17.161,11.216-10.1,3.492-3.724,17.198-3.724,17.198l59.452,5.372v-41.921Z"/>
  <g>
    <path class="cls-73" d="M108.92,85.83l2.674-33.718s-11.197-2.744-22.101-1.525c0,0-.611-10.822,.156-19.6,0,0-11.763-4.679-27.097,3.379l3.265,20.266s-9.917,1.558-18.498,7.014l11.682,29.865,49.919-5.681Z"/>
    <polygon class="cls-81" points="52.496 43.113 62.553 34.366 65.818 54.632 58.115 56.627 52.496 43.113"/>
    <path class="cls-78" d="M47.271,94.271s-6.042-16.509-7.698-24.166c0,0,4.287-6.491,7.746-8.459l11.682,29.865-11.73,2.76Z"/>
    <polygon class="cls-34" points="100.479 73.336 102.334 59.541 93.814 58.395 94.393 72.517 100.479 73.336"/>
    <polygon class="cls-34" points="83.435 74.142 82.459 59.899 73.575 61.457 77.319 76.625 83.435 74.142"/>
    <polygon class="cls-34" points="66.161 75.125 64.454 64.775 58.041 66.391 61.101 75.89 66.161 75.125"/>
    <polygon class="cls-35" points="80.428 46.579 85.081 47.308 84.931 41.505 79.723 41.837 80.655 36.561 74.191 35.93 75.124 42.252 70.47 43.072 69.734 48.549 75.484 47.257 74.802 52.328 80.564 52.483 80.428 46.579"/>
  </g>
  <path class="cls-79" d="M0,108.806v-3.296c41.331-12.575,106.419-24.901,204.324-26.093,169.301-2.061,249.388,15.963,272.307,29.389H0Z"/>
  <path class="cls-17" d="M11.568,35.018s17.417-6.139,36.583-5.806c0,0-4.583-9.667-9.917-9.333-5.333,.333-5.333,3-5.333,3,0,0-.667-7.75-7.167-6.875-6.5,.875-4.5,5.625-4.5,5.625,0,0-4.405-1.236-6,1.25-1.667,2.598-.667,5,.5,6,0,0-7.167,1.279-4.167,6.139Z"/>
  <path class="cls-65" d="M250.609,27.504s-24.727-8.717-51.939-8.243c0,0,6.507-13.724,14.079-13.251,7.572,.473,7.572,4.259,7.572,4.259,0,0,.946-11.003,10.175-9.761,9.228,1.242,6.389,7.986,6.389,7.986,0,0,6.254-1.754,8.519,1.775,2.366,3.688,.946,7.099-.71,8.518,0,0,10.175,1.816,5.916,8.717Z"/>
  <path class="cls-83" d="M451.131,12.869c3.5-1.5,5.167,1.75,5.167,1.75,.167-2.083,.833-5.75,6.203-6.583,5.369-.833,7.631,5.667,7.631,5.667,2.838-2.62,5.454-2.951,7.5-2.494V30.339c-15.801-5.272-35.262-6.598-35.262-6.598,.072-4.794,7.095-3.659,7.095-3.659-.833-1.62-1.833-5.713,1.667-7.213Z"/>
  <g>
    <rect class="cls-36" x="146.353" y="73.092" width="1.75" height="8.5" transform="translate(300.201 142.587) rotate(175.385)"/>
    <path class="cls-77" d="M147.197,76.225c2.552-.234,6.717-2.773,3.873-12.525-2.636-9.036-4.05-12.215-5.64-12.049-1.979,.208-3.673,5.366-4.277,13.537-.653,8.836,3.355,11.282,6.044,11.036Z"/>
  </g>
  <g>
    <rect class="cls-36" x="157.111" y="74.035" width="1.428" height="6.938" transform="translate(318.987 147.808) rotate(177.414)"/>
    <path class="cls-38" d="M157.832,76.592c2.088-.117,5.56-2.068,3.521-10.105-1.889-7.447-2.951-10.081-4.252-9.991-1.62,.112-3.151,4.271-3.88,10.919-.788,7.189,2.41,9.3,4.611,9.177Z"/>
  </g>
  <g class="cls-132">
    <g>
      <path class="cls-31" d="M332.305,82.536c-13.413,1.774-32.48,13.524-32.48,13.524-2.345,10.596-5.982,18.332-7.447,21.186h98.511l-.498-16.419c-16.628-12.526-33.477-19.399-33.477-19.399,0,0-11.196-.665-24.609,1.109Z"/>
      <path class="cls-66" d="M323.659,45.462s.887-6.159-2.66-6.159c-1.109,0-2.66,1.552-1.552,4.656s4.311,7.095,4.311,7.095l-.099-5.591Z"/>
      <path class="cls-233" d="M333.747,74.776s-2.853,13.251-2.254,13.524,7.072,15.377,7.072,15.377l15.523-15.377-1.007-17.711-19.334,4.187Z"/>
      <path class="cls-75" d="M327.871,25.225s-14.411,29.376,7.095,51.103c2.79,2.819,11.75,0,11.75,0,0,0,13.302-3.769,19.288-17.736,0,0,6.429-4.878,8.646-9.533s-2.217-4.186-4.212-2.758l-1.995,1.428,2.439-8.425-9.977-21.143s-24.609-4.353-33.034,7.065Z"/>
      <path class="cls-30" d="M357.58,21.178s-19.732-3.573-31.925,8.717l-1.897,8.496s-3.424-2.164-8.745-8.496c0,0,3.744-1.996,8.745-5.273,0,0-6.306-6.381-5.419-17.466,0,0,6.873,2.217,19.51,3.326l.443-10.198s2.217,5.543,26.604,8.646v7.538l10.198,7.273s0,12.237-3.104,21.437c0,0-3.769,2.993-4.877,5.875l1.109-9.533s-6.208-3.661-10.642-20.343Z"/>
      <path class="cls-7" d="M331.197,31.926s7.86-2.345,10.437,1.281c3.27,4.6,3.142,13.579-2.012,17.182l2.217,5.099"/>
      <path class="cls-7" d="M349.432,33.207s6.707,0,11.917,3.991"/>
      <line class="cls-6" x1="356.139" y1="44.846" x2="354.088" y2="51.67"/>
      <line class="cls-6" x1="334.855" y1="38.638" x2="332.804" y2="45.462"/>
      <path class="cls-5" d="M337.563,63.137s1.983,3.016,8.456,1.758"/>
      <path class="cls-76" d="M339.349,100.378l10.083-13.311,8.779,8.782s-14.283,16.606-20.648,16.606c-2.708,0-7.739-11.775-7.433-17.41,.352-6.482,5.33-6.746,5.33-6.746l3.89,12.078Z"/>
      <path class="cls-32" d="M327.871,82.979l5.875-8.203,2.106,16.628-7.981,10.42s-1.663-9.09,0-18.845Z"/>
      <path class="cls-18" d="M353.146,73.446l8.646,9.201s-2.55,17.293-4.323,22.503l-9.755-15.698,5.432-16.006Z"/>
    </g>
  </g>
</svg>