<?xml version="1.0" encoding="UTF-8"?>
<svg id="_イヤー_1" data-name="レイヤー 1" xmlns="http://www.w3.org/2000/svg" width="168.295mm" height="38.995mm" xmlns:xlink="http://www.w3.org/1999/xlink" viewBox="0 0 477.058 110.536">
  <defs>
    <style>
      .cls-1 {
        stroke-width: .873px;
      }

      .cls-1, .cls-2, .cls-3, .cls-4, .cls-5 {
        fill: none;
      }

      .cls-1, .cls-3, .cls-4, .cls-5 {
        stroke-miterlimit: 10;
      }

      .cls-1, .cls-3, .cls-5 {
        stroke-linecap: round;
      }

      .cls-1, .cls-5 {
        stroke: #231815;
      }

      .cls-2 {
        stroke: #6a3906;
        stroke-linejoin: round;
        stroke-width: .873px;
      }

      .cls-6 {
        fill: #6a3906;
      }

      .cls-7 {
        fill: #b55121;
      }

      .cls-8 {
        fill: #b1dce0;
      }

      .cls-9 {
        fill: #c30d23;
      }

      .cls-10 {
        fill: #40210f;
      }

      .cls-11 {
        fill: #808751;
      }

      .cls-12 {
        fill: url(#_称未設定グラデーション_535-3);
      }

      .cls-13 {
        fill: url(#_称未設定グラデーション_535-2);
      }

      .cls-14 {
        fill: url(#_称未設定グラデーション_377-5);
      }

      .cls-15 {
        fill: url(#_称未設定グラデーション_377-4);
      }

      .cls-16 {
        fill: url(#_称未設定グラデーション_377-3);
      }

      .cls-17 {
        fill: url(#_称未設定グラデーション_377-2);
      }

      .cls-18 {
        fill: url(#_称未設定グラデーション_354-3);
      }

      .cls-19 {
        fill: url(#_称未設定グラデーション_354-2);
      }

      .cls-20 {
        fill: url(#_称未設定グラデーション_331-2);
      }

      .cls-21 {
        fill: url(#_規グラデーションスウォッチ_13-2);
      }

      .cls-3 {
        stroke: #c30d23;
        stroke-width: 1.747px;
      }

      .cls-4 {
        stroke: #f5ab28;
        stroke-width: 2px;
      }

      .cls-22 {
        fill: url(#_規グラデーションスウォッチ_10);
      }

      .cls-23 {
        fill: url(#_規グラデーションスウォッチ_13);
      }

      .cls-24 {
        fill: url(#_規グラデーションスウォッチ_9);
      }

      .cls-5 {
        stroke-width: 2.62px;
      }

      .cls-25 {
        fill: url(#_称未設定グラデーション_184);
      }

      .cls-26 {
        fill: url(#_称未設定グラデーション_331);
      }

      .cls-27 {
        fill: url(#_称未設定グラデーション_111);
      }

      .cls-28 {
        fill: url(#_称未設定グラデーション_489);
      }

      .cls-29 {
        fill: url(#_称未設定グラデーション_680);
      }

      .cls-30 {
        fill: url(#_称未設定グラデーション_149);
      }

      .cls-31 {
        fill: url(#_称未設定グラデーション_141);
      }

      .cls-32 {
        fill: url(#_称未設定グラデーション_100);
      }

      .cls-33 {
        fill: url(#_称未設定グラデーション_106);
      }

      .cls-34 {
        fill: url(#_称未設定グラデーション_587);
      }

      .cls-35 {
        fill: url(#_称未設定グラデーション_377);
      }

      .cls-36 {
        fill: url(#_称未設定グラデーション_354);
      }

      .cls-37 {
        fill: url(#_称未設定グラデーション_352);
      }

      .cls-38 {
        fill: url(#_称未設定グラデーション_366);
      }

      .cls-39 {
        fill: url(#_称未設定グラデーション_535);
      }

      .cls-40 {
        fill: url(#_規グラデーションスウォッチ_9-3);
      }

      .cls-41 {
        fill: url(#_規グラデーションスウォッチ_9-2);
      }
    </style>
    <linearGradient id="_規グラデーションスウォッチ_9" data-name="新規グラデーションスウォッチ 9" x1="273.222" y1="36.403" x2="273.222" y2="110.144" gradientTransform="matrix(1, 0, 0, 1, 0, 0)" gradientUnits="userSpaceOnUse">
      <stop offset="0" stop-color="#a3cea8"/>
      <stop offset=".18" stop-color="#7cc098"/>
      <stop offset=".455" stop-color="#47ae84"/>
      <stop offset=".693" stop-color="#20a175"/>
      <stop offset=".882" stop-color="#08986c"/>
      <stop offset="1" stop-color="#009669"/>
    </linearGradient>
    <linearGradient id="_称未設定グラデーション_680" data-name="名称未設定グラデーション 680" x1="897.891" y1="165.085" x2="897.891" y2="209.28" gradientTransform="translate(-468.939 127.223) rotate(-13.877)" gradientUnits="userSpaceOnUse">
      <stop offset="0" stop-color="#a3cea8"/>
      <stop offset=".18" stop-color="#7cc098"/>
      <stop offset=".455" stop-color="#47ae84"/>
      <stop offset=".693" stop-color="#20a175"/>
      <stop offset=".882" stop-color="#08986c"/>
      <stop offset="1" stop-color="#009669"/>
    </linearGradient>
    <linearGradient id="_称未設定グラデーション_587" data-name="名称未設定グラデーション 587" x1="516.723" y1="53.51" x2="516.723" y2="124.274" gradientTransform="translate(585.722 127.223) rotate(-166.123) scale(1 -1)" gradientUnits="userSpaceOnUse">
      <stop offset="0" stop-color="#82a788"/>
      <stop offset="1" stop-color="#007550"/>
    </linearGradient>
    <linearGradient id="_称未設定グラデーション_100" data-name="名称未設定グラデーション 100" x1="425.338" y1="83.74" x2="458.908" y2="25.597" gradientTransform="translate(534.934 86.254) rotate(-169.916) scale(1 -1)" gradientUnits="userSpaceOnUse">
      <stop offset="0" stop-color="#d8d5ae"/>
      <stop offset=".62" stop-color="#f2efce"/>
      <stop offset="1" stop-color="#fffcde"/>
    </linearGradient>
    <linearGradient id="_称未設定グラデーション_106" data-name="名称未設定グラデーション 106" x1="460.206" y1="50.265" x2="470.461" y2="32.504" gradientTransform="translate(534.934 86.254) rotate(-169.916) scale(1 -1)" gradientUnits="userSpaceOnUse">
      <stop offset="0" stop-color="#c9c5a2"/>
      <stop offset=".613" stop-color="#e3e0c1"/>
      <stop offset="1" stop-color="#f0edd1"/>
    </linearGradient>
    <linearGradient id="_称未設定グラデーション_111" data-name="名称未設定グラデーション 111" x1="465.692" y1="90.779" x2="482.144" y2="62.284" gradientTransform="translate(534.934 86.254) rotate(-169.916) scale(1 -1)" gradientUnits="userSpaceOnUse">
      <stop offset="0" stop-color="#9c997e"/>
      <stop offset=".304" stop-color="#b9b69b"/>
      <stop offset=".761" stop-color="#e0ddc2"/>
      <stop offset="1" stop-color="#f0edd1"/>
    </linearGradient>
    <linearGradient id="_規グラデーションスウォッチ_10" data-name="新規グラデーションスウォッチ 10" x1="339.193" y1="81.697" x2="339.193" y2="110.144" gradientTransform="translate(577.32) rotate(-180) scale(1 -1)" gradientUnits="userSpaceOnUse">
      <stop offset="0" stop-color="#d9e8ae"/>
      <stop offset="1" stop-color="#7dc280"/>
    </linearGradient>
    <linearGradient id="_称未設定グラデーション_377" data-name="名称未設定グラデーション 377" x1="406.56" y1="25.491" x2="406.56" y2="44.575" gradientTransform="translate(548.227 23.341) rotate(-176.172) scale(1 -1)" gradientUnits="userSpaceOnUse">
      <stop offset="0" stop-color="#fff"/>
      <stop offset=".109" stop-color="#f5f7f7"/>
      <stop offset=".398" stop-color="#e2e7e8"/>
      <stop offset=".693" stop-color="#d6dedf"/>
      <stop offset="1" stop-color="#d3dbdd"/>
    </linearGradient>
    <linearGradient id="_称未設定グラデーション_377-2" data-name="名称未設定グラデーション 377" x1="330.554" y1="11.642" x2="330.554" y2="25.654" xlink:href="#_称未設定グラデーション_377"/>
    <linearGradient id="_称未設定グラデーション_377-3" data-name="名称未設定グラデーション 377" x1="101.803" y1="36.169" x2="125.701" y2="60.066" gradientTransform="translate(577.32) rotate(-180) scale(1 -1)" xlink:href="#_称未設定グラデーション_377"/>
    <linearGradient id="_称未設定グラデーション_377-4" data-name="名称未設定グラデーション 377" x1="151.479" y1="3.872" x2="175.376" y2="27.77" gradientTransform="translate(-149.741)" xlink:href="#_称未設定グラデーション_377"/>
    <linearGradient id="_規グラデーションスウォッチ_9-2" data-name="新規グラデーションスウォッチ 9" x1="448.963" y1="39.372" x2="448.963" y2="63.774" gradientTransform="translate(567.084 -72.563) rotate(168.659) scale(1 -1)" xlink:href="#_規グラデーションスウォッチ_9"/>
    <linearGradient id="_規グラデーションスウォッチ_9-3" data-name="新規グラデーションスウォッチ 9" x1="439.333" y1="52.571" x2="439.333" y2="72.489" gradientTransform="translate(571.667 -63.66) rotate(170.688) scale(1 -1)" xlink:href="#_規グラデーションスウォッチ_9"/>
    <linearGradient id="_称未設定グラデーション_377-5" data-name="名称未設定グラデーション 377" x1="511.995" y1="13.907" x2="501.549" y2="31.999" gradientTransform="translate(-93.744)" xlink:href="#_称未設定グラデーション_377"/>
    <linearGradient id="_称未設定グラデーション_354" data-name="名称未設定グラデーション 354" x1="46.237" y1="74.38" x2="46.237" y2="93.78" gradientTransform="translate(422.582) rotate(-180) scale(1 -1)" gradientUnits="userSpaceOnUse">
      <stop offset="0" stop-color="#f5ab58"/>
      <stop offset=".096" stop-color="#f39c53"/>
      <stop offset=".348" stop-color="#ee7b48"/>
      <stop offset=".589" stop-color="#eb6340"/>
      <stop offset=".812" stop-color="#e9543b"/>
      <stop offset="1" stop-color="#e9503a"/>
    </linearGradient>
    <linearGradient id="_称未設定グラデーション_184" data-name="名称未設定グラデーション 184" x1="334.03" y1="67.079" x2="334.03" y2=".147" gradientTransform="matrix(1, 0, 0, 1, 0, 0)" gradientUnits="userSpaceOnUse">
      <stop offset="0" stop-color="#40210f"/>
      <stop offset="1" stop-color="#946134"/>
    </linearGradient>
    <linearGradient id="_称未設定グラデーション_352" data-name="名称未設定グラデーション 352" x1="70.719" y1="66.382" x2="70.719" y2="28.697" gradientTransform="translate(388.185 8.121) rotate(168.898) scale(1 -1)" gradientUnits="userSpaceOnUse">
      <stop offset="0" stop-color="#f5ab58"/>
      <stop offset=".029" stop-color="#f8c593"/>
      <stop offset="1" stop-color="#f19c8f"/>
    </linearGradient>
    <linearGradient id="_称未設定グラデーション_489" data-name="名称未設定グラデーション 489" x1="63.415" y1="39.776" x2="73.193" y2="89.606" gradientTransform="translate(388.185 8.121) rotate(168.898) scale(1 -1)" gradientUnits="userSpaceOnUse">
      <stop offset="0" stop-color="#fff"/>
      <stop offset=".604" stop-color="#f3f5d0"/>
      <stop offset="1" stop-color="#edf0b7"/>
    </linearGradient>
    <linearGradient id="_称未設定グラデーション_331" data-name="名称未設定グラデーション 331" x1="61.326" y1="119.493" x2="42.572" y2="87.01" gradientTransform="translate(422.582) rotate(-180) scale(1 -1)" gradientUnits="userSpaceOnUse">
      <stop offset="0" stop-color="#f5ab58"/>
      <stop offset="1" stop-color="#e9503a"/>
    </linearGradient>
    <linearGradient id="_称未設定グラデーション_331-2" data-name="名称未設定グラデーション 331" x1="54.467" y1="109.961" x2="64.185" y2="93.129" xlink:href="#_称未設定グラデーション_331"/>
    <linearGradient id="_称未設定グラデーション_535" data-name="名称未設定グラデーション 535" x1="79.399" y1="53.465" x2="56.337" y2="53.465" gradientTransform="translate(388.185 8.121) rotate(168.898) scale(1 -1)" gradientUnits="userSpaceOnUse">
      <stop offset="0" stop-color="#bad4a7"/>
      <stop offset="1" stop-color="#dae58e"/>
    </linearGradient>
    <linearGradient id="_称未設定グラデーション_535-2" data-name="名称未設定グラデーション 535" x1="73.385" y1="59.307" x2="86.433" y2="46.259" xlink:href="#_称未設定グラデーション_535"/>
    <linearGradient id="_称未設定グラデーション_354-2" data-name="名称未設定グラデーション 354" x1="78.185" y1="77.559" x2="78.185" y2="108.631" xlink:href="#_称未設定グラデーション_354"/>
    <linearGradient id="_称未設定グラデーション_149" data-name="名称未設定グラデーション 149" x1="28.668" y1="11.455" x2="72.027" y2="26.299" gradientTransform="translate(364.441 -1.875) rotate(160.669) scale(1 -1)" gradientUnits="userSpaceOnUse">
      <stop offset="0" stop-color="#ed7d4c"/>
      <stop offset=".029" stop-color="#f0936f"/>
      <stop offset=".298" stop-color="#f2a687"/>
      <stop offset="1" stop-color="#fad7c3"/>
    </linearGradient>
    <linearGradient id="_規グラデーションスウォッチ_13" data-name="新規グラデーションスウォッチ 13" x1="379.122" y1="84.924" x2="361.752" y2="88.332" gradientTransform="matrix(1, 0, 0, 1, 0, 0)" gradientUnits="userSpaceOnUse">
      <stop offset="0" stop-color="#fff"/>
      <stop offset=".215" stop-color="#fdfdfa"/>
      <stop offset=".471" stop-color="#fafaeb"/>
      <stop offset=".746" stop-color="#f4f5d3"/>
      <stop offset="1" stop-color="#edf0b7"/>
    </linearGradient>
    <linearGradient id="_規グラデーションスウォッチ_13-2" data-name="新規グラデーションスウォッチ 13" x1="359.529" y1="102.52" x2="378.213" y2="102.52" xlink:href="#_規グラデーションスウォッチ_13"/>
    <linearGradient id="_称未設定グラデーション_141" data-name="名称未設定グラデーション 141" x1="356.421" y1="92.653" x2="356.421" y2="69.471" gradientTransform="matrix(1, 0, 0, 1, 0, 0)" gradientUnits="userSpaceOnUse">
      <stop offset="0" stop-color="#ed7d4c"/>
      <stop offset=".382" stop-color="#f09873"/>
      <stop offset="1" stop-color="#f7c3af"/>
    </linearGradient>
    <linearGradient id="_称未設定グラデーション_535-3" data-name="名称未設定グラデーション 535" x1="366.225" y1="99.979" x2="366.225" y2="89.691" gradientTransform="matrix(1, 0, 0, 1, 0, 0)" xlink:href="#_称未設定グラデーション_535"/>
    <linearGradient id="_称未設定グラデーション_354-3" data-name="名称未設定グラデーション 354" x1="357.8" y1="62.562" x2="357.8" y2="71.622" gradientTransform="matrix(1, 0, 0, 1, 0, 0)" xlink:href="#_称未設定グラデーション_354"/>
    <linearGradient id="_称未設定グラデーション_366" data-name="名称未設定グラデーション 366" x1="439.882" y1="-1.949" x2="442.242" y2="6.856" gradientTransform="matrix(1, 0, 0, 1, 0, 0)" gradientUnits="userSpaceOnUse">
      <stop offset="0" stop-color="#fcdd99"/>
      <stop offset=".028" stop-color="#ffe59b"/>
      <stop offset=".184" stop-color="#f6cf80"/>
      <stop offset=".406" stop-color="#edb560"/>
      <stop offset=".62" stop-color="#e6a249"/>
      <stop offset=".823" stop-color="#e2973b"/>
      <stop offset="1" stop-color="#e19437"/>
    </linearGradient>
  </defs>
  <rect class="cls-8" x=".197" y=".147" width="475.861" height="109.997"/>
  <path class="cls-24" d="M342.087,75.004c-8.25-19.75-17.5-38.25-26.75-38.594s-8.5,12.594-8.5,12.594c-.5-2.75-5.25-3.25-8.5-1.797-3.25,1.453-3.25,10.797-3.25,10.797-4-10-10.5-2-10.5-2-.5-12.75-4.75-18.75-10-19.5-.399-.057-.776-.079-1.143-.084-.073-.003-.148-.003-.222-.004-.075,0-.149,.001-.222,.004-.367,.006-.744,.027-1.143,.084-5.25,.75-9.5,6.75-10,19.5,0,0-6.5-8-10.5,2,0,0,0-9.344-3.25-10.797-3.25-1.453-8-.953-8.5,1.797,0,0,.75-12.937-8.5-12.594s-18.5,18.844-26.75,38.594c-5.842,13.986,22.787,28.094,39.998,35.14h57.734c17.212-7.046,45.841-21.154,39.998-35.14Z"/>
  <path class="cls-29" d="M475.625,67.528c-14.272-1.944-19.82,6.595-19.82,6.595-4.372-2.906-12.373,5.05-12.373,5.05l-6.374-3.509c-14.929-3.953-17.161,11.216-17.161,11.216-10.1,3.492-3.724,17.198-3.724,17.198l59.452,5.372v-41.921Z"/>
  <path class="cls-34" d="M0,65.164c15.447-2.104,21.452,7.138,21.452,7.138,4.732-3.146,13.391,5.465,13.391,5.465l71.842-11.375c16.158-4.278,18.574,12.139,18.574,12.139,10.931,3.779,4.031,18.613,4.031,18.613L0,110.536v-45.372Z"/>
  <g>
    <path class="cls-32" d="M117.442,88.45l4.207-34.453s-11.36-3.3-22.592-2.525c0,0-.156-11.121,1.012-20.088,0,0-11.856-5.309-27.928,2.287l2.466,20.92s-10.235,1.167-19.27,6.387l10.678,31.127,51.426-3.655Z"/>
    <polygon class="cls-33" points="61.451 42.203 72.142 33.672 74.608 54.591 66.624 56.302 61.451 42.203"/>
    <path class="cls-27" d="M53.87,94.425s-5.477-17.188-6.841-25.111c0,0,4.677-6.469,8.309-8.336l10.678,31.127-12.146,2.32Z"/>
    <polygon class="cls-11" points="109.332 75.274 111.833 61.212 103.147 59.667 103.128 74.171 109.332 75.274"/>
    <polygon class="cls-11" points="91.822 75.36 91.44 60.715 82.264 61.927 85.443 77.639 91.822 75.36"/>
    <polygon class="cls-11" points="74.069 75.617 72.769 64.932 66.124 66.31 68.848 76.181 74.069 75.617"/>
    <polygon class="cls-9" points="89.938 46.971 94.676 47.92 94.775 41.964 89.421 42.079 90.606 36.71 84.006 35.782 84.687 42.303 79.88 42.942 78.887 48.526 84.839 47.451 83.919 52.621 89.82 53.03 89.938 46.971"/>
  </g>
  <path class="cls-22" d="M.197,110.144v-3.296c41.264-12.575,106.124-23.788,203.871-24.98,169.027-2.061,249.109,14.85,271.99,28.276H.197Z"/>
  <path class="cls-35" d="M121.713,39.477s17.788-4.963,36.889-3.351c0,0-3.928-9.951-9.271-9.975-5.344-.023-5.522,2.637-5.522,2.637,0,0-.148-7.777-6.692-7.338s-4.865,5.312-4.865,5.312c0,0-4.313-1.527-6.07,.847-1.836,2.481-.999,4.944,.098,6.02,0,0-7.236,.798-4.567,5.848Z"/>
  <path class="cls-17" d="M203.566,25.99s13.061-3.644,27.086-2.46c0,0-2.884-7.307-6.808-7.324-3.924-.017-4.054,1.936-4.054,1.936,0,0-.108-5.711-4.913-5.388s-3.572,3.9-3.572,3.9c0,0-3.167-1.121-4.457,.622-1.348,1.822-.734,3.63,.072,4.42,0,0-5.313,.586-3.354,4.294Z"/>
  <path class="cls-16" d="M450.558,39.37c3.5-1.5,5.167,1.75,5.167,1.75,.167-2.083,.833-5.75,6.203-6.583,5.369-.833,7.631,5.667,7.631,5.667,2.838-2.62,5.454-2.951,7.5-2.494v19.131c-15.801-5.272-35.262-6.598-35.262-6.598,.072-4.794,7.095-3.659,7.095-3.659-.833-1.62-1.833-5.713,1.667-7.213Z"/>
  <path class="cls-15" d="M26.697,7.074c-3.5-1.5-5.167,1.75-5.167,1.75-.167-2.083-.833-5.75-6.203-6.583-5.369-.833-7.631,5.667-7.631,5.667C4.858,5.287,2.243,4.956,.197,5.413V24.544c15.801-5.272,35.262-6.598,35.262-6.598-.072-4.794-7.095-3.659-7.095-3.659,.833-1.62,1.833-5.713-1.667-7.213Z"/>
  <g>
    <rect class="cls-10" x="137.452" y="75.301" width="1.75" height="8.5" transform="translate(280.791 151.431) rotate(176.87)"/>
    <path class="cls-41" d="M138.325,78.434c2.557-.167,6.787-2.598,4.197-12.42-2.4-9.102-3.732-12.316-5.326-12.191-1.984,.156-3.811,5.269-4.626,13.422-.882,8.816,3.061,11.365,5.756,11.189Z"/>
  </g>
  <g>
    <rect class="cls-10" x="148.203" y="76.519" width="1.428" height="6.938" transform="translate(299.343 157.1) rotate(178.899)"/>
    <path class="cls-40" d="M148.947,79.076c2.091-.063,5.611-1.923,3.782-10.01-1.695-7.494-2.689-10.154-3.992-10.098-1.623,.07-3.261,4.188-4.162,10.815-.974,7.166,2.169,9.359,4.372,9.293Z"/>
  </g>
  <g>
    <line class="cls-4" x1="428.847" y1=".971" x2="418.232" y2="3.589"/>
    <line class="cls-4" x1="430.014" y1="6.031" x2="421.347" y2="13.452"/>
    <line class="cls-4" x1="438.014" y1="10.744" x2="435.18" y2="19.927"/>
    <line class="cls-4" x1="446.18" y1="10.744" x2="449.014" y2="21.327"/>
    <line class="cls-4" x1="451.893" y1="6.031" x2="459.18" y2="11.744"/>
    <path class="cls-4" d="M461.347,3.589l-8.667-2.618,8.667,2.618Z"/>
  </g>
  <path class="cls-14" d="M427.174,29.469s-15.594-5.497-32.756-5.199c0,0,4.104-8.655,8.879-8.357,4.775,.298,4.775,2.686,4.775,2.686,0,0,.597-6.939,6.417-6.156,5.82,.783,4.029,5.036,4.029,5.036,0,0,3.944-1.106,5.372,1.119,1.492,2.326,.597,4.477-.448,5.372,0,0,6.417,1.145,3.731,5.497Z"/>
  <g>
    <path class="cls-36" d="M385.53,93.78s-8.549-15.156-15.108-19.4l-3.262,.687s6.095,7.812,9.872,17.769l8.498,.944Z"/>
    <path class="cls-25" d="M369.771,23.595c-4.541-.744-6.387-4.734-7.979-7.101-1.424-2.118-2.88-10.543-3.663-11.997-.327-.608-1.284-2.494-3.604-4.349h-32.624c-8.697,5.051-12.793,13.463-15.184,18.837-3.357,7.546-6.176,10.712-8.45,13.238-1.493,1.659-4.36,2.263-5.226,4.23-.912,2.074,.151,2.957,3.567,4.396,3.416,1.44,4.313,4.065,2.82,6.168-1.006,1.417-3.993,3.759-3.318,5.942,.675,2.183,2.977,2.111,7.631,2.737,3.274,.441,6.387,1.991,6.387,6.47,0,5.243,4.174,4.642,6.636,2.323,2.461-2.319,3.239-1.405,4.593,.121,1.354,1.526,5.086,2.31,5.086,2.31,0,0,38.063,1.82,37.187-6.827-.664-6.553,.458-9.634,4.645-11.447,7.739-3.352,6.693-8.419,4.921-10.617s-2.233-4.477-.691-6.565c1.542-2.087,2.821-1.979,2.82-3.973,0-2.071-2.518-3.397-5.558-3.895Z"/>
    <path class="cls-37" d="M334.89,47.823c-.119,.286,1.55,13.693,3.256,16.595,0,0-7.13,18.633-15.092,24.131,0,0-7.605-9.18-2.841-23.237,0,0,3.441-6.536,3.852-12.915l10.825-4.573Z"/>
    <path class="cls-28" d="M374.159,59.363s-28.79,9.761-36.875,1.549c0,0-2.802,16.034-14.357,26.699,0,0-7.652-11.358-7.907-15.332,0,0-4.089,4.127-11.046,5.229-6.957,1.103-8.629-.287-8.629-.287,0,0-3.851-.426-4.072,2.312-.273,3.375,2.447,7.489,4.115,30.611h62.412s-.3-3.028,11.498-6.966c8.306-2.773,7.494-22.811,4.86-43.814Z"/>
    <path class="cls-6" d="M388.706,92.031l-14.765-.826-41.204,10.816s10.644-.515,12.533,3.605l43.436-13.595Z"/>
    <polygon class="cls-26" points="388.706 92.031 390.646 110.144 345.063 110.144 345.27 105.626 388.706 92.031"/>
    <path class="cls-7" d="M330.97,110.144h14.093l.207-4.517s-1.717-4.636-12.533-3.605l-1.767,8.123Z"/>
    <path class="cls-20" d="M364.069,109.449l9.462-2.615s-4.396-13.314-12.809-12.423l-8.185,2.101s10.327,.723,11.532,12.937Z"/>
    <path class="cls-39" d="M322.894,87.443c-1.054,.557,12.486-17.059,14.576-26.917,0,0,2.724,.953,3.638,4.273s3.485,13.75,3.485,13.75c0,0-9.097-3.114-9.959-2.157s-3.577,6.738-11.741,11.052Z"/>
    <path class="cls-13" d="M320.214,65.312c-.287,.319,.891,18.808,2.681,22.131,0,0-4.503-2.441-6.687-8.223,0,0-4.513,.186-8.087-2.875l12.094-11.034Z"/>
    <path class="cls-19" d="M348.103,78.796s-10.473,13.611-11.245,28.032c0,0,5.236,1.288,6.267,1.803,0,0,1.88-15.898,6.988-25.313,5.06-9.327-2.009-4.522-2.009-4.522Z"/>
    <path class="cls-30" d="M314.464,58.568s20.032-1.114,28.777-14.825c0,0,7.033,.08,7.317-4.295s-5.262-.974-5.971-.543c0,0,2.86-10.919,2.587-12.734s-15.556-10.372-19.338-19.598c0,0-15.626-.977-20.669,11.617-5.043,12.595-.505,30.198,7.297,40.379Z"/>
    <path class="cls-2" d="M309.399,20.857s2.537-4.721,8.54,.356c0,0,1.664,10.576-6.624,12.027,0,0,.351,2.642,2.487,5.285"/>
    <path class="cls-2" d="M325.393,22.052s2.537-4.079,9.777,1.093"/>
    <path class="cls-23" d="M374.25,60.093s3.061,22.651,7.761,50.051h-15.98l-.657-15.09,8.876-34.962Z"/>
    <g>
      <polygon class="cls-21" points="359.529 110.144 360.338 97.145 371.784 94.896 378.213 110.144 359.529 110.144"/>
      <path class="cls-31" d="M360.387,92.653v-5.119s-5.409,.773-8.693-1.739-5.216-5.02-5.216-5.02l-2.657,5.53s-1.98-5.243-1.593-12.584c0,0,5.795-.097,11.881-4.25,0,0,10.895,7.746,15.358,14.972,2.028,3.284,.869,6.085,.869,6.085l-9.949,2.125Z"/>
      <path class="cls-12" d="M360.097,99.979v-7.809s.631-2.946,10.568-2.415l1.689,7.012s-8.394-1.15-12.257,3.211Z"/>
    </g>
    <path class="cls-3" d="M314.979,47.016s1.456,1.11,5.92,0"/>
    <g>
      <path class="cls-5" d="M329.075,24.88s.617,1.733-.68,5.219"/>
      <path class="cls-1" d="M326.268,21.419s-.276,1.716,2.808,3.461"/>
    </g>
    <g>
      <path class="cls-5" d="M312.206,24.319s.531,.951-.767,4.438"/>
      <path class="cls-1" d="M309.399,20.857s-.276,1.716,2.808,3.461"/>
    </g>
    <polygon class="cls-18" points="358.088 63.055 353.43 70.627 356.137 71.622 362.17 62.562 358.088 63.055"/>
  </g>
  <path class="cls-38" d="M432.06,.147c.78,3.925,4.24,6.884,8.394,6.884s7.614-2.959,8.394-6.884h-16.788Z"/>
</svg>