<?xml version="1.0" encoding="UTF-8"?>
<svg id="_イヤー_1" data-name="レイヤー 1" xmlns="http://www.w3.org/2000/svg" width="145.242mm" height="90.074mm" xmlns:xlink="http://www.w3.org/1999/xlink" viewBox="0 0 411.711 255.328">
  <defs>
    <style>
      .cls-1 {
        fill: url(#_称未設定グラデーション_49-2);
      }

      .cls-2 {
        fill: url(#_称未設定グラデーション_14);
      }

      .cls-3 {
        fill: url(#_称未設定グラデーション_49);
      }

      .cls-4 {
        fill: url(#_称未設定グラデーション_138-2);
      }

      .cls-4, .cls-5, .cls-6, .cls-7 {
        stroke-miterlimit: 10;
      }

      .cls-4, .cls-6, .cls-7 {
        stroke: #7e4f22;
        stroke-width: 1.465px;
      }

      .cls-8 {
        fill: url(#_規グラデーションスウォッチ_9-2);
      }

      .cls-8, .cls-9, .cls-10, .cls-11, .cls-12 {
        opacity: .091;
      }

      .cls-13 {
        fill: #89c6cb;
      }

      .cls-14 {
        fill: #ae373e;
      }

      .cls-15 {
        fill: url(#_規グラデーションスウォッチ_9-49);
      }

      .cls-15, .cls-16, .cls-17, .cls-18, .cls-19 {
        opacity: 0;
      }

      .cls-16 {
        fill: url(#_規グラデーションスウォッチ_9-37);
      }

      .cls-17 {
        fill: url(#_規グラデーションスウォッチ_9-13);
      }

      .cls-18 {
        fill: url(#_規グラデーションスウォッチ_9-25);
      }

      .cls-5, .cls-6, .cls-20, .cls-21 {
        fill: none;
      }

      .cls-5, .cls-20 {
        stroke-width: 1.279px;
      }

      .cls-5, .cls-20, .cls-21 {
        stroke: #ae373e;
      }

      .cls-22 {
        fill: url(#_規グラデーションスウォッチ_9-10);
      }

      .cls-22, .cls-23, .cls-24, .cls-25, .cls-26 {
        opacity: .818;
      }

      .cls-23 {
        fill: url(#_規グラデーションスウォッチ_9-22);
      }

      .cls-24 {
        fill: url(#_規グラデーションスウォッチ_9-58);
      }

      .cls-25 {
        fill: url(#_規グラデーションスウォッチ_9-46);
      }

      .cls-26 {
        fill: url(#_規グラデーションスウォッチ_9-34);
      }

      .cls-27 {
        fill: url(#_規グラデーションスウォッチ_9-47);
      }

      .cls-27, .cls-28, .cls-29, .cls-30, .cls-31 {
        opacity: .909;
      }

      .cls-28 {
        fill: url(#_規グラデーションスウォッチ_9-35);
      }

      .cls-29 {
        fill: url(#_規グラデーションスウォッチ_9-11);
      }

      .cls-30 {
        fill: url(#_規グラデーションスウォッチ_9-23);
      }

      .cls-31 {
        fill: url(#_規グラデーションスウォッチ_9-59);
      }

      .cls-32 {
        fill: url(#_規グラデーションスウォッチ_9-57);
      }

      .cls-32, .cls-33, .cls-34, .cls-35, .cls-36 {
        opacity: .727;
      }

      .cls-33 {
        fill: url(#_規グラデーションスウォッチ_9-45);
      }

      .cls-34 {
        fill: url(#_規グラデーションスウォッチ_9-33);
      }

      .cls-35 {
        fill: url(#_規グラデーションスウォッチ_9-21);
      }

      .cls-37 {
        fill: url(#_規グラデーションスウォッチ_9-18);
      }

      .cls-37, .cls-38, .cls-39, .cls-40, .cls-41 {
        opacity: .455;
      }

      .cls-38 {
        fill: url(#_規グラデーションスウォッチ_9-54);
      }

      .cls-39 {
        fill: url(#_規グラデーションスウォッチ_9-30);
      }

      .cls-40 {
        fill: url(#_規グラデーションスウォッチ_9-42);
      }

      .cls-42 {
        fill: url(#_規グラデーションスウォッチ_9-20);
      }

      .cls-42, .cls-43, .cls-44, .cls-45, .cls-46 {
        opacity: .636;
      }

      .cls-43 {
        fill: url(#_規グラデーションスウォッチ_9-56);
      }

      .cls-44 {
        fill: url(#_規グラデーションスウォッチ_9-44);
      }

      .cls-45 {
        fill: url(#_規グラデーションスウォッチ_9-32);
      }

      .cls-47 {
        fill: url(#_規グラデーションスウォッチ_9-17);
      }

      .cls-47, .cls-48, .cls-49, .cls-50, .cls-51 {
        opacity: .364;
      }

      .cls-48 {
        fill: url(#_規グラデーションスウォッチ_9-29);
      }

      .cls-49 {
        fill: url(#_規グラデーションスウォッチ_9-53);
      }

      .cls-50 {
        fill: url(#_規グラデーションスウォッチ_9-41);
      }

      .cls-52 {
        fill: url(#_規グラデーションスウォッチ_9-43);
      }

      .cls-52, .cls-53, .cls-54, .cls-55, .cls-56 {
        opacity: .545;
      }

      .cls-53 {
        fill: url(#_規グラデーションスウォッチ_9-31);
      }

      .cls-54 {
        fill: url(#_規グラデーションスウォッチ_9-55);
      }

      .cls-55 {
        fill: url(#_規グラデーションスウォッチ_9-19);
      }

      .cls-57 {
        fill: url(#_規グラデーションスウォッチ_9-27);
      }

      .cls-57, .cls-58, .cls-59, .cls-60, .cls-61 {
        opacity: .182;
      }

      .cls-58 {
        fill: url(#_規グラデーションスウォッチ_9-15);
      }

      .cls-59 {
        fill: url(#_規グラデーションスウォッチ_9-51);
      }

      .cls-60 {
        fill: url(#_規グラデーションスウォッチ_9-39);
      }

      .cls-62 {
        fill: url(#_規グラデーションスウォッチ_9-28);
      }

      .cls-62, .cls-63, .cls-64, .cls-65, .cls-66 {
        opacity: .273;
      }

      .cls-63 {
        fill: url(#_規グラデーションスウォッチ_9-16);
      }

      .cls-64 {
        fill: url(#_規グラデーションスウォッチ_9-52);
      }

      .cls-65 {
        fill: url(#_規グラデーションスウォッチ_9-40);
      }

      .cls-67 {
        fill: url(#_規グラデーションスウォッチ_9-48);
      }

      .cls-68 {
        fill: url(#_規グラデーションスウォッチ_9-36);
      }

      .cls-69 {
        fill: url(#_規グラデーションスウォッチ_9-12);
      }

      .cls-70 {
        fill: url(#_規グラデーションスウォッチ_9-24);
      }

      .cls-71 {
        fill: url(#_規グラデーションスウォッチ_9-60);
      }

      .cls-19 {
        fill: url(#_規グラデーションスウォッチ_9);
      }

      .cls-7 {
        fill: url(#_称未設定グラデーション_138);
      }

      .cls-20, .cls-21 {
        stroke-linejoin: round;
      }

      .cls-36 {
        fill: url(#_規グラデーションスウォッチ_9-9);
      }

      .cls-56 {
        fill: url(#_規グラデーションスウォッチ_9-7);
      }

      .cls-51 {
        fill: url(#_規グラデーションスウォッチ_9-5);
      }

      .cls-46 {
        fill: url(#_規グラデーションスウォッチ_9-8);
      }

      .cls-66 {
        fill: url(#_規グラデーションスウォッチ_9-4);
      }

      .cls-41 {
        fill: url(#_規グラデーションスウォッチ_9-6);
      }

      .cls-61 {
        fill: url(#_規グラデーションスウォッチ_9-3);
      }

      .cls-72 {
        opacity: .23;
      }

      .cls-73 {
        opacity: .7;
      }

      .cls-21 {
        stroke-linecap: round;
        stroke-width: 1.3px;
      }

      .cls-9 {
        fill: url(#_規グラデーションスウォッチ_9-38);
      }

      .cls-10 {
        fill: url(#_規グラデーションスウォッチ_9-14);
      }

      .cls-11 {
        fill: url(#_規グラデーションスウォッチ_9-26);
      }

      .cls-12 {
        fill: url(#_規グラデーションスウォッチ_9-50);
      }
    </style>
    <linearGradient id="_称未設定グラデーション_138" data-name="名称未設定グラデーション 138" x1="131.841" y1="157.378" x2="276.705" y2="157.378" gradientTransform="matrix(1, 0, 0, 1, 0, 0)" gradientUnits="userSpaceOnUse">
      <stop offset="0" stop-color="#c65a45"/>
      <stop offset=".504" stop-color="#e6bfa0"/>
      <stop offset="1" stop-color="#c65a45"/>
    </linearGradient>
    <linearGradient id="_称未設定グラデーション_138-2" data-name="名称未設定グラデーション 138" x1="106.216" y1="74.513" x2="300.955" y2="74.513" xlink:href="#_称未設定グラデーション_138"/>
    <linearGradient id="_規グラデーションスウォッチ_9" data-name="新規グラデーションスウォッチ 9" x1="201.459" y1="89.933" x2="210.898" y2="89.933" gradientTransform="matrix(1, 0, 0, 1, 0, 0)" gradientUnits="userSpaceOnUse">
      <stop offset="0" stop-color="#c0725a"/>
      <stop offset="1" stop-color="#c0725a"/>
    </linearGradient>
    <linearGradient id="_規グラデーションスウォッチ_9-2" data-name="新規グラデーションスウォッチ 9" x1="201.682" x2="210.675" xlink:href="#_規グラデーションスウォッチ_9"/>
    <linearGradient id="_規グラデーションスウォッチ_9-3" data-name="新規グラデーションスウォッチ 9" x1="201.906" x2="210.452" xlink:href="#_規グラデーションスウォッチ_9"/>
    <linearGradient id="_規グラデーションスウォッチ_9-4" data-name="新規グラデーションスウォッチ 9" x1="202.129" x2="210.229" xlink:href="#_規グラデーションスウォッチ_9"/>
    <linearGradient id="_規グラデーションスウォッチ_9-5" data-name="新規グラデーションスウォッチ 9" x1="202.352" x2="210.006" xlink:href="#_規グラデーションスウォッチ_9"/>
    <linearGradient id="_規グラデーションスウォッチ_9-6" data-name="新規グラデーションスウォッチ 9" x1="202.575" x2="209.783" xlink:href="#_規グラデーションスウォッチ_9"/>
    <linearGradient id="_規グラデーションスウォッチ_9-7" data-name="新規グラデーションスウォッチ 9" x1="202.798" x2="209.56" xlink:href="#_規グラデーションスウォッチ_9"/>
    <linearGradient id="_規グラデーションスウォッチ_9-8" data-name="新規グラデーションスウォッチ 9" x1="203.021" x2="209.337" xlink:href="#_規グラデーションスウォッチ_9"/>
    <linearGradient id="_規グラデーションスウォッチ_9-9" data-name="新規グラデーションスウォッチ 9" x1="203.244" x2="209.113" xlink:href="#_規グラデーションスウォッチ_9"/>
    <linearGradient id="_規グラデーションスウォッチ_9-10" data-name="新規グラデーションスウォッチ 9" x1="203.467" x2="208.89" xlink:href="#_規グラデーションスウォッチ_9"/>
    <linearGradient id="_規グラデーションスウォッチ_9-11" data-name="新規グラデーションスウォッチ 9" x1="203.69" x2="208.667" xlink:href="#_規グラデーションスウォッチ_9"/>
    <linearGradient id="_規グラデーションスウォッチ_9-12" data-name="新規グラデーションスウォッチ 9" x1="203.913" x2="208.444" xlink:href="#_規グラデーションスウォッチ_9"/>
    <linearGradient id="_規グラデーションスウォッチ_9-13" data-name="新規グラデーションスウォッチ 9" x1="215.242" y1="88.933" x2="224.681" y2="88.933" xlink:href="#_規グラデーションスウォッチ_9"/>
    <linearGradient id="_規グラデーションスウォッチ_9-14" data-name="新規グラデーションスウォッチ 9" x1="215.465" y1="88.933" x2="224.458" y2="88.933" xlink:href="#_規グラデーションスウォッチ_9"/>
    <linearGradient id="_規グラデーションスウォッチ_9-15" data-name="新規グラデーションスウォッチ 9" x1="215.688" y1="88.933" x2="224.235" y2="88.933" xlink:href="#_規グラデーションスウォッチ_9"/>
    <linearGradient id="_規グラデーションスウォッチ_9-16" data-name="新規グラデーションスウォッチ 9" x1="215.911" y1="88.933" x2="224.011" y2="88.933" xlink:href="#_規グラデーションスウォッチ_9"/>
    <linearGradient id="_規グラデーションスウォッチ_9-17" data-name="新規グラデーションスウォッチ 9" x1="216.134" y1="88.933" x2="223.788" y2="88.933" xlink:href="#_規グラデーションスウォッチ_9"/>
    <linearGradient id="_規グラデーションスウォッチ_9-18" data-name="新規グラデーションスウォッチ 9" x1="216.357" y1="88.933" x2="223.565" y2="88.933" xlink:href="#_規グラデーションスウォッチ_9"/>
    <linearGradient id="_規グラデーションスウォッチ_9-19" data-name="新規グラデーションスウォッチ 9" x1="216.581" y1="88.933" x2="223.342" y2="88.933" xlink:href="#_規グラデーションスウォッチ_9"/>
    <linearGradient id="_規グラデーションスウォッチ_9-20" data-name="新規グラデーションスウォッチ 9" x1="216.804" y1="88.933" x2="223.119" y2="88.933" xlink:href="#_規グラデーションスウォッチ_9"/>
    <linearGradient id="_規グラデーションスウォッチ_9-21" data-name="新規グラデーションスウォッチ 9" x1="217.027" y1="88.933" x2="222.896" y2="88.933" xlink:href="#_規グラデーションスウォッチ_9"/>
    <linearGradient id="_規グラデーションスウォッチ_9-22" data-name="新規グラデーションスウォッチ 9" x1="217.25" y1="88.933" x2="222.673" y2="88.933" xlink:href="#_規グラデーションスウォッチ_9"/>
    <linearGradient id="_規グラデーションスウォッチ_9-23" data-name="新規グラデーションスウォッチ 9" x1="217.473" y1="88.933" x2="222.45" y2="88.933" xlink:href="#_規グラデーションスウォッチ_9"/>
    <linearGradient id="_規グラデーションスウォッチ_9-24" data-name="新規グラデーションスウォッチ 9" x1="217.696" y1="88.933" x2="222.227" y2="88.933" xlink:href="#_規グラデーションスウォッチ_9"/>
    <linearGradient id="_規グラデーションスウォッチ_9-25" data-name="新規グラデーションスウォッチ 9" x1="228.769" y1="88.194" x2="238.208" y2="88.194" gradientTransform="translate(325.587 -144.556) rotate(90)" xlink:href="#_規グラデーションスウォッチ_9"/>
    <linearGradient id="_規グラデーションスウォッチ_9-26" data-name="新規グラデーションスウォッチ 9" x1="228.992" y1="88.194" x2="237.985" y2="88.194" gradientTransform="translate(325.587 -144.556) rotate(90)" xlink:href="#_規グラデーションスウォッチ_9"/>
    <linearGradient id="_規グラデーションスウォッチ_9-27" data-name="新規グラデーションスウォッチ 9" x1="229.216" y1="88.194" x2="237.762" y2="88.194" gradientTransform="translate(325.587 -144.556) rotate(90)" xlink:href="#_規グラデーションスウォッチ_9"/>
    <linearGradient id="_規グラデーションスウォッチ_9-28" data-name="新規グラデーションスウォッチ 9" x1="229.439" y1="88.194" x2="237.539" y2="88.194" gradientTransform="translate(325.587 -144.556) rotate(90)" xlink:href="#_規グラデーションスウォッチ_9"/>
    <linearGradient id="_規グラデーションスウォッチ_9-29" data-name="新規グラデーションスウォッチ 9" x1="229.662" y1="88.194" x2="237.316" y2="88.194" gradientTransform="translate(325.587 -144.556) rotate(90)" xlink:href="#_規グラデーションスウォッチ_9"/>
    <linearGradient id="_規グラデーションスウォッチ_9-30" data-name="新規グラデーションスウォッチ 9" x1="229.885" y1="88.194" x2="237.093" y2="88.194" gradientTransform="translate(325.587 -144.556) rotate(90)" xlink:href="#_規グラデーションスウォッチ_9"/>
    <linearGradient id="_規グラデーションスウォッチ_9-31" data-name="新規グラデーションスウォッチ 9" x1="230.108" y1="88.194" x2="236.87" y2="88.194" gradientTransform="translate(325.587 -144.556) rotate(90)" xlink:href="#_規グラデーションスウォッチ_9"/>
    <linearGradient id="_規グラデーションスウォッチ_9-32" data-name="新規グラデーションスウォッチ 9" x1="230.331" y1="88.194" x2="236.647" y2="88.194" gradientTransform="translate(325.587 -144.556) rotate(90)" xlink:href="#_規グラデーションスウォッチ_9"/>
    <linearGradient id="_規グラデーションスウォッチ_9-33" data-name="新規グラデーションスウォッチ 9" x1="230.554" y1="88.194" x2="236.423" y2="88.194" gradientTransform="translate(325.587 -144.556) rotate(90)" xlink:href="#_規グラデーションスウォッチ_9"/>
    <linearGradient id="_規グラデーションスウォッチ_9-34" data-name="新規グラデーションスウォッチ 9" x1="230.777" y1="88.194" x2="236.2" y2="88.194" gradientTransform="translate(325.587 -144.556) rotate(90)" xlink:href="#_規グラデーションスウォッチ_9"/>
    <linearGradient id="_規グラデーションスウォッチ_9-35" data-name="新規グラデーションスウォッチ 9" x1="231" y1="88.194" x2="235.977" y2="88.194" gradientTransform="translate(325.587 -144.556) rotate(90)" xlink:href="#_規グラデーションスウォッチ_9"/>
    <linearGradient id="_規グラデーションスウォッチ_9-36" data-name="新規グラデーションスウォッチ 9" x1="231.224" y1="88.194" x2="235.754" y2="88.194" gradientTransform="translate(325.587 -144.556) rotate(90)" xlink:href="#_規グラデーションスウォッチ_9"/>
    <linearGradient id="_規グラデーションスウォッチ_9-37" data-name="新規グラデーションスウォッチ 9" x1="187.378" y1="88.933" x2="196.817" y2="88.933" xlink:href="#_規グラデーションスウォッチ_9"/>
    <linearGradient id="_規グラデーションスウォッチ_9-38" data-name="新規グラデーションスウォッチ 9" x1="187.601" y1="88.933" x2="196.594" y2="88.933" xlink:href="#_規グラデーションスウォッチ_9"/>
    <linearGradient id="_規グラデーションスウォッチ_9-39" data-name="新規グラデーションスウォッチ 9" x1="187.825" y1="88.933" x2="196.371" y2="88.933" xlink:href="#_規グラデーションスウォッチ_9"/>
    <linearGradient id="_規グラデーションスウォッチ_9-40" data-name="新規グラデーションスウォッチ 9" x1="188.048" y1="88.933" x2="196.148" y2="88.933" xlink:href="#_規グラデーションスウォッチ_9"/>
    <linearGradient id="_規グラデーションスウォッチ_9-41" data-name="新規グラデーションスウォッチ 9" x1="188.271" y1="88.933" x2="195.925" y2="88.933" xlink:href="#_規グラデーションスウォッチ_9"/>
    <linearGradient id="_規グラデーションスウォッチ_9-42" data-name="新規グラデーションスウォッチ 9" x1="188.494" y1="88.933" x2="195.702" y2="88.933" xlink:href="#_規グラデーションスウォッチ_9"/>
    <linearGradient id="_規グラデーションスウォッチ_9-43" data-name="新規グラデーションスウォッチ 9" x1="188.717" y1="88.933" x2="195.479" y2="88.933" xlink:href="#_規グラデーションスウォッチ_9"/>
    <linearGradient id="_規グラデーションスウォッチ_9-44" data-name="新規グラデーションスウォッチ 9" x1="188.94" y1="88.933" x2="195.256" y2="88.933" xlink:href="#_規グラデーションスウォッチ_9"/>
    <linearGradient id="_規グラデーションスウォッチ_9-45" data-name="新規グラデーションスウォッチ 9" x1="189.163" y1="88.933" x2="195.032" y2="88.933" xlink:href="#_規グラデーションスウォッチ_9"/>
    <linearGradient id="_規グラデーションスウォッチ_9-46" data-name="新規グラデーションスウォッチ 9" x1="189.386" y1="88.933" x2="194.809" y2="88.933" xlink:href="#_規グラデーションスウォッチ_9"/>
    <linearGradient id="_規グラデーションスウォッチ_9-47" data-name="新規グラデーションスウォッチ 9" x1="189.609" y1="88.933" x2="194.586" y2="88.933" xlink:href="#_規グラデーションスウォッチ_9"/>
    <linearGradient id="_規グラデーションスウォッチ_9-48" data-name="新規グラデーションスウォッチ 9" x1="189.832" y1="88.933" x2="194.363" y2="88.933" xlink:href="#_規グラデーションスウォッチ_9"/>
    <linearGradient id="_規グラデーションスウォッチ_9-49" data-name="新規グラデーションスウォッチ 9" x1="175.932" y1="89.232" x2="185.37" y2="89.232" gradientTransform="translate(-3.501 -.299)" xlink:href="#_規グラデーションスウォッチ_9"/>
    <linearGradient id="_規グラデーションスウォッチ_9-50" data-name="新規グラデーションスウォッチ 9" x1="176.155" y1="89.232" x2="185.147" y2="89.232" gradientTransform="translate(-3.501 -.299)" xlink:href="#_規グラデーションスウォッチ_9"/>
    <linearGradient id="_規グラデーションスウォッチ_9-51" data-name="新規グラデーションスウォッチ 9" x1="176.378" y1="89.232" x2="184.924" y2="89.232" gradientTransform="translate(-3.501 -.299)" xlink:href="#_規グラデーションスウォッチ_9"/>
    <linearGradient id="_規グラデーションスウォッチ_9-52" data-name="新規グラデーションスウォッチ 9" x1="176.601" y1="89.232" x2="184.701" y2="89.232" gradientTransform="translate(-3.501 -.299)" xlink:href="#_規グラデーションスウォッチ_9"/>
    <linearGradient id="_規グラデーションスウォッチ_9-53" data-name="新規グラデーションスウォッチ 9" x1="176.824" y1="89.232" x2="184.478" y2="89.232" gradientTransform="translate(-3.501 -.299)" xlink:href="#_規グラデーションスウォッチ_9"/>
    <linearGradient id="_規グラデーションスウォッチ_9-54" data-name="新規グラデーションスウォッチ 9" x1="177.047" y1="89.232" x2="184.255" y2="89.232" gradientTransform="translate(-3.501 -.299)" xlink:href="#_規グラデーションスウォッチ_9"/>
    <linearGradient id="_規グラデーションスウォッチ_9-55" data-name="新規グラデーションスウォッチ 9" x1="177.27" y1="89.232" x2="184.032" y2="89.232" gradientTransform="translate(-3.501 -.299)" xlink:href="#_規グラデーションスウォッチ_9"/>
    <linearGradient id="_規グラデーションスウォッチ_9-56" data-name="新規グラデーションスウォッチ 9" x1="177.493" y1="89.232" x2="183.809" y2="89.232" gradientTransform="translate(-3.501 -.299)" xlink:href="#_規グラデーションスウォッチ_9"/>
    <linearGradient id="_規グラデーションスウォッチ_9-57" data-name="新規グラデーションスウォッチ 9" x1="177.716" y1="89.232" x2="183.586" y2="89.232" gradientTransform="translate(-3.501 -.299)" xlink:href="#_規グラデーションスウォッチ_9"/>
    <linearGradient id="_規グラデーションスウォッチ_9-58" data-name="新規グラデーションスウォッチ 9" x1="177.94" y1="89.232" x2="183.363" y2="89.232" gradientTransform="translate(-3.501 -.299)" xlink:href="#_規グラデーションスウォッチ_9"/>
    <linearGradient id="_規グラデーションスウォッチ_9-59" data-name="新規グラデーションスウォッチ 9" x1="178.163" y1="89.232" x2="183.139" y2="89.232" gradientTransform="translate(-3.501 -.299)" xlink:href="#_規グラデーションスウォッチ_9"/>
    <linearGradient id="_規グラデーションスウォッチ_9-60" data-name="新規グラデーションスウォッチ 9" x1="178.386" y1="89.232" x2="182.916" y2="89.232" gradientTransform="translate(-3.501 -.299)" xlink:href="#_規グラデーションスウォッチ_9"/>
    <linearGradient id="_称未設定グラデーション_49" data-name="名称未設定グラデーション 49" x1="984.142" y1="219.497" x2="984.142" y2=".338" gradientTransform="translate(1081.295) rotate(-180) scale(1 -1)" gradientUnits="userSpaceOnUse">
      <stop offset="0" stop-color="#e79274"/>
      <stop offset="1" stop-color="#f4e7ce"/>
    </linearGradient>
    <linearGradient id="_称未設定グラデーション_49-2" data-name="名称未設定グラデーション 49" x1="771.809" y1="220.932" x2="771.809" y2=".338" gradientTransform="translate(-449.909)" xlink:href="#_称未設定グラデーション_49"/>
    <linearGradient id="_称未設定グラデーション_14" data-name="名称未設定グラデーション 14" x1="135.257" y1="89.198" x2="194.154" y2="89.198" gradientTransform="matrix(1, 0, 0, 1, 0, 0)" gradientUnits="userSpaceOnUse">
      <stop offset="0" stop-color="#f2dec5" stop-opacity="0"/>
      <stop offset=".32" stop-color="#cc827b" stop-opacity=".164"/>
      <stop offset=".599" stop-color="#b64a4e" stop-opacity=".264"/>
      <stop offset=".803" stop-color="#ae373e" stop-opacity=".3"/>
    </linearGradient>
  </defs>
  <g id="_1" data-name="01">
    <g>
      <rect class="cls-13" width="411.711" height="255.328"/>
      <path class="cls-7" d="M136.535,201.647c.853-.213,34.563-19.841,66.992-19.841s70.832,22.615,70.832,22.615l2.347-94.087s-144.864,.213-144.864,1.067,4.694,90.247,4.694,90.247Z"/>
      <path class="cls-4" d="M106.216,.338c.588,38.433,6.293,136.864,21.891,145.066,20.695,10.881,29.229-8.747,29.229-8.747,0,0-3.236-8.618,.396-8.702,2.723-.063,4.932,3.968,5.527,4.827s4.852,8.525,6.608,8.381c1.627-.133,2.473-3.574,3.438-4.657,1.214-1.362,2.476-5.303,4.672-5.823,1.038-.246,2.027,.4,3.029,1.939,0,0,1.343,2.601,3.158,2.541,2.4-.08,3.212-2.027,3.686-3.12s1.351-3.223,3.327-3.227c2.24-.004,3.094,2.907,3.254,3.227,.16,.32,1.068,3.242,3.6,3.334,2.96,.107,3.787-2.72,4.107-3.547s1.173-3.048,3.174-3.017,2.921,1.921,3.787,3.284c.552,.869,1.334,2.476,2.747,2.534,1.973,.08,2.827-2.347,3.147-2.96,.32-.613,1.28-2.48,2.987-2.48s2.8,1.2,3.494,2.88c.392,.949,1.253,3.494,3.974,3.387,2.72-.107,2.877-1.948,3.014-2.48,.293-1.147,.853-2.396,2.156-2.503,3.776-.309,4.193,6.523,7.521,7.628,3.749,1.245,9.712,.037,10.163,.527l1.097-15.528s3.966-6.012,11.578-3.173c22.068,8.232,29.899-74.624,39.978-119.59"/>
      <g class="cls-72">
        <ellipse class="cls-19" cx="206.179" cy="89.933" rx="4.719" ry="42.27"/>
        <ellipse class="cls-8" cx="206.179" cy="89.933" rx="4.496" ry="41.815"/>
        <ellipse class="cls-61" cx="206.179" cy="89.933" rx="4.273" ry="41.359"/>
        <ellipse class="cls-66" cx="206.179" cy="89.933" rx="4.05" ry="40.904"/>
        <ellipse class="cls-51" cx="206.179" cy="89.933" rx="3.827" ry="40.449"/>
        <ellipse class="cls-41" cx="206.179" cy="89.933" rx="3.604" ry="39.994"/>
        <ellipse class="cls-56" cx="206.179" cy="89.933" rx="3.381" ry="39.539"/>
        <ellipse class="cls-46" cx="206.179" cy="89.933" rx="3.158" ry="39.083"/>
        <ellipse class="cls-36" cx="206.179" cy="89.933" rx="2.935" ry="38.628"/>
        <ellipse class="cls-22" cx="206.179" cy="89.933" rx="2.712" ry="38.173"/>
        <ellipse class="cls-29" cx="206.179" cy="89.933" rx="2.488" ry="37.718"/>
        <ellipse class="cls-69" cx="206.179" cy="89.933" rx="2.265" ry="37.263"/>
      </g>
      <g class="cls-72">
        <ellipse class="cls-17" cx="219.961" cy="88.933" rx="4.719" ry="42.27"/>
        <ellipse class="cls-10" cx="219.961" cy="88.933" rx="4.496" ry="41.815"/>
        <ellipse class="cls-58" cx="219.961" cy="88.933" rx="4.273" ry="41.359"/>
        <ellipse class="cls-63" cx="219.961" cy="88.933" rx="4.05" ry="40.904"/>
        <ellipse class="cls-47" cx="219.961" cy="88.933" rx="3.827" ry="40.449"/>
        <ellipse class="cls-37" cx="219.961" cy="88.933" rx="3.604" ry="39.994"/>
        <ellipse class="cls-55" cx="219.961" cy="88.933" rx="3.381" ry="39.539"/>
        <ellipse class="cls-42" cx="219.961" cy="88.933" rx="3.158" ry="39.083"/>
        <ellipse class="cls-35" cx="219.961" cy="88.933" rx="2.935" ry="38.628"/>
        <ellipse class="cls-23" cx="219.961" cy="88.933" rx="2.712" ry="38.173"/>
        <ellipse class="cls-30" cx="219.961" cy="88.933" rx="2.488" ry="37.718"/>
        <ellipse class="cls-70" cx="219.961" cy="88.933" rx="2.265" ry="37.263"/>
      </g>
      <g class="cls-72">
        <ellipse class="cls-18" cx="237.393" cy="88.933" rx="42.27" ry="4.719" transform="translate(126.293 316.795) rotate(-84.544)"/>
        <ellipse class="cls-11" cx="237.393" cy="88.933" rx="41.815" ry="4.496" transform="translate(126.293 316.795) rotate(-84.544)"/>
        <ellipse class="cls-57" cx="237.393" cy="88.933" rx="41.359" ry="4.273" transform="translate(126.293 316.795) rotate(-84.544)"/>
        <ellipse class="cls-62" cx="237.393" cy="88.933" rx="40.904" ry="4.05" transform="translate(126.293 316.795) rotate(-84.544)"/>
        <ellipse class="cls-48" cx="237.393" cy="88.933" rx="40.449" ry="3.827" transform="translate(126.293 316.795) rotate(-84.544)"/>
        <ellipse class="cls-39" cx="237.393" cy="88.933" rx="39.994" ry="3.604" transform="translate(126.293 316.795) rotate(-84.544)"/>
        <ellipse class="cls-53" cx="237.393" cy="88.933" rx="39.539" ry="3.381" transform="translate(126.293 316.795) rotate(-84.544)"/>
        <ellipse class="cls-45" cx="237.393" cy="88.933" rx="39.083" ry="3.158" transform="translate(126.293 316.795) rotate(-84.544)"/>
        <ellipse class="cls-34" cx="237.393" cy="88.933" rx="38.628" ry="2.935" transform="translate(126.293 316.795) rotate(-84.544)"/>
        <ellipse class="cls-26" cx="237.393" cy="88.933" rx="38.173" ry="2.712" transform="translate(126.293 316.795) rotate(-84.544)"/>
        <ellipse class="cls-28" cx="237.393" cy="88.933" rx="37.718" ry="2.488" transform="translate(126.293 316.795) rotate(-84.544)"/>
        <ellipse class="cls-68" cx="237.393" cy="88.933" rx="37.263" ry="2.265" transform="translate(126.293 316.795) rotate(-84.544)"/>
      </g>
      <g class="cls-72">
        <ellipse class="cls-16" cx="192.098" cy="88.933" rx="4.719" ry="42.27"/>
        <ellipse class="cls-9" cx="192.098" cy="88.933" rx="4.496" ry="41.815"/>
        <ellipse class="cls-60" cx="192.098" cy="88.933" rx="4.273" ry="41.359"/>
        <ellipse class="cls-65" cx="192.098" cy="88.933" rx="4.05" ry="40.904"/>
        <ellipse class="cls-50" cx="192.098" cy="88.933" rx="3.827" ry="40.449"/>
        <ellipse class="cls-40" cx="192.098" cy="88.933" rx="3.604" ry="39.994"/>
        <ellipse class="cls-52" cx="192.098" cy="88.933" rx="3.381" ry="39.539"/>
        <ellipse class="cls-44" cx="192.098" cy="88.933" rx="3.158" ry="39.083"/>
        <ellipse class="cls-33" cx="192.098" cy="88.933" rx="2.935" ry="38.628"/>
        <ellipse class="cls-25" cx="192.098" cy="88.933" rx="2.712" ry="38.173"/>
        <ellipse class="cls-27" cx="192.098" cy="88.933" rx="2.488" ry="37.718"/>
        <ellipse class="cls-67" cx="192.098" cy="88.933" rx="2.265" ry="37.263"/>
      </g>
      <g class="cls-72">
        <ellipse class="cls-15" cx="177.15" cy="88.933" rx="4.719" ry="42.27" transform="translate(-7.02 15.635) rotate(-4.955)"/>
        <ellipse class="cls-12" cx="177.15" cy="88.933" rx="4.496" ry="41.815" transform="translate(-7.02 15.635) rotate(-4.955)"/>
        <ellipse class="cls-59" cx="177.15" cy="88.933" rx="4.273" ry="41.359" transform="translate(-7.02 15.635) rotate(-4.955)"/>
        <ellipse class="cls-64" cx="177.15" cy="88.933" rx="4.05" ry="40.904" transform="translate(-7.02 15.635) rotate(-4.955)"/>
        <ellipse class="cls-49" cx="177.15" cy="88.933" rx="3.827" ry="40.449" transform="translate(-7.02 15.635) rotate(-4.955)"/>
        <ellipse class="cls-38" cx="177.15" cy="88.933" rx="3.604" ry="39.994" transform="translate(-7.02 15.635) rotate(-4.955)"/>
        <ellipse class="cls-54" cx="177.15" cy="88.933" rx="3.381" ry="39.539" transform="translate(-7.02 15.635) rotate(-4.955)"/>
        <ellipse class="cls-43" cx="177.15" cy="88.933" rx="3.158" ry="39.083" transform="translate(-7.02 15.635) rotate(-4.955)"/>
        <ellipse class="cls-32" cx="177.15" cy="88.933" rx="2.935" ry="38.628" transform="translate(-7.02 15.635) rotate(-4.955)"/>
        <ellipse class="cls-24" cx="177.15" cy="88.933" rx="2.712" ry="38.173" transform="translate(-7.02 15.635) rotate(-4.955)"/>
        <ellipse class="cls-31" cx="177.15" cy="88.933" rx="2.488" ry="37.718" transform="translate(-7.02 15.635) rotate(-4.955)"/>
        <ellipse class="cls-71" cx="177.15" cy="88.933" rx="2.265" ry="37.263" transform="translate(-7.02 15.635) rotate(-4.955)"/>
      </g>
      <path class="cls-3" d="M137.279,43.547c14.242,18.168,34.598,30.075,40.568,34.969,2.868,2.351,18.41,14.068,15.747,32.473-1.874,12.953-12.655,18.588-12.655,18.588,0,0-9.655,5.084-13.296,6.704-1.473,.655,3.007-.501,3.007-.501,0,0,3.073-2.258,4.424-1.289,1.481,1.062,2.046,1.992-.289,8.463-.522,1.447-1.645,11.794-1.929,20.328-.285,8.534-1.7,9.845-4.118,13.259-2.418,3.414-3.598,10.994-4.944,14.16-3.284,7.723-9.224,15.822-23.858,21.802-7.807,3.19-60.088,19.244-139.534-11.762V.338l123.749,.319c2.02,11.567,1.932,28.61,13.126,42.89Z"/>
      <path class="cls-6" d="M124.153,.657c2.02,11.567,1.932,28.61,13.126,42.89,14.242,18.168,34.598,30.075,40.568,34.969,2.868,2.351,18.41,14.068,15.747,32.473-1.874,12.953-12.655,18.588-12.655,18.588,0,0-9.655,5.084-13.296,6.704-1.473,.655,3.007-.501,3.007-.501,0,0,3.073-2.258,4.424-1.289,1.481,1.062,2.046,1.992-.289,8.463-.522,1.447-1.645,11.794-1.929,20.328-.285,8.534-1.7,9.845-4.118,13.259-2.418,3.414-3.598,10.994-4.944,14.16-3.284,7.723-9.224,15.822-23.858,21.802-7.807,3.19-60.088,19.244-139.534-11.762"/>
      <path class="cls-1" d="M271.504,43.547c-10.542,17.627-17.177,24.521-19.168,27.65-1.991,3.129-17.129,18.258-15.705,42.47,.453,7.705,3.077,12.425,3.077,12.425,0,0,4.811,9.689,1.431,10.19-1.595,.236-3.007-.501-3.007-.501,0,0-3.073-2.258-4.424-1.289-1.481,1.062-2.046,1.992,.289,8.463,.522,1.447,1.645,11.794,1.929,20.328,.285,8.534,1.7,9.845,4.118,13.259,2.418,3.414,3.598,10.994,4.944,14.16,3.284,7.723,11.292,16.265,25.925,22.245,7.807,3.19,66.502,21.899,140.467-12.204V.338l-126.749,.319c-2.02,11.567-3.812,27.318-13.126,42.89Z"/>
      <path class="cls-6" d="M284.63,.657c-2.02,11.567-3.812,27.318-13.126,42.89-10.542,17.627-17.177,24.521-19.168,27.65-1.991,3.129-17.129,18.258-15.705,42.47,.453,7.705,3.077,12.425,3.077,12.425,0,0,4.811,9.689,1.431,10.19-1.595,.236-3.007-.501-3.007-.501,0,0-3.073-2.258-4.424-1.289-1.481,1.062-2.046,1.992,.289,8.463,.522,1.447,1.645,11.794,1.929,20.328,.285,8.534,1.7,9.845,4.118,13.259,2.418,3.414,3.598,10.994,4.944,14.16,3.284,7.723,11.292,16.265,25.925,22.245,7.807,3.19,66.502,21.899,140.467-12.204"/>
    </g>
    <g class="cls-73">
      <path class="cls-5" d="M248.291,148.817c.139-8.206,9.237-23.054,11.55-34.025,1.819-8.627,2.014-16.217,3.07-26.305,1.021-9.758,.037-12.143,2.8-18.711,2.763-6.568,15.195-20.759,19.879-37.266,2.93-10.326,5.894-24.545,6.14-31.628"/>
      <path class="cls-5" d="M328.598,199.807s-21.686,7.947-34.175,10.044c-11.392,1.912-16.039,2.747-31.833-5.108-13.186-6.558-15.726-25.237-15.726-28.48,0-3.243,1.363-27.466,1.528-30.493,.165-3.027,2.793-5.264-4.733-20.652-5.229-10.692-3.057-25.497,2.045-37.478,2.072-4.866,6.426-11.501,12.724-18.199,8.165-8.683,22.008-25.606,25.187-43.847,0,0,3.066-12.792,4.488-24.479"/>
      <path class="cls-5" d="M265.229,71.115l-8.299,13.702,1.032,6.019-.403,6.717,.011,4.49-3.347,4.298s4.631,5.261,5.207,10.342"/>
      <line class="cls-5" x1="258.427" y1="69.441" x2="259.928" y2="80.416"/>
      <path class="cls-5" d="M252.569,75.61l4.361,9.207-3.388,9.168s.152,5.963-1.347,10.804c0,0,.832,6.417-2.711,11.399l-1.093,5.677,3.561,7.403"/>
      <line class="cls-5" x1="261.929" y1="94.79" x2="257.962" y2="90.836"/>
      <path class="cls-5" d="M247.17,85.04s.233,5.391,1.221,6.581,2.745,1.525,2.745,1.525l2.405,.84,1.245,2.531,2.773,1.037s2.689,.947,4.156,4.082"/>
      <path class="cls-5" d="M244.337,91.808s3.753,2.717,3.424,5.852c-.329,3.135-5.345,7.516-7.257,8.919"/>
      <path class="cls-5" d="M251.137,93.145s.707,4.171-3.352,3.37"/>
      <path class="cls-5" d="M250.486,95.968s-1.049,5.983,2.732,9.659c0,0,3.436,1.892,2.777,4.801-.659,2.909-4.063,5.179-7.603,4.53s-7.888,.841-7.888,.841"/>
      <path class="cls-5" d="M243.156,104.346s5.358-4.013,8.028-3.295"/>
      <path class="cls-5" d="M240.504,106.58c.703,.625,4.751,4.902,3.639,8.82"/>
      <path class="cls-5" d="M252.195,104.789s-3.772,7.221-8.426,6.528"/>
      <path class="cls-5" d="M257.57,102.042s2.098,2.082,2.99,8.916"/>
      <path class="cls-5" d="M257.973,121.531s-4.416-7.162-5.653-7.013l-.546,21.879"/>
      <line class="cls-5" x1="243.769" y1="124.107" x2="248.391" y2="121.865"/>
      <path class="cls-5" d="M327.713,196.122s-24.357,6.1-40.161,6.879c-10.085,.497-21.503-5.644-25.403-9.638-7.018-7.188-13.002-13.154-14.758-29.085"/>
      <path class="cls-5" d="M277.25,204.969c6.414,2.207,11.1,0,11.1,0"/>
      <path class="cls-5" d="M274.868,207.394s4.924,1.845,8.052,0c3.85-2.271,18.912-5.846,18.912-5.846"/>
      <path class="cls-20" d="M267.321,206.729c1.275-.775,2.752-2.956,2.402-8.183,.066,.362,6.175,11.265,5.899,10.751"/>
      <path class="cls-20" d="M279.793,202.246c-.627,2.589-2.33,3.919-7.203,1.302"/>
      <path class="cls-20" d="M282.921,207.394s16.116-.817,18.092,1.054"/>
      <path class="cls-20" d="M252.483,181.551c-.11,1.052,2.432,13.215,2.083,15.866"/>
      <path class="cls-20" d="M248.333,184.862s3.773,2.014,5.578,5.872"/>
      <path class="cls-20" d="M257.973,188.978s.225,6.855,1.756,9.067c1.217,1.759,2.033,.276,1.632,5.503"/>
      <line class="cls-20" x1="254.566" y1="197.417" x2="258.942" y2="196.11"/>
      <line class="cls-20" x1="257.382" y1="201.098" x2="259.729" y2="198.045"/>
      <path class="cls-20" d="M260.898,201.097s2.815-.636,4.133-.54,2.651,5.302,2.651,5.302"/>
      <line class="cls-20" x1="262.15" y1="193.362" x2="265.031" y2="200.557"/>
    </g>
    <g id="_1-2" data-name="01">
      <g/>
      <g>
        <path class="cls-21" d="M117.362,2.299c3.523,32.506,20.989,71.086,20.989,71.086,0,0,4.697,8.84,3.637,18.514-1.06,9.674,.409,19.131,4.687,27.261,5.42,10.298,9.329,16.289,9.51,24.408"/>
        <path class="cls-21" d="M121.14,2.299c0,.856,2.233,40.663,23.835,58.578,8.046,6.673,25.431,16.012,27.784,18.794s37.402,36.067-.131,49.599c-11.561,4.168-15.836,7.353-16.667,9.182-1.242,2.734,5.794,31.903,5.794,35.112,0,3.209-3.122,27.264-16.814,32.386-13.692,5.123-26.199,6.2-41.527,1.266-9.188-2.958-22.92-7.409-22.92-7.409"/>
        <path class="cls-21" d="M138.351,73.385l15.984,9.394-11.412,11.124,9.798-.13,3.278,11.801s-9.212,7.295-9.961,12.322"/>
        <line class="cls-21" x1="149.052" y1="63.866" x2="148.26" y2="79.209"/>
        <path class="cls-21" d="M160.282,71.17l-5.947,11.61,5.433,7.797c-.356,.227,9.807,11.828,12.362,16.23,0,0-8.233,6.801-5.549,11.999l1.487,6.254-11.585,4.172"/>
        <line class="cls-21" x1="141.622" y1="98.664" x2="148.26" y2="79.209"/>
        <path class="cls-21" d="M166.695,75.236s-5.643,14.164-6.927,15.341-7.047,3.197-7.047,3.197c0,0-7.963,8.541-10.091,11.293"/>
        <path class="cls-21" d="M174.341,82.084s1.423,11.887,1.851,14.989,12.149,10.43,14.634,11.819"/>
        <path class="cls-21" d="M161.394,93.461s9.524,4.405,14.797,3.612"/>
        <path class="cls-21" d="M162.405,93.903s-1.493,8.035-6.405,11.672c0,0,1.304,3.815,2.16,6.693s8.423,6.538,8.423,6.538c4.736,.1,15.163,.646,18.006,3.781"/>
        <path class="cls-21" d="M176.192,97.073c-.027,.404-.63,9.574-4.061,9.733"/>
        <path class="cls-21" d="M188.781,108.686c-2.127-.142-7.75,2.668-4.68,13.447"/>
        <path class="cls-21" d="M172.13,106.807s8.792,11.678,12.458,14.814"/>
        <path class="cls-21" d="M155.999,105.575s-9.789-.543-12.336,6.232"/>
        <path class="cls-21" d="M149.257,123.313c3.415-.606,7.516-9.827,8.902-11.045l-2.198,26.183"/>
        <line class="cls-21" x1="176.192" y1="127.884" x2="168.069" y2="125.06"/>
        <path class="cls-21" d="M81.378,196.122s10.53,2.389,25.88,4.988c16.668,2.822,19.06,1.651,25.773-.012,14.975-3.708,27.574-20.238,27.313-35.644"/>
        <path class="cls-21" d="M117.125,204.881c-8.557,4.192-21.18-4.835-21.18-4.835"/>
        <path class="cls-21" d="M134.179,207.522s-4.17,.28-10.645-1.311c-4.021-.988-15.455-4.464-15.455-4.464"/>
        <path class="cls-21" d="M141.33,207.18s-3.503,.448-2.077-7.956c0,0-4.101,4.707-5.506,9.588"/>
        <path class="cls-21" d="M127.907,203.019s3.097,3.436,7.963,.53"/>
        <path class="cls-21" d="M127.078,207.18s-16.082-.818-18.649,1.034"/>
        <path class="cls-21" d="M154.909,183.647c.143,1.041-1.252,6.957-3.256,8.989"/>
        <path class="cls-21" d="M158.479,187.573s-3.157-1.106-5.503,2.711"/>
        <path class="cls-21" d="M146.942,193.362s2.671,4.931,.675,6.403c-1.997,1.472-6.367,1.791-5.846,6.964"/>
        <line class="cls-21" x1="155.944" y1="194.483" x2="149.59" y2="197.66"/>
        <line class="cls-21" x1="151.286" y1="200.547" x2="149.087" y2="199.224"/>
        <path class="cls-21" d="M148.589,198.045s-3.542-1.376-5.253-1.281-3.973,8.696-3.973,8.696"/>
        <line class="cls-21" x1="151.118" y1="189.484" x2="148.95" y2="198.547"/>
      </g>
      <g>
        <g>
          <ellipse class="cls-14" cx="143.968" cy="58.999" rx="4.1" ry="4.704" transform="translate(3.147 125.16) rotate(-47.449)"/>
          <path class="cls-14" d="M138.464,54.929s1.176,.888,1.219,3.081l3.241-3.227s-1.707,.448-3.542-.934c-1.835-1.382-2.336-.405-.918,1.079Z"/>
          <path class="cls-14" d="M148.439,64.439s-1.109-1.389-3.114-1.253l2.921-3.039s-.2,1.914,1.104,3.132,.194,1.998-.912,1.16Z"/>
        </g>
        <g>
          <ellipse class="cls-14" cx="159.438" cy="70.806" rx="3.212" ry="3.427" transform="translate(25.268 182.306) rotate(-63.673)"/>
          <path class="cls-14" d="M154.451,68.274s1.577,.901,1.639,2.843l2.07-3.385s-1.079,.587-2.757-.502-2.019-.008-.951,1.044Z"/>
          <path class="cls-14" d="M163.781,72.496s-.905-.167-.957-1.524l-2,2.868s1.468-.582,2.957,.34c1.488,.923,2.177-.056,0-1.685Z"/>
        </g>
        <g>
          <ellipse class="cls-14" cx="188.122" cy="103.316" rx="4.493" ry="4.92" transform="translate(-22.432 61.711) rotate(-17.598)"/>
          <path class="cls-14" d="M184.976,97.522s.751,1.126,0,2.106l3.999-1.053s-1.833-.411-2.876-1.989-1.818-.776-1.123,.936Z"/>
          <path class="cls-14" d="M189.201,109.93s.182-1.437-1.446-1.775l3.874-1.552s-1.037,.358-.983,3.326c.053,2.968-.909,3.262-1.444,0Z"/>
        </g>
        <g>
          <circle class="cls-14" cx="171.533" cy="79.002" r="3.396"/>
          <path class="cls-14" d="M167.561,76.667s.71,.709,.581,2.172l1.974-2.923s-.573,.421-1.643-.31-2.802-.703-.912,1.062Z"/>
          <path class="cls-14" d="M174.341,82.084s-.554-.308-1.588,.087l2.166-2.921s-.406,1.339,.182,1.91,1.414,2.226-.761,.925Z"/>
        </g>
        <g>
          <ellipse class="cls-14" cx="180.9" cy="88.966" rx="3.19" ry="3.552" transform="translate(-17.627 123.996) rotate(-36.195)"/>
          <path class="cls-14" d="M177.865,86.202s.351,.282-.006,1.076l2.541-1.737s-.854,.218-1.599-.456c-.563-.51-2.108-.974-.935,1.117Z"/>
          <path class="cls-14" d="M182.958,92.847s-.241-.606-1.223-.489l2.313-1.973s-.375,.872,.108,1.637,1.027,3-1.198,.825Z"/>
        </g>
        <g>
          <circle class="cls-14" cx="148.147" cy="99.118" r="2.822"/>
          <path class="cls-14" d="M149.724,95.921s-.294,.509-1.257,.375l2.408,2.105s-.345-1.143,.094-1.677,1.242-2.594-1.245-.802Z"/>
          <path class="cls-14" d="M144.941,101.189c.163-.19,.484-.584,.445-1.496l2.761,2.247s-1.739-.216-2.515,.64c-.881,.972-2.185,.348-.691-1.391Z"/>
        </g>
        <g>
          <circle class="cls-14" cx="157.447" cy="111.424" r="3.507"/>
          <path class="cls-14" d="M155.634,106.807s.478,1.247-.376,1.88l3.231-.61s-1.071-.469-1.615-1.913-1.293-3.18-1.239,.643Z"/>
        </g>
        <g>
          <circle class="cls-14" cx="166.582" cy="118.297" r="3.836"/>
          <path class="cls-14" d="M164.556,115.042s.919-.371,1.588-1.87,1.898-1.91,1.31,.436c-.214,.854,.494,1.053,.869,1.273l-3.767,.161Z"/>
          <path class="cls-14" d="M166.892,123.091s-.037-.647-1.097-1.04c0,0,3.262-.821,3.189-.764s-1.035,.445-.808,1.3-.09,2.991-1.284,.504Z"/>
        </g>
        <g>
          <circle class="cls-14" cx="156.743" cy="128.076" r="3.601"/>
          <path class="cls-14" d="M156.276,123.492s-.058,.73-1.5,1.568l4.445,.404s-1.555-1.17-1.501-1.972-.401-3.637-1.444,0Z"/>
          <path class="cls-14" d="M155.42,133.44s.237-1.54-.644-2.349c0,0,3.507,.245,3.383,.296s-1.269,.396-1.416,2.161-1.346,2.754-1.323-.107Z"/>
        </g>
        <g>
          <circle class="cls-14" cx="176.316" cy="127.642" r="3.562"/>
          <path class="cls-14" d="M180.102,125.06s-.611,.539-1.576-.207l1.286,3.458s.129-1.53,1.011-1.958,3.262-2.72-.722-1.293Z"/>
          <path class="cls-14" d="M171.946,130.258s1.08-.46,2.101,.131l-1.279-3.049s-.1,1.013-1.276,1.524-2.781,2.222,.455,1.393Z"/>
        </g>
        <g>
          <circle class="cls-14" cx="176.797" cy="113.009" r="5.068"/>
          <path class="cls-14" d="M180.432,118.297c-.123-.104-.474-.965-2.073-.466l3.171-3.01s-.84,1.618,.15,2.761,1.881,3.349-1.248,.715Z"/>
          <path class="cls-14" d="M172.321,108.356s.589,.99,.109,2.082l3.353-2.395s-1.403,.152-2.499-.784-2.353-2.22-.963,1.096Z"/>
        </g>
        <g>
          <ellipse class="cls-14" cx="175.552" cy="97.009" rx="4.267" ry="4.609"/>
          <path class="cls-14" d="M174.727,91.348s-.084,1.062-1.098,1.547l4.219,.23s-1.516-.841-1.783-2.285-1.096-3.049-1.337,.508Z"/>
          <path class="cls-14" d="M174.341,103.316s.297-1.427-.712-2.195h3.849s-1.237,.736-1.739,2.421-1.784,2.113-1.397,0"/>
        </g>
        <g>
          <ellipse class="cls-14" cx="163.781" cy="95.972" rx="4.065" ry="4.386" transform="translate(-23.835 124.869) rotate(-39.125)"/>
          <path class="cls-14" d="M159.699,91.937s.685,1.075,.115,2.356l3.709-2.58s-2.139,.144-2.915-.899-2.113-2.968-.909,1.123Z"/>
          <path class="cls-14" d="M167.454,101.376c-.08-.066-.902-1.227-2.898-1.175l3.232-2.671s-.575,1.386,.361,2.563c1.269,1.595,2.54,3.969-.695,1.283Z"/>
        </g>
        <g>
          <circle class="cls-14" cx="150.411" cy="86.596" r="3.516"/>
          <path class="cls-14" d="M146.675,89.197s.513-.377,.323-1.76l2.668,2.594s-1.333-.474-2.135,.302-1.925,.725-.856-1.135Z"/>
          <path class="cls-14" d="M153.12,82.916s-.619,.669-1.901,.258l2.624,2.659s-.509-1.171,.293-1.919,1.685-3.253-1.016-.998Z"/>
        </g>
        <g>
          <ellipse class="cls-14" cx="140.93" cy="80.629" rx="3.575" ry="3.872" transform="translate(-15.535 37.257) rotate(-14.281)"/>
          <path class="cls-14" d="M138.706,76.025s.451,.894-.657,2.185l3.985-1.201s-1.38-.286-1.993-1.639-2.352-4.159-1.336,.654Z"/>
          <path class="cls-14" d="M141.22,85.965s-.33-1.305-1.395-1.718l3.655-.801s-.884,.843-.85,2.18-.608,3.647-1.41,.339Z"/>
        </g>
        <g>
          <ellipse class="cls-14" cx="163.45" cy="83.116" rx="3.547" ry="3.102" transform="translate(21.277 198.922) rotate(-66.118)"/>
          <path class="cls-14" d="M160.824,87.097s.452-.802-.19-2.072l3.147,1.498s-1.124,.105-1.573,1.142-2.103,1.545-1.384-.567Z"/>
          <path class="cls-14" d="M164.485,78.646s-.504,.853-1.629,1.135l3.528,1.689s-.829-1.337-.508-2.468,1.096-4.126-1.391-.356Z"/>
        </g>
        <g>
          <ellipse class="cls-14" cx="148.706" cy="71.372" rx="4.065" ry="4.386"/>
          <path class="cls-14" d="M148.26,66.024s-.573,.864-1.365,1.422l4.122,.32s-1.401-1.02-1.454-1.742-.386-4.091-1.303,0Z"/>
          <path class="cls-14" d="M147.633,76.802s.007-1.047-.983-1.647l3.979,.081s-1.499,.683-1.576,1.672-1.05,2.783-1.42-.106Z"/>
        </g>
      </g>
      <path class="cls-2" d="M138.502,44.016s6.565,12.646,28.525,26.956c21.96,14.31,31.742,27.598,25.052,45.179-6.69,17.581-25.789,18.09-28.845,19.133s-12.459-3.299-17.456-13.678c-4.997-10.38-15.968-88.571-7.276-77.59Z"/>
    </g>
  </g>
</svg>