<?xml version="1.0" encoding="UTF-8"?>
<svg id="_イヤー_1" data-name="レイヤー 1" xmlns="http://www.w3.org/2000/svg" width="168.981mm" height="56.797mm" xmlns:xlink="http://www.w3.org/1999/xlink" viewBox="0 0 479 161">
  <defs>
    <style>
      .cls-1 {
        fill: url(#_称未設定グラデーション_67-5);
      }

      .cls-2 {
        fill: url(#_称未設定グラデーション_67-6);
      }

      .cls-3 {
        fill: url(#_称未設定グラデーション_67-3);
      }

      .cls-4 {
        fill: url(#_称未設定グラデーション_67-4);
      }

      .cls-5 {
        fill: url(#_称未設定グラデーション_67-2);
      }

      .cls-6 {
        fill: url(#_称未設定グラデーション_64-2);
      }

      .cls-7 {
        fill: url(#_称未設定グラデーション_63-2);
      }

      .cls-8 {
        fill: url(#_称未設定グラデーション_70);
      }

      .cls-9 {
        fill: url(#_称未設定グラデーション_64);
      }

      .cls-10 {
        fill: url(#_称未設定グラデーション_63);
      }

      .cls-11 {
        fill: url(#_称未設定グラデーション_67);
      }

      .cls-12 {
        stroke: #231815;
        stroke-width: 3px;
      }

      .cls-12, .cls-13, .cls-14, .cls-15, .cls-16, .cls-17, .cls-18, .cls-19, .cls-20 {
        stroke-miterlimit: 10;
      }

      .cls-12, .cls-14, .cls-15, .cls-16, .cls-17, .cls-18 {
        fill: none;
      }

      .cls-21 {
        fill: #f7f7f7;
      }

      .cls-22 {
        fill: #f2f4cb;
      }

      .cls-23 {
        fill: #036eb7;
      }

      .cls-24 {
        fill: #f29600;
      }

      .cls-25 {
        fill: #b4b4b5;
      }

      .cls-26 {
        fill: #ab1f24;
      }

      .cls-27 {
        fill: #dbdcdc;
      }

      .cls-28 {
        fill: #231815;
      }

      .cls-29 {
        fill: #41a988;
      }

      .cls-30 {
        fill: #6ec8f2;
      }

      .cls-31 {
        fill: #595757;
      }

      .cls-13 {
        fill: #2ca6e0;
        stroke: #036eb7;
        stroke-width: 1.192px;
      }

      .cls-32 {
        fill: url(#_称未設定グラデーション_119-2);
      }

      .cls-33 {
        fill: url(#_称未設定グラデーション_119-3);
      }

      .cls-34 {
        fill: url(#_称未設定グラデーション_109-2);
      }

      .cls-35 {
        fill: url(#_称未設定グラデーション_109-3);
      }

      .cls-14, .cls-15, .cls-16 {
        stroke-linecap: round;
      }

      .cls-14, .cls-16, .cls-19, .cls-20 {
        stroke: #6a3906;
      }

      .cls-15 {
        stroke: #dbdcdc;
      }

      .cls-15, .cls-16 {
        stroke-width: .5px;
      }

      .cls-17 {
        stroke: #fff;
      }

      .cls-18 {
        stroke: #c30d23;
      }

      .cls-36 {
        fill: url(#_規グラデーションスウォッチ_2);
      }

      .cls-37 {
        fill: url(#_規グラデーションスウォッチ_1);
      }

      .cls-19 {
        fill: url(#_規グラデーションスウォッチ_2-2);
      }

      .cls-19, .cls-20 {
        stroke-width: 2px;
      }

      .cls-20 {
        fill: url(#_規グラデーションスウォッチ_2-3);
      }

      .cls-38 {
        fill: url(#_称未設定グラデーション_119);
      }

      .cls-39 {
        fill: url(#_称未設定グラデーション_128);
      }

      .cls-40 {
        fill: url(#_称未設定グラデーション_104);
      }

      .cls-41 {
        fill: url(#_称未設定グラデーション_109);
      }

      .cls-42 {
        fill: url(#_規グラデーションスウォッチ_1-3);
      }

      .cls-43 {
        fill: url(#_規グラデーションスウォッチ_1-2);
      }

      .cls-44 {
        fill: url(#_規グラデーションスウォッチ_2-4);
      }

      .cls-45 {
        fill: url(#_規グラデーションスウォッチ_2-6);
      }

      .cls-46 {
        fill: url(#_規グラデーションスウォッチ_2-5);
      }
    </style>
    <linearGradient id="_称未設定グラデーション_104" data-name="名称未設定グラデーション 104" x1="144.245" y1="80.5" x2="478.5" y2="80.5" gradientTransform="matrix(1, 0, 0, 1, 0, 0)" gradientUnits="userSpaceOnUse">
      <stop offset="0" stop-color="#ffde69"/>
      <stop offset="1" stop-color="#fbcf74"/>
    </linearGradient>
    <linearGradient id="_規グラデーションスウォッチ_1" data-name="新規グラデーションスウォッチ 1" x1="105.75" y1="75.078" x2="105.75" y2="115.643" gradientTransform="matrix(1, 0, 0, 1, 0, 0)" gradientUnits="userSpaceOnUse">
      <stop offset="0" stop-color="#f5ab58"/>
      <stop offset="1" stop-color="#f9d4ca"/>
    </linearGradient>
    <linearGradient id="_規グラデーションスウォッチ_1-2" data-name="新規グラデーションスウォッチ 1" x1="87.451" y1="60.153" x2="142.462" y2="60.153" xlink:href="#_規グラデーションスウォッチ_1"/>
    <linearGradient id="_称未設定グラデーション_70" data-name="名称未設定グラデーション 70" x1="102.662" y1="160.5" x2="102.662" y2="102.078" gradientTransform="matrix(1, 0, 0, 1, 0, 0)" gradientUnits="userSpaceOnUse">
      <stop offset="0" stop-color="#c7cebb"/>
      <stop offset=".085" stop-color="#d1d7c7"/>
      <stop offset=".286" stop-color="#e5e8df"/>
      <stop offset=".499" stop-color="#f3f5f1"/>
      <stop offset=".727" stop-color="#fcfcfb"/>
      <stop offset="1" stop-color="#fff"/>
    </linearGradient>
    <linearGradient id="_規グラデーションスウォッチ_2" data-name="新規グラデーションスウォッチ 2" x1="80.083" y1="34.286" x2="156.75" y2="34.286" gradientTransform="matrix(1, 0, 0, 1, 0, 0)" gradientUnits="userSpaceOnUse">
      <stop offset="0" stop-color="#6a3906"/>
      <stop offset="1" stop-color="#946134"/>
    </linearGradient>
    <linearGradient id="_称未設定グラデーション_63" data-name="名称未設定グラデーション 63" x1="103.214" y1="57.787" x2="82.286" y2="94.035" gradientTransform="matrix(1, 0, 0, 1, 0, 0)" gradientUnits="userSpaceOnUse">
      <stop offset="0" stop-color="#fff"/>
      <stop offset="1" stop-color="#cccdcd"/>
    </linearGradient>
    <linearGradient id="_称未設定グラデーション_64" data-name="名称未設定グラデーション 64" x1="120.285" y1="124.911" x2="120.285" y2="160.43" gradientTransform="matrix(1, 0, 0, 1, 0, 0)" gradientUnits="userSpaceOnUse">
      <stop offset="0" stop-color="#3166b0"/>
      <stop offset="1" stop-color="#383c8f"/>
    </linearGradient>
    <linearGradient id="_称未設定グラデーション_64-2" data-name="名称未設定グラデーション 64" x1="115.5" y1="126.911" x2="115.5" y2="112.453" xlink:href="#_称未設定グラデーション_64"/>
    <linearGradient id="_称未設定グラデーション_67" data-name="名称未設定グラデーション 67" x1="99.937" y1="129.078" x2="99.937" y2="100.744" gradientTransform="matrix(1, 0, 0, 1, 0, 0)" gradientUnits="userSpaceOnUse">
      <stop offset="0" stop-color="#c7cebb"/>
      <stop offset="1" stop-color="#fff"/>
    </linearGradient>
    <linearGradient id="_称未設定グラデーション_67-2" data-name="名称未設定グラデーション 67" x1="121.291" y1="126.078" x2="121.291" y2="102.411" xlink:href="#_称未設定グラデーション_67"/>
    <linearGradient id="_規グラデーションスウォッチ_1-3" data-name="新規グラデーションスウォッチ 1" x1="91.501" y1="123.703" x2="91.501" y2="62.741" xlink:href="#_規グラデーションスウォッチ_1"/>
    <linearGradient id="_称未設定グラデーション_67-3" data-name="名称未設定グラデーション 67" x1="68.837" y1="160.5" x2="68.837" y2="112.453" xlink:href="#_称未設定グラデーション_67"/>
    <linearGradient id="_規グラデーションスウォッチ_2-2" data-name="新規グラデーションスウォッチ 2" x1="116.542" y1="59.432" x2="117.421" y2="59.432" xlink:href="#_規グラデーションスウォッチ_2"/>
    <linearGradient id="_規グラデーションスウォッチ_2-3" data-name="新規グラデーションスウォッチ 2" x1="135.667" y1="61.14" x2="136.667" y2="61.14" xlink:href="#_規グラデーションスウォッチ_2"/>
    <linearGradient id="_称未設定グラデーション_67-4" data-name="名称未設定グラデーション 67" x1="202.672" y1="132.328" x2="227.519" y2="132.328" xlink:href="#_称未設定グラデーション_67"/>
    <linearGradient id="_称未設定グラデーション_67-5" data-name="名称未設定グラデーション 67" x1="259.83" y1="158.821" x2="245.396" y2="133.819" xlink:href="#_称未設定グラデーション_67"/>
    <linearGradient id="_称未設定グラデーション_67-6" data-name="名称未設定グラデーション 67" x1="258.095" y1="147.112" x2="226.241" y2="91.94" xlink:href="#_称未設定グラデーション_67"/>
    <linearGradient id="_称未設定グラデーション_128" data-name="名称未設定グラデーション 128" x1="259.27" y1="143.564" x2="228.659" y2="90.544" gradientTransform="matrix(1, 0, 0, 1, 0, 0)" gradientUnits="userSpaceOnUse">
      <stop offset="0" stop-color="#9dbbc4"/>
      <stop offset="1" stop-color="#fff"/>
    </linearGradient>
    <linearGradient id="_称未設定グラデーション_109" data-name="名称未設定グラデーション 109" x1="381.09" y1="108.973" x2="338.423" y2="108.973" gradientTransform="matrix(1, 0, 0, 1, 0, 0)" gradientUnits="userSpaceOnUse">
      <stop offset="0" stop-color="#e2894c"/>
      <stop offset=".15" stop-color="#e79c65"/>
      <stop offset=".399" stop-color="#f0b78a"/>
      <stop offset=".631" stop-color="#f6caa4"/>
      <stop offset=".838" stop-color="#f9d6b4"/>
      <stop offset="1" stop-color="#fbdbba"/>
    </linearGradient>
    <linearGradient id="_称未設定グラデーション_109-2" data-name="名称未設定グラデーション 109" x1="383.885" y1="77.319" x2="332.936" y2="47.903" xlink:href="#_称未設定グラデーション_109"/>
    <linearGradient id="_規グラデーションスウォッチ_2-4" data-name="新規グラデーションスウォッチ 2" x1="395.427" y1="40.609" x2="324.673" y2="40.609" xlink:href="#_規グラデーションスウォッチ_2"/>
    <linearGradient id="_称未設定グラデーション_63-2" data-name="名称未設定グラデーション 63" x1="346.499" y1="88.768" x2="392.268" y2="88.768" xlink:href="#_称未設定グラデーション_63"/>
    <linearGradient id="_規グラデーションスウォッチ_2-5" data-name="新規グラデーションスウォッチ 2" x1="344.673" y1="47.226" x2="336.923" y2="47.226" xlink:href="#_規グラデーションスウォッチ_2"/>
    <linearGradient id="_規グラデーションスウォッチ_2-6" data-name="新規グラデーションスウォッチ 2" x1="372.934" y1="49.878" x2="362.673" y2="49.878" xlink:href="#_規グラデーションスウォッチ_2"/>
    <linearGradient id="_称未設定グラデーション_119" data-name="名称未設定グラデーション 119" x1="431.559" y1="138.511" x2="287.338" y2="138.511" gradientTransform="matrix(1, 0, 0, 1, 0, 0)" gradientUnits="userSpaceOnUse">
      <stop offset="0" stop-color="#41a988"/>
      <stop offset=".094" stop-color="#4fad8e"/>
      <stop offset=".359" stop-color="#74b89f"/>
      <stop offset=".606" stop-color="#8ec0ab"/>
      <stop offset=".828" stop-color="#9ec5b2"/>
      <stop offset="1" stop-color="#a4c7b5"/>
    </linearGradient>
    <linearGradient id="_称未設定グラデーション_109-3" data-name="名称未設定グラデーション 109" x1="391.757" y1="102.633" x2="366.851" y2="102.633" xlink:href="#_称未設定グラデーション_109"/>
    <linearGradient id="_称未設定グラデーション_119-2" data-name="名称未設定グラデーション 119" x1="381.09" y1="142.538" x2="422.711" y2="142.538" xlink:href="#_称未設定グラデーション_119"/>
    <linearGradient id="_称未設定グラデーション_119-3" data-name="名称未設定グラデーション 119" x1="375.936" y1="123.648" x2="399.173" y2="123.648" xlink:href="#_称未設定グラデーション_119"/>
  </defs>
  <rect class="cls-22" x=".5" y=".5" width="478" height="160" transform="translate(479 161) rotate(-180)"/>
  <polygon class="cls-40" points="261.189 .5 205 85.578 185.418 79.968 163.778 93.365 144.245 85.578 162.254 100.744 185.418 91.189 194.903 100.865 159.917 160.5 478.5 160.5 478.5 .5 261.189 .5"/>
  <g>
    <polygon class="cls-37" points="118.75 102.411 116.083 87.411 97.083 75.078 92.75 100.744 113.829 115.643 118.75 102.411"/>
    <path class="cls-43" d="M139.417,34.286s12.667,35.458-13.667,57.792c-5.084,4.312-15.667-1.333-15.667-1.333,0,0-25.667-22-22.333-40.333,3.333-18.333,24.333-23.667,24.333-23.667,0,0,19.376-1.799,27.333,7.542Z"/>
    <polygon class="cls-8" points="48.526 115.643 87.451 102.078 118.417 121.078 127.625 111.182 152.489 121.58 156.798 160.5 48.526 160.5 48.526 115.643"/>
    <path class="cls-36" d="M82.417,58.411l-2.333-23.667s.167-3.167,2.333-5.333,8.667-3.667,8.667-3.667c0,0,6.333-12.667,11.333-14.333s8.333-1.667,12.333,0,19.333,6.667,37,5.667c0,0-3.333,6-9.333,7.333,0,0,6.333,15,14.333,17.667,0,0-8,3.333-14.333,.333l4,10s-21-7.333-25.667-13.667l7.667,9s-18.333-6.667-24-12c0,0-2.333,9.667-11.667,13.667l-2,9h-8.333Z"/>
    <path class="cls-31" d="M109.54,92.629c.299,1.53-.733,2.782-2.292,2.782h-18.997c-1.559,0-3.079-1.252-3.378-2.782l-6.914-35.436c-.299-1.53,.733-2.782,2.292-2.782h18.997c1.559,0,3.079,1.252,3.378,2.782l6.914,35.436Z"/>
    <path class="cls-10" d="M108.54,93.629c.299,1.53-.733,2.782-2.292,2.782h-18.997c-1.559,0-3.079-1.252-3.378-2.782l-6.914-35.436c-.299-1.53,.733-2.782,2.292-2.782h18.997c1.559,0,3.079,1.252,3.378,2.782l6.914,35.436Z"/>
    <path class="cls-9" d="M113.917,124.911l-3.035,35.519h18.807s-1.637-22.811-8.605-34.352l-7.167-1.167Z"/>
    <path class="cls-6" d="M109.917,119.911c.5-.667,5.04-7.458,5.04-7.458l6.127,4.792v8.833l-7.333,.833-3.833-7Z"/>
    <polygon class="cls-11" points="84.917 106.078 92.75 100.744 114.956 112.453 109.083 129.078 84.917 106.078"/>
    <polygon class="cls-5" points="127.625 111.182 118.75 102.411 114.956 112.453 124.917 126.078 127.625 111.182"/>
    <ellipse class="cls-25" cx="88.493" cy="67.281" rx="4.344" ry="5.044" transform="translate(-1.751 132.195) rotate(-72.974)"/>
    <path class="cls-42" d="M84.917,123.703l-9.167-10.625s3.908-14.722,2.167-33.11c-.605-6.39,6.125-8.39,6.125-8.39,6.75-3.083,11.793-5.387,18.543-8.47,1.457-.53,2.201-.64,2.534,.735s-1.148,2.024-1.871,2.668l-12.832,7.901,13.145-6.297s2.73-.412,3.48,4.963-.738,9.087-.738,9.087c0,0-7.512,18.58-11.887,22.913-3.875,4.5-8.833,14.958-9.5,18.625Z"/>
    <polygon class="cls-3" points="59.143 136.476 65.859 126.659 73.104 112.453 89.149 118.413 84.917 136.476 77.417 160.5 57.417 159.968 48.526 160.5 59.143 136.476"/>
    <path class="cls-15" d="M65.859,126.659s3.222,6.181,14.49,8.116"/>
    <circle class="cls-15" cx="81.319" cy="128.814" r="1.903"/>
    <path class="cls-16" d="M135.667,46.578s-8.542,10.75-3.583,22.5l-5.292,4.5"/>
    <path class="cls-16" d="M109.083,47.203s6.895-6.75,16.676-4.25"/>
    <line class="cls-19" x1="117.421" y1="55.411" x2="116.542" y2="63.453"/>
    <line class="cls-20" x1="136.667" y1="57.453" x2="135.667" y2="64.828"/>
    <ellipse class="cls-26" cx="120.354" cy="81.64" rx="6.437" ry="3.938"/>
    <path class="cls-30" d="M148.407,53.628s5.088-5.484,8.641-3.071c3.553,2.414-.266,4.756-1.965,3.661-2.856-1.839-6.676-.591-6.676-.591Z"/>
    <path class="cls-30" d="M151.223,57.117s8.234-2.729,10.495,1.708c2.261,4.438-3.298,5.505-4.489,3.487-2.104-3.568-6.007-5.196-6.007-5.196Z"/>
  </g>
  <g>
    <polygon class="cls-4" points="202.672 105.547 202.672 123.547 223.547 159.11 227.519 144.141 202.672 105.547"/>
    <polygon class="cls-1" points="281.664 133.505 227.519 144.141 223.547 159.11 278.764 147.889 281.664 133.505"/>
    <path class="cls-2" d="M252.606,100.914c-.19,0-49.933,4.633-49.933,4.633l24.846,38.593,54.145-10.636-29.058-32.591Z"/>
    <path class="cls-39" d="M202.672,105.547l17.97,25.477s5.349,7.159,9.626,8.076l54.988-10.539s-8.056-1.935-15.083-7.943c-3.243-2.773-17.568-19.704-17.568-19.704l-49.933,4.633Z"/>
    <polygon class="cls-24" points="202.672 105.547 252.606 100.914 256.014 104.169 205.532 109.602 202.672 105.547"/>
    <g>
      <path class="cls-28" d="M233.331,122.987c.506,.889,.378,1.771-.384,2.649-.893,.875-2.191,1.447-3.898,1.716-1.958,.308-3.76,.213-5.407-.285-1.648-.498-2.833-1.361-3.557-2.588l4.492-.708c.636,1.077,1.648,1.507,3.037,1.288,1.271-.2,1.687-.767,1.246-1.701-.78-1.043-2.141-1.413-4.082-1.107l-2.083,.328-1.151-1.952,2.284-.36c1.506-.237,2.017-.796,1.535-1.677-.162-.335-.49-.599-.987-.789-.479-.192-.97-.249-1.471-.17-1.189,.187-1.527,.759-1.017,1.717l-3.89,.613c-.535-.907-.482-1.778,.159-2.614,.68-.924,1.882-1.521,3.605-1.792,1.69-.266,3.295-.181,4.814,.256,1.56,.443,2.581,1.075,3.065,1.896,.642,1.089,.287,2.037-1.065,2.844,2.282,.119,3.868,.93,4.755,2.435Z"/>
      <path class="cls-28" d="M247.993,119.943c.584,1.144,.585,2.17,.006,3.078-.687,1.006-1.951,1.654-3.792,1.943-2.192,.345-4.135,.151-5.831-.586-1.702-.746-3.085-2.021-4.148-3.824-1.152-1.953-1.504-3.588-1.057-4.907,.459-1.331,1.717-2.159,3.775-2.483,1.924-.303,3.716-.148,5.376,.465,1.209,.439,2.115,1.013,2.717,1.723l-4.266,.672c-.262-.227-.57-.423-.923-.589-.494-.155-.976-.196-1.444-.123-.736,.116-1.178,.344-1.326,.682-.162,.469-.038,1.16,.373,2.074,.61-.516,1.418-.852,2.422-1.01,1.773-.279,3.424-.131,4.952,.443,1.367,.52,2.423,1.333,3.167,2.44Zm-4.345,.632c-.337-.449-.771-.812-1.301-1.09-.661-.315-1.285-.426-1.87-.334-.803,.127-1.346,.556-1.627,1.288,.533,.78,1.024,1.332,1.472,1.658,.723,.574,1.577,.783,2.564,.627,.569-.09,.932-.327,1.088-.714,.03-.413-.078-.891-.326-1.435Z"/>
      <path class="cls-28" d="M263.153,117.696c.68,1.153,.618,2.194-.186,3.125-.81,.921-2.118,1.523-3.925,1.808-1.908,.301-3.693,.174-5.354-.381-1.547-.514-2.635-1.211-3.264-2.092l4.267-.672c.232,.302,.652,.562,1.257,.782,.448,.233,.982,.3,1.6,.203,.703-.111,1.168-.406,1.398-.885,.037-.402-.041-.844-.234-1.328-.355-.446-.755-.814-1.201-1.105-.664-.35-1.372-.466-2.125-.347-1.071,.169-1.559,.659-1.463,1.472l-4.447-.052-2.473-6.379,10.34-1.629,1.435,2.432-7.002,1.103,.703,1.796c.158-.165,.491-.345,.997-.541,.426-.208,.907-.353,1.442-.437,1.506-.237,2.994-.133,4.463,.311,1.735,.555,2.993,1.494,3.773,2.817Z"/>
    </g>
  </g>
  <g>
    <circle class="cls-13" cx="238.964" cy="51.219" r="36.363"/>
    <polygon class="cls-23" points="238.891 52.462 236.353 41.331 238.891 18.102 240.992 41.331 238.891 52.462"/>
    <polygon class="cls-23" points="239.143 51.744 243.027 45.837 254.177 36.514 244.829 47.616 239.143 51.744"/>
    <g>
      <path class="cls-21" d="M236.307,50.845h-16.285c.161-2.582,.796-4.783,1.902-6.604,1.175-1.936,3.33-4.091,6.465-6.465,2.098-1.591,3.169-3.204,3.216-4.841,.022-.991-.312-1.82-1.003-2.489-.669-.668-1.498-1.003-2.489-1.003-.968,0-1.775,.358-2.42,1.072-.646,.714-.969,1.879-.969,3.492h-4.84c.068-2.466,.875-4.483,2.42-6.05,1.405-1.429,3.389-2.144,5.947-2.144,2.396,0,4.321,.669,5.773,2.005,1.429,1.314,2.144,3.112,2.144,5.394,0,2.858-1.879,5.636-5.636,8.333-3.158,2.259-4.863,4.011-5.117,5.255h10.892v4.045Z"/>
      <path class="cls-21" d="M257.051,46.108h-2.801v4.737h-4.321v-4.737h-10.892v-4.702l11.687-15.075h3.526v15.904h2.801v3.873Zm-7.123-3.873v-8.609l-6.466,8.609h6.466Z"/>
      <path class="cls-21" d="M220.706,71.744h-2.032v1.938h-2.575v-17.34h7.206v16.702h-2.599v-1.299Zm0-12.639h-2.032v3.591h2.032v-3.591Zm0,6.379h-2.032v3.591h2.032v-3.591Zm3.686-8.127h4.157v-2.504h3.048v2.504h3.969v2.48h-3.969v2.032h5.269v2.669h-2.575v1.678h2.197v2.575h-2.197v4.701c0,1.024-.292,1.662-.874,1.914-.488,.268-1.646,.402-3.473,.402-.048-.708-.292-1.536-.732-2.48h2.291v-4.536h-7.654v-2.575h7.654v-1.678h-7.843v-2.669h4.89v-2.032h-4.157v-2.48Zm1.866,11.434c.566,.425,1.149,.898,1.748,1.417,.566,.488,1.023,.938,1.37,1.347l-1.938,1.937c-.756-.945-1.74-1.929-2.953-2.953l1.772-1.749Z"/>
      <path class="cls-21" d="M240.172,55.325h8.788v7.749h-6v12.922h-2.788v-20.671Zm2.788,3.048h3.307v-1.016h-3.307v1.016Zm0,2.669h3.307v-1.016h-3.307v1.016Zm2.031,3.142h9.308v9.308h-6.638v1.016h-2.67v-10.324Zm2.67,3.591h3.874v-1.276h-3.874v1.276Zm0,3.425h3.874v-1.299h-3.874v1.299Zm6-15.875h5.718v14.86c.094,2.725-.11,4.347-.614,4.867-.395,.551-1.575,.929-3.544,1.134-.032-.788-.339-1.686-.922-2.693h1.843c.378-.015,.536-.26,.473-.732v-9.686h-5.907v-7.749h2.953Zm-.283,3.048h3.237v-1.016h-3.237v1.016Zm3.237,2.669v-1.016h-3.237v1.016h3.237Z"/>
    </g>
  </g>
  <g>
    <path class="cls-41" d="M338.423,116.522s8-6.112,10.667-19.445l21-2.833,11,26.167s-30.333,9.557-42.667-3.888Z"/>
    <path class="cls-34" d="M337.757,40.152s-18.082,36.769,8.333,59.529c4.667,4.021,13.333,1.938,19,0s23.333-21.354,23.333-41.979-9.667-30.375-17-30.5-29.166-.677-33.667,12.95Z"/>
    <path class="cls-44" d="M373.673,35.41s-3.75,2.917-2,9.417c0,0-5.08-1.75-2.29-11.5,0,0-25.127-4.417-34.359,13.9l-10.35-18.65,7,3.75s-3-2.805-1.75-7.528c0,0,4.651-.222,16.575-5.222,11.925-5,34.925-8.75,36.925,11.75,0,0,12.25,.576,12,11.413s-6.75,22.837-6.75,22.837c0,0-15.774-12.244-15-30.167Z"/>
    <path class="cls-7" d="M375.09,73.22l6.667-13.254s2.333-2.443,5,0,7,4.689,5,13.733-10.489,35.044-24.25,40.96c-13.761,5.917-15.851,4.12-20.083,1.862-3.333-1.778,3.417-11.362,3.417-11.362,0,0,5.25-5.75,8.25-4.083,3,1.667,4.522,4.113,7.761,1.556s13.572-19.89,13.906-23.556c.333-3.667-3.333-2.045-5.667-5.856Z"/>
    <path class="cls-46" d="M336.923,49.827s4.5-3,7.75-1.5c0,0-4-9.25-7.75,1.5Z"/>
    <path class="cls-45" d="M362.673,48.577s7-1,10.25,5c0,0,.75-12.5-10.25-5Z"/>
    <g>
      <circle class="cls-18" cx="339.495" cy="63.076" r="9.072"/>
      <line class="cls-12" x1="339.495" y1="57.702" x2="339.495" y2="65.577"/>
    </g>
    <g>
      <circle class="cls-18" cx="364.495" cy="65.076" r="9.072"/>
      <line class="cls-12" x1="362.673" y1="68.514" x2="362.673" y2="60.639"/>
    </g>
    <line class="cls-18" x1="348.567" y1="63.076" x2="355.423" y2="63.076"/>
    <path class="cls-14" d="M346.499,79.327l-3.075-3.967s3.038-2.783,5.144-9.783"/>
    <path class="cls-26" d="M345.995,86.577s4.428-4.167,10.928,0c0,0-.106,6-4.928,5.875s-5.678-2.375-6-5.875Z"/>
    <path class="cls-38" d="M431.559,160.5h-144.221l9.835-27.173s1.5-2.25,8.75-4.75,23.554-6.838,32.5-12.055c0,0,9.833,8.055,24.25,8.055s24.5-7,24.5-7l41.731,15.5,2.654,27.423Z"/>
    <path class="cls-29" d="M340.798,114.219s7.92,7.857,19.272,7.607,22.575-5.237,25.353-6.5l3,4.742s-19.679,8.797-28.856,9.297l-2.644,31.134-9.928-.532,4.804-31.497s-5.393-.185-15.76-10.665l4.759-3.587Z"/>
    <path class="cls-35" d="M377.09,124.577s-5.752-5.987-6.253-10.75c-.238-2.266-5.106-15.417-3.747-21.375,1.345-5.899,6.63-11.26,10.667-11.708,6-.667,12.667,5,11.667,10s-3.333,17.945-3,19.972,5.333,8.028,5.333,8.028l-14.667,5.833Z"/>
    <path class="cls-32" d="M387.555,160.5c-.75,.083-6.465-27.423-6.465-27.423l18.083-8.5,23.538,35.923h-35.157Z"/>
    <path class="cls-33" d="M375.936,123.276l5.154,9.801,18.083-8.5-5-10.357s-11.238,3.057-18.238,9.057Z"/>
    <circle class="cls-27" cx="393.673" cy="121.327" r="2.25"/>
  </g>
  <rect class="cls-17" x=".5" y=".5" width="478" height="160" transform="translate(479 161) rotate(-180)"/>
</svg>