<?xml version="1.0" encoding="UTF-8"?>
<svg id="_イヤー_1" data-name="レイヤー 1" xmlns="http://www.w3.org/2000/svg" width="143.387mm" height="80.429mm" xmlns:xlink="http://www.w3.org/1999/xlink" viewBox="0 0 406.451 227.988">
  <defs>
    <style>
      .cls-1 {
        fill: url(#_称未設定グラデーション_49-2);
      }

      .cls-2 {
        fill: url(#_称未設定グラデーション_49);
      }

      .cls-3 {
        fill: url(#_称未設定グラデーション_138-2);
      }

      .cls-3, .cls-4, .cls-5 {
        stroke: #7e4f22;
        stroke-miterlimit: 10;
        stroke-width: 1.465px;
      }

      .cls-6 {
        opacity: .11;
      }

      .cls-7 {
        fill: #e89786;
      }

      .cls-7, .cls-8, .cls-9, .cls-10, .cls-11, .cls-12, .cls-13 {
        stroke-linecap: round;
        stroke-linejoin: round;
      }

      .cls-7, .cls-8, .cls-9, .cls-11, .cls-12 {
        stroke: #c87a74;
      }

      .cls-7, .cls-8, .cls-12 {
        stroke-width: 1.2px;
      }

      .cls-8, .cls-14 {
        fill: #e58982;
      }

      .cls-15 {
        fill: #89c6cb;
      }

      .cls-9 {
        opacity: .7;
        stroke-width: 1.589px;
      }

      .cls-9, .cls-10, .cls-11, .cls-12, .cls-4, .cls-13 {
        fill: none;
      }

      .cls-10, .cls-11 {
        stroke-width: 1.198px;
      }

      .cls-10, .cls-13 {
        stroke: #fff;
      }

      .cls-5 {
        fill: url(#_称未設定グラデーション_138);
      }

      .cls-16 {
        opacity: .15;
      }

      .cls-17 {
        fill: url(#_規グラデーションスウォッチ_6);
        opacity: .9;
      }

      .cls-13 {
        stroke-width: 1.059px;
      }
    </style>
    <linearGradient id="_称未設定グラデーション_138" data-name="名称未設定グラデーション 138" x1="43.979" y1="112.596" x2="354.895" y2="112.596" gradientTransform="matrix(1, 0, 0, 1, 0, 0)" gradientUnits="userSpaceOnUse">
      <stop offset="0" stop-color="#c65a45"/>
      <stop offset=".504" stop-color="#e6bfa0"/>
      <stop offset="1" stop-color="#c65a45"/>
    </linearGradient>
    <linearGradient id="_称未設定グラデーション_138-2" data-name="名称未設定グラデーション 138" x1="10.331" y1="47.371" x2="357.101" y2="47.371" xlink:href="#_称未設定グラデーション_138"/>
    <linearGradient id="_称未設定グラデーション_49" data-name="名称未設定グラデーション 49" x1="1113.268" y1="227.671" x2="1113.268" y2=".221" gradientTransform="translate(1184.108) rotate(-180) scale(1 -1)" gradientUnits="userSpaceOnUse">
      <stop offset="0" stop-color="#e79274"/>
      <stop offset="1" stop-color="#f4e7ce"/>
    </linearGradient>
    <linearGradient id="_称未設定グラデーション_49-2" data-name="名称未設定グラデーション 49" x1="1287.038" y1="227.671" x2="1287.038" y2=".043" gradientTransform="translate(-954.224)" xlink:href="#_称未設定グラデーション_49"/>
    <linearGradient id="_規グラデーションスウォッチ_6" data-name="新規グラデーションスウォッチ 6" x1="197.083" y1="149.056" x2="197.083" y2="70.955" gradientTransform="matrix(1, 0, 0, 1, 0, 0)" gradientUnits="userSpaceOnUse">
      <stop offset="0" stop-color="#b24044"/>
      <stop offset=".503" stop-color="#dc4e13"/>
      <stop offset="1" stop-color="#b03940"/>
    </linearGradient>
  </defs>
  <g id="_肛_" data-name="裂肛１">
    <g>
      <rect class="cls-15" x="1.337" y=".043" width="404.847" height="227.944"/>
      <path class="cls-5" d="M54.053,207.611c1.832-.458,74.18-42.585,143.781-42.585s152.024,48.538,152.024,48.538l5.037-201.935s-310.916,.458-310.916,2.29,10.074,193.693,10.074,193.693Z"/>
      <path class="cls-3" d="M10.331,.794c7.15,44.873,12.923,79.418,25.635,86.102,44.416,23.353,62.733-18.774,62.733-18.774,0,0-6.945-18.497,.85-18.676,5.845-.134,10.585,8.516,11.863,10.359,1.278,1.843,10.413,18.296,14.182,17.987,3.492-.286,5.307-7.671,7.38-9.995,2.606-2.922,5.313-11.381,10.027-12.497,2.228-.527,4.35,.859,6.501,4.163,0,0,2.882,5.583,6.779,5.453,5.151-.172,6.895-4.35,7.912-6.697s2.9-6.918,7.142-6.926c4.808-.009,6.64,6.239,6.983,6.926,.343,.687,2.292,6.959,7.727,7.155,6.353,.229,8.128-5.838,8.815-7.613,.687-1.774,2.518-6.541,6.811-6.476s6.269,4.123,8.128,7.048c1.184,1.864,2.862,5.315,5.895,5.438,4.236,.172,6.067-5.037,6.754-6.353,.687-1.316,2.747-5.323,6.411-5.323s6.01,2.576,7.498,6.182c.84,2.036,2.69,7.498,8.528,7.269,5.838-.229,6.175-4.18,6.468-5.323,.63-2.461,1.832-5.143,4.628-5.372,8.104-.663,9,14,16.143,16.373,8.046,2.673,20.844,.08,21.813,1.131l2.354-33.327s8.512-12.904,24.849-6.81c14.519,5.416,26.167-7.539,35.962-30.891"/>
      <path class="cls-2" d="M130.103,.221c.604,5.874,.778,12.065,.396,18.561-.972,16.537-6.604,26.667-6.604,26.667,0,0-10.326,20.795-3.072,21.87,3.423,.507,6.454-1.075,6.454-1.075,0,0,6.595-4.846,9.495-2.766,3.178,2.279,4.391,4.276-.62,18.164-1.121,3.106-3.53,25.314-4.14,43.63-.611,18.316-3.648,21.131-8.837,28.457-5.19,7.326-7.721,23.597-10.61,30.392-6.369,14.981-17.396,30.621-42.644,42.967-2.688,1.315-67.78-.002-67.78-.002V.672L130.103,.221Z"/>
      <path class="cls-4" d="M130.103,.221c.604,5.874,.778,12.065,.396,18.561-.972,16.537-6.604,26.667-6.604,26.667,0,0-10.326,20.795-3.072,21.87,3.423,.507,6.454-1.075,6.454-1.075,0,0,6.595-4.846,9.495-2.766,3.178,2.279,4.391,4.276-.62,18.164-1.121,3.106-3.53,25.314-4.14,43.63-.611,18.316-3.648,21.131-8.837,28.457-5.19,7.326-7.721,23.597-10.61,30.392-6.369,14.981-17.396,30.621-42.644,42.967"/>
      <g id="_約筋" data-name="括約筋">
        <g>
          <path class="cls-8" d="M2.14,195.28c6.67,2.896,14.707,4.349,24.345,3.573,47.845-3.85,60.597-35.859,61.955-44.467,1.853-11.748,3.042-25.422-25.857-24.901-9.641,.174-21.051-2.78-24.53-7.716-6.293-8.928-13.556-10.032-19.718-4.977-6.162,5.055-9.013,9.483-16.193,11.325"/>
          <path class="cls-8" d="M1.955,126.149c2.505-.706,3.169-1.115,4.888-2.085,8.831-4.983,20.547-15.5,15.342-37.224,0,0,1.846-8.544-.696-20.024s-1.367-10.049-.645-13.68c.722-3.631-3.201-11.643-9.265-10.929,0,0,8.19,.562,5.926-9.341C15.24,22.963,10.331,.794,10.331,.794l-8.19-.122"/>
          <g class="cls-6">
            <path class="cls-10" d="M12.994,24.129c-.088-.594-.203-13.144-9.777-16.454"/>
            <path class="cls-10" d="M14.836,34.583s-.027-3.374-7.234-4.164"/>
            <path class="cls-10" d="M11.983,26.329s-2.731-5.623-10.609-4.089"/>
            <path class="cls-10" d="M17.697,49.545s-6.214,.604-12.068,3.581"/>
            <path class="cls-10" d="M18.098,63.448s-5.608,1.538-14.793-3.854"/>
            <path class="cls-10" d="M19.855,74.109s.616-5.573-5.3-5.931c-5.915-.357-8.759,.586-10.872,.634"/>
            <path class="cls-10" d="M15.45,73.608s-6.28,3.999-12.051,1.24"/>
            <path class="cls-10" d="M19.765,82.03s-6.139-4.679-12.469-1.624"/>
            <path class="cls-10" d="M13.56,37.02s-3.255-4.82-11.419,1.511"/>
            <path class="cls-10" d="M19.016,87.355s-6.552-2.247-11.012,1.788c-4.46,4.035,.464,4.139-4.73,4.983"/>
            <path class="cls-10" d="M19.579,90.777s-4.819,2.81-7.925,3.72-6.655,3.311-7.445,5.061"/>
            <path class="cls-10" d="M20.718,97.687s-9.104,3.438-11.681,6.83c-2.578,3.392-6.109,3.27-6.109,3.27"/>
            <path class="cls-10" d="M17.501,108.278s-7.182,5.288-15.36,6.008"/>
            <path class="cls-10" d="M10.943,117.166s.329-3.296-8.077,2.597"/>
            <path class="cls-10" d="M20.707,121.812s-5.19,9.154-18.965,10.377"/>
            <path class="cls-10" d="M5.592,135.235c7.019-.351,17.353-8.718,18.314-10.294"/>
            <path class="cls-10" d="M2.141,144.927c7.097-1.355,12.291-6.861,13.932-8.749"/>
            <path class="cls-10" d="M22.13,136.38s-7.971,9.808-15.519,12.656"/>
            <path class="cls-10" d="M32.904,124.314s-13.292,27.882-8.121,40.016c5.171,12.134,.559,29.912,.559,29.912"/>
            <path class="cls-10" d="M21.68,145.495s-3.8,6.981-13.735,11.635-6.913,18.556-6.913,18.556"/>
            <path class="cls-10" d="M12.673,158.735s.819,10.206-7.852,18.709"/>
            <path class="cls-10" d="M24.23,160.973s-7.422,18.639-6.111,25.116"/>
            <path class="cls-10" d="M19.975,161.664s-10.465,14.065-7.606,22.318c2.858,8.253,2.196,12.009,2.196,12.009"/>
            <path class="cls-10" d="M39.97,127.648s-4.438,8.61-.994,17.666c3.444,9.056,6.494,12.21,5.088,20.243-1.406,8.033-5.945,17.892-4.205,20.853"/>
            <path class="cls-10" d="M38.217,142.81s-2.611,11.673-.956,17.273c1.655,5.6,2.116,13.229,.792,15.369"/>
            <path class="cls-10" d="M33.774,132.664s-.361,9.992-2.625,18.468c-2.264,8.476,1.066,16.348,1.066,16.348"/>
            <path class="cls-10" d="M34.834,183.375c-.317,.051-1.006,8.337,1.821,11.056"/>
            <path class="cls-10" d="M48.511,132.096s2.063,15.487,1.677,22.032,1.56,9.472,3.129,13.069c1.569,3.597,.15,9.909,.56,13.086"/>
            <path class="cls-10" d="M50.346,184.708c-1.156,.39-4.886-4.477-5.169-7.675"/>
            <path class="cls-10" d="M45.424,190.98s-5.612-3.676,1.208-16.92c2.563-4.977,1.428-9.151,1.428-9.151"/>
            <path class="cls-10" d="M66.007,177.912s2.334-12.344-4.069-19.616c-6.404-7.272-3.903-23.69-3.903-23.69"/>
            <path class="cls-10" d="M60.409,184.082s-1.416-1.691-.785-8.23c.631-6.539-.43-10.015-1.911-11.599-1.481-1.584-5.746-13.69-3.607-19.502"/>
            <path class="cls-10" d="M65.442,134.333c-.016-.044,3.499,11.387,4.753,16.621,1.169,4.876,10.043,12.277,12.296,12.621"/>
            <path class="cls-10" d="M61.696,134.309s1.379,18.397,5.089,22.153c3.71,3.756,5.554,12.966,5.313,19.898"/>
            <path class="cls-10" d="M78.86,168.352s-8.991-7.728-12.075-11.89"/>
            <path class="cls-10" d="M70.516,133.713s5.569,9.697,9.019,15.827c3.45,6.13,3.898,11.906,3.898,11.906"/>
            <path class="cls-10" d="M85.761,154.925s-2.859-.245-6.226-5.386"/>
            <path class="cls-10" d="M72.888,137.853c1.97-.388,11.717,3.802,12.012,9.699"/>
          </g>
          <path class="cls-11" d="M11.578,42.207s-3.218,.638-8.862,.094"/>
        </g>
        <g>
          <g>
            <path class="cls-7" d="M70.541,.607c-.569,2.409-1.845,3.451-1.845,3.451,0,0,3.266,4.788,3.581,8.689,.315,3.901,.494,6.131-1.84,5.756,0,0,6.857,6.464,3.3,12.357,0,0,6.422,7.06,2.39,12.991,0,0,5.63,4.319,4.059,13.419,0,0,5.326,5.184,1.836,15.559,0,0,9.421,2.614,5.197,18.096,0,0,8.664,7.442,3.163,17.697,0,0,3.999,13.984-7.599,16.592-11.598,2.608-28.187,.63-32.065-1.024-3.877-1.654-6.845-5.084-2.907-6.24,0,0-5.63,.168-9.732-4.273-4.102-4.441-.703-8.68,1.828-9.443,0,0-6.608,2.903-8.984-2.902-1.938-4.734,.993-10.483,3.81-11.269,0,0-4.691-1.028-4.944-7.739-.253-6.711-1.011-12.54,2.664-13.394,0,0-4.228-2.533-6.448-12.106-1.932-8.33-.236-10.078,2.339-10.283,0,0-4.119-1.529-6.055-12.648-1.494-8.581,1.02-10.508,3.573-10.993,0,0-6.619-1.808-9.624-15.779-.419-1.947-1.364-4.975-1.625-6.493"/>
            <path class="cls-9" d="M39.269,1.638c10.208,5.701,19.944,5.978,22.18,6.921"/>
            <path class="cls-9" d="M25.863,22.9s12.459-.854,16.822,1.462,9.065,3.484,11.377,3.58"/>
            <path class="cls-9" d="M32.454,68.93s10.759,3.068,22.738-1.954"/>
            <path class="cls-9" d="M28.354,45.916s22.975,5.33,41.603-.392"/>
            <path class="cls-9" d="M34.734,90.063s27.494-2.008,40.21-14.174"/>
            <path class="cls-9" d="M39.908,104.234s24.781-4.397,30.246-8.058"/>
            <path class="cls-9" d="M47.812,117.95s24.218,.231,36.426-8.37"/>
          </g>
          <g class="cls-16">
            <path class="cls-13" d="M67.115,20.17s-7.313,2.382-14.073-1.203-13.153-.712-16.198,.814"/>
            <path class="cls-13" d="M28.349,9.47s5.836-4.442,9.46-.755c3.624,3.688,3.286,8.491,6.899,8.592"/>
            <path class="cls-13" d="M20.33,4.662s2.891,.724,8.019,4.808c3.231,2.573,9.795,3.406,9.795,3.406"/>
            <path class="cls-13" d="M75.252,38.942c-.909-.559-11.658-1.713-17.91,2.901"/>
            <path class="cls-13" d="M60.87,32.019s-12.695,14.215-25.961-2.191"/>
            <path class="cls-13" d="M30.099,42.756s5.914-1.132,8.347-3.1,11.79-2.006,11.79-2.006"/>
            <path class="cls-13" d="M26.87,33.367s2.922,2.648,9.184,2.723"/>
            <path class="cls-13" d="M74.664,49.506s-11.761,7.728-19.583,3.59"/>
            <path class="cls-13" d="M31.74,52.931s2.245,5.013,8.428,5.605c6.183,.592,13.916,.048,18.401-1.468"/>
            <path class="cls-13" d="M37.702,64.474s-4.051-3.735,8.408-5.571"/>
            <path class="cls-13" d="M77.058,61.334s-9.737,4.253-11.622,9.452c-1.885,5.199-12.201,4.058-12.201,4.058"/>
            <path class="cls-13" d="M77.662,68.829s-2.912,3.177-12.226,1.957"/>
            <path class="cls-13" d="M36.579,77.102s1.798-2.581,8.288-.661c6.491,1.919,11.17,2.808,15.356,1.142"/>
            <path class="cls-13" d="M47.271,81.244s-4.301,2.413-7.738-2.011"/>
            <path class="cls-13" d="M83.613,78.344s-13.291-.534-18.031,12.123c0,0,.87,3.646-10.043,4.031-10.913,.384-14.803-1.68-17.557,.008"/>
            <path class="cls-13" d="M40.384,97.73s2.639,2.268,10.581-2.822"/>
            <path class="cls-13" d="M81.021,85.496s-3.786,6.627-15.439,4.971"/>
            <path class="cls-13" d="M77.306,96.566s-14.55,5.284-18.923,9.98c-4.373,4.696-12.968,1.899-12.968,1.899"/>
            <path class="cls-13" d="M88.903,97.521s-4.83,7.958-10.918,7.462c-6.088-.496-5.811-.636-10.985,3.061-5.174,3.697-14.88,1.187-14.88,1.187"/>
            <path class="cls-13" d="M86.152,109.845s-5.861,5.891-13.68,7.146"/>
            <path class="cls-13" d="M62.864,121.151s10.907,3.013,16.319-1.302c5.412-4.315,9.171-4.125,9.171-4.125"/>
          </g>
        </g>
      </g>
      <path class="cls-1" d="M269.173,.043c-.604,5.874-.901,12.243-.519,18.738,.972,16.537,6.604,26.667,6.604,26.667,0,0,10.326,20.795,3.072,21.87-3.423,.507-6.454-1.075-6.454-1.075,0,0-6.595-4.846-9.495-2.766-3.178,2.279-4.391,4.276,.62,18.164,1.121,3.106,3.53,25.314,4.14,43.63,.611,18.316,3.648,21.131,8.837,28.457,5.19,7.326,7.721,23.597,10.61,30.392,6.369,14.981,17.396,30.621,42.644,42.967,2.688,1.315,76.78-.002,76.78-.002L405.873,.043h-136.7Z"/>
      <path class="cls-4" d="M269.05,.221c-.604,5.874-.778,12.065-.396,18.561,.972,16.537,6.604,26.667,6.604,26.667,0,0,10.326,20.795,3.072,21.87-3.423,.507-6.454-1.075-6.454-1.075,0,0-6.595-4.846-9.495-2.766-3.178,2.279-4.391,4.276,.62,18.164,1.121,3.106,3.53,25.314,4.14,43.63,.611,18.316,3.648,21.131,8.837,28.457,5.19,7.326,7.721,23.597,10.61,30.392,6.369,14.981,17.396,30.621,42.644,42.967"/>
      <g id="_約筋-2" data-name="括約筋">
        <g>
          <path class="cls-8" d="M405.13,193.767c-6.67,2.896-22.824,5.861-32.461,5.086-47.845-3.85-60.597-35.859-61.955-44.467-1.853-11.748-3.042-25.422,25.857-24.901,9.641,.174,21.051-2.78,24.53-7.716,6.293-8.928,13.556-10.032,19.718-4.977,6.162,5.055,17.521,12.304,24.701,14.145"/>
          <path class="cls-14" d="M405.161,129.286c-2.505-.706-11.132-4.253-12.851-5.223-8.831-4.983-20.547-15.5-15.342-37.224,0,0-1.846-8.544,.696-20.024s1.367-10.049,.645-13.68c-.722-3.631,3.201-11.643,9.265-10.929,0,0-8.19,.562-5.926-9.341,2.264-9.903,7.172-32.072,7.172-32.072l17.191-.122"/>
          <path class="cls-12" d="M405.161,129.286c-2.505-.706-11.132-4.253-12.851-5.223-8.831-4.983-20.547-15.5-15.342-37.224,0,0-1.846-8.544,.696-20.024s1.367-10.049,.645-13.68c-.722-3.631,3.201-11.643,9.265-10.929,0,0-8.19,.562-5.926-9.341,2.264-9.903,7.172-32.072,7.172-32.072"/>
          <g class="cls-6">
            <path class="cls-10" d="M386.159,24.129c.088-.594,8.128-14.305,17.702-17.616"/>
            <path class="cls-10" d="M384.317,34.583s10.015-4.884,17.222-5.673"/>
            <path class="cls-10" d="M387.17,26.329s8.15-9.405,16.028-7.871"/>
            <path class="cls-10" d="M381.457,49.545s6.214,.604,12.068,3.581"/>
            <path class="cls-10" d="M381.055,63.448s5.608,1.538,14.793-3.854"/>
            <path class="cls-10" d="M379.299,74.109s-.616-5.573,5.3-5.931c5.915-.357,19.141,.166,21.254,.215"/>
            <path class="cls-10" d="M383.704,73.608s14.884,3.849,20.655,1.089"/>
            <path class="cls-10" d="M379.388,82.03s17.812,.23,24.141,3.285"/>
            <path class="cls-10" d="M385.593,37.02s11.1-4.986,19.263,1.346"/>
            <path class="cls-10" d="M380.138,87.355s6.552-2.247,11.012,1.788c4.46,4.035,7.565,5.672,12.76,6.516"/>
            <path class="cls-10" d="M379.574,90.777s4.819,2.81,7.925,3.72,5.602,4.522,7.445,5.061"/>
            <path class="cls-10" d="M378.436,97.687s9.104,3.438,11.681,6.83,14.243,3.853,14.243,3.853"/>
            <path class="cls-10" d="M381.653,108.278s14.066,4.607,22.244,5.327"/>
            <path class="cls-10" d="M388.211,117.166s5.731-1.347,14.137,4.545"/>
            <path class="cls-10" d="M378.447,121.812s12.137,11.385,25.912,12.608"/>
            <path class="cls-10" d="M401.392,137.657c-7.019-.351-25.184-11.14-26.144-12.715"/>
            <path class="cls-10" d="M403.724,146.63c-7.097-1.355-19.002-8.564-20.643-10.453"/>
            <path class="cls-10" d="M377.023,136.38s7.971,9.808,15.519,12.656"/>
            <path class="cls-10" d="M366.25,124.314s13.292,27.882,8.121,40.016c-5.171,12.134-.559,29.912-.559,29.912"/>
            <path class="cls-10" d="M377.474,145.495s3.8,6.981,13.735,11.635c9.935,4.654,6.913,18.556,6.913,18.556"/>
            <path class="cls-10" d="M386.481,158.735s-.819,10.206,7.852,18.709"/>
            <path class="cls-10" d="M374.924,160.973s7.422,18.639,6.111,25.116"/>
            <path class="cls-10" d="M379.179,161.664s10.465,14.065,7.606,22.318c-2.858,8.253-2.196,12.009-2.196,12.009"/>
            <path class="cls-10" d="M359.184,127.648s4.438,8.61,.994,17.666c-3.444,9.056-6.494,12.21-5.088,20.243,1.406,8.033,5.945,17.892,4.205,20.853"/>
            <path class="cls-10" d="M360.937,142.81s2.611,11.673,.956,17.273c-1.655,5.6-2.116,13.229-.792,15.369"/>
            <path class="cls-10" d="M365.379,132.664s.361,9.992,2.625,18.468c2.264,8.476-1.066,16.348-1.066,16.348"/>
            <path class="cls-10" d="M364.319,183.375c.317,.051,1.006,8.337-1.821,11.056"/>
            <path class="cls-10" d="M350.643,132.096s-2.063,15.487-1.677,22.032c.386,6.545-1.56,9.472-3.129,13.069-1.569,3.597-.15,9.909-.56,13.086"/>
            <path class="cls-10" d="M348.808,184.708c1.156,.39,4.886-4.477,5.169-7.675"/>
            <path class="cls-10" d="M353.729,190.98s5.612-3.676-1.208-16.92c-2.563-4.977-1.428-9.151-1.428-9.151"/>
            <path class="cls-10" d="M333.147,177.912s-2.334-12.344,4.069-19.616c6.404-7.272,3.903-23.69,3.903-23.69"/>
            <path class="cls-10" d="M338.744,184.082s1.416-1.691,.785-8.23c-.631-6.539,.43-10.015,1.911-11.599,1.481-1.584,5.746-13.69,3.607-19.502"/>
            <path class="cls-10" d="M333.711,134.333c.016-.044-3.499,11.387-4.753,16.621-1.169,4.876-10.043,12.277-12.296,12.621"/>
            <path class="cls-10" d="M337.458,134.309s-1.379,18.397-5.089,22.153c-3.71,3.756-5.554,12.966-5.313,19.898"/>
            <path class="cls-10" d="M320.294,168.352s8.991-7.728,12.075-11.89"/>
            <path class="cls-10" d="M328.638,133.713s-5.569,9.697-9.019,15.827c-3.45,6.13-3.898,11.906-3.898,11.906"/>
            <path class="cls-10" d="M313.393,154.925s2.859-.245,6.226-5.386"/>
            <path class="cls-10" d="M326.266,137.853c-1.97-.388-11.717,3.802-12.012,9.699"/>
          </g>
          <path class="cls-11" d="M387.576,42.207s3.218,.638,8.862,.094"/>
        </g>
        <g>
          <g>
            <path class="cls-7" d="M328.626,.651c.569,2.409,1.831,3.407,1.831,3.407,0,0-3.266,4.788-3.581,8.689s-.494,6.131,1.84,5.756c0,0-6.857,6.464-3.3,12.357,0,0-6.422,7.06-2.39,12.991,0,0-5.63,4.319-4.059,13.419,0,0-5.326,5.184-1.836,15.559,0,0-9.421,2.614-5.197,18.096,0,0-8.664,7.442-3.163,17.697,0,0-3.999,13.984,7.599,16.592,11.598,2.608,28.187,.63,32.065-1.024,3.877-1.654,6.845-5.084,2.907-6.24,0,0,5.63,.168,9.732-4.273,4.102-4.441,.703-8.68-1.828-9.443,0,0,6.608,2.903,8.984-2.902,1.938-4.734-.993-10.483-3.81-11.269,0,0,4.691-1.028,4.944-7.739,.253-6.711,1.011-12.54-2.664-13.394,0,0,4.228-2.533,6.448-12.106,1.932-8.33,.236-10.078-2.339-10.283,0,0,4.119-1.529,6.055-12.648,1.494-8.581-1.02-10.508-3.573-10.993,0,0,6.619-1.808,9.624-15.779,.419-1.947,.986-5.003,1.247-6.521"/>
            <path class="cls-9" d="M360.5,1.267c-10.208,5.701-20.559,6.349-22.795,7.292"/>
            <path class="cls-9" d="M373.29,22.9s-12.459-.854-16.822,1.462-9.065,3.484-11.377,3.58"/>
            <path class="cls-9" d="M366.7,68.93s-10.759,3.068-22.738-1.954"/>
            <path class="cls-9" d="M370.799,45.916s-22.975,5.33-41.603-.392"/>
            <path class="cls-9" d="M364.42,90.063s-27.494-2.008-40.21-14.174"/>
            <path class="cls-9" d="M359.245,104.234s-24.781-4.397-30.246-8.058"/>
            <path class="cls-9" d="M351.341,117.95s-24.218,.231-36.426-8.37"/>
          </g>
          <g class="cls-16">
            <path class="cls-13" d="M332.039,20.17s7.313,2.382,14.073-1.203,13.153-.712,16.198,.814"/>
            <path class="cls-13" d="M370.805,9.47s-5.836-4.442-9.46-.755c-3.624,3.688-3.286,8.491-6.899,8.592"/>
            <path class="cls-13" d="M378.824,4.662s-2.891,.724-8.019,4.808c-3.231,2.573-9.795,3.406-9.795,3.406"/>
            <path class="cls-13" d="M323.901,38.942c.909-.559,11.658-1.713,17.91,2.901"/>
            <path class="cls-13" d="M338.283,32.019s12.695,14.215,25.961-2.191"/>
            <path class="cls-13" d="M369.055,42.756s-5.914-1.132-8.347-3.1-11.79-2.006-11.79-2.006"/>
            <path class="cls-13" d="M372.283,33.367s-2.922,2.648-9.184,2.723"/>
            <path class="cls-13" d="M324.49,49.506s11.761,7.728,19.583,3.59"/>
            <path class="cls-13" d="M367.413,52.931s-2.245,5.013-8.428,5.605c-6.183,.592-13.916,.048-18.401-1.468"/>
            <path class="cls-13" d="M361.451,64.474s4.051-3.735-8.408-5.571"/>
            <path class="cls-13" d="M322.096,61.334s9.737,4.253,11.622,9.452c1.885,5.199,12.201,4.058,12.201,4.058"/>
            <path class="cls-13" d="M321.492,68.829s2.912,3.177,12.226,1.957"/>
            <path class="cls-13" d="M362.574,77.102s-1.798-2.581-8.288-.661c-6.491,1.919-11.17,2.808-15.356,1.142"/>
            <path class="cls-13" d="M351.883,81.244s4.301,2.413,7.738-2.011"/>
            <path class="cls-13" d="M315.541,78.344s13.291-.534,18.031,12.123c0,0-.87,3.646,10.043,4.031s14.803-1.68,17.557,.008"/>
            <path class="cls-13" d="M358.77,97.73s-2.639,2.268-10.581-2.822"/>
            <path class="cls-13" d="M318.132,85.496s3.786,6.627,15.439,4.971"/>
            <path class="cls-13" d="M321.848,96.566s14.55,5.284,18.923,9.98c4.373,4.696,12.968,1.899,12.968,1.899"/>
            <path class="cls-13" d="M310.251,97.521s4.83,7.958,10.918,7.462c6.088-.496,5.811-.636,10.985,3.061,5.174,3.697,14.88,1.187,14.88,1.187"/>
            <path class="cls-13" d="M313.001,109.845s5.861,5.891,13.68,7.146"/>
            <path class="cls-13" d="M336.29,121.151s-10.907,3.013-16.319-1.302c-5.412-4.315-9.171-4.125-9.171-4.125"/>
          </g>
        </g>
      </g>
    </g>
    <path class="cls-17" d="M197.027,71.783c-2.405,9.699-3.426,47.911,.092,76.327,.159,1.284-.344,1.237,0,0,2.751-9.882,3.163-51.974-.092-76.327-.147-1.1,.275-1.108,0,0Z"/>
  </g>
</svg>