<svg id="レイヤー_1" data-name="レイヤー 1" xmlns="http://www.w3.org/2000/svg" xmlns:xlink="http://www.w3.org/1999/xlink" viewBox="0 0 239 160"><defs><style>.cls-1{fill:url(#新規グラデーションスウォッチ_4);}.cls-2{fill:#efeedc;}.cls-3{fill:#c2bd8b;}.cls-4{fill:#e7cea5;}.cls-5{fill:#fde1b4;}.cls-6{fill:url(#新規グラデーションスウォッチ_5);}.cls-7{fill:url(#名称未設定グラデーション_39);}.cls-8{fill:url(#名称未設定グラデーション_42);}.cls-9{fill:url(#新規グラデーションスウォッチ_3);}.cls-10{fill:url(#名称未設定グラデーション_32);}.cls-11{fill:url(#名称未設定グラデーション_34);}.cls-12{fill:url(#名称未設定グラデーション_36);}.cls-13{opacity:0.61;}.cls-14,.cls-21,.cls-22{fill:#efefef;}.cls-14{opacity:0.109;}.cls-15{fill:url(#名称未設定グラデーション_47);}.cls-16{fill:url(#名称未設定グラデーション_32-2);}.cls-17,.cls-18{fill:none;stroke-linecap:round;stroke-miterlimit:10;}.cls-17{stroke:#6a3906;}.cls-18{stroke:#231815;stroke-width:2px;}.cls-19{fill:url(#名称未設定グラデーション_49);}.cls-20{fill:url(#名称未設定グラデーション_49-2);}.cls-21{opacity:0.48;}.cls-22{opacity:0.5;}</style><linearGradient id="新規グラデーションスウォッチ_4" y1="80" x2="239" y2="80" gradientUnits="userSpaceOnUse"><stop offset="0" stop-color="#b1cfd4"/><stop offset="1" stop-color="#43aa88"/></linearGradient><linearGradient id="新規グラデーションスウォッチ_5" x1="178" y1="452.689" x2="410.5" y2="452.689" gradientUnits="userSpaceOnUse"><stop offset="0" stop-color="#bbd4a8"/><stop offset="1" stop-color="#56b29c"/></linearGradient><linearGradient id="名称未設定グラデーション_39" x1="365.755" y1="417.624" x2="302" y2="417.624" gradientUnits="userSpaceOnUse"><stop offset="0" stop-color="#f6ac58"/><stop offset="0.323" stop-color="#f6ad5a"/><stop offset="0.497" stop-color="#f6b062"/><stop offset="0.635" stop-color="#f7b470"/><stop offset="0.754" stop-color="#f8bb83"/><stop offset="0.861" stop-color="#f8c49c"/><stop offset="0.958" stop-color="#f9cfba"/><stop offset="1" stop-color="#fad4ca"/></linearGradient><linearGradient id="名称未設定グラデーション_42" x1="366.25" y1="386.255" x2="319.625" y2="386.255" gradientUnits="userSpaceOnUse"><stop offset="0" stop-color="#f6ac58"/><stop offset="0.218" stop-color="#f6ad5b"/><stop offset="0.401" stop-color="#f6b166"/><stop offset="0.571" stop-color="#f7b777"/><stop offset="0.734" stop-color="#f8bf90"/><stop offset="0.889" stop-color="#f9caaf"/><stop offset="1" stop-color="#fad4ca"/></linearGradient><linearGradient id="新規グラデーションスウォッチ_3" x1="349.778" y1="355.45" x2="349.778" y2="400.077" gradientUnits="userSpaceOnUse"><stop offset="0" stop-color="#fff"/><stop offset="0.084" stop-color="#f3f9f3"/><stop offset="0.306" stop-color="#d8ecd9"/><stop offset="0.532" stop-color="#c4e2c7"/><stop offset="0.761" stop-color="#b9ddbc"/><stop offset="1" stop-color="#b5dbb8"/></linearGradient><linearGradient id="名称未設定グラデーション_32" x1="346.596" y1="361.456" x2="346.596" y2="389.505" gradientUnits="userSpaceOnUse"><stop offset="0" stop-color="#fff"/><stop offset="1" stop-color="#b5dbb8"/></linearGradient><linearGradient id="名称未設定グラデーション_34" x1="332.625" y1="346.378" x2="332.625" y2="368.63" gradientUnits="userSpaceOnUse"><stop offset="0" stop-color="#fff"/><stop offset="0.283" stop-color="#fcfefc"/><stop offset="0.497" stop-color="#f2f9f3"/><stop offset="0.69" stop-color="#e2f1e3"/><stop offset="0.868" stop-color="#cbe6cd"/><stop offset="1" stop-color="#b5dbb8"/></linearGradient><linearGradient id="名称未設定グラデーション_36" x1="350.625" y1="348.38" x2="350.625" y2="366.505" gradientUnits="userSpaceOnUse"><stop offset="0" stop-color="#fff"/><stop offset="0.289" stop-color="#fcfefc"/><stop offset="0.502" stop-color="#f3f9f3"/><stop offset="0.691" stop-color="#e3f1e4"/><stop offset="0.865" stop-color="#cce6ce"/><stop offset="1" stop-color="#b5dbb8"/></linearGradient><linearGradient id="名称未設定グラデーション_47" x1="345.042" y1="428.089" x2="325.637" y2="408.684" gradientUnits="userSpaceOnUse"><stop offset="0" stop-color="#f6ac58"/><stop offset="0.448" stop-color="#f8bd89"/><stop offset="1" stop-color="#fad4ca"/></linearGradient><linearGradient id="名称未設定グラデーション_32-2" x1="340.817" y1="361.505" x2="340.817" y2="370.711" xlink:href="#名称未設定グラデーション_32"/><linearGradient id="名称未設定グラデーション_49" x1="249.859" y1="487.022" x2="230.609" y2="467.772" gradientUnits="userSpaceOnUse"><stop offset="0" stop-color="#f6ac58"/><stop offset="0.216" stop-color="#f6ad5b"/><stop offset="0.399" stop-color="#f6b166"/><stop offset="0.57" stop-color="#f7b777"/><stop offset="0.734" stop-color="#f8c090"/><stop offset="0.892" stop-color="#f9cbb0"/><stop offset="1" stop-color="#fad4ca"/></linearGradient><linearGradient id="名称未設定グラデーション_49-2" x1="269.88" y1="492.001" x2="251.046" y2="473.168" xlink:href="#名称未設定グラデーション_49"/></defs><rect class="cls-1" width="239" height="160"/><polygon class="cls-2" points="0 0 58.333 0 58.333 69.86 0 85.47 0 0"/><polygon class="cls-3" points="0 68.027 49.54 55.496 51.54 63.913 0 77.443 0 68.027"/><polygon class="cls-3" points="0 56.027 49.54 43.496 51.54 51.913 0 65.443 0 56.027"/><polygon class="cls-3" points="0 44.027 49.54 31.496 51.54 39.913 0 53.443 0 44.027"/><polygon class="cls-3" points="0 32.027 49.54 19.496 51.54 27.913 0 41.443 0 32.027"/><polygon class="cls-3" points="0 20.027 49.54 7.496 51.54 15.913 0 29.443 0 20.027"/><polygon class="cls-3" points="0 8.027 31.734 0 50.61 0 51.54 3.913 0 17.443 0 8.027"/><polygon class="cls-3" points="0 0 5.082 0 21.237 0 0 5.667 0 0"/><polygon class="cls-4" points="0 101.007 142.76 54.443 239 75.339 239 160 0 160 0 101.007"/><polygon class="cls-5" points="239 84.302 123.737 160 163.35 160 239 102.503 239 84.302"/><polygon class="cls-5" points="239 79.758 239 65.231 142.76 49.807 0 94.115 0 106.728 143.535 59.821 239 79.758"/><path class="cls-6" d="M178,455.6s2.623-1.07,10.52.782C197,458.37,213,444.88,213,444.88s12.5-11,27.5-9.5,24-3.125,31-8.562S290,416.27,300,417.325s18-8.9,18-8.9a15.675,15.675,0,0,1,12.5,0c6.5,2.958,14.5,5.458,19.5,5.958s14.5-.5,23.5,7,37,5.438,37,5.438L305.042,498.27H178Z" transform="translate(-178 -338.27)"/><path class="cls-7" d="M302,426.818s1.53-10.35,5-11.938c2.119-.969,3-.5,5,0s10.75,1.25,14.25-1.25,6-13.553,6-13.553h10l-1.25,12s0,6.428,6.5,6.866,15.5,0,15.5,0,3.75-.419,2.5,5.134S363,435.13,363,435.13s-19.75-.5-24.25,0-22-3.75-26.5-5.75A38.828,38.828,0,0,0,302,426.818Z" transform="translate(-178 -338.27)"/><path class="cls-8" d="M341,366.38s-11,.023-15.5,2.387a9.985,9.985,0,0,0-5,7.31s-3.5,20.3,3.5,30.053c0,0,26.625,0,42.25-17C366.25,389.13,361.75,368.13,341,366.38Z" transform="translate(-178 -338.27)"/><path class="cls-9" d="M321.625,367.88s0-9.375,19.875-11.875,31.125,3.75,35.125,12.625-2,21.25-7,24.125-18,7.322-18,7.322,10.25-7.572,11.375-23.947C363.368,370.774,321.625,367.88,321.625,367.88Z" transform="translate(-178 -338.27)"/><path class="cls-10" d="M321.625,364.482s14.125-3.477,18.375-2.977,19.5,4.625,32.5,23.125l-8.25,4.875H356.5s-10.75-20.5-17.5-20.75-18.309,5.118-18.309,5.118Z" transform="translate(-178 -338.27)"/><path class="cls-11" d="M333.878,366.755c-1.407-2.038-8.378-16.25-8.378-16.25s3.5-4.25,12.5-4.125l1.75,16-2.375,6.25A5.441,5.441,0,0,1,333.878,366.755Z" transform="translate(-178 -338.27)"/><path class="cls-12" d="M343.125,362.255s1.25-5.5,2.875-7,10.125-6.875,10.125-6.875l2,13.875-14.25,4.25Z" transform="translate(-178 -338.27)"/><g class="cls-13"><path class="cls-14" d="M285.416,445.447a5.687,5.687,0,0,1,2.463-1.37l-1.216.253a20.1,20.1,0,0,1,10.731.954l-1.968-.81a30.329,30.329,0,0,1,4.383,2.309l-3.122-2.766A69.34,69.34,0,0,0,306,451.548c4.5,2.809,9.723,3.923,14.915,4.613,11.123,1.478,22.477.649,33.518-1.093l-2.014-.651,5.772,2.746-1.9-.971c.838.5,2.8,2.164,3.82,1.268,1.7-1.494-2.841-6.483-2.947-6.615l-3.871-4.6a79.189,79.189,0,0,0-7.09-7.368l-1.893-1.041q-.783.105-1.56.238l16.492,18.248c.665-1.445,1.922-2.389,2.709-3.757a2.616,2.616,0,0,0-1.213-2.929,52.334,52.334,0,0,0-5.608-4.155q-3.564-2.5-7.323-4.709a11.427,11.427,0,0,0-5.645-2.38,5.109,5.109,0,0,1-2.254.417c-1.725-.108-3.443-.271-5.163-.435-4.1-.389-8.193-.859-12.294-1.243-6.567-.615-12.905-1.286-19.257-3.14q-3.225-.94-6.448-1.885-3.626-1.419-7.353-2.54c-2.738-.822-5.519-1.419-8.282-2.137-3.444-.894-7.032-1.363-10.545-1.908a1.28,1.28,0,0,0-1.632,1.329l.693,2.019a54.3,54.3,0,0,0,4.168,5.779,103.991,103.991,0,0,0,7.1,8.354C281.588,443.724,283.969,446.534,285.416,445.447Z" transform="translate(-178 -338.27)"/><path class="cls-14" d="M288.139,437.62a7.11,7.11,0,0,1,2.567-1.043l-1.132.25a25.219,25.219,0,0,1,10.725.927l-1.518-.633,3.738,1.608-1.5-.671c3.359,1.988,6.1,4.755,9.535,6.676,7.676,4.3,17.1,4.745,25.68,4.66a122.21,122.21,0,0,0,21.025-1.806c1.251-.231,2.5-.479,3.734-.8,1-.259,1.892-.8,2.88-1.044l-13.334-9.815q3.35,5.1,6.939,10.035a7.783,7.783,0,0,0,4.065,3.437,1.391,1.391,0,0,0,1.78-1.121,6.6,6.6,0,0,0-1.435-4.33,76.769,76.769,0,0,0-4.544-7.216,6.606,6.606,0,0,0-3.285-3.165l-2.281-.31,10.442,14.376a25.9,25.9,0,0,0,2.7-2.4c1.782-2.036-3.154-5.327-4.3-6.3a61.836,61.836,0,0,0-5.2-4.121,7.028,7.028,0,0,0-4.262-2.036,38.751,38.751,0,0,1-7.291,1c-5.165.293-10.33.143-15.5.034a61.258,61.258,0,0,1-18.485-2.765,102.6,102.6,0,0,1-11.084-5.017,39.543,39.543,0,0,0-11.074-3.594c-3-.449-6.378-1.433-9.379-.575a2.133,2.133,0,0,0-.5,2.6,56.952,56.952,0,0,0,7.735,12.456A2.132,2.132,0,0,0,288.139,437.62Z" transform="translate(-178 -338.27)"/><path class="cls-14" d="M290.312,444a7.831,7.831,0,0,1,2.629-1.28,15.573,15.573,0,0,1,3.794-.6l-1.29.125a20.07,20.07,0,0,1,8.963,2.386l-2.056-1.229,4.079,2.538-1.989-1.311c2.913,2.632,5.907,5.246,9.535,6.843a45.819,45.819,0,0,0,14.47,3.291,158.311,158.311,0,0,0,21.339-.121,89.527,89.527,0,0,0,10.777-1.58,20.433,20.433,0,0,0,6.312-1.948l-1.25.354.246-.063q1.848.12,1.3-1.651a15.154,15.154,0,0,0-4.832-5.209q-5.157-4.376-10.608-8.379a15.157,15.157,0,0,0-6.186-3.494l.586.125,1.288-.07-.726-.011,17.052,21.81c.893-1.4,2.341-2.19,3.372-3.474a3.011,3.011,0,0,0-1.283-3.293,70.445,70.445,0,0,0-6.11-5.355q-3.887-3.26-7.993-6.238a15.157,15.157,0,0,0-6.186-3.494q-.96.261-1.915.537l1.253-.343-1.958.523,1.257-.332c-3.593-.126-7.183-.525-10.763-.84-4.947-.436-9.919-.641-14.843-1.276a96.517,96.517,0,0,1-14.434-3.234c-3.4-.98-6.682-2.294-10.032-3.429a26.006,26.006,0,0,0-4.647-1.35,18.379,18.379,0,0,1-4.106-1.241,39.175,39.175,0,0,0-11-1.67,2.983,2.983,0,0,0,.181,3.5,136.614,136.614,0,0,0,12.607,18.954A2.982,2.982,0,0,0,290.312,444Z" transform="translate(-178 -338.27)"/><path class="cls-14" d="M296.738,452.286a7.622,7.622,0,0,1,2.81-1.438l-1.131.267a20.182,20.182,0,0,1,10.775.9l-1.581-.59a20.045,20.045,0,0,1,4.164,2.386l-2.227-2.19a44.908,44.908,0,0,0,7.014,6.333,28.652,28.652,0,0,0,5.979,3.012c9.373,3.391,19.836,3.1,29.626,2.536a96.147,96.147,0,0,0,16.4-2.241,22.144,22.144,0,0,0,2.957-.852,17.542,17.542,0,0,1,1.788-.847L358.3,448.033l-.2.37a2.151,2.151,0,0,0,.294,2.651,81.4,81.4,0,0,0,5.924,8.156,17.733,17.733,0,0,0,4.24,4.224c.7.4,1.791,1.141,2.615.535l.554-1.022a4.661,4.661,0,0,0-1.053-2.977,57.287,57.287,0,0,0-4.622-6.687,21.186,21.186,0,0,0-2.4-2.867,4.667,4.667,0,0,0-2.528-1.894,4.637,4.637,0,0,1-1.7-.049l10.96,14.363c1.083-1.547,2.764-2.4,3.945-3.86,1.7-2.093-3.755-5.188-4.908-6.021a64.527,64.527,0,0,0-5.62-3.766,7.277,7.277,0,0,0-4.485-1.739,9.425,9.425,0,0,1-2.493.715c-1.692.133-3.4.091-5.094.085-5.1-.019-10.192-.268-15.294-.439a71.788,71.788,0,0,1-18.418-2.779,101.735,101.735,0,0,1-11.6-4.637,26.089,26.089,0,0,0-5.837-2.173,28.092,28.092,0,0,0-4.964-1.544c-2.867-.58-6.176-1.465-9.018-.335a2.154,2.154,0,0,0-.447,2.631,59.067,59.067,0,0,0,8.012,12.6A2.153,2.153,0,0,0,296.738,452.286Z" transform="translate(-178 -338.27)"/><path class="cls-14" d="M296.84,445.472a14.133,14.133,0,0,1,4.576-1.612l-1.193.134a20.707,20.707,0,0,1,5.373.172,21.2,21.2,0,0,1,5.539,2l-1.643-.96,3.642,2.307-1.574-1.025c2.689,2.542,5.58,5.15,9.015,6.639a44.612,44.612,0,0,0,8.916,2.634c7.544,1.534,15.539,1.2,23.184.771a104.452,104.452,0,0,0,14.483-1.854,25.728,25.728,0,0,0,6.648-2.089l-1.14.409.27-.059-16.488-14.117.715,2.305a39.495,39.495,0,0,0,3.464,4.983q2.251,3.043,4.779,5.865c.94,1,3.55,4.564,5.307,3.188q-1.554-15.033-11.962-16.9l11.4,17.611c1.088-1.389,2.716-2.077,3.923-3.348a2.441,2.441,0,0,0-.66-2.921,43.981,43.981,0,0,0-4.584-4.471q-2.937-2.711-6.105-5.149a9.756,9.756,0,0,0-4.911-2.765,17.974,17.974,0,0,1-3.371.681c-1.968.141-3.949.17-5.921.214-5.026.113-10.187.055-15.2-.19a60.44,60.44,0,0,1-17.163-3.244c-7.128-2.485-13.621-6.591-21.039-8.309a22.575,22.575,0,0,0-5.213-.672c-.909.006-2.409-.1-3.157.48a2.351,2.351,0,0,0-.529,2.851,78.144,78.144,0,0,0,7.972,15.248A2.352,2.352,0,0,0,296.84,445.472Z" transform="translate(-178 -338.27)"/><path class="cls-14" d="M284.2,441.262a8.049,8.049,0,0,1,2.8-1.03l-.824.214a29.427,29.427,0,0,1,13.453.858l-.793-.461,2.338,2.7,2.848,3.441a22.087,22.087,0,0,0,6.074,2.951,43.2,43.2,0,0,0,9.788,2.043,95.907,95.907,0,0,0,16.386.344c8.321-.465,16.727-1.511,24.655-4.2l-.807.234a4.754,4.754,0,0,1,1.642-.426l-2.46-4.293c-1.114,1.669-2.909,2.3-2.217,4.487a6.331,6.331,0,0,0,2.129,3.224c.827.689,3.008-.414,3.35-1.258.462-1.141-.543-3.2-1.455-3.874l-.617-.454,1.17,1.73-.239-.592.355,2.027,1.529-2.048a1.86,1.86,0,0,0,.278-2.535c-.565-.711-1.767-1.868-2.738-1.758a2.75,2.75,0,0,0-1.317.462l.793-.277c-3.033.938-6.023,1.774-9.123,2.489l.821-.177q-4.164.781-8.353,1.421l.831-.123c-7.914.595-15.779,1.166-23.691.25a48.654,48.654,0,0,1-7.734-1.306,34.657,34.657,0,0,1-7.569-3.2l.76.5c-1.257-1.517-2.34-3.17-3.68-4.611-1.87-2.011-3.308-2.521-6.013-2.888a55.2,55.2,0,0,0-7.55-.414,14.081,14.081,0,0,0-6.273,1.024c-1.277.637-2.4,1.44-1.776,2.984C281.37,439.69,282.834,441.938,284.2,441.262Z" transform="translate(-178 -338.27)"/><path class="cls-14" d="M281.791,444.86l1.008-.731-1.04.448a16.106,16.106,0,0,1,5.388-.678l-1.419-.181a47.686,47.686,0,0,1,5.828.936,20.454,20.454,0,0,1,5.449,2.415l-2.1-1.554c3.475,2.859,6.663,5.747,10.886,7.45a51.92,51.92,0,0,0,14.271,3.464,82.791,82.791,0,0,0,9.834.32q5.5.034,10.993-.35c4.19-.369,8.371-.965,12.508-1.724l-6.873-2.963a33.183,33.183,0,0,0,7.847,4.858c.724.327,1.739.757,2.464.146,1.171-.988.157-2.634-.442-3.577a42.215,42.215,0,0,0-4.313-5.484,15.692,15.692,0,0,0-2.247-2.3,3.617,3.617,0,0,0-2.372-1.394,11.054,11.054,0,0,1-1.413.25L356,455.787c.81-1.151,1.863-2.249,2.581-3.46,1.289-2.176-2.826-4-4.114-4.765a40.36,40.36,0,0,0-4.726-2.52,4.9,4.9,0,0,0-3.778-.822c-2.984,1.262-6.674.829-9.861.757-6.19-.14-12.429-.4-18.594-.96a71.129,71.129,0,0,1-19.5-4.71l1.369.58c-3.7-1.816-7.412-3.86-11.415-4.935a46.755,46.755,0,0,0-9-1.324l1.42.145a44.6,44.6,0,0,0-8.373-1.433,1.692,1.692,0,0,0-1.569,1.4l.3,1.445a22.433,22.433,0,0,0,2.716,3.663,42.488,42.488,0,0,0,4.84,5.061C279.232,444.705,280.525,445.778,281.791,444.86Z" transform="translate(-178 -338.27)"/><path class="cls-14" d="M288.489,454.1l1.111-.856-1.07.436a16.472,16.472,0,0,1,7.686-.814l-1.588-.222a25.777,25.777,0,0,1,6.953,2.24l-2.571-1.579,4.548,2.833-2.485-1.737,1.735,1.458,4.791,3.907a34.6,34.6,0,0,0,4.763,2.462c7.5,3.249,16.208,3.617,24.226,3.516a132.985,132.985,0,0,0,20.12-1.7c2.586-.426,5.053-1.187,7.606-1.7l-13.9-9.922-1.409.654a2.094,2.094,0,0,0,.234,2.583,38.265,38.265,0,0,0,5.015,5.023,40.371,40.371,0,0,0,6.412,5.181c.67.388,1.975.8,2.644.143l.41-1.085a4.546,4.546,0,0,0-1.43-2.769,55.506,55.506,0,0,0-5.432-5.887,20.682,20.682,0,0,0-2.744-2.464,4.554,4.554,0,0,0-2.738-1.489l-.84.2,12.47,11.9.215-1.5-.277,1.117a20.749,20.749,0,0,0,2.708-3.089c1.375-2.235-3.96-4.34-5.18-4.979a54.125,54.125,0,0,0-5.61-2.67,6.273,6.273,0,0,0-4.345-.9c-.5.235-1,.469-1.509.7l1.585-.028-2.624.043,1.589.015c-4.708-.047-9.395-.279-14.091-.643-5.384-.418-10.8-.782-16.151-1.517a79.032,79.032,0,0,1-12.61-2.862c-2.583-.794-5.04-1.714-7.547-2.712a44.344,44.344,0,0,0-4.927-1.856c-1.459-.385-2.894-.867-4.353-1.242a51.917,51.917,0,0,0-6.453-1.062l1.588.221c-2.616-.566-5.407-1.371-8.112-1.129a1.573,1.573,0,0,0-1.529,1.446l.461,1.561a28.76,28.76,0,0,0,3.236,4.026,54.5,54.5,0,0,0,5.626,5.6C285.625,453.728,287.188,455.1,288.489,454.1Z" transform="translate(-178 -338.27)"/><path class="cls-14" d="M297.589,438.581a15.267,15.267,0,0,1,3.124-1.149l-1.06.314a22.318,22.318,0,0,1,3.92-.549,21.947,21.947,0,0,1,4.732,1.126l-1.2-.416a15.287,15.287,0,0,1,5.252,3.25,29.131,29.131,0,0,0,7.732,5.561,37.156,37.156,0,0,0,11.513,3.066,88.031,88.031,0,0,0,16.1.412,108.3,108.3,0,0,0,18.646-2.347c1.336-.3,2.651-.647,3.954-1.068a13.407,13.407,0,0,1,1.846-.606l-9.811-8.854a13.959,13.959,0,0,0,1.634,5.736,26.478,26.478,0,0,0,2.159,3.757,5.334,5.334,0,0,0,3.381,3.032,1.851,1.851,0,0,0,1.921-.859,3.558,3.558,0,0,0-.236-3.206,35.753,35.753,0,0,0-2.375-5.315,3.564,3.564,0,0,0-2.232-2.314l-1.174-.23,1.092.548-.732-.385,4.607,9.8.389-.711-.7.852a25.3,25.3,0,0,0,3.055-2.383c1.7-1.754-1.428-4.184-2.5-5.223a33.361,33.361,0,0,0-3.649-3.213,4.2,4.2,0,0,0-3.232-1.444,18.138,18.138,0,0,0-2.35.7,44.525,44.525,0,0,1-5.065,1.214,86.522,86.522,0,0,1-12.354,1.263,104.522,104.522,0,0,1-12.553.059,45.115,45.115,0,0,1-7.369-1.316c-4.507-1.074-8.074-3.323-11.814-5.97a28.669,28.669,0,0,0-6.671-3.891c-4.661-1.7-9.435-2.528-14.114-.506-2.5,1.079.479,5.614,1.081,6.718C293.369,435.565,295.07,439.677,297.589,438.581Z" transform="translate(-178 -338.27)"/><path class="cls-14" d="M283.864,451.263l1.025-.826-1.045.478a15.64,15.64,0,0,1,7.434-.9l-1.534-.145A26.924,26.924,0,0,1,296.762,452l-2.489-1.464,4.488,2.684-2.426-1.621c3.591,2.919,6.929,5.83,11.265,7.566a53.8,53.8,0,0,0,17.454,3.449,114.27,114.27,0,0,0,31.95-2.4L345.842,455.6q4.248,2.994,8.423,6.086a7.687,7.687,0,0,0,1.789,1.2c.682.369,1.939.747,2.6.094,1.153-1.136-.278-2.9-.959-3.778a52.384,52.384,0,0,0-5.283-5.7,19.466,19.466,0,0,0-2.674-2.377,4.324,4.324,0,0,0-2.68-1.418l-.791.234,12.12,11.5.144-1.418-.285,1.108a18.1,18.1,0,0,0,2.243-2.974c1.192-2.319-3.527-4.068-4.87-4.757a48.172,48.172,0,0,0-5.308-2.46,5.672,5.672,0,0,0-4.128-.753,8.193,8.193,0,0,1-2.5.678l1.527-.033-3.013.022,1.535.013c-6.612-.108-13.133-.648-19.724-1.2-4.236-.353-8.471-.655-12.667-1.377a92.252,92.252,0,0,1-13.549-3.872l1.507.631c-5.565-2.459-11.093-4.919-17.213-5.577-3.285-.352-6.516-1.155-9.831-1.265a1.583,1.583,0,0,0-1.485,1.491l.476,1.515a26.975,26.975,0,0,0,3.246,3.821,51.363,51.363,0,0,0,5.622,5.267C281.078,451.055,282.6,452.283,283.864,451.263Z" transform="translate(-178 -338.27)"/><path class="cls-14" d="M294.427,438.4c1.68-1.091,3.489-1.237,5.427-1.478l-.9.1a32.434,32.434,0,0,1,5.98.315,11.81,11.81,0,0,1,2.5.539,3.856,3.856,0,0,1,2.991,1.984l-.776-.781c1.148,1.559,2.323,3.074,3.619,4.516,1.508,1.678,3.939,2.56,6,3.356a43.07,43.07,0,0,0,10.686,2.275,95.238,95.238,0,0,0,16.363.365c8.133-.472,16.688-1.457,24.347-4.475l-.908.18.277-.036-4.173-4.636-.188,1.165.147-.906a4.925,4.925,0,0,0-.545,3.942,5.847,5.847,0,0,0,2.545,3.763,2.64,2.64,0,0,0,3.454-.936c.436-.975-.262-4.409-1.326-4.892l-1.779-1.687,1.784,5.3,1.822-1.969a1.973,1.973,0,0,0-.021-2.87l-1.168-1.181a6.366,6.366,0,0,0-2.431-1.5c-2.564.3-5.029,1.582-7.508,2.266-12.523,3.458-25.942,3.209-38.608.742l.857.169a32.509,32.509,0,0,1-7.481-3.458l.71.766c-1.558-1.839-2.971-3.9-4.693-5.593a5.673,5.673,0,0,0-5.066-2.492,28.277,28.277,0,0,0-4.585-.487c-4.058-.206-7.808-.08-11.149,2.331-1.223.883.183,3.148.693,4.006C292.005,438.245,293,439.329,294.427,438.4Z" transform="translate(-178 -338.27)"/><path class="cls-14" d="M281.593,445.168l1.17-.6-.84.217a25.669,25.669,0,0,1,15,.429l-1.81-1.306c2.127,1.992,3.736,4.435,5.744,6.528a14.807,14.807,0,0,0,4.572,2.677,39.953,39.953,0,0,0,11.782,2.756,96.13,96.13,0,0,0,16.37.342,104.66,104.66,0,0,0,19.682-2.785c1.861-.464,3.9-1.428,5.821-1.632l-2.933-4.146a25.73,25.73,0,0,0-2,2.121,1.384,1.384,0,0,0-.353,1.668,8.657,8.657,0,0,0,2.609,3.869c.859.738,2.991-.659,3.242-1.516.378-1.291-.918-3.32-1.891-4.043l-.606-.45,1.883,3.952.142-1.494-.388.753c.552-.676,1.234-1.181,1.761-1.884a1.86,1.86,0,0,0,.026-2.573,4.415,4.415,0,0,0-2.959-1.573,11.637,11.637,0,0,0-2.273.7,71.463,71.463,0,0,1-10.006,2.208,105.507,105.507,0,0,1-25.1,1.093,68.211,68.211,0,0,1-10.49-1.651,36.272,36.272,0,0,1-7.545-3.113l1.745,1.427a51.35,51.35,0,0,1-3.677-4.593q-1.345-1.294-2.733-2.542a12.471,12.471,0,0,0-5.358-1.309c-4.12-.344-8.79-.7-12.706.826-1.4.543-2.169,1.828-1.466,3.184C278.531,443.728,280.188,445.883,281.593,445.168Z" transform="translate(-178 -338.27)"/></g><path class="cls-15" d="M309.75,444.38s5.75,6.75,19,0c0,0,6.5-21.61,10-27.055s10-8.9,10-8.9,5.5-12.292,10-14.542c0,0,4.75-4-3-2.25s-12.5,8.447-12.5,8.447.5-4.6.5-6.2c0-1.5-1.375-4.125-2.375.625s-4.934,10.125-6.4,11.875,1.03,2-2.72,7.5S309.75,444.38,309.75,444.38Z" transform="translate(-178 -338.27)"/><path class="cls-16" d="M341.125,361.609s4.125-.929,4.625,2.784-1.914,4.917-3.5,5.7a4.171,4.171,0,0,1-4.375,0c-1.395-.789-3.108-4.376-1.233-6.5A6.044,6.044,0,0,1,341.125,361.609Z" transform="translate(-178 -338.27)"/><path class="cls-17" d="M329.625,374.13s-3.125-.875-5,2.625" transform="translate(-178 -338.27)"/><path class="cls-17" d="M343.75,377.764s5.375-1.009,4.875,5.116" transform="translate(-178 -338.27)"/><path class="cls-17" d="M329.625,382.13s2.75,4.75-1.75,7.375l1.291,2.875" transform="translate(-178 -338.27)"/><path class="cls-17" d="M327.125,397.255s1.566,3.125,7.845,1.75" transform="translate(-178 -338.27)"/><path class="cls-18" d="M324,380.291s5.247-1.62,5.166,3.339" transform="translate(-178 -338.27)"/><path class="cls-18" d="M339.75,386.005s3.634-4.625,6.067,3.5" transform="translate(-178 -338.27)"/><path class="cls-19" d="M218,480.38s18-16.5,21-19.5,8.5-2.5,10.5,0,12,14.5,12,14.5-20.333,12.5-25.167,12.5S221.5,486.88,218,480.38Z" transform="translate(-178 -338.27)"/><path class="cls-20" d="M236.333,487.88s21.667-21,24.667-24,8.5-2.5,10.5,0,12,14.5,12,14.5-20.333,12.5-25.167,12.5S239.833,494.38,236.333,487.88Z" transform="translate(-178 -338.27)"/><path class="cls-21" d="M283.5,348.38c4.189-.739,7.647-5.485,10.079-10.11H197.864a47.085,47.085,0,0,0,24.557,5.813c16.92-.8,18.579,5.3,13.912,7.994s-12.833-1.7-18.333,12,29.5,11.8,38.611,12.772,11.227,2.492,4.889,6.781c-13.5,9.137,4.5,12.25,11.5,12.792s16-3.542,17-6.917-.5-4.625-8.875-6.625-.63-3.5,2.375-7.486c5-6.627-2.5-11.514-8.5-13.938s-11.5-5.076-10-9.379S275,349.88,283.5,348.38Z" transform="translate(-178 -338.27)"/><path class="cls-22" d="M389.5,352.077c13,8.8,5,13.259,0,14.031s-22.24,4.969-23.745,14.183,24.857,6.173,30.8,4.131S409,375.38,407.5,368.63c-1.3-5.832-2.208-14.537,9.5-16.28V338.27H383.153C382.541,342.815,383.586,348.073,389.5,352.077Z" transform="translate(-178 -338.27)"/><path class="cls-14" d="M216.179,479.062a24.1,24.1,0,0,1,2.4-8.246L218,471.877a11.49,11.49,0,0,1,1.951-2.476,9.425,9.425,0,0,1,3.7-2.656l-1.758.873,1.519-.3-9.155.9,6.791-.224-16.476-1.105q9.869,7.43,19.525,15.133a29.206,29.206,0,0,0,4.33,2.545c4.052,1.793,8.958,2.51,13.335,2.934a94.677,94.677,0,0,0,12.5.272,24.019,24.019,0,0,0,5.851-.567q1.693-.015,1.293-1.661a7.831,7.831,0,0,0-2.637-3.21,60.261,60.261,0,0,0-6.09-5.114,76.065,76.065,0,0,0-8.191-5.772,18.384,18.384,0,0,0-4.614-1.03q-4.1-.5-8.159-1.27-2.171-.393-4.323-.88-2.566-.957-5.065-2.083a59.744,59.744,0,0,1-5.725-1.924,5.966,5.966,0,0,0-5-1.07l14.207,17.125.266-5.435-.1,1.21a14.577,14.577,0,0,0,1.757-5.412,7.165,7.165,0,0,0,.081-3.695,2.424,2.424,0,0,0-2.157-2.049,43.207,43.207,0,0,0-6.238-1.134q-3.911-.6-7.861-.842a9.589,9.589,0,0,0-5.563.461l-1.424,1.363,1.835-.735a20.243,20.243,0,0,0-4.793,2.27c-1.181.824-2.193,1.856-3.384,2.655-1.363.915-2.661,1.909-3.969,2.9-.776.586-1.083,1.1-.565,2.027l1.594,1.209a46.825,46.825,0,0,0,6.248,2.17,89.467,89.467,0,0,0,9.864,2.5C212.105,479.9,215.97,480.777,216.179,479.062Z" transform="translate(-178 -338.27)"/><path class="cls-14" d="M219.314,471.056a41.551,41.551,0,0,1,4.024-10.1l-.653,1a11.055,11.055,0,0,1,4.018-3.5l-1.787.617,1.344-.3-13.771-1.012L228,460.036l-15.54-4.135,12.6,5L214.1,455.81l6.6,6.622-4.571-5.459c2.144,3.434,4.29,6.862,6.517,10.242a27.833,27.833,0,0,0,4.367,5.816,26.658,26.658,0,0,0,12.553,6.265,68.02,68.02,0,0,0,14.873,1.093,41.322,41.322,0,0,0,8.582-.657c3.333-.788-.043-4.324-1.058-5.473a81.555,81.555,0,0,0-6.318-6.113,6.956,6.956,0,0,0-4.041-2.39,35.8,35.8,0,0,0-4.515,0c-2.63-.046-5.253-.2-7.874-.435a9.737,9.737,0,0,1-4.264-.714q-1.843-.594-3.634-1.33a45.733,45.733,0,0,1-4.805-2.76,13.276,13.276,0,0,0-4.987-2.864l1.282.843-2.334-1.795,7.753,12.779.5-12.263a2.367,2.367,0,0,0-2.116-2.008,40.6,40.6,0,0,0-6.065-1.021q-3.8-.526-7.635-.7a9.073,9.073,0,0,0-5.391.562,21.677,21.677,0,0,0-3.145,1.976,12.453,12.453,0,0,0-2.93,3.585,4.639,4.639,0,0,0-.936,3.871,8.2,8.2,0,0,0,4.091,3.105q3.2,1.714,6.547,3.106a36.26,36.26,0,0,0,5.434,2.067A2.281,2.281,0,0,0,219.314,471.056Z" transform="translate(-178 -338.27)"/><path class="cls-14" d="M221.352,477.624c.445-1.888.624-3.783,1.234-5.648a22.548,22.548,0,0,1,2.353-4.876l-.774,1.036a10.721,10.721,0,0,1,4.313-3.322l-2.3.767,1.494-.2-18.428.24,8.209.2-11.56-.958,23.539,3.825-22.921-7.237a244.188,244.188,0,0,0,23.59,20.012,20.808,20.808,0,0,0,5.957,2.406,64.748,64.748,0,0,0,13.977,2.068,106.309,106.309,0,0,0,11.347-.035,21.743,21.743,0,0,0,4.9-.682,3.016,3.016,0,0,0-1.008-3.391,70.985,70.985,0,0,0-5.654-5.851q-3.609-3.575-7.46-6.889a15.21,15.21,0,0,0-5.883-4,13.42,13.42,0,0,0-2.309-.336q-1.95-.222-3.891-.5a74.744,74.744,0,0,1-7.844-1.328q-1.928-.562-3.809-1.259a14.874,14.874,0,0,0-4.716-1.077,50.478,50.478,0,0,1-6.3-1.663,15.138,15.138,0,0,0-4.512.485l1.253-.126-2.826-.082,17.662,18.558a20.884,20.884,0,0,0,1.772-14.148,3.041,3.041,0,0,0-3.066-1.809,72.056,72.056,0,0,0-8.188-.467q-5.117-.18-10.235,0a15.438,15.438,0,0,0-7.094,1.048,40.484,40.484,0,0,0-8.616,5.76,3.04,3.04,0,0,0,2.334,2.687,102.133,102.133,0,0,0,10.828,4.2,102.122,102.122,0,0,0,11.134,3.3A3.041,3.041,0,0,0,221.352,477.624Z" transform="translate(-178 -338.27)"/><path class="cls-14" d="M228.684,484.547a14.032,14.032,0,0,1,5.143-11.336l-1.13,1.031a8.35,8.35,0,0,1,2.942-1.944L225.1,474.933,235.7,473.26l-8.049.96,8.634-.136L224.418,472.7l1.719,1.2-.8-2.321a2.32,2.32,0,0,0-.106,2.459,9.83,9.83,0,0,0,.958,2.02,80.112,80.112,0,0,0,6.518,9.449A21.182,21.182,0,0,0,244.7,493.1a65.271,65.271,0,0,0,17.109,1.57c3.309-.039,7.12.1,10.358-.806,3.376-.943-.506-4.468-1.514-5.461a85.573,85.573,0,0,0-6.887-5.811,7.252,7.252,0,0,0-4.281-2.183c-1.437-.177-2.981-.05-4.428-.129-2.528-.138-5.058-.308-7.577-.561a34.228,34.228,0,0,1-7.617-1.749,37.766,37.766,0,0,1-5.228-1.895,8.239,8.239,0,0,0-4.921-1.7L237.4,487.1l.639-6.039-.329,1.082c1.747-3.082,4.725-7.417,2.711-11.154l-.926-1.4a18.8,18.8,0,0,0-3-1.033,25.456,25.456,0,0,0-4.852.441,51.63,51.63,0,0,0-5.961,1.121,12.558,12.558,0,0,0-5.577,2.586q-1.257,1.116-2.486,2.262l1.13-1.032a24.286,24.286,0,0,0-7.88,6.613,2.115,2.115,0,0,0,1.475,2.165,55.1,55.1,0,0,0,14.079,3.164A2.113,2.113,0,0,0,228.684,484.547Z" transform="translate(-178 -338.27)"/><path class="cls-14" d="M228.391,478.36a32.613,32.613,0,0,1,2.693-9.136l-.674,1.014c1.572-2.342,2.96-3.961,5.558-5.123l-5.85,1.3,5.43-.65-15.319.56,13.417.955-14.325-2.487,13.753,6.316-11.64-6.56q4.527,5.815,9.324,11.407a32.842,32.842,0,0,0,6.449,6.824c3.578,2.639,8.334,3.648,12.633,4.295a79.547,79.547,0,0,0,13.334.667,60.209,60.209,0,0,0,8.7-.682q1.581.127,1.516-1.459a9.577,9.577,0,0,0-3.008-4.7q-3.485-3.962-7.309-7.593a9.58,9.58,0,0,0-4.583-3.186c-4.265-.016-8.531-.207-12.781-.642a43.832,43.832,0,0,1-9.059-2.4,31.473,31.473,0,0,1-5.467-2.3,16.757,16.757,0,0,1-6.464-1.479l11.458,14.3a25.813,25.813,0,0,1,2.939-5.723,26.81,26.81,0,0,0-1.027-7.934c-.344-2.254-5.75-2.029-6.563-2.058l-5.676-.043a70.814,70.814,0,0,0-9.644.6,27.024,27.024,0,0,0-7.052,3.771,9.591,9.591,0,0,0-3.221,3.508,2.537,2.537,0,0,0,1.711,2.576,68.857,68.857,0,0,0,8.707,3.857,68.663,68.663,0,0,0,9.048,2.972A2.538,2.538,0,0,0,228.391,478.36Z" transform="translate(-178 -338.27)"/><path class="cls-14" d="M218.792,470.319c.435-3.343,2.381-6.434,4.076-9.279l-.452.731c1.446-2.131,2.651-3.885,5.058-4.915l-1.012.117,2.055-.026-4.368-1.7.5,2.131-.152-.854.287,3.574-.058-.855-.476,4.259.1-.833-1.512,4.895a9.443,9.443,0,0,0-1.271,5.009,18.256,18.256,0,0,0,.405,4.87,3.593,3.593,0,0,0,2.361,2.731c7.6,2.8,16.017,2.977,24.049,2.936a51.964,51.964,0,0,0,12.925-1.246,2.307,2.307,0,0,0,1.491-3.087,6.051,6.051,0,0,0-1.627-1.743,1.333,1.333,0,0,0-1.644-.159l-.461.127.817-.191a80.809,80.809,0,0,1-14.292.979c-7.1-.087-14.117-.537-20.912-2.687l2.361,2.73a12.112,12.112,0,0,1,1-9.978,30.231,30.231,0,0,0,2.33-8.118,21.8,21.8,0,0,0-.563-6.13,6.024,6.024,0,0,0-4.368-1.7,7.768,7.768,0,0,0-4.512,2.466,34.356,34.356,0,0,0-3.636,4.884,32.428,32.428,0,0,0-4.5,10.653c-.342,1.532,2.3,2.523,3.375,2.724C217.723,472.934,218.6,471.8,218.792,470.319Z" transform="translate(-178 -338.27)"/><path class="cls-14" d="M214.485,478a24.772,24.772,0,0,1,1.19-5.206,22.391,22.391,0,0,1,3.372-5.244l-.944.91,2.335-2.2-.964.89a6.046,6.046,0,0,1,2.821-1.427l-5.436.768,4.462-.322-6.429-.178,6.9.779-9.107-2.57,1.509,1.552-.253-2.242a4.176,4.176,0,0,0-.326,3.294,5.77,5.77,0,0,0,1.214,3.5c.779,1.54,1.576,3.076,2.439,4.571,1.744,3.022,4.085,6.51,7.141,8.341a32.019,32.019,0,0,0,5.6,2.582c5.31,1.922,11.159,2,16.745,2.029,3.2.017,7.043.228,10.19-.651a1.553,1.553,0,0,0,1.18-1.743A5.072,5.072,0,0,0,255.6,482.4a56.189,56.189,0,0,0-6.039-4.09,5.071,5.071,0,0,0-3.749-1.219c-2.083-.258-4.239-.192-6.334-.329-3.543-.232-7.061-.7-10.577-1.176l1.409.334c-2.677-.953-5.044-1.686-7.31-3.443-1.839-1.426-3.446-3.079-5.183-4.624l5.871,9.9-.6-2.6.03,1.318a26.568,26.568,0,0,1,2.057-6.185,6.523,6.523,0,0,0-1.529-6.43c-.6-1.816-1.961-1.883-3.814-1.943l-3.218.054a22.969,22.969,0,0,0-5.436.768,31.471,31.471,0,0,0-5.369,4.948l.944-.91a39.634,39.634,0,0,0-6.2,7.19,1.941,1.941,0,0,0,.962,2.141,25.206,25.206,0,0,0,5.372,2.049C208.024,478.482,213.939,480.771,214.485,478Z" transform="translate(-178 -338.27)"/><path class="cls-14" d="M220.808,486.858a14.921,14.921,0,0,1,.622-4.518l-.264,1.077a16.524,16.524,0,0,1,2.1-4l-.809.947a27.43,27.43,0,0,1,5.884-5.447l-1.917.894,1.308-.478-8.019,1.355,9.358,1.131-9.02-4.077-.236.459.759-.81c-1.4,1.474-2.083,1.892-1.879,3.835.243,2.324,1.832,4.063,3.068,5.981a40.99,40.99,0,0,0,3.125,4.412l3.181,3.525a21.458,21.458,0,0,0,6.788,3.457c5.55,1.71,11.346,2.058,17.116,2.119,2.716.029,5.475-.029,8.186-.247a17.377,17.377,0,0,0,3.658-.52c2.635-.8.131-3.272-.908-4.092a31.186,31.186,0,0,0-4.712-3.222,39.312,39.312,0,0,0-6.377-3.335c-6-.53-11.937-1.1-17.892-2.1l1.547.436q-3.316-1.11-6.524-2.5l1.462.606-3.726-1.761,1.411.672c-2.323-1.322-4.284-2.953-6.813-3.855l8.275,10.662-.51-2.5.182,1.345a22.054,22.054,0,0,1,1.9-4.434,12.638,12.638,0,0,0,1.83-5.421,6.89,6.89,0,0,0-1.325-4.556l-1.117-.6a14.541,14.541,0,0,0-3.676.067c-1.993.184-4.813.282-6.584,1.287a16.158,16.158,0,0,0-3.953,2.743l-1.27,1.45a25.489,25.489,0,0,0-2.444,1.744,58.9,58.9,0,0,0-5.857,5.3,1.814,1.814,0,0,0-.284,2.085c1.022,1.525,3.452,1.576,5.061,1.852a34.886,34.886,0,0,0,6.305.619C218.819,488.426,220.718,488.324,220.808,486.858Z" transform="translate(-178 -338.27)"/><path class="cls-14" d="M227.6,470.731A40.614,40.614,0,0,1,231.5,460l-.591.994a9.99,9.99,0,0,1,4.027-3.526l-1.558.6,1.35-.25-7.473-.458,5.589.675-8.5-1.554,5.807,1.6-6.3-2.384,7.361,3.78-5.309-3.086,3.193,2.963-1.565-1.684,2.176,3.58-.931-1.888a93.592,93.592,0,0,0,3.792,9.7c1.076,2.3,2.119,4.829,4.143,6.5a22.714,22.714,0,0,0,9.056,4.64c4.97,1.106,10.132,1.053,15.189.909a52.465,52.465,0,0,0,10.145-.88c2.69-.622,1.237-3.138.231-4.561a41.575,41.575,0,0,0-4.164-4.7,3.993,3.993,0,0,0-2.98-1.717,30.567,30.567,0,0,1-6.837.748c-1.967.11-3.939.168-5.91.2a36.712,36.712,0,0,1-8.374-.9l1.052.523L240.9,468.17l1.005.595-3.033-1.894.962.65a38.048,38.048,0,0,1-3.194-2.7,13.269,13.269,0,0,1-3.473-4.107l3.815,8.336a27.845,27.845,0,0,1,1.208-4.254q1.977-4.2-1.278-8.509a2.154,2.154,0,0,0-1.743-2.022,30.184,30.184,0,0,0-5.183-1.068,61.152,61.152,0,0,0-6.546-.76,6.95,6.95,0,0,0-4.664.518,16.769,16.769,0,0,0-3.871,2.477,6.021,6.021,0,0,0-1.685,2.6,10.711,10.711,0,0,0-.718,5.272,5.931,5.931,0,0,0,3.068,3.015,50.859,50.859,0,0,0,5.186,3.036,25.077,25.077,0,0,0,4.38,2.029A2.06,2.06,0,0,0,227.6,470.731Z" transform="translate(-178 -338.27)"/><path class="cls-14" d="M214.916,483.854a8.085,8.085,0,0,1,.518-3.153A16.35,16.35,0,0,1,218,476.872l-.851.9a26.187,26.187,0,0,1,3.764-3.275,7.656,7.656,0,0,1,3.927-2.65l-4.891,1.255,4.067-.546-9.113-.428,1,.8-.436-2.222c-2.645,2.974.045,6.375,1.824,9.161a41.05,41.05,0,0,0,3.11,4.431l3.1,3.6a21.113,21.113,0,0,0,6.635,3.55c5.465,1.857,11.216,2.229,16.941,2.346,2.72.056,5.476.016,8.191-.185a16.435,16.435,0,0,0,3.6-.487,1.448,1.448,0,0,0,1.073-1.81,4.015,4.015,0,0,0-1.913-2.2,28.237,28.237,0,0,0-4.517-3.022,35.626,35.626,0,0,0-6.12-3.077c-2.221-.206-4.454-.285-6.677-.488-3.933-.358-7.82-.983-11.71-1.648l1.526.363a35.607,35.607,0,0,1-7.351-3.388c-1.767-1.183-3.287-2.633-5.048-3.816l6.94,10.123-.485-2.506.157,1.35,1.115-3.447-.4,1.04c1.226-2.637,2.689-5.257,2.489-8.247a5.521,5.521,0,0,0-1.078-3.209c-.9-1.3-3.366-.857-4.659-.813a18.718,18.718,0,0,0-2.972.217,14.013,14.013,0,0,0-3.538.676,18.581,18.581,0,0,0-4.043,3.046l-1.269,1.514q-1.459.767-2.837,1.669a36.934,36.934,0,0,0-6.342,4.881,1.841,1.841,0,0,0-.371,2.071c.938,1.554,3.324,1.708,4.9,2.048a33.842,33.842,0,0,0,6.178.864C212.9,485.342,214.773,485.305,214.916,483.854Z" transform="translate(-178 -338.27)"/><path class="cls-14" d="M226.332,467.272a23.473,23.473,0,0,1,1.8-6.8l.976-1.922a6.442,6.442,0,0,1,2.538-2.98l-.925.713a5.666,5.666,0,0,1,2.856-1.279l-1.878.084,1.247.08-6.668-2.037,3.353,1.958-1.414-.886a5.547,5.547,0,0,1,2.125,2.8,10.381,10.381,0,0,1,1.278,5.045l-.2-1.156c-.356,3.05-.746,5.3-.162,8.355a23.613,23.613,0,0,0,1.361,4.665c.793,1.879,1.859,2.5,3.836,3.446a26.076,26.076,0,0,0,6.84,2.363,69.57,69.57,0,0,0,8.225.494c2.807.091,5.608.141,8.416.086a41.461,41.461,0,0,0,9.9-.978,2.2,2.2,0,0,0,1.418-3.305c-.58-1.115-2.327-3.621-3.907-3.017a25.511,25.511,0,0,1-6.912,1.109,146.059,146.059,0,0,1-17.291-.2l.863.076a40.613,40.613,0,0,1-8.432-3.64l1.26,1.91-.9-5.124-.021,1.072c1.349-4.725,3.561-10.973.407-15.482l-.667-.927a10.532,10.532,0,0,0-2.9-1.155c-1.5-.451-4.04-1.388-5.605-.977a12.739,12.739,0,0,0-4.692,2.154,14.525,14.525,0,0,0-2.436,2.147,2.934,2.934,0,0,0-1.247,2.195,27.414,27.414,0,0,0-1.427,8.093,2.51,2.51,0,0,0,1.441,2.16,21.732,21.732,0,0,0,3.871,2.364C224.284,469.458,226.061,469.444,226.332,467.272Z" transform="translate(-178 -338.27)"/><path class="cls-14" d="M215.821,473.96a26.031,26.031,0,0,1,3.958-8.517c1.374-2.138,2.685-3.912,5.056-4.9l-.9.207,1,0-3.283-2.129a14.041,14.041,0,0,1,.538,4.928,17.161,17.161,0,0,1-1.3,5.527q-1.045,3.07-2.194,6.1a14.3,14.3,0,0,0,.322,6.36,4.041,4.041,0,0,0,1.974,2.372,25.8,25.8,0,0,0,6.805,1.979l3.568.453a113.288,113.288,0,0,0,12.639.684c4.493.022,9.382.015,13.8-1.042,1.081-.259,2.527-1.372,2.4-2.658-.091-.9-2.148-3.127-3.159-2.848a22.129,22.129,0,0,1-3.442.516,84.081,84.081,0,0,1-9.729.481c-7.5-.034-15.149-.437-22.381-2.528l2.8,2.663a9.366,9.366,0,0,1,0-7.524q1.082-3.314,2.42-6.534a20.67,20.67,0,0,0,.383-9.5,1.967,1.967,0,0,0-1.49-1.652,4.915,4.915,0,0,0-2.725-.387c-3.838.574-6.07,4.16-8.037,7.2a36.163,36.163,0,0,0-4.524,9.916,2.653,2.653,0,0,0-.042,1.883c.459.811,1.763,1.145,2.572,1.352a2.127,2.127,0,0,0,1.949-.141A3.4,3.4,0,0,0,215.821,473.96Z" transform="translate(-178 -338.27)"/></svg>