<svg id="レイヤー_3" data-name="レイヤー 3" xmlns="http://www.w3.org/2000/svg" xmlns:xlink="http://www.w3.org/1999/xlink" viewBox="0 0 239 160"><defs><style>.cls-1{fill:#f2ef80;}.cls-2{fill:url(#新規グラデーションスウォッチ_4);}.cls-3{fill:#00542f;}.cls-4{fill:url(#新規グラデーションスウォッチ_6);}.cls-5{fill:url(#新規グラデーションスウォッチ_4-2);}.cls-6{fill:url(#名称未設定グラデーション_180);}.cls-7{fill:url(#名称未設定グラデーション_136);}.cls-8{fill:url(#名称未設定グラデーション_136-2);}.cls-9{fill:url(#名称未設定グラデーション_136-3);}.cls-10{fill:url(#名称未設定グラデーション_153);}.cls-11{fill:url(#名称未設定グラデーション_156);}.cls-12{fill:url(#名称未設定グラデーション_136-4);}.cls-13{fill:url(#名称未設定グラデーション_170);}.cls-14{fill:url(#名称未設定グラデーション_170-2);}.cls-15{fill:url(#名称未設定グラデーション_153-2);}.cls-16{fill:url(#新規グラデーションスウォッチ_1);}.cls-17{fill:url(#名称未設定グラデーション_139);}.cls-18{fill:url(#名称未設定グラデーション_138);}.cls-19{fill:#003b8a;}.cls-20{fill:#00529d;}.cls-21{fill:url(#名称未設定グラデーション_138-2);}.cls-22{fill:url(#名称未設定グラデーション_138-3);}.cls-23{fill:url(#新規グラデーションスウォッチ_7);}.cls-24{fill:#6a3906;}.cls-25,.cls-26,.cls-29,.cls-31,.cls-32{fill:none;stroke-miterlimit:10;}.cls-25,.cls-26{stroke:#6a3906;}.cls-25{stroke-width:2px;}.cls-27{fill:#63c5f1;}.cls-28{fill:#fff;}.cls-29{stroke:#231815;stroke-width:0.5px;}.cls-30{fill:#ea5514;}.cls-31,.cls-32{stroke:#ea5514;}.cls-31{stroke-width:6.959px;}.cls-32{stroke-width:5.965px;}</style><linearGradient id="新規グラデーションスウォッチ_4" x1="297.704" y1="489.43" x2="381.128" y2="489.43" gradientUnits="userSpaceOnUse"><stop offset="0" stop-color="#b1cfd4"/><stop offset="1" stop-color="#43aa88"/></linearGradient><linearGradient id="新規グラデーションスウォッチ_6" x1="282.439" y1="476.985" x2="381.939" y2="476.985" gradientUnits="userSpaceOnUse"><stop offset="0" stop-color="#9fcf8d"/><stop offset="0.112" stop-color="#b6d8a6"/><stop offset="0.272" stop-color="#d2e2c4"/><stop offset="0.409" stop-color="#e3e9d6"/><stop offset="0.507" stop-color="#e9ebdd"/><stop offset="0.648" stop-color="#d4e4cc"/><stop offset="0.854" stop-color="#bbdcb8"/><stop offset="0.98" stop-color="#b2d9b1"/></linearGradient><linearGradient id="新規グラデーションスウォッチ_4-2" x1="143.128" y1="72.485" x2="220.75" y2="72.485" xlink:href="#新規グラデーションスウォッチ_4"/><radialGradient id="名称未設定グラデーション_180" cx="179.939" cy="72.485" r="42.896" gradientUnits="userSpaceOnUse"><stop offset="0" stop-color="#9fcf8d"/><stop offset="0.041" stop-color="#b6d8a6"/><stop offset="0.1" stop-color="#d2e2c4"/><stop offset="0.151" stop-color="#e3e9d6"/><stop offset="0.187" stop-color="#e9ebdd"/><stop offset="0.302" stop-color="#dce7d2"/><stop offset="0.547" stop-color="#c5dfc0"/><stop offset="0.779" stop-color="#b7dbb5"/><stop offset="0.98" stop-color="#b2d9b1"/></radialGradient><linearGradient id="名称未設定グラデーション_136" x1="329.064" y1="371.224" x2="329.064" y2="458.485" gradientUnits="userSpaceOnUse"><stop offset="0" stop-color="#fff"/><stop offset="1" stop-color="#a3bfce"/></linearGradient><linearGradient id="名称未設定グラデーション_136-2" x1="288.877" y1="373.278" x2="288.877" y2="422.778" xlink:href="#名称未設定グラデーション_136"/><linearGradient id="名称未設定グラデーション_136-3" x1="361.064" y1="374.985" x2="361.064" y2="435.985" xlink:href="#名称未設定グラデーション_136"/><linearGradient id="名称未設定グラデーション_153" x1="311.064" y1="468.86" x2="269.814" y2="468.86" gradientUnits="userSpaceOnUse"><stop offset="0.197" stop-color="#f6ac58"/><stop offset="1" stop-color="#fad4ca"/></linearGradient><linearGradient id="名称未設定グラデーション_156" x1="357.758" y1="449.052" x2="300.709" y2="481.99" gradientUnits="userSpaceOnUse"><stop offset="0.197" stop-color="#f6ac58"/><stop offset="0.519" stop-color="#f6ad5c"/><stop offset="1" stop-color="#fad4ca"/></linearGradient><linearGradient id="名称未設定グラデーション_136-4" x1="363.257" y1="446.985" x2="363.257" y2="479.485" xlink:href="#名称未設定グラデーション_136"/><linearGradient id="名称未設定グラデーション_170" x1="323.911" y1="446.985" x2="323.911" y2="402.86" gradientUnits="userSpaceOnUse"><stop offset="0.03" stop-color="#003686"/><stop offset="1" stop-color="#0073bc"/></linearGradient><linearGradient id="名称未設定グラデーション_170-2" x1="323.064" y1="393.235" x2="323.064" y2="404.36" xlink:href="#名称未設定グラデーション_170"/><linearGradient id="名称未設定グラデーション_153-2" x1="287.463" y1="432.631" x2="312.609" y2="457.776" xlink:href="#名称未設定グラデーション_153"/><linearGradient id="新規グラデーションスウォッチ_1" x1="369.064" y1="448.82" x2="307.936" y2="448.82" gradientUnits="userSpaceOnUse"><stop offset="0" stop-color="#f6ac58"/><stop offset="1" stop-color="#fad4ca"/></linearGradient><linearGradient id="名称未設定グラデーション_139" x1="358.564" y1="425.792" x2="358.564" y2="453.985" gradientUnits="userSpaceOnUse"><stop offset="0" stop-color="#fff"/><stop offset="0.305" stop-color="#dfe9ee"/><stop offset="0.765" stop-color="#b4cbd7"/><stop offset="1" stop-color="#a3bfce"/></linearGradient><linearGradient id="名称未設定グラデーション_138" x1="287.064" y1="419.373" x2="287.064" y2="444.485" gradientUnits="userSpaceOnUse"><stop offset="0" stop-color="#fff"/><stop offset="0.175" stop-color="#f8fafb"/><stop offset="0.435" stop-color="#e4ecf0"/><stop offset="0.747" stop-color="#c3d5df"/><stop offset="1" stop-color="#a3bfce"/></linearGradient><linearGradient id="名称未設定グラデーション_138-2" x1="312.797" y1="382.735" x2="312.797" y2="405.86" xlink:href="#名称未設定グラデーション_138"/><linearGradient id="名称未設定グラデーション_138-3" x1="334.166" y1="376.985" x2="334.166" y2="403.735" xlink:href="#名称未設定グラデーション_138"/><linearGradient id="新規グラデーションスウォッチ_7" x1="323.51" y1="341.84" x2="323.51" y2="398.028" gradientUnits="userSpaceOnUse"><stop offset="0" stop-color="#ef7d4d"/><stop offset="1" stop-color="#fad4ca"/></linearGradient></defs><rect class="cls-1" width="239" height="160"/><path class="cls-2" d="M333.064,487.485l-35.36-6,2.757,17.89H357.1c1.707-1.685,4.532-3.462,9.215-4.89,20.5-6.25,13.75-15,13.75-15Z" transform="translate(-178.064 -339.375)"/><ellipse class="cls-3" cx="154.25" cy="129.61" rx="39.25" ry="10.5"/><path class="cls-4" d="M332.189,457.485c-27.476,0-49.75,8.73-49.75,19.5s22.274,19.5,49.75,19.5,49.75-8.731,49.75-19.5S359.665,457.485,332.189,457.485Zm0,21.5c-18.778,0-34-4.7-34-10.5s15.222-10.5,34-10.5,34,4.7,34,10.5S350.967,478.985,332.189,478.985Z" transform="translate(-178.064 -339.375)"/><ellipse class="cls-5" cx="181.939" cy="72.485" rx="38.811" ry="46.625"/><ellipse class="cls-6" cx="179.939" cy="72.485" rx="38.811" ry="46.625"/><path class="cls-7" d="M289.564,372.985l38.5,2.5,11.5-1.25s17-7.25,29,.75l-14.5,83.5s-48-2-49-4-15-64-15.5-77" transform="translate(-178.064 -339.375)"/><path class="cls-8" d="M289.627,373.278l7.5,24.5v25h-16.5S282.127,393.278,289.627,373.278Z" transform="translate(-178.064 -339.375)"/><path class="cls-9" d="M368.564,374.985s-11,4-15,15.5c0,0-3.5,26.5-4.5,37.5l24,8S367.564,383.485,368.564,374.985Z" transform="translate(-178.064 -339.375)"/><path class="cls-10" d="M301.064,444.485s-21.25.75-26.25,2.5-5,2.25-5,7,1.25,40.5,1.25,40.5l19.75-3.75s3.25-12.5,3.75-21.25l16.5,1.5-3.128-27.75Z" transform="translate(-178.064 -339.375)"/><path class="cls-11" d="M306.564,448.82l-2.25,39.415,23.75,7.75,2.75-21.75s23.25,6,33.5-3l-7.75-24.25Z" transform="translate(-178.064 -339.375)"/><path class="cls-12" d="M353.064,453.985s4.75,21.25,20,25.5c0,0,3-24.75-7.75-32.5Z" transform="translate(-178.064 -339.375)"/><path class="cls-13" d="M317.189,446.985s0-30.25,3.375-44.125h4.625s7,12.625,5.125,43.25Z" transform="translate(-178.064 -339.375)"/><path class="cls-14" d="M315.814,395.735c0-.75,5.75-2.5,5.75-2.5h6.75l2,2.5-3.625,8.625-6.355-.118S315.814,400.235,315.814,395.735Z" transform="translate(-178.064 -339.375)"/><path class="cls-15" d="M280.564,439.878v4.607s11.048,9.312,36.524,6.406l4.476-2.071s-3-7.335-20.5-13.835C301.064,434.985,290.064,427.271,280.564,439.878Z" transform="translate(-178.064 -339.375)"/><path class="cls-16" d="M347.064,439.888s20.5-.9,22,14.1c0,0-4.5,8.5-39.5,0s-17-5.165-17-5.165.5-3.335,7.5-4.335S347.064,439.888,347.064,439.888Z" transform="translate(-178.064 -339.375)"/><path class="cls-17" d="M342.564,440.485s1.5-9,5-14.5c0,0,14.5-2.5,27,10.5,0,0-.5,12.5-5.5,17.5C369.064,453.985,364.564,441.485,342.564,440.485Z" transform="translate(-178.064 -339.375)"/><path class="cls-18" d="M276.064,444.485s13.5-10.5,25-9.5l-3.36-15.61s-12.14-.39-24.64,9.61Z" transform="translate(-178.064 -339.375)"/><polygon class="cls-19" points="84.382 160 151.176 160 142.25 154.11 115 150.11 87.25 156.61 84.382 160"/><path class="cls-20" d="M263.314,488.735l2,7.25h15.25s4.717-2.57,8.75-2.931c11.775-1.056,27.726,3.184,37.555,6.321H341.5C298,471.894,263.314,488.735,263.314,488.735Z" transform="translate(-178.064 -339.375)"/><path class="cls-21" d="M312.814,405.86s2.5-6.625,5.625-9.625l-11.125-13.5S305.689,390.36,312.814,405.86Z" transform="translate(-178.064 -339.375)"/><path class="cls-22" d="M327.314,395.735c-.546.12,3.875,2,6.25,8,0,0,7.125-9.5,7.5-26.75l-1.5,3.125S335.814,393.86,327.314,395.735Z" transform="translate(-178.064 -339.375)"/><path class="cls-23" d="M299.814,353.235s-3.961,27.217,16,42.5c4,3.062,11.625,3.5,16.25-1.438s9-17.312,9-17.312a8.289,8.289,0,0,0,5.25-4c2.125-3.5,1.625-7.5-2.875-3.875l.75-13.625s-16.217-14.25-16.921-13.625S299.814,353.235,299.814,353.235Z" transform="translate(-178.064 -339.375)"/><path class="cls-24" d="M290.564,345.235l7.14,8.625-6.39-.125,8.875,6.5v-5a88.031,88.031,0,0,0,25.375-10.875c4.625,6.125,15.5,13.875,15.5,13.875l-1.25,14.625,4.75-4.375,4.125-16.625s-.216-2.954-5.25-9.25a17.814,17.814,0,0,0-3.387-3.235H306.038C299.042,342.439,290.564,345.235,290.564,345.235Z" transform="translate(-178.064 -339.375)"/><path class="cls-25" d="M318.439,360.61v4.625c-9.375-.875-13.875-5.5-13.875-5.5" transform="translate(-178.064 -339.375)"/><path class="cls-25" d="M323.064,360.86v4.375a83.147,83.147,0,0,0,13.25-3.5" transform="translate(-178.064 -339.375)"/><path class="cls-25" d="M319.064,375.86l-2.5-3a3.974,3.974,0,0,0,2.5-2.5c.5-1.875-.625-5.125-.625-5.125" transform="translate(-178.064 -339.375)"/><line class="cls-25" x1="130.375" y1="27.11" x2="137.75" y2="28.985"/><line class="cls-26" x1="131.75" y1="31.172" x2="136.25" y2="31.172"/><path class="cls-25" d="M332.939,366.485a21.156,21.156,0,0,0-6.5,1.875" transform="translate(-178.064 -339.375)"/><path class="cls-26" d="M329.689,371.735s-3.5-2-4.125-1.875" transform="translate(-178.064 -339.375)"/><path class="cls-27" d="M310.814,349.36s-3.125,6.125,0,9.875,1.576-5.188,1.25-6.5A26.566,26.566,0,0,0,310.814,349.36Z" transform="translate(-178.064 -339.375)"/><path class="cls-27" d="M337.189,368.36s-2.421-.625-3.023,6.125,3.523,4.375,3.9,2.5S337.189,373.485,337.189,368.36Z" transform="translate(-178.064 -339.375)"/><path class="cls-28" d="M319.192,378.969s8.229-1.9,11.441,3.141c1.643,2.576,0,4.375-3.365,3.125-2.007-.746-7.656-2.63-12.954.583-4.5,2.729-6.625-1.083-3.234-4.083C314.2,378.975,319.192,378.969,319.192,378.969Z" transform="translate(-178.064 -339.375)"/><line class="cls-29" x1="141.562" y1="39.595" x2="141.562" y2="44.509"/><line class="cls-29" x1="138.562" y1="39.892" x2="138.562" y2="44.985"/><line class="cls-29" x1="144.562" y1="39.421" x2="144.562" y2="44.697"/><line class="cls-29" x1="147.562" y1="40.172" x2="147.562" y2="45.311"/><line class="cls-29" x1="150.562" y1="41.297" x2="150.562" y2="45.985"/><line class="cls-29" x1="135.562" y1="40.892" x2="135.562" y2="45.985"/><line class="cls-29" x1="132.562" y1="43.07" x2="132.562" y2="46.985"/><path class="cls-30" d="M196.939,383.833l13.5-35.963,11.791,4.322q6.7,2.457,8.535,3.743a10.064,10.064,0,0,1,3.917,5.44,11.779,11.779,0,0,1-.519,7.777,12.515,12.515,0,0,1-3.307,5.123,10.692,10.692,0,0,1-4.42,2.412,11.506,11.506,0,0,1-4.451.308,45.2,45.2,0,0,1-7.814-2.278l-4.791-1.757-5.092,13.566ZM215.5,356.646l-3.83,10.206,4.021,1.474a20.421,20.421,0,0,0,6.021,1.565,5.084,5.084,0,0,0,4.839-3.416,4.9,4.9,0,0,0,.05-3.666,5.377,5.377,0,0,0-2.356-2.677,37.869,37.869,0,0,0-5.2-2.184Z" transform="translate(-178.064 -339.375)"/><path class="cls-30" d="M190.485,454.679l3.049-29.575,9.66.972a35.5,35.5,0,0,1,7.114,1.164,7.836,7.836,0,0,1,3.993,3.328,9.165,9.165,0,0,1,1.135,5.933,9.645,9.645,0,0,1-1.469,4.479,8.2,8.2,0,0,1-2.833,2.662,8.847,8.847,0,0,1-3.267,1.087,34.757,34.757,0,0,1-6.287-.206l-3.925-.394-1.15,11.156Zm8.554-23.966-.866,8.392,3.295.333a15.788,15.788,0,0,0,4.807.014,3.914,3.914,0,0,0,2.95-3.5,3.822,3.822,0,0,0-.682-2.759,4.187,4.187,0,0,0-2.285-1.554,29.246,29.246,0,0,0-4.311-.638Z" transform="translate(-178.064 -339.375)"/><path class="cls-30" d="M223.913,393.8l15.134-18.833,6.07,4.764-15.134,18.834ZM241.1,372.409,244.8,367.8l6.07,4.764-3.7,4.611Z" transform="translate(-178.064 -339.375)"/><path class="cls-30" d="M213.464,458.827,219.2,441.49l5.161,1.668-5.737,17.336Zm6.515-19.687,1.4-4.244,5.161,1.667-1.4,4.245Z" transform="translate(-178.064 -339.375)"/><path class="cls-31" d="M249.064,387.778s20.75,15.916,6.669,16.781c-10.7.657-5.8,10.685,2.156,14.083a99.6,99.6,0,0,0,11.925,4.447" transform="translate(-178.064 -339.375)"/><path class="cls-32" d="M229.423,450.157s11.356-.208,11.251,4.506-7.236,4.855-1.26,9.52c5.64,4.4,12.451,2.936,12.648,2.969" transform="translate(-178.064 -339.375)"/></svg>