<?xml version="1.0" encoding="UTF-8"?>
<svg id="_レイヤー_1" data-name="レイヤー 1" xmlns="http://www.w3.org/2000/svg" width="145.242mm" height="83.409mm" xmlns:xlink="http://www.w3.org/1999/xlink" viewBox="0 0 411.711 236.435">
  <defs>
    <style>
      .cls-1 {
        opacity: .23;
      }

      .cls-1, .cls-2, .cls-3, .cls-4, .cls-5, .cls-6, .cls-7, .cls-8 {
        fill: none;
      }

      .cls-9 {
        fill: url(#_新規グラデーションスウォッチ_9-2);
      }

      .cls-9, .cls-10, .cls-11, .cls-12, .cls-13 {
        opacity: .091;
      }

      .cls-2, .cls-14, .cls-3, .cls-15, .cls-6, .cls-8 {
        stroke-linecap: round;
        stroke-linejoin: round;
      }

      .cls-2, .cls-14, .cls-15, .cls-6 {
        stroke: #c87a74;
      }

      .cls-2, .cls-8 {
        stroke-width: .558px;
      }

      .cls-16 {
        fill: url(#_名称未設定グラデーション_138-2);
      }

      .cls-16, .cls-17, .cls-5 {
        stroke: #7e4f22;
        stroke-miterlimit: 10;
        stroke-width: 1.465px;
      }

      .cls-17 {
        fill: url(#_名称未設定グラデーション_138);
      }

      .cls-18 {
        fill: url(#_新規グラデーションスウォッチ_9-10);
      }

      .cls-18, .cls-19, .cls-20, .cls-21, .cls-22 {
        opacity: .818;
      }

      .cls-19 {
        fill: url(#_新規グラデーションスウォッチ_9-34);
      }

      .cls-20 {
        fill: url(#_新規グラデーションスウォッチ_9-22);
      }

      .cls-21 {
        fill: url(#_新規グラデーションスウォッチ_9-58);
      }

      .cls-22 {
        fill: url(#_新規グラデーションスウォッチ_9-46);
      }

      .cls-23 {
        fill: url(#_新規グラデーションスウォッチ_9-35);
      }

      .cls-23, .cls-24, .cls-25, .cls-26, .cls-27 {
        opacity: .909;
      }

      .cls-24 {
        fill: url(#_新規グラデーションスウォッチ_9-23);
      }

      .cls-25 {
        fill: url(#_新規グラデーションスウォッチ_9-59);
      }

      .cls-26 {
        fill: url(#_新規グラデーションスウォッチ_9-11);
      }

      .cls-27 {
        fill: url(#_新規グラデーションスウォッチ_9-47);
      }

      .cls-28 {
        fill: url(#_新規グラデーションスウォッチ_9-31);
      }

      .cls-28, .cls-29, .cls-30, .cls-31, .cls-32 {
        opacity: .545;
      }

      .cls-29 {
        fill: url(#_新規グラデーションスウォッチ_9-55);
      }

      .cls-30 {
        fill: url(#_新規グラデーションスウォッチ_9-43);
      }

      .cls-31 {
        fill: url(#_新規グラデーションスウォッチ_9-19);
      }

      .cls-33 {
        fill: url(#_新規グラデーションスウォッチ_9-45);
      }

      .cls-33, .cls-34, .cls-35, .cls-36, .cls-37 {
        opacity: .727;
      }

      .cls-34 {
        fill: url(#_新規グラデーションスウォッチ_9-33);
      }

      .cls-35 {
        fill: url(#_新規グラデーションスウォッチ_9-21);
      }

      .cls-36 {
        fill: url(#_新規グラデーションスウォッチ_9-57);
      }

      .cls-38 {
        fill: url(#_新規グラデーションスウォッチ_9-54);
      }

      .cls-38, .cls-39, .cls-40, .cls-41, .cls-42 {
        opacity: .455;
      }

      .cls-39 {
        fill: url(#_新規グラデーションスウォッチ_9-18);
      }

      .cls-40 {
        fill: url(#_新規グラデーションスウォッチ_9-30);
      }

      .cls-41 {
        fill: url(#_新規グラデーションスウォッチ_9-42);
      }

      .cls-43 {
        fill: url(#_新規グラデーションスウォッチ_9-20);
      }

      .cls-43, .cls-44, .cls-45, .cls-46, .cls-47 {
        opacity: .636;
      }

      .cls-44 {
        fill: url(#_新規グラデーションスウォッチ_9-56);
      }

      .cls-45 {
        fill: url(#_新規グラデーションスウォッチ_9-32);
      }

      .cls-46 {
        fill: url(#_新規グラデーションスウォッチ_9-44);
      }

      .cls-48 {
        fill: url(#_新規グラデーションスウォッチ_9-41);
      }

      .cls-48, .cls-49, .cls-50, .cls-51, .cls-52 {
        opacity: .364;
      }

      .cls-49 {
        fill: url(#_新規グラデーションスウォッチ_9-29);
      }

      .cls-50 {
        fill: url(#_新規グラデーションスウォッチ_9-17);
      }

      .cls-51 {
        fill: url(#_新規グラデーションスウォッチ_9-53);
      }

      .cls-53 {
        fill: url(#_新規グラデーションスウォッチ_9-49);
      }

      .cls-53, .cls-54, .cls-55, .cls-56, .cls-57 {
        opacity: 0;
      }

      .cls-54 {
        fill: url(#_新規グラデーションスウォッチ_9-13);
      }

      .cls-55 {
        fill: url(#_新規グラデーションスウォッチ_9-37);
      }

      .cls-56 {
        fill: url(#_新規グラデーションスウォッチ_9-25);
      }

      .cls-58 {
        fill: #7e4f22;
      }

      .cls-59 {
        fill: #89c6cb;
      }

      .cls-60 {
        fill: #22ac38;
      }

      .cls-14 {
        fill: #e89786;
        stroke-width: 1.006px;
      }

      .cls-61 {
        fill: url(#_名称未設定グラデーション_49-2);
      }

      .cls-62 {
        fill: url(#_新規グラデーションスウォッチ_9-48);
      }

      .cls-63 {
        fill: url(#_新規グラデーションスウォッチ_9-24);
      }

      .cls-64 {
        fill: url(#_新規グラデーションスウォッチ_9-36);
      }

      .cls-65 {
        fill: url(#_新規グラデーションスウォッチ_9-12);
      }

      .cls-66 {
        fill: url(#_新規グラデーションスウォッチ_9-60);
      }

      .cls-57 {
        fill: url(#_新規グラデーションスウォッチ_9);
      }

      .cls-67 {
        fill: url(#_新規グラデーションスウォッチ_9-16);
      }

      .cls-67, .cls-68, .cls-69, .cls-70, .cls-71 {
        opacity: .273;
      }

      .cls-68 {
        fill: url(#_新規グラデーションスウォッチ_9-28);
      }

      .cls-69 {
        fill: url(#_新規グラデーションスウォッチ_9-52);
      }

      .cls-70 {
        fill: url(#_新規グラデーションスウォッチ_9-40);
      }

      .cls-72 {
        fill: url(#_新規グラデーションスウォッチ_9-27);
      }

      .cls-72, .cls-73, .cls-74, .cls-75, .cls-76 {
        opacity: .182;
      }

      .cls-73 {
        fill: url(#_新規グラデーションスウォッチ_9-15);
      }

      .cls-74 {
        fill: url(#_新規グラデーションスウォッチ_9-39);
      }

      .cls-75 {
        fill: url(#_新規グラデーションスウォッチ_9-51);
      }

      .cls-3 {
        stroke-width: .493px;
      }

      .cls-3, .cls-8 {
        stroke: #fff;
      }

      .cls-4 {
        opacity: .11;
      }

      .cls-37 {
        fill: url(#_新規グラデーションスウォッチ_9-9);
      }

      .cls-32 {
        fill: url(#_新規グラデーションスウォッチ_9-7);
      }

      .cls-47 {
        fill: url(#_新規グラデーションスウォッチ_9-8);
      }

      .cls-52 {
        fill: url(#_新規グラデーションスウォッチ_9-5);
      }

      .cls-42 {
        fill: url(#_新規グラデーションスウォッチ_9-6);
      }

      .cls-71 {
        fill: url(#_新規グラデーションスウォッチ_9-4);
      }

      .cls-76 {
        fill: url(#_新規グラデーションスウォッチ_9-3);
      }

      .cls-77 {
        fill: url(#_名称未設定グラデーション_49);
      }

      .cls-15 {
        fill: #e58982;
        stroke-width: .837px;
      }

      .cls-10 {
        fill: url(#_新規グラデーションスウォッチ_9-14);
      }

      .cls-11 {
        fill: url(#_新規グラデーションスウォッチ_9-26);
      }

      .cls-12 {
        fill: url(#_新規グラデーションスウォッチ_9-38);
      }

      .cls-13 {
        fill: url(#_新規グラデーションスウォッチ_9-50);
      }

      .cls-6 {
        opacity: .7;
        stroke-width: .74px;
      }

      .cls-7 {
        opacity: .15;
      }
    </style>
    <linearGradient id="_名称未設定グラデーション_138" data-name="名称未設定グラデーション 138" x1="131.841" y1="140.485" x2="276.705" y2="140.485" gradientUnits="userSpaceOnUse">
      <stop offset="0" stop-color="#c65a45"/>
      <stop offset=".504" stop-color="#e6bfa0"/>
      <stop offset="1" stop-color="#c65a45"/>
    </linearGradient>
    <linearGradient id="_名称未設定グラデーション_138-2" data-name="名称未設定グラデーション 138" x1="106.216" y1="66.622" x2="300.955" y2="66.622" xlink:href="#_名称未設定グラデーション_138"/>
    <linearGradient id="_新規グラデーションスウォッチ_9" data-name="新規グラデーションスウォッチ 9" x1="201.459" y1="73.04" x2="210.898" y2="73.04" gradientUnits="userSpaceOnUse">
      <stop offset="0" stop-color="#c0725a"/>
      <stop offset="1" stop-color="#c0725a"/>
    </linearGradient>
    <linearGradient id="_新規グラデーションスウォッチ_9-2" data-name="新規グラデーションスウォッチ 9" x1="201.682" y1="73.04" x2="210.675" y2="73.04" xlink:href="#_新規グラデーションスウォッチ_9"/>
    <linearGradient id="_新規グラデーションスウォッチ_9-3" data-name="新規グラデーションスウォッチ 9" x1="201.906" y1="73.04" x2="210.452" y2="73.04" xlink:href="#_新規グラデーションスウォッチ_9"/>
    <linearGradient id="_新規グラデーションスウォッチ_9-4" data-name="新規グラデーションスウォッチ 9" x1="202.129" y1="73.04" x2="210.229" y2="73.04" xlink:href="#_新規グラデーションスウォッチ_9"/>
    <linearGradient id="_新規グラデーションスウォッチ_9-5" data-name="新規グラデーションスウォッチ 9" x1="202.352" x2="210.006" xlink:href="#_新規グラデーションスウォッチ_9"/>
    <linearGradient id="_新規グラデーションスウォッチ_9-6" data-name="新規グラデーションスウォッチ 9" x1="202.575" y1="73.04" x2="209.783" y2="73.04" xlink:href="#_新規グラデーションスウォッチ_9"/>
    <linearGradient id="_新規グラデーションスウォッチ_9-7" data-name="新規グラデーションスウォッチ 9" x1="202.798" y1="73.04" x2="209.56" y2="73.04" xlink:href="#_新規グラデーションスウォッチ_9"/>
    <linearGradient id="_新規グラデーションスウォッチ_9-8" data-name="新規グラデーションスウォッチ 9" x1="203.021" y1="73.04" x2="209.337" y2="73.04" xlink:href="#_新規グラデーションスウォッチ_9"/>
    <linearGradient id="_新規グラデーションスウォッチ_9-9" data-name="新規グラデーションスウォッチ 9" x1="203.244" y1="73.04" x2="209.113" y2="73.04" xlink:href="#_新規グラデーションスウォッチ_9"/>
    <linearGradient id="_新規グラデーションスウォッチ_9-10" data-name="新規グラデーションスウォッチ 9" x1="203.467" y1="73.04" x2="208.89" y2="73.04" xlink:href="#_新規グラデーションスウォッチ_9"/>
    <linearGradient id="_新規グラデーションスウォッチ_9-11" data-name="新規グラデーションスウォッチ 9" x1="203.69" y1="73.04" x2="208.667" y2="73.04" xlink:href="#_新規グラデーションスウォッチ_9"/>
    <linearGradient id="_新規グラデーションスウォッチ_9-12" data-name="新規グラデーションスウォッチ 9" x1="203.913" y1="73.04" x2="208.444" y2="73.04" xlink:href="#_新規グラデーションスウォッチ_9"/>
    <linearGradient id="_新規グラデーションスウォッチ_9-13" data-name="新規グラデーションスウォッチ 9" x1="215.242" y1="72.04" x2="224.681" y2="72.04" xlink:href="#_新規グラデーションスウォッチ_9"/>
    <linearGradient id="_新規グラデーションスウォッチ_9-14" data-name="新規グラデーションスウォッチ 9" x1="215.465" y1="72.04" x2="224.458" y2="72.04" xlink:href="#_新規グラデーションスウォッチ_9"/>
    <linearGradient id="_新規グラデーションスウォッチ_9-15" data-name="新規グラデーションスウォッチ 9" x1="215.688" y1="72.04" x2="224.235" y2="72.04" xlink:href="#_新規グラデーションスウォッチ_9"/>
    <linearGradient id="_新規グラデーションスウォッチ_9-16" data-name="新規グラデーションスウォッチ 9" x1="215.911" y1="72.04" x2="224.011" y2="72.04" xlink:href="#_新規グラデーションスウォッチ_9"/>
    <linearGradient id="_新規グラデーションスウォッチ_9-17" data-name="新規グラデーションスウォッチ 9" x1="216.134" y1="72.04" x2="223.788" y2="72.04" xlink:href="#_新規グラデーションスウォッチ_9"/>
    <linearGradient id="_新規グラデーションスウォッチ_9-18" data-name="新規グラデーションスウォッチ 9" x1="216.357" y1="72.04" x2="223.565" y2="72.04" xlink:href="#_新規グラデーションスウォッチ_9"/>
    <linearGradient id="_新規グラデーションスウォッチ_9-19" data-name="新規グラデーションスウォッチ 9" x1="216.581" y1="72.04" x2="223.342" y2="72.04" xlink:href="#_新規グラデーションスウォッチ_9"/>
    <linearGradient id="_新規グラデーションスウォッチ_9-20" data-name="新規グラデーションスウォッチ 9" x1="216.804" y1="72.04" x2="223.119" y2="72.04" xlink:href="#_新規グラデーションスウォッチ_9"/>
    <linearGradient id="_新規グラデーションスウォッチ_9-21" data-name="新規グラデーションスウォッチ 9" x1="217.027" y1="72.04" x2="222.896" y2="72.04" xlink:href="#_新規グラデーションスウォッチ_9"/>
    <linearGradient id="_新規グラデーションスウォッチ_9-22" data-name="新規グラデーションスウォッチ 9" x1="217.25" y1="72.04" x2="222.673" y2="72.04" xlink:href="#_新規グラデーションスウォッチ_9"/>
    <linearGradient id="_新規グラデーションスウォッチ_9-23" data-name="新規グラデーションスウォッチ 9" x1="217.473" y1="72.04" x2="222.45" y2="72.04" xlink:href="#_新規グラデーションスウォッチ_9"/>
    <linearGradient id="_新規グラデーションスウォッチ_9-24" data-name="新規グラデーションスウォッチ 9" x1="217.696" y1="72.04" x2="222.227" y2="72.04" xlink:href="#_新規グラデーションスウォッチ_9"/>
    <linearGradient id="_新規グラデーションスウォッチ_9-25" data-name="新規グラデーションスウォッチ 9" x1="235.217" y1="63.938" x2="244.656" y2="63.938" gradientTransform="translate(301.332 -167.896) rotate(90)" xlink:href="#_新規グラデーションスウォッチ_9"/>
    <linearGradient id="_新規グラデーションスウォッチ_9-26" data-name="新規グラデーションスウォッチ 9" x1="235.44" y1="63.938" x2="244.433" y2="63.938" gradientTransform="translate(301.332 -167.896) rotate(90)" xlink:href="#_新規グラデーションスウォッチ_9"/>
    <linearGradient id="_新規グラデーションスウォッチ_9-27" data-name="新規グラデーションスウォッチ 9" x1="235.663" y1="63.938" x2="244.21" y2="63.938" gradientTransform="translate(301.332 -167.896) rotate(90)" xlink:href="#_新規グラデーションスウォッチ_9"/>
    <linearGradient id="_新規グラデーションスウォッチ_9-28" data-name="新規グラデーションスウォッチ 9" x1="235.886" y1="63.938" x2="243.986" y2="63.938" gradientTransform="translate(301.332 -167.896) rotate(90)" xlink:href="#_新規グラデーションスウォッチ_9"/>
    <linearGradient id="_新規グラデーションスウォッチ_9-29" data-name="新規グラデーションスウォッチ 9" x1="236.109" y1="63.938" x2="243.763" y2="63.938" gradientTransform="translate(301.332 -167.896) rotate(90)" xlink:href="#_新規グラデーションスウォッチ_9"/>
    <linearGradient id="_新規グラデーションスウォッチ_9-30" data-name="新規グラデーションスウォッチ 9" x1="236.332" y1="63.938" x2="243.54" y2="63.938" gradientTransform="translate(301.332 -167.896) rotate(90)" xlink:href="#_新規グラデーションスウォッチ_9"/>
    <linearGradient id="_新規グラデーションスウォッチ_9-31" data-name="新規グラデーションスウォッチ 9" x1="236.556" y1="63.938" x2="243.317" y2="63.938" gradientTransform="translate(301.332 -167.896) rotate(90)" xlink:href="#_新規グラデーションスウォッチ_9"/>
    <linearGradient id="_新規グラデーションスウォッチ_9-32" data-name="新規グラデーションスウォッチ 9" x1="236.779" y1="63.938" x2="243.094" y2="63.938" gradientTransform="translate(301.332 -167.896) rotate(90)" xlink:href="#_新規グラデーションスウォッチ_9"/>
    <linearGradient id="_新規グラデーションスウォッチ_9-33" data-name="新規グラデーションスウォッチ 9" x1="237.002" y1="63.938" x2="242.871" y2="63.938" gradientTransform="translate(301.332 -167.896) rotate(90)" xlink:href="#_新規グラデーションスウォッチ_9"/>
    <linearGradient id="_新規グラデーションスウォッチ_9-34" data-name="新規グラデーションスウォッチ 9" x1="237.225" y1="63.938" x2="242.648" y2="63.938" gradientTransform="translate(301.332 -167.896) rotate(90)" xlink:href="#_新規グラデーションスウォッチ_9"/>
    <linearGradient id="_新規グラデーションスウォッチ_9-35" data-name="新規グラデーションスウォッチ 9" x1="237.448" y1="63.938" x2="242.425" y2="63.938" gradientTransform="translate(301.332 -167.896) rotate(90)" xlink:href="#_新規グラデーションスウォッチ_9"/>
    <linearGradient id="_新規グラデーションスウォッチ_9-36" data-name="新規グラデーションスウォッチ 9" x1="237.671" y1="63.938" x2="242.202" y2="63.938" gradientTransform="translate(301.332 -167.896) rotate(90)" xlink:href="#_新規グラデーションスウォッチ_9"/>
    <linearGradient id="_新規グラデーションスウォッチ_9-37" data-name="新規グラデーションスウォッチ 9" x1="187.378" y1="72.04" x2="196.817" y2="72.04" xlink:href="#_新規グラデーションスウォッチ_9"/>
    <linearGradient id="_新規グラデーションスウォッチ_9-38" data-name="新規グラデーションスウォッチ 9" x1="187.601" y1="72.04" x2="196.594" y2="72.04" xlink:href="#_新規グラデーションスウォッチ_9"/>
    <linearGradient id="_新規グラデーションスウォッチ_9-39" data-name="新規グラデーションスウォッチ 9" x1="187.825" y1="72.04" x2="196.371" y2="72.04" xlink:href="#_新規グラデーションスウォッチ_9"/>
    <linearGradient id="_新規グラデーションスウォッチ_9-40" data-name="新規グラデーションスウォッチ 9" x1="188.048" y1="72.04" x2="196.148" y2="72.04" xlink:href="#_新規グラデーションスウォッチ_9"/>
    <linearGradient id="_新規グラデーションスウォッチ_9-41" data-name="新規グラデーションスウォッチ 9" x1="188.271" y1="72.04" x2="195.925" y2="72.04" xlink:href="#_新規グラデーションスウォッチ_9"/>
    <linearGradient id="_新規グラデーションスウォッチ_9-42" data-name="新規グラデーションスウォッチ 9" x1="188.494" y1="72.04" x2="195.702" y2="72.04" xlink:href="#_新規グラデーションスウォッチ_9"/>
    <linearGradient id="_新規グラデーションスウォッチ_9-43" data-name="新規グラデーションスウォッチ 9" x1="188.717" y1="72.04" x2="195.479" y2="72.04" xlink:href="#_新規グラデーションスウォッチ_9"/>
    <linearGradient id="_新規グラデーションスウォッチ_9-44" data-name="新規グラデーションスウォッチ 9" x1="188.94" y1="72.04" x2="195.256" y2="72.04" xlink:href="#_新規グラデーションスウォッチ_9"/>
    <linearGradient id="_新規グラデーションスウォッチ_9-45" data-name="新規グラデーションスウォッチ 9" x1="189.163" y1="72.04" x2="195.032" y2="72.04" xlink:href="#_新規グラデーションスウォッチ_9"/>
    <linearGradient id="_新規グラデーションスウォッチ_9-46" data-name="新規グラデーションスウォッチ 9" x1="189.386" y1="72.04" x2="194.809" y2="72.04" xlink:href="#_新規グラデーションスウォッチ_9"/>
    <linearGradient id="_新規グラデーションスウォッチ_9-47" data-name="新規グラデーションスウォッチ 9" x1="189.609" y1="72.04" x2="194.586" y2="72.04" xlink:href="#_新規グラデーションスウォッチ_9"/>
    <linearGradient id="_新規グラデーションスウォッチ_9-48" data-name="新規グラデーションスウォッチ 9" x1="189.832" y1="72.04" x2="194.363" y2="72.04" xlink:href="#_新規グラデーションスウォッチ_9"/>
    <linearGradient id="_新規グラデーションスウォッチ_9-49" data-name="新規グラデーションスウォッチ 9" x1="169.492" y1="78.468" x2="178.931" y2="78.468" gradientTransform="translate(2.938 -6.428)" xlink:href="#_新規グラデーションスウォッチ_9"/>
    <linearGradient id="_新規グラデーションスウォッチ_9-50" data-name="新規グラデーションスウォッチ 9" x1="169.716" y1="78.468" x2="178.708" y2="78.468" gradientTransform="translate(2.938 -6.428)" xlink:href="#_新規グラデーションスウォッチ_9"/>
    <linearGradient id="_新規グラデーションスウォッチ_9-51" data-name="新規グラデーションスウォッチ 9" x1="169.939" y1="78.468" x2="178.485" y2="78.468" gradientTransform="translate(2.938 -6.428)" xlink:href="#_新規グラデーションスウォッチ_9"/>
    <linearGradient id="_新規グラデーションスウォッチ_9-52" data-name="新規グラデーションスウォッチ 9" x1="170.162" y1="78.468" x2="178.262" y2="78.468" gradientTransform="translate(2.938 -6.428)" xlink:href="#_新規グラデーションスウォッチ_9"/>
    <linearGradient id="_新規グラデーションスウォッチ_9-53" data-name="新規グラデーションスウォッチ 9" x1="170.385" y1="78.468" x2="178.039" y2="78.468" gradientTransform="translate(2.938 -6.428)" xlink:href="#_新規グラデーションスウォッチ_9"/>
    <linearGradient id="_新規グラデーションスウォッチ_9-54" data-name="新規グラデーションスウォッチ 9" x1="170.608" y1="78.468" x2="177.816" y2="78.468" gradientTransform="translate(2.938 -6.428)" xlink:href="#_新規グラデーションスウォッチ_9"/>
    <linearGradient id="_新規グラデーションスウォッチ_9-55" data-name="新規グラデーションスウォッチ 9" x1="170.831" y1="78.468" x2="177.593" y2="78.468" gradientTransform="translate(2.938 -6.428)" xlink:href="#_新規グラデーションスウォッチ_9"/>
    <linearGradient id="_新規グラデーションスウォッチ_9-56" data-name="新規グラデーションスウォッチ 9" x1="171.054" y1="78.468" x2="177.37" y2="78.468" gradientTransform="translate(2.938 -6.428)" xlink:href="#_新規グラデーションスウォッチ_9"/>
    <linearGradient id="_新規グラデーションスウォッチ_9-57" data-name="新規グラデーションスウォッチ 9" x1="171.277" y1="78.468" x2="177.147" y2="78.468" gradientTransform="translate(2.938 -6.428)" xlink:href="#_新規グラデーションスウォッチ_9"/>
    <linearGradient id="_新規グラデーションスウォッチ_9-58" data-name="新規グラデーションスウォッチ 9" x1="171.5" y1="78.468" x2="176.923" y2="78.468" gradientTransform="translate(2.938 -6.428)" xlink:href="#_新規グラデーションスウォッチ_9"/>
    <linearGradient id="_新規グラデーションスウォッチ_9-59" data-name="新規グラデーションスウォッチ 9" x1="171.723" y1="78.468" x2="176.7" y2="78.468" gradientTransform="translate(2.938 -6.428)" xlink:href="#_新規グラデーションスウォッチ_9"/>
    <linearGradient id="_新規グラデーションスウォッチ_9-60" data-name="新規グラデーションスウォッチ 9" x1="171.947" y1="78.468" x2="176.477" y2="78.468" gradientTransform="translate(2.938 -6.428)" xlink:href="#_新規グラデーションスウォッチ_9"/>
    <linearGradient id="_名称未設定グラデーション_49" data-name="名称未設定グラデーション 49" x1="844.83" y1="202.604" x2="844.83" y2=".103" gradientTransform="translate(933.214) rotate(-180) scale(1 -1)" gradientUnits="userSpaceOnUse">
      <stop offset="0" stop-color="#e79274"/>
      <stop offset="1" stop-color="#f4e7ce"/>
    </linearGradient>
    <linearGradient id="_名称未設定グラデーション_49-2" data-name="名称未設定グラデーション 49" x1="771.809" y1="204.039" x2="771.809" y2="0" gradientTransform="translate(-449.909)" xlink:href="#_名称未設定グラデーション_49"/>
  </defs>
  <g>
    <rect class="cls-59" y=".109" width="411.711" height="236.326"/>
    <path class="cls-17" d="m136.535,184.755c.853-.213,34.563-19.841,66.992-19.841s70.832,22.615,70.832,22.615l2.347-94.087s-144.864.213-144.864,1.067,4.694,90.247,4.694,90.247Z"/>
    <path class="cls-16" d="m106.216.446c.588,38.433,6.293,120.863,21.891,129.065,20.695,10.881,29.229-8.747,29.229-8.747,0,0-3.236-8.618.396-8.702,2.723-.063,4.932,3.968,5.527,4.827s4.852,8.525,6.608,8.381c1.627-.133,2.473-3.574,3.438-4.657,1.214-1.362,2.476-5.303,4.672-5.823,1.038-.246,2.027.4,3.029,1.939,0,0,1.343,2.601,3.158,2.541,2.4-.08,3.212-2.027,3.686-3.12s1.351-3.223,3.327-3.227c2.24-.004,3.094,2.907,3.254,3.227.16.32,1.068,3.242,3.6,3.334,2.96.107,3.787-2.72,4.107-3.547s1.173-3.048,3.174-3.017,2.921,1.921,3.787,3.284c.552.869,1.334,2.476,2.747,2.534,1.973.08,2.827-2.347,3.147-2.96.32-.613,1.28-2.48,2.987-2.48s2.8,1.2,3.494,2.88c.392.949,1.253,3.494,3.974,3.387,2.72-.107,2.877-1.948,3.014-2.48.293-1.147.853-2.396,2.156-2.503,3.776-.309,4.193,6.523,7.521,7.628,3.749,1.245,9.712.037,10.163.527l1.097-15.528s3.966-6.012,11.578-3.173c22.068,8.232,29.899-58.623,39.978-103.588"/>
    <g class="cls-1">
      <ellipse class="cls-57" cx="206.179" cy="73.04" rx="4.719" ry="42.27"/>
      <ellipse class="cls-9" cx="206.179" cy="73.04" rx="4.496" ry="41.815"/>
      <ellipse class="cls-76" cx="206.179" cy="73.04" rx="4.273" ry="41.359"/>
      <ellipse class="cls-71" cx="206.179" cy="73.04" rx="4.05" ry="40.904"/>
      <ellipse class="cls-52" cx="206.179" cy="73.04" rx="3.827" ry="40.449"/>
      <ellipse class="cls-42" cx="206.179" cy="73.04" rx="3.604" ry="39.994"/>
      <ellipse class="cls-32" cx="206.179" cy="73.04" rx="3.381" ry="39.539"/>
      <ellipse class="cls-47" cx="206.179" cy="73.04" rx="3.158" ry="39.083"/>
      <ellipse class="cls-37" cx="206.179" cy="73.04" rx="2.935" ry="38.628"/>
      <ellipse class="cls-18" cx="206.179" cy="73.04" rx="2.712" ry="38.173"/>
      <ellipse class="cls-26" cx="206.179" cy="73.04" rx="2.488" ry="37.718"/>
      <ellipse class="cls-65" cx="206.179" cy="73.04" rx="2.265" ry="37.263"/>
    </g>
    <g class="cls-1">
      <ellipse class="cls-54" cx="219.961" cy="72.04" rx="4.719" ry="42.27"/>
      <ellipse class="cls-10" cx="219.961" cy="72.04" rx="4.496" ry="41.815"/>
      <ellipse class="cls-73" cx="219.961" cy="72.04" rx="4.273" ry="41.359"/>
      <ellipse class="cls-67" cx="219.961" cy="72.04" rx="4.05" ry="40.904"/>
      <ellipse class="cls-50" cx="219.961" cy="72.04" rx="3.827" ry="40.449"/>
      <ellipse class="cls-39" cx="219.961" cy="72.04" rx="3.604" ry="39.994"/>
      <ellipse class="cls-31" cx="219.961" cy="72.04" rx="3.381" ry="39.539"/>
      <ellipse class="cls-43" cx="219.961" cy="72.04" rx="3.158" ry="39.083"/>
      <ellipse class="cls-35" cx="219.961" cy="72.04" rx="2.935" ry="38.628"/>
      <ellipse class="cls-20" cx="219.961" cy="72.04" rx="2.712" ry="38.173"/>
      <ellipse class="cls-24" cx="219.961" cy="72.04" rx="2.488" ry="37.718"/>
      <ellipse class="cls-63" cx="219.961" cy="72.04" rx="2.265" ry="37.263"/>
    </g>
    <g class="cls-1">
      <ellipse class="cls-56" cx="237.393" cy="72.04" rx="42.27" ry="4.719" transform="translate(143.108 301.508) rotate(-84.544)"/>
      <ellipse class="cls-11" cx="237.393" cy="72.04" rx="41.815" ry="4.496" transform="translate(143.108 301.508) rotate(-84.544)"/>
      <ellipse class="cls-72" cx="237.393" cy="72.04" rx="41.359" ry="4.273" transform="translate(143.108 301.508) rotate(-84.544)"/>
      <ellipse class="cls-68" cx="237.393" cy="72.04" rx="40.904" ry="4.05" transform="translate(143.108 301.508) rotate(-84.544)"/>
      <ellipse class="cls-49" cx="237.393" cy="72.04" rx="40.449" ry="3.827" transform="translate(143.108 301.508) rotate(-84.544)"/>
      <ellipse class="cls-40" cx="237.393" cy="72.04" rx="39.994" ry="3.604" transform="translate(143.108 301.508) rotate(-84.544)"/>
      <ellipse class="cls-28" cx="237.393" cy="72.04" rx="39.539" ry="3.381" transform="translate(143.108 301.508) rotate(-84.544)"/>
      <ellipse class="cls-45" cx="237.393" cy="72.04" rx="39.083" ry="3.158" transform="translate(143.108 301.508) rotate(-84.544)"/>
      <ellipse class="cls-34" cx="237.393" cy="72.04" rx="38.628" ry="2.935" transform="translate(143.108 301.508) rotate(-84.544)"/>
      <ellipse class="cls-19" cx="237.393" cy="72.04" rx="38.173" ry="2.712" transform="translate(143.108 301.508) rotate(-84.544)"/>
      <ellipse class="cls-23" cx="237.393" cy="72.04" rx="37.718" ry="2.488" transform="translate(143.108 301.508) rotate(-84.544)"/>
      <ellipse class="cls-64" cx="237.393" cy="72.04" rx="37.263" ry="2.265" transform="translate(143.108 301.508) rotate(-84.544)"/>
    </g>
    <g class="cls-1">
      <ellipse class="cls-55" cx="192.098" cy="72.04" rx="4.719" ry="42.27"/>
      <ellipse class="cls-12" cx="192.098" cy="72.04" rx="4.496" ry="41.815"/>
      <ellipse class="cls-74" cx="192.098" cy="72.04" rx="4.273" ry="41.359"/>
      <ellipse class="cls-70" cx="192.098" cy="72.04" rx="4.05" ry="40.904"/>
      <ellipse class="cls-48" cx="192.098" cy="72.04" rx="3.827" ry="40.449"/>
      <ellipse class="cls-41" cx="192.098" cy="72.04" rx="3.604" ry="39.994"/>
      <ellipse class="cls-30" cx="192.098" cy="72.04" rx="3.381" ry="39.539"/>
      <ellipse class="cls-46" cx="192.098" cy="72.04" rx="3.158" ry="39.083"/>
      <ellipse class="cls-33" cx="192.098" cy="72.04" rx="2.935" ry="38.628"/>
      <ellipse class="cls-22" cx="192.098" cy="72.04" rx="2.712" ry="38.173"/>
      <ellipse class="cls-27" cx="192.098" cy="72.04" rx="2.488" ry="37.718"/>
      <ellipse class="cls-62" cx="192.098" cy="72.04" rx="2.265" ry="37.263"/>
    </g>
    <g class="cls-1">
      <ellipse class="cls-53" cx="177.15" cy="72.04" rx="4.719" ry="42.27" transform="translate(-5.561 15.572) rotate(-4.955)"/>
      <ellipse class="cls-13" cx="177.15" cy="72.04" rx="4.496" ry="41.815" transform="translate(-5.561 15.572) rotate(-4.955)"/>
      <ellipse class="cls-75" cx="177.15" cy="72.04" rx="4.273" ry="41.359" transform="translate(-5.561 15.572) rotate(-4.955)"/>
      <ellipse class="cls-69" cx="177.15" cy="72.04" rx="4.05" ry="40.904" transform="translate(-5.561 15.572) rotate(-4.955)"/>
      <ellipse class="cls-51" cx="177.15" cy="72.04" rx="3.827" ry="40.449" transform="translate(-5.561 15.572) rotate(-4.955)"/>
      <ellipse class="cls-38" cx="177.15" cy="72.04" rx="3.604" ry="39.994" transform="translate(-5.561 15.572) rotate(-4.955)"/>
      <ellipse class="cls-29" cx="177.15" cy="72.04" rx="3.381" ry="39.539" transform="translate(-5.561 15.572) rotate(-4.955)"/>
      <ellipse class="cls-44" cx="177.15" cy="72.04" rx="3.158" ry="39.083" transform="translate(-5.561 15.572) rotate(-4.955)"/>
      <ellipse class="cls-36" cx="177.15" cy="72.04" rx="2.935" ry="38.628" transform="translate(-5.561 15.572) rotate(-4.955)"/>
      <ellipse class="cls-21" cx="177.15" cy="72.04" rx="2.712" ry="38.173" transform="translate(-5.561 15.572) rotate(-4.955)"/>
      <ellipse class="cls-25" cx="177.15" cy="72.04" rx="2.488" ry="37.718" transform="translate(-5.561 15.572) rotate(-4.955)"/>
      <ellipse class="cls-66" cx="177.15" cy="72.04" rx="2.265" ry="37.263" transform="translate(-5.561 15.572) rotate(-4.955)"/>
    </g>
    <path class="cls-77" d="m137.279,26.655c10.542,17.627,17.177,24.521,19.168,27.65s17.129,18.258,15.705,42.47c-.453,7.705-3.077,12.425-3.077,12.425,0,0-4.811,9.689-1.431,10.19,1.595.236,3.007-.501,3.007-.501,0,0,3.073-2.258,4.424-1.289,1.481,1.062,2.046,1.992-.289,8.463-.522,1.447-1.645,11.794-1.929,20.328-.285,8.534-1.7,9.845-4.118,13.259-2.418,3.414-3.598,10.994-4.944,14.16-3.284,7.723-9.224,15.822-23.858,21.802-7.807,3.19-60.088,19.244-139.534-11.762V.109l126.719-.005c1.85,8.417,4.66,17.363,10.155,26.552Z"/>
    <path class="cls-5" d="m127.168.298c1.85,8.417,4.616,17.168,10.112,26.357,10.542,17.627,17.177,24.521,19.168,27.65s17.129,18.258,15.705,42.47c-.453,7.705-3.077,12.425-3.077,12.425,0,0-4.811,9.689-1.431,10.19,1.595.236,3.007-.501,3.007-.501,0,0,3.073-2.258,4.424-1.289,1.481,1.062,2.046,1.992-.289,8.463-.522,1.447-1.645,11.794-1.929,20.328-.285,8.534-1.7,9.845-4.118,13.259-2.418,3.414-3.598,10.994-4.944,14.16-3.284,7.723-9.224,15.822-23.858,21.802-7.807,3.19-60.088,19.244-139.534-11.762"/>
    <path class="cls-61" d="m271.504,26.655c-10.542,17.627-17.177,24.521-19.168,27.65-1.991,3.129-17.129,18.258-15.705,42.47.453,7.705,3.077,12.425,3.077,12.425,0,0,4.811,9.689,1.431,10.19-1.595.236-3.007-.501-3.007-.501,0,0-3.073-2.258-4.424-1.289-1.481,1.062-2.046,1.992.289,8.463.522,1.447,1.645,11.794,1.929,20.328.285,8.534,1.7,9.845,4.118,13.259,2.418,3.414,3.598,10.994,4.944,14.16,3.284,7.723,11.292,16.265,25.925,22.245,7.807,3.19,66.502,21.899,140.467-12.204V.446l-129.697-.446c-1.852,8.363-4.726,17.54-10.178,26.655Z"/>
    <path class="cls-5" d="m281.583.446c-1.852,8.363-4.627,17.093-10.079,26.209-10.542,17.627-17.177,24.521-19.168,27.65-1.991,3.129-17.129,18.258-15.705,42.47.453,7.705,3.077,12.425,3.077,12.425,0,0,4.932,10.244,1.552,10.745-1.595.236-3.128-1.055-3.128-1.055,0,0-3.073-2.258-4.424-1.289-1.481,1.062-2.046,1.992.289,8.463.522,1.447,1.645,11.794,1.929,20.328.285,8.534,1.7,9.845,4.118,13.259,2.418,3.414,3.598,10.994,4.944,14.16,3.284,7.723,11.292,16.265,25.925,22.245,7.807,3.19,66.502,21.899,140.467-12.204"/>
  </g>
  <g id="_括約筋" data-name="括約筋">
    <g>
      <path class="cls-15" d="m129.079,144.759c-2.932-4.16-6.316-4.674-9.187-2.319-2.871,2.355-3.29,3.494-6.635,4.352s-6.718,1.091-7.899,1.283-5.456,1.39-6.668,5.994c-1.212,4.605,2.708,28.4,25,26.606,22.292-1.794,28.234-16.708,28.866-20.718.863-5.474,1.417-11.845-12.047-11.602-4.492.081-9.808-1.295-11.429-3.595Z"/>
      <path class="cls-15" d="m91.018,107.963c.495.151-12.61,13.634,5.259,36.297,4.013,5.09,14.146,3.89,18.261,1.569,4.115-2.322,9.573-7.222,7.148-17.343,0,0,.86-3.981-.324-9.33s-.637-4.682-.301-6.374c.336-1.692-1.492-5.425-4.317-5.092,0,0,3.816.262,2.761-4.352-1.055-4.614-3.424-15.312-3.424-15.312,0,0-.155-.479-.392-.73,0,0,.726.455-.125-2.87s-3.919-18.726-12.756-26.359c-8.837-7.632-13.511-11.155-17.256-11.807s-7.619-1.156-8.204,7.251c-.586,8.407-.121,23.192,9.257,25.825,0,0-4.375,1.97-3.605,9.401.769,7.431,3.709,17.91,8.018,19.226Z"/>
      <path class="cls-15" d="m69.315,13.505s2.348,3.411,2.229,8.162,3.119,18.045,6.56,20.722,10.168,4.772,10.168,4.772c0,0,4.119.752,17.014,13.407,2.395,2.351,5.053,6.288,1.164-5.589-3.889-11.876-11.102-22.943-22.014-31.93-10.912-8.988-10.151-11.247-10.151-11.247"/>
      <g class="cls-4">
        <path class="cls-8" d="m84.199,49.544s5.308,4.616,6.86,6.442c1.551,1.826,2.162,2.199,4.447,3.245s2.165,2.387,4.814,3.28,5.779.573,9.976,6.031"/>
        <path class="cls-8" d="m89.597,50.798s.555,1.988,1.607,2.856,2.813,4.626,4.301,5.577"/>
        <path class="cls-8" d="m81.05,50.675s5.302,3.2,8.34,7.146c3.038,3.946,5.524,6.848,8.972,7.988s8.025,4.081,9.571,6.569c1.547,2.488,6.099,6.077,6.099,6.077"/>
        <path class="cls-8" d="m112.445,73.569s-3.87-4.885-5.411-5.957-5.498-2.319-6.822-2.765-3.047-1.583-4.288-3.082"/>
        <path class="cls-8" d="m80.151,54.882s3.852,4.748,6.539,5.875c2.687,1.127,3.932,3.853,5.574,6.231,1.642,2.378,9.093,7.78,13.516,10.367"/>
        <path class="cls-8" d="m114.873,83.562s-1.609-2.982-5.16-5.9-6.473-5.477-8.867-7.586c-2.394-2.109-6.25-2.511-8.581-3.088"/>
        <path class="cls-8" d="m81.333,62.057s5.571,5.518,9.161,7.297c3.59,1.778,8.328,4.315,10.726,7.137"/>
        <path class="cls-8" d="m81.31,65.367c.045.276,4.077,4.045,11.543,5.194"/>
        <path class="cls-8" d="m83.604,71.01s3.158,3.295,7.14,3.31,6.658-.765,9.159.843"/>
        <path class="cls-8" d="m85.096,75.236s6.252,2.857,9.749,2.29c3.496-.568,8.364.686,12.34,2.041"/>
        <path class="cls-8" d="m116.061,95.521c-.041-.277-.095-6.124-4.555-7.667-4.461-1.543-5.705-1.504-8.431-2.868s-3.058-1.311-5.842-.953c-2.783.358-6.051-.845-7.101-1.697"/>
        <path class="cls-8" d="m114.229,92.419s-4.851-2.298-7.448-2.883-4.663-2.423-6.689-2.472-6.314.836-8.817-.552-3.616-2.624-5.453-2.043"/>
        <path class="cls-8" d="m86.826,90.569s3.002-.177,5.586-3.36"/>
        <path class="cls-8" d="m114.32,96.654s-2.417-4.897-8.011-4.744-6.062,1.551-9.1-.034c-3.038-1.585-5.56-1.018-7.895-.009"/>
        <path class="cls-8" d="m111.637,96.24s-4.542.037-7.313-.91-4.589-.841-6.584-.234-6.38,1.424-10.115.32"/>
        <path class="cls-8" d="m90.734,100.484s3.492.094,5.249-2.647,3.817-3.238,4.608-3.204"/>
        <path class="cls-8" d="m118.263,104.137s-.013-1.572-3.371-1.94-2.203-.744-5.429-2.487-5.478-2.977-11.178-1.302"/>
        <path class="cls-8" d="m116.933,100.291s-1.273-2.62-4.943-1.905c-3.67.715-6.743,2.319-9.841,2.95-3.099.631-4.229,4.12-6.65,4.608s-3.861.029-3.861.029"/>
        <path class="cls-8" d="m91.128,102.876s1.322-1.537,7.688-1.248"/>
        <path class="cls-8" d="m119.6,112.231s-2.895.281-5.623,1.669c-2.728,1.387-5.292.545-7.617.466-2.325-.079-6.502-2.266-9.566-1.045s-4.824,1.574-7.366,4.093"/>
        <path class="cls-8" d="m119.782,117.586s-7.566-.574-11.846-3.087"/>
        <path class="cls-8" d="m111.533,117.697s-10.172,1.746-11.319,3.066-3.209,4.677-5.298,5.111-3.528.667-4.957,1.655"/>
        <path class="cls-8" d="m98.779,120.335s-2.197-2.292-7.936-.555"/>
        <path class="cls-8" d="m120.601,122.553s.287-2.597-2.469-2.763c-2.756-.166-5.742.456-6.726.478-1.198.027-1.978-.057-4.293,2.397s-7.485,2.821-7.485,2.821"/>
        <path class="cls-8" d="m118.548,122.32s-5.249,2.102-7.938.817"/>
        <path class="cls-8" d="m120.559,126.244s-2.86-2.18-5.809-.757c-2.949,1.423-4.076,2.173-4.478,3.183s-1.277,2.368-3.124,3.004"/>
        <path class="cls-8" d="m109.998,127.014s-4.168,1.716-6.818,1.107-6.917-.976-9.828,2.058"/>
        <path class="cls-8" d="m117.668,105.272s-6.425-.694-10.228,2.256"/>
        <path class="cls-8" d="m99.725,107.147s2.222-3.1,6.998-3.97c4.776-.87,8.169-.98,8.169-.98"/>
        <path class="cls-8" d="m120.21,128.725s-3.053-1.047-5.131.833c-2.078,1.88-2.245,3.135-4.665,3.528"/>
        <path class="cls-8" d="m110.702,134.834s-3.195.519-4.812-1.013-5.215-1.287-6.811-.622-5.728,1.808-5.728,1.808"/>
        <path class="cls-8" d="m120.472,130.319s-2.245,1.309-3.693,1.733-3.101,1.542-3.469,2.358-4.318,3.062-8.009,2.056-3.474.996-4.983,1.498-4.762.773-4.762.773"/>
        <path class="cls-8" d="m121.003,133.539s-4.242,1.602-5.443,3.182-5.781,2.135-5.781,2.135"/>
        <path class="cls-8" d="m119.504,138.473s-3.346,2.464-7.156,2.799-4.444.344-4.444.344c0,0-1.598,1.631-4.203,3.068-2.606,1.438-2.596.806-2.596.806"/>
        <path class="cls-8" d="m99.301,141.218s4.816-2.181,5.774-1.59,1.368,2.508,2.827,1.988"/>
        <path class="cls-8" d="m116.448,142.614s-6.417.577-10.333,3.322"/>
        <path class="cls-8" d="m120.998,144.779s-2.418,4.265-8.836,4.835c-6.418.57-11.053,2.571-11.053,2.571"/>
        <path class="cls-8" d="m100.039,156.967s4.002-.555,5.934-2.286c1.932-1.73,4.713-3.484,7.983-3.647,3.27-.163,8.085-4.062,8.533-4.796"/>
        <path class="cls-8" d="m103.569,160.455s2.757-3.281,6.064-3.913,5.727-3.197,6.491-4.076"/>
        <path class="cls-8" d="m109.141,159.078s-2.908,0-4.395,2.508c-1.487,2.508-1.587,3.28-2.538,3.718"/>
        <path class="cls-8" d="m121.661,151.567s-3.714,4.57-7.231,5.897c-3.517,1.327-5.421,2.297-5.627,4.786s.721,5.361-.315,7.702"/>
        <path class="cls-8" d="m103.499,166.7s2.539-.129,5.303-4.45"/>
        <path class="cls-8" d="m106.606,167.235s-2.078,2.259-1.771,4.349"/>
        <path class="cls-8" d="m126.681,145.945s-6.193,12.991-3.784,18.645c2.409,5.654.26,13.937.26,13.937"/>
        <path class="cls-8" d="m121.451,155.814s-1.77,3.253-6.4,5.421-3.221,8.646-3.221,8.646"/>
        <path class="cls-8" d="m119.063,160.584s.382,4.755-3.658,8.717c-4.04,3.962-5.646,3.184-5.937,6.253"/>
        <path class="cls-8" d="m122.639,163.025s-3.458,8.684-2.847,11.702"/>
        <path class="cls-8" d="m120.656,163.347s-4.876,6.553-3.544,10.398c1.332,3.845,1.023,5.595,1.023,5.595"/>
        <path class="cls-8" d="m129.973,147.498s-2.068,4.012-.463,8.231,3.026,5.689,2.371,9.432c-.655,3.743-2.77,8.336-1.959,9.716"/>
        <path class="cls-8" d="m129.156,154.563s-1.216,5.439-.446,8.048.986,6.164.369,7.161"/>
        <path class="cls-8" d="m127.086,149.836s-.168,4.655-1.223,8.605.497,7.617.497,7.617"/>
        <path class="cls-8" d="m127.58,173.463c-.148.024-.469,3.884.849,5.151"/>
        <path class="cls-8" d="m133.952,149.571s.961,7.216.782,10.265.727,4.413,1.458,6.089c.731,1.676.07,4.617.261,6.097"/>
        <path class="cls-8" d="m134.807,174.084c-.539.182-2.277-2.086-2.408-3.576"/>
        <path class="cls-8" d="m132.514,177.006s-2.615-1.713.563-7.884c1.194-2.319.665-4.264.665-4.264"/>
        <path class="cls-8" d="m142.104,170.918s1.088-5.752-1.896-9.14c-2.984-3.388-1.818-11.038-1.818-11.038"/>
        <path class="cls-8" d="m139.496,173.793s-.66-.788-.366-3.835c.294-3.047-.2-4.666-.89-5.404-.69-.738-2.677-6.379-1.681-9.086"/>
        <path class="cls-8" d="m141.841,150.613c-.007-.021,1.63,5.306,2.215,7.744.545,2.272,4.679,5.72,5.729,5.881"/>
        <path class="cls-8" d="m140.096,150.602s.643,8.572,2.371,10.322c1.728,1.75,2.588,6.041,2.475,9.271"/>
        <path class="cls-8" d="m148.093,166.463s-4.189-3.601-5.626-5.54"/>
        <path class="cls-8" d="m144.205,150.324s2.595,4.518,4.202,7.374,1.816,5.547,1.816,5.547"/>
        <path class="cls-8" d="m151.308,160.208s-1.332-.114-2.901-2.509"/>
        <path class="cls-8" d="m145.31,152.253c.918-.181,5.459,1.772,5.597,4.519"/>
        <path class="cls-8" d="m79.144,37.328s1.241,3.681,5.22,5.782l3.98,2.1"/>
        <path class="cls-8" d="m87.066,40.413s11.791,7.422,13.608,11.643,4.681,6.358,4.681,6.358"/>
        <path class="cls-8" d="m76.111,30.17s2.337,3.086,7.637,5.7,9.596,8.899,9.596,8.899"/>
        <path class="cls-8" d="m94.588,37.139s3.901,5.31,5.514,8.979,4.209,8.934,4.209,8.934"/>
        <path class="cls-8" d="m73.699,24.852s9.434,3.779,10.05,11.018"/>
        <path class="cls-8" d="m86.719,30.093s2.073.768,3.723,5.553,9.659,10.472,9.659,10.472"/>
        <path class="cls-8" d="m77.182,23.246s3.366.445,5.152,3.736.894,4.438,4.501,6.55"/>
        <path class="cls-8" d="m73.393,15.741s6.255,8.528,11.909,10.955,8.023,8.852,8.023,8.852"/>
      </g>
      <path class="cls-2" d="m116.744,107.689s-15.311,3.09-25.726.273"/>
      <path class="cls-2" d="m86.605,79.336s14.635-.829,21.983,3.231c5.99,3.31,7.494,5.458,7.494,5.458"/>
    </g>
    <g>
      <g>
        <path class="cls-14" d="m112.123.798s1.606,17.359,13.137,36.07c6.984,11.334,14.302,27.607,15.791,34.414,1.488,6.807-.865,4.251-.865,4.251,0,0,3.679,4.94,4.188,11.302.146,1.822-1.016,3.08-1.016,3.08,0,0,1.522,2.231,1.668,4.048s.23,2.856-.857,2.682c0,0,3.195,3.012,1.538,5.758,0,0,2.992,3.289,1.113,6.053,0,0,2.623,2.012,1.891,6.252,0,0,2.481,2.415.856,7.249,0,0,4.389,1.218,2.421,8.431,0,0,4.037,3.467,1.474,8.245,0,0,1.863,6.516-3.54,7.731-5.404,1.215-13.133.294-14.94-.477-1.807-.771-3.189-2.369-1.354-2.907,0,0-2.623.078-4.534-1.991-1.911-2.069-.327-4.044.852-4.4,0,0-3.079,1.353-4.186-1.352-.903-2.206.463-4.884,1.775-5.251,0,0-2.186-.479-2.303-3.606-.118-3.127-.471-5.843,1.241-6.241,0,0-1.97-1.18-3.004-5.641-.9-3.881-.11-4.695,1.09-4.791,0,0-1.919-.713-2.821-5.893-.696-3.998.475-4.896,1.665-5.122,0,0-3.084-.842-4.484-7.352s-.874-7.509,1.095-8.058c0,0-1.557-.713-3.274-7.318-1.289-4.961-1.789-8.874.849-7.777,0,0-2.116-1.215-3.072-12.822-.516-6.264-1.43-9.124-1.893-10.283s-.498-3.459,1.619-3.416c0,0-2.389.321-4.615-12.307-2.226-12.628-1.878-24.559-3.297-27.19"/>
        <path class="cls-6" d="m140.185,75.532s-22.991-31.357-25.944-33.865"/>
        <path class="cls-6" d="m117.586,68.188s5.012,3.912,6.824,4.748,5.178,3.572,5.58,3.932"/>
        <path class="cls-6" d="m120.011,83.283s8.161,4.68,9.635,5.504c4.756,2.656,9.292,2.785,10.334,3.225"/>
        <path class="cls-6" d="m123.4,98.694s5.805-.398,7.838.681,4.224,1.623,5.301,1.668"/>
        <path class="cls-6" d="m126.471,120.14s5.013,1.429,10.594-.911"/>
        <path class="cls-6" d="m124.561,109.417s10.705,2.483,19.384-.183"/>
        <path class="cls-6" d="m127.533,129.987s12.81-.935,18.735-6.604"/>
        <path class="cls-6" d="m129.944,136.589s11.546-2.049,14.092-3.754"/>
        <path class="cls-6" d="m133.627,142.98s11.284.107,16.972-3.9"/>
      </g>
      <g class="cls-7">
        <path class="cls-3" d="m134.618,64.738c.431.358,2.753,2.524,4.17,3.457s1.43,3.295,1.43,3.295"/>
        <path class="cls-3" d="m138.527,66.201c-1.29-1.025-2.136-2.78-3.389-3.334s-4.926-4.507-4.926-4.507c0,0-2.506-3.736-3.277-2.27"/>
        <path class="cls-3" d="m124.557,51.461s1.763-3.097,3.344-.128,2.036,5.285,4.844,6.825,4.392,4.55,4.392,4.55"/>
        <path class="cls-3" d="m133.425,54.43s-4.796-5.728-5.524-3.097"/>
        <path class="cls-3" d="m128.421,44.176s-5.326-7.039-3.656-1.781c.513,1.616.711,6.328-.073,8.246"/>
        <path class="cls-3" d="m119.419,40.605s1.038,1.611,2.178,2.435,3.31,2.445,3.409,3.95"/>
        <path class="cls-3" d="m110.586,27.962s1.831-.589,3.798,5.493c1.966,6.083,1.742,6.623,1.58,7.943"/>
        <path class="cls-3" d="m116.713,35.72s-1.871,3.043-.528,3.325c2.796.588,4.255,2.149,4.284,7.505"/>
        <path class="cls-3" d="m125.228,54.159s-.843-4.742-1.957-6.123-2.338-3.244-2.965-1.038"/>
        <path class="cls-3" d="m115.671,41.894s1.527-.392,3.312,2.509c1.327,2.157,2.132,4.714,2.132,4.714"/>
        <path class="cls-3" d="m112.516,28.969c.259-8.88-3.463-8.319-3.463-8.319"/>
        <path class="cls-3" d="m108.055,16.071c.137-.011,3.35,1.125,4.048,2.768.698,1.643,1.734,2.606,2.5,3.067s1.763,2.139-.353,3.228"/>
        <path class="cls-3" d="m115.304,30.606s.796-6.6-2.756-5.335"/>
        <path class="cls-3" d="m119.124,40.209s2.433-8.683-6.11-10.076"/>
        <path class="cls-3" d="m123.346,44.153s-.026-1.381-.784-4.908-3.253-4.613-3.253-4.613c-.162,2.339,2.412-4.477-3.522-6.891"/>
        <path class="cls-3" d="m123.631,34.72s-1.774-3.07-4.001-3.415"/>
        <path class="cls-3" d="m125.126,44.457s4.027,2.521,4.466,6.207"/>
        <path class="cls-3" d="m120.473,27.066s-1.915-1.302-2.996-1.338c-2.662-.089-.61,2.554-.61,2.554"/>
        <path class="cls-3" d="m118.586,22.423s-1.928-3.881-3.983-.517"/>
        <path class="cls-3" d="m115.512,13.391s-1.802-1.606-3.297-.18-.408,2.877-.408,2.877"/>
        <path class="cls-3" d="m114.295,9.039s-1.656-2.231-3.215-1.975-1.31.916-1.26,3.726c.066,3.783.501,6.214.501,6.214,2.85-3.364,6.724,3.352,6.724,3.352"/>
        <path class="cls-3" d="m112.732,3.93s-2.788-3.014-1.653,3.133"/>
        <path class="cls-3" d="m106.328,3.646s3.07.014,3.238,6.377"/>
        <path class="cls-3" d="m106.636,7.418s2.723.028,3.204,4.807"/>
        <path class="cls-3" d="m116.039,47.338c.159.314-1.091,3.109,1.862,4.792s5.034,2.518,7.028,3.95"/>
        <path class="cls-3" d="m131.457,64.724s-2.289-2.491-4.663-2.073-4.894-4.213-5.936-4.654-2.83-.635-5.473-2.825"/>
        <path class="cls-3" d="m126.974,69.791s-1.279-4.21-4.04-5.166c-2.761-.956-4.379-2.132-4.995-4.239s-.607-3.698-.607-3.698"/>
        <path class="cls-3" d="m127.011,65.345s2.337.598,4.296,6.583,3.025,5.9,4.39,6.183,5.644,3.428,5.644,3.428"/>
        <path class="cls-3" d="m123.979,68.424s-3.015.409-5.108-2.429-.931-5.609-.931-5.609"/>
        <path class="cls-3" d="m118.95,72.914s2.749,1.349,3.478,4.557,2.575,3.646,2.575,3.646"/>
        <path class="cls-3" d="m118.455,77.296s1.747,1.827,3.356,2.184,5.776,2.896,6.199,3.144,1.952,2.581,3.852,2.835,5.547,2.223,7.498,4.792"/>
        <path class="cls-3" d="m142.62,97.421s-3.407,1.11-6.557-.561-6.128-.332-7.547.379"/>
        <path class="cls-3" d="m124.558,92.436s2.719-2.07,4.408-.352,1.531,3.956,3.215,4.003"/>
        <path class="cls-3" d="m120.822,90.196s1.347.337,3.736,2.24c1.506,1.199,4.564,1.587,4.564,1.587"/>
        <path class="cls-3" d="m146.412,106.168c-.424-.26-5.432-.798-8.345,1.352"/>
        <path class="cls-3" d="m139.711,102.942s-5.915,6.623-12.096-1.021"/>
        <path class="cls-3" d="m125.374,107.945s2.755-.527,3.889-1.444,5.493-.935,5.493-.935"/>
        <path class="cls-3" d="m123.869,103.571s1.362,1.234,4.279,1.269"/>
        <path class="cls-3" d="m146.138,111.09s-5.48,3.601-9.124,1.673"/>
        <path class="cls-3" d="m126.138,112.686s1.046,2.336,3.927,2.611,6.484.023,8.574-.684"/>
        <path class="cls-3" d="m128.916,118.064s-1.888-1.74,3.917-2.596"/>
        <path class="cls-3" d="m147.253,116.601s-4.537,1.982-5.415,4.404c-.878,2.422-5.685,1.891-5.685,1.891"/>
        <path class="cls-3" d="m147.534,120.093s-1.357,1.48-5.697.912"/>
        <path class="cls-3" d="m128.393,123.948s.838-1.202,3.862-.308,5.205,1.308,7.155.532"/>
        <path class="cls-3" d="m133.374,125.877s-2.004,1.124-3.605-.937"/>
        <path class="cls-3" d="m150.307,124.526s-6.193-.249-8.401,5.649c0,0,.405,1.699-4.679,1.878s-6.897-.783-8.18.004"/>
        <path class="cls-3" d="m130.166,133.559s1.23,1.057,4.93-1.315"/>
        <path class="cls-3" d="m149.1,127.859s-1.764,3.088-7.194,2.316"/>
        <path class="cls-3" d="m147.369,133.017s-6.779,2.462-8.817,4.65c-2.038,2.188-6.042.885-6.042.885"/>
        <path class="cls-3" d="m152.772,133.461s-2.251,3.708-5.087,3.477c-2.837-.231-2.708-.296-5.118,1.426s-6.933.553-6.933.553"/>
        <path class="cls-3" d="m151.49,139.203s-2.731,2.745-6.374,3.33"/>
        <path class="cls-3" d="m140.64,144.471s5.082,1.404,7.604-.607c2.522-2.011,4.273-1.922,4.273-1.922"/>
      </g>
    </g>
  </g>
  <g id="_括約筋-2" data-name="括約筋">
    <g>
      <path class="cls-15" d="m279.219,143.441c3.007-4.106,6.4-4.558,9.228-2.151s3.226,3.553,6.555,4.472,6.697,1.213,7.874,1.426,5.43,1.489,6.558,6.115c1.128,4.626-3.225,28.345-25.481,26.146-22.256-2.2-27.924-17.22-28.484-21.241-.763-5.489-1.201-11.869,12.257-11.381,4.49.163,9.83-1.116,11.493-3.386Z"/>
      <path class="cls-15" d="m317.945,107.345c-.498.142,12.359,13.861-5.92,36.195-4.105,5.015-14.214,3.632-18.286,1.235s-9.44-7.395-6.83-17.471c0,0-.787-3.996.494-9.322,1.282-5.326.722-4.67.417-6.367s1.59-5.397,4.409-5.012c0,0-3.82.192-2.681-4.402,1.139-4.594,3.702-15.247,3.702-15.247,0,0,.163-.476.405-.723,0,0-.734.442.177-2.867s4.26-18.652,13.235-26.122c8.975-7.47,13.712-10.907,17.469-11.49s7.638-1.017,8.071,7.4-.302,23.19-9.727,25.652c0,0,4.338,2.049,3.433,9.465-.905,7.416-4.035,17.84-8.368,19.076Z"/>
      <path class="cls-15" d="m341.367,13.299s-2.41,3.368-2.377,8.12c.033,4.752-3.448,17.985-6.936,20.599-3.489,2.614-10.253,4.586-10.253,4.586,0,0-4.132.677-17.256,13.095-2.438,2.307-5.167,6.194-1.062-5.609,4.105-11.803,11.518-22.736,22.593-31.523,11.075-8.787,10.354-11.06,10.354-11.06"/>
      <g class="cls-4">
        <path class="cls-8" d="m325.829,49.061s-5.392,4.519-6.976,6.316c-1.585,1.797-2.202,2.159-4.506,3.163s-2.209,2.348-4.873,3.191-5.789.467-10.084,5.848"/>
        <path class="cls-8" d="m320.408,50.216s-.591,1.977-1.659,2.826-2.897,4.574-4.402,5.498"/>
        <path class="cls-8" d="m328.957,50.248s-5.36,3.103-8.469,6.993c-3.109,3.89-5.648,6.746-9.116,7.823s-8.098,3.934-9.69,6.393c-1.592,2.459-6.208,5.965-6.208,5.965"/>
        <path class="cls-8" d="m297.149,72.567s3.958-4.813,5.518-5.857,5.54-2.218,6.872-2.64,3.075-1.527,4.344-3.003"/>
        <path class="cls-8" d="m329.778,54.471s-3.938,4.677-6.645,5.755c-2.707,1.078-4.002,3.781-5.687,6.129-1.686,2.348-9.234,7.613-13.702,10.119"/>
        <path class="cls-8" d="m294.54,82.513s1.663-2.952,5.267-5.805,6.572-5.358,9.004-7.423c2.432-2.065,6.295-2.396,8.636-2.931"/>
        <path class="cls-8" d="m328.466,61.624s-5.67,5.416-9.292,7.128c-3.622,1.713-8.406,4.162-10.855,6.94"/>
        <path class="cls-8" d="m328.429,64.933c-.05.275-4.15,3.969-11.636,4.982"/>
        <path class="cls-8" d="m326.032,70.533s-3.217,3.237-7.199,3.179-6.643-.886-9.173.676"/>
        <path class="cls-8" d="m324.463,74.732s-6.304,2.743-9.789,2.111-8.376.534-12.375,1.816"/>
        <path class="cls-8" d="m293.133,94.449c.046-.276.206-6.121,4.695-7.582s5.732-1.399,8.482-2.714c2.751-1.315,3.082-1.255,5.858-.847,2.777.408,6.066-.735,7.131-1.567"/>
        <path class="cls-8" d="m295.022,91.38s4.892-2.209,7.5-2.747,4.707-2.337,6.733-2.349,6.298.951,8.825-.391,3.663-2.558,5.489-1.943"/>
        <path class="cls-8" d="m322.454,90.031s-2.999-.232-5.524-3.462"/>
        <path class="cls-8" d="m294.854,95.613s2.506-4.852,8.096-4.597,6.033,1.661,9.099.132,5.577-.916,7.894.135"/>
        <path class="cls-8" d="m297.544,95.248s4.54.12,7.328-.776,4.604-.757,6.588-.114,6.353,1.54,10.107.504"/>
        <path class="cls-8" d="m318.366,99.873s-3.493.031-5.2-2.742c-1.707-2.773-3.757-3.307-4.549-3.287"/>
        <path class="cls-8" d="m290.775,103.023s.041-1.572,3.405-1.878,2.216-.704,5.474-2.388,5.531-2.876,11.2-1.098"/>
        <path class="cls-8" d="m292.174,99.202s1.32-2.596,4.977-1.815c3.657.782,6.699,2.442,9.786,3.129,3.086.687,4.153,4.197,6.565,4.728s3.86.099,3.86.099"/>
        <path class="cls-8" d="m317.928,102.257s-1.294-1.561-7.664-1.388"/>
        <path class="cls-8" d="m289.29,111.092s2.889.334,5.591,1.771c2.702,1.437,5.281.642,7.607.605,2.326-.037,6.543-2.147,9.583-.87s4.795,1.662,7.29,4.226"/>
        <path class="cls-8" d="m289.01,116.442s7.575-.436,11.9-2.87"/>
        <path class="cls-8" d="m297.256,116.704s10.139,1.931,11.261,3.272,3.123,4.735,5.204,5.206,3.516.732,4.926,1.745"/>
        <path class="cls-8" d="m309.96,119.574s2.238-2.252,7.945-.41"/>
        <path class="cls-8" d="m288.101,121.393s-.239-2.602,2.519-2.718c2.759-.116,5.732.56,6.716.601,1.197.049,1.979-.021,4.248,2.475,2.27,2.496,7.432,2.957,7.432,2.957"/>
        <path class="cls-8" d="m290.158,121.198s5.21,2.198,7.922.961"/>
        <path class="cls-8" d="m288.076,125.084s2.9-2.128,5.822-.651c2.923,1.477,4.036,2.247,4.419,3.264s1.234,2.391,3.069,3.061"/>
        <path class="cls-8" d="m298.621,126.047s4.136,1.792,6.797,1.231,6.934-.849,9.789,2.237"/>
        <path class="cls-8" d="m291.349,104.169s6.436-.577,10.185,2.442"/>
        <path class="cls-8" d="m309.255,106.371s-2.165-3.14-6.924-4.097c-4.76-.957-8.15-1.129-8.15-1.129"/>
        <path class="cls-8" d="m288.38,127.571s3.071-.991,5.115.927c2.043,1.918,2.187,3.175,4.6,3.613"/>
        <path class="cls-8" d="m297.775,133.852s3.185.577,4.83-.925,5.237-1.192,6.821-.498,5.694,1.912,5.694,1.912"/>
        <path class="cls-8" d="m288.088,129.16s2.221,1.35,3.66,1.8,3.072,1.599,3.425,2.421,4.262,3.141,7.97,2.202c3.708-.939,3.455,1.06,4.955,1.588s4.747.86,4.747.86"/>
        <path class="cls-8" d="m287.499,132.37s4.212,1.679,5.384,3.281,5.741,2.24,5.741,2.24"/>
        <path class="cls-8" d="m288.908,137.331s3.301,2.524,7.104,2.929c3.804.405,4.437.425,4.437.425,0,0,1.568,1.659,4.146,3.144,2.579,1.485,2.581.854,2.581.854"/>
        <path class="cls-8" d="m309.057,140.444s-4.775-2.269-5.745-1.695-1.414,2.483-2.863,1.936"/>
        <path class="cls-8" d="m291.887,141.527s6.405.694,10.271,3.51"/>
        <path class="cls-8" d="m287.299,143.609s2.34,4.309,8.747,4.995c6.407.687,11.004,2.772,11.004,2.772"/>
        <path class="cls-8" d="m308.032,156.176s-3.991-.628-5.891-2.394-4.649-3.569-7.915-3.792c-3.267-.223-8.01-4.209-8.444-4.951"/>
        <path class="cls-8" d="m304.439,159.6s-2.697-3.331-5.992-4.023-5.667-3.301-6.416-4.194"/>
        <path class="cls-8" d="m298.893,158.121s2.907.053,4.348,2.588c1.441,2.535,1.527,3.309,2.47,3.764"/>
        <path class="cls-8" d="m286.512,150.383s3.63,4.637,7.122,6.028,5.378,2.395,5.539,4.888-.819,5.347.174,7.706"/>
        <path class="cls-8" d="m304.395,165.845s-2.536-.175-5.221-4.546"/>
        <path class="cls-8" d="m301.279,166.323s2.037,2.297,1.692,4.381"/>
        <path class="cls-8" d="m281.596,144.67s5.955,13.102,3.443,18.71c-2.512,5.609-.514,13.93-.514,13.93"/>
        <path class="cls-8" d="m286.645,154.633s1.711,3.284,6.3,5.537,3.063,8.703,3.063,8.703"/>
        <path class="cls-8" d="m288.945,159.446s-.468,4.747,3.499,8.782c3.967,4.035,5.587,3.286,5.822,6.361"/>
        <path class="cls-8" d="m285.325,161.822s3.299,8.746,2.633,11.752"/>
        <path class="cls-8" d="m287.302,162.18s4.755,6.641,3.354,10.461c-1.402,3.82-1.125,5.576-1.125,5.576"/>
        <path class="cls-8" d="m278.276,146.164s1.994,4.049.313,8.238-3.129,5.633-2.542,9.387c.587,3.754,2.617,8.386,1.782,9.75"/>
        <path class="cls-8" d="m278.964,153.242s1.117,5.46.299,8.055-1.098,6.145-.5,7.153"/>
        <path class="cls-8" d="m281.119,148.553s.083,4.658,1.066,8.626-.636,7.607-.636,7.607"/>
        <path class="cls-8" d="m280.195,172.167c.147.027.398,3.892-.942,5.135"/>
        <path class="cls-8" d="m274.259,148.163s-1.093,7.197-.969,10.249c.124,3.052-.807,4.399-1.569,6.062-.761,1.662-.154,4.615-.372,6.091"/>
        <path class="cls-8" d="m272.957,172.657c.535.192,2.314-2.044,2.473-3.531"/>
        <path class="cls-8" d="m275.197,175.62s2.645-1.665-.419-7.893c-1.152-2.34-.587-4.275-.587-4.275"/>
        <path class="cls-8" d="m265.719,169.358s-.983-5.77,2.062-9.103c3.045-3.333,2.019-11.003,2.019-11.003"/>
        <path class="cls-8" d="m268.275,172.28s.674-.776.436-3.827c-.238-3.051.285-4.662.989-5.387s2.793-6.329,1.846-9.054"/>
        <path class="cls-8" d="m266.353,149.061c.008-.02-1.727,5.275-2.355,7.702-.586,2.262-4.783,5.634-5.835,5.775"/>
        <path class="cls-8" d="m268.098,149.082s-.799,8.558-2.559,10.277c-1.76,1.718-2.697,5.993-2.644,9.224"/>
        <path class="cls-8" d="m259.813,164.795s4.254-3.524,5.726-5.436"/>
        <path class="cls-8" d="m263.995,148.729s-2.677,4.47-4.336,7.296-1.917,5.513-1.917,5.513"/>
        <path class="cls-8" d="m256.712,158.482s1.334-.09,2.946-2.456"/>
        <path class="cls-8" d="m262.854,150.638c-.914-.197-5.491,1.672-5.678,4.416"/>
        <path class="cls-8" d="m331.106,36.939s-1.307,3.658-5.325,5.685l-4.017,2.027"/>
        <path class="cls-8" d="m323.129,39.878s-11.924,7.206-13.818,11.393c-1.894,4.187-4.796,6.272-4.796,6.272"/>
        <path class="cls-8" d="m334.269,29.837s-2.393,3.043-7.74,5.56-9.756,8.723-9.756,8.723"/>
        <path class="cls-8" d="m315.668,36.468s-3.998,5.238-5.677,8.877c-1.679,3.639-4.371,8.855-4.371,8.855"/>
        <path class="cls-8" d="m336.778,24.564s-9.502,3.606-10.249,10.833"/>
        <path class="cls-8" d="m323.664,29.567s-2.087.73-3.824,5.484c-1.737,4.754-9.849,10.294-9.849,10.294"/>
        <path class="cls-8" d="m333.325,22.895s-3.373.384-5.219,3.642c-1.846,3.258-.974,4.421-4.62,6.467"/>
        <path class="cls-8" d="m337.25,15.46s-6.41,8.413-12.107,10.736-8.183,8.704-8.183,8.704"/>
      </g>
      <path class="cls-2" d="m292.228,106.602s15.252,3.369,25.717.742"/>
      <path class="cls-2" d="m322.879,78.804s-14.618-1.096-22.038,2.83c-6.049,3.2-7.592,5.32-7.592,5.32"/>
    </g>
    <g>
      <g>
        <path class="cls-14" d="m298.132,2.934s-1.256,14.206-13.126,32.704c-7.19,11.205-14.804,27.341-16.416,34.12-1.612,6.779.787,4.266.787,4.266,0,0-3.768,4.872-4.393,11.224-.179,1.819.959,3.098.959,3.098,0,0-1.562,2.203-1.742,4.017s-.282,2.852.808,2.697c0,0-3.249,2.953-1.642,5.729,0,0-3.052,3.234-1.224,6.031,0,0-2.659,1.964-2.005,6.217,0,0-2.525,2.37-.988,7.233,0,0-4.411,1.138-2.575,8.386,0,0-4.099,3.393-1.624,8.217,0,0-1.982,6.481,3.399,7.794,5.381,1.314,13.126.533,14.946-.204,1.82-.737,3.232-2.31,1.407-2.882,0,0,2.621.126,4.57-1.908,1.949-2.034.401-4.038-.771-4.414,0,0,3.054,1.409,4.21-1.276.943-2.189-.374-4.892-1.679-5.282,0,0,2.194-.439,2.369-3.563.175-3.124.578-5.833-1.127-6.262,0,0,1.991-1.144,3.107-5.585.971-3.864.196-4.693-1.002-4.81,0,0,1.932-.677,2.928-5.841.769-3.985-.386-4.904-1.571-5.151,0,0,3.099-.786,4.617-7.269,1.513-6.461,1.011-7.492-.948-8.077,0,0,1.57-.684,3.407-7.257,1.379-4.936,1.95-8.84-.707-7.792,0,0,2.138-1.176,3.306-12.764.63-6.254,1.596-9.097,2.08-10.247s.561-3.45-1.557-3.445c0,0,2.383.365,4.839-12.221,2.456-12.586,2.953-23.045,4.421-25.649"/>
        <path class="cls-6" d="m269.378,74.023s23.559-30.932,26.558-33.386"/>
        <path class="cls-6" d="m292.107,67.092s-5.082,3.82-6.909,4.623-5.243,3.477-5.651,3.83"/>
        <path class="cls-6" d="m289.408,82.141s-8.245,4.53-9.734,5.327c-4.804,2.569-9.342,2.615-10.391,3.036"/>
        <path class="cls-6" d="m285.738,97.487s-5.797-.504-7.849.538-4.252,1.546-5.33,1.571"/>
        <path class="cls-6" d="m282.276,118.874s-5.038,1.338-10.576-1.104"/>
        <path class="cls-6" d="m284.381,108.188s-10.748,2.288-19.377-.536"/>
        <path class="cls-6" d="m281.035,128.699s-12.791-1.169-18.611-6.944"/>
        <path class="cls-6" d="m278.504,135.257s-11.507-2.259-14.022-4.011"/>
        <path class="cls-6" d="m274.705,141.579s-11.284-.098-16.898-4.209"/>
      </g>
      <g class="cls-7">
        <path class="cls-3" d="m275.141,63.333c-.438.35-2.799,2.474-4.232,3.38s-1.49,3.268-1.49,3.268"/>
        <path class="cls-3" d="m271.206,64.724c1.309-1.001,2.187-2.741,3.449-3.271s5.007-4.417,5.007-4.417c0,0,2.574-3.69,3.318-2.21"/>
        <path class="cls-3" d="m285.442,50.241s-1.706-3.129-3.341-.189c-1.635,2.94-2.132,5.247-4.968,6.736-2.836,1.489-4.475,4.469-4.475,4.469"/>
        <path class="cls-3" d="m276.522,53.047s4.9-5.639,5.579-2.996"/>
        <path class="cls-3" d="m281.712,42.887s5.453-6.94,3.688-1.714c-.543,1.607-.827,6.314-.077,8.246"/>
        <path class="cls-3" d="m290.778,39.481s-1.068,1.592-2.222,2.395-3.354,2.384-3.48,3.887"/>
        <path class="cls-3" d="m299.84,27.001s-1.82-.623-3.897,5.423c-2.077,6.046-1.862,6.59-1.724,7.913"/>
        <path class="cls-3" d="m293.572,34.646s1.815,3.077.467,3.335c-2.806.537-4.293,2.071-4.42,7.425"/>
        <path class="cls-3" d="m284.723,52.926s.929-4.726,2.068-6.087c1.139-1.361,2.396-3.2,2.983-.983"/>
        <path class="cls-3" d="m294.502,40.838s-1.519-.419-3.357,2.448c-1.366,2.132-2.218,4.674-2.218,4.674"/>
        <path class="cls-3" d="m297.891,27.973c-.097-8.883,3.614-8.254,3.614-8.254"/>
        <path class="cls-3" d="m302.587,15.158c-.137-.013-3.37,1.063-4.098,2.694-.728,1.63-1.781,2.574-2.555,3.021s-1.802,2.107.294,3.234"/>
        <path class="cls-3" d="m295.075,29.558s-.675-6.613,2.853-5.284"/>
        <path class="cls-3" d="m291.08,39.09s-2.274-8.726,6.293-9.963"/>
        <path class="cls-3" d="m286.787,42.956s.051-1.38.873-4.893c.822-3.513,3.337-4.553,3.337-4.553.119,2.342-2.33-4.52,3.647-6.826"/>
        <path class="cls-3" d="m286.673,33.52s1.83-3.037,4.063-3.341"/>
        <path class="cls-3" d="m285.001,43.228s-4.072,2.447-4.578,6.125"/>
        <path class="cls-3" d="m289.971,25.925s1.938-1.267,3.02-1.283c2.663-.04.563,2.565.563,2.565"/>
        <path class="cls-3" d="m291.943,21.317s1.999-3.845,3.992-.444"/>
        <path class="cls-3" d="m295.18,12.343s1.831-1.573,3.3-.12.355,2.884.355,2.884"/>
        <path class="cls-3" d="m296.477,8.013s1.696-2.2,3.251-1.916,1.293.939,1.192,3.748c-.135,3.781-.614,6.204-.614,6.204-2.788-3.415-6.784,3.229-6.784,3.229"/>
        <path class="cls-3" d="m298.132,2.934s2.843-2.963,1.596,3.163"/>
        <path class="cls-3" d="m304.541,2.767s-3.07-.042-3.354,6.316"/>
        <path class="cls-3" d="m304.164,6.532s-2.723-.022-3.291,4.747"/>
        <path class="cls-3" d="m294.034,46.274c-.165.311,1.034,3.128-1.95,4.758s-5.079,2.426-7.099,3.822"/>
        <path class="cls-3" d="m278.302,63.376s2.334-2.448,4.7-1.987,4.97-4.123,6.02-4.545,2.841-.583,5.524-2.724"/>
        <path class="cls-3" d="m282.691,68.524s1.355-4.186,4.133-5.091,4.417-2.051,5.072-4.148.674-3.687.674-3.687"/>
        <path class="cls-3" d="m282.736,64.078s-2.348.555-4.415,6.503c-2.067,5.949-3.132,5.844-4.502,6.102s-5.705,3.324-5.705,3.324"/>
        <path class="cls-3" d="m285.711,67.212s3.007.464,5.152-2.336,1.033-5.591,1.033-5.591"/>
        <path class="cls-3" d="m290.658,71.793s-2.773,1.298-3.56,4.493-2.641,3.598-2.641,3.598"/>
        <path class="cls-3" d="m291.073,76.183s-1.78,1.794-3.395,2.123-5.828,2.79-6.255,3.031-1.999,2.545-3.903,2.764-5.586,2.121-7.584,4.655"/>
        <path class="cls-3" d="m266.544,95.864s3.386,1.172,6.566-.441,6.133-.22,7.539.517"/>
        <path class="cls-3" d="m284.694,91.209s-2.681-2.119-4.4-.432-1.603,3.928-3.287,3.944"/>
        <path class="cls-3" d="m288.47,89.038s-1.353.313-3.777,2.172c-1.527,1.171-4.592,1.503-4.592,1.503"/>
        <path class="cls-3" d="m262.593,104.54c.428-.252,5.445-.699,8.319,1.504"/>
        <path class="cls-3" d="m269.352,101.437s5.793,6.73,12.112-.8"/>
        <path class="cls-3" d="m283.596,106.701s-2.745-.578-3.862-1.515-5.475-1.035-5.475-1.035"/>
        <path class="cls-3" d="m285.18,102.354s-1.384,1.209-4.302,1.19"/>
        <path class="cls-3" d="m262.778,109.467s5.413,3.7,9.092,1.839"/>
        <path class="cls-3" d="m282.745,111.427s-1.088,2.316-3.974,2.539c-2.886.223-6.483-.096-8.56-.84"/>
        <path class="cls-3" d="m279.869,116.753s1.919-1.706-3.869-2.667"/>
        <path class="cls-3" d="m261.562,114.956s4.5,2.064,5.334,4.502c.834,2.438,5.649,1.994,5.649,1.994"/>
        <path class="cls-3" d="m261.217,118.443s1.329,1.505,5.679,1.016"/>
        <path class="cls-3" d="m280.285,122.646s-.815-1.217-3.855-.378c-3.04.839-5.228,1.213-7.163.401"/>
        <path class="cls-3" d="m275.269,124.484s1.983,1.161,3.622-.871"/>
        <path class="cls-3" d="m258.364,122.825s6.196-.136,8.296,5.801c0,0-.436,1.691,4.644,1.963s6.91-.657,8.179.153"/>
        <path class="cls-3" d="m278.337,132.223s-1.249,1.034-4.905-1.405"/>
        <path class="cls-3" d="m259.51,126.178s1.707,3.119,7.15,2.447"/>
        <path class="cls-3" d="m261.147,131.367s6.733,2.585,8.731,4.81c1.997,2.225,6.025.995,6.025.995"/>
        <path class="cls-3" d="m255.737,131.713s2.183,3.748,5.023,3.569c2.84-.179,2.713-.247,5.091,1.519s6.922.68,6.922.68"/>
        <path class="cls-3" d="m256.913,137.478s2.68,2.794,6.312,3.445"/>
        <path class="cls-3" d="m267.666,142.942s-5.107,1.311-7.591-.745-4.237-1.999-4.237-1.999"/>
      </g>
    </g>
  </g>
  <path class="cls-58" d="m264.255,193.727c-3.108-1.327-8.846-5.46-8.846-5.46-6.964-11.591-9.331-24.209-10.599-39.903-1.177-14.572-6.182-28.831-6.236-28.981l.461-.476,1.894-.138.717-1.345,1.378-.487c.226.639,5.541,15.81,6.771,31.025,1.489,18.437,4.325,31.58,14.417,44.204l.044,1.561Z"/>
  <path class="cls-60" d="m264.058,193.641c-2.992-1.34-6.555-3.918-6.555-3.918-7.83-11.978-10.368-24.999-11.697-41.439-1.187-14.688-6.292-29.257-6.345-29.408,0,0,.305.13,1.357-.688.622-.484.816-1.252.816-1.252.224.633,5.944,16.019,7.163,31.106,1.505,18.63,4.382,31.924,14.633,44.748l.629.85Z"/>
</svg>