<?xml version="1.0" encoding="UTF-8"?>
<svg id="_イヤー_1" data-name="レイヤー 1" xmlns="http://www.w3.org/2000/svg" width="145.242mm" height="97.13mm" xmlns:xlink="http://www.w3.org/1999/xlink" viewBox="0 0 411.711 275.329">
  <defs>
    <style>
      .cls-1 {
        fill: url(#_称未設定グラデーション_49-2);
      }

      .cls-2 {
        fill: url(#_称未設定グラデーション_12);
      }

      .cls-3 {
        fill: url(#_称未設定グラデーション_49);
      }

      .cls-4 {
        fill: url(#_称未設定グラデーション_138-2);
      }

      .cls-4, .cls-5, .cls-6, .cls-7, .cls-8 {
        stroke-miterlimit: 10;
      }

      .cls-4, .cls-6, .cls-7 {
        stroke: #7e4f22;
        stroke-width: 1.465px;
      }

      .cls-9 {
        fill: url(#_規グラデーションスウォッチ_4-2);
      }

      .cls-9, .cls-10, .cls-11, .cls-12, .cls-13 {
        opacity: .091;
      }

      .cls-14 {
        fill: #89c6cb;
      }

      .cls-15 {
        fill: #ae373e;
      }

      .cls-16 {
        fill: #231815;
      }

      .cls-17 {
        fill: url(#_規グラデーションスウォッチ_4-37);
      }

      .cls-17, .cls-18, .cls-19, .cls-20, .cls-21 {
        opacity: 0;
      }

      .cls-18 {
        fill: url(#_規グラデーションスウォッチ_4-49);
      }

      .cls-19 {
        fill: url(#_規グラデーションスウォッチ_4-25);
      }

      .cls-20 {
        fill: url(#_規グラデーションスウォッチ_4-13);
      }

      .cls-5, .cls-6, .cls-22, .cls-8 {
        fill: none;
      }

      .cls-5, .cls-22 {
        stroke: #ae373e;
        stroke-width: 1.279px;
      }

      .cls-23 {
        fill: url(#_規グラデーションスウォッチ_4-58);
      }

      .cls-23, .cls-24, .cls-25, .cls-26, .cls-27 {
        opacity: .818;
      }

      .cls-24 {
        fill: url(#_規グラデーションスウォッチ_4-46);
      }

      .cls-25 {
        fill: url(#_規グラデーションスウォッチ_4-34);
      }

      .cls-26 {
        fill: url(#_規グラデーションスウォッチ_4-22);
      }

      .cls-27 {
        fill: url(#_規グラデーションスウォッチ_4-10);
      }

      .cls-28 {
        fill: url(#_規グラデーションスウォッチ_4-35);
      }

      .cls-28, .cls-29, .cls-30, .cls-31, .cls-32 {
        opacity: .909;
      }

      .cls-29 {
        fill: url(#_規グラデーションスウォッチ_4-47);
      }

      .cls-30 {
        fill: url(#_規グラデーションスウォッチ_4-59);
      }

      .cls-31 {
        fill: url(#_規グラデーションスウォッチ_4-23);
      }

      .cls-32 {
        fill: url(#_規グラデーションスウォッチ_4-11);
      }

      .cls-33 {
        fill: url(#_規グラデーションスウォッチ_4-45);
      }

      .cls-33, .cls-34, .cls-35, .cls-36, .cls-37 {
        opacity: .727;
      }

      .cls-34 {
        fill: url(#_規グラデーションスウォッチ_4-33);
      }

      .cls-35 {
        fill: url(#_規グラデーションスウォッチ_4-57);
      }

      .cls-36 {
        fill: url(#_規グラデーションスウォッチ_4-21);
      }

      .cls-38 {
        fill: url(#_規グラデーションスウォッチ_4-42);
      }

      .cls-38, .cls-39, .cls-40, .cls-41, .cls-42 {
        opacity: .455;
      }

      .cls-39 {
        fill: url(#_規グラデーションスウォッチ_4-30);
      }

      .cls-40 {
        fill: url(#_規グラデーションスウォッチ_4-54);
      }

      .cls-41 {
        fill: url(#_規グラデーションスウォッチ_4-18);
      }

      .cls-43 {
        fill: url(#_規グラデーションスウォッチ_4-44);
      }

      .cls-43, .cls-44, .cls-45, .cls-46, .cls-47 {
        opacity: .636;
      }

      .cls-44 {
        fill: url(#_規グラデーションスウォッチ_4-32);
      }

      .cls-45 {
        fill: url(#_規グラデーションスウォッチ_4-56);
      }

      .cls-46 {
        fill: url(#_規グラデーションスウォッチ_4-20);
      }

      .cls-48 {
        fill: url(#_規グラデーションスウォッチ_4-41);
      }

      .cls-48, .cls-49, .cls-50, .cls-51, .cls-52 {
        opacity: .364;
      }

      .cls-49 {
        fill: url(#_規グラデーションスウォッチ_4-53);
      }

      .cls-50 {
        fill: url(#_規グラデーションスウォッチ_4-29);
      }

      .cls-51 {
        fill: url(#_規グラデーションスウォッチ_4-17);
      }

      .cls-53 {
        fill: url(#_規グラデーションスウォッチ_4-19);
      }

      .cls-53, .cls-54, .cls-55, .cls-56, .cls-57 {
        opacity: .545;
      }

      .cls-54 {
        fill: url(#_規グラデーションスウォッチ_4-43);
      }

      .cls-55 {
        fill: url(#_規グラデーションスウォッチ_4-31);
      }

      .cls-56 {
        fill: url(#_規グラデーションスウォッチ_4-55);
      }

      .cls-58 {
        fill: url(#_規グラデーションスウォッチ_4-51);
      }

      .cls-58, .cls-59, .cls-60, .cls-61, .cls-62 {
        opacity: .182;
      }

      .cls-59 {
        fill: url(#_規グラデーションスウォッチ_4-39);
      }

      .cls-60 {
        fill: url(#_規グラデーションスウォッチ_4-15);
      }

      .cls-61 {
        fill: url(#_規グラデーションスウォッチ_4-27);
      }

      .cls-63 {
        fill: url(#_規グラデーションスウォッチ_4-40);
      }

      .cls-63, .cls-64, .cls-65, .cls-66, .cls-67 {
        opacity: .273;
      }

      .cls-64 {
        fill: url(#_規グラデーションスウォッチ_4-52);
      }

      .cls-65 {
        fill: url(#_規グラデーションスウォッチ_4-16);
      }

      .cls-66 {
        fill: url(#_規グラデーションスウォッチ_4-28);
      }

      .cls-68 {
        fill: url(#_規グラデーションスウォッチ_4-24);
      }

      .cls-69 {
        fill: url(#_規グラデーションスウォッチ_4-12);
      }

      .cls-70 {
        fill: url(#_規グラデーションスウォッチ_4-36);
      }

      .cls-71 {
        fill: url(#_規グラデーションスウォッチ_4-60);
      }

      .cls-72 {
        fill: url(#_規グラデーションスウォッチ_4-48);
      }

      .cls-21 {
        fill: url(#_規グラデーションスウォッチ_4);
      }

      .cls-7 {
        fill: url(#_称未設定グラデーション_138);
      }

      .cls-22 {
        stroke-linejoin: round;
      }

      .cls-37 {
        fill: url(#_規グラデーションスウォッチ_4-9);
      }

      .cls-57 {
        fill: url(#_規グラデーションスウォッチ_4-7);
      }

      .cls-52 {
        fill: url(#_規グラデーションスウォッチ_4-5);
      }

      .cls-47 {
        fill: url(#_規グラデーションスウォッチ_4-8);
      }

      .cls-67 {
        fill: url(#_規グラデーションスウォッチ_4-4);
      }

      .cls-42 {
        fill: url(#_規グラデーションスウォッチ_4-6);
      }

      .cls-8 {
        stroke: #231815;
      }

      .cls-62 {
        fill: url(#_規グラデーションスウォッチ_4-3);
      }

      .cls-73 {
        opacity: .23;
      }

      .cls-74 {
        opacity: .7;
      }

      .cls-10 {
        fill: url(#_規グラデーションスウォッチ_4-26);
      }

      .cls-11 {
        fill: url(#_規グラデーションスウォッチ_4-14);
      }

      .cls-12 {
        fill: url(#_規グラデーションスウォッチ_4-38);
      }

      .cls-13 {
        fill: url(#_規グラデーションスウォッチ_4-50);
      }
    </style>
    <linearGradient id="_称未設定グラデーション_138" data-name="名称未設定グラデーション 138" x1="131.841" y1="157.378" x2="276.705" y2="157.378" gradientTransform="matrix(1, 0, 0, 1, 0, 0)" gradientUnits="userSpaceOnUse">
      <stop offset="0" stop-color="#c65a45"/>
      <stop offset=".504" stop-color="#e6bfa0"/>
      <stop offset="1" stop-color="#c65a45"/>
    </linearGradient>
    <linearGradient id="_称未設定グラデーション_138-2" data-name="名称未設定グラデーション 138" x1="106.216" y1="74.513" x2="300.955" y2="74.513" xlink:href="#_称未設定グラデーション_138"/>
    <linearGradient id="_規グラデーションスウォッチ_4" data-name="新規グラデーションスウォッチ 4" x1="201.459" y1="89.933" x2="210.898" y2="89.933" gradientTransform="matrix(1, 0, 0, 1, 0, 0)" gradientUnits="userSpaceOnUse">
      <stop offset="0" stop-color="#c0725a"/>
      <stop offset="1" stop-color="#c0725a"/>
    </linearGradient>
    <linearGradient id="_規グラデーションスウォッチ_4-2" data-name="新規グラデーションスウォッチ 4" x1="201.682" x2="210.675" xlink:href="#_規グラデーションスウォッチ_4"/>
    <linearGradient id="_規グラデーションスウォッチ_4-3" data-name="新規グラデーションスウォッチ 4" x1="201.906" x2="210.452" xlink:href="#_規グラデーションスウォッチ_4"/>
    <linearGradient id="_規グラデーションスウォッチ_4-4" data-name="新規グラデーションスウォッチ 4" x1="202.129" y1="89.933" x2="210.229" y2="89.933" xlink:href="#_規グラデーションスウォッチ_4"/>
    <linearGradient id="_規グラデーションスウォッチ_4-5" data-name="新規グラデーションスウォッチ 4" x1="202.352" x2="210.006" xlink:href="#_規グラデーションスウォッチ_4"/>
    <linearGradient id="_規グラデーションスウォッチ_4-6" data-name="新規グラデーションスウォッチ 4" x1="202.575" y1="89.933" x2="209.783" y2="89.933" xlink:href="#_規グラデーションスウォッチ_4"/>
    <linearGradient id="_規グラデーションスウォッチ_4-7" data-name="新規グラデーションスウォッチ 4" x1="202.798" y1="89.933" x2="209.56" y2="89.933" xlink:href="#_規グラデーションスウォッチ_4"/>
    <linearGradient id="_規グラデーションスウォッチ_4-8" data-name="新規グラデーションスウォッチ 4" x1="203.021" x2="209.337" xlink:href="#_規グラデーションスウォッチ_4"/>
    <linearGradient id="_規グラデーションスウォッチ_4-9" data-name="新規グラデーションスウォッチ 4" x1="203.244" x2="209.113" xlink:href="#_規グラデーションスウォッチ_4"/>
    <linearGradient id="_規グラデーションスウォッチ_4-10" data-name="新規グラデーションスウォッチ 4" x1="203.467" y1="89.933" x2="208.89" y2="89.933" xlink:href="#_規グラデーションスウォッチ_4"/>
    <linearGradient id="_規グラデーションスウォッチ_4-11" data-name="新規グラデーションスウォッチ 4" x1="203.69" x2="208.667" xlink:href="#_規グラデーションスウォッチ_4"/>
    <linearGradient id="_規グラデーションスウォッチ_4-12" data-name="新規グラデーションスウォッチ 4" x1="203.913" y1="89.933" x2="208.444" y2="89.933" xlink:href="#_規グラデーションスウォッチ_4"/>
    <linearGradient id="_規グラデーションスウォッチ_4-13" data-name="新規グラデーションスウォッチ 4" x1="215.242" y1="88.933" x2="224.681" y2="88.933" xlink:href="#_規グラデーションスウォッチ_4"/>
    <linearGradient id="_規グラデーションスウォッチ_4-14" data-name="新規グラデーションスウォッチ 4" x1="215.465" y1="88.933" x2="224.458" y2="88.933" xlink:href="#_規グラデーションスウォッチ_4"/>
    <linearGradient id="_規グラデーションスウォッチ_4-15" data-name="新規グラデーションスウォッチ 4" x1="215.688" y1="88.933" x2="224.235" y2="88.933" xlink:href="#_規グラデーションスウォッチ_4"/>
    <linearGradient id="_規グラデーションスウォッチ_4-16" data-name="新規グラデーションスウォッチ 4" x1="215.911" y1="88.933" x2="224.011" y2="88.933" xlink:href="#_規グラデーションスウォッチ_4"/>
    <linearGradient id="_規グラデーションスウォッチ_4-17" data-name="新規グラデーションスウォッチ 4" x1="216.134" y1="88.933" x2="223.788" y2="88.933" xlink:href="#_規グラデーションスウォッチ_4"/>
    <linearGradient id="_規グラデーションスウォッチ_4-18" data-name="新規グラデーションスウォッチ 4" x1="216.357" y1="88.933" x2="223.565" y2="88.933" xlink:href="#_規グラデーションスウォッチ_4"/>
    <linearGradient id="_規グラデーションスウォッチ_4-19" data-name="新規グラデーションスウォッチ 4" x1="216.581" y1="88.933" x2="223.342" y2="88.933" xlink:href="#_規グラデーションスウォッチ_4"/>
    <linearGradient id="_規グラデーションスウォッチ_4-20" data-name="新規グラデーションスウォッチ 4" x1="216.804" y1="88.933" x2="223.119" y2="88.933" xlink:href="#_規グラデーションスウォッチ_4"/>
    <linearGradient id="_規グラデーションスウォッチ_4-21" data-name="新規グラデーションスウォッチ 4" x1="217.027" y1="88.933" x2="222.896" y2="88.933" xlink:href="#_規グラデーションスウォッチ_4"/>
    <linearGradient id="_規グラデーションスウォッチ_4-22" data-name="新規グラデーションスウォッチ 4" x1="217.25" y1="88.933" x2="222.673" y2="88.933" xlink:href="#_規グラデーションスウォッチ_4"/>
    <linearGradient id="_規グラデーションスウォッチ_4-23" data-name="新規グラデーションスウォッチ 4" x1="217.473" y1="88.933" x2="222.45" y2="88.933" xlink:href="#_規グラデーションスウォッチ_4"/>
    <linearGradient id="_規グラデーションスウォッチ_4-24" data-name="新規グラデーションスウォッチ 4" x1="217.696" y1="88.933" x2="222.227" y2="88.933" xlink:href="#_規グラデーションスウォッチ_4"/>
    <linearGradient id="_規グラデーションスウォッチ_4-25" data-name="新規グラデーションスウォッチ 4" x1="229.228" y1="89.218" x2="238.667" y2="89.218" gradientTransform="translate(326.611 -145.015) rotate(90)" xlink:href="#_規グラデーションスウォッチ_4"/>
    <linearGradient id="_規グラデーションスウォッチ_4-26" data-name="新規グラデーションスウォッチ 4" x1="229.451" y1="89.218" x2="238.444" y2="89.218" gradientTransform="translate(326.611 -145.015) rotate(90)" xlink:href="#_規グラデーションスウォッチ_4"/>
    <linearGradient id="_規グラデーションスウォッチ_4-27" data-name="新規グラデーションスウォッチ 4" x1="229.674" y1="89.218" x2="238.221" y2="89.218" gradientTransform="translate(326.611 -145.015) rotate(90)" xlink:href="#_規グラデーションスウォッチ_4"/>
    <linearGradient id="_規グラデーションスウォッチ_4-28" data-name="新規グラデーションスウォッチ 4" x1="229.898" y1="89.218" x2="237.998" y2="89.218" gradientTransform="translate(326.611 -145.015) rotate(90)" xlink:href="#_規グラデーションスウォッチ_4"/>
    <linearGradient id="_規グラデーションスウォッチ_4-29" data-name="新規グラデーションスウォッチ 4" x1="230.121" y1="89.218" x2="237.775" y2="89.218" gradientTransform="translate(326.611 -145.015) rotate(90)" xlink:href="#_規グラデーションスウォッチ_4"/>
    <linearGradient id="_規グラデーションスウォッチ_4-30" data-name="新規グラデーションスウォッチ 4" x1="230.344" y1="89.218" x2="237.552" y2="89.218" gradientTransform="translate(326.611 -145.015) rotate(90)" xlink:href="#_規グラデーションスウォッチ_4"/>
    <linearGradient id="_規グラデーションスウォッチ_4-31" data-name="新規グラデーションスウォッチ 4" x1="230.567" y1="89.218" x2="237.328" y2="89.218" gradientTransform="translate(326.611 -145.015) rotate(90)" xlink:href="#_規グラデーションスウォッチ_4"/>
    <linearGradient id="_規グラデーションスウォッチ_4-32" data-name="新規グラデーションスウォッチ 4" x1="230.79" y1="89.218" x2="237.105" y2="89.218" gradientTransform="translate(326.611 -145.015) rotate(90)" xlink:href="#_規グラデーションスウォッチ_4"/>
    <linearGradient id="_規グラデーションスウォッチ_4-33" data-name="新規グラデーションスウォッチ 4" x1="231.013" y1="89.218" x2="236.882" y2="89.218" gradientTransform="translate(326.611 -145.015) rotate(90)" xlink:href="#_規グラデーションスウォッチ_4"/>
    <linearGradient id="_規グラデーションスウォッチ_4-34" data-name="新規グラデーションスウォッチ 4" x1="231.236" y1="89.218" x2="236.659" y2="89.218" gradientTransform="translate(326.611 -145.015) rotate(90)" xlink:href="#_規グラデーションスウォッチ_4"/>
    <linearGradient id="_規グラデーションスウォッチ_4-35" data-name="新規グラデーションスウォッチ 4" x1="231.459" y1="89.218" x2="236.436" y2="89.218" gradientTransform="translate(326.611 -145.015) rotate(90)" xlink:href="#_規グラデーションスウォッチ_4"/>
    <linearGradient id="_規グラデーションスウォッチ_4-36" data-name="新規グラデーションスウォッチ 4" x1="231.682" y1="89.218" x2="236.213" y2="89.218" gradientTransform="translate(326.611 -145.015) rotate(90)" xlink:href="#_規グラデーションスウォッチ_4"/>
    <linearGradient id="_規グラデーションスウォッチ_4-37" data-name="新規グラデーションスウォッチ 4" x1="187.378" y1="88.933" x2="196.817" y2="88.933" xlink:href="#_規グラデーションスウォッチ_4"/>
    <linearGradient id="_規グラデーションスウォッチ_4-38" data-name="新規グラデーションスウォッチ 4" x1="187.601" y1="88.933" x2="196.594" y2="88.933" xlink:href="#_規グラデーションスウォッチ_4"/>
    <linearGradient id="_規グラデーションスウォッチ_4-39" data-name="新規グラデーションスウォッチ 4" x1="187.825" y1="88.933" x2="196.371" y2="88.933" xlink:href="#_規グラデーションスウォッチ_4"/>
    <linearGradient id="_規グラデーションスウォッチ_4-40" data-name="新規グラデーションスウォッチ 4" x1="188.048" y1="88.933" x2="196.148" y2="88.933" xlink:href="#_規グラデーションスウォッチ_4"/>
    <linearGradient id="_規グラデーションスウォッチ_4-41" data-name="新規グラデーションスウォッチ 4" x1="188.271" y1="88.933" x2="195.925" y2="88.933" xlink:href="#_規グラデーションスウォッチ_4"/>
    <linearGradient id="_規グラデーションスウォッチ_4-42" data-name="新規グラデーションスウォッチ 4" x1="188.494" y1="88.933" x2="195.702" y2="88.933" xlink:href="#_規グラデーションスウォッチ_4"/>
    <linearGradient id="_規グラデーションスウォッチ_4-43" data-name="新規グラデーションスウォッチ 4" x1="188.717" y1="88.933" x2="195.479" y2="88.933" xlink:href="#_規グラデーションスウォッチ_4"/>
    <linearGradient id="_規グラデーションスウォッチ_4-44" data-name="新規グラデーションスウォッチ 4" x1="188.94" y1="88.933" x2="195.256" y2="88.933" xlink:href="#_規グラデーションスウォッチ_4"/>
    <linearGradient id="_規グラデーションスウォッチ_4-45" data-name="新規グラデーションスウォッチ 4" x1="189.163" y1="88.933" x2="195.032" y2="88.933" xlink:href="#_規グラデーションスウォッチ_4"/>
    <linearGradient id="_規グラデーションスウォッチ_4-46" data-name="新規グラデーションスウォッチ 4" x1="189.386" y1="88.933" x2="194.809" y2="88.933" xlink:href="#_規グラデーションスウォッチ_4"/>
    <linearGradient id="_規グラデーションスウォッチ_4-47" data-name="新規グラデーションスウォッチ 4" x1="189.609" y1="88.933" x2="194.586" y2="88.933" xlink:href="#_規グラデーションスウォッチ_4"/>
    <linearGradient id="_規グラデーションスウォッチ_4-48" data-name="新規グラデーションスウォッチ 4" x1="189.832" y1="88.933" x2="194.363" y2="88.933" xlink:href="#_規グラデーションスウォッチ_4"/>
    <linearGradient id="_規グラデーションスウォッチ_4-49" data-name="新規グラデーションスウォッチ 4" x1="175.601" y1="88.268" x2="185.04" y2="88.268" gradientTransform="translate(-3.17 .665)" xlink:href="#_規グラデーションスウォッチ_4"/>
    <linearGradient id="_規グラデーションスウォッチ_4-50" data-name="新規グラデーションスウォッチ 4" x1="175.824" y1="88.268" x2="184.817" y2="88.268" gradientTransform="translate(-3.17 .665)" xlink:href="#_規グラデーションスウォッチ_4"/>
    <linearGradient id="_規グラデーションスウォッチ_4-51" data-name="新規グラデーションスウォッチ 4" x1="176.047" y1="88.268" x2="184.594" y2="88.268" gradientTransform="translate(-3.17 .665)" xlink:href="#_規グラデーションスウォッチ_4"/>
    <linearGradient id="_規グラデーションスウォッチ_4-52" data-name="新規グラデーションスウォッチ 4" x1="176.27" y1="88.268" x2="184.371" y2="88.268" gradientTransform="translate(-3.17 .665)" xlink:href="#_規グラデーションスウォッチ_4"/>
    <linearGradient id="_規グラデーションスウォッチ_4-53" data-name="新規グラデーションスウォッチ 4" x1="176.493" y1="88.268" x2="184.147" y2="88.268" gradientTransform="translate(-3.17 .665)" xlink:href="#_規グラデーションスウォッチ_4"/>
    <linearGradient id="_規グラデーションスウォッチ_4-54" data-name="新規グラデーションスウォッチ 4" x1="176.716" y1="88.268" x2="183.924" y2="88.268" gradientTransform="translate(-3.17 .665)" xlink:href="#_規グラデーションスウォッチ_4"/>
    <linearGradient id="_規グラデーションスウォッチ_4-55" data-name="新規グラデーションスウォッチ 4" x1="176.94" y1="88.268" x2="183.701" y2="88.268" gradientTransform="translate(-3.17 .665)" xlink:href="#_規グラデーションスウォッチ_4"/>
    <linearGradient id="_規グラデーションスウォッチ_4-56" data-name="新規グラデーションスウォッチ 4" x1="177.163" y1="88.268" x2="183.478" y2="88.268" gradientTransform="translate(-3.17 .665)" xlink:href="#_規グラデーションスウォッチ_4"/>
    <linearGradient id="_規グラデーションスウォッチ_4-57" data-name="新規グラデーションスウォッチ 4" x1="177.386" y1="88.268" x2="183.255" y2="88.268" gradientTransform="translate(-3.17 .665)" xlink:href="#_規グラデーションスウォッチ_4"/>
    <linearGradient id="_規グラデーションスウォッチ_4-58" data-name="新規グラデーションスウォッチ 4" x1="177.609" y1="88.268" x2="183.032" y2="88.268" gradientTransform="translate(-3.17 .665)" xlink:href="#_規グラデーションスウォッチ_4"/>
    <linearGradient id="_規グラデーションスウォッチ_4-59" data-name="新規グラデーションスウォッチ 4" x1="177.832" y1="88.268" x2="182.809" y2="88.268" gradientTransform="translate(-3.17 .665)" xlink:href="#_規グラデーションスウォッチ_4"/>
    <linearGradient id="_規グラデーションスウォッチ_4-60" data-name="新規グラデーションスウォッチ 4" x1="178.055" y1="88.268" x2="182.586" y2="88.268" gradientTransform="translate(-3.17 .665)" xlink:href="#_規グラデーションスウォッチ_4"/>
    <linearGradient id="_称未設定グラデーション_49" data-name="名称未設定グラデーション 49" x1="1014.861" y1="219.497" x2="1014.861" y2=".338" gradientTransform="translate(1103.245) rotate(-180) scale(1 -1)" gradientUnits="userSpaceOnUse">
      <stop offset="0" stop-color="#e79274"/>
      <stop offset="1" stop-color="#f4e7ce"/>
    </linearGradient>
    <linearGradient id="_称未設定グラデーション_49-2" data-name="名称未設定グラデーション 49" x1="771.809" y1="244.193" x2="771.809" y2=".338" gradientTransform="translate(-449.909)" xlink:href="#_称未設定グラデーション_49"/>
    <linearGradient id="_称未設定グラデーション_12" data-name="名称未設定グラデーション 12" x1="817.268" y1="65.722" x2="699.207" y2="279.093" gradientTransform="translate(-449.909)" gradientUnits="userSpaceOnUse">
      <stop offset="0" stop-color="#f2dec5" stop-opacity="0"/>
      <stop offset=".29" stop-color="#eed5be" stop-opacity=".015"/>
      <stop offset=".477" stop-color="#e3b9a7" stop-opacity=".065"/>
      <stop offset=".634" stop-color="#cf8a81" stop-opacity=".15"/>
      <stop offset=".774" stop-color="#b4474b" stop-opacity=".27"/>
      <stop offset=".803" stop-color="#ae373e" stop-opacity=".3"/>
    </linearGradient>
  </defs>
  <g class="cls-74">
    <path class="cls-5" d="M160.8,148.817c-.139-8.206-9.237-23.054-11.55-34.025-1.819-8.627-2.014-16.217-3.07-26.305-1.021-9.758-.037-12.143-2.8-18.711s-15.195-20.759-19.879-37.266c-2.93-10.326-5.894-24.545-6.14-31.628"/>
    <path class="cls-5" d="M80.493,199.807s21.686,7.947,34.175,10.044c11.392,1.912,16.039,2.747,31.833-5.108,13.186-6.558,15.726-25.237,15.726-28.48,0-3.243-1.363-27.466-1.528-30.493s-2.793-5.264,4.733-20.652c5.229-10.692,3.057-25.497-2.045-37.478-2.072-4.866-6.426-11.501-12.724-18.199-8.165-8.683-22.008-25.606-25.187-43.847,0,0-3.066-12.792-4.488-24.479"/>
    <path class="cls-5" d="M143.862,71.115l8.299,13.702-1.032,6.019,.403,6.717-.011,4.49,3.347,4.298s-4.631,5.261-5.207,10.342"/>
    <line class="cls-5" x1="150.664" y1="69.441" x2="149.164" y2="80.416"/>
    <path class="cls-5" d="M156.523,75.61l-4.361,9.207,3.388,9.168s-.152,5.963,1.347,10.804c0,0-.832,6.417,2.711,11.399l1.093,5.677-3.561,7.403"/>
    <line class="cls-5" x1="147.163" y1="94.79" x2="151.129" y2="90.836"/>
    <path class="cls-5" d="M161.921,85.04s-.233,5.391-1.221,6.581-2.745,1.525-2.745,1.525l-2.405,.84-1.245,2.531-2.773,1.037s-2.689,.947-4.156,4.082"/>
    <path class="cls-5" d="M164.754,91.808s-3.753,2.717-3.424,5.852c.329,3.135,5.345,7.516,7.257,8.919"/>
    <path class="cls-5" d="M157.955,93.145s-.707,4.171,3.352,3.37"/>
    <path class="cls-5" d="M158.605,95.968s1.049,5.983-2.732,9.659c0,0-3.436,1.892-2.777,4.801,.659,2.909,4.063,5.179,7.603,4.53,3.541-.649,7.888,.841,7.888,.841"/>
    <path class="cls-5" d="M165.935,104.346s-5.358-4.013-8.028-3.295"/>
    <path class="cls-5" d="M168.588,106.58c-.703,.625-4.751,4.902-3.639,8.82"/>
    <path class="cls-5" d="M156.897,104.789s3.772,7.221,8.426,6.528"/>
    <path class="cls-5" d="M151.521,102.042s-2.098,2.082-2.99,8.916"/>
    <path class="cls-5" d="M151.118,121.531s4.416-7.162,5.653-7.013l.546,21.879"/>
    <line class="cls-5" x1="165.323" y1="124.107" x2="160.7" y2="121.865"/>
    <path class="cls-5" d="M81.378,196.122s24.357,6.1,40.161,6.879c10.085,.497,21.503-5.644,25.403-9.638,7.018-7.188,13.002-13.154,14.758-29.085"/>
    <path class="cls-5" d="M131.841,204.969c-6.414,2.207-11.1,0-11.1,0"/>
    <path class="cls-5" d="M134.223,207.394s-4.924,1.845-8.052,0c-3.85-2.271-18.912-5.846-18.912-5.846"/>
    <path class="cls-22" d="M141.771,206.729c-1.275-.775-2.752-2.956-2.402-8.183-.066,.362-6.175,11.265-5.899,10.751"/>
    <path class="cls-22" d="M129.298,202.246c.627,2.589,2.33,3.919,7.203,1.302"/>
    <path class="cls-22" d="M126.171,207.394s-16.116-.817-18.092,1.054"/>
    <path class="cls-22" d="M156.609,181.551c.11,1.052-2.432,13.215-2.083,15.866"/>
    <path class="cls-22" d="M160.758,184.862s-3.773,2.014-5.578,5.872"/>
    <path class="cls-22" d="M151.118,188.978s-.225,6.855-1.756,9.067c-1.217,1.759-2.033,.276-1.632,5.503"/>
    <line class="cls-22" x1="154.525" y1="197.417" x2="150.15" y2="196.11"/>
    <line class="cls-22" x1="151.71" y1="201.098" x2="149.362" y2="198.045"/>
    <path class="cls-22" d="M148.193,201.097s-2.815-.636-4.133-.54-2.651,5.302-2.651,5.302"/>
    <line class="cls-22" x1="146.942" y1="193.362" x2="144.06" y2="200.557"/>
  </g>
  <g class="cls-74">
    <path class="cls-5" d="M248.291,148.817c.139-8.206,9.237-23.054,11.55-34.025,1.819-8.627,2.014-16.217,3.07-26.305,1.021-9.758,.037-12.143,2.8-18.711,2.763-6.568,15.195-20.759,19.879-37.266,2.93-10.326,5.894-24.545,6.14-31.628"/>
    <path class="cls-5" d="M328.598,199.807s-21.686,7.947-34.175,10.044c-11.392,1.912-16.039,2.747-31.833-5.108-13.186-6.558-15.726-25.237-15.726-28.48,0-3.243,1.363-27.466,1.528-30.493,.165-3.027,2.793-5.264-4.733-20.652-5.229-10.692-3.057-25.497,2.045-37.478,2.072-4.866,6.426-11.501,12.724-18.199,8.165-8.683,22.008-25.606,25.187-43.847,0,0,3.066-12.792,4.488-24.479"/>
    <path class="cls-5" d="M265.229,71.115l-8.299,13.702,1.032,6.019-.403,6.717,.011,4.49-3.347,4.298s4.631,5.261,5.207,10.342"/>
    <line class="cls-5" x1="258.427" y1="69.441" x2="259.928" y2="80.416"/>
    <path class="cls-5" d="M252.569,75.61l4.361,9.207-3.388,9.168s.152,5.963-1.347,10.804c0,0,.832,6.417-2.711,11.399l-1.093,5.677,3.561,7.403"/>
    <line class="cls-5" x1="261.929" y1="94.79" x2="257.962" y2="90.836"/>
    <path class="cls-5" d="M247.17,85.04s.233,5.391,1.221,6.581,2.745,1.525,2.745,1.525l2.405,.84,1.245,2.531,2.773,1.037s2.689,.947,4.156,4.082"/>
    <path class="cls-5" d="M244.337,91.808s3.753,2.717,3.424,5.852c-.329,3.135-5.345,7.516-7.257,8.919"/>
    <path class="cls-5" d="M251.137,93.145s.707,4.171-3.352,3.37"/>
    <path class="cls-5" d="M250.486,95.968s-1.049,5.983,2.732,9.659c0,0,3.436,1.892,2.777,4.801-.659,2.909-4.063,5.179-7.603,4.53s-7.888,.841-7.888,.841"/>
    <path class="cls-5" d="M243.156,104.346s5.358-4.013,8.028-3.295"/>
    <path class="cls-5" d="M240.504,106.58c.703,.625,4.751,4.902,3.639,8.82"/>
    <path class="cls-5" d="M252.195,104.789s-3.772,7.221-8.426,6.528"/>
    <path class="cls-5" d="M257.57,102.042s2.098,2.082,2.99,8.916"/>
    <path class="cls-5" d="M257.973,121.531s-4.416-7.162-5.653-7.013l-.546,21.879"/>
    <line class="cls-5" x1="243.769" y1="124.107" x2="248.391" y2="121.865"/>
    <path class="cls-5" d="M327.713,196.122s-24.357,6.1-40.161,6.879c-10.085,.497-21.503-5.644-25.403-9.638-7.018-7.188-13.002-13.154-14.758-29.085"/>
    <path class="cls-5" d="M277.25,204.969c6.414,2.207,11.1,0,11.1,0"/>
    <path class="cls-5" d="M274.868,207.394s4.924,1.845,8.052,0c3.85-2.271,18.912-5.846,18.912-5.846"/>
    <path class="cls-22" d="M267.321,206.729c1.275-.775,2.752-2.956,2.402-8.183,.066,.362,6.175,11.265,5.899,10.751"/>
    <path class="cls-22" d="M279.793,202.246c-.627,2.589-2.33,3.919-7.203,1.302"/>
    <path class="cls-22" d="M282.921,207.394s16.116-.817,18.092,1.054"/>
    <path class="cls-22" d="M252.483,181.551c-.11,1.052,2.432,13.215,2.083,15.866"/>
    <path class="cls-22" d="M248.333,184.862s3.773,2.014,5.578,5.872"/>
    <path class="cls-22" d="M257.973,188.978s.225,6.855,1.756,9.067c1.217,1.759,2.033,.276,1.632,5.503"/>
    <line class="cls-22" x1="254.566" y1="197.417" x2="258.942" y2="196.11"/>
    <line class="cls-22" x1="257.382" y1="201.098" x2="259.729" y2="198.045"/>
    <path class="cls-22" d="M260.898,201.097s2.815-.636,4.133-.54,2.651,5.302,2.651,5.302"/>
    <line class="cls-22" x1="262.15" y1="193.362" x2="265.031" y2="200.557"/>
  </g>
  <g id="_2" data-name="02">
    <g>
      <rect class="cls-14" width="411.711" height="275.329"/>
      <path class="cls-7" d="M136.535,201.647c.853-.213,34.563-19.841,66.992-19.841s70.832,22.615,70.832,22.615l2.347-94.087s-144.864,.213-144.864,1.067,4.694,90.247,4.694,90.247Z"/>
      <path class="cls-4" d="M106.216,.338c.588,38.433,6.293,136.864,21.891,145.066,20.695,10.881,29.229-8.747,29.229-8.747,0,0-3.236-8.618,.396-8.702,2.723-.063,4.932,3.968,5.527,4.827s4.852,8.525,6.608,8.381c1.627-.133,2.473-3.574,3.438-4.657,1.214-1.362,2.476-5.303,4.672-5.823,1.038-.246,2.027,.4,3.029,1.939,0,0,1.343,2.601,3.158,2.541,2.4-.08,3.212-2.027,3.686-3.12s1.351-3.223,3.327-3.227c2.24-.004,3.094,2.907,3.254,3.227,.16,.32,1.068,3.242,3.6,3.334,2.96,.107,3.787-2.72,4.107-3.547s1.173-3.048,3.174-3.017,2.921,1.921,3.787,3.284c.552,.869,1.334,2.476,2.747,2.534,1.973,.08,2.827-2.347,3.147-2.96,.32-.613,1.28-2.48,2.987-2.48s2.8,1.2,3.494,2.88c.392,.949,1.253,3.494,3.974,3.387,2.72-.107,2.877-1.948,3.014-2.48,.293-1.147,.853-2.396,2.156-2.503,3.776-.309,4.193,6.523,7.521,7.628,3.749,1.245,9.712,.037,10.163,.527l1.097-15.528s3.966-6.012,11.578-3.173c22.068,8.232,29.899-74.624,39.978-119.59"/>
      <g class="cls-73">
        <ellipse class="cls-21" cx="206.179" cy="89.933" rx="4.719" ry="42.27"/>
        <ellipse class="cls-9" cx="206.179" cy="89.933" rx="4.496" ry="41.815"/>
        <ellipse class="cls-62" cx="206.179" cy="89.933" rx="4.273" ry="41.359"/>
        <ellipse class="cls-67" cx="206.179" cy="89.933" rx="4.05" ry="40.904"/>
        <ellipse class="cls-52" cx="206.179" cy="89.933" rx="3.827" ry="40.449"/>
        <ellipse class="cls-42" cx="206.179" cy="89.933" rx="3.604" ry="39.994"/>
        <ellipse class="cls-57" cx="206.179" cy="89.933" rx="3.381" ry="39.539"/>
        <ellipse class="cls-47" cx="206.179" cy="89.933" rx="3.158" ry="39.083"/>
        <ellipse class="cls-37" cx="206.179" cy="89.933" rx="2.935" ry="38.628"/>
        <ellipse class="cls-27" cx="206.179" cy="89.933" rx="2.712" ry="38.173"/>
        <ellipse class="cls-32" cx="206.179" cy="89.933" rx="2.488" ry="37.718"/>
        <ellipse class="cls-69" cx="206.179" cy="89.933" rx="2.265" ry="37.263"/>
      </g>
      <g class="cls-73">
        <ellipse class="cls-20" cx="219.961" cy="88.933" rx="4.719" ry="42.27"/>
        <ellipse class="cls-11" cx="219.961" cy="88.933" rx="4.496" ry="41.815"/>
        <ellipse class="cls-60" cx="219.961" cy="88.933" rx="4.273" ry="41.359"/>
        <ellipse class="cls-65" cx="219.961" cy="88.933" rx="4.05" ry="40.904"/>
        <ellipse class="cls-51" cx="219.961" cy="88.933" rx="3.827" ry="40.449"/>
        <ellipse class="cls-41" cx="219.961" cy="88.933" rx="3.604" ry="39.994"/>
        <ellipse class="cls-53" cx="219.961" cy="88.933" rx="3.381" ry="39.539"/>
        <ellipse class="cls-46" cx="219.961" cy="88.933" rx="3.158" ry="39.083"/>
        <ellipse class="cls-36" cx="219.961" cy="88.933" rx="2.935" ry="38.628"/>
        <ellipse class="cls-26" cx="219.961" cy="88.933" rx="2.712" ry="38.173"/>
        <ellipse class="cls-31" cx="219.961" cy="88.933" rx="2.488" ry="37.718"/>
        <ellipse class="cls-68" cx="219.961" cy="88.933" rx="2.265" ry="37.263"/>
      </g>
      <g class="cls-73">
        <ellipse class="cls-19" cx="237.393" cy="88.933" rx="42.27" ry="4.719" transform="translate(126.293 316.795) rotate(-84.544)"/>
        <ellipse class="cls-10" cx="237.393" cy="88.933" rx="41.815" ry="4.496" transform="translate(126.293 316.795) rotate(-84.544)"/>
        <ellipse class="cls-61" cx="237.393" cy="88.933" rx="41.359" ry="4.273" transform="translate(126.293 316.795) rotate(-84.544)"/>
        <ellipse class="cls-66" cx="237.393" cy="88.933" rx="40.904" ry="4.05" transform="translate(126.293 316.795) rotate(-84.544)"/>
        <ellipse class="cls-50" cx="237.393" cy="88.933" rx="40.449" ry="3.827" transform="translate(126.293 316.795) rotate(-84.544)"/>
        <ellipse class="cls-39" cx="237.393" cy="88.933" rx="39.994" ry="3.604" transform="translate(126.293 316.795) rotate(-84.544)"/>
        <ellipse class="cls-55" cx="237.393" cy="88.933" rx="39.539" ry="3.381" transform="translate(126.293 316.795) rotate(-84.544)"/>
        <ellipse class="cls-44" cx="237.393" cy="88.933" rx="39.083" ry="3.158" transform="translate(126.293 316.795) rotate(-84.544)"/>
        <ellipse class="cls-34" cx="237.393" cy="88.933" rx="38.628" ry="2.935" transform="translate(126.293 316.795) rotate(-84.544)"/>
        <ellipse class="cls-25" cx="237.393" cy="88.933" rx="38.173" ry="2.712" transform="translate(126.293 316.795) rotate(-84.544)"/>
        <ellipse class="cls-28" cx="237.393" cy="88.933" rx="37.718" ry="2.488" transform="translate(126.293 316.795) rotate(-84.544)"/>
        <ellipse class="cls-70" cx="237.393" cy="88.933" rx="37.263" ry="2.265" transform="translate(126.293 316.795) rotate(-84.544)"/>
      </g>
      <g class="cls-73">
        <ellipse class="cls-17" cx="192.098" cy="88.933" rx="4.719" ry="42.27"/>
        <ellipse class="cls-12" cx="192.098" cy="88.933" rx="4.496" ry="41.815"/>
        <ellipse class="cls-59" cx="192.098" cy="88.933" rx="4.273" ry="41.359"/>
        <ellipse class="cls-63" cx="192.098" cy="88.933" rx="4.05" ry="40.904"/>
        <ellipse class="cls-48" cx="192.098" cy="88.933" rx="3.827" ry="40.449"/>
        <ellipse class="cls-38" cx="192.098" cy="88.933" rx="3.604" ry="39.994"/>
        <ellipse class="cls-54" cx="192.098" cy="88.933" rx="3.381" ry="39.539"/>
        <ellipse class="cls-43" cx="192.098" cy="88.933" rx="3.158" ry="39.083"/>
        <ellipse class="cls-33" cx="192.098" cy="88.933" rx="2.935" ry="38.628"/>
        <ellipse class="cls-24" cx="192.098" cy="88.933" rx="2.712" ry="38.173"/>
        <ellipse class="cls-29" cx="192.098" cy="88.933" rx="2.488" ry="37.718"/>
        <ellipse class="cls-72" cx="192.098" cy="88.933" rx="2.265" ry="37.263"/>
      </g>
      <g class="cls-73">
        <ellipse class="cls-18" cx="177.15" cy="88.933" rx="4.719" ry="42.27" transform="translate(-7.02 15.635) rotate(-4.955)"/>
        <ellipse class="cls-13" cx="177.15" cy="88.933" rx="4.496" ry="41.815" transform="translate(-7.02 15.635) rotate(-4.955)"/>
        <ellipse class="cls-58" cx="177.15" cy="88.933" rx="4.273" ry="41.359" transform="translate(-7.02 15.635) rotate(-4.955)"/>
        <ellipse class="cls-64" cx="177.15" cy="88.933" rx="4.05" ry="40.904" transform="translate(-7.02 15.635) rotate(-4.955)"/>
        <ellipse class="cls-49" cx="177.15" cy="88.933" rx="3.827" ry="40.449" transform="translate(-7.02 15.635) rotate(-4.955)"/>
        <ellipse class="cls-40" cx="177.15" cy="88.933" rx="3.604" ry="39.994" transform="translate(-7.02 15.635) rotate(-4.955)"/>
        <ellipse class="cls-56" cx="177.15" cy="88.933" rx="3.381" ry="39.539" transform="translate(-7.02 15.635) rotate(-4.955)"/>
        <ellipse class="cls-45" cx="177.15" cy="88.933" rx="3.158" ry="39.083" transform="translate(-7.02 15.635) rotate(-4.955)"/>
        <ellipse class="cls-35" cx="177.15" cy="88.933" rx="2.935" ry="38.628" transform="translate(-7.02 15.635) rotate(-4.955)"/>
        <ellipse class="cls-23" cx="177.15" cy="88.933" rx="2.712" ry="38.173" transform="translate(-7.02 15.635) rotate(-4.955)"/>
        <ellipse class="cls-30" cx="177.15" cy="88.933" rx="2.488" ry="37.718" transform="translate(-7.02 15.635) rotate(-4.955)"/>
        <ellipse class="cls-71" cx="177.15" cy="88.933" rx="2.265" ry="37.263" transform="translate(-7.02 15.635) rotate(-4.955)"/>
      </g>
      <path class="cls-3" d="M137.279,43.547c10.542,17.627,17.177,24.521,19.168,27.65s17.129,18.258,15.705,42.47c-.453,7.705-3.077,12.425-3.077,12.425,0,0-4.811,9.689-1.431,10.19,1.595,.236,3.007-.501,3.007-.501,0,0,3.073-2.258,4.424-1.289,1.481,1.062,2.046,1.992-.289,8.463-.522,1.447-1.645,11.794-1.929,20.328-.285,8.534-1.7,9.845-4.118,13.259-2.418,3.414-3.598,10.994-4.944,14.16-3.284,7.723-9.224,15.822-23.858,21.802-7.807,3.19-60.088,19.244-139.534-11.762V.338l123.749,.319c2.02,11.567,3.812,27.318,13.126,42.89Z"/>
      <path class="cls-6" d="M124.153,.657c2.02,11.567,3.812,27.318,13.126,42.89,10.542,17.627,17.177,24.521,19.168,27.65s17.129,18.258,15.705,42.47c-.453,7.705-3.077,12.425-3.077,12.425,0,0-4.811,9.689-1.431,10.19,1.595,.236,3.007-.501,3.007-.501,0,0,3.073-2.258,4.424-1.289,1.481,1.062,2.046,1.992-.289,8.463-.522,1.447-1.645,11.794-1.929,20.328-.285,8.534-1.7,9.845-4.118,13.259-2.418,3.414-3.598,10.994-4.944,14.16-3.284,7.723-9.224,15.822-23.858,21.802-7.807,3.19-60.088,19.244-139.534-11.762"/>
      <path class="cls-1" d="M271.504,43.547c-10.542,17.627-17.177,24.521-19.168,27.65-1.991,3.129-17.129,18.258-15.705,42.47,.453,7.705,3.077,12.425,3.077,12.425,0,0,4.811,9.689,1.431,10.19-1.595,.236-3.007-.501-3.007-.501,0,0-3.073-2.258-4.424-1.289-1.481,1.062-2.046,1.992,.289,8.463,.522,1.447,1.645,11.794,1.929,20.328,.285,8.534,1.7,9.845,4.118,13.259,2.418,3.414,2.924,11.564,3.597,14.938,1.584,7.935,3.411,26.384,15.066,40.601,8.614,10.507,31.402,15.731,42.666,9.297,19.774-11.295,9.481-21.881,35.117-20.945,21.604,.789,47.153-6.901,74.89-19.689V.338l-126.749,.319c-2.02,11.567-3.812,27.318-13.126,42.89Z"/>
      <path class="cls-6" d="M284.63,.657c-2.02,11.567-3.812,27.318-13.126,42.89-10.542,17.627-17.177,24.521-19.168,27.65-1.991,3.129-17.129,18.258-15.705,42.47,.453,7.705,3.077,12.425,3.077,12.425,0,0,4.811,9.689,1.431,10.19-1.595,.236-3.007-.501-3.007-.501,0,0-3.073-2.258-4.424-1.289-1.481,1.062-2.046,1.992,.289,8.463,.522,1.447,1.645,11.794,1.929,20.328,.285,8.534,1.7,9.845,4.118,13.259,2.418,3.414,2.924,11.564,3.597,14.938,1.584,7.935,3.411,26.384,15.066,40.601,8.614,10.507,31.402,15.731,42.666,9.297,19.774-11.295,9.481-21.881,35.117-20.945,21.604,.789,47.153-6.901,74.89-19.689"/>
      <path class="cls-2" d="M271.504,43.547c-10.542,17.627-17.177,24.521-19.168,27.65-1.991,3.129-17.129,18.258-15.705,42.47,.453,7.705,3.077,12.425,3.077,12.425,0,0,4.811,9.689,1.431,10.19-1.595,.236-3.007-.501-3.007-.501,0,0-3.073-2.258-4.424-1.289-1.481,1.062-2.046,1.992,.289,8.463,.522,1.447,1.645,11.794,1.929,20.328,.285,8.534,1.7,9.845,4.118,13.259,2.418,3.414,2.924,11.564,3.597,14.938,1.584,7.935,3.411,26.384,15.066,40.601,8.614,10.507,31.402,15.731,42.666,9.297,19.774-11.295,9.481-21.881,35.117-20.945,21.604,.789,47.153-6.901,74.89-19.689V.338l-126.749,.319c-2.02,11.567-3.812,27.318-13.126,42.89Z"/>
    </g>
    <g class="cls-74">
      <path class="cls-5" d="M160.8,148.817c-.139-8.206-9.237-23.054-11.55-34.025-1.819-8.627-2.014-16.217-3.07-26.305-1.021-9.758-.037-12.143-2.8-18.711s-15.195-20.759-19.879-37.266c-2.93-10.326-5.894-24.545-6.14-31.628"/>
      <path class="cls-5" d="M80.493,199.807s21.686,7.947,34.175,10.044c11.392,1.912,16.039,2.747,31.833-5.108,13.186-6.558,15.726-25.237,15.726-28.48,0-3.243-1.363-27.466-1.528-30.493s-2.793-5.264,4.733-20.652c5.229-10.692,3.057-25.497-2.045-37.478-2.072-4.866-6.426-11.501-12.724-18.199-8.165-8.683-22.008-25.606-25.187-43.847,0,0-3.066-12.792-4.488-24.479"/>
      <path class="cls-5" d="M143.862,71.115l8.299,13.702-1.032,6.019,.403,6.717-.011,4.49,3.347,4.298s-4.631,5.261-5.207,10.342"/>
      <line class="cls-5" x1="150.664" y1="69.441" x2="149.164" y2="80.416"/>
      <path class="cls-5" d="M156.523,75.61l-4.361,9.207,3.388,9.168s-.152,5.963,1.347,10.804c0,0-.832,6.417,2.711,11.399l1.093,5.677-3.561,7.403"/>
      <line class="cls-5" x1="147.163" y1="94.79" x2="151.129" y2="90.836"/>
      <path class="cls-5" d="M161.921,85.04s-.233,5.391-1.221,6.581-2.745,1.525-2.745,1.525l-2.405,.84-1.245,2.531-2.773,1.037s-2.689,.947-4.156,4.082"/>
      <path class="cls-5" d="M164.754,91.808s-3.753,2.717-3.424,5.852c.329,3.135,5.345,7.516,7.257,8.919"/>
      <path class="cls-5" d="M157.955,93.145s-.707,4.171,3.352,3.37"/>
      <path class="cls-5" d="M158.605,95.968s1.049,5.983-2.732,9.659c0,0-3.436,1.892-2.777,4.801,.659,2.909,4.063,5.179,7.603,4.53,3.541-.649,7.888,.841,7.888,.841"/>
      <path class="cls-5" d="M165.935,104.346s-5.358-4.013-8.028-3.295"/>
      <path class="cls-5" d="M168.588,106.58c-.703,.625-4.751,4.902-3.639,8.82"/>
      <path class="cls-5" d="M156.897,104.789s3.772,7.221,8.426,6.528"/>
      <path class="cls-5" d="M151.521,102.042s-2.098,2.082-2.99,8.916"/>
      <path class="cls-5" d="M151.118,121.531s4.416-7.162,5.653-7.013l.546,21.879"/>
      <line class="cls-5" x1="165.323" y1="124.107" x2="160.7" y2="121.865"/>
      <path class="cls-5" d="M81.378,196.122s24.357,6.1,40.161,6.879c10.085,.497,21.503-5.644,25.403-9.638,7.018-7.188,13.002-13.154,14.758-29.085"/>
      <path class="cls-5" d="M131.841,204.969c-6.414,2.207-11.1,0-11.1,0"/>
      <path class="cls-5" d="M134.223,207.394s-4.924,1.845-8.052,0c-3.85-2.271-18.912-5.846-18.912-5.846"/>
      <path class="cls-22" d="M141.771,206.729c-1.275-.775-2.752-2.956-2.402-8.183-.066,.362-6.175,11.265-5.899,10.751"/>
      <path class="cls-22" d="M129.298,202.246c.627,2.589,2.33,3.919,7.203,1.302"/>
      <path class="cls-22" d="M126.171,207.394s-16.116-.817-18.092,1.054"/>
      <path class="cls-22" d="M156.609,181.551c.11,1.052-2.432,13.215-2.083,15.866"/>
      <path class="cls-22" d="M160.758,184.862s-3.773,2.014-5.578,5.872"/>
      <path class="cls-22" d="M151.118,188.978s-.225,6.855-1.756,9.067c-1.217,1.759-2.033,.276-1.632,5.503"/>
      <line class="cls-22" x1="154.525" y1="197.417" x2="150.15" y2="196.11"/>
      <line class="cls-22" x1="151.71" y1="201.098" x2="149.362" y2="198.045"/>
      <path class="cls-22" d="M148.193,201.097s-2.815-.636-4.133-.54-2.651,5.302-2.651,5.302"/>
      <line class="cls-22" x1="146.942" y1="193.362" x2="144.06" y2="200.557"/>
    </g>
    <path class="cls-15" d="M334.295,185.012c-.159-.377-.594-.55-.965-.395-.467,.196-6.612,2.806-12.558,6.651-1.05,.416-11.411,4.419-23.527,5.634,5.263-3.377,13.277-7.726,13.865-8.044,11.064-4.07,20.903-7.978,21.038-8.031,.378-.15,.562-.579,.412-.957-.149-.379-.577-.563-.957-.412-.185,.073-18.613,7.393-33.403,12.432-15.047,5.126-25.936,7.104-31.492,5.731-14.979-3.71-20.452-10.703-20.195-25.802,.003-.179-.066-.339-.171-.468,.472-7.176,1.573-15.776,2.229-20.895,.075-.588,.145-1.132,.208-1.63l.152,.003c.073-4.342,2.759-10.67,5.602-17.37,2.132-5.026,4.323-10.2,5.531-14.848h.003v-.008c.146-.566,.285-1.129,.401-1.678,1.288-6.107,1.759-11.607,2.304-17.976,.228-2.66,.463-5.41,.775-8.395,.323-3.085,.449-5.484,.551-7.412,.199-3.783,.32-6.083,1.58-9.534l.098-.162-.029-.017c.167-.449,.346-.91,.554-1.404,.9-2.142,2.942-5.248,5.308-8.843,4.833-7.349,11.451-17.414,14.597-28.496,2.796-9.85,5.906-24.336,6.163-31.781l-1.277-.044c-.255,7.344-3.341,21.698-6.116,31.475-3.092,10.893-9.647,20.863-14.436,28.143-2.498,3.799-4.471,6.799-5.418,9.05-.223,.53-.417,1.029-.595,1.512l-4.271,7.051-1.154-8.437c8.123-8.676,21.965-25.72,25.135-43.912,.03-.128,3.09-12.961,4.5-24.55l-1.27-.154c-1.401,11.515-4.443,24.279-4.482,24.446-3.146,18.057-17.028,35.017-25.023,43.519-2.09,2.223-4.025,4.511-5.765,6.784l-.206,.098,.049,.102c-3.04,3.997-5.451,7.942-6.924,11.402-2.691,6.319-4.32,12.653-4.884,18.596-.034,.025-.072,.055-.105,.08l.089,.122c-.024,.264-.042,.525-.062,.788l-.075,.084c.018,.016,.043,.041,.063,.06-.499,6.89,.46,13.208,2.942,18.281,6.15,12.577,5.437,16.116,4.916,18.7-.085,.423-.156,.832-.203,1.25-.074,.107-.13,.228-.14,.368-.045,.631-.256,2.276-.547,4.553-1.131,8.831-3.236,25.27-2.181,31.518,.032,.192,.082,.516,.148,.953,1.655,10.878,4.92,27.155,10.646,37.632-.341,6.593,7.053,15.443,20.776,19.337,14.249,4.044,26.088,.21,29.043-5.832,.835-1.707,.921-3.458,.357-5.188,3.892-5.407,4.29-13.347,4.584-19.239,.125-2.498,.232-4.655,.579-5.993,2.273-8.754,22.635-17.395,22.84-17.48,.375-.158,.552-.59,.395-.965Zm-85.788-70.683c-1.165-.213-2.401-.208-3.552-.102,.03-.765-.076-1.52-.285-2.245,3.053-.163,5.58-3.067,6.959-5.062-.043,1.89-.388,4.798-1.816,7.497-.434,.016-.871-.008-1.306-.088Zm-7.011,.514c-.218-2.049-.267-4.193-.163-6.404,1.157,1.465,2.519,3.754,2.336,5.95-.845,.134-1.594,.304-2.173,.455Zm6.901-17.115c.017-.165,.017-.326,.016-.488,.114,.008,.23,.018,.339,.018,.357,0,.678-.054,.979-.139-.044,.825-.035,1.978,.186,3.254-1.043,.125-2.193,.556-3.268,1.083,.932-1.259,1.626-2.556,1.749-3.728Zm8.306-10.451l.617,3.595-.345,5.779-1.726-.646-1.012-2.056,2.467-6.673Zm4.775,7.967l.172-.173c-.052,.594-.102,1.185-.152,1.769-.082,.957-.163,1.89-.244,2.813-1.108-1.44-2.374-2.19-3.028-2.507l.291-4.855,2.962,2.953Zm-1.001,11.831c-.817-3.208-1.85-4.748-2.268-5.268l-.008-3.211c.814,.501,2.028,1.488,2.859,3.173-.17,1.798-.359,3.555-.583,5.306Zm-6.152-10.049l2.597,.971,.01,3.826-2.82,3.619c-.223-.158-.404-.271-.504-.33-.232-.23-.441-.472-.634-.72,.766-2.739,1.054-5.696,1.157-7.762l.194,.395Zm4.438,19.525c-.293,1.096-.65,2.23-1.04,3.381-1.702-2.662-3.07-4.458-4.095-5.363,1.428-.879,2.513-2.212,2.935-3.802,.994,1.706,1.926,3.764,2.2,5.783Zm-3.391-6.264c-.365,1.61-1.649,2.924-3.266,3.614l-.409,.049-.003,.111c-.109,.038-.218,.076-.33,.109,1.39-3.071,1.588-6.195,1.556-7.977,.041,.023,.406,.235,.849,.6,.101,.117,.711,.834,1.487,1.939,.174,.471,.244,.992,.116,1.555Zm-2.466-15.846c0,1.23-.073,4.913-.865,8.432-.351-.734-.591-1.487-.75-2.217l.06-.223c-.034-.009-.072-.01-.107-.018-.39-1.997-.209-3.738-.145-4.204,.523-.667,.687-1.499,.714-2.152l1.093,.382Zm-9.339,10.398c1.262-.94,4.545-3.058,6.634-3.227,.28,1.007,.707,2.039,1.358,3.009-.486,.876-3.648,6.28-7.359,6.078-.804-1.803-2.035-3.29-2.736-4.049,.594-.468,1.328-1.088,2.103-1.811Zm6.52,11.605c.185-.266,.354-.536,.517-.808,.358-.047,.712-.115,1.056-.21l-.279,11.176-2.32-4.823,1.026-5.334Zm3.269,14.515c-.288,.678-.573,1.351-.855,2.02l.433-17.348c1.01,1.025,2.774,3.492,4.248,5.842-1.124,3.1-2.483,6.321-3.826,9.486Zm3.041-22.839c-.313-.746-.807-1.369-1.303-1.855l2.463-3.162c.624,.997,1.756,3.338,2.355,7.836-.156,.938-.33,1.885-.521,2.843-.766-2.193-1.986-4.215-2.994-5.661Zm6.919-32.611c-.291,1.734-.383,3.444-.495,5.566-.105,2.012-.226,4.293-.545,7.346-.194,1.851-.356,3.603-.507,5.306l-3.211-3.2-.957-5.583,2.78-4.59,.181-.025-.031-.224,2.784-4.597Zm-6.316,7.96l-3.465-7.315c1.368-1.763,2.858-3.528,4.445-5.268l1.223,8.946-2.203,3.638Zm-.762,1.379l-3.078,8.329-1.9-.659c-.016-.003-1.551-.313-2.374-1.305-.587-.706-.981-4.05-1.075-6.2l-.118,.005c1.303-2.451,2.983-5.064,4.969-7.722l3.577,7.552Zm-9.945,3.042c.113-.266,.257-.547,.382-.819,.17,1.769,.521,4.109,1.226,4.959,.81,.975,2.028,1.44,2.642,1.622,.021,.568-.059,1.434-.554,1.913-.369,.358-.97,.471-1.765,.364-.641-2.242-2.676-3.986-3.317-4.49,.429-1.182,.881-2.365,1.385-3.549Zm-1.843,4.831c.939,.81,2.898,2.772,2.677,4.872-.23,2.19-3.204,5.295-5.487,7.257,.47-3.918,1.405-8,2.81-12.129Zm-2.778,23.401c.726-.193,1.797-.436,2.99-.576l.099,.028c.004-.013,.004-.027,.008-.04,1.138-.127,2.373-.156,3.511,.052,.258,.047,.516,.077,.773,.096-.031,.044-.056,.09-.087,.134l-.08,.113-1.059,5.499-4.196,2.036c-.934-2.242-1.583-4.708-1.958-7.343Zm2.563,8.715c-.032-.065-.057-.135-.089-.201l3.949-1.916,3.216,6.686-.172,6.862c-.566,1.402-1.093,2.767-1.559,4.083-.204-2.924-1.396-7.437-5.346-15.514Zm54.442,68.447c1.306-.445,2.641-.908,3.988-1.382-3.771,2.184-7.894,4.699-9.854,6.317-.877,.724-1.697,1.731-2.459,2.907-.019-2.16-.472-4.14-.699-4.995,2.809-.807,5.815-1.753,9.025-2.847Zm10.335,16.093c-.082,1.637-.174,3.441-.347,5.297-4.582-2.151-14.387,.087-20.013,1.677-.806-.267-1.633-.525-2.483-.77,.548-2.025,1.39-4.849,2.47-7.63,1.525-.954,10.165-5.775,19.449,.906,.131,.093,.281,.139,.43,.139,.198,0,.383-.094,.526-.244-.01,.208-.021,.414-.031,.626Zm-57.248-2.668c.031,.004,.06,.015,.091,.015,.074,0,.149-.012,.224-.035l9.225-2.938c.661,.552,1.502,1.461,2.349,2.593l-10.693,3.891c-.017,.006-.028,.02-.044,.027-.393-1.136-.778-2.319-1.152-3.551Zm6.159-5.337c.112,.114,.254,.17,.399,.195,.464,.39,.874,.791,1.205,1.202l-7.895,2.515c-.095,.03-.178,.078-.25,.139-.781-2.681-1.519-5.571-2.212-8.67,1.325,.488,5.483,2.11,8.357,4.195,.142,.159,.276,.304,.395,.424Zm8.246-2.373l2.58,2.316c-1.923,.722-4.282,2.404-4.933,2.882-.731-.837-1.41-1.486-1.92-1.862-1.209-.892-1.333-3.579-1.259-5.045,1.69,.638,3.528,1.207,5.531,1.71Zm22.064-2.466c.348,1.333,1.314,5.678-.069,8.47-.062,.124-.072,.256-.062,.385-.245,.554-.48,1.115-.704,1.679-.071,.099-.114,.211-.129,.33-.312,.799-.604,1.598-.875,2.382-1.676-3.208-5.439-6.855-8.089-9.419-.471-.455-.97-.939-1.368-1.34,3.273-.482,7.038-1.308,11.296-2.486Zm-10.948,4.891c2.865,2.772,7.625,7.384,8.396,10.526-.373,1.195-.685,2.297-.938,3.235-2.762-.736-5.469-1.299-8.052-1.679,.745-2.131,1.908-6.716,.593-12.082Zm-2.095,11.881c-2.377-.289-4.632-.418-6.709-.374-.586-2.804-2.166-5.544-3.731-7.588,1.731-1.256,4.509-2.901,5.512-2.889,.735,.042,3.385,2.95,5.67,6.225,.075,.108,.175,.185,.286,.239-.245,1.963-.709,3.506-1.029,4.387Zm-15.801-12.754c-.269-.231-.552-.456-.849-.677-1.325-1.476-3.022-3.893-4.109-5.695,1.408,.945,3.009,1.777,4.773,2.528-.049,.516-.163,2.203,.186,3.844Zm-5.923,11.067l10.991-3.999c.025-.009,.042-.029,.066-.04,1.06,1.627,2.011,3.532,2.457,5.417-5.473,.354-9.474,2.021-10.797,5.17-.968-1.936-1.895-4.117-2.779-6.536,.021-.006,.042-.004,.063-.011Zm17.402-12.094c1.268,0,2.663-.089,4.173-.257,1.059,2.683,1.378,5.258,1.332,7.496-1.458-1.985-4.061-5.248-5.714-5.717l-1.792-1.608c.632,.053,1.293,.086,2.002,.086Zm-18.966-7.36c.191,1.135,1.607,3.452,3.089,5.536-2.85-1.48-5.558-2.423-5.764-2.493-.133-.046-.266-.039-.394-.011-.702-3.287-1.356-6.788-1.954-10.505,1.115,2.952,2.775,5.411,5.024,7.473Zm39.186,25.052c6.23-1.605,14.295-2.994,17.409-.959-.459,3.826-1.355,7.741-3.308,10.837-2.076-3.699-7.079-7.206-14.101-9.877Zm18.549-14.13c-.305,1.175-.438,2.818-.544,4.727-.043-.055-.084-.112-.144-.155-8.087-5.818-15.91-3.448-19.431-1.823,1.203-2.708,2.629-5.155,4.232-6.478,.418-.345,.949-.738,1.556-1.161,.135,.184,.343,.308,.583,.308,.021,0,.04,0,.061-.003,8.248-.666,15.847-2.691,20.561-4.185-3.336,2.662-6.069,5.672-6.873,8.77Z"/>
    <g>
      <path class="cls-16" d="M202.82,237.644h2.184v1.541h-21.339v-1.541h2.346v-13.935h5.335c.667-1.38,1.356-3.266,1.771-4.622l2.069,.598c-.092,.138-.253,.23-.529,.253-.414,1.104-1.058,2.553-1.655,3.771h9.819v13.935Zm-15.292-12.463v12.463h3.564v-12.463h-3.564Zm8.646,12.463v-12.463h-3.61v12.463h3.61Zm5.082-12.463h-3.61v12.463h3.61v-12.463Z"/>
      <path class="cls-16" d="M213.012,227.481c.713,.873,2.645,3.633,3.081,4.3l-.896,1.219c-.391-.805-1.402-2.438-2.185-3.68v11.106h-1.448v-11.382c-.828,2.713-1.955,5.357-3.127,6.967-.161-.413-.552-1.012-.828-1.356,1.495-2,3.035-5.771,3.771-9.06h-3.334v-1.449h3.519v-5.059l1.908,.138c-.023,.138-.161,.253-.46,.299v4.622h2.921v1.449h-2.921v1.886Zm10.371-8.21c-.069,.139-.185,.253-.368,.276,1.448,2.438,4.093,5.128,6.416,6.554-.322,.367-.69,.942-.92,1.38-2.369-1.633-4.944-4.323-6.37-6.761-1.265,2.368-3.656,5.128-6.255,6.898-.206-.392-.552-.943-.851-1.265,2.599-1.679,5.151-4.622,6.301-7.197l2.047,.114Zm-.506,14.671v4.3h6.162v1.426h-13.521v-1.426h5.841v-4.3h-4.484v-1.426h4.484v-3.84h-4.14v-1.402h10.003v1.402h-4.346v3.84h4.76v1.426h-4.76Z"/>
    </g>
    <line class="cls-8" x1="234.571" y1="232.524" x2="280.974" y2="227.149"/>
  </g>
</svg>