<?xml version="1.0" encoding="UTF-8"?>
<svg id="_イヤー_1" data-name="レイヤー 1" xmlns="http://www.w3.org/2000/svg" width="167.943mm" height="38.804mm" xmlns:xlink="http://www.w3.org/1999/xlink" viewBox="0 0 476.058 109.997">
  <defs>
    <style>
      .cls-1, .cls-2, .cls-3, .cls-4, .cls-5, .cls-6 {
        fill: none;
      }

      .cls-2, .cls-3, .cls-4, .cls-5 {
        stroke-miterlimit: 10;
      }

      .cls-2, .cls-3, .cls-5, .cls-6 {
        stroke-linecap: round;
      }

      .cls-2, .cls-5 {
        stroke: #231815;
      }

      .cls-2, .cls-6 {
        stroke-width: .873px;
      }

      .cls-7 {
        fill: #f4b4b6;
      }

      .cls-8 {
        fill: #6a3906;
      }

      .cls-9 {
        fill: #b1dce0;
      }

      .cls-10 {
        fill: #c30d23;
      }

      .cls-11 {
        fill: #40210f;
      }

      .cls-12 {
        fill: #808751;
      }

      .cls-13 {
        fill: url(#_称未設定グラデーション_551-4);
      }

      .cls-14 {
        fill: url(#_称未設定グラデーション_551-3);
      }

      .cls-15 {
        fill: url(#_称未設定グラデーション_551-2);
      }

      .cls-16 {
        fill: url(#_称未設定グラデーション_377-4);
      }

      .cls-17 {
        fill: url(#_称未設定グラデーション_377-3);
      }

      .cls-18 {
        fill: url(#_称未設定グラデーション_377-2);
      }

      .cls-19 {
        fill: url(#_称未設定グラデーション_362-2);
      }

      .cls-20 {
        fill: url(#_称未設定グラデーション_141-2);
      }

      .cls-3 {
        stroke: #c30d23;
        stroke-width: 1.747px;
      }

      .cls-4 {
        stroke: #f5ab28;
        stroke-width: 2px;
      }

      .cls-21 {
        fill: url(#_規グラデーションスウォッチ_10);
      }

      .cls-22 {
        fill: url(#_規グラデーションスウォッチ_9);
      }

      .cls-5 {
        stroke-width: 2.62px;
      }

      .cls-6 {
        stroke: #6a3906;
        stroke-linejoin: round;
      }

      .cls-23 {
        fill: url(#_称未設定グラデーション_196);
      }

      .cls-24 {
        fill: url(#_称未設定グラデーション_111);
      }

      .cls-25 {
        fill: url(#_称未設定グラデーション_680);
      }

      .cls-26 {
        fill: url(#_称未設定グラデーション_149);
      }

      .cls-27 {
        fill: url(#_称未設定グラデーション_141);
      }

      .cls-28 {
        fill: url(#_称未設定グラデーション_100);
      }

      .cls-29 {
        fill: url(#_称未設定グラデーション_106);
      }

      .cls-30 {
        fill: url(#_称未設定グラデーション_587);
      }

      .cls-31 {
        fill: url(#_称未設定グラデーション_377);
      }

      .cls-32 {
        fill: url(#_称未設定グラデーション_362);
      }

      .cls-33 {
        fill: url(#_称未設定グラデーション_366);
      }

      .cls-34 {
        fill: url(#_称未設定グラデーション_551);
      }

      .cls-35 {
        fill: url(#_称未設定グラデーション_549);
      }

      .cls-36 {
        clip-path: url(#clippath);
      }

      .cls-37 {
        fill: url(#_規グラデーションスウォッチ_9-3);
      }

      .cls-38 {
        fill: url(#_規グラデーションスウォッチ_9-2);
      }
    </style>
    <linearGradient id="_規グラデーションスウォッチ_9" data-name="新規グラデーションスウォッチ 9" x1="273.222" y1="36.256" x2="273.222" y2="109.997" gradientTransform="matrix(1, 0, 0, 1, 0, 0)" gradientUnits="userSpaceOnUse">
      <stop offset="0" stop-color="#a3cea8"/>
      <stop offset=".18" stop-color="#7cc098"/>
      <stop offset=".455" stop-color="#47ae84"/>
      <stop offset=".693" stop-color="#20a175"/>
      <stop offset=".882" stop-color="#08986c"/>
      <stop offset="1" stop-color="#009669"/>
    </linearGradient>
    <linearGradient id="_称未設定グラデーション_680" data-name="名称未設定グラデーション 680" x1="898.563" y1="165.142" x2="898.563" y2="209.337" gradientTransform="translate(-469.605 127.182) rotate(-13.877)" gradientUnits="userSpaceOnUse">
      <stop offset="0" stop-color="#a3cea8"/>
      <stop offset=".18" stop-color="#7cc098"/>
      <stop offset=".455" stop-color="#47ae84"/>
      <stop offset=".693" stop-color="#20a175"/>
      <stop offset=".882" stop-color="#08986c"/>
      <stop offset="1" stop-color="#009669"/>
    </linearGradient>
    <linearGradient id="_称未設定グラデーション_587" data-name="名称未設定グラデーション 587" x1="516.184" y1="54.297" x2="516.184" y2="123.12" gradientTransform="translate(585.388 127.182) rotate(-166.123) scale(1 -1)" gradientUnits="userSpaceOnUse">
      <stop offset="0" stop-color="#82a788"/>
      <stop offset="1" stop-color="#007550"/>
    </linearGradient>
    <linearGradient id="_称未設定グラデーション_100" data-name="名称未設定グラデーション 100" x1="424.848" y1="83.55" x2="458.417" y2="25.406" gradientTransform="translate(534.418 86.209) rotate(-169.916) scale(1 -1)" gradientUnits="userSpaceOnUse">
      <stop offset="0" stop-color="#d8d5ae"/>
      <stop offset=".62" stop-color="#f2efce"/>
      <stop offset="1" stop-color="#fffcde"/>
    </linearGradient>
    <linearGradient id="_称未設定グラデーション_106" data-name="名称未設定グラデーション 106" x1="459.716" y1="50.074" x2="469.97" y2="32.313" gradientTransform="translate(534.418 86.209) rotate(-169.916) scale(1 -1)" gradientUnits="userSpaceOnUse">
      <stop offset="0" stop-color="#c9c5a2"/>
      <stop offset=".613" stop-color="#e3e0c1"/>
      <stop offset="1" stop-color="#f0edd1"/>
    </linearGradient>
    <linearGradient id="_称未設定グラデーション_111" data-name="名称未設定グラデーション 111" x1="465.202" y1="90.589" x2="481.653" y2="62.094" gradientTransform="translate(534.418 86.209) rotate(-169.916) scale(1 -1)" gradientUnits="userSpaceOnUse">
      <stop offset="0" stop-color="#9c997e"/>
      <stop offset=".304" stop-color="#b9b69b"/>
      <stop offset=".761" stop-color="#e0ddc2"/>
      <stop offset="1" stop-color="#f0edd1"/>
    </linearGradient>
    <linearGradient id="_規グラデーションスウォッチ_10" data-name="新規グラデーションスウォッチ 10" x1="338.193" y1="80.446" x2="338.193" y2="109.997" gradientTransform="translate(576.32) rotate(-180) scale(1 -1)" gradientUnits="userSpaceOnUse">
      <stop offset="0" stop-color="#d9e8ae"/>
      <stop offset="1" stop-color="#7dc280"/>
    </linearGradient>
    <linearGradient id="_称未設定グラデーション_377" data-name="名称未設定グラデーション 377" x1="365.426" y1="-1.481" x2="365.426" y2="17.602" gradientTransform="translate(555.084 76.349) rotate(-168.617) scale(1 -1)" gradientUnits="userSpaceOnUse">
      <stop offset="0" stop-color="#fff"/>
      <stop offset=".109" stop-color="#f5f7f7"/>
      <stop offset=".398" stop-color="#e2e7e8"/>
      <stop offset=".693" stop-color="#d6dedf"/>
      <stop offset="1" stop-color="#d3dbdd"/>
    </linearGradient>
    <linearGradient id="_称未設定グラデーション_377-2" data-name="名称未設定グラデーション 377" x1="102.236" y1="10.951" x2="126.134" y2="34.848" gradientTransform="translate(576.32) rotate(-180) scale(1 -1)" xlink:href="#_称未設定グラデーション_377"/>
    <linearGradient id="_称未設定グラデーション_377-3" data-name="名称未設定グラデーション 377" x1="151.479" y1="33.727" x2="175.376" y2="57.624" gradientTransform="translate(-149.741)" xlink:href="#_称未設定グラデーション_377"/>
    <linearGradient id="_規グラデーションスウォッチ_9-2" data-name="新規グラデーションスウォッチ 9" x1="447.41" y1="39.379" x2="447.41" y2="63.782" gradientTransform="translate(565.559 -72.411) rotate(168.659) scale(1 -1)" xlink:href="#_規グラデーションスウォッチ_9"/>
    <linearGradient id="_規グラデーションスウォッチ_9-3" data-name="新規グラデーションスウォッチ 9" x1="437.876" y1="52.543" x2="437.876" y2="72.461" gradientTransform="translate(570.234 -63.544) rotate(170.688) scale(1 -1)" xlink:href="#_規グラデーションスウォッチ_9"/>
    <linearGradient id="_称未設定グラデーション_366" data-name="名称未設定グラデーション 366" x1="336.797" y1="4.232" x2="341.229" y2="20.773" gradientTransform="translate(576.32) rotate(-180) scale(1 -1)" gradientUnits="userSpaceOnUse">
      <stop offset="0" stop-color="#fcdd99"/>
      <stop offset=".028" stop-color="#ffe59b"/>
      <stop offset=".184" stop-color="#f6cf80"/>
      <stop offset=".406" stop-color="#edb560"/>
      <stop offset=".62" stop-color="#e6a249"/>
      <stop offset=".823" stop-color="#e2973b"/>
      <stop offset="1" stop-color="#e19437"/>
    </linearGradient>
    <clipPath id="clippath">
      <rect class="cls-1" x="270.537" y="0" width="143.65" height="109.774"/>
    </clipPath>
    <linearGradient id="_称未設定グラデーション_551" data-name="名称未設定グラデーション 551" x1="321.206" y1="34.303" x2="321.206" y2="71.408" gradientTransform="matrix(1, 0, 0, 1, 0, 0)" gradientUnits="userSpaceOnUse">
      <stop offset="0" stop-color="#531f09"/>
      <stop offset=".574" stop-color="#803d2c"/>
      <stop offset="1" stop-color="#9e5143"/>
    </linearGradient>
    <linearGradient id="_称未設定グラデーション_141" data-name="名称未設定グラデーション 141" x1="346.232" y1="65.605" x2="319.573" y2="65.605" gradientTransform="matrix(1, 0, 0, 1, 0, 0)" gradientUnits="userSpaceOnUse">
      <stop offset="0" stop-color="#ed7d4c"/>
      <stop offset=".382" stop-color="#f09873"/>
      <stop offset="1" stop-color="#f7c3af"/>
    </linearGradient>
    <linearGradient id="_称未設定グラデーション_551-2" data-name="名称未設定グラデーション 551" x1="393.455" y1="109.997" x2="393.455" y2="94.769" xlink:href="#_称未設定グラデーション_551"/>
    <linearGradient id="_称未設定グラデーション_549" data-name="名称未設定グラデーション 549" x1="359.658" y1="98.407" x2="359.658" y2="66.049" gradientTransform="matrix(1, 0, 0, 1, 0, 0)" gradientUnits="userSpaceOnUse">
      <stop offset="0" stop-color="#531f09"/>
      <stop offset=".111" stop-color="#642a16"/>
      <stop offset=".315" stop-color="#7d3b29"/>
      <stop offset=".527" stop-color="#8f4737"/>
      <stop offset=".749" stop-color="#9a4e40"/>
      <stop offset="1" stop-color="#9e5143"/>
    </linearGradient>
    <linearGradient id="_称未設定グラデーション_149" data-name="名称未設定グラデーション 149" x1="349.71" y1="47.003" x2="323.786" y2="2.101" gradientTransform="matrix(1, 0, 0, 1, 0, 0)" gradientUnits="userSpaceOnUse">
      <stop offset="0" stop-color="#ed7d4c"/>
      <stop offset=".029" stop-color="#f0936f"/>
      <stop offset=".298" stop-color="#f2a687"/>
      <stop offset="1" stop-color="#fad7c3"/>
    </linearGradient>
    <linearGradient id="_称未設定グラデーション_196" data-name="名称未設定グラデーション 196" x1="346.012" y1="67.741" x2="346.012" y2="0" gradientTransform="matrix(1, 0, 0, 1, 0, 0)" gradientUnits="userSpaceOnUse">
      <stop offset="0" stop-color="#4e2813"/>
      <stop offset="1" stop-color="#ae513a"/>
    </linearGradient>
    <linearGradient id="_称未設定グラデーション_362" data-name="名称未設定グラデーション 362" x1="331.965" y1="89.134" x2="331.965" y2="61.013" gradientTransform="matrix(1, 0, 0, 1, 0, 0)" gradientUnits="userSpaceOnUse">
      <stop offset="0" stop-color="#e46574"/>
      <stop offset=".364" stop-color="#e97d84"/>
      <stop offset="1" stop-color="#f4b0a6"/>
    </linearGradient>
    <linearGradient id="_称未設定グラデーション_141-2" data-name="名称未設定グラデーション 141" x1="365.932" y1="97.344" x2="365.932" y2="74.162" xlink:href="#_称未設定グラデーション_141"/>
    <linearGradient id="_称未設定グラデーション_362-2" data-name="名称未設定グラデーション 362" x1="375.736" y1="104.67" x2="375.736" y2="94.382" xlink:href="#_称未設定グラデーション_362"/>
    <linearGradient id="_称未設定グラデーション_551-3" data-name="名称未設定グラデーション 551" x1="381.826" y1="95.026" x2="381.826" y2="69.719" xlink:href="#_称未設定グラデーション_551"/>
    <linearGradient id="_称未設定グラデーション_551-4" data-name="名称未設定グラデーション 551" x1="347.776" y1="110.117" x2="347.776" y2="96.764" xlink:href="#_称未設定グラデーション_551"/>
    <linearGradient id="_称未設定グラデーション_377-4" data-name="名称未設定グラデーション 377" x1="512.226" y1="37.108" x2="495.489" y2="66.097" gradientTransform="translate(-93.744)" xlink:href="#_称未設定グラデーション_377"/>
  </defs>
  <rect class="cls-9" x=".197" y="0" width="475.861" height="109.997"/>
  <path class="cls-22" d="M342.087,74.857c-8.25-19.75-17.5-38.25-26.75-38.594s-8.5,12.594-8.5,12.594c-.5-2.75-5.25-3.25-8.5-1.797-3.25,1.453-3.25,10.797-3.25,10.797-4-10-10.5-2-10.5-2-.5-12.75-4.75-18.75-10-19.5-.399-.057-.776-.079-1.143-.084-.073-.003-.148-.003-.222-.004-.075,0-.149,.001-.222,.004-.367,.006-.744,.027-1.143,.084-5.25,.75-9.5,6.75-10,19.5,0,0-6.5-8-10.5,2,0,0,0-9.344-3.25-10.797-3.25-1.453-8-.953-8.5,1.797,0,0,.75-12.937-8.5-12.594s-18.5,18.844-26.75,38.594c-5.842,13.986,22.787,28.094,39.998,35.14h57.734c17.212-7.046,45.841-21.154,39.998-35.14Z"/>
  <path class="cls-25" d="M475.625,67.381c-14.272-1.944-19.82,6.595-19.82,6.595-4.372-2.906-12.373,5.05-12.373,5.05l-6.374-3.509c-14.929-3.953-17.161,11.216-17.161,11.216-10.1,3.492-3.724,17.198-3.724,17.198l59.452,5.372v-41.921Z"/>
  <path class="cls-30" d="M0,66.017c15.447-2.104,21.452,7.138,21.452,7.138,4.732-3.146,13.391,5.465,13.391,5.465l71.842-11.375c16.158-4.278,18.574,12.139,18.574,12.139,10.931,3.779,4.031,18.613,4.031,18.613L0,109.389v-43.372Z"/>
  <g>
    <path class="cls-28" d="M117.442,88.303l4.207-34.453s-11.36-3.3-22.592-2.525c0,0-.156-11.121,1.012-20.088,0,0-11.856-5.309-27.928,2.287l2.466,20.92s-10.235,1.167-19.27,6.387l10.678,31.127,51.426-3.655Z"/>
    <polygon class="cls-29" points="61.451 42.056 72.142 33.525 74.608 54.444 66.624 56.155 61.451 42.056"/>
    <path class="cls-24" d="M53.87,94.278s-5.477-17.188-6.841-25.111c0,0,4.677-6.469,8.309-8.336l10.678,31.127-12.146,2.32Z"/>
    <polygon class="cls-12" points="109.332 75.127 111.833 61.065 103.147 59.52 103.128 74.024 109.332 75.127"/>
    <polygon class="cls-12" points="91.822 75.213 91.44 60.568 82.264 61.78 85.443 77.492 91.822 75.213"/>
    <polygon class="cls-12" points="74.069 75.47 72.769 64.785 66.124 66.163 68.848 76.034 74.069 75.47"/>
    <polygon class="cls-10" points="89.938 46.824 94.676 47.773 94.775 41.817 89.421 41.931 90.606 36.563 84.006 35.635 84.687 42.156 79.88 42.795 78.887 48.378 84.839 47.303 83.919 52.474 89.82 52.883 89.938 46.824"/>
  </g>
  <path class="cls-21" d="M.197,109.997v-3.296c41.264-12.575,106.247-24.901,203.994-26.093,169.027-2.061,248.986,15.963,271.867,29.389H.197Z"/>
  <path class="cls-31" d="M175.799,17.946s18.286-2.581,37.01,1.528c0,0-2.585-10.381-7.88-11.107-5.294-.726-5.821,1.888-5.821,1.888,0,0,.876-7.729-5.669-8.154-6.545-.425-5.522,4.626-5.522,4.626,0,0-4.075-2.081-6.129,.041-2.147,2.218-1.64,4.77-.694,5.981,0,0-7.278-.161-5.296,5.196Z"/>
  <path class="cls-18" d="M449.125,14.153c3.5-1.5,5.167,1.75,5.167,1.75,.167-2.083,.833-5.75,6.203-6.583,5.369-.833,7.631,5.667,7.631,5.667,2.838-2.62,5.454-2.951,7.5-2.494V31.623c-15.801-5.272-35.262-6.598-35.262-6.598,.072-4.794,7.095-3.659,7.095-3.659-.833-1.62-1.833-5.713,1.667-7.213Z"/>
  <path class="cls-17" d="M26.697,36.929c-3.5-1.5-5.167,1.75-5.167,1.75-.167-2.083-.833-5.75-6.203-6.583-5.369-.833-7.631,5.667-7.631,5.667-2.838-2.62-5.454-2.951-7.5-2.494v19.131c15.801-5.272,35.262-6.598,35.262-6.598-.072-4.794-7.095-3.659-7.095-3.659,.833-1.62,1.833-5.713-1.667-7.213Z"/>
  <g>
    <rect class="cls-11" x="137.452" y="75.154" width="1.75" height="8.5" transform="translate(280.783 151.137) rotate(176.87)"/>
    <path class="cls-38" d="M138.325,78.287c2.557-.167,6.787-2.598,4.197-12.42-2.4-9.102-3.732-12.316-5.326-12.191-1.984,.156-3.811,5.269-4.626,13.422-.882,8.816,3.061,11.365,5.756,11.189Z"/>
  </g>
  <g>
    <rect class="cls-11" x="148.203" y="76.372" width="1.428" height="6.938" transform="translate(299.34 156.806) rotate(178.899)"/>
    <path class="cls-37" d="M148.947,78.929c2.091-.063,5.611-1.923,3.782-10.01-1.695-7.494-2.689-10.154-3.992-10.098-1.623,.07-3.261,4.188-4.162,10.815-.974,7.166,2.169,9.359,4.372,9.293Z"/>
  </g>
  <g>
    <circle class="cls-33" cx="237.307" cy="12.503" r="8.56"/>
    <line class="cls-4" x1="228.367" y1="3.942" x2="224.661" y2=".975"/>
    <line class="cls-4" x1="225.701" y1="12.003" x2="218.201" y2="12.003"/>
    <line class="cls-4" x1="226.867" y1="20.063" x2="218.201" y2="27.484"/>
    <line class="cls-4" x1="234.867" y1="24.776" x2="232.034" y2="33.959"/>
    <line class="cls-4" x1="243.034" y1="24.776" x2="245.867" y2="35.359"/>
    <line class="cls-4" x1="248.747" y1="20.063" x2="256.034" y2="25.776"/>
    <path class="cls-4" d="M258.201,10.776l-8.667,1.227,8.667-1.227Z"/>
    <line class="cls-4" x1="245.867" y1="3.942" x2="249.534" y2=".975"/>
  </g>
  <g class="cls-36">
    <g>
      <path class="cls-34" d="M316.579,34.303s-4.388,23.332-8.14,37.105c0,0,13.622-1.013,18.125-4.49,0,0,7.776-14.979,7.395-18.211-.38-3.232-17.38-14.404-17.38-14.404Z"/>
      <path class="cls-27" d="M319.573,63.192s9.273-3.733,8.114-13.756l16.517-1.917s-6.085,9.797,2.028,16.144l-18.546,20.03-8.114-20.5Z"/>
      <path class="cls-7" d="M288.567,67.111s20.284-1.304,30.136-3.92c0,0,6.085,13.458,9.707,15.499,0,0,10.722-2.741,20.139-12.158,0,0,11.881,2.173,24.196,.29,1.742-.266,.905,43.175,.905,43.175h-88.846s3.183-14.488,3.763-42.886Z"/>
      <path class="cls-15" d="M407.064,95.026v14.971h-25.043l-2.175-14.778s17.925-.869,27.218-.193Z"/>
      <path class="cls-35" d="M366.999,66.049h-3.284s-9.949,13.33-11.398,32.358l9.176-.483s-.58-17.58,5.506-31.875Z"/>
      <path class="cls-26" d="M356.761,40.259s-10.528,14.958-31.344,12.367c0,0-19.754-21.074-4.588-48.817,0,0,18.352-10.619,28.784-3.311s10.045,30.306,8.307,33.005c0,0,6.955-3.574,8.5-1.067s-3.864,9.08-9.659,7.824Z"/>
      <path class="cls-23" d="M322.09,0c-1.788,2.366-3.126,4.807-3.58,6.92,0,0,15.02,2.278,30.04-3.111,0,0-.483,19.037,9.369,27.744l-3.864,5.47s6.762-6.992,11.881-3.52c0,0-1.306,6.95-10.554,6.563,0,0-3.211,6.544-12.556,10.48,0,0-3.453,7.542,3.405,13.116,2.037,1.656,2.774,2.71,5.506,3.304,6.466,1.407,15.261,.468,15.261,.468,0,0,0-23.634,2.608-35.882,1.574-7.392,5.739-22.331,2.988-31.552h-50.505Z"/>
      <path class="cls-32" d="M346.087,62.475s5.651,3.912,5.651,4.491-3.767,13.33-9.997,22.168c0,0-2.173-7.943-5.651-10.444-1.908-1.372-6.955,.881-6.955,.881,0,0-4.926-3.043-6.085-2.898s-5.216,5.651-6.81,9.997c0,0-4.926-9.128-3.912-21.588l7.534-4.07s5.94,15.226,9.273,16.53c1.932,.756,12.026-7.534,16.952-15.068Z"/>
      <polygon class="cls-7" points="369.341 109.997 369.849 101.836 381.295 99.587 387.704 109.997 369.341 109.997"/>
      <path class="cls-20" d="M369.897,97.344v-5.119s-5.409,.773-8.693-1.739-5.216-5.02-5.216-5.02l-2.657,5.53s-1.98-5.243-1.593-12.584c0,0,5.795-.097,11.881-4.25,0,0,10.895,7.746,15.358,14.972,2.028,3.284,.869,6.085,.869,6.085l-9.949,2.125Z"/>
      <path class="cls-19" d="M369.607,104.67v-7.809s.631-2.946,10.568-2.415l1.689,7.012s-8.394-1.15-12.257,3.211Z"/>
      <circle class="cls-8" cx="327.82" cy="84.488" r="2.403"/>
      <circle class="cls-8" cx="326.564" cy="93.855" r="2.403"/>
      <path class="cls-14" d="M373.181,69.719s11.881,13.136,17.29,25.307h-6.665s-6.085-14.102-10.625-20.381v-4.926Z"/>
      <path class="cls-13" d="M333.096,103.623s10.045-5.795,28.383-6.858c0,0-.471,7.421,.977,13.232l-28.141,.12-1.22-5.447"/>
      <path class="cls-3" d="M326.045,40.355s1.138,1.502,5.92,1.835"/>
      <g>
        <path class="cls-5" d="M342.3,24.321s-.386,3.236-2.222,6.472"/>
        <path class="cls-2" d="M340.079,20.458s-.546,1.65,2.222,3.864"/>
      </g>
      <g>
        <path class="cls-5" d="M324.646,17.85s-.386,3.236-2.222,6.472"/>
        <path class="cls-2" d="M322.424,13.986s-.546,1.65,2.222,3.864"/>
      </g>
      <path class="cls-6" d="M322.381,11.378s1.664-3.091,8.522-1.449c0,0,1.159,10.528-1.545,13.523-2.023,2.239-2.898,3.574-5.94,3.477l1.766,5.506"/>
      <path class="cls-6" d="M341.19,13.986s4.916,.486,7.601,5.507"/>
    </g>
  </g>
  <path class="cls-16" d="M432.781,62.043s-24.987-8.808-52.486-8.33c0,0,6.576-13.869,14.227-13.39,7.652,.478,7.652,4.304,7.652,4.304,0,0,.956-11.119,10.282-9.863,9.325,1.255,6.456,8.07,6.456,8.07,0,0,6.32-1.773,8.608,1.793,2.391,3.727,.956,7.173-.717,8.608,0,0,10.282,1.835,5.978,8.808Z"/>
</svg>