<?xml version="1.0" encoding="UTF-8"?>
<svg id="_イヤー_1" data-name="レイヤー 1" xmlns="http://www.w3.org/2000/svg" width="134.211mm" height="78.039mm" xmlns:xlink="http://www.w3.org/1999/xlink" viewBox="0 0 380.441 221.212">
  <defs>
    <style>
      .cls-1, .cls-2, .cls-3, .cls-4, .cls-5, .cls-6, .cls-7, .cls-8, .cls-9, .cls-10, .cls-11 {
        fill: none;
      }

      .cls-12 {
        fill: url(#New_Gradient_Swatch_3-2);
      }

      .cls-13 {
        fill: url(#New_Gradient_Swatch_2-3);
      }

      .cls-14 {
        fill: url(#New_Gradient_Swatch_2-4);
      }

      .cls-15 {
        fill: url(#New_Gradient_Swatch_2-2);
      }

      .cls-16 {
        fill: url(#_称未設定グラデーション_25-3);
      }

      .cls-17 {
        fill: url(#_称未設定グラデーション_25-2);
      }

      .cls-18 {
        fill: url(#_称未設定グラデーション_34-2);
      }

      .cls-19 {
        fill: url(#_称未設定グラデーション_14-2);
      }

      .cls-20 {
        fill: url(#_称未設定グラデーション_34);
      }

      .cls-21 {
        fill: url(#_称未設定グラデーション_33);
      }

      .cls-22 {
        fill: url(#_称未設定グラデーション_32);
      }

      .cls-23 {
        fill: url(#_称未設定グラデーション_17);
      }

      .cls-24 {
        fill: url(#_称未設定グラデーション_19);
      }

      .cls-25 {
        fill: url(#_称未設定グラデーション_18);
      }

      .cls-26 {
        fill: url(#_称未設定グラデーション_25);
      }

      .cls-27 {
        fill: url(#_称未設定グラデーション_28);
      }

      .cls-28 {
        fill: url(#_称未設定グラデーション_27);
      }

      .cls-29 {
        fill: url(#_称未設定グラデーション_13);
      }

      .cls-30 {
        fill: url(#_称未設定グラデーション_14);
      }

      .cls-31 {
        fill: url(#_称未設定グラデーション_22);
      }

      .cls-32 {
        fill: url(#_称未設定グラデーション_73);
      }

      .cls-33 {
        fill: url(#_称未設定グラデーション_36);
      }

      .cls-34 {
        fill: url(#_称未設定グラデーション_38);
      }

      .cls-35 {
        fill: url(#_称未設定グラデーション_39);
      }

      .cls-36 {
        fill: url(#_称未設定グラデーション_88);
      }

      .cls-37 {
        fill: url(#_称未設定グラデーション_41);
      }

      .cls-38 {
        fill: url(#_称未設定グラデーション_20);
      }

      .cls-39 {
        fill: url(#_称未設定グラデーション_133);
        opacity: .51;
      }

      .cls-40 {
        fill: url(#linear-gradient-2);
      }

      .cls-41 {
        fill: #e99741;
      }

      .cls-42, .cls-43, .cls-44 {
        fill: #fff;
      }

      .cls-45 {
        fill: #f5d58d;
      }

      .cls-46 {
        fill: #cde1bd;
      }

      .cls-47 {
        fill: #b1b2b1;
      }

      .cls-48 {
        fill: #bfded6;
      }

      .cls-49 {
        fill: #bebebe;
      }

      .cls-50 {
        fill: #dc5518;
      }

      .cls-51 {
        fill: #e1783b;
      }

      .cls-52 {
        fill: #221714;
      }

      .cls-53 {
        fill: #85c6ce;
      }

      .cls-54 {
        fill: url(#linear-gradient);
      }

      .cls-2, .cls-3, .cls-4, .cls-5, .cls-6, .cls-7, .cls-8, .cls-9, .cls-10, .cls-44, .cls-11 {
        stroke-miterlimit: 10;
      }

      .cls-2, .cls-8, .cls-9 {
        stroke-width: 1.24px;
      }

      .cls-2, .cls-9 {
        stroke: #b71c25;
      }

      .cls-3 {
        stroke-width: 2.48px;
      }

      .cls-3, .cls-8 {
        stroke: #221714;
      }

      .cls-4, .cls-6, .cls-7, .cls-10 {
        stroke: #fff;
      }

      .cls-4, .cls-8, .cls-9 {
        stroke-linecap: round;
      }

      .cls-4, .cls-11 {
        stroke-width: .953px;
      }

      .cls-5, .cls-44 {
        stroke: #c8c9c9;
        stroke-width: .54px;
      }

      .cls-43 {
        opacity: .34;
      }

      .cls-55 {
        fill: url(#_称未設定グラデーション_7);
      }

      .cls-56 {
        fill: url(#_称未設定グラデーション_6);
      }

      .cls-57 {
        fill: url(#_称未設定グラデーション_2);
      }

      .cls-58 {
        fill: url(#_称未設定グラデーション_4);
      }

      .cls-59 {
        fill: url(#New_Gradient_Swatch_2);
      }

      .cls-60 {
        fill: url(#New_Gradient_Swatch_3);
      }

      .cls-61 {
        fill: url(#_規グラデーションスウォッチ_3);
      }

      .cls-7 {
        stroke-width: 2.159px;
      }

      .cls-10 {
        stroke-width: 2.157px;
      }

      .cls-62 {
        fill: url(#_称未設定グラデーション_7-2);
      }

      .cls-63 {
        fill: url(#_称未設定グラデーション_4-2);
      }

      .cls-64 {
        fill: url(#_称未設定グラデーション_129);
      }

      .cls-65 {
        fill: url(#_称未設定グラデーション_102);
      }

      .cls-11 {
        stroke: #e1783b;
      }

      .cls-66 {
        clip-path: url(#clippath);
      }

      .cls-67 {
        fill: url(#_規グラデーションスウォッチ_3-2);
      }
    </style>
    <radialGradient id="_称未設定グラデーション_41" data-name="名称未設定グラデーション 41" cx="126.087" cy="110.71" fx="126.087" fy="110.71" r="102.544" gradientTransform="translate(-62.237) scale(2 1)" gradientUnits="userSpaceOnUse">
      <stop offset="0" stop-color="#f7dacf"/>
      <stop offset=".574" stop-color="#f6d8ce"/>
      <stop offset=".804" stop-color="#f4d0cd"/>
      <stop offset=".972" stop-color="#f0c4cb"/>
      <stop offset="1" stop-color="#f0c2cb"/>
    </radialGradient>
    <linearGradient id="_規グラデーションスウォッチ_3" data-name="新規グラデーションスウォッチ 3" x1="1.703" y1="183.301" x2="210.43" y2="183.301" gradientTransform="matrix(1, 0, 0, 1, 0, 0)" gradientUnits="userSpaceOnUse">
      <stop offset="0" stop-color="#f7dacf"/>
      <stop offset="1" stop-color="#f5d3cb"/>
    </linearGradient>
    <linearGradient id="_規グラデーションスウォッチ_3-2" data-name="新規グラデーションスウォッチ 3" x1="-225.693" y1="183.301" x2="-16.966" y2="183.301" gradientTransform="translate(154.748) rotate(-180) scale(1 -1)" xlink:href="#_規グラデーションスウォッチ_3"/>
    <linearGradient id="_称未設定グラデーション_39" data-name="名称未設定グラデーション 39" x1="294.864" y1="103.707" x2="294.864" y2=".563" gradientTransform="matrix(1, 0, 0, 1, 0, 0)" gradientUnits="userSpaceOnUse">
      <stop offset="0" stop-color="#be725a"/>
      <stop offset="1" stop-color="#f3e6cd"/>
    </linearGradient>
    <linearGradient id="_称未設定グラデーション_38" data-name="名称未設定グラデーション 38" x1="292.262" y1="58.282" x2="292.262" y2=".563" gradientTransform="matrix(1, 0, 0, 1, 0, 0)" gradientUnits="userSpaceOnUse">
      <stop offset="0" stop-color="#f4cca9"/>
      <stop offset=".303" stop-color="#f1c7a5"/>
      <stop offset=".635" stop-color="#eaba9c"/>
      <stop offset=".979" stop-color="#dda48d"/>
      <stop offset="1" stop-color="#dda38c"/>
    </linearGradient>
    <linearGradient id="_称未設定グラデーション_36" data-name="名称未設定グラデーション 36" x1="158.229" y1="30.83" x2="196.118" y2="52.706" gradientTransform="translate(90)" gradientUnits="userSpaceOnUse">
      <stop offset="0" stop-color="#eab7b2"/>
      <stop offset="1" stop-color="#af3840"/>
    </linearGradient>
    <linearGradient id="_称未設定グラデーション_34" data-name="名称未設定グラデーション 34" x1="251.944" y1="115.081" x2="251.944" y2=".563" gradientTransform="matrix(1, 0, 0, 1, 0, 0)" gradientUnits="userSpaceOnUse">
      <stop offset="0" stop-color="#e27b5c"/>
      <stop offset="1" stop-color="#f3e6cd"/>
    </linearGradient>
    <linearGradient id="_称未設定グラデーション_34-2" data-name="名称未設定グラデーション 34" x1="343.581" y1="120.044" x2="343.581" y2=".449" xlink:href="#_称未設定グラデーション_34"/>
    <linearGradient id="_称未設定グラデーション_33" data-name="名称未設定グラデーション 33" x1="340.658" y1="132.732" x2="340.658" y2="73.653" gradientTransform="matrix(1, 0, 0, 1, 0, 0)" gradientUnits="userSpaceOnUse">
      <stop offset="0" stop-color="#d1b38c"/>
      <stop offset="1" stop-color="#fcfae4"/>
    </linearGradient>
    <linearGradient id="_称未設定グラデーション_32" data-name="名称未設定グラデーション 32" x1="353.342" y1="130.336" x2="381.146" y2="82.178" gradientTransform="matrix(1, 0, 0, 1, 0, 0)" gradientUnits="userSpaceOnUse">
      <stop offset="0" stop-color="#d1b38c"/>
      <stop offset=".211" stop-color="#d2b690"/>
      <stop offset=".425" stop-color="#d8c09c"/>
      <stop offset=".641" stop-color="#e2d0b0"/>
      <stop offset=".857" stop-color="#f0e7cc"/>
      <stop offset="1" stop-color="#fcfae4"/>
    </linearGradient>
    <linearGradient id="_称未設定グラデーション_28" data-name="名称未設定グラデーション 28" x1="347.052" y1="85.087" x2="347.052" y2="66.876" gradientTransform="matrix(1, 0, 0, 1, 0, 0)" gradientUnits="userSpaceOnUse">
      <stop offset="0" stop-color="#e8d6bc"/>
      <stop offset=".002" stop-color="#e8d6bc"/>
      <stop offset=".321" stop-color="#f3e5cf"/>
      <stop offset=".649" stop-color="#f9eeda"/>
      <stop offset="1" stop-color="#fcf2de"/>
    </linearGradient>
    <clipPath id="clippath">
      <path class="cls-1" d="M.509,.511V135.561c11.599,6.215,24.514,10.287,38.217,11.708h21.782c52.339-5.463,93.142-49.716,93.142-103.501,0-15.438-3.378-30.082-9.41-43.257H.509Z"/>
    </clipPath>
    <linearGradient id="_称未設定グラデーション_25" data-name="名称未設定グラデーション 25" x1="-.8" y1="146.394" x2="187.774" y2="37.521" gradientTransform="matrix(1, 0, 0, 1, 0, 0)" gradientUnits="userSpaceOnUse">
      <stop offset="0" stop-color="#e2837b"/>
      <stop offset=".098" stop-color="#e69381"/>
      <stop offset=".258" stop-color="#eaa88a"/>
      <stop offset=".438" stop-color="#eeb690"/>
      <stop offset=".654" stop-color="#f0bf93"/>
      <stop offset="1" stop-color="#f1c295"/>
    </linearGradient>
    <linearGradient id="_称未設定グラデーション_27" data-name="名称未設定グラデーション 27" x1="42.66" y1="124.33" x2="135.579" y2="124.33" gradientTransform="matrix(1, 0, 0, 1, 0, 0)" gradientUnits="userSpaceOnUse">
      <stop offset="0" stop-color="#e2837b"/>
      <stop offset=".177" stop-color="#e69482"/>
      <stop offset=".487" stop-color="#ecad8c"/>
      <stop offset=".771" stop-color="#efbc92"/>
      <stop offset="1" stop-color="#f1c295"/>
    </linearGradient>
    <linearGradient id="_称未設定グラデーション_25-2" data-name="名称未設定グラデーション 25" x1="79.32" y1="25.556" x2="115.355" y2="4.751" xlink:href="#_称未設定グラデーション_25"/>
    <linearGradient id="_称未設定グラデーション_25-3" data-name="名称未設定グラデーション 25" x1="-8.103" y1="31.347" x2="16.559" y2="17.109" xlink:href="#_称未設定グラデーション_25"/>
    <linearGradient id="_称未設定グラデーション_4" data-name="名称未設定グラデーション 4" x1="118.465" y1="32.391" x2="118.465" y2="100.903" gradientTransform="matrix(1, 0, 0, 1, 0, 0)" gradientUnits="userSpaceOnUse">
      <stop offset="0" stop-color="#fcfadc"/>
      <stop offset=".177" stop-color="#dde4c2"/>
      <stop offset=".401" stop-color="#bdcea7"/>
      <stop offset=".618" stop-color="#a6be94"/>
      <stop offset=".822" stop-color="#98b588"/>
      <stop offset="1" stop-color="#94b285"/>
    </linearGradient>
    <linearGradient id="_称未設定グラデーション_22" data-name="名称未設定グラデーション 22" x1="41.284" y1="25.704" x2="41.284" y2="89.066" gradientTransform="matrix(1, 0, 0, 1, 0, 0)" gradientUnits="userSpaceOnUse">
      <stop offset="0" stop-color="#fcfadc"/>
      <stop offset=".081" stop-color="#f1f2d3"/>
      <stop offset=".503" stop-color="#bfcfa9"/>
      <stop offset=".822" stop-color="#9fba8e"/>
      <stop offset="1" stop-color="#94b285"/>
    </linearGradient>
    <linearGradient id="_称未設定グラデーション_20" data-name="名称未設定グラデーション 20" x1="70.026" y1="94.776" x2="80.708" y2="88.608" gradientTransform="matrix(1, 0, 0, 1, 0, 0)" gradientUnits="userSpaceOnUse">
      <stop offset="0" stop-color="#b7b4ab"/>
      <stop offset=".181" stop-color="#c8c5b8"/>
      <stop offset=".458" stop-color="#dcdac8"/>
      <stop offset=".731" stop-color="#e8e6d1"/>
      <stop offset=".995" stop-color="#edebd5"/>
    </linearGradient>
    <linearGradient id="_称未設定グラデーション_19" data-name="名称未設定グラデーション 19" x1="59.181" y1="63.775" x2="67.247" y2="60.516" gradientTransform="matrix(1, 0, 0, 1, 0, 0)" gradientUnits="userSpaceOnUse">
      <stop offset="0" stop-color="#b7b4ab"/>
      <stop offset="0" stop-color="#b8b5ab"/>
      <stop offset=".355" stop-color="#bbb7ad"/>
      <stop offset=".406" stop-color="#c2beb3"/>
      <stop offset=".644" stop-color="#e1decb"/>
      <stop offset=".776" stop-color="#edebd5"/>
      <stop offset="1" stop-color="#dad5c9"/>
    </linearGradient>
    <linearGradient id="_称未設定グラデーション_14" data-name="名称未設定グラデーション 14" x1="10.554" y1="17.554" x2="30.121" y2="6.257" gradientTransform="matrix(1, 0, 0, 1, 0, 0)" gradientUnits="userSpaceOnUse">
      <stop offset="0" stop-color="#b7b4ab"/>
      <stop offset=".142" stop-color="#bebbb1"/>
      <stop offset=".36" stop-color="#d4d1c2"/>
      <stop offset=".627" stop-color="#f6f4df"/>
      <stop offset=".664" stop-color="#fcfae4"/>
      <stop offset="1" stop-color="#edebd5"/>
    </linearGradient>
    <linearGradient id="_称未設定グラデーション_18" data-name="名称未設定グラデーション 18" x1="51.136" y1="52.254" x2="64.183" y2="44.721" gradientTransform="matrix(1, 0, 0, 1, 0, 0)" gradientUnits="userSpaceOnUse">
      <stop offset=".357" stop-color="#b7b4ab"/>
      <stop offset=".596" stop-color="#d1cfbf"/>
      <stop offset=".836" stop-color="#e5e3cf"/>
      <stop offset=".995" stop-color="#edebd5"/>
    </linearGradient>
    <linearGradient id="_称未設定グラデーション_17" data-name="名称未設定グラデーション 17" x1="49.311" y1="48.827" x2="37.611" y2="23.737" gradientTransform="matrix(1, 0, 0, 1, 0, 0)" gradientUnits="userSpaceOnUse">
      <stop offset="0" stop-color="#b7b4ab"/>
      <stop offset=".243" stop-color="#b9b6ac"/>
      <stop offset=".377" stop-color="#c1beb3"/>
      <stop offset=".484" stop-color="#ceccbe"/>
      <stop offset=".576" stop-color="#e1dfce"/>
      <stop offset=".659" stop-color="#faf8e2"/>
      <stop offset=".664" stop-color="#fcfae4"/>
      <stop offset="1" stop-color="#edebd5"/>
    </linearGradient>
    <linearGradient id="_称未設定グラデーション_14-2" data-name="名称未設定グラデーション 14" x1="29.094" y1="8.522" x2="35.431" y2="4.863" xlink:href="#_称未設定グラデーション_14"/>
    <linearGradient id="_称未設定グラデーション_13" data-name="名称未設定グラデーション 13" x1="83.118" y1="34.764" x2="112.864" y2="34.764" gradientTransform="matrix(1, 0, 0, 1, 0, 0)" gradientUnits="userSpaceOnUse">
      <stop offset="0" stop-color="#94b285"/>
      <stop offset=".542" stop-color="#dfebd1"/>
      <stop offset=".688" stop-color="#dce9ce"/>
      <stop offset=".781" stop-color="#d3e2c5"/>
      <stop offset=".86" stop-color="#c5d7b6"/>
      <stop offset=".93" stop-color="#b0c7a2"/>
      <stop offset=".995" stop-color="#96b387"/>
      <stop offset="1" stop-color="#94b285"/>
    </linearGradient>
    <linearGradient id="_称未設定グラデーション_7" data-name="名称未設定グラデーション 7" x1="42.077" y1="80.784" x2="37.35" y2="85.511" gradientTransform="matrix(1, 0, 0, 1, 0, 0)" gradientUnits="userSpaceOnUse">
      <stop offset="0" stop-color="#fcfadc" stop-opacity=".5"/>
      <stop offset=".057" stop-color="#f1f2d3" stop-opacity=".48"/>
      <stop offset=".314" stop-color="#c8d6b1" stop-opacity=".402"/>
      <stop offset=".562" stop-color="#abc298" stop-opacity=".346"/>
      <stop offset=".796" stop-color="#9ab68a" stop-opacity=".312"/>
      <stop offset="1" stop-color="#94b285" stop-opacity=".3"/>
    </linearGradient>
    <linearGradient id="_称未設定グラデーション_7-2" data-name="名称未設定グラデーション 7" x1="49.469" y1="76.658" x2="44.159" y2="81.968" xlink:href="#_称未設定グラデーション_7"/>
    <linearGradient id="_称未設定グラデーション_6" data-name="名称未設定グラデーション 6" x1="57.119" y1="69.835" x2="52.506" y2="74.449" gradientTransform="matrix(1, 0, 0, 1, 0, 0)" gradientUnits="userSpaceOnUse">
      <stop offset="0" stop-color="#fcfadc" stop-opacity=".5"/>
      <stop offset=".052" stop-color="#f2f3d4" stop-opacity=".455"/>
      <stop offset=".259" stop-color="#d0dcb7" stop-opacity=".292"/>
      <stop offset=".462" stop-color="#b6c9a1" stop-opacity=".165"/>
      <stop offset=".657" stop-color="#a3bc91" stop-opacity=".074"/>
      <stop offset=".84" stop-color="#97b488" stop-opacity=".019"/>
      <stop offset="1" stop-color="#94b285" stop-opacity="0"/>
    </linearGradient>
    <linearGradient id="_称未設定グラデーション_4-2" data-name="名称未設定グラデーション 4" x1="21.222" y1="27.124" x2="1.552" y2="46.794" xlink:href="#_称未設定グラデーション_4"/>
    <linearGradient id="_称未設定グラデーション_73" data-name="名称未設定グラデーション 73" x1="434.595" y1="115.323" x2="434.595" y2="141.261" gradientTransform="translate(629.129) rotate(-180) scale(1 -1)" gradientUnits="userSpaceOnUse">
      <stop offset="0" stop-color="#e17a4b"/>
      <stop offset=".178" stop-color="#e17d50"/>
      <stop offset=".41" stop-color="#e18860"/>
      <stop offset=".671" stop-color="#e29a7b"/>
      <stop offset=".952" stop-color="#e2b3a0"/>
      <stop offset="1" stop-color="#e3b8a8"/>
    </linearGradient>
    <linearGradient id="_称未設定グラデーション_102" data-name="名称未設定グラデーション 102" x1="494.5" y1="147.359" x2="380.727" y2="213.046" gradientTransform="translate(629.129) rotate(-180) scale(1 -1)" gradientUnits="userSpaceOnUse">
      <stop offset="0" stop-color="#fcfae4"/>
      <stop offset=".076" stop-color="#f3f4dc"/>
      <stop offset=".487" stop-color="#c8d6b5"/>
      <stop offset=".809" stop-color="#aec49d"/>
      <stop offset="1" stop-color="#a5be95"/>
    </linearGradient>
    <linearGradient id="_称未設定グラデーション_129" data-name="名称未設定グラデーション 129" x1="103.007" y1="138.547" x2="52.476" y2="138.547" gradientTransform="translate(116.25)" gradientUnits="userSpaceOnUse">
      <stop offset="0" stop-color="#e5edc7"/>
      <stop offset=".435" stop-color="#afcca3"/>
      <stop offset=".807" stop-color="#88b589"/>
      <stop offset="1" stop-color="#79ac80"/>
    </linearGradient>
    <linearGradient id="_称未設定グラデーション_133" data-name="名称未設定グラデーション 133" x1="79.738" y1="220.712" x2="79.738" y2="138.046" gradientTransform="translate(116.25)" gradientUnits="userSpaceOnUse">
      <stop offset="0" stop-color="#e5edc7"/>
      <stop offset=".069" stop-color="#d5e3bc"/>
      <stop offset=".242" stop-color="#b4cfa6"/>
      <stop offset=".42" stop-color="#9abf95"/>
      <stop offset=".602" stop-color="#87b489"/>
      <stop offset=".792" stop-color="#7cae82"/>
      <stop offset="1" stop-color="#79ac80"/>
    </linearGradient>
    <linearGradient id="_称未設定グラデーション_88" data-name="名称未設定グラデーション 88" x1="112.123" y1="94.573" x2="50.484" y2="94.573" gradientTransform="translate(111.379)" gradientUnits="userSpaceOnUse">
      <stop offset="0" stop-color="#e17a4b"/>
      <stop offset=".563" stop-color="#e6a07f"/>
      <stop offset="1" stop-color="#ebc1ab"/>
    </linearGradient>
    <linearGradient id="_称未設定グラデーション_2" data-name="名称未設定グラデーション 2" x1="78.046" y1="92.745" x2="78.046" y2="48.064" gradientTransform="translate(111.379)" gradientUnits="userSpaceOnUse">
      <stop offset="0" stop-color="#221714"/>
      <stop offset="1" stop-color="#4c4948"/>
    </linearGradient>
    <linearGradient id="New_Gradient_Swatch_3" data-name="New Gradient Swatch 3" x1="306.289" y1="120.239" x2="306.289" y2="166.6" gradientTransform="translate(231.118 -143.705) rotate(48.668)" gradientUnits="userSpaceOnUse">
      <stop offset="0" stop-color="#de6a5c"/>
      <stop offset=".168" stop-color="#e27d68"/>
      <stop offset=".527" stop-color="#eaa280"/>
      <stop offset=".817" stop-color="#efb98f"/>
      <stop offset="1" stop-color="#f1c295"/>
    </linearGradient>
    <linearGradient id="linear-gradient" x1="319.01" y1="124.351" x2="298.487" y2="148.809" gradientTransform="translate(231.118 -143.705) rotate(48.668)" gradientUnits="userSpaceOnUse">
      <stop offset="0" stop-color="#e27f6b"/>
      <stop offset=".147" stop-color="#e58d74"/>
      <stop offset=".487" stop-color="#ebaa86"/>
      <stop offset=".783" stop-color="#efbb91"/>
      <stop offset="1" stop-color="#f1c295"/>
    </linearGradient>
    <linearGradient id="New_Gradient_Swatch_2" data-name="New Gradient Swatch 2" x1="307.947" y1="184.605" x2="233.442" y2="197.742" gradientTransform="translate(231.118 -143.705) rotate(48.668)" gradientUnits="userSpaceOnUse">
      <stop offset="0" stop-color="#fcfadc"/>
      <stop offset=".548" stop-color="#c4d3ad"/>
      <stop offset="1" stop-color="#94b285"/>
    </linearGradient>
    <linearGradient id="New_Gradient_Swatch_2-2" data-name="New Gradient Swatch 2" x1="304.27" y1="155.168" x2="288.909" y2="173.474" xlink:href="#New_Gradient_Swatch_2"/>
    <linearGradient id="New_Gradient_Swatch_3-2" data-name="New Gradient Swatch 3" x1="409.836" y1="40.275" x2="387.06" y2="20.242" gradientTransform="translate(301.752 -143.705) rotate(131.332) scale(1 -1)" xlink:href="#New_Gradient_Swatch_3"/>
    <linearGradient id="linear-gradient-2" x1="411.022" y1="31.18" x2="400.597" y2="22.012" gradientTransform="translate(301.752 -143.705) rotate(131.332) scale(1 -1)" xlink:href="#linear-gradient"/>
    <linearGradient id="New_Gradient_Swatch_2-3" data-name="New Gradient Swatch 2" x1="364.222" y1="61.089" x2="366.644" y2="98.873" gradientTransform="translate(301.752 -143.705) rotate(131.332) scale(1 -1)" xlink:href="#New_Gradient_Swatch_2"/>
    <linearGradient id="New_Gradient_Swatch_2-4" data-name="New Gradient Swatch 2" x1="401.105" y1="45.068" x2="385.744" y2="63.374" gradientTransform="translate(301.752 -143.705) rotate(131.332) scale(1 -1)" xlink:href="#New_Gradient_Swatch_2"/>
  </defs>
  <rect class="cls-37" x=".939" y=".708" width="377.994" height="220.004"/>
  <path class="cls-61" d="M210.43,220.712v-67.278c-7.743-6.145-15.326-6.104-18.5-5.112-4,1.25-11.25-1-18-2.25-6.75-1.25-25.168,4.288-38.668,5.538s-15.844-.864-21.512,0c-7.683,1.171-9.086,5.073-29.728,7.331-20.641,2.259-32.211,20.127-34.907,32.877-2.696,12.75-15.924,17.96-27.174,20.21-8.917,1.783-17.119,4.893-20.238,8.683H210.43Z"/>
  <path class="cls-67" d="M171.714,220.712v-67.278c7.743-6.145,15.326-6.104,18.5-5.112,4,1.25,11.25-1,18-2.25s25.168,4.288,38.668,5.538c13.5,1.25,15.844-.864,21.512,0,7.683,1.171,9.086,5.073,29.728,7.331,20.641,2.259,32.211,20.127,34.907,32.877,2.696,12.75,15.924,17.96,27.174,20.21,8.917,1.783,17.119,4.893,20.238,8.683H171.714Z"/>
  <g>
    <g>
      <path class="cls-53" d="M378.539,.449V135.613c-11.609,6.22-24.535,10.295-38.25,11.718h-21.801c-52.383-5.468-93.22-49.757-93.22-103.588,0-15.451,3.381-30.107,9.418-43.293h143.852Z"/>
      <path class="cls-35" d="M319.891,103.707s-6.986-11.313-26.402-11.313-26.143,11.313-26.143,11.313L248.388,.563h92.953l-21.45,103.144Z"/>
      <path class="cls-34" d="M256.602,.563V43.911c0-2.752,.306-5.519,1.835-5.519s2.293,2.462,2.293,6.131-1.376,4.586-1.376,8.561c0,1.634,.917,5.198,3.669,5.198s3.822-2.887,3.822-5.504c0-2.924-1.529-5.351-1.529-8.561,0-1.603,.095-2.767,.238-3.613l.002-.009c.009-.054,.02-.096,.03-.147,.253-1.214,.723-2.057,1.565-2.057,1.529,0,2.293,2.462,2.293,6.131s-1.376,4.586-1.376,8.561c0,1.634,.917,5.198,3.669,5.198s3.822-2.887,3.822-5.504c0-2.924-1.529-5.351-1.529-8.561,0-.604,.017-1.127,.042-1.613v1.307c0-2.752,.306-5.519,1.835-5.519s2.293,2.462,2.293,6.131-1.376,4.586-1.376,8.561c0,1.634,.917,5.198,3.669,5.198s3.822-2.887,3.822-5.504c0-2.924-1.529-5.351-1.529-8.561,0-1.603,.095-2.767,.238-3.613l.002-.009c.009-.054,.02-.096,.03-.147,.253-1.214,.723-2.057,1.565-2.057,1.529,0,2.293,2.462,2.293,6.131s-1.376,4.586-1.376,8.561c0,1.634,.917,5.198,3.669,5.198s3.822-2.887,3.822-5.504c0-2.924-1.529-5.351-1.529-8.561,0-2.397,.213-3.812,.48-4.647,.279-.721,.695-1.178,1.313-1.178,1.529,0,2.293,2.462,2.293,6.131s-1.376,4.586-1.376,8.561c0,1.634,.917,5.198,3.669,5.198s3.822-2.887,3.822-5.504c0-2.924-1.529-5.351-1.529-8.561,0-1.603,.095-2.767,.238-3.613l.002-.009c.009-.054,.02-.096,.03-.147,.253-1.214,.723-2.057,1.565-2.057,1.529,0,2.293,2.462,2.293,6.131s-1.376,4.586-1.376,8.561c0,1.634,.917,5.198,3.669,5.198s3.822-2.887,3.822-5.504c0-2.924-1.529-5.351-1.529-8.561,0-.604,.017-1.127,.042-1.613v1.307c0-2.752,.306-5.519,1.835-5.519s2.293,2.462,2.293,6.131-1.376,4.586-1.376,8.561c0,1.634,.917,5.198,3.669,5.198s3.822-2.887,3.822-5.504c0-2.924-1.529-5.351-1.529-8.561,0-1.603,.095-2.767,.238-3.613l.002-.009c.009-.054,.02-.096,.03-.147,.253-1.214,.723-2.057,1.565-2.057,1.529,0,2.293,2.462,2.293,6.131s-1.376,4.586-1.376,8.561c0,1.634,.917,5.198,3.669,5.198s3.822-2.887,3.822-5.504c0-2.924-1.529-5.351-1.529-8.561,0-6.421,1.529-5.81,1.529-5.81l.034-37.844h-71.32Z"/>
      <path class="cls-33" d="M259.114,11.977s30.787,16.311,27.525,36.292c-3.262,19.981-21.408,17.534-21.408,17.534l-18.146-14.068,12.029-39.758Z"/>
      <path class="cls-20" d="M266.734,63.957s7.95-19.875,5.198-31.8c-2.752-11.925-12.842-31.595-12.842-31.595h-23.027s-10.443,14.553-10.78,41.533c-.548,43.814,28.252,72.985,28.252,72.985,11.166-4.785,13.81-11.374,13.81-11.374,0,0-2.752-10.09,2.752-17.734,5.504-7.644,11.619-18.958,6.727-23.544-4.892-4.587-10.09,1.529-10.09,1.529Z"/>
      <path class="cls-18" d="M315.304,32.158c-2.752,11.925,5.198,31.8,5.198,31.8,0,0-5.198-6.115-10.09-1.529-4.892,4.586,1.223,15.9,6.727,23.544,5.504,7.644,2.752,17.734,2.752,17.734,0,0,5.786,14.442,36.439,16.092,0,0,15.835,.968,22.209-.942V.449l-50.392,.114s-10.09,19.67-12.842,31.595Z"/>
    </g>
    <g>
      <path class="cls-44" d="M302.739,111.226l-14.48,3.678,6.916,27.231,3.28,1.085c2.392-.309,5.261,1.484,5.261,1.484,2.555-.512,6.095,2.489,8.579,1.794l-9.556-35.27Z"/>
      <polygon class="cls-44" points="302.739 111.226 288.259 114.903 291.247 107.732 297.443 106.158 302.739 111.226"/>
      <rect class="cls-44" x="289.945" y="99.39" width="6.134" height="7.769" transform="translate(-16.406 75.305) rotate(-14.25)"/>
      <polygon class="cls-44" points="290.863 99.546 285.062 76.704 286.683 73.62 293.122 98.972 290.863 99.546"/>
      <g>
        <line class="cls-5" x1="291.35" y1="127.077" x2="298.63" y2="125.229"/>
        <line class="cls-5" x1="291.66" y1="128.297" x2="295.927" y2="127.213"/>
        <line class="cls-5" x1="291.97" y1="129.517" x2="296.237" y2="128.433"/>
        <line class="cls-5" x1="292.28" y1="130.737" x2="296.547" y2="129.653"/>
        <line class="cls-5" x1="292.59" y1="131.956" x2="296.857" y2="130.873"/>
      </g>
      <g>
        <line class="cls-5" x1="292.88" y1="133.102" x2="300.16" y2="131.253"/>
        <line class="cls-5" x1="293.19" y1="134.321" x2="297.457" y2="133.238"/>
        <line class="cls-5" x1="293.5" y1="135.541" x2="297.767" y2="134.457"/>
        <line class="cls-5" x1="293.81" y1="136.761" x2="298.077" y2="135.677"/>
      </g>
      <g>
        <line class="cls-5" x1="289.82" y1="121.053" x2="297.1" y2="119.204"/>
        <line class="cls-5" x1="290.13" y1="122.273" x2="294.397" y2="121.189"/>
        <line class="cls-5" x1="290.44" y1="123.493" x2="294.707" y2="122.409"/>
        <line class="cls-5" x1="290.75" y1="124.712" x2="295.017" y2="123.629"/>
        <line class="cls-5" x1="291.06" y1="125.932" x2="295.327" y2="124.848"/>
      </g>
    </g>
    <path class="cls-7" d="M378.539,135.613c-14.631,7.839-31.351,12.289-49.111,12.289-57.525,0-104.159-46.634-104.159-104.159,0-15.451,3.381-30.107,9.418-43.293"/>
    <g>
      <polygon class="cls-21" points="315.565 73.653 367.021 85.087 357.492 132.732 314.295 122.885 315.565 73.653"/>
      <path class="cls-51" d="M315.565,73.653s18.079,6.802,16.174,28.083c-1.906,21.281-17.444,21.149-17.444,21.149l1.271-49.232Z"/>
      <path class="cls-41" d="M314.802,103.242l-.507,19.643s12.806,.106,16.592-15.8l-16.085-3.843Z"/>
      <line class="cls-4" x1="321.838" y1="98.083" x2="328.906" y2="99.751"/>
      <line class="cls-4" x1="321.838" y1="100.942" x2="328.906" y2="102.609"/>
      <polygon class="cls-11" points="359.951 103.935 335.82 98.498 336.684 87.381 362.094 92.939 359.951 103.935"/>
      <g>
        <path class="cls-51" d="M340.499,94.135l-.237,.552c-.735-.502-1.476-.937-2.225-1.304l.184-.511c.199,.087,.525,.248,.977,.483,.452,.24,.885,.499,1.301,.78Zm3.282-.224c-.403,1.117-.976,1.933-1.717,2.448-.74,.516-1.911,.626-3.509,.331l-.162-.706c1.452,.315,2.55,.225,3.296-.267,.621-.406,1.121-1.154,1.502-2.245l.591,.439Zm-2.598-1.325l-.237,.558c-.367-.251-.783-.505-1.248-.761-.448-.248-.802-.429-1.063-.544l.197-.515c.297,.119,.649,.284,1.057,.496,.487,.252,.919,.507,1.295,.765Zm2.165,.362l-.501,.116c-.175-.504-.377-.981-.61-1.432l.46-.106c.251,.433,.468,.907,.651,1.422Zm.911,.181l-.514,.106c-.165-.524-.36-.991-.583-1.4l.46-.119c.18,.314,.393,.785,.637,1.412Z"/>
        <path class="cls-51" d="M350.951,95.616l-1.451-.341-.028,4.021-.672-.158,.026-3.808c-.298,.594-.764,1.156-1.399,1.688-.563,.474-1.182,.862-1.855,1.167l-.39-.619c.808-.38,1.471-.812,1.99-1.295,.487-.456,.837-.887,1.049-1.296l-2.916-.685,.004-.627,3.523,.828,.008-1.16,.672,.158-.008,1.16,1.451,.341-.004,.627Z"/>
        <path class="cls-51" d="M355.241,96.231l-.309,.488c-.411-.337-.803-.634-1.175-.89-.252-.175-.648-.411-1.188-.707l.284-.554c.801,.424,1.597,.979,2.388,1.663Zm2.917,.545c-.359,1.189-.961,2.072-1.805,2.648-.822,.563-1.986,.762-3.491,.595l-.182-.698c1.439,.174,2.558-.037,3.358-.633,.639-.477,1.14-1.262,1.503-2.352l.617,.439Z"/>
      </g>
      <path class="cls-42" d="M316.252,94.788l.058-1.021c.844,.053,.496,.021,.861-.097,.464-.132,.792-.46,.985-.984l1.649,.211-.482,8.41-1.941-.248,.341-5.96-1.473-.31Z"/>
      <polygon class="cls-22" points="378.539 85.087 378.539 80.672 367.021 85.087 357.492 132.732 368.728 125.24 378.539 90.359 378.539 85.087"/>
      <polygon class="cls-27" points="335.258 66.876 315.565 73.653 367.021 85.087 378.539 80.672 378.539 78.67 378.539 78.67 335.258 66.876"/>
      <path class="cls-45" d="M338.037,73.653s-4.089,2.329-22.472,0l19.693-6.777s11.208,3.054,2.779,6.777Z"/>
    </g>
  </g>
  <g>
    <g>
      <path class="cls-48" d="M.509,.511V135.561c11.599,6.215,24.514,10.287,38.217,11.708h21.782c52.339-5.463,93.142-49.716,93.142-103.501,0-15.438-3.378-30.082-9.41-43.257H.509Z"/>
      <g class="cls-66">
        <g>
          <path class="cls-26" d="M.742,108.036s15.835-41.389,60.932-52.587c56.101-13.931,138.195,3.023,138.195,3.023l-104.165,90.985-95.195-.794,.233-40.627Z"/>
          <path class="cls-28" d="M42.66,147.269s24.183-53.344,92.919-44.99l-35.215,44.99H42.66Z"/>
          <path class="cls-17" d="M75.977,1.187s5.295,11.636,7.634,31.801c0,0,4.055,5.36,14.79,4.883s14.237-6.804,14.237-6.804c0,0,1.003-11.218,.659-29.879h-37.32Z"/>
          <path class="cls-16" d="M1.037,1.07L21.817,26.215S12.044,46.935,4.411,48.844l-3.365-1.651-.008-46.122Z"/>
          <path class="cls-58" d="M83.372,32.987s4.196,4.883,13.548,4.644c9.353-.239,11.495-2.452,15.284-5.24l-.92,15.259s7.359,2.147,18.968,10.973c6.189,4.705,21.509,9.662,21.509,9.662l2.266,1.133s5.069,3.698-3.757,3.459-18.244-4.951-18.244-4.951c0,0,3.588,3.817,17.662,7.157,0,0,7.38,9.398-3.355,6.535s-19.443-6.535-19.443-6.535c0,0,10.285,5.779,18.914,10.019,6.306,3.098,5.121,6.382,5.121,6.382,0,0-3.445,4.302-9.17,1.678-5.725-2.624-13.041-5.7-27.367-13.506-1.073-.585-5-1.949-3.099,1.152,1.901,3.101,6.141,11.212,12.402,15.983,1.365,1.04,3.106,3.817,0,4.055s-8.354,.014-16.312-7.395c-4.774-4.445-9.555-14.313-10.46-15.983s-3.921-3.817-3.248,.239,1.254,15.267-4.592,15.267c-2.144,0-3.081,1.67-2.844-2.386s-1.195-16.038-2.865-19.112c-1.67-3.074-2.832-6.769-.954-10.773,2.319-4.944,.954-27.718,.954-27.718Z"/>
          <path class="cls-31" d="M4.411,48.844s0-17.778,17.653-23.14c0,0,8.826,8.349,12.166,9.065s17.414-.477,23.855,2.505c6.441,2.982,9.781,7.514,9.781,7.514,0,0,1.908,2.386,1.908,9.065,0,3.824,3.578,7.996,3.578,7.996,0,0-.239,4.829-4.533,2.234s-11.689-11.864-11.689-11.864c0,0,9.542,11.955,11.451,14.428s9.542,11.62,9.542,13.01,.633,4.17-3.578,3.299c-6.918-1.431-22.424-17.47-22.424-17.47l12.012,10.086s-.561,8.815-9.149,6.668c0,0-.477,4.294-7.872,3.578,0,0-4.533,4.055-9.304,3.101s-14.075-10.258-14.075-10.258c0,0-5.01-3.578-7.157-12.016-1.294-5.086-2.624-11.84-2.624-11.84l-9.542-5.964Z"/>
          <path class="cls-38" d="M64.006,76.47s5.764,3.984,9.033,5.831c2.937,1.66,4.13,.178,4.13,.178l1.053,4.401-2.485,1.802,.239,5.01,1.431,5.486,3.791,10.928-1.883,.762-4.294-11.69-3.101-4.771-7.916-17.937Z"/>
          <polygon class="cls-47" points="39.359 24.034 36.749 11.765 32.187 12.972 37.808 25.585 39.359 24.034"/>
          <path class="cls-24" d="M55.461,54.569s3.817-.477,7.157-3.578l8.588,19.323s-3.801-5.761-7.872-9.661c-3.442-3.298-7.872-6.083-7.872-6.083Z"/>
          <polygon class="cls-30" points="1.037 1.07 27.12 1.059 36.328 24.653 23.495 31.066 1.037 1.07"/>
          <path class="cls-25" d="M48.066,46.935s5.01,.716,8.826-1.67,4.533-5.321,4.533-5.321c0,0,2.624,6.037,1.193,11.046s-7.157,3.578-7.157,3.578c0,0-5.248-4.294-7.395-7.634Z"/>
          <path class="cls-23" d="M23.495,31.066l21.231-10.61s4.543-2.792,8.043,0c2.692,2.147,4.362,7.384,5.077,10.61,.716,3.226,3.578,8.879,3.578,8.879,0,0-3.101,8.184-13.359,6.991l-4.294-8.588-13.598,7.395-6.679-14.677Z"/>
          <ellipse class="cls-49" cx="26.042" cy="39.204" rx="4.413" ry="7.745" transform="translate(-16.113 18.273) rotate(-30)"/>
          <path class="cls-19" d="M33.222,1.037l3.945,10.98s-2.058,2.863-5.175,1.525L27.12,1.059l6.102-.022Z"/>
        </g>
      </g>
    </g>
    <path class="cls-10" d="M.509,135.561c14.619,7.833,31.324,12.278,49.07,12.278,57.477,0,104.071-46.594,104.071-104.071,0-15.438-3.378-30.082-9.41-43.257"/>
    <path class="cls-29" d="M98.858,35.299c9.347,.061,11.971-1.251,14.006-6.261l-.905,7.42s-1.607,4.15-12.581,4.03-15.897-5.372-15.897-5.372l-.364-5.96s7.093,6.086,15.74,6.142Z"/>
    <path class="cls-55" d="M47.112,85.819s-8.564-4.777-12.262-7.878c0,0,4.339,10.733,6.131,10.952s6.131-3.074,6.131-3.074Z"/>
    <path class="cls-62" d="M54.984,82.173s-10.305-5.896-14.003-8.997c0,0,0,9.014,7.872,12.071,4.737,1.84,6.131-3.074,6.131-3.074Z"/>
    <path class="cls-56" d="M63.93,76.646s-8.656-7.777-15.947-13.256c0,0,3.615,10.598,9.816,16.33,4.723,4.366,6.131-3.074,6.131-3.074Z"/>
    <path class="cls-63" d="M7.473,50.757l-4.652-2.694S.283,29.11,18.521,24.422l3.456,4.616s-13.341,.966-14.504,21.72Z"/>
    <g>
      <path class="cls-50" d="M15.546,123.054l-.126-.841,1.429,.098c.154,.015,.266,.112,.266,.252,0,.112-.084,.211-.28,.351v8.867c3.39-.631,6.471-2.914,8.236-6.094l.392,.196c-.771,2.199-2.003,3.852-3.838,5.154-1.639,1.191-4.188,2.172-6.08,2.326v-10.31Z"/>
      <path class="cls-50" d="M39.281,128.054l-11.696,.421v-1.472l11.696,.435v.616Z"/>
      <path class="cls-50" d="M49.051,123.054l-.126-.854,1.358,.098c.154,0,.252,.112,.252,.238s-.069,.224-.266,.364v2.451h2.549l.561-.112v.868l-.561-.111h-2.549v.798c-.028,3.152-.49,4.497-1.877,5.562-.925,.714-2.214,1.232-3.754,1.499l-.112-.448c1.4-.421,2.563-1.093,3.348-1.962,.812-.868,1.148-2.199,1.177-4.58v-.868h-3.908v3.81h-1.219v-3.81h-2.269l-.561,.111v-.868l.561,.112h2.269v-2.213l-.126-.854,1.358,.098c.154,.014,.267,.112,.267,.238s-.07,.224-.28,.364v2.367h3.908v-2.297Zm1.736-1.695c.715,.322,1.177,.841,1.485,1.667l-.896,.392c-.21-.756-.448-1.33-.812-1.904l.224-.154Zm2.241,1.779c-.266-.785-.532-1.303-.91-1.766l.21-.168c.742,.28,1.205,.715,1.597,1.471l-.896,.463Z"/>
      <path class="cls-50" d="M67.282,128.054l-11.696,.421v-1.472l11.696,.435v.616Z"/>
      <path class="cls-50" d="M71.924,125.322c1.526,.294,2.956,.757,4.286,1.373,.547-1.316,.854-2.409,1.163-3.979l.056-.784,1.457,.378c.154,.042,.238,.126,.238,.238,0,.141-.099,.225-.351,.309-.532,2.157-.812,3.067-1.4,4.412,1.316,.742,2.269,1.457,3.277,2.451l-.938,1.121c-.952-1.009-1.793-1.737-2.886-2.479-1.555,2.802-3.81,4.482-7.031,5.253l-.154-.406c2.802-1.106,4.86-2.97,6.121-5.533-1.372-.812-2.577-1.387-4.006-1.947l.168-.406Z"/>
      <path class="cls-50" d="M90.743,128.53c1.961,1.106,3.572,2.396,4.776,3.838l-1.246,1.009c-1.106-1.653-2.508-3.25-4.006-4.566-1.695,2.073-3.965,3.571-6.752,4.468l-.196-.434c4.048-1.934,6.934-5.141,8.461-9.441h-6.626l-.616,.126v-.896l.616,.126h8.293c-.673,2.186-1.598,3.979-2.886,5.674l.182,.098Z"/>
    </g>
  </g>
  <g>
    <path class="cls-32" d="M205.927,115.995s2.79,10.075,9.145,17.825c0,0-6.51,7.44-21.545,7.44-15.035,0-19.53-7.905-19.53-7.905,0,0,7.101-6.768,7.891-18.032l24.04,.672Z"/>
    <path class="cls-65" d="M249.948,145.756s-23.8-4.495-32.705-10.695c0,0-9.455,9.61-23.328,8.68-13.873-.93-22.088-8.68-22.088-8.68,0,0-20.46,8.835-36.271,10.694l8.031,74.958h100.39l5.971-74.956Z"/>
    <path class="cls-64" d="M173.799,131.34l-5.073,3.565s5.89,10.849,24.645,10.849,24.335-8.059,25.885-9.299l-5.58-4.34s-5.115,6.509-19.685,6.432-20.193-7.207-20.193-7.207Z"/>
    <path class="cls-39" d="M188.89,138.209s8.096,.911,11.947-.163l3.522,82.666h-16.74l1.272-82.503Z"/>
    <path class="cls-36" d="M167.233,72.791s-1.033,10.189,0,18.094c0,0-3.462-2.236-4.702-.886s-1.55,8.481,6.355,12.046c0,0,2.48,25.545,21.545,25.545s24.49-23.805,24.645-26.302c0,0,9.216-3.902,8.37-10.248-.62-4.65-6.2,.79-6.2,.79l.465-10.245s-1.808-19.22-19.272-19.918c-17.464-.698-29.14,1.709-31.207,11.123Z"/>
    <path class="cls-57" d="M166.406,78.428c-.27,.434-5.58-7.849-11.315-11.879,0,0,4.237-1.705,9.868,2.17,0,0-2.738-7.883-7.078-10.916,0,0,18.6-10.474,36.116-9.699,17.515,.775,17.257,13.563,17.257,13.563,0,0,10.953,.077,12.349,11.857s-6.975,19.22-6.975,19.22l-.775-10.918s-13.349-6.776-16.12-16.207c0,0-1.343,2.945-1.292,8.215,0,0-4.133-4.683-3.358-9.162,0,0-19.685-.717-28.675,13.755Z"/>
    <path class="cls-52" d="M171.479,81.585s3.969-3.523,10.221-3.157c0,0-4.288-4.098-6.768-3.183s-3.452,6.34-3.452,6.34Z"/>
    <path class="cls-52" d="M202.057,78.348s8.04-1.775,8.505,2.875c0,0,1.002-4.547-1.323-5.063-2.271-.505-3.152-.118-7.182,2.189Z"/>
    <path class="cls-8" d="M190.742,95.225s-.155,5.27-3.72,7.75l3.72,3.565"/>
    <circle class="cls-43" cx="179.023" cy="93.181" r="9.238"/>
    <circle class="cls-2" cx="179.023" cy="93.181" r="9.238"/>
    <line class="cls-3" x1="179.023" y1="89.999" x2="179.023" y2="97.395"/>
    <circle class="cls-43" cx="203.824" cy="93.181" r="9.238"/>
    <circle class="cls-2" cx="203.824" cy="93.181" r="9.238"/>
    <line class="cls-3" x1="203.824" y1="89.999" x2="203.824" y2="97.395"/>
    <line class="cls-2" x1="188.192" y1="94.296" x2="194.585" y2="94.296"/>
    <path class="cls-9" d="M182.449,113.438s6.976,5.503,18.6,.388"/>
    <path class="cls-60" d="M296.549,182.952s16.986-10.113,22.892-17.903c1.195-1.576,2.417-2.824,2.417-2.824,0,0,9.92,2.126,16.512-1.921,0,0,3.447,4.316-6.656,7.953,0,0,17.262,.921,21.568,12.185,0,0-29.362-3.931-41.441,10.194l-15.292-7.685Z"/>
    <path class="cls-54" d="M348.471,179.947s-4.524-4.946-15.007-4.127c0,0-7.268-8.661-13.528-1.054-6.262,7.607-1.83,10.755-1.83,10.755,0,0,17.256-7.344,30.365-5.574Z"/>
    <path class="cls-59" d="M292.994,185.029s-8.639,6.333-12.422,10.377l-30.624-49.65-3.69,40.325,29.594,34.285s21.953-14.495,30.071-23.473c0,0-9.053-4.772-12.928-11.864Z"/>
    <path class="cls-15" d="M304.862,177.477s4.343,8.52,10.689,9.766c0,0-6.244,5.885-10.016,10.253,0,0-10.933-3.774-13.92-11.648,0,0,9.287-5.411,13.248-8.371Z"/>
    <path class="cls-46" d="M299.946,187.709c-.899,.791-2.27,.703-3.061-.197s-.703-2.269,.197-3.06,2.269-.703,3.06,.196,.704,2.269-.196,3.061Z"/>
    <path class="cls-12" d="M89.695,182.952s-16.986-10.113-22.892-17.903c-1.195-1.576-2.417-2.824-2.417-2.824,0,0-9.92,2.126-16.512-1.921,0,0-3.447,4.316,6.656,7.953,0,0-17.262,.921-21.568,12.185,0,0,29.362-3.931,41.441,10.194l15.292-7.685Z"/>
    <path class="cls-40" d="M37.773,179.947s4.524-4.946,15.007-4.127c0,0,7.268-8.661,13.528-1.054,6.262,7.607,1.83,10.755,1.83,10.755,0,0-17.256-7.344-30.365-5.574Z"/>
    <path class="cls-13" d="M93.25,185.029s8.639,6.333,12.422,10.377l30.624-49.65,3.69,40.325-29.594,34.285s-21.953-14.495-30.071-23.473c0,0,9.053-4.772,12.928-11.864Z"/>
    <path class="cls-14" d="M81.382,177.477s-4.343,8.52-10.689,9.766c0,0,6.244,5.885,10.016,10.253,0,0,10.933-3.774,13.92-11.648,0,0-9.287-5.411-13.248-8.371Z"/>
    <path class="cls-46" d="M86.297,187.709c.899,.791,2.27,.703,3.061-.197s.703-2.269-.197-3.06-2.269-.703-3.06,.196-.704,2.269,.196,3.061Z"/>
  </g>
  <rect class="cls-6" x=".939" y=".708" width="377.994" height="220.004"/>
</svg>