<?xml version="1.0" encoding="UTF-8"?>
<svg id="_レイヤー_1" data-name="レイヤー 1" xmlns="http://www.w3.org/2000/svg" width="145.185mm" height="83.721mm" xmlns:xlink="http://www.w3.org/1999/xlink" viewBox="0 0 411.547 237.32">
  <defs>
    <style>
      .cls-1 {
        opacity: .23;
      }

      .cls-1, .cls-2, .cls-3, .cls-4, .cls-5, .cls-6, .cls-7, .cls-8, .cls-9 {
        fill: none;
      }

      .cls-10 {
        fill: url(#_新規グラデーションスウォッチ_9-2);
      }

      .cls-10, .cls-11, .cls-12, .cls-13, .cls-14 {
        opacity: .091;
      }

      .cls-2, .cls-15, .cls-16, .cls-3, .cls-17, .cls-7, .cls-9 {
        stroke-linecap: round;
      }

      .cls-2, .cls-15, .cls-3, .cls-17, .cls-7, .cls-9 {
        stroke-linejoin: round;
      }

      .cls-2, .cls-15, .cls-17, .cls-7 {
        stroke: #c87a74;
      }

      .cls-2, .cls-9 {
        stroke-width: .558px;
      }

      .cls-18 {
        fill: url(#_名称未設定グラデーション_138-2);
      }

      .cls-18, .cls-19, .cls-16, .cls-5, .cls-6 {
        stroke-miterlimit: 10;
      }

      .cls-18, .cls-19, .cls-5 {
        stroke: #7e4f22;
        stroke-width: 1.465px;
      }

      .cls-19 {
        fill: url(#_名称未設定グラデーション_138);
      }

      .cls-20 {
        fill: url(#_新規グラデーションスウォッチ_9-10);
      }

      .cls-20, .cls-21, .cls-22, .cls-23, .cls-24 {
        opacity: .818;
      }

      .cls-21 {
        fill: url(#_新規グラデーションスウォッチ_9-34);
      }

      .cls-22 {
        fill: url(#_新規グラデーションスウォッチ_9-22);
      }

      .cls-23 {
        fill: url(#_新規グラデーションスウォッチ_9-58);
      }

      .cls-24 {
        fill: url(#_新規グラデーションスウォッチ_9-46);
      }

      .cls-25 {
        fill: url(#_新規グラデーションスウォッチ_9-35);
      }

      .cls-25, .cls-26, .cls-27, .cls-28, .cls-29 {
        opacity: .909;
      }

      .cls-26 {
        fill: url(#_新規グラデーションスウォッチ_9-23);
      }

      .cls-27 {
        fill: url(#_新規グラデーションスウォッチ_9-59);
      }

      .cls-28 {
        fill: url(#_新規グラデーションスウォッチ_9-11);
      }

      .cls-29 {
        fill: url(#_新規グラデーションスウォッチ_9-47);
      }

      .cls-30 {
        fill: url(#_新規グラデーションスウォッチ_9-31);
      }

      .cls-30, .cls-31, .cls-32, .cls-33, .cls-34 {
        opacity: .545;
      }

      .cls-31 {
        fill: url(#_新規グラデーションスウォッチ_9-55);
      }

      .cls-32 {
        fill: url(#_新規グラデーションスウォッチ_9-43);
      }

      .cls-33 {
        fill: url(#_新規グラデーションスウォッチ_9-19);
      }

      .cls-35 {
        fill: url(#_新規グラデーションスウォッチ_9-45);
      }

      .cls-35, .cls-36, .cls-37, .cls-38, .cls-39 {
        opacity: .727;
      }

      .cls-36 {
        fill: url(#_新規グラデーションスウォッチ_9-33);
      }

      .cls-37 {
        fill: url(#_新規グラデーションスウォッチ_9-21);
      }

      .cls-38 {
        fill: url(#_新規グラデーションスウォッチ_9-57);
      }

      .cls-40 {
        fill: url(#_新規グラデーションスウォッチ_9-54);
      }

      .cls-40, .cls-41, .cls-42, .cls-43, .cls-44 {
        opacity: .455;
      }

      .cls-41 {
        fill: url(#_新規グラデーションスウォッチ_9-18);
      }

      .cls-42 {
        fill: url(#_新規グラデーションスウォッチ_9-30);
      }

      .cls-43 {
        fill: url(#_新規グラデーションスウォッチ_9-42);
      }

      .cls-45 {
        fill: url(#_新規グラデーションスウォッチ_9-20);
      }

      .cls-45, .cls-46, .cls-47, .cls-48, .cls-49 {
        opacity: .636;
      }

      .cls-46 {
        fill: url(#_新規グラデーションスウォッチ_9-56);
      }

      .cls-47 {
        fill: url(#_新規グラデーションスウォッチ_9-32);
      }

      .cls-48 {
        fill: url(#_新規グラデーションスウォッチ_9-44);
      }

      .cls-50 {
        fill: url(#_新規グラデーションスウォッチ_9-41);
      }

      .cls-50, .cls-51, .cls-52, .cls-53, .cls-54 {
        opacity: .364;
      }

      .cls-51 {
        fill: url(#_新規グラデーションスウォッチ_9-29);
      }

      .cls-52 {
        fill: url(#_新規グラデーションスウォッチ_9-17);
      }

      .cls-53 {
        fill: url(#_新規グラデーションスウォッチ_9-53);
      }

      .cls-55 {
        fill: url(#_新規グラデーションスウォッチ_9-49);
      }

      .cls-55, .cls-56, .cls-57, .cls-58, .cls-59 {
        opacity: 0;
      }

      .cls-56 {
        fill: url(#_新規グラデーションスウォッチ_9-13);
      }

      .cls-57 {
        fill: url(#_新規グラデーションスウォッチ_9-37);
      }

      .cls-58 {
        fill: url(#_新規グラデーションスウォッチ_9-25);
      }

      .cls-60 {
        fill: #89c6cb;
      }

      .cls-61 {
        fill: #da3b2b;
      }

      .cls-62, .cls-16 {
        fill: #22ac38;
      }

      .cls-15 {
        fill: #e89786;
        stroke-width: 1.006px;
      }

      .cls-63 {
        fill: url(#_名称未設定グラデーション_49-2);
      }

      .cls-64 {
        fill: url(#_新規グラデーションスウォッチ_9-48);
      }

      .cls-65 {
        fill: url(#_新規グラデーションスウォッチ_9-24);
      }

      .cls-66 {
        fill: url(#_新規グラデーションスウォッチ_9-36);
      }

      .cls-67 {
        fill: url(#_新規グラデーションスウォッチ_9-12);
      }

      .cls-68 {
        fill: url(#_新規グラデーションスウォッチ_9-60);
      }

      .cls-59 {
        fill: url(#_新規グラデーションスウォッチ_9);
      }

      .cls-69 {
        fill: url(#_新規グラデーションスウォッチ_9-16);
      }

      .cls-69, .cls-70, .cls-71, .cls-72, .cls-73 {
        opacity: .273;
      }

      .cls-70 {
        fill: url(#_新規グラデーションスウォッチ_9-28);
      }

      .cls-71 {
        fill: url(#_新規グラデーションスウォッチ_9-52);
      }

      .cls-72 {
        fill: url(#_新規グラデーションスウォッチ_9-40);
      }

      .cls-16 {
        stroke: #8d5f33;
        stroke-width: 1.2px;
      }

      .cls-74 {
        fill: url(#_新規グラデーションスウォッチ_9-27);
      }

      .cls-74, .cls-75, .cls-76, .cls-77, .cls-78 {
        opacity: .182;
      }

      .cls-75 {
        fill: url(#_新規グラデーションスウォッチ_9-15);
      }

      .cls-76 {
        fill: url(#_新規グラデーションスウォッチ_9-39);
      }

      .cls-77 {
        fill: url(#_新規グラデーションスウォッチ_9-51);
      }

      .cls-3 {
        stroke-width: .493px;
      }

      .cls-3, .cls-9 {
        stroke: #fff;
      }

      .cls-4 {
        opacity: .11;
      }

      .cls-39 {
        fill: url(#_新規グラデーションスウォッチ_9-9);
      }

      .cls-34 {
        fill: url(#_新規グラデーションスウォッチ_9-7);
      }

      .cls-49 {
        fill: url(#_新規グラデーションスウォッチ_9-8);
      }

      .cls-54 {
        fill: url(#_新規グラデーションスウォッチ_9-5);
      }

      .cls-44 {
        fill: url(#_新規グラデーションスウォッチ_9-6);
      }

      .cls-73 {
        fill: url(#_新規グラデーションスウォッチ_9-4);
      }

      .cls-78 {
        fill: url(#_新規グラデーションスウォッチ_9-3);
      }

      .cls-79 {
        fill: url(#_名称未設定グラデーション_49);
      }

      .cls-6 {
        stroke: #231815;
      }

      .cls-17 {
        fill: #e58982;
        stroke-width: .837px;
      }

      .cls-11 {
        fill: url(#_新規グラデーションスウォッチ_9-14);
      }

      .cls-12 {
        fill: url(#_新規グラデーションスウォッチ_9-26);
      }

      .cls-13 {
        fill: url(#_新規グラデーションスウォッチ_9-38);
      }

      .cls-14 {
        fill: url(#_新規グラデーションスウォッチ_9-50);
      }

      .cls-7 {
        opacity: .7;
        stroke-width: .74px;
      }

      .cls-8 {
        opacity: .15;
      }
    </style>
    <linearGradient id="_名称未設定グラデーション_138" data-name="名称未設定グラデーション 138" x1="131.703" y1="141.063" x2="276.566" y2="141.063" gradientUnits="userSpaceOnUse">
      <stop offset="0" stop-color="#c65a45"/>
      <stop offset=".504" stop-color="#e6bfa0"/>
      <stop offset="1" stop-color="#c65a45"/>
    </linearGradient>
    <linearGradient id="_名称未設定グラデーション_138-2" data-name="名称未設定グラデーション 138" x1="106.078" y1="66.699" x2="300.816" y2="66.699" xlink:href="#_名称未設定グラデーション_138"/>
    <linearGradient id="_新規グラデーションスウォッチ_9" data-name="新規グラデーションスウォッチ 9" x1="201.321" y1="73.618" x2="210.76" y2="73.618" gradientUnits="userSpaceOnUse">
      <stop offset="0" stop-color="#c0725a"/>
      <stop offset="1" stop-color="#c0725a"/>
    </linearGradient>
    <linearGradient id="_新規グラデーションスウォッチ_9-2" data-name="新規グラデーションスウォッチ 9" x1="201.544" x2="210.537" xlink:href="#_新規グラデーションスウォッチ_9"/>
    <linearGradient id="_新規グラデーションスウォッチ_9-3" data-name="新規グラデーションスウォッチ 9" x1="201.767" x2="210.314" xlink:href="#_新規グラデーションスウォッチ_9"/>
    <linearGradient id="_新規グラデーションスウォッチ_9-4" data-name="新規グラデーションスウォッチ 9" x1="201.99" x2="210.09" xlink:href="#_新規グラデーションスウォッチ_9"/>
    <linearGradient id="_新規グラデーションスウォッチ_9-5" data-name="新規グラデーションスウォッチ 9" x1="202.213" x2="209.867" xlink:href="#_新規グラデーションスウォッチ_9"/>
    <linearGradient id="_新規グラデーションスウォッチ_9-6" data-name="新規グラデーションスウォッチ 9" x1="202.436" x2="209.644" xlink:href="#_新規グラデーションスウォッチ_9"/>
    <linearGradient id="_新規グラデーションスウォッチ_9-7" data-name="新規グラデーションスウォッチ 9" x1="202.66" y1="73.618" x2="209.421" y2="73.618" xlink:href="#_新規グラデーションスウォッチ_9"/>
    <linearGradient id="_新規グラデーションスウォッチ_9-8" data-name="新規グラデーションスウォッチ 9" x1="202.883" x2="209.198" xlink:href="#_新規グラデーションスウォッチ_9"/>
    <linearGradient id="_新規グラデーションスウォッチ_9-9" data-name="新規グラデーションスウォッチ 9" x1="203.106" x2="208.975" xlink:href="#_新規グラデーションスウォッチ_9"/>
    <linearGradient id="_新規グラデーションスウォッチ_9-10" data-name="新規グラデーションスウォッチ 9" x1="203.329" x2="208.752" xlink:href="#_新規グラデーションスウォッチ_9"/>
    <linearGradient id="_新規グラデーションスウォッチ_9-11" data-name="新規グラデーションスウォッチ 9" x1="203.552" x2="208.529" xlink:href="#_新規グラデーションスウォッチ_9"/>
    <linearGradient id="_新規グラデーションスウォッチ_9-12" data-name="新規グラデーションスウォッチ 9" x1="203.775" x2="208.306" xlink:href="#_新規グラデーションスウォッチ_9"/>
    <linearGradient id="_新規グラデーションスウォッチ_9-13" data-name="新規グラデーションスウォッチ 9" x1="215.103" y1="72.618" x2="224.542" y2="72.618" xlink:href="#_新規グラデーションスウォッチ_9"/>
    <linearGradient id="_新規グラデーションスウォッチ_9-14" data-name="新規グラデーションスウォッチ 9" x1="215.327" y1="72.618" x2="224.319" y2="72.618" xlink:href="#_新規グラデーションスウォッチ_9"/>
    <linearGradient id="_新規グラデーションスウォッチ_9-15" data-name="新規グラデーションスウォッチ 9" x1="215.55" y1="72.618" x2="224.096" y2="72.618" xlink:href="#_新規グラデーションスウォッチ_9"/>
    <linearGradient id="_新規グラデーションスウォッチ_9-16" data-name="新規グラデーションスウォッチ 9" x1="215.773" y1="72.618" x2="223.873" y2="72.618" xlink:href="#_新規グラデーションスウォッチ_9"/>
    <linearGradient id="_新規グラデーションスウォッチ_9-17" data-name="新規グラデーションスウォッチ 9" x1="215.996" y1="72.618" x2="223.65" y2="72.618" xlink:href="#_新規グラデーションスウォッチ_9"/>
    <linearGradient id="_新規グラデーションスウォッチ_9-18" data-name="新規グラデーションスウォッチ 9" x1="216.219" y1="72.618" x2="223.427" y2="72.618" xlink:href="#_新規グラデーションスウォッチ_9"/>
    <linearGradient id="_新規グラデーションスウォッチ_9-19" data-name="新規グラデーションスウォッチ 9" x1="216.442" y1="72.618" x2="223.204" y2="72.618" xlink:href="#_新規グラデーションスウォッチ_9"/>
    <linearGradient id="_新規グラデーションスウォッチ_9-20" data-name="新規グラデーションスウォッチ 9" x1="216.665" y1="72.618" x2="222.981" y2="72.618" xlink:href="#_新規グラデーションスウォッチ_9"/>
    <linearGradient id="_新規グラデーションスウォッチ_9-21" data-name="新規グラデーションスウォッチ 9" x1="216.888" y1="72.618" x2="222.758" y2="72.618" xlink:href="#_新規グラデーションスウォッチ_9"/>
    <linearGradient id="_新規グラデーションスウォッチ_9-22" data-name="新規グラデーションスウォッチ 9" x1="217.111" y1="72.618" x2="222.534" y2="72.618" xlink:href="#_新規グラデーションスウォッチ_9"/>
    <linearGradient id="_新規グラデーションスウォッチ_9-23" data-name="新規グラデーションスウォッチ 9" x1="217.334" y1="72.618" x2="222.311" y2="72.618" xlink:href="#_新規グラデーションスウォッチ_9"/>
    <linearGradient id="_新規グラデーションスウォッチ_9-24" data-name="新規グラデーションスウォッチ 9" x1="217.558" y1="72.618" x2="222.088" y2="72.618" xlink:href="#_新規グラデーションスウォッチ_9"/>
    <linearGradient id="_新規グラデーションスウォッチ_9-25" data-name="新規グラデーションスウォッチ 9" x1="232.281" y1="72.229" x2="241.72" y2="72.229" gradientTransform="translate(309.484 -164.383) rotate(90)" xlink:href="#_新規グラデーションスウォッチ_9"/>
    <linearGradient id="_新規グラデーションスウォッチ_9-26" data-name="新規グラデーションスウォッチ 9" x1="232.504" y1="72.229" x2="241.497" y2="72.229" gradientTransform="translate(309.484 -164.383) rotate(90)" xlink:href="#_新規グラデーションスウォッチ_9"/>
    <linearGradient id="_新規グラデーションスウォッチ_9-27" data-name="新規グラデーションスウォッチ 9" x1="232.727" y1="72.229" x2="241.274" y2="72.229" gradientTransform="translate(309.484 -164.383) rotate(90)" xlink:href="#_新規グラデーションスウォッチ_9"/>
    <linearGradient id="_新規グラデーションスウォッチ_9-28" data-name="新規グラデーションスウォッチ 9" x1="232.95" y1="72.229" x2="241.051" y2="72.229" gradientTransform="translate(309.484 -164.383) rotate(90)" xlink:href="#_新規グラデーションスウォッチ_9"/>
    <linearGradient id="_新規グラデーションスウォッチ_9-29" data-name="新規グラデーションスウォッチ 9" x1="233.173" y1="72.229" x2="240.827" y2="72.229" gradientTransform="translate(309.484 -164.383) rotate(90)" xlink:href="#_新規グラデーションスウォッチ_9"/>
    <linearGradient id="_新規グラデーションスウォッチ_9-30" data-name="新規グラデーションスウォッチ 9" x1="233.396" y1="72.229" x2="240.604" y2="72.229" gradientTransform="translate(309.484 -164.383) rotate(90)" xlink:href="#_新規グラデーションスウォッチ_9"/>
    <linearGradient id="_新規グラデーションスウォッチ_9-31" data-name="新規グラデーションスウォッチ 9" x1="233.62" y1="72.229" x2="240.381" y2="72.229" gradientTransform="translate(309.484 -164.383) rotate(90)" xlink:href="#_新規グラデーションスウォッチ_9"/>
    <linearGradient id="_新規グラデーションスウォッチ_9-32" data-name="新規グラデーションスウォッチ 9" x1="233.843" y1="72.229" x2="240.158" y2="72.229" gradientTransform="translate(309.484 -164.383) rotate(90)" xlink:href="#_新規グラデーションスウォッチ_9"/>
    <linearGradient id="_新規グラデーションスウォッチ_9-33" data-name="新規グラデーションスウォッチ 9" x1="234.066" y1="72.229" x2="239.935" y2="72.229" gradientTransform="translate(309.484 -164.383) rotate(90)" xlink:href="#_新規グラデーションスウォッチ_9"/>
    <linearGradient id="_新規グラデーションスウォッチ_9-34" data-name="新規グラデーションスウォッチ 9" x1="234.289" y1="72.229" x2="239.712" y2="72.229" gradientTransform="translate(309.484 -164.383) rotate(90)" xlink:href="#_新規グラデーションスウォッチ_9"/>
    <linearGradient id="_新規グラデーションスウォッチ_9-35" data-name="新規グラデーションスウォッチ 9" x1="234.512" y1="72.229" x2="239.489" y2="72.229" gradientTransform="translate(309.484 -164.383) rotate(90)" xlink:href="#_新規グラデーションスウォッチ_9"/>
    <linearGradient id="_新規グラデーションスウォッチ_9-36" data-name="新規グラデーションスウォッチ 9" x1="234.735" y1="72.229" x2="239.266" y2="72.229" gradientTransform="translate(309.484 -164.383) rotate(90)" xlink:href="#_新規グラデーションスウォッチ_9"/>
    <linearGradient id="_新規グラデーションスウォッチ_9-37" data-name="新規グラデーションスウォッチ 9" x1="187.24" y1="72.618" x2="196.679" y2="72.618" xlink:href="#_新規グラデーションスウォッチ_9"/>
    <linearGradient id="_新規グラデーションスウォッチ_9-38" data-name="新規グラデーションスウォッチ 9" x1="187.463" y1="72.618" x2="196.456" y2="72.618" xlink:href="#_新規グラデーションスウォッチ_9"/>
    <linearGradient id="_新規グラデーションスウォッチ_9-39" data-name="新規グラデーションスウォッチ 9" x1="187.686" y1="72.618" x2="196.233" y2="72.618" xlink:href="#_新規グラデーションスウォッチ_9"/>
    <linearGradient id="_新規グラデーションスウォッチ_9-40" data-name="新規グラデーションスウォッチ 9" x1="187.909" y1="72.618" x2="196.009" y2="72.618" xlink:href="#_新規グラデーションスウォッチ_9"/>
    <linearGradient id="_新規グラデーションスウォッチ_9-41" data-name="新規グラデーションスウォッチ 9" x1="188.132" y1="72.618" x2="195.786" y2="72.618" xlink:href="#_新規グラデーションスウォッチ_9"/>
    <linearGradient id="_新規グラデーションスウォッチ_9-42" data-name="新規グラデーションスウォッチ 9" x1="188.355" y1="72.618" x2="195.563" y2="72.618" xlink:href="#_新規グラデーションスウォッチ_9"/>
    <linearGradient id="_新規グラデーションスウォッチ_9-43" data-name="新規グラデーションスウォッチ 9" x1="188.578" y1="72.618" x2="195.34" y2="72.618" xlink:href="#_新規グラデーションスウォッチ_9"/>
    <linearGradient id="_新規グラデーションスウォッチ_9-44" data-name="新規グラデーションスウォッチ 9" x1="188.802" y1="72.618" x2="195.117" y2="72.618" xlink:href="#_新規グラデーションスウォッチ_9"/>
    <linearGradient id="_新規グラデーションスウォッチ_9-45" data-name="新規グラデーションスウォッチ 9" x1="189.025" y1="72.618" x2="194.894" y2="72.618" xlink:href="#_新規グラデーションスウォッチ_9"/>
    <linearGradient id="_新規グラデーションスウォッチ_9-46" data-name="新規グラデーションスウォッチ 9" x1="189.248" y1="72.618" x2="194.671" y2="72.618" xlink:href="#_新規グラデーションスウォッチ_9"/>
    <linearGradient id="_新規グラデーションスウォッチ_9-47" data-name="新規グラデーションスウォッチ 9" x1="189.471" y1="72.618" x2="194.448" y2="72.618" xlink:href="#_新規グラデーションスウォッチ_9"/>
    <linearGradient id="_新規グラデーションスウォッチ_9-48" data-name="新規グラデーションスウォッチ 9" x1="189.694" y1="72.618" x2="194.225" y2="72.618" xlink:href="#_新規グラデーションスウォッチ_9"/>
    <linearGradient id="_新規グラデーションスウォッチ_9-49" data-name="新規グラデーションスウォッチ 9" x1="172.52" y1="72.299" x2="181.959" y2="72.299" gradientTransform="translate(-.228 .319)" xlink:href="#_新規グラデーションスウォッチ_9"/>
    <linearGradient id="_新規グラデーションスウォッチ_9-50" data-name="新規グラデーションスウォッチ 9" x1="172.743" y1="72.299" x2="181.736" y2="72.299" gradientTransform="translate(-.228 .319)" xlink:href="#_新規グラデーションスウォッチ_9"/>
    <linearGradient id="_新規グラデーションスウォッチ_9-51" data-name="新規グラデーションスウォッチ 9" x1="172.966" y1="72.299" x2="181.513" y2="72.299" gradientTransform="translate(-.228 .319)" xlink:href="#_新規グラデーションスウォッチ_9"/>
    <linearGradient id="_新規グラデーションスウォッチ_9-52" data-name="新規グラデーションスウォッチ 9" x1="173.19" y1="72.299" x2="181.29" y2="72.299" gradientTransform="translate(-.228 .319)" xlink:href="#_新規グラデーションスウォッチ_9"/>
    <linearGradient id="_新規グラデーションスウォッチ_9-53" data-name="新規グラデーションスウォッチ 9" x1="173.413" y1="72.299" x2="181.067" y2="72.299" gradientTransform="translate(-.228 .319)" xlink:href="#_新規グラデーションスウォッチ_9"/>
    <linearGradient id="_新規グラデーションスウォッチ_9-54" data-name="新規グラデーションスウォッチ 9" x1="173.636" y1="72.299" x2="180.844" y2="72.299" gradientTransform="translate(-.228 .319)" xlink:href="#_新規グラデーションスウォッチ_9"/>
    <linearGradient id="_新規グラデーションスウォッチ_9-55" data-name="新規グラデーションスウォッチ 9" x1="173.859" y1="72.299" x2="180.621" y2="72.299" gradientTransform="translate(-.228 .319)" xlink:href="#_新規グラデーションスウォッチ_9"/>
    <linearGradient id="_新規グラデーションスウォッチ_9-56" data-name="新規グラデーションスウォッチ 9" x1="174.082" y1="72.299" x2="180.397" y2="72.299" gradientTransform="translate(-.228 .319)" xlink:href="#_新規グラデーションスウォッチ_9"/>
    <linearGradient id="_新規グラデーションスウォッチ_9-57" data-name="新規グラデーションスウォッチ 9" x1="174.305" y1="72.299" x2="180.174" y2="72.299" gradientTransform="translate(-.228 .319)" xlink:href="#_新規グラデーションスウォッチ_9"/>
    <linearGradient id="_新規グラデーションスウォッチ_9-58" data-name="新規グラデーションスウォッチ 9" x1="174.528" y1="72.299" x2="179.951" y2="72.299" gradientTransform="translate(-.228 .319)" xlink:href="#_新規グラデーションスウォッチ_9"/>
    <linearGradient id="_新規グラデーションスウォッチ_9-59" data-name="新規グラデーションスウォッチ 9" x1="174.751" y1="72.299" x2="179.728" y2="72.299" gradientTransform="translate(-.228 .319)" xlink:href="#_新規グラデーションスウォッチ_9"/>
    <linearGradient id="_新規グラデーションスウォッチ_9-60" data-name="新規グラデーションスウォッチ 9" x1="174.974" y1="72.299" x2="179.505" y2="72.299" gradientTransform="translate(-.228 .319)" xlink:href="#_新規グラデーションスウォッチ_9"/>
    <linearGradient id="_名称未設定グラデーション_49" data-name="名称未設定グラデーション 49" x1="1003.779" y1="203.182" x2="1003.779" y2="0" gradientTransform="translate(1092.025) rotate(-180) scale(1 -1)" gradientUnits="userSpaceOnUse">
      <stop offset="0" stop-color="#e79274"/>
      <stop offset="1" stop-color="#f4e7ce"/>
    </linearGradient>
    <linearGradient id="_名称未設定グラデーション_49-2" data-name="名称未設定グラデーション 49" x1="771.67" y1="204.617" x2="771.67" y2=".024" gradientTransform="translate(-449.909)" xlink:href="#_名称未設定グラデーション_49"/>
  </defs>
  <g id="st2">
    <rect class="cls-60" x=".174" width="411.216" height="237.32"/>
    <g>
      <path class="cls-19" d="m136.396,185.332c.853-.213,34.563-19.841,66.992-19.841s70.832,22.615,70.832,22.615l2.347-94.087s-144.864.213-144.864,1.067,4.694,90.247,4.694,90.247Z"/>
      <path class="cls-18" d="m106.078,1.024c.588,38.433,6.293,119.863,21.891,128.065,20.695,10.881,29.229-8.747,29.229-8.747,0,0-3.236-8.618.396-8.702,2.723-.063,4.932,3.968,5.527,4.827s4.852,8.525,6.608,8.381c1.627-.133,2.473-3.574,3.438-4.657,1.214-1.362,2.476-5.303,4.672-5.823,1.038-.246,2.027.4,3.029,1.939,0,0,1.343,2.601,3.158,2.541,2.4-.08,3.212-2.027,3.686-3.12s1.351-3.223,3.327-3.227c2.24-.004,3.094,2.907,3.254,3.227.16.32,1.068,3.242,3.6,3.334,2.96.107,3.787-2.72,4.107-3.547s1.173-3.048,3.174-3.017,2.921,1.921,3.787,3.284c.552.869,1.334,2.476,2.747,2.534,1.973.08,2.827-2.347,3.147-2.96.32-.613,1.28-2.48,2.987-2.48s2.8,1.2,3.494,2.88c.392.949,1.253,3.494,3.974,3.387,2.72-.107,2.877-1.948,3.014-2.48.293-1.147.853-2.396,2.156-2.503,3.776-.309,4.193,6.523,7.521,7.628,3.749,1.245,9.712.037,10.163.527l1.097-15.528s3.966-6.012,11.578-3.173c22.068,8.232,29.899-57.623,39.978-102.588"/>
      <g class="cls-1">
        <ellipse class="cls-59" cx="206.04" cy="73.618" rx="4.719" ry="42.27"/>
        <ellipse class="cls-10" cx="206.04" cy="73.618" rx="4.496" ry="41.815"/>
        <ellipse class="cls-78" cx="206.04" cy="73.618" rx="4.273" ry="41.359"/>
        <ellipse class="cls-73" cx="206.04" cy="73.618" rx="4.05" ry="40.904"/>
        <ellipse class="cls-54" cx="206.04" cy="73.618" rx="3.827" ry="40.449"/>
        <ellipse class="cls-44" cx="206.04" cy="73.618" rx="3.604" ry="39.994"/>
        <ellipse class="cls-34" cx="206.04" cy="73.618" rx="3.381" ry="39.539"/>
        <ellipse class="cls-49" cx="206.04" cy="73.618" rx="3.158" ry="39.083"/>
        <ellipse class="cls-39" cx="206.04" cy="73.618" rx="2.935" ry="38.628"/>
        <ellipse class="cls-20" cx="206.04" cy="73.618" rx="2.712" ry="38.173"/>
        <ellipse class="cls-28" cx="206.04" cy="73.618" rx="2.488" ry="37.718"/>
        <ellipse class="cls-67" cx="206.04" cy="73.618" rx="2.265" ry="37.263"/>
      </g>
      <g class="cls-1">
        <ellipse class="cls-56" cx="219.823" cy="72.618" rx="4.719" ry="42.27"/>
        <ellipse class="cls-11" cx="219.823" cy="72.618" rx="4.496" ry="41.815"/>
        <ellipse class="cls-75" cx="219.823" cy="72.618" rx="4.273" ry="41.359"/>
        <ellipse class="cls-69" cx="219.823" cy="72.618" rx="4.05" ry="40.904"/>
        <ellipse class="cls-52" cx="219.823" cy="72.618" rx="3.827" ry="40.449"/>
        <ellipse class="cls-41" cx="219.823" cy="72.618" rx="3.604" ry="39.994"/>
        <ellipse class="cls-33" cx="219.823" cy="72.618" rx="3.381" ry="39.539"/>
        <ellipse class="cls-45" cx="219.823" cy="72.618" rx="3.158" ry="39.083"/>
        <ellipse class="cls-37" cx="219.823" cy="72.618" rx="2.935" ry="38.628"/>
        <ellipse class="cls-22" cx="219.823" cy="72.618" rx="2.712" ry="38.173"/>
        <ellipse class="cls-26" cx="219.823" cy="72.618" rx="2.488" ry="37.718"/>
        <ellipse class="cls-65" cx="219.823" cy="72.618" rx="2.265" ry="37.263"/>
      </g>
      <g class="cls-1">
        <ellipse class="cls-58" cx="237.255" cy="72.618" rx="42.27" ry="4.719" transform="translate(142.408 301.893) rotate(-84.544)"/>
        <ellipse class="cls-12" cx="237.255" cy="72.618" rx="41.815" ry="4.496" transform="translate(142.408 301.893) rotate(-84.544)"/>
        <ellipse class="cls-74" cx="237.255" cy="72.618" rx="41.359" ry="4.273" transform="translate(142.408 301.893) rotate(-84.544)"/>
        <ellipse class="cls-70" cx="237.255" cy="72.618" rx="40.904" ry="4.05" transform="translate(142.408 301.893) rotate(-84.544)"/>
        <ellipse class="cls-51" cx="237.255" cy="72.618" rx="40.449" ry="3.827" transform="translate(142.408 301.893) rotate(-84.544)"/>
        <ellipse class="cls-42" cx="237.255" cy="72.618" rx="39.994" ry="3.604" transform="translate(142.408 301.893) rotate(-84.544)"/>
        <ellipse class="cls-30" cx="237.255" cy="72.618" rx="39.539" ry="3.381" transform="translate(142.408 301.893) rotate(-84.544)"/>
        <ellipse class="cls-47" cx="237.255" cy="72.618" rx="39.083" ry="3.158" transform="translate(142.408 301.893) rotate(-84.544)"/>
        <ellipse class="cls-36" cx="237.255" cy="72.618" rx="38.628" ry="2.935" transform="translate(142.408 301.893) rotate(-84.544)"/>
        <ellipse class="cls-21" cx="237.255" cy="72.618" rx="38.173" ry="2.712" transform="translate(142.408 301.893) rotate(-84.544)"/>
        <ellipse class="cls-25" cx="237.255" cy="72.618" rx="37.718" ry="2.488" transform="translate(142.408 301.893) rotate(-84.544)"/>
        <ellipse class="cls-66" cx="237.255" cy="72.618" rx="37.263" ry="2.265" transform="translate(142.408 301.893) rotate(-84.544)"/>
      </g>
      <g class="cls-1">
        <ellipse class="cls-57" cx="191.959" cy="72.618" rx="4.719" ry="42.27"/>
        <ellipse class="cls-13" cx="191.959" cy="72.618" rx="4.496" ry="41.815"/>
        <ellipse class="cls-76" cx="191.959" cy="72.618" rx="4.273" ry="41.359"/>
        <ellipse class="cls-72" cx="191.959" cy="72.618" rx="4.05" ry="40.904"/>
        <ellipse class="cls-50" cx="191.959" cy="72.618" rx="3.827" ry="40.449"/>
        <ellipse class="cls-43" cx="191.959" cy="72.618" rx="3.604" ry="39.994"/>
        <ellipse class="cls-32" cx="191.959" cy="72.618" rx="3.381" ry="39.539"/>
        <ellipse class="cls-48" cx="191.959" cy="72.618" rx="3.158" ry="39.083"/>
        <ellipse class="cls-35" cx="191.959" cy="72.618" rx="2.935" ry="38.628"/>
        <ellipse class="cls-24" cx="191.959" cy="72.618" rx="2.712" ry="38.173"/>
        <ellipse class="cls-29" cx="191.959" cy="72.618" rx="2.488" ry="37.718"/>
        <ellipse class="cls-64" cx="191.959" cy="72.618" rx="2.265" ry="37.263"/>
      </g>
      <g class="cls-1">
        <ellipse class="cls-55" cx="177.012" cy="72.618" rx="4.719" ry="42.27" transform="translate(-5.611 15.562) rotate(-4.955)"/>
        <ellipse class="cls-14" cx="177.012" cy="72.618" rx="4.496" ry="41.815" transform="translate(-5.611 15.562) rotate(-4.955)"/>
        <ellipse class="cls-77" cx="177.012" cy="72.618" rx="4.273" ry="41.359" transform="translate(-5.611 15.562) rotate(-4.955)"/>
        <ellipse class="cls-71" cx="177.012" cy="72.618" rx="4.05" ry="40.904" transform="translate(-5.611 15.562) rotate(-4.955)"/>
        <ellipse class="cls-53" cx="177.012" cy="72.618" rx="3.827" ry="40.449" transform="translate(-5.611 15.562) rotate(-4.955)"/>
        <ellipse class="cls-40" cx="177.012" cy="72.618" rx="3.604" ry="39.994" transform="translate(-5.611 15.562) rotate(-4.955)"/>
        <ellipse class="cls-31" cx="177.012" cy="72.618" rx="3.381" ry="39.539" transform="translate(-5.611 15.562) rotate(-4.955)"/>
        <ellipse class="cls-46" cx="177.012" cy="72.618" rx="3.158" ry="39.083" transform="translate(-5.611 15.562) rotate(-4.955)"/>
        <ellipse class="cls-38" cx="177.012" cy="72.618" rx="2.935" ry="38.628" transform="translate(-5.611 15.562) rotate(-4.955)"/>
        <ellipse class="cls-23" cx="177.012" cy="72.618" rx="2.712" ry="38.173" transform="translate(-5.611 15.562) rotate(-4.955)"/>
        <ellipse class="cls-27" cx="177.012" cy="72.618" rx="2.488" ry="37.718" transform="translate(-5.611 15.562) rotate(-4.955)"/>
        <ellipse class="cls-68" cx="177.012" cy="72.618" rx="2.265" ry="37.263" transform="translate(-5.611 15.562) rotate(-4.955)"/>
      </g>
      <path class="cls-79" d="m137.141,27.232c10.542,17.627,17.177,24.521,19.168,27.65s17.129,18.258,15.705,42.47c-.453,7.705-3.077,12.425-3.077,12.425,0,0-4.811,9.689-1.431,10.19,1.595.236,3.007-.501,3.007-.501,0,0,3.073-2.258,4.424-1.289,1.481,1.062,2.046,1.992-.289,8.463-.522,1.447-1.645,11.794-1.929,20.328-.285,8.534-1.7,9.845-4.118,13.259-2.418,3.414-3.598,10.994-4.944,14.16-3.284,7.723-9.224,15.822-23.858,21.802-7.807,3.19-60.088,19.244-139.534-11.762V0h126.703c1.854,8.285,4.783,18.223,10.172,27.232Z"/>
      <path class="cls-5" d="m127.028.868c1.854,8.285,4.725,17.354,10.113,26.364,10.542,17.627,17.177,24.521,19.168,27.65s17.129,18.258,15.705,42.47c-.453,7.705-3.077,12.425-3.077,12.425,0,0-4.811,9.689-1.431,10.19,1.595.236,3.007-.501,3.007-.501,0,0,3.073-2.258,4.424-1.289,1.481,1.062,2.046,1.992-.289,8.463-.522,1.447-1.645,11.794-1.929,20.328-.285,8.534-1.7,9.845-4.118,13.259-2.418,3.414-3.598,10.994-4.944,14.16-3.284,7.723-9.224,15.822-23.858,21.802-7.807,3.19-60.088,19.244-139.534-11.762"/>
      <path class="cls-63" d="m281.544.578c-1.852,8.363-4.726,17.54-10.178,26.655-10.542,17.627-17.177,24.521-19.168,27.65-1.991,3.129-17.129,18.258-15.705,42.47.453,7.705,3.077,12.425,3.077,12.425,0,0,4.811,9.689,1.431,10.19-1.595.236-3.007-.501-3.007-.501,0,0-3.073-2.258-4.424-1.289-1.481,1.062-2.046,1.992.289,8.463.522,1.447,1.645,11.794,1.929,20.328.285,8.534,1.7,9.845,4.118,13.259,2.418,3.414,3.598,10.994,4.944,14.16,3.284,7.723,11.292,16.265,25.925,22.245,7.807,3.19,66.502,21.899,140.467-12.204V.024"/>
      <path class="cls-5" d="m281.544.578c-1.852,8.363-4.726,17.54-10.178,26.655-10.542,17.627-17.177,24.521-19.168,27.65-1.991,3.129-17.129,18.258-15.705,42.47.453,7.705,3.077,12.425,3.077,12.425,0,0,4.811,9.689,1.431,10.19-1.595.236-3.007-.501-3.007-.501,0,0-3.073-2.258-4.424-1.289-1.481,1.062-2.046,1.992.289,8.463.522,1.447,1.645,11.794,1.929,20.328.285,8.534,1.7,9.845,4.118,13.259,2.418,3.414,3.598,10.994,4.944,14.16,3.284,7.723,11.292,16.265,25.925,22.245,7.807,3.19,66.502,21.899,140.467-12.204"/>
    </g>
    <g id="_括約筋" data-name="括約筋">
      <g>
        <path class="cls-17" d="m128.941,145.336c-2.932-4.16-6.316-4.674-9.187-2.319s-3.29,3.494-6.635,4.352-6.718,1.091-7.899,1.283-5.456,1.39-6.668,5.994c-1.212,4.605,2.708,28.4,25,26.606,22.292-1.794,28.234-16.708,28.866-20.718.863-5.474,1.417-11.845-12.047-11.602-4.492.081-9.808-1.295-11.429-3.595Z"/>
        <path class="cls-17" d="m90.88,108.54c.495.151-12.61,13.634,5.259,36.297,4.013,5.09,14.146,3.89,18.261,1.569s9.573-7.222,7.148-17.343c0,0,.86-3.981-.324-9.33s-.637-4.682-.301-6.374c.336-1.692-1.492-5.425-4.317-5.092,0,0,3.816.262,2.761-4.352-1.055-4.614-3.424-15.312-3.424-15.312,0,0-.155-.479-.392-.73,0,0,.726.455-.125-2.87s-3.919-18.726-12.756-26.359c-8.837-7.632-13.511-11.155-17.256-11.807s-7.619-1.156-8.204,7.251c-.586,8.407-.121,23.192,9.257,25.825,0,0-4.375,1.97-3.605,9.401s3.709,17.91,8.018,19.226Z"/>
        <path class="cls-17" d="m69.177,14.082s2.348,3.411,2.229,8.162,3.119,18.045,6.56,20.722,10.168,4.772,10.168,4.772c0,0,4.119.752,17.014,13.407,2.395,2.351,5.053,6.288,1.164-5.589-3.889-11.876-11.102-22.943-22.014-31.93-10.912-8.988-10.151-11.247-10.151-11.247"/>
        <g class="cls-4">
          <path class="cls-9" d="m84.06,50.122s5.308,4.616,6.86,6.442,2.162,2.199,4.447,3.245,2.165,2.387,4.814,3.28,5.779.573,9.976,6.031"/>
          <path class="cls-9" d="m89.459,51.376s.555,1.988,1.607,2.856,2.813,4.626,4.301,5.577"/>
          <path class="cls-9" d="m80.911,51.252s5.302,3.2,8.34,7.146c3.038,3.946,5.524,6.848,8.972,7.988s8.025,4.081,9.571,6.569c1.547,2.488,6.099,6.077,6.099,6.077"/>
          <path class="cls-9" d="m112.306,74.147s-3.87-4.885-5.411-5.957-5.498-2.319-6.822-2.765-3.047-1.583-4.288-3.082"/>
          <path class="cls-9" d="m80.013,55.46s3.852,4.748,6.539,5.875c2.687,1.127,3.932,3.853,5.574,6.231,1.642,2.378,9.093,7.78,13.516,10.367"/>
          <path class="cls-9" d="m114.734,84.139s-1.609-2.982-5.16-5.9-6.473-5.477-8.867-7.586c-2.394-2.109-6.25-2.511-8.581-3.088"/>
          <path class="cls-9" d="m81.195,62.635s5.571,5.518,9.161,7.297c3.59,1.778,8.328,4.315,10.726,7.137"/>
          <path class="cls-9" d="m81.172,65.944c.045.276,4.077,4.045,11.543,5.194"/>
          <path class="cls-9" d="m83.466,71.587s3.158,3.295,7.14,3.31,6.658-.765,9.159.843"/>
          <path class="cls-9" d="m84.958,75.814s6.252,2.857,9.749,2.29c3.496-.568,8.364.686,12.34,2.041"/>
          <path class="cls-9" d="m115.923,96.099c-.041-.277-.095-6.124-4.555-7.667-4.461-1.543-5.705-1.504-8.431-2.868s-3.058-1.311-5.842-.953c-2.783.358-6.051-.845-7.101-1.697"/>
          <path class="cls-9" d="m114.09,92.996s-4.851-2.298-7.448-2.883-4.663-2.423-6.689-2.472-6.314.836-8.817-.552-3.616-2.624-5.453-2.043"/>
          <path class="cls-9" d="m86.688,91.147s3.002-.177,5.586-3.36"/>
          <path class="cls-9" d="m114.181,97.232s-2.417-4.897-8.011-4.744-6.062,1.551-9.1-.034c-3.038-1.585-5.56-1.018-7.895-.009"/>
          <path class="cls-9" d="m111.498,96.817s-4.542.037-7.313-.91-4.589-.841-6.584-.234-6.38,1.424-10.115.32"/>
          <path class="cls-9" d="m90.595,101.062s3.492.094,5.249-2.647,3.817-3.238,4.608-3.204"/>
          <path class="cls-9" d="m118.124,104.714s-.013-1.572-3.371-1.94-2.203-.744-5.429-2.487-5.478-2.977-11.178-1.302"/>
          <path class="cls-9" d="m116.795,100.869s-1.273-2.62-4.943-1.905c-3.67.715-6.743,2.319-9.841,2.95-3.099.631-4.229,4.12-6.65,4.608s-3.861.029-3.861.029"/>
          <path class="cls-9" d="m90.989,103.453s1.322-1.537,7.688-1.248"/>
          <path class="cls-9" d="m119.462,112.809s-2.895.281-5.623,1.669c-2.728,1.387-5.292.545-7.617.466-2.325-.079-6.502-2.266-9.566-1.045s-4.824,1.574-7.366,4.093"/>
          <path class="cls-9" d="m119.644,118.163s-7.566-.574-11.846-3.087"/>
          <path class="cls-9" d="m111.395,118.275s-10.172,1.746-11.319,3.066-3.209,4.677-5.298,5.111-3.528.667-4.957,1.655"/>
          <path class="cls-9" d="m98.641,120.912s-2.197-2.292-7.936-.555"/>
          <path class="cls-9" d="m120.462,123.131s.287-2.597-2.469-2.763c-2.756-.166-5.742.456-6.726.478-1.198.027-1.978-.057-4.293,2.397-2.315,2.454-7.485,2.821-7.485,2.821"/>
          <path class="cls-9" d="m118.41,122.897s-5.249,2.102-7.938.817"/>
          <path class="cls-9" d="m120.42,126.821s-2.86-2.18-5.809-.757-4.076,2.173-4.478,3.183-1.277,2.368-3.124,3.004"/>
          <path class="cls-9" d="m109.86,127.591s-4.168,1.716-6.818,1.107-6.917-.976-9.828,2.058"/>
          <path class="cls-9" d="m117.529,105.85s-6.425-.694-10.228,2.256"/>
          <path class="cls-9" d="m99.586,107.725s2.222-3.1,6.998-3.97c4.776-.87,8.169-.98,8.169-.98"/>
          <path class="cls-9" d="m120.071,129.302s-3.053-1.047-5.131.833c-2.078,1.88-2.245,3.135-4.665,3.528"/>
          <path class="cls-9" d="m110.563,135.411s-3.195.519-4.812-1.013-5.215-1.287-6.811-.622-5.728,1.808-5.728,1.808"/>
          <path class="cls-9" d="m120.334,130.897s-2.245,1.309-3.693,1.733-3.101,1.542-3.469,2.358-4.318,3.062-8.009,2.056-3.474.996-4.983,1.498-4.762.773-4.762.773"/>
          <path class="cls-9" d="m120.864,134.116s-4.242,1.602-5.443,3.182-5.781,2.135-5.781,2.135"/>
          <path class="cls-9" d="m119.365,139.051s-3.346,2.464-7.156,2.799-4.444.344-4.444.344c0,0-1.598,1.631-4.203,3.068-2.606,1.438-2.596.806-2.596.806"/>
          <path class="cls-9" d="m99.163,141.796s4.816-2.181,5.774-1.59,1.368,2.508,2.827,1.988"/>
          <path class="cls-9" d="m116.31,143.192s-6.417.577-10.333,3.322"/>
          <path class="cls-9" d="m120.859,145.357s-2.418,4.265-8.836,4.835c-6.418.57-11.053,2.571-11.053,2.571"/>
          <path class="cls-9" d="m99.9,157.544s4.002-.555,5.934-2.286,4.713-3.484,7.983-3.647,8.085-4.062,8.533-4.796"/>
          <path class="cls-9" d="m103.43,161.032s2.757-3.281,6.064-3.913,5.727-3.197,6.491-4.076"/>
          <path class="cls-9" d="m109.003,159.655s-2.908,0-4.395,2.508c-1.487,2.508-1.587,3.28-2.538,3.718"/>
          <path class="cls-9" d="m121.522,152.144s-3.714,4.57-7.231,5.897-5.421,2.297-5.627,4.786.721,5.361-.315,7.702"/>
          <path class="cls-9" d="m103.361,167.277s2.539-.129,5.303-4.45"/>
          <path class="cls-9" d="m106.467,167.812s-2.078,2.259-1.771,4.349"/>
          <path class="cls-9" d="m126.542,146.522s-6.193,12.991-3.784,18.645c2.409,5.654.26,13.937.26,13.937"/>
          <path class="cls-9" d="m121.313,156.391s-1.77,3.253-6.4,5.421c-4.629,2.168-3.221,8.646-3.221,8.646"/>
          <path class="cls-9" d="m118.924,161.161s.382,4.755-3.658,8.717c-4.04,3.962-5.646,3.184-5.937,6.253"/>
          <path class="cls-9" d="m122.501,163.603s-3.458,8.684-2.847,11.702"/>
          <path class="cls-9" d="m120.518,163.925s-4.876,6.553-3.544,10.398c1.332,3.845,1.023,5.595,1.023,5.595"/>
          <path class="cls-9" d="m129.834,148.076s-2.068,4.012-.463,8.231c1.605,4.22,3.026,5.689,2.371,9.432-.655,3.743-2.77,8.336-1.959,9.716"/>
          <path class="cls-9" d="m129.017,155.14s-1.216,5.439-.446,8.048.986,6.164.369,7.161"/>
          <path class="cls-9" d="m126.948,150.413s-.168,4.655-1.223,8.605.497,7.617.497,7.617"/>
          <path class="cls-9" d="m127.442,174.04c-.148.024-.469,3.884.849,5.151"/>
          <path class="cls-9" d="m133.814,150.148s.961,7.216.782,10.265.727,4.413,1.458,6.089c.731,1.676.07,4.617.261,6.097"/>
          <path class="cls-9" d="m134.669,174.661c-.539.182-2.277-2.086-2.408-3.576"/>
          <path class="cls-9" d="m132.376,177.584s-2.615-1.713.563-7.884c1.194-2.319.665-4.264.665-4.264"/>
          <path class="cls-9" d="m141.966,171.495s1.088-5.752-1.896-9.14c-2.984-3.388-1.818-11.038-1.818-11.038"/>
          <path class="cls-9" d="m139.358,174.37s-.66-.788-.366-3.835c.294-3.047-.2-4.666-.89-5.404s-2.677-6.379-1.681-9.086"/>
          <path class="cls-9" d="m141.703,151.19c-.007-.021,1.63,5.306,2.215,7.744.545,2.272,4.679,5.72,5.729,5.881"/>
          <path class="cls-9" d="m139.957,151.179s.643,8.572,2.371,10.322c1.728,1.75,2.588,6.041,2.475,9.271"/>
          <path class="cls-9" d="m147.954,167.041s-4.189-3.601-5.626-5.54"/>
          <path class="cls-9" d="m144.066,150.902s2.595,4.518,4.202,7.374c1.607,2.856,1.816,5.547,1.816,5.547"/>
          <path class="cls-9" d="m151.17,160.785s-1.332-.114-2.901-2.509"/>
          <path class="cls-9" d="m145.172,152.831c.918-.181,5.459,1.772,5.597,4.519"/>
          <path class="cls-9" d="m79.005,37.905s1.241,3.681,5.22,5.782l3.98,2.1"/>
          <path class="cls-9" d="m86.927,40.99s11.791,7.422,13.608,11.643,4.681,6.358,4.681,6.358"/>
          <path class="cls-9" d="m75.973,30.747s2.337,3.086,7.637,5.7,9.596,8.899,9.596,8.899"/>
          <path class="cls-9" d="m94.449,37.716s3.901,5.31,5.514,8.979,4.209,8.934,4.209,8.934"/>
          <path class="cls-9" d="m73.56,25.43s9.434,3.779,10.05,11.018"/>
          <path class="cls-9" d="m86.581,30.67s2.073.768,3.723,5.553,9.659,10.472,9.659,10.472"/>
          <path class="cls-9" d="m77.043,23.824s3.366.445,5.152,3.736.894,4.438,4.501,6.55"/>
          <path class="cls-9" d="m73.254,16.319s6.255,8.528,11.909,10.955,8.023,8.852,8.023,8.852"/>
        </g>
        <path class="cls-2" d="m116.606,108.267s-15.311,3.09-25.726.273"/>
        <path class="cls-2" d="m86.467,79.914s14.635-.829,21.983,3.231c5.99,3.31,7.494,5.458,7.494,5.458"/>
      </g>
      <g>
        <g>
          <path class="cls-15" d="m112.211,2.795s1.38,15.939,12.91,34.65c6.984,11.334,14.302,27.607,15.791,34.414,1.488,6.807-.865,4.251-.865,4.251,0,0,3.679,4.94,4.188,11.302.146,1.822-1.016,3.08-1.016,3.08,0,0,1.522,2.231,1.668,4.048s.23,2.856-.857,2.682c0,0,3.195,3.012,1.538,5.758,0,0,2.992,3.289,1.113,6.053,0,0,2.623,2.012,1.891,6.252,0,0,2.481,2.415.856,7.249,0,0,4.389,1.218,2.421,8.431,0,0,4.037,3.467,1.474,8.245,0,0,1.863,6.516-3.54,7.731-5.404,1.215-13.133.294-14.94-.477s-3.189-2.369-1.354-2.907c0,0-2.623.078-4.534-1.991-1.911-2.069-.327-4.044.852-4.4,0,0-3.079,1.353-4.186-1.352-.903-2.206.463-4.884,1.775-5.251,0,0-2.186-.479-2.303-3.606s-.471-5.843,1.241-6.241c0,0-1.97-1.18-3.004-5.641-.9-3.881-.11-4.695,1.09-4.791,0,0-1.919-.713-2.821-5.893-.696-3.998.475-4.896,1.665-5.122,0,0-3.084-.842-4.484-7.352s-.874-7.509,1.095-8.058c0,0-1.557-.713-3.274-7.318-1.289-4.961-1.789-8.874.849-7.777,0,0-2.116-1.215-3.072-12.822-.516-6.264-1.43-9.124-1.893-10.283s-.498-3.459,1.619-3.416c0,0-2.389.321-4.615-12.307-2.226-12.628-1.878-24.512-3.297-27.143"/>
          <path class="cls-7" d="m140.046,76.11s-22.991-31.357-25.944-33.865"/>
          <path class="cls-7" d="m117.448,68.765s5.012,3.912,6.824,4.748,5.178,3.572,5.58,3.932"/>
          <path class="cls-7" d="m119.872,83.861s8.161,4.68,9.635,5.504c4.756,2.656,9.292,2.785,10.334,3.225"/>
          <path class="cls-7" d="m123.262,99.271s5.805-.398,7.838.681,4.224,1.623,5.301,1.668"/>
          <path class="cls-7" d="m126.333,120.718s5.013,1.429,10.594-.911"/>
          <path class="cls-7" d="m124.422,109.995s10.705,2.483,19.384-.183"/>
          <path class="cls-7" d="m127.395,130.564s12.81-.935,18.735-6.604"/>
          <path class="cls-7" d="m129.806,137.167s11.546-2.049,14.092-3.754"/>
          <path class="cls-7" d="m133.488,143.557s11.284.107,16.972-3.9"/>
        </g>
        <g class="cls-8">
          <path class="cls-3" d="m134.48,65.316c.431.358,2.753,2.524,4.17,3.457s1.43,3.295,1.43,3.295"/>
          <path class="cls-3" d="m138.388,66.779c-1.29-1.025-2.136-2.78-3.389-3.334s-4.926-4.507-4.926-4.507c0,0-2.506-3.736-3.277-2.27"/>
          <path class="cls-3" d="m124.419,52.038s1.763-3.097,3.344-.128,2.036,5.285,4.844,6.825,4.392,4.55,4.392,4.55"/>
          <path class="cls-3" d="m133.287,55.007s-4.796-5.728-5.524-3.097"/>
          <path class="cls-3" d="m128.283,44.754s-5.326-7.039-3.656-1.781c.513,1.616.711,6.328-.073,8.246"/>
          <path class="cls-3" d="m119.28,41.183s1.038,1.611,2.178,2.435,3.31,2.445,3.409,3.95"/>
          <path class="cls-3" d="m110.447,28.54s1.831-.589,3.798,5.493c1.966,6.083,1.742,6.623,1.58,7.943"/>
          <path class="cls-3" d="m116.575,36.298s-1.871,3.043-.528,3.325c2.796.588,4.255,2.149,4.284,7.505"/>
          <path class="cls-3" d="m125.089,54.736s-.843-4.742-1.957-6.123-2.338-3.244-2.965-1.038"/>
          <path class="cls-3" d="m115.532,42.471s1.527-.392,3.312,2.509c1.327,2.157,2.132,4.714,2.132,4.714"/>
          <path class="cls-3" d="m112.378,29.547c.259-8.88-3.463-8.319-3.463-8.319"/>
          <path class="cls-3" d="m107.916,16.649c.137-.011,3.35,1.125,4.048,2.768.698,1.643,1.734,2.606,2.5,3.067s1.763,2.139-.353,3.228"/>
          <path class="cls-3" d="m115.165,31.183s.796-6.6-2.756-5.335"/>
          <path class="cls-3" d="m118.985,40.786s2.433-8.683-6.11-10.076"/>
          <path class="cls-3" d="m123.207,44.73s-.026-1.381-.784-4.908-3.253-4.613-3.253-4.613c-.162,2.339,2.412-4.477-3.522-6.891"/>
          <path class="cls-3" d="m123.493,35.298s-1.774-3.07-4.001-3.415"/>
          <path class="cls-3" d="m124.988,45.035s4.027,2.521,4.466,6.207"/>
          <path class="cls-3" d="m120.334,27.644s-1.915-1.302-2.996-1.338c-2.662-.089-.61,2.554-.61,2.554"/>
          <path class="cls-3" d="m118.447,23.001s-1.928-3.881-3.983-.517"/>
          <path class="cls-3" d="m115.373,13.969s-1.802-1.606-3.297-.18-.408,2.877-.408,2.877"/>
          <path class="cls-3" d="m114.156,9.616s-1.656-2.231-3.215-1.975-1.31.916-1.26,3.726c.066,3.783.501,6.214.501,6.214,2.85-3.364,6.724,3.352,6.724,3.352"/>
          <path class="cls-3" d="m112.594,4.508s-2.788-3.014-1.653,3.133"/>
          <path class="cls-3" d="m106.189,4.224s3.07.014,3.238,6.377"/>
          <path class="cls-3" d="m106.497,7.996s2.723.028,3.204,4.807"/>
          <path class="cls-3" d="m115.901,47.916c.159.314-1.091,3.109,1.862,4.792s5.034,2.518,7.028,3.95"/>
          <path class="cls-3" d="m131.318,65.301s-2.289-2.491-4.663-2.073c-2.374.418-4.894-4.213-5.936-4.654s-2.83-.635-5.473-2.825"/>
          <path class="cls-3" d="m126.836,70.369s-1.279-4.21-4.04-5.166c-2.761-.956-4.379-2.132-4.995-4.239s-.607-3.698-.607-3.698"/>
          <path class="cls-3" d="m126.872,65.923s2.337.598,4.296,6.583,3.025,5.9,4.39,6.183,5.644,3.428,5.644,3.428"/>
          <path class="cls-3" d="m123.841,69.002s-3.015.409-5.108-2.429-.931-5.609-.931-5.609"/>
          <path class="cls-3" d="m118.811,73.492s2.749,1.349,3.478,4.557,2.575,3.646,2.575,3.646"/>
          <path class="cls-3" d="m118.316,77.874s1.747,1.827,3.356,2.184,5.776,2.896,6.199,3.144,1.952,2.581,3.852,2.835,5.547,2.223,7.498,4.792"/>
          <path class="cls-3" d="m142.482,97.999s-3.407,1.11-6.557-.561-6.128-.332-7.547.379"/>
          <path class="cls-3" d="m124.42,93.014s2.719-2.07,4.408-.352,1.531,3.956,3.215,4.003"/>
          <path class="cls-3" d="m120.683,90.773s1.347.337,3.736,2.24c1.506,1.199,4.564,1.587,4.564,1.587"/>
          <path class="cls-3" d="m146.273,106.745c-.424-.26-5.432-.798-8.345,1.352"/>
          <path class="cls-3" d="m139.572,103.52s-5.915,6.623-12.096-1.021"/>
          <path class="cls-3" d="m125.235,108.523s2.755-.527,3.889-1.444,5.493-.935,5.493-.935"/>
          <path class="cls-3" d="m123.731,104.148s1.362,1.234,4.279,1.269"/>
          <path class="cls-3" d="m145.999,111.668s-5.48,3.601-9.124,1.673"/>
          <path class="cls-3" d="m126,113.263s1.046,2.336,3.927,2.611c2.881.276,6.484.023,8.574-.684"/>
          <path class="cls-3" d="m128.778,118.641s-1.888-1.74,3.917-2.596"/>
          <path class="cls-3" d="m147.114,117.178s-4.537,1.982-5.415,4.404c-.878,2.422-5.685,1.891-5.685,1.891"/>
          <path class="cls-3" d="m147.396,120.671s-1.357,1.48-5.697.912"/>
          <path class="cls-3" d="m128.255,124.525s.838-1.202,3.862-.308,5.205,1.308,7.155.532"/>
          <path class="cls-3" d="m133.236,126.455s-2.004,1.124-3.605-.937"/>
          <path class="cls-3" d="m150.169,125.104s-6.193-.249-8.401,5.649c0,0,.405,1.699-4.679,1.878s-6.897-.783-8.18.004"/>
          <path class="cls-3" d="m130.027,134.136s1.23,1.057,4.93-1.315"/>
          <path class="cls-3" d="m148.961,128.436s-1.764,3.088-7.194,2.316"/>
          <path class="cls-3" d="m147.23,133.594s-6.779,2.462-8.817,4.65c-2.038,2.188-6.042.885-6.042.885"/>
          <path class="cls-3" d="m152.634,134.039s-2.251,3.708-5.087,3.477c-2.837-.231-2.708-.296-5.118,1.426-2.411,1.723-6.933.553-6.933.553"/>
          <path class="cls-3" d="m151.352,139.781s-2.731,2.745-6.374,3.33"/>
          <path class="cls-3" d="m140.501,145.049s5.082,1.404,7.604-.607c2.522-2.011,4.273-1.922,4.273-1.922"/>
        </g>
      </g>
    </g>
    <g id="_括約筋-2" data-name="括約筋">
      <g>
        <path class="cls-17" d="m279.081,144.018c3.007-4.106,6.4-4.558,9.228-2.151s3.226,3.553,6.555,4.472,6.697,1.213,7.874,1.426,5.43,1.489,6.558,6.115c1.128,4.626-3.225,28.345-25.481,26.146-22.256-2.2-27.924-17.22-28.484-21.241-.763-5.489-1.201-11.869,12.257-11.381,4.49.163,9.83-1.116,11.493-3.386Z"/>
        <path class="cls-17" d="m317.807,107.922c-.498.142,12.359,13.861-5.92,36.195-4.105,5.015-14.214,3.632-18.286,1.235s-9.44-7.395-6.83-17.471c0,0-.787-3.996.494-9.322,1.282-5.326.722-4.67.417-6.367s1.59-5.397,4.409-5.012c0,0-3.82.192-2.681-4.402,1.139-4.594,3.702-15.247,3.702-15.247,0,0,.163-.476.405-.723,0,0-.734.442.177-2.867s4.26-18.652,13.235-26.122c8.975-7.47,13.712-10.907,17.469-11.49s7.638-1.017,8.071,7.4-.302,23.19-9.727,25.652c0,0,4.338,2.049,3.433,9.465-.905,7.416-4.035,17.84-8.368,19.076Z"/>
        <path class="cls-17" d="m341.229,13.876s-2.41,3.368-2.377,8.12c.033,4.752-3.448,17.985-6.936,20.599-3.489,2.614-10.253,4.586-10.253,4.586,0,0-4.132.677-17.256,13.095-2.438,2.307-5.167,6.194-1.062-5.609,4.105-11.803,11.518-22.736,22.593-31.523,11.075-8.787,10.354-11.06,10.354-11.06"/>
        <g class="cls-4">
          <path class="cls-9" d="m325.691,49.638s-5.392,4.519-6.976,6.316c-1.585,1.797-2.202,2.159-4.506,3.163s-2.209,2.348-4.873,3.191-5.789.467-10.084,5.848"/>
          <path class="cls-9" d="m320.27,50.793s-.591,1.977-1.659,2.826-2.897,4.574-4.402,5.498"/>
          <path class="cls-9" d="m328.818,50.826s-5.36,3.103-8.469,6.993c-3.109,3.89-5.648,6.746-9.116,7.823s-8.098,3.934-9.69,6.393c-1.592,2.459-6.208,5.965-6.208,5.965"/>
          <path class="cls-9" d="m297.011,73.144s3.958-4.813,5.518-5.857,5.54-2.218,6.872-2.64,3.075-1.527,4.344-3.003"/>
          <path class="cls-9" d="m329.64,55.049s-3.938,4.677-6.645,5.755c-2.707,1.078-4.002,3.781-5.687,6.129-1.686,2.348-9.234,7.613-13.702,10.119"/>
          <path class="cls-9" d="m294.401,83.09s1.663-2.952,5.267-5.805,6.572-5.358,9.004-7.423c2.432-2.065,6.295-2.396,8.636-2.931"/>
          <path class="cls-9" d="m328.327,62.201s-5.67,5.416-9.292,7.128-8.406,4.162-10.855,6.94"/>
          <path class="cls-9" d="m328.29,65.511c-.05.275-4.15,3.969-11.636,4.982"/>
          <path class="cls-9" d="m325.894,71.111s-3.217,3.237-7.199,3.179-6.643-.886-9.173.676"/>
          <path class="cls-9" d="m324.325,75.31s-6.304,2.743-9.789,2.111-8.376.534-12.375,1.816"/>
          <path class="cls-9" d="m292.995,95.027c.046-.276.206-6.121,4.695-7.582,4.488-1.461,5.732-1.399,8.482-2.714,2.751-1.315,3.082-1.255,5.858-.847,2.777.408,6.066-.735,7.131-1.567"/>
          <path class="cls-9" d="m294.884,91.958s4.892-2.209,7.5-2.747,4.707-2.337,6.733-2.349,6.298.951,8.825-.391,3.663-2.558,5.489-1.943"/>
          <path class="cls-9" d="m322.315,90.608s-2.999-.232-5.524-3.462"/>
          <path class="cls-9" d="m294.715,96.191s2.506-4.852,8.096-4.597,6.033,1.661,9.099.132,5.577-.916,7.894.135"/>
          <path class="cls-9" d="m297.405,95.826s4.54.12,7.328-.776,4.604-.757,6.588-.114,6.353,1.54,10.107.504"/>
          <path class="cls-9" d="m318.228,100.45s-3.493.031-5.2-2.742c-1.707-2.773-3.757-3.307-4.549-3.287"/>
          <path class="cls-9" d="m290.637,103.6s.041-1.572,3.405-1.878,2.216-.704,5.474-2.388,5.531-2.876,11.2-1.098"/>
          <path class="cls-9" d="m292.036,99.78s1.32-2.596,4.977-1.815c3.657.782,6.699,2.442,9.786,3.129,3.086.687,4.153,4.197,6.565,4.728s3.86.099,3.86.099"/>
          <path class="cls-9" d="m317.79,102.835s-1.294-1.561-7.664-1.388"/>
          <path class="cls-9" d="m289.152,111.669s2.889.334,5.591,1.771c2.702,1.437,5.281.642,7.607.605,2.326-.037,6.543-2.147,9.583-.87s4.795,1.662,7.29,4.226"/>
          <path class="cls-9" d="m288.872,117.019s7.575-.436,11.9-2.87"/>
          <path class="cls-9" d="m297.117,117.281s10.139,1.931,11.261,3.272,3.123,4.735,5.204,5.206,3.516.732,4.926,1.745"/>
          <path class="cls-9" d="m309.821,120.151s2.238-2.252,7.945-.41"/>
          <path class="cls-9" d="m287.963,121.971s-.239-2.602,2.519-2.718c2.759-.116,5.732.56,6.716.601,1.197.049,1.979-.021,4.248,2.475,2.27,2.496,7.432,2.957,7.432,2.957"/>
          <path class="cls-9" d="m290.019,121.775s5.21,2.198,7.922.961"/>
          <path class="cls-9" d="m287.937,125.662s2.9-2.128,5.822-.651c2.923,1.477,4.036,2.247,4.419,3.264s1.234,2.391,3.069,3.061"/>
          <path class="cls-9" d="m298.482,126.624s4.136,1.792,6.797,1.231,6.934-.849,9.789,2.237"/>
          <path class="cls-9" d="m291.211,104.747s6.436-.577,10.185,2.442"/>
          <path class="cls-9" d="m309.116,106.948s-2.165-3.14-6.924-4.097c-4.76-.957-8.15-1.129-8.15-1.129"/>
          <path class="cls-9" d="m288.241,128.148s3.071-.991,5.115.927c2.043,1.918,2.187,3.175,4.6,3.613"/>
          <path class="cls-9" d="m297.636,134.43s3.185.577,4.83-.925,5.237-1.192,6.821-.498,5.694,1.912,5.694,1.912"/>
          <path class="cls-9" d="m287.95,129.738s2.221,1.35,3.66,1.8,3.072,1.599,3.425,2.421,4.262,3.141,7.97,2.202c3.708-.939,3.455,1.06,4.955,1.588,1.5.529,4.747.86,4.747.86"/>
          <path class="cls-9" d="m287.361,132.947s4.212,1.679,5.384,3.281,5.741,2.24,5.741,2.24"/>
          <path class="cls-9" d="m288.769,137.908s3.301,2.524,7.104,2.929,4.437.425,4.437.425c0,0,1.568,1.659,4.146,3.144,2.579,1.485,2.581.854,2.581.854"/>
          <path class="cls-9" d="m308.918,141.022s-4.775-2.269-5.745-1.695-1.414,2.483-2.863,1.936"/>
          <path class="cls-9" d="m291.749,142.105s6.405.694,10.271,3.51"/>
          <path class="cls-9" d="m287.161,144.186s2.34,4.309,8.747,4.995c6.407.687,11.004,2.772,11.004,2.772"/>
          <path class="cls-9" d="m307.894,156.754s-3.991-.628-5.891-2.394-4.649-3.569-7.915-3.792-8.01-4.209-8.444-4.951"/>
          <path class="cls-9" d="m304.301,160.177s-2.697-3.331-5.992-4.023c-3.295-.692-5.667-3.301-6.416-4.194"/>
          <path class="cls-9" d="m298.754,158.699s2.907.053,4.348,2.588c1.441,2.535,1.527,3.309,2.47,3.764"/>
          <path class="cls-9" d="m286.374,150.96s3.63,4.637,7.122,6.028,5.378,2.395,5.539,4.888-.819,5.347.174,7.706"/>
          <path class="cls-9" d="m304.256,166.422s-2.536-.175-5.221-4.546"/>
          <path class="cls-9" d="m301.141,166.9s2.037,2.297,1.692,4.381"/>
          <path class="cls-9" d="m281.457,145.248s5.955,13.102,3.443,18.71c-2.512,5.609-.514,13.93-.514,13.93"/>
          <path class="cls-9" d="m286.506,155.211s1.711,3.284,6.3,5.537c4.589,2.253,3.063,8.703,3.063,8.703"/>
          <path class="cls-9" d="m288.807,160.023s-.468,4.747,3.499,8.782c3.967,4.035,5.587,3.286,5.822,6.361"/>
          <path class="cls-9" d="m285.187,162.399s3.299,8.746,2.633,11.752"/>
          <path class="cls-9" d="m287.163,162.757s4.755,6.641,3.354,10.461c-1.402,3.82-1.125,5.576-1.125,5.576"/>
          <path class="cls-9" d="m278.138,146.741s1.994,4.049.313,8.238-3.129,5.633-2.542,9.387c.587,3.754,2.617,8.386,1.782,9.75"/>
          <path class="cls-9" d="m278.825,153.819s1.117,5.46.299,8.055-1.098,6.145-.5,7.153"/>
          <path class="cls-9" d="m280.981,149.131s.083,4.658,1.066,8.626-.636,7.607-.636,7.607"/>
          <path class="cls-9" d="m280.056,172.745c.147.027.398,3.892-.942,5.135"/>
          <path class="cls-9" d="m274.121,148.741s-1.093,7.197-.969,10.249c.124,3.052-.807,4.399-1.569,6.062-.761,1.662-.154,4.615-.372,6.091"/>
          <path class="cls-9" d="m272.819,173.234c.535.192,2.314-2.044,2.473-3.531"/>
          <path class="cls-9" d="m275.058,176.198s2.645-1.665-.419-7.893c-1.152-2.34-.587-4.275-.587-4.275"/>
          <path class="cls-9" d="m265.581,169.935s-.983-5.77,2.062-9.103c3.045-3.333,2.019-11.003,2.019-11.003"/>
          <path class="cls-9" d="m268.136,172.857s.674-.776.436-3.827c-.238-3.051.285-4.662.989-5.387s2.793-6.329,1.846-9.054"/>
          <path class="cls-9" d="m266.214,149.639c.008-.02-1.727,5.275-2.355,7.702-.586,2.262-4.783,5.634-5.835,5.775"/>
          <path class="cls-9" d="m267.96,149.659s-.799,8.558-2.559,10.277c-1.76,1.718-2.697,5.993-2.644,9.224"/>
          <path class="cls-9" d="m259.675,165.372s4.254-3.524,5.726-5.436"/>
          <path class="cls-9" d="m263.856,149.307s-2.677,4.47-4.336,7.296-1.917,5.513-1.917,5.513"/>
          <path class="cls-9" d="m256.574,159.059s1.334-.09,2.946-2.456"/>
          <path class="cls-9" d="m262.716,151.215c-.914-.197-5.491,1.672-5.678,4.416"/>
          <path class="cls-9" d="m330.968,37.516s-1.307,3.658-5.325,5.685l-4.017,2.027"/>
          <path class="cls-9" d="m322.991,40.456s-11.924,7.206-13.818,11.393c-1.894,4.187-4.796,6.272-4.796,6.272"/>
          <path class="cls-9" d="m334.13,30.415s-2.393,3.043-7.74,5.56-9.756,8.723-9.756,8.723"/>
          <path class="cls-9" d="m315.529,37.045s-3.998,5.238-5.677,8.877c-1.679,3.639-4.371,8.855-4.371,8.855"/>
          <path class="cls-9" d="m336.639,25.142s-9.502,3.606-10.249,10.833"/>
          <path class="cls-9" d="m323.525,30.144s-2.087.73-3.824,5.484c-1.737,4.754-9.849,10.294-9.849,10.294"/>
          <path class="cls-9" d="m333.186,23.473s-3.373.384-5.219,3.642c-1.846,3.258-.974,4.421-4.62,6.467"/>
          <path class="cls-9" d="m337.111,16.038s-6.41,8.413-12.107,10.736-8.183,8.704-8.183,8.704"/>
        </g>
        <path class="cls-2" d="m292.09,107.18s15.252,3.369,25.717.742"/>
        <path class="cls-2" d="m322.741,79.381s-14.618-1.096-22.038,2.83c-6.049,3.2-7.592,5.32-7.592,5.32"/>
      </g>
      <g>
        <g>
          <path class="cls-15" d="m297.994,1.607s-1.256,16.11-13.126,34.608c-7.19,11.205-14.804,27.341-16.416,34.12-1.612,6.779.787,4.266.787,4.266,0,0-3.768,4.872-4.393,11.224-.179,1.819.959,3.098.959,3.098,0,0-1.562,2.203-1.742,4.017s-.282,2.852.808,2.697c0,0-3.249,2.953-1.642,5.729,0,0-3.052,3.234-1.224,6.031,0,0-2.659,1.964-2.005,6.217,0,0-2.525,2.37-.988,7.233,0,0-4.411,1.138-2.575,8.386,0,0-4.099,3.393-1.624,8.217,0,0-1.982,6.481,3.399,7.794,5.381,1.314,13.126.533,14.946-.204s3.232-2.31,1.407-2.882c0,0,2.621.126,4.57-1.908,1.949-2.034.401-4.038-.771-4.414,0,0,3.054,1.409,4.21-1.276.943-2.189-.374-4.892-1.679-5.282,0,0,2.194-.439,2.369-3.563.175-3.124.578-5.833-1.127-6.262,0,0,1.991-1.144,3.107-5.585.971-3.864.196-4.693-1.002-4.81,0,0,1.932-.677,2.928-5.841.769-3.985-.386-4.904-1.571-5.151,0,0,3.099-.786,4.617-7.269,1.513-6.461,1.011-7.492-.948-8.077,0,0,1.57-.684,3.407-7.257,1.379-4.936,1.95-8.84-.707-7.792,0,0,2.138-1.176,3.306-12.764.63-6.254,1.596-9.097,2.08-10.247s.561-3.45-1.557-3.445c0,0,2.383.365,4.839-12.221,2.456-12.586,2.932-25.365,4.4-27.97"/>
          <path class="cls-7" d="m269.24,74.6s23.559-30.932,26.558-33.386"/>
          <path class="cls-7" d="m291.969,67.67s-5.082,3.82-6.909,4.623-5.243,3.477-5.651,3.83"/>
          <path class="cls-7" d="m289.269,82.718s-8.245,4.53-9.734,5.327c-4.804,2.569-9.342,2.615-10.391,3.036"/>
          <path class="cls-7" d="m285.599,98.064s-5.797-.504-7.849.538-4.252,1.546-5.33,1.571"/>
          <path class="cls-7" d="m282.138,119.451s-5.038,1.338-10.576-1.104"/>
          <path class="cls-7" d="m284.243,108.765s-10.748,2.288-19.377-.536"/>
          <path class="cls-7" d="m280.896,129.277s-12.791-1.169-18.611-6.944"/>
          <path class="cls-7" d="m278.365,135.834s-11.507-2.259-14.022-4.011"/>
          <path class="cls-7" d="m274.566,142.156s-11.284-.098-16.898-4.209"/>
        </g>
        <g class="cls-8">
          <path class="cls-3" d="m275.002,63.91c-.438.35-2.799,2.474-4.232,3.38s-1.49,3.268-1.49,3.268"/>
          <path class="cls-3" d="m271.068,65.301c1.309-1.001,2.187-2.741,3.449-3.271s5.007-4.417,5.007-4.417c0,0,2.574-3.69,3.318-2.21"/>
          <path class="cls-3" d="m285.304,50.818s-1.706-3.129-3.341-.189c-1.635,2.94-2.132,5.247-4.968,6.736-2.836,1.489-4.475,4.469-4.475,4.469"/>
          <path class="cls-3" d="m276.383,53.625s4.9-5.639,5.579-2.996"/>
          <path class="cls-3" d="m281.573,43.465s5.453-6.94,3.688-1.714c-.543,1.607-.827,6.314-.077,8.246"/>
          <path class="cls-3" d="m290.639,40.058s-1.068,1.592-2.222,2.395-3.354,2.384-3.48,3.887"/>
          <path class="cls-3" d="m299.701,27.579s-1.82-.623-3.897,5.423c-2.077,6.046-1.862,6.59-1.724,7.913"/>
          <path class="cls-3" d="m293.434,35.223s1.815,3.077.467,3.335c-2.806.537-4.293,2.071-4.42,7.425"/>
          <path class="cls-3" d="m284.584,53.504s.929-4.726,2.068-6.087c1.139-1.361,2.396-3.2,2.983-.983"/>
          <path class="cls-3" d="m294.363,41.415s-1.519-.419-3.357,2.448c-1.366,2.132-2.218,4.674-2.218,4.674"/>
          <path class="cls-3" d="m297.753,28.55c-.097-8.883,3.614-8.254,3.614-8.254"/>
          <path class="cls-3" d="m302.449,15.736c-.137-.013-3.37,1.063-4.098,2.694-.728,1.63-1.781,2.574-2.555,3.021s-1.802,2.107.294,3.234"/>
          <path class="cls-3" d="m294.936,30.135s-.675-6.613,2.853-5.284"/>
          <path class="cls-3" d="m290.942,39.667s-2.274-8.726,6.293-9.963"/>
          <path class="cls-3" d="m286.648,43.534s.051-1.38.873-4.893c.822-3.513,3.337-4.553,3.337-4.553.119,2.342-2.33-4.52,3.647-6.826"/>
          <path class="cls-3" d="m286.535,34.098s1.83-3.037,4.063-3.341"/>
          <path class="cls-3" d="m284.863,43.806s-4.072,2.447-4.578,6.125"/>
          <path class="cls-3" d="m289.833,26.502s1.938-1.267,3.02-1.283c2.663-.04.563,2.565.563,2.565"/>
          <path class="cls-3" d="m291.804,21.894s1.999-3.845,3.992-.444"/>
          <path class="cls-3" d="m295.042,12.92s1.831-1.573,3.3-.12.355,2.884.355,2.884"/>
          <path class="cls-3" d="m296.338,8.591s1.696-2.2,3.251-1.916,1.293.939,1.192,3.748c-.135,3.781-.614,6.204-.614,6.204-2.788-3.415-6.784,3.229-6.784,3.229"/>
          <path class="cls-3" d="m297.994,3.511s2.843-2.963,1.596,3.163"/>
          <path class="cls-3" d="m304.402,3.344s-3.07-.042-3.354,6.316"/>
          <path class="cls-3" d="m304.026,7.11s-2.723-.022-3.291,4.747"/>
          <path class="cls-3" d="m293.895,46.852c-.165.311,1.034,3.128-1.95,4.758s-5.079,2.426-7.099,3.822"/>
          <path class="cls-3" d="m278.164,63.953s2.334-2.448,4.7-1.987,4.97-4.123,6.02-4.545,2.841-.583,5.524-2.724"/>
          <path class="cls-3" d="m282.553,69.101s1.355-4.186,4.133-5.091,4.417-2.051,5.072-4.148.674-3.687.674-3.687"/>
          <path class="cls-3" d="m282.598,64.656s-2.348.555-4.415,6.503c-2.067,5.949-3.132,5.844-4.502,6.102s-5.705,3.324-5.705,3.324"/>
          <path class="cls-3" d="m285.573,67.789s3.007.464,5.152-2.336,1.033-5.591,1.033-5.591"/>
          <path class="cls-3" d="m290.519,72.37s-2.773,1.298-3.56,4.493-2.641,3.598-2.641,3.598"/>
          <path class="cls-3" d="m290.934,76.761s-1.78,1.794-3.395,2.123-5.828,2.79-6.255,3.031-1.999,2.545-3.903,2.764-5.586,2.121-7.584,4.655"/>
          <path class="cls-3" d="m266.405,96.442s3.386,1.172,6.566-.441,6.133-.22,7.539.517"/>
          <path class="cls-3" d="m284.555,91.787s-2.681-2.119-4.4-.432-1.603,3.928-3.287,3.944"/>
          <path class="cls-3" d="m288.332,89.615s-1.353.313-3.777,2.172c-1.527,1.171-4.592,1.503-4.592,1.503"/>
          <path class="cls-3" d="m262.455,105.118c.428-.252,5.445-.699,8.319,1.504"/>
          <path class="cls-3" d="m269.214,102.015s5.793,6.73,12.112-.8"/>
          <path class="cls-3" d="m283.457,107.278s-2.745-.578-3.862-1.515-5.475-1.035-5.475-1.035"/>
          <path class="cls-3" d="m285.041,102.932s-1.384,1.209-4.302,1.19"/>
          <path class="cls-3" d="m262.639,110.044s5.413,3.7,9.092,1.839"/>
          <path class="cls-3" d="m282.606,112.004s-1.088,2.316-3.974,2.539c-2.886.223-6.483-.096-8.56-.84"/>
          <path class="cls-3" d="m279.731,117.331s1.919-1.706-3.869-2.667"/>
          <path class="cls-3" d="m261.424,115.534s4.5,2.064,5.334,4.502c.834,2.438,5.649,1.994,5.649,1.994"/>
          <path class="cls-3" d="m261.079,119.02s1.329,1.505,5.679,1.016"/>
          <path class="cls-3" d="m280.147,123.223s-.815-1.217-3.855-.378-5.228,1.213-7.163.401"/>
          <path class="cls-3" d="m275.131,125.062s1.983,1.161,3.622-.871"/>
          <path class="cls-3" d="m258.225,123.402s6.196-.136,8.296,5.801c0,0-.436,1.691,4.644,1.963s6.91-.657,8.179.153"/>
          <path class="cls-3" d="m278.199,132.8s-1.249,1.034-4.905-1.405"/>
          <path class="cls-3" d="m259.372,126.756s1.707,3.119,7.15,2.447"/>
          <path class="cls-3" d="m261.009,131.944s6.733,2.585,8.731,4.81c1.997,2.225,6.025.995,6.025.995"/>
          <path class="cls-3" d="m255.598,132.29s2.183,3.748,5.023,3.569c2.84-.179,2.713-.247,5.091,1.519,2.379,1.766,6.922.68,6.922.68"/>
          <path class="cls-3" d="m256.775,138.055s2.68,2.794,6.312,3.445"/>
          <path class="cls-3" d="m267.528,143.52s-5.107,1.311-7.591-.745-4.237-1.999-4.237-1.999"/>
        </g>
      </g>
    </g>
    <path class="cls-16" d="m238.213,119.802s13.037,14.943,17.268,25.805c1.904,4.889-1.119,7.446-.613,13.087.908,10.141,2.533,20.484,9.875,26.276,7.412,5.847,18.371,8.549,28.784,8.36,6.083-.111,7.388,7.054,7.388,9.589l3.896.497c-2.074-2.708-1.547-13.593.505-15.987,3.015-3.519,5.624-7.898,6.112-14.437,1.215-16.279-5.102-23.765-24.762-26.744-5.663-.858-17.795,2.228-25.461-5.185-14.848-14.358-17.697-20.048-18.794-23.031"/>
    <polygon class="cls-61" points="232.499 107.681 230.717 91.126 226.128 95.339 206.286 74.025 201.299 78.195 221.347 99.729 216.125 104.523 232.499 107.681"/>
    <line class="cls-6" x1="243.585" y1="205.194" x2="272.145" y2="176.742"/>
    <g>
      <path class="cls-61" d="m160.667,42.55c-.336.096-.576.144-.744.192-.792.192-.912.24-1.608.432-.096.576-.24.816-.432.816-.096,0-.192-.096-.264-.24-.024-.048-.24-.96-.648-2.688.6.024,1.032.024,1.176.024.264,0,.744,0,1.248-.024,2.328-3.36,3.408-5.232,4.176-7.273,2.496,1.056,2.76,1.2,2.904,1.417,0-.024-.024-1.344-.096-3.913,1.32.624,1.704.84,2.88,1.56h6.168c.6-.648.792-.864,1.392-1.512.888.648,1.152.84,1.968,1.512.192.144.264.264.264.384,0,.216-.144.336-.84.744v5.736c0,6.312.024,8.257.144,12.361,0,.216-.024.312-.096.384-.168.192-.744.312-1.632.312-.792,0-.936-.072-.936-.504v-1.128h-6.697v1.08c0,.24-.024.336-.072.432-.144.192-.624.288-1.56.288-.816,0-.984-.072-.984-.48v-.096c.12-2.856.12-3.864.12-11.473v-2.784l-.024-2.76c-.12.192-.312.24-.936.264-2.208,2.568-3.984,4.44-5.088,5.4,1.488-.096,2.52-.168,3.528-.264-.24-.888-.384-1.224-.864-2.112l.144-.168c2.208,1.512,2.952,2.352,2.952,3.312s-.648,1.873-1.296,1.873c-.36,0-.528-.336-.6-1.032-.024-.336-.048-.6-.144-1.104-.6.216-.84.312-1.296.432v5.064c.024,1.393.048,2.473.048,3.265.024,1.176.024,1.224.048,2.28,0,.288-.072.408-.288.48-.168.048-.864.12-1.344.12-.648,0-.768-.072-.768-.456.072-1.536.096-3.648.096-5.641v-1.464l-.408.072c-.912,3.096-1.656,4.656-3.168,6.721l-.264-.144c.816-2.688,1.344-5.737,1.392-8.113,1.248.312,1.656.432,2.448.696v-2.28Zm-3.288-8.424c.864.408,1.128.528,1.872.936.624-1.44.96-2.521,1.344-4.272,3.336,1.008,3.48,1.08,3.48,1.344s-.288.36-1.104.408c-1.176,1.296-1.824,1.92-3,2.928.984.648,1.296,1.056,1.296,1.704,0,.888-.72,1.848-1.392,1.848-.312,0-.408-.144-.696-1.08-.216-.672-.528-1.416-.96-2.208-.264-.504-.456-.768-1.032-1.392l.192-.216Zm5.88,9.457c1.944,1.584,2.88,2.88,2.88,3.984,0,.96-.768,1.992-1.464,1.992-.36,0-.456-.192-.48-1.176-.072-2.184-.336-3.192-1.128-4.632l.192-.168Zm7.801-10.225h-2.064v7.849h2.064v-7.849Zm0,8.353h-2.064v8.929h2.064v-8.929Zm4.632-.504v-7.849h-2.256v7.849h2.256Zm-2.256,9.433h2.256v-8.929h-2.256v8.929Z"/>
      <path class="cls-61" d="m194.148,33.525v-.744c0-.792-.024-1.056-.072-1.728.696.048,1.249.096,1.608.12,1.512.096,1.944.192,1.944.456,0,.216-.24.384-.937.6v1.296h2.305c.768-.864,1.008-1.104,1.8-1.92,1.128.864,1.464,1.128,2.521,2.064.096.096.144.168.144.216,0,.072-.096.144-.239.144h-6.529c0,.672.024.816.048,1.608v.072c0,.456-.36.576-1.656.576-.864,0-.984-.072-.984-.456.024-.864.024-1.056.048-1.8h-4.225q0,1.128.024,1.704c0,.192-.024.264-.12.336-.168.144-.72.216-1.536.216-.864,0-.96-.048-.96-.432.024-.864.048-1.008.048-1.824h-4.272c-.624,0-1.08.048-1.608.144l-.144-.84c.648.144,1.104.192,1.8.192h4.249v-.912c0-.696-.024-.936-.072-1.584.768.072,1.344.144,1.728.168,1.416.12,1.776.216,1.776.48,0,.216-.192.336-.912.576v1.272h4.225Zm4.561,3.504c.6-.648.792-.816,1.416-1.368.84.624,1.104.816,1.92,1.44.192.168.288.288.288.408,0,.192-.216.36-.912.72,0,9.145.024,11.521.144,14.233,0,.552-.312.672-1.872.672-.648,0-.768-.048-.768-.456v-.936h-13.633v.864c0,.456-.312.552-1.632.552-.816,0-.96-.072-.96-.528.096-2.904.12-5.424.12-11.305,0-2.832-.024-4.032-.12-5.76,1.272.552,1.632.768,2.88,1.464h13.129Zm-13.417.504v13.705h13.633v-13.705h-13.633Zm7.825,5.4h2.04c.576-.696.769-.912,1.368-1.56.888.72,1.152.96,1.944,1.752.096.072.12.144.12.168,0,.096-.096.144-.24.144h-5.232v.84c1.488.408,2.592.84,3.72,1.464.912.528,1.272,1.032,1.272,1.8,0,.84-.576,1.68-1.152,1.68-.264,0-.408-.144-.72-.72-.816-1.56-1.729-2.688-3.121-3.888,0,2.136,0,2.4.072,5.304,0,.312-.072.432-.336.528-.144.024-.984.096-1.44.096-.504,0-.672-.096-.672-.384v-.048c.048-2.088.048-2.328.048-3.048v-1.176c-1.824,1.728-2.832,2.424-5.208,3.528l-.12-.192c2.088-1.848,3.504-3.601,4.752-5.785h-2.928c-.408,0-.96.048-1.32.12l-.12-.768c.48.096.96.144,1.44.144h3.504v-2.232c-1.224.072-2.304.12-3.336.12-.216,0-.576,0-1.032-.024l-.048-.264c2.809-.528,3.816-.744,5.208-1.152,1.992-.576,2.833-.912,3.552-1.392,1.873,1.344,2.329,1.728,2.329,1.92,0,.144-.144.24-.312.24-.096,0-.528-.072-.864-.168-1.488.288-2.064.384-3.168.528v2.424Z"/>
      <path class="cls-61" d="m220.092,34.294c.12,2.232.408,3.696.912,4.992.889-1.416,1.177-2.112,1.584-3.672q3.072.984,3.072,1.248c0,.216-.191.288-1.008.408-.96,1.848-1.536,2.688-2.568,3.937.672.912,1.08,1.272,2.328,2.016q.601-1.008,1.992-3.816l.24.048-.528,3.096c-.071.384-.119.672-.119.792,0,.312.048.384.432.72.264.264.384.504.384.84,0,.744-.552,1.296-1.32,1.296-1.487,0-3.672-1.44-5.064-3.336-.575.48-1.176.888-1.872,1.249-.768.432-1.224.6-3.768,1.392l-.145-.216c2.328-1.32,3.553-2.304,4.872-3.912-1.008-1.944-1.464-3.745-1.775-7.081h-8.257v.744c0,2.928-.265,5.28-.744,6.816-.408,1.32-1.104,2.592-2.041,3.72-.456.528-.816.888-1.656,1.656l-.192-.144c1.608-3.072,2.065-5.424,2.065-10.537,0-1.584-.048-2.592-.193-4.224,1.345.576,1.752.768,3.049,1.464h7.92c-.023-.36-.023-.384-.048-.624-.096-1.32-.096-1.488-.216-2.256.696.048,1.2.096,1.536.12,1.561.12,1.872.216,1.872.48,0,.168-.216.312-.768.504v1.776h2.784c-.24-.096-.288-.144-.528-.744-.312-.744-.504-1.008-1.272-1.752l.12-.192c2.185.336,3.001.744,3.001,1.512,0,.6-.288.96-.937,1.176h.72q.601-.672,1.152-1.296c.744.624.96.816,1.632,1.488.072.096.097.144.097.192,0,.072-.072.12-.216.12h-6.529Zm-11.185,12.001c.216.936.264,1.392.264,2.016,0,2.256-1.176,4.104-2.617,4.104-.72,0-1.271-.768-1.271-1.752,0-.696.168-.912.983-1.248.721-.288,1.393-.84,1.801-1.488.264-.432.407-.816.6-1.632h.24Zm5.328-9.793c.601-.72.769-.936,1.368-1.608.984.768,1.272,1.008,2.208,1.776.097.096.12.168.12.216,0,.072-.096.12-.191.12h-6.769c-.553,0-.696.024-1.177.096l-.12-.768c.553.144.769.168,1.297.168h3.264Zm-1.704,7.321c0,.504-.264.624-1.44.624-.743,0-.911-.072-.911-.504.071-1.416.071-2.016.071-3.864,0-1.176,0-1.488-.071-2.448,1.08.456,1.416.6,2.496,1.152h2.063c.48-.552.624-.72,1.129-1.224.743.528.983.696,1.655,1.224.192.144.265.24.265.336,0,.144-.12.264-.576.528,0,2.184,0,2.304.023,3.48,0,.48-.336.6-1.607.6-.624,0-.744-.048-.744-.36v-.408h-2.353v.864Zm-1.68,3.528c0-.576-.024-.936-.097-1.68,3.433.288,3.48.288,3.48.6,0,.216-.168.312-.84.552v2.928c0,.48.048.552.288.648.216.072,1.08.096,2.664.096,2.904,0,3.168-.048,3.456-.48.336-.456.864-1.728,1.416-3.312l.24.048-.168,2.712c-.023.072-.023.12-.023.12,0,.288.071.408.312.48.504.192.648.264.769.384.191.192.288.456.288.768,0,.6-.385,1.104-1.032,1.272-.433.12-.721.144-1.824.168-.96.024-3.145.072-3.912.072-3.049,0-3.865-.072-4.369-.36-.479-.288-.647-.624-.672-1.368v-.528q0-.144.024-1.488v-1.632Zm1.68-4.896h2.353v-3.168h-2.353v3.168Zm2.784,3.048c1.032.24,2.16.624,2.809.936.696.336,1.08.864,1.08,1.44,0,.84-.672,1.56-1.464,1.56-.336,0-.505-.168-.648-.576-.504-1.32-.96-2.088-1.896-3.168l.12-.192Zm6.913.816c1.68.696,2.592,1.2,3.456,1.872.888.696,1.2,1.2,1.2,1.848,0,1.08-.864,2.208-1.729,2.208-.312,0-.479-.192-.6-.672-.648-2.4-1.225-3.6-2.473-5.112l.145-.144Z"/>
      <path class="cls-61" d="m239.052,43.942c0-.864-.024-1.224-.096-2.064,3.191.216,3.528.264,3.528.6,0,.216-.265.384-.961.6v1.728h5.161c.744-.864.983-1.128,1.704-1.944,1.152.864,1.512,1.128,2.616,2.064.096.12.144.168.144.24,0,.072-.096.144-.264.144h-9.097c.984,1.104,1.632,1.608,2.784,2.185,2.112,1.056,4.008,1.512,7.009,1.68v.24c-1.009.648-1.536,1.272-1.921,2.328-.119.336-.168.408-.336.408-.191,0-.863-.264-1.704-.672-1.368-.672-2.976-1.824-3.984-2.856-.672-.72-1.151-1.368-2.112-2.88l.024,3.192c.024,1.344.048,2.544.12,3.6,0,.552-.312.672-1.752.672-.841,0-.96-.072-.96-.528q.071-1.896.071-3.528l.024-2.208c-1.8,1.704-2.952,2.568-4.633,3.504-1.56.84-2.855,1.344-5.064,1.968l-.12-.24c2.521-1.392,3.721-2.256,5.401-3.888,1.08-1.056,1.655-1.704,2.567-2.977h-5.736c-.576,0-1.056.048-1.488.144l-.144-.84c.479.12,1.032.192,1.608.192h7.608v-.864Zm-9.409-9.385c1.608.24,2.568.48,3.24.84.553.288.744.576.744,1.104,0,.936-.552,1.728-1.2,1.728-.359,0-.456-.096-.815-.84-.48-1.032-.96-1.608-2.064-2.616l.096-.216Zm4.465,5.329c-.265.456-.384.744-.384,1.008q0,.12.216.696c.096.24.168.6.168.888,0,1.056-.937,1.896-2.089,1.896-.479,0-.792-.264-.792-.624,0-.216.049-.432.24-1.104.168-.672.24-1.008.24-1.416,0-.696-.312-.96-1.992-1.632l.072-.288c1.488.336,1.752.384,2.136.384.36,0,.721-.264,1.272-.936q1.368-1.728,2.616-3.289,1.104-1.368,2.088-2.688l.24.168-1.2,2.064h3c.048-.768.072-1.128.072-1.968,0-.648-.024-1.08-.048-1.896,2.977.288,3.145.312,3.408.408.168.072.264.144.264.264,0,.216-.216.36-1.008.624-.072,1.416-.096,1.896-.168,2.568h2.064c.624-.672.815-.864,1.416-1.44.84.6,1.08.792,1.872,1.44.144.144.216.24.216.336,0,.24-.216.432-.84.72v3.913c0,.36.096.408.672.408.601,0,.816-.096,1.057-.528.168-.312.264-.552.552-1.32.096-.192.168-.408.24-.6.119-.312.312-.816.552-1.464l.24.024-.24,2.952v.24c0,.24.096.36.336.456.552.216.672.384.672.864,0,.504-.216.864-.647,1.104-.408.216-1.057.312-2.353.312-2.328,0-2.641-.024-3.024-.24-.336-.216-.456-.504-.48-1.2v-5.472h-2.376c-.288,1.968-.792,3.192-1.8,4.464-1.32,1.656-2.809,2.544-6.097,3.624l-.144-.24c1.655-1.056,2.376-1.584,3.168-2.448,1.368-1.464,2.064-3.096,2.353-5.4h-3.217l-2.544,4.368Zm-2.736-8.497c3.168.504,4.152.984,4.152,2.016,0,.84-.624,1.656-1.272,1.656-.288,0-.359-.072-.792-.864-.479-.912-1.104-1.632-2.184-2.592l.096-.216Z"/>
    </g>
    <g>
      <path class="cls-61" d="m177.762,211.806c-.364,4.498-1.222,6.891-3.64,10.036l-.26-.182c1.274-3.484,1.638-7.177,1.638-16.484,0-3.042-.052-5.876-.104-7.28,1.248.572,1.612.779,2.808,1.456h1.274c.52-.624.676-.807,1.196-1.378.858.546,1.118.728,1.846,1.3.208.156.286.286.286.364,0,.208-.208.39-.728.701v11.597l.026,6.708c-.052,1.353-.364,1.95-1.352,2.444-.468.234-1.092.391-1.638.391-.26,0-.338-.104-.364-.469-.104-1.325-.416-1.664-2.158-2.184l.026-.26c1.3.052,1.638.077,2.652.077.312,0,.364-.052.364-.416v-6.422h-1.872Zm1.872-6.11h-1.664c0,2.496-.052,3.511-.156,5.564h1.82v-5.564Zm0-5.798h-1.638c0,.208-.026,1.95-.026,5.252h1.664v-5.252Zm11.987,13.312c.39,1.3.65,1.742,1.508,2.6,1.3-1.117,1.508-1.378,2.158-2.418.598.338,1.04.572,1.352.754,1.066.572,1.378.807,1.378.988,0,.156-.182.26-.442.26-.234,0-.494-.025-.806-.078-1.352.547-2.002.78-3.042,1.041,1.534,1.144,2.938,1.664,5.33,2.054l-.026.26c-.884.442-1.248.937-1.664,2.21-.052.156-.156.26-.286.26-.182,0-.494-.13-.936-.416-1.352-.832-2.21-1.586-3.068-2.678-2.132,1.145-3.718,1.846-6.5,2.86-.104.624-.234.884-.442.884-.312,0-.468-.468-1.222-3.354h.442c.442,0,.962-.026,1.794-.104v-5.122h-1.508c-.182,2.028-.442,3.328-.936,4.524-.624,1.611-1.352,2.651-2.834,4.134l-.234-.156c1.352-2.782,1.742-5.434,1.742-12.194,0-.806-.026-1.534-.104-2.886q.312.156.65.312v-.182c.052-1.508.078-2.236.078-3.146,0-2.521-.026-3.978-.078-4.862,1.196.521,1.56.702,2.704,1.301h1.118v-.65c0-.65-.026-.988-.078-1.69.624.104,1.092.156,1.404.183,1.144.13,1.534.26,1.534.468,0,.156-.208.312-.676.468v1.223h1.326v-.702c0-.754,0-1.015-.078-1.612.624.078,1.092.13,1.404.156,1.144.13,1.534.233,1.534.468,0,.156-.208.312-.754.494v1.196h1.248c.416-.442.832-.858,1.222-1.248.806.546,1.04.701,1.82,1.248.208.155.286.26.286.363,0,.183-.208.364-.78.702v1.378c0,1.248.026,2.106.078,3.927,0,.286-.13.39-.52.468.702.468.962.65,1.846,1.352.078.078.104.131.104.183,0,.078-.078.13-.234.13h-12.559c-.052,1.95-.078,2.704-.182,4.108h8.996c.702-.702.91-.937,1.56-1.586,1.066.728,1.378.962,2.34,1.768.104.078.156.156.156.208,0,.104-.104.156-.261.156h-6.864Zm-5.278-6.553c0,.183-.052.261-.13.338-.182.131-.728.209-1.3.209h-.468c.442.233.806.416,1.534.806h8.97c.468-.521.624-.676,1.014-1.04h-.39c-.624,0-.728-.052-.754-.391v-.26h-8.476v.338Zm1.404-3.926v-2.132h-1.404v2.132h1.404Zm0,3.042v-2.496h-1.404v2.496h1.404Zm-1.3,4.343c.624.13.962.155,1.768.155h5.044c.546-.52,1.04-1.014,1.534-1.456.988.676,1.274.91,2.262,1.69.078.078.104.13.104.182,0,.078-.078.13-.208.13h-8.736c-.728,0-1.04.026-1.586.104l-.182-.806Zm3.068,3.094v4.888c1.56-.182,2.002-.233,3.276-.441-.832-1.248-1.378-2.704-1.664-4.446h-1.612Zm1.742-10.479v-2.132h-1.326v2.132h1.326Zm0,3.042v-2.496h-1.326v2.496h1.326Zm3.562-3.042v-2.132h-1.456v2.132h1.456Zm0,3.042v-2.496h-1.456v2.496h1.456Z"/>
      <path class="cls-61" d="m209.43,221.426c2.184-3.483,2.964-6.084,3.354-11.18-.676.909-1.039,1.378-2.132,2.678v.104c0,.857-.104,1.144-.364,1.144-.104,0-.233-.13-.363-.338-.104-.183-.521-1.248-1.248-3.198,1.3-.312,2.756-.884,4.186-1.638.053-1.456.078-2.496.078-3.979,0-2.106-.052-3.328-.208-6.214,1.482.701,1.925.936,3.276,1.742h5.096v-1.066c0-.676-.025-1.092-.104-1.95,3.38.286,3.926.39,3.926.728,0,.234-.208.364-.987.677v1.612h4.523c.832-.963,1.066-1.248,1.847-2.106,1.3.936,1.689,1.222,2.938,2.236.078.077.104.155.104.233,0,.104-.13.183-.312.183h-17.368c-.026,6.812-.104,8.372-.468,10.687-.469,2.729-1.404,5.069-2.809,7.046-.754,1.04-1.378,1.69-2.678,2.808l-.286-.208Zm-.156-19.292c2.626,2.002,3.25,2.729,3.25,3.796,0,1.04-.91,2.158-1.742,2.158-.39,0-.571-.312-.624-1.223-.104-1.768-.416-3.042-1.144-4.576l.26-.155Zm19.657,8.476c.857-.832,1.118-1.118,1.897-1.872,1.066.832,1.378,1.093,2.393,1.977.078.104.13.208.13.26,0,.104-.13.182-.312.182h-11.076c-.728.988-.91,1.196-1.508,1.82h8.632c.599-.546.807-.702,1.379-1.195.832.52,1.065.701,1.846,1.248.26.182.338.312.338.441,0,.234-.026.26-.78.78-.728,4.68-.91,5.356-1.638,6.24-.442.546-1.092.884-2.132,1.065-.364.078-.65.104-.858.104-.364,0-.442-.078-.468-.598-.052-.442-.338-.962-.702-1.274-.391-.286-.78-.442-1.769-.729v-.285c.442.025.755.052.988.052.937.052,1.82.104,2.21.104.572,0,.754-.155.962-.754.339-.962.599-2.444.832-4.654h-.571c-1.118,2.028-1.925,2.99-3.536,4.213-2.314,1.741-4.576,2.704-8.165,3.51l-.13-.234c4.524-2.184,7.15-4.368,8.971-7.488h-1.456c-1.17,1.509-1.95,2.236-3.303,3.198-1.924,1.353-3.899,2.263-7.124,3.25l-.13-.312c2.34-1.222,3.641-2.08,5.174-3.433,1.041-.936,1.561-1.533,2.444-2.704h-1.612c-1.611,1.431-3.016,2.288-5.563,3.381l-.13-.261c1.716-1.3,2.756-2.34,3.874-3.899.364-.521.571-.832.987-1.587h-1.222c-.676,0-1.222.053-1.95.209l-.208-.988c.858.182,1.196.233,2.158.233h11.129Zm-2.028-7.67q.676-.728,1.3-1.378c.884.572,1.145.754,1.95,1.378.234.156.312.286.312.39,0,.208-.104.312-.807.807-.052,1.378-.052,2.184-.052,2.6,0,.624,0,1.145.052,2.496-.025.183-.052.26-.156.312-.26.13-.987.208-1.664.208-.701,0-.857-.078-.884-.442v-.598h-6.006v.546c-.026.26-.078.338-.312.416-.155.052-1.248.156-1.689.156-.494,0-.729-.13-.729-.442v-.078c.078-1.95.104-2.418.104-3.614,0-1.664-.053-3.016-.131-4.134,1.301.546,1.69.728,2.938,1.378h5.772Zm.052.546h-6.006v1.95h6.006v-1.95Zm-6.006,2.496v2.185h6.006v-2.185h-6.006Z"/>
    </g>
    <path class="cls-62" d="m302.615,201.922s-1.04,2.37-1.715,3.508.003,3.118,1.826,3.034c1.878-.087,2.034-2.102,1.804-2.813s-1.455-2.36-1.914-3.729Z"/>
    <path class="cls-62" d="m302.615,209.758s-1.143,3.199-1.807,4.911c-.935,2.408.095,5.034,1.918,4.907,1.878-.13,1.925-3.447,1.49-4.907-.454-1.523-1.142-2.856-1.601-4.911Z"/>
    <path class="cls-62" d="m302.615,222.561s-1.142,4.603-1.715,6.854c-.984,3.866-.003,5.871,1.826,5.928,2.148.067,2.648-3.356,1.804-5.496-.517-1.31-1.455-4.611-1.914-7.286Z"/>
  </g>
</svg>