<?xml version="1.0" encoding="UTF-8"?>
<svg id="_イヤー_1" data-name="レイヤー 1" xmlns="http://www.w3.org/2000/svg" width="145.242mm" height="90.074mm" xmlns:xlink="http://www.w3.org/1999/xlink" viewBox="0 0 411.711 255.328">
  <defs>
    <style>
      .cls-1, .cls-2 {
        stroke-width: 1.3px;
      }

      .cls-1, .cls-2, .cls-3, .cls-4, .cls-5, .cls-6 {
        fill: none;
      }

      .cls-1, .cls-2, .cls-3, .cls-4, .cls-6 {
        stroke: #ae373e;
      }

      .cls-1, .cls-3, .cls-6 {
        stroke-linejoin: round;
      }

      .cls-7 {
        fill: url(#_称未設定グラデーション_49-2);
      }

      .cls-8 {
        fill: url(#_称未設定グラデーション_49);
      }

      .cls-9 {
        fill: url(#_称未設定グラデーション_138-2);
      }

      .cls-9, .cls-2, .cls-4, .cls-5, .cls-10 {
        stroke-miterlimit: 10;
      }

      .cls-9, .cls-5, .cls-10 {
        stroke: #7e4f22;
        stroke-width: 1.465px;
      }

      .cls-11 {
        fill: url(#_規グラデーションスウォッチ_4-2);
      }

      .cls-11, .cls-12, .cls-13, .cls-14, .cls-15 {
        opacity: .091;
      }

      .cls-3 {
        stroke-linecap: round;
        stroke-width: 1.45px;
      }

      .cls-16 {
        fill: #89c6cb;
      }

      .cls-17 {
        fill: #ae373e;
      }

      .cls-18 {
        fill: url(#_規グラデーションスウォッチ_4-37);
      }

      .cls-18, .cls-19, .cls-20, .cls-21, .cls-22 {
        opacity: 0;
      }

      .cls-19 {
        fill: url(#_規グラデーションスウォッチ_4-49);
      }

      .cls-20 {
        fill: url(#_規グラデーションスウォッチ_4-25);
      }

      .cls-21 {
        fill: url(#_規グラデーションスウォッチ_4-13);
      }

      .cls-4, .cls-6 {
        stroke-width: 1.279px;
      }

      .cls-23 {
        fill: url(#_規グラデーションスウォッチ_4-58);
      }

      .cls-23, .cls-24, .cls-25, .cls-26, .cls-27 {
        opacity: .818;
      }

      .cls-24 {
        fill: url(#_規グラデーションスウォッチ_4-46);
      }

      .cls-25 {
        fill: url(#_規グラデーションスウォッチ_4-34);
      }

      .cls-26 {
        fill: url(#_規グラデーションスウォッチ_4-22);
      }

      .cls-27 {
        fill: url(#_規グラデーションスウォッチ_4-10);
      }

      .cls-28 {
        fill: url(#_規グラデーションスウォッチ_4-35);
      }

      .cls-28, .cls-29, .cls-30, .cls-31, .cls-32 {
        opacity: .909;
      }

      .cls-29 {
        fill: url(#_規グラデーションスウォッチ_4-47);
      }

      .cls-30 {
        fill: url(#_規グラデーションスウォッチ_4-59);
      }

      .cls-31 {
        fill: url(#_規グラデーションスウォッチ_4-23);
      }

      .cls-32 {
        fill: url(#_規グラデーションスウォッチ_4-11);
      }

      .cls-33 {
        fill: url(#_規グラデーションスウォッチ_4-45);
      }

      .cls-33, .cls-34, .cls-35, .cls-36, .cls-37 {
        opacity: .727;
      }

      .cls-34 {
        fill: url(#_規グラデーションスウォッチ_4-33);
      }

      .cls-35 {
        fill: url(#_規グラデーションスウォッチ_4-57);
      }

      .cls-36 {
        fill: url(#_規グラデーションスウォッチ_4-21);
      }

      .cls-38 {
        fill: url(#_規グラデーションスウォッチ_4-42);
      }

      .cls-38, .cls-39, .cls-40, .cls-41, .cls-42 {
        opacity: .455;
      }

      .cls-39 {
        fill: url(#_規グラデーションスウォッチ_4-30);
      }

      .cls-40 {
        fill: url(#_規グラデーションスウォッチ_4-54);
      }

      .cls-41 {
        fill: url(#_規グラデーションスウォッチ_4-18);
      }

      .cls-43 {
        fill: url(#_規グラデーションスウォッチ_4-44);
      }

      .cls-43, .cls-44, .cls-45, .cls-46, .cls-47 {
        opacity: .636;
      }

      .cls-44 {
        fill: url(#_規グラデーションスウォッチ_4-32);
      }

      .cls-45 {
        fill: url(#_規グラデーションスウォッチ_4-56);
      }

      .cls-46 {
        fill: url(#_規グラデーションスウォッチ_4-20);
      }

      .cls-48 {
        fill: url(#_規グラデーションスウォッチ_4-41);
      }

      .cls-48, .cls-49, .cls-50, .cls-51, .cls-52 {
        opacity: .364;
      }

      .cls-49 {
        fill: url(#_規グラデーションスウォッチ_4-53);
      }

      .cls-50 {
        fill: url(#_規グラデーションスウォッチ_4-29);
      }

      .cls-51 {
        fill: url(#_規グラデーションスウォッチ_4-17);
      }

      .cls-53 {
        fill: url(#_規グラデーションスウォッチ_4-19);
      }

      .cls-53, .cls-54, .cls-55, .cls-56, .cls-57 {
        opacity: .545;
      }

      .cls-54 {
        fill: url(#_規グラデーションスウォッチ_4-43);
      }

      .cls-55 {
        fill: url(#_規グラデーションスウォッチ_4-31);
      }

      .cls-56 {
        fill: url(#_規グラデーションスウォッチ_4-55);
      }

      .cls-58 {
        fill: url(#_規グラデーションスウォッチ_4-51);
      }

      .cls-58, .cls-59, .cls-60, .cls-61, .cls-62 {
        opacity: .182;
      }

      .cls-59 {
        fill: url(#_規グラデーションスウォッチ_4-39);
      }

      .cls-60 {
        fill: url(#_規グラデーションスウォッチ_4-15);
      }

      .cls-61 {
        fill: url(#_規グラデーションスウォッチ_4-27);
      }

      .cls-63 {
        fill: url(#_規グラデーションスウォッチ_4-40);
      }

      .cls-63, .cls-64, .cls-65, .cls-66, .cls-67 {
        opacity: .273;
      }

      .cls-64 {
        fill: url(#_規グラデーションスウォッチ_4-52);
      }

      .cls-65 {
        fill: url(#_規グラデーションスウォッチ_4-16);
      }

      .cls-66 {
        fill: url(#_規グラデーションスウォッチ_4-28);
      }

      .cls-68 {
        fill: url(#_規グラデーションスウォッチ_4-24);
      }

      .cls-69 {
        fill: url(#_規グラデーションスウォッチ_4-12);
      }

      .cls-70 {
        fill: url(#_規グラデーションスウォッチ_4-36);
      }

      .cls-71 {
        fill: url(#_規グラデーションスウォッチ_4-60);
      }

      .cls-72 {
        fill: url(#_規グラデーションスウォッチ_4-48);
      }

      .cls-22 {
        fill: url(#_規グラデーションスウォッチ_4);
      }

      .cls-10 {
        fill: url(#_称未設定グラデーション_138);
      }

      .cls-37 {
        fill: url(#_規グラデーションスウォッチ_4-9);
      }

      .cls-73 {
        fill: url(#_称未設定グラデーション_8);
      }

      .cls-57 {
        fill: url(#_規グラデーションスウォッチ_4-7);
      }

      .cls-52 {
        fill: url(#_規グラデーションスウォッチ_4-5);
      }

      .cls-47 {
        fill: url(#_規グラデーションスウォッチ_4-8);
      }

      .cls-67 {
        fill: url(#_規グラデーションスウォッチ_4-4);
      }

      .cls-42 {
        fill: url(#_規グラデーションスウォッチ_4-6);
      }

      .cls-62 {
        fill: url(#_規グラデーションスウォッチ_4-3);
      }

      .cls-74 {
        opacity: .23;
      }

      .cls-75 {
        opacity: .7;
      }

      .cls-12 {
        fill: url(#_規グラデーションスウォッチ_4-26);
      }

      .cls-13 {
        fill: url(#_規グラデーションスウォッチ_4-14);
      }

      .cls-14 {
        fill: url(#_規グラデーションスウォッチ_4-38);
      }

      .cls-15 {
        fill: url(#_規グラデーションスウォッチ_4-50);
      }
    </style>
    <linearGradient id="_称未設定グラデーション_138" data-name="名称未設定グラデーション 138" x1="131.841" y1="157.378" x2="276.705" y2="157.378" gradientTransform="matrix(1, 0, 0, 1, 0, 0)" gradientUnits="userSpaceOnUse">
      <stop offset="0" stop-color="#c65a45"/>
      <stop offset=".504" stop-color="#e6bfa0"/>
      <stop offset="1" stop-color="#c65a45"/>
    </linearGradient>
    <linearGradient id="_称未設定グラデーション_138-2" data-name="名称未設定グラデーション 138" x1="106.216" y1="74.513" x2="300.955" y2="74.513" xlink:href="#_称未設定グラデーション_138"/>
    <linearGradient id="_規グラデーションスウォッチ_4" data-name="新規グラデーションスウォッチ 4" x1="201.459" y1="89.933" x2="210.898" y2="89.933" gradientTransform="matrix(1, 0, 0, 1, 0, 0)" gradientUnits="userSpaceOnUse">
      <stop offset="0" stop-color="#c0725a"/>
      <stop offset="1" stop-color="#c0725a"/>
    </linearGradient>
    <linearGradient id="_規グラデーションスウォッチ_4-2" data-name="新規グラデーションスウォッチ 4" x1="201.682" y1="89.933" x2="210.675" y2="89.933" xlink:href="#_規グラデーションスウォッチ_4"/>
    <linearGradient id="_規グラデーションスウォッチ_4-3" data-name="新規グラデーションスウォッチ 4" x1="201.906" x2="210.452" xlink:href="#_規グラデーションスウォッチ_4"/>
    <linearGradient id="_規グラデーションスウォッチ_4-4" data-name="新規グラデーションスウォッチ 4" x1="202.129" x2="210.229" xlink:href="#_規グラデーションスウォッチ_4"/>
    <linearGradient id="_規グラデーションスウォッチ_4-5" data-name="新規グラデーションスウォッチ 4" x1="202.352" y1="89.933" x2="210.006" y2="89.933" xlink:href="#_規グラデーションスウォッチ_4"/>
    <linearGradient id="_規グラデーションスウォッチ_4-6" data-name="新規グラデーションスウォッチ 4" x1="202.575" y1="89.933" x2="209.783" y2="89.933" xlink:href="#_規グラデーションスウォッチ_4"/>
    <linearGradient id="_規グラデーションスウォッチ_4-7" data-name="新規グラデーションスウォッチ 4" x1="202.798" y1="89.933" x2="209.56" y2="89.933" xlink:href="#_規グラデーションスウォッチ_4"/>
    <linearGradient id="_規グラデーションスウォッチ_4-8" data-name="新規グラデーションスウォッチ 4" x1="203.021" y1="89.933" x2="209.337" y2="89.933" xlink:href="#_規グラデーションスウォッチ_4"/>
    <linearGradient id="_規グラデーションスウォッチ_4-9" data-name="新規グラデーションスウォッチ 4" x1="203.244" y1="89.933" x2="209.113" y2="89.933" xlink:href="#_規グラデーションスウォッチ_4"/>
    <linearGradient id="_規グラデーションスウォッチ_4-10" data-name="新規グラデーションスウォッチ 4" x1="203.467" y1="89.933" x2="208.89" y2="89.933" xlink:href="#_規グラデーションスウォッチ_4"/>
    <linearGradient id="_規グラデーションスウォッチ_4-11" data-name="新規グラデーションスウォッチ 4" x1="203.69" y1="89.933" x2="208.667" y2="89.933" xlink:href="#_規グラデーションスウォッチ_4"/>
    <linearGradient id="_規グラデーションスウォッチ_4-12" data-name="新規グラデーションスウォッチ 4" x1="203.913" y1="89.933" x2="208.444" y2="89.933" xlink:href="#_規グラデーションスウォッチ_4"/>
    <linearGradient id="_規グラデーションスウォッチ_4-13" data-name="新規グラデーションスウォッチ 4" x1="215.242" y1="88.933" x2="224.681" y2="88.933" xlink:href="#_規グラデーションスウォッチ_4"/>
    <linearGradient id="_規グラデーションスウォッチ_4-14" data-name="新規グラデーションスウォッチ 4" x1="215.465" y1="88.933" x2="224.458" y2="88.933" xlink:href="#_規グラデーションスウォッチ_4"/>
    <linearGradient id="_規グラデーションスウォッチ_4-15" data-name="新規グラデーションスウォッチ 4" x1="215.688" y1="88.933" x2="224.235" y2="88.933" xlink:href="#_規グラデーションスウォッチ_4"/>
    <linearGradient id="_規グラデーションスウォッチ_4-16" data-name="新規グラデーションスウォッチ 4" x1="215.911" y1="88.933" x2="224.011" y2="88.933" xlink:href="#_規グラデーションスウォッチ_4"/>
    <linearGradient id="_規グラデーションスウォッチ_4-17" data-name="新規グラデーションスウォッチ 4" x1="216.134" y1="88.933" x2="223.788" y2="88.933" xlink:href="#_規グラデーションスウォッチ_4"/>
    <linearGradient id="_規グラデーションスウォッチ_4-18" data-name="新規グラデーションスウォッチ 4" x1="216.357" y1="88.933" x2="223.565" y2="88.933" xlink:href="#_規グラデーションスウォッチ_4"/>
    <linearGradient id="_規グラデーションスウォッチ_4-19" data-name="新規グラデーションスウォッチ 4" x1="216.581" y1="88.933" x2="223.342" y2="88.933" xlink:href="#_規グラデーションスウォッチ_4"/>
    <linearGradient id="_規グラデーションスウォッチ_4-20" data-name="新規グラデーションスウォッチ 4" x1="216.804" y1="88.933" x2="223.119" y2="88.933" xlink:href="#_規グラデーションスウォッチ_4"/>
    <linearGradient id="_規グラデーションスウォッチ_4-21" data-name="新規グラデーションスウォッチ 4" x1="217.027" y1="88.933" x2="222.896" y2="88.933" xlink:href="#_規グラデーションスウォッチ_4"/>
    <linearGradient id="_規グラデーションスウォッチ_4-22" data-name="新規グラデーションスウォッチ 4" x1="217.25" y1="88.933" x2="222.673" y2="88.933" xlink:href="#_規グラデーションスウォッチ_4"/>
    <linearGradient id="_規グラデーションスウォッチ_4-23" data-name="新規グラデーションスウォッチ 4" x1="217.473" y1="88.933" x2="222.45" y2="88.933" xlink:href="#_規グラデーションスウォッチ_4"/>
    <linearGradient id="_規グラデーションスウォッチ_4-24" data-name="新規グラデーションスウォッチ 4" x1="217.696" y1="88.933" x2="222.227" y2="88.933" xlink:href="#_規グラデーションスウォッチ_4"/>
    <linearGradient id="_規グラデーションスウォッチ_4-25" data-name="新規グラデーションスウォッチ 4" x1="230.471" y1="88.583" x2="239.91" y2="88.583" gradientTransform="translate(325.976 -146.258) rotate(90)" xlink:href="#_規グラデーションスウォッチ_4"/>
    <linearGradient id="_規グラデーションスウォッチ_4-26" data-name="新規グラデーションスウォッチ 4" x1="230.694" y1="88.583" x2="239.687" y2="88.583" gradientTransform="translate(325.976 -146.258) rotate(90)" xlink:href="#_規グラデーションスウォッチ_4"/>
    <linearGradient id="_規グラデーションスウォッチ_4-27" data-name="新規グラデーションスウォッチ 4" x1="230.917" y1="88.583" x2="239.463" y2="88.583" gradientTransform="translate(325.976 -146.258) rotate(90)" xlink:href="#_規グラデーションスウォッチ_4"/>
    <linearGradient id="_規グラデーションスウォッチ_4-28" data-name="新規グラデーションスウォッチ 4" x1="231.14" y1="88.583" x2="239.24" y2="88.583" gradientTransform="translate(325.976 -146.258) rotate(90)" xlink:href="#_規グラデーションスウォッチ_4"/>
    <linearGradient id="_規グラデーションスウォッチ_4-29" data-name="新規グラデーションスウォッチ 4" x1="231.363" y1="88.583" x2="239.017" y2="88.583" gradientTransform="translate(325.976 -146.258) rotate(90)" xlink:href="#_規グラデーションスウォッチ_4"/>
    <linearGradient id="_規グラデーションスウォッチ_4-30" data-name="新規グラデーションスウォッチ 4" x1="231.586" y1="88.583" x2="238.794" y2="88.583" gradientTransform="translate(325.976 -146.258) rotate(90)" xlink:href="#_規グラデーションスウォッチ_4"/>
    <linearGradient id="_規グラデーションスウォッチ_4-31" data-name="新規グラデーションスウォッチ 4" x1="231.809" y1="88.583" x2="238.571" y2="88.583" gradientTransform="translate(325.976 -146.258) rotate(90)" xlink:href="#_規グラデーションスウォッチ_4"/>
    <linearGradient id="_規グラデーションスウォッチ_4-32" data-name="新規グラデーションスウォッチ 4" x1="232.032" y1="88.583" x2="238.348" y2="88.583" gradientTransform="translate(325.976 -146.258) rotate(90)" xlink:href="#_規グラデーションスウォッチ_4"/>
    <linearGradient id="_規グラデーションスウォッチ_4-33" data-name="新規グラデーションスウォッチ 4" x1="232.256" y1="88.583" x2="238.125" y2="88.583" gradientTransform="translate(325.976 -146.258) rotate(90)" xlink:href="#_規グラデーションスウォッチ_4"/>
    <linearGradient id="_規グラデーションスウォッチ_4-34" data-name="新規グラデーションスウォッチ 4" x1="232.479" y1="88.583" x2="237.902" y2="88.583" gradientTransform="translate(325.976 -146.258) rotate(90)" xlink:href="#_規グラデーションスウォッチ_4"/>
    <linearGradient id="_規グラデーションスウォッチ_4-35" data-name="新規グラデーションスウォッチ 4" x1="232.702" y1="88.583" x2="237.679" y2="88.583" gradientTransform="translate(325.976 -146.258) rotate(90)" xlink:href="#_規グラデーションスウォッチ_4"/>
    <linearGradient id="_規グラデーションスウォッチ_4-36" data-name="新規グラデーションスウォッチ 4" x1="232.925" y1="88.583" x2="237.456" y2="88.583" gradientTransform="translate(325.976 -146.258) rotate(90)" xlink:href="#_規グラデーションスウォッチ_4"/>
    <linearGradient id="_規グラデーションスウォッチ_4-37" data-name="新規グラデーションスウォッチ 4" x1="187.378" y1="88.933" x2="196.817" y2="88.933" xlink:href="#_規グラデーションスウォッチ_4"/>
    <linearGradient id="_規グラデーションスウォッチ_4-38" data-name="新規グラデーションスウォッチ 4" x1="187.601" y1="88.933" x2="196.594" y2="88.933" xlink:href="#_規グラデーションスウォッチ_4"/>
    <linearGradient id="_規グラデーションスウォッチ_4-39" data-name="新規グラデーションスウォッチ 4" x1="187.825" y1="88.933" x2="196.371" y2="88.933" xlink:href="#_規グラデーションスウォッチ_4"/>
    <linearGradient id="_規グラデーションスウォッチ_4-40" data-name="新規グラデーションスウォッチ 4" x1="188.048" y1="88.933" x2="196.148" y2="88.933" xlink:href="#_規グラデーションスウォッチ_4"/>
    <linearGradient id="_規グラデーションスウォッチ_4-41" data-name="新規グラデーションスウォッチ 4" x1="188.271" y1="88.933" x2="195.925" y2="88.933" xlink:href="#_規グラデーションスウォッチ_4"/>
    <linearGradient id="_規グラデーションスウォッチ_4-42" data-name="新規グラデーションスウォッチ 4" x1="188.494" y1="88.933" x2="195.702" y2="88.933" xlink:href="#_規グラデーションスウォッチ_4"/>
    <linearGradient id="_規グラデーションスウォッチ_4-43" data-name="新規グラデーションスウォッチ 4" x1="188.717" y1="88.933" x2="195.479" y2="88.933" xlink:href="#_規グラデーションスウォッチ_4"/>
    <linearGradient id="_規グラデーションスウォッチ_4-44" data-name="新規グラデーションスウォッチ 4" x1="188.94" y1="88.933" x2="195.256" y2="88.933" xlink:href="#_規グラデーションスウォッチ_4"/>
    <linearGradient id="_規グラデーションスウォッチ_4-45" data-name="新規グラデーションスウォッチ 4" x1="189.163" y1="88.933" x2="195.032" y2="88.933" xlink:href="#_規グラデーションスウォッチ_4"/>
    <linearGradient id="_規グラデーションスウォッチ_4-46" data-name="新規グラデーションスウォッチ 4" x1="189.386" y1="88.933" x2="194.809" y2="88.933" xlink:href="#_規グラデーションスウォッチ_4"/>
    <linearGradient id="_規グラデーションスウォッチ_4-47" data-name="新規グラデーションスウォッチ 4" x1="189.609" y1="88.933" x2="194.586" y2="88.933" xlink:href="#_規グラデーションスウォッチ_4"/>
    <linearGradient id="_規グラデーションスウォッチ_4-48" data-name="新規グラデーションスウォッチ 4" x1="189.832" y1="88.933" x2="194.363" y2="88.933" xlink:href="#_規グラデーションスウォッチ_4"/>
    <linearGradient id="_規グラデーションスウォッチ_4-49" data-name="新規グラデーションスウォッチ 4" x1="174.425" y1="88.739" x2="183.864" y2="88.739" gradientTransform="translate(-1.994 .193)" xlink:href="#_規グラデーションスウォッチ_4"/>
    <linearGradient id="_規グラデーションスウォッチ_4-50" data-name="新規グラデーションスウォッチ 4" x1="174.648" y1="88.739" x2="183.64" y2="88.739" gradientTransform="translate(-1.994 .193)" xlink:href="#_規グラデーションスウォッチ_4"/>
    <linearGradient id="_規グラデーションスウォッチ_4-51" data-name="新規グラデーションスウォッチ 4" x1="174.871" y1="88.739" x2="183.417" y2="88.739" gradientTransform="translate(-1.994 .193)" xlink:href="#_規グラデーションスウォッチ_4"/>
    <linearGradient id="_規グラデーションスウォッチ_4-52" data-name="新規グラデーションスウォッチ 4" x1="175.094" y1="88.739" x2="183.194" y2="88.739" gradientTransform="translate(-1.994 .193)" xlink:href="#_規グラデーションスウォッチ_4"/>
    <linearGradient id="_規グラデーションスウォッチ_4-53" data-name="新規グラデーションスウォッチ 4" x1="175.317" y1="88.739" x2="182.971" y2="88.739" gradientTransform="translate(-1.994 .193)" xlink:href="#_規グラデーションスウォッチ_4"/>
    <linearGradient id="_規グラデーションスウォッチ_4-54" data-name="新規グラデーションスウォッチ 4" x1="175.54" y1="88.739" x2="182.748" y2="88.739" gradientTransform="translate(-1.994 .193)" xlink:href="#_規グラデーションスウォッチ_4"/>
    <linearGradient id="_規グラデーションスウォッチ_4-55" data-name="新規グラデーションスウォッチ 4" x1="175.763" y1="88.739" x2="182.525" y2="88.739" gradientTransform="translate(-1.994 .193)" xlink:href="#_規グラデーションスウォッチ_4"/>
    <linearGradient id="_規グラデーションスウォッチ_4-56" data-name="新規グラデーションスウォッチ 4" x1="175.986" y1="88.739" x2="182.302" y2="88.739" gradientTransform="translate(-1.994 .193)" xlink:href="#_規グラデーションスウォッチ_4"/>
    <linearGradient id="_規グラデーションスウォッチ_4-57" data-name="新規グラデーションスウォッチ 4" x1="176.209" y1="88.739" x2="182.079" y2="88.739" gradientTransform="translate(-1.994 .193)" xlink:href="#_規グラデーションスウォッチ_4"/>
    <linearGradient id="_規グラデーションスウォッチ_4-58" data-name="新規グラデーションスウォッチ 4" x1="176.433" y1="88.739" x2="181.856" y2="88.739" gradientTransform="translate(-1.994 .193)" xlink:href="#_規グラデーションスウォッチ_4"/>
    <linearGradient id="_規グラデーションスウォッチ_4-59" data-name="新規グラデーションスウォッチ 4" x1="176.656" y1="88.739" x2="181.632" y2="88.739" gradientTransform="translate(-1.994 .193)" xlink:href="#_規グラデーションスウォッチ_4"/>
    <linearGradient id="_規グラデーションスウォッチ_4-60" data-name="新規グラデーションスウォッチ 4" x1="176.879" y1="88.739" x2="181.409" y2="88.739" gradientTransform="translate(-1.994 .193)" xlink:href="#_規グラデーションスウォッチ_4"/>
    <linearGradient id="_称未設定グラデーション_49" data-name="名称未設定グラデーション 49" x1="989.618" y1="226.953" x2="989.618" y2=".338" gradientTransform="translate(1091.165) rotate(-180) scale(1 -1)" gradientUnits="userSpaceOnUse">
      <stop offset="0" stop-color="#e79274"/>
      <stop offset="1" stop-color="#f4e7ce"/>
    </linearGradient>
    <linearGradient id="_称未設定グラデーション_49-2" data-name="名称未設定グラデーション 49" x1="771.809" y1="220.932" x2="771.809" y2=".338" gradientTransform="translate(-449.909)" xlink:href="#_称未設定グラデーション_49"/>
    <linearGradient id="_称未設定グラデーション_8" data-name="名称未設定グラデーション 8" x1="127.734" y1="151.427" x2="206.123" y2="129.818" gradientTransform="matrix(1, 0, 0, 1, 0, 0)" gradientUnits="userSpaceOnUse">
      <stop offset="0" stop-color="#f2dec5" stop-opacity="0"/>
      <stop offset=".349" stop-color="#dba698" stop-opacity=".1"/>
      <stop offset=".894" stop-color="#ae373e" stop-opacity=".3"/>
    </linearGradient>
  </defs>
  <g id="_3" data-name="03">
    <g>
      <rect class="cls-16" width="411.711" height="255.328"/>
      <path class="cls-10" d="M136.535,201.647c.853-.213,34.563-19.841,66.992-19.841s70.832,22.615,70.832,22.615l2.347-94.087s-144.864,.213-144.864,1.067,4.694,90.247,4.694,90.247Z"/>
      <path class="cls-9" d="M106.216,.338c.588,38.433,6.293,136.864,21.891,145.066,20.695,10.881,29.229-8.747,29.229-8.747,0,0-3.236-8.618,.396-8.702,2.723-.063,4.932,3.968,5.527,4.827s4.852,8.525,6.608,8.381c1.627-.133,2.473-3.574,3.438-4.657,1.214-1.362,2.476-5.303,4.672-5.823,1.038-.246,2.027,.4,3.029,1.939,0,0,1.343,2.601,3.158,2.541,2.4-.08,3.212-2.027,3.686-3.12s1.351-3.223,3.327-3.227c2.24-.004,3.094,2.907,3.254,3.227,.16,.32,1.068,3.242,3.6,3.334,2.96,.107,3.787-2.72,4.107-3.547s1.173-3.048,3.174-3.017,2.921,1.921,3.787,3.284c.552,.869,1.334,2.476,2.747,2.534,1.973,.08,2.827-2.347,3.147-2.96,.32-.613,1.28-2.48,2.987-2.48s2.8,1.2,3.494,2.88c.392,.949,1.253,3.494,3.974,3.387,2.72-.107,2.877-1.948,3.014-2.48,.293-1.147,.853-2.396,2.156-2.503,3.776-.309,4.193,6.523,7.521,7.628,3.749,1.245,9.712,.037,10.163,.527l1.097-15.528s3.966-6.012,11.578-3.173c22.068,8.232,29.899-74.624,39.978-119.59"/>
      <g class="cls-74">
        <ellipse class="cls-22" cx="206.179" cy="89.933" rx="4.719" ry="42.27"/>
        <ellipse class="cls-11" cx="206.179" cy="89.933" rx="4.496" ry="41.815"/>
        <ellipse class="cls-62" cx="206.179" cy="89.933" rx="4.273" ry="41.359"/>
        <ellipse class="cls-67" cx="206.179" cy="89.933" rx="4.05" ry="40.904"/>
        <ellipse class="cls-52" cx="206.179" cy="89.933" rx="3.827" ry="40.449"/>
        <ellipse class="cls-42" cx="206.179" cy="89.933" rx="3.604" ry="39.994"/>
        <ellipse class="cls-57" cx="206.179" cy="89.933" rx="3.381" ry="39.539"/>
        <ellipse class="cls-47" cx="206.179" cy="89.933" rx="3.158" ry="39.083"/>
        <ellipse class="cls-37" cx="206.179" cy="89.933" rx="2.935" ry="38.628"/>
        <ellipse class="cls-27" cx="206.179" cy="89.933" rx="2.712" ry="38.173"/>
        <ellipse class="cls-32" cx="206.179" cy="89.933" rx="2.488" ry="37.718"/>
        <ellipse class="cls-69" cx="206.179" cy="89.933" rx="2.265" ry="37.263"/>
      </g>
      <g class="cls-74">
        <ellipse class="cls-21" cx="219.961" cy="88.933" rx="4.719" ry="42.27"/>
        <ellipse class="cls-13" cx="219.961" cy="88.933" rx="4.496" ry="41.815"/>
        <ellipse class="cls-60" cx="219.961" cy="88.933" rx="4.273" ry="41.359"/>
        <ellipse class="cls-65" cx="219.961" cy="88.933" rx="4.05" ry="40.904"/>
        <ellipse class="cls-51" cx="219.961" cy="88.933" rx="3.827" ry="40.449"/>
        <ellipse class="cls-41" cx="219.961" cy="88.933" rx="3.604" ry="39.994"/>
        <ellipse class="cls-53" cx="219.961" cy="88.933" rx="3.381" ry="39.539"/>
        <ellipse class="cls-46" cx="219.961" cy="88.933" rx="3.158" ry="39.083"/>
        <ellipse class="cls-36" cx="219.961" cy="88.933" rx="2.935" ry="38.628"/>
        <ellipse class="cls-26" cx="219.961" cy="88.933" rx="2.712" ry="38.173"/>
        <ellipse class="cls-31" cx="219.961" cy="88.933" rx="2.488" ry="37.718"/>
        <ellipse class="cls-68" cx="219.961" cy="88.933" rx="2.265" ry="37.263"/>
      </g>
      <g class="cls-74">
        <ellipse class="cls-20" cx="237.393" cy="88.933" rx="42.27" ry="4.719" transform="translate(126.293 316.795) rotate(-84.544)"/>
        <ellipse class="cls-12" cx="237.393" cy="88.933" rx="41.815" ry="4.496" transform="translate(126.293 316.795) rotate(-84.544)"/>
        <ellipse class="cls-61" cx="237.393" cy="88.933" rx="41.359" ry="4.273" transform="translate(126.293 316.795) rotate(-84.544)"/>
        <ellipse class="cls-66" cx="237.393" cy="88.933" rx="40.904" ry="4.05" transform="translate(126.293 316.795) rotate(-84.544)"/>
        <ellipse class="cls-50" cx="237.393" cy="88.933" rx="40.449" ry="3.827" transform="translate(126.293 316.795) rotate(-84.544)"/>
        <ellipse class="cls-39" cx="237.393" cy="88.933" rx="39.994" ry="3.604" transform="translate(126.293 316.795) rotate(-84.544)"/>
        <ellipse class="cls-55" cx="237.393" cy="88.933" rx="39.539" ry="3.381" transform="translate(126.293 316.795) rotate(-84.544)"/>
        <ellipse class="cls-44" cx="237.393" cy="88.933" rx="39.083" ry="3.158" transform="translate(126.293 316.795) rotate(-84.544)"/>
        <ellipse class="cls-34" cx="237.393" cy="88.933" rx="38.628" ry="2.935" transform="translate(126.293 316.795) rotate(-84.544)"/>
        <ellipse class="cls-25" cx="237.393" cy="88.933" rx="38.173" ry="2.712" transform="translate(126.293 316.795) rotate(-84.544)"/>
        <ellipse class="cls-28" cx="237.393" cy="88.933" rx="37.718" ry="2.488" transform="translate(126.293 316.795) rotate(-84.544)"/>
        <ellipse class="cls-70" cx="237.393" cy="88.933" rx="37.263" ry="2.265" transform="translate(126.293 316.795) rotate(-84.544)"/>
      </g>
      <g class="cls-74">
        <ellipse class="cls-18" cx="192.098" cy="88.933" rx="4.719" ry="42.27"/>
        <ellipse class="cls-14" cx="192.098" cy="88.933" rx="4.496" ry="41.815"/>
        <ellipse class="cls-59" cx="192.098" cy="88.933" rx="4.273" ry="41.359"/>
        <ellipse class="cls-63" cx="192.098" cy="88.933" rx="4.05" ry="40.904"/>
        <ellipse class="cls-48" cx="192.098" cy="88.933" rx="3.827" ry="40.449"/>
        <ellipse class="cls-38" cx="192.098" cy="88.933" rx="3.604" ry="39.994"/>
        <ellipse class="cls-54" cx="192.098" cy="88.933" rx="3.381" ry="39.539"/>
        <ellipse class="cls-43" cx="192.098" cy="88.933" rx="3.158" ry="39.083"/>
        <ellipse class="cls-33" cx="192.098" cy="88.933" rx="2.935" ry="38.628"/>
        <ellipse class="cls-24" cx="192.098" cy="88.933" rx="2.712" ry="38.173"/>
        <ellipse class="cls-29" cx="192.098" cy="88.933" rx="2.488" ry="37.718"/>
        <ellipse class="cls-72" cx="192.098" cy="88.933" rx="2.265" ry="37.263"/>
      </g>
      <g class="cls-74">
        <ellipse class="cls-19" cx="177.15" cy="88.933" rx="4.719" ry="42.27" transform="translate(-7.02 15.635) rotate(-4.955)"/>
        <ellipse class="cls-15" cx="177.15" cy="88.933" rx="4.496" ry="41.815" transform="translate(-7.02 15.635) rotate(-4.955)"/>
        <ellipse class="cls-58" cx="177.15" cy="88.933" rx="4.273" ry="41.359" transform="translate(-7.02 15.635) rotate(-4.955)"/>
        <ellipse class="cls-64" cx="177.15" cy="88.933" rx="4.05" ry="40.904" transform="translate(-7.02 15.635) rotate(-4.955)"/>
        <ellipse class="cls-49" cx="177.15" cy="88.933" rx="3.827" ry="40.449" transform="translate(-7.02 15.635) rotate(-4.955)"/>
        <ellipse class="cls-40" cx="177.15" cy="88.933" rx="3.604" ry="39.994" transform="translate(-7.02 15.635) rotate(-4.955)"/>
        <ellipse class="cls-56" cx="177.15" cy="88.933" rx="3.381" ry="39.539" transform="translate(-7.02 15.635) rotate(-4.955)"/>
        <ellipse class="cls-45" cx="177.15" cy="88.933" rx="3.158" ry="39.083" transform="translate(-7.02 15.635) rotate(-4.955)"/>
        <ellipse class="cls-35" cx="177.15" cy="88.933" rx="2.935" ry="38.628" transform="translate(-7.02 15.635) rotate(-4.955)"/>
        <ellipse class="cls-23" cx="177.15" cy="88.933" rx="2.712" ry="38.173" transform="translate(-7.02 15.635) rotate(-4.955)"/>
        <ellipse class="cls-30" cx="177.15" cy="88.933" rx="2.488" ry="37.718" transform="translate(-7.02 15.635) rotate(-4.955)"/>
        <ellipse class="cls-71" cx="177.15" cy="88.933" rx="2.265" ry="37.263" transform="translate(-7.02 15.635) rotate(-4.955)"/>
      </g>
      <path class="cls-8" d="M.405,.338l123.749,.319c2.02,11.567,3.812,27.318,13.126,42.89,10.542,17.627,17.177,24.521,19.168,27.65s37.915,42.448,43.734,79.105c1.21,7.623,4.091,21.788,1.385,42.906-1.275,9.945-11.405,34.181-27.76,33.739-12.194-.33-13.048-14.599-13.915-19.731-1.101-6.514-5.318-.691-19.951,5.289-7.807,3.19-60.088,19.244-139.534-11.762V.338"/>
      <path class="cls-5" d="M124.153,.657c2.02,11.567,3.812,27.318,13.126,42.89,10.542,17.627,17.177,24.521,19.168,27.65s37.915,42.448,43.734,79.105c1.21,7.623,4.091,21.788,1.385,42.906-1.275,9.945-11.405,34.181-27.76,33.739-12.194-.33-13.048-14.599-13.915-19.731-1.101-6.514-5.318-.691-19.951,5.289-7.807,3.19-60.088,19.244-139.534-11.762"/>
      <path class="cls-7" d="M271.504,43.547c-10.542,17.627-17.177,24.521-19.168,27.65s-17.129,18.258-15.705,42.47c.453,7.705,3.077,12.425,3.077,12.425,0,0,4.811,9.689,1.431,10.19-1.595,.236-3.007-.501-3.007-.501,0,0-3.073-2.258-4.424-1.289-1.481,1.062-2.046,1.992,.289,8.463,.522,1.447,1.645,11.794,1.929,20.328,.285,8.534,1.7,9.845,4.118,13.259,2.418,3.414,3.598,10.994,4.944,14.16,3.284,7.723,11.292,16.265,25.925,22.245,7.807,3.19,66.502,21.899,140.467-12.204V.338l-126.749,.319c-2.02,11.567-3.812,27.318-13.126,42.89Z"/>
      <path class="cls-5" d="M284.63,.657c-2.02,11.567-3.812,27.318-13.126,42.89-10.542,17.627-17.177,24.521-19.168,27.65s-17.129,18.258-15.705,42.47c.453,7.705,3.077,12.425,3.077,12.425,0,0,4.811,9.689,1.431,10.19-1.595,.236-3.007-.501-3.007-.501,0,0-3.073-2.258-4.424-1.289-1.481,1.062-2.046,1.992,.289,8.463,.522,1.447,1.645,11.794,1.929,20.328,.285,8.534,1.7,9.845,4.118,13.259,2.418,3.414,3.598,10.994,4.944,14.16,3.284,7.723,11.292,16.265,25.925,22.245,7.807,3.19,66.502,21.899,140.467-12.204"/>
    </g>
    <g>
      <path class="cls-2" d="M80.493,199.807s21.686,7.947,34.175,10.044c11.392,1.912,16.202,3.066,31.833-5.108,8.023-4.196,9.501-9.704,10.068-16.445"/>
      <path class="cls-2" d="M81.378,196.122s24.357,6.1,40.161,6.879c10.085,.497,25.403-6.89,38.428-21.45"/>
      <path class="cls-2" d="M131.841,204.969c-6.414,2.207-13.293-.548-13.293-.548"/>
      <path class="cls-2" d="M134.223,207.394s-4.924,1.845-8.052,0c-3.85-2.271-18.912-5.846-18.912-5.846"/>
      <path class="cls-1" d="M141.771,206.729c-1.275-.775-2.752-2.956-2.402-8.183-.066,.362-6.175,11.265-5.899,10.751"/>
      <path class="cls-1" d="M129.298,202.246c.627,2.589,2.33,3.919,7.203,1.302"/>
      <path class="cls-1" d="M126.171,207.394s-16.116-.817-18.092,1.054"/>
      <path class="cls-1" d="M151.04,190.355s-.147,5.477-1.678,7.69c-1.217,1.759-2.033,.276-1.632,5.503"/>
      <line class="cls-1" x1="154.525" y1="197.417" x2="150.15" y2="196.11"/>
      <line class="cls-1" x1="151.71" y1="201.098" x2="149.362" y2="198.045"/>
      <path class="cls-1" d="M148.193,201.097s-2.815-.636-4.133-.54-2.651,5.302-2.651,5.302"/>
      <line class="cls-1" x1="146.942" y1="193.362" x2="144.06" y2="200.557"/>
    </g>
    <g class="cls-75">
      <path class="cls-4" d="M248.291,148.817c.139-8.206,9.237-23.054,11.55-34.025,1.819-8.627,2.014-16.217,3.07-26.305,1.021-9.758,.037-12.143,2.8-18.711,2.763-6.568,15.195-20.759,19.879-37.266,2.93-10.326,5.894-24.545,6.14-31.628"/>
      <path class="cls-4" d="M328.598,199.807s-21.686,7.947-34.175,10.044c-11.392,1.912-16.039,2.747-31.833-5.108-13.186-6.558-15.726-25.237-15.726-28.48,0-3.243,1.363-27.466,1.528-30.493,.165-3.027,2.793-5.264-4.733-20.652-5.229-10.692-3.057-25.497,2.045-37.478,2.072-4.866,6.426-11.501,12.724-18.199,8.165-8.683,22.008-25.606,25.187-43.847,0,0,3.066-12.792,4.488-24.479"/>
      <path class="cls-4" d="M265.229,71.115l-8.299,13.702,1.032,6.019-.403,6.717,.011,4.49-3.347,4.298s4.631,5.261,5.207,10.342"/>
      <line class="cls-4" x1="258.427" y1="69.441" x2="259.928" y2="80.416"/>
      <path class="cls-4" d="M252.569,75.61l4.361,9.207-3.388,9.168s.152,5.963-1.347,10.804c0,0,.832,6.417-2.711,11.399l-1.093,5.677,3.561,7.403"/>
      <line class="cls-4" x1="261.929" y1="94.79" x2="257.962" y2="90.836"/>
      <path class="cls-4" d="M247.17,85.04s.233,5.391,1.221,6.581,2.745,1.525,2.745,1.525l2.405,.84,1.245,2.531,2.773,1.037s2.689,.947,4.156,4.082"/>
      <path class="cls-4" d="M244.337,91.808s3.753,2.717,3.424,5.852c-.329,3.135-5.345,7.516-7.257,8.919"/>
      <path class="cls-4" d="M251.137,93.145s.707,4.171-3.352,3.37"/>
      <path class="cls-4" d="M250.486,95.968s-1.049,5.983,2.732,9.659c0,0,3.436,1.892,2.777,4.801-.659,2.909-4.063,5.179-7.603,4.53s-7.888,.841-7.888,.841"/>
      <path class="cls-4" d="M243.156,104.346s5.358-4.013,8.028-3.295"/>
      <path class="cls-4" d="M240.504,106.58c.703,.625,4.751,4.902,3.639,8.82"/>
      <path class="cls-4" d="M252.195,104.789s-3.772,7.221-8.426,6.528"/>
      <path class="cls-4" d="M257.57,102.042s2.098,2.082,2.99,8.916"/>
      <path class="cls-4" d="M257.973,121.531s-4.416-7.162-5.653-7.013l-.546,21.879"/>
      <line class="cls-4" x1="243.769" y1="124.107" x2="248.391" y2="121.865"/>
      <path class="cls-4" d="M327.713,196.122s-24.357,6.1-40.161,6.879c-10.085,.497-21.503-5.644-25.403-9.638-7.018-7.188-13.002-13.154-14.758-29.085"/>
      <path class="cls-4" d="M277.25,204.969c6.414,2.207,11.1,0,11.1,0"/>
      <path class="cls-4" d="M274.868,207.394s4.924,1.845,8.052,0c3.85-2.271,18.912-5.846,18.912-5.846"/>
      <path class="cls-6" d="M267.321,206.729c1.275-.775,2.752-2.956,2.402-8.183,.066,.362,6.175,11.265,5.899,10.751"/>
      <path class="cls-6" d="M279.793,202.246c-.627,2.589-2.33,3.919-7.203,1.302"/>
      <path class="cls-6" d="M282.921,207.394s16.116-.817,18.092,1.054"/>
      <path class="cls-6" d="M252.483,181.551c-.11,1.052,2.432,13.215,2.083,15.866"/>
      <path class="cls-6" d="M248.333,184.862s3.773,2.014,5.578,5.872"/>
      <path class="cls-6" d="M257.973,188.978s.225,6.855,1.756,9.067c1.217,1.759,2.033,.276,1.632,5.503"/>
      <line class="cls-6" x1="254.566" y1="197.417" x2="258.942" y2="196.11"/>
      <line class="cls-6" x1="257.382" y1="201.098" x2="259.729" y2="198.045"/>
      <path class="cls-6" d="M260.898,201.097s2.815-.636,4.133-.54,2.651,5.302,2.651,5.302"/>
      <line class="cls-6" x1="262.15" y1="193.362" x2="265.031" y2="200.557"/>
    </g>
    <g>
      <path class="cls-3" d="M115.742,7.077c5.619,23.226,21.737,60.273,28.319,73.339,6.582,13.066,8.054,18.251,12.404,29.171,5.086,12.768,6.908,30.221,8.815,42.557,2.504,16.2-2.398,23.421-8.709,36.154"/>
      <path class="cls-3" d="M120.741,7.077c2.964,19.244,19.326,54.605,31.8,67.437,15.701,16.151,17.612,25.921,31.125,45.71,19.643,28.765,21.262,103.482-11.347,101.193-12.19-.856-9.368-20.518-11.262-28.243-1.13-4.61-3.012-15.057-5.978,1.963"/>
      <path class="cls-3" d="M148.605,89.933c4.577,2.14,21.919,21.052,22.289,24.72,.682,6.765-10.113-1.838-12.354,.341,4.994,3.094,4.137,2.633,8.282,8.773,2.353,3.486,8.792,21.128,9.677,26.508-4.735,1.496-9.169,.783-10.738,5.825"/>
      <path class="cls-3" d="M155.82,78.156c2.232,7.045,4.945,19.041,5.44,26.365"/>
      <path class="cls-3" d="M170.962,101.844c1.122,5.937-3.494,7.162-.068,12.808,6.233,10.27,7.683,9.057,9.423,14.542,1.831,12.551,1.873,24.646,4.616,49.32,.83,7.468-3.611,17.813-6.868,21.318-4.47,4.81-7.543,4.887-10.259,2.16-1.507-1.513,1.334-17.904-2.896-32.73"/>
      <path class="cls-3" d="M158.54,114.993c2.952-3.258,3.397-6.075,2.72-10.473"/>
      <path class="cls-3" d="M186.452,125.928c.971,3.413-6.731,5.238-8.915,5.635-3.574,.65-4.659-2.016-8.268-2.783-1.509-.321-4.153-1.012-6.717,0"/>
      <path class="cls-3" d="M191.912,138.569c.804,5.005-1.701,2.018-1.75,23.543-.019,8.202,2.119,14.693,5.593,22.191"/>
      <path class="cls-3" d="M181.587,144.814c3.954,1.726,6.821,15.631,8.851,19.381"/>
      <path class="cls-3" d="M183.791,147.072c-1.537-.056-3.154,2.24-7.292,3.203-1.813,.422-.471,2.707,1.138,9.128,1.609,6.421,1.215,23.367-.428,31.947-1.756,9.169-.334,15.302-3.403,28.915"/>
      <path class="cls-3" d="M190.908,167.423c.029,5.188-5.425,21.553-8.557,25.003"/>
      <path class="cls-3" d="M194.363,194.273c-9.268,8.385-11.416,16.582-18.235,27.196"/>
      <path class="cls-3" d="M183.511,190.062c-1.782,17.47-3.484,17.808-9.705,31.106"/>
      <path class="cls-3" d="M174.648,143.413c-3.39-4.219-6.352-5.832-11.398-2.826"/>
      <path class="cls-3" d="M165.954,160.941c3.351,1.187,8.942,7.016,11.757,4.809-2.185,15.272-9.905,13.53-21.247,22.372"/>
      <path class="cls-3" d="M171.815,222.33c-1.431-7.702-2.773-12.063-2.564-17.858"/>
    </g>
    <g>
      <ellipse class="cls-17" cx="155.82" cy="78.156" rx="4.24" ry="5.356" transform="translate(-14.238 116.478) rotate(-39.337)"/>
      <ellipse class="cls-17" cx="175.886" cy="121.594" rx="3.904" ry="4.865" transform="translate(-37.233 104.234) rotate(-30)"/>
      <path class="cls-17" d="M194.521,161.856c.983,5.186-.771,8.135-3.837,8.713s-5.312-3.376-5.034-6.697c.301-3.603,1.524-6.404,3.525-6.946,2.38-.645,4.734,1.703,5.346,4.93Z"/>
      <ellipse class="cls-17" cx="184.233" cy="187.016" rx="7.841" ry="4.636" transform="translate(-12.969 360.302) rotate(-86.736)"/>
      <path class="cls-17" d="M173.219,127.699c.857,2.389-.183,6.137-2.417,6.938s-4.819-1.647-5.676-4.036,.26-4.975,2.495-5.777c2.235-.802,4.741,.485,5.598,2.874Z"/>
      <ellipse class="cls-17" cx="174.442" cy="219.514" rx="7.447" ry="5.628" transform="translate(-25.707 23.156) rotate(-7.075)"/>
      <ellipse class="cls-17" cx="160.984" cy="103.97" rx="4.818" ry="6.33" transform="translate(-23.964 53.772) rotate(-17.671)"/>
      <ellipse class="cls-17" cx="172.383" cy="102.302" rx="4.509" ry="6.092" transform="translate(-27.539 87.722) rotate(-26.516)"/>
      <ellipse class="cls-17" cx="166.652" cy="115.943" rx="3.304" ry="3.961" transform="translate(-27.331 56.057) rotate(-17.671)"/>
      <ellipse class="cls-17" cx="162.727" cy="141.601" rx="4.12" ry="5.703" transform="translate(-24.485 34.445) rotate(-11.243)"/>
      <ellipse class="cls-17" cx="177.978" cy="168.318" rx="4.437" ry="5.983" transform="translate(-29.402 37.931) rotate(-11.243)"/>
      <ellipse class="cls-17" cx="167.019" cy="180.729" rx="4.793" ry="6.564" transform="translate(-20.987 21.946) rotate(-7.075)"/>
      <ellipse class="cls-17" cx="195.451" cy="188.341" rx="7.826" ry="4.875" transform="translate(-14.523 360.342) rotate(-83.262)"/>
      <ellipse class="cls-17" cx="181.637" cy="146.11" rx="4.646" ry="6.424" transform="translate(-6.326 8.233) rotate(-2.552)"/>
      <ellipse class="cls-17" cx="193.171" cy="145.596" rx="3.755" ry="5.116" transform="translate(-24.68 40.457) rotate(-11.243)"/>
      <ellipse class="cls-17" cx="187.097" cy="129.226" rx="4.21" ry="5.006" transform="translate(-27.181 53.138) rotate(-15.083)"/>
      <ellipse class="cls-17" cx="167.806" cy="199.598" rx="4.556" ry="6.389"/>
    </g>
    <path class="cls-73" d="M145.501,57.62s3.777,5.028,20.344,25.339c19.49,23.894,34.062,49.243,36.843,92.781,1.574,24.645-12.288,42.565-15.049,45.192-2.339,2.225-14.073,12.771-25.087-1.418-3.752-4.833-18.473-148.002-17.051-161.894Z"/>
  </g>
</svg>