<?xml version="1.0" encoding="UTF-8"?>
<svg id="_イヤー_1" data-name="レイヤー 1" xmlns="http://www.w3.org/2000/svg" width="134.222mm" height="77.965mm" xmlns:xlink="http://www.w3.org/1999/xlink" viewBox="0 0 380.471 221.004">
  <defs>
    <style>
      .cls-1 {
        fill: url(#_称未設定グラデーション_64-2);
      }

      .cls-2 {
        fill: url(#_称未設定グラデーション_63-2);
      }

      .cls-3 {
        fill: url(#_称未設定グラデーション_62-4);
      }

      .cls-4 {
        fill: url(#_称未設定グラデーション_62-6);
      }

      .cls-5 {
        fill: url(#_称未設定グラデーション_62-5);
      }

      .cls-6 {
        fill: url(#_称未設定グラデーション_62-3);
      }

      .cls-7 {
        fill: url(#_称未設定グラデーション_62-2);
      }

      .cls-8 {
        fill: url(#_称未設定グラデーション_70);
      }

      .cls-9 {
        fill: url(#_称未設定グラデーション_64);
      }

      .cls-10 {
        fill: url(#_称未設定グラデーション_63);
      }

      .cls-11 {
        fill: url(#_称未設定グラデーション_62);
      }

      .cls-12 {
        fill: url(#_称未設定グラデーション_41);
      }

      .cls-13 {
        stroke: #231815;
        stroke-width: 3.871px;
      }

      .cls-13, .cls-14, .cls-15, .cls-16, .cls-17, .cls-18, .cls-19, .cls-20, .cls-21 {
        stroke-miterlimit: 10;
      }

      .cls-13, .cls-15, .cls-18, .cls-19, .cls-20, .cls-21 {
        fill: none;
      }

      .cls-22 {
        fill: #f7f7f7;
      }

      .cls-23 {
        fill: #f2f4cb;
      }

      .cls-24 {
        fill: #036eb7;
      }

      .cls-25 {
        fill: #f29600;
      }

      .cls-26 {
        fill: #b4b4b5;
      }

      .cls-27 {
        fill: #ab1f24;
      }

      .cls-28 {
        fill: #dbdcdc;
      }

      .cls-29 {
        fill: #231815;
      }

      .cls-30 {
        fill: #41a988;
      }

      .cls-31 {
        fill: #6ec8f2;
      }

      .cls-32 {
        fill: #595757;
      }

      .cls-14 {
        fill: #2ca6e0;
        stroke: #036eb7;
        stroke-width: 1.192px;
      }

      .cls-15 {
        stroke: #c30d23;
      }

      .cls-15, .cls-21 {
        stroke-width: 1.29px;
      }

      .cls-33 {
        fill: url(#_称未設定グラデーション_119-2);
      }

      .cls-34 {
        fill: url(#_称未設定グラデーション_119-3);
      }

      .cls-35 {
        fill: url(#_称未設定グラデーション_109-2);
      }

      .cls-36 {
        fill: url(#_称未設定グラデーション_109-3);
      }

      .cls-16 {
        fill: url(#_規グラデーションスウォッチ_2-3);
      }

      .cls-16, .cls-17 {
        stroke-width: 2.533px;
      }

      .cls-16, .cls-17, .cls-20, .cls-21 {
        stroke: #6a3906;
      }

      .cls-17 {
        fill: url(#_規グラデーションスウォッチ_2-2);
      }

      .cls-18 {
        stroke: #fff;
      }

      .cls-37 {
        fill: url(#_規グラデーションスウォッチ_2);
      }

      .cls-38 {
        fill: url(#_規グラデーションスウォッチ_1);
      }

      .cls-19 {
        stroke: #dbdcdc;
      }

      .cls-19, .cls-20 {
        stroke-width: .633px;
      }

      .cls-19, .cls-20, .cls-21 {
        stroke-linecap: round;
      }

      .cls-39 {
        fill: url(#_称未設定グラデーション_119);
      }

      .cls-40 {
        fill: url(#_称未設定グラデーション_128);
      }

      .cls-41 {
        fill: url(#_称未設定グラデーション_104);
      }

      .cls-42 {
        fill: url(#_称未設定グラデーション_109);
      }

      .cls-43 {
        fill: url(#_規グラデーションスウォッチ_1-3);
      }

      .cls-44 {
        fill: url(#_規グラデーションスウォッチ_1-2);
      }

      .cls-45 {
        fill: url(#_規グラデーションスウォッチ_2-4);
      }

      .cls-46 {
        fill: url(#_規グラデーションスウォッチ_2-6);
      }

      .cls-47 {
        fill: url(#_規グラデーションスウォッチ_2-5);
      }
    </style>
    <radialGradient id="_称未設定グラデーション_41" data-name="名称未設定グラデーション 41" cx="126.221" cy="110.502" fx="126.221" fy="110.502" r="102.544" gradientTransform="translate(-61.469) scale(2 1)" gradientUnits="userSpaceOnUse">
      <stop offset="0" stop-color="#f7dacf"/>
      <stop offset=".574" stop-color="#f6d8ce"/>
      <stop offset=".804" stop-color="#f4d0cd"/>
      <stop offset=".972" stop-color="#f0c4cb"/>
      <stop offset="1" stop-color="#f0c2cb"/>
    </radialGradient>
    <linearGradient id="_規グラデーションスウォッチ_1" data-name="新規グラデーションスウォッチ 1" x1="72.488" y1="112.296" x2="72.488" y2="163.682" gradientTransform="matrix(1, 0, 0, 1, 0, 0)" gradientUnits="userSpaceOnUse">
      <stop offset="0" stop-color="#f5ab58"/>
      <stop offset="1" stop-color="#f9d4ca"/>
    </linearGradient>
    <linearGradient id="_規グラデーションスウォッチ_1-2" data-name="新規グラデーションスウォッチ 1" x1="49.308" y1="93.391" x2="118.992" y2="93.391" xlink:href="#_規グラデーションスウォッチ_1"/>
    <linearGradient id="_称未設定グラデーション_70" data-name="名称未設定グラデーション 70" x1="68.576" y1="220.504" x2="68.576" y2="146.498" gradientTransform="matrix(1, 0, 0, 1, 0, 0)" gradientUnits="userSpaceOnUse">
      <stop offset="0" stop-color="#c7cebb"/>
      <stop offset=".085" stop-color="#d1d7c7"/>
      <stop offset=".286" stop-color="#e5e8df"/>
      <stop offset=".499" stop-color="#f3f5f1"/>
      <stop offset=".727" stop-color="#fcfcfb"/>
      <stop offset="1" stop-color="#fff"/>
    </linearGradient>
    <linearGradient id="_規グラデーションスウォッチ_2" data-name="新規グラデーションスウォッチ 2" x1="39.975" y1="60.624" x2="137.091" y2="60.624" gradientTransform="matrix(1, 0, 0, 1, 0, 0)" gradientUnits="userSpaceOnUse">
      <stop offset="0" stop-color="#6a3906"/>
      <stop offset="1" stop-color="#946134"/>
    </linearGradient>
    <linearGradient id="_称未設定グラデーション_63" data-name="名称未設定グラデーション 63" x1="69.275" y1="90.394" x2="42.765" y2="136.31" gradientTransform="matrix(1, 0, 0, 1, 0, 0)" gradientUnits="userSpaceOnUse">
      <stop offset="0" stop-color="#fff"/>
      <stop offset="1" stop-color="#cccdcd"/>
    </linearGradient>
    <linearGradient id="_称未設定グラデーション_64" data-name="名称未設定グラデーション 64" x1="90.9" y1="175.422" x2="90.9" y2="220.415" gradientTransform="matrix(1, 0, 0, 1, 0, 0)" gradientUnits="userSpaceOnUse">
      <stop offset="0" stop-color="#3166b0"/>
      <stop offset="1" stop-color="#383c8f"/>
    </linearGradient>
    <linearGradient id="_称未設定グラデーション_64-2" data-name="名称未設定グラデーション 64" x1="84.838" y1="177.955" x2="84.838" y2="159.641" xlink:href="#_称未設定グラデーション_64"/>
    <linearGradient id="_称未設定グラデーション_62" data-name="名称未設定グラデーション 62" x1="65.124" y1="180.7" x2="65.124" y2="144.809" gradientTransform="matrix(1, 0, 0, 1, 0, 0)" gradientUnits="userSpaceOnUse">
      <stop offset="0" stop-color="#c7cebb"/>
      <stop offset="1" stop-color="#fff"/>
    </linearGradient>
    <linearGradient id="_称未設定グラデーション_62-2" data-name="名称未設定グラデーション 62" x1="92.174" y1="176.9" x2="92.174" y2="146.921" xlink:href="#_称未設定グラデーション_62"/>
    <linearGradient id="_規グラデーションスウォッチ_1-3" data-name="新規グラデーションスウォッチ 1" x1="54.439" y1="173.891" x2="54.439" y2="96.669" xlink:href="#_規グラデーションスウォッチ_1"/>
    <linearGradient id="_称未設定グラデーション_62-3" data-name="名称未設定グラデーション 62" x1="25.729" y1="220.504" x2="25.729" y2="159.641" xlink:href="#_称未設定グラデーション_62"/>
    <linearGradient id="_規グラデーションスウォッチ_2-2" data-name="新規グラデーションスウォッチ 2" x1="86.158" y1="92.477" x2="87.273" y2="92.477" xlink:href="#_規グラデーションスウォッチ_2"/>
    <linearGradient id="_規グラデーションスウォッチ_2-3" data-name="新規グラデーションスウォッチ 2" x1="110.384" y1="94.641" x2="111.651" y2="94.641" xlink:href="#_規グラデーションスウォッチ_2"/>
    <linearGradient id="_称未設定グラデーション_104" data-name="名称未設定グラデーション 104" x1="120.422" y1="110.502" x2="379.971" y2="110.502" gradientTransform="matrix(1, 0, 0, 1, 0, 0)" gradientUnits="userSpaceOnUse">
      <stop offset="0" stop-color="#ffde69"/>
      <stop offset="1" stop-color="#fbcf74"/>
    </linearGradient>
    <linearGradient id="_称未設定グラデーション_62-4" data-name="名称未設定グラデーション 62" x1="154.147" y1="178.331" x2="178.993" y2="178.331" xlink:href="#_称未設定グラデーション_62"/>
    <linearGradient id="_称未設定グラデーション_62-5" data-name="名称未設定グラデーション 62" x1="211.305" y1="204.824" x2="196.87" y2="179.822" xlink:href="#_称未設定グラデーション_62"/>
    <linearGradient id="_称未設定グラデーション_62-6" data-name="名称未設定グラデーション 62" x1="209.57" y1="193.115" x2="177.716" y2="137.943" xlink:href="#_称未設定グラデーション_62"/>
    <linearGradient id="_称未設定グラデーション_128" data-name="名称未設定グラデーション 128" x1="210.744" y1="189.567" x2="180.133" y2="136.547" gradientTransform="matrix(1, 0, 0, 1, 0, 0)" gradientUnits="userSpaceOnUse">
      <stop offset="0" stop-color="#9dbbc4"/>
      <stop offset="1" stop-color="#fff"/>
    </linearGradient>
    <linearGradient id="_称未設定グラデーション_109" data-name="名称未設定グラデーション 109" x1="334.778" y1="154.014" x2="279.721" y2="154.014" gradientTransform="matrix(1, 0, 0, 1, 0, 0)" gradientUnits="userSpaceOnUse">
      <stop offset="0" stop-color="#e2894c"/>
      <stop offset=".15" stop-color="#e79c65"/>
      <stop offset=".399" stop-color="#f0b78a"/>
      <stop offset=".631" stop-color="#f6caa4"/>
      <stop offset=".838" stop-color="#f9d6b4"/>
      <stop offset="1" stop-color="#fbdbba"/>
    </linearGradient>
    <linearGradient id="_称未設定グラデーション_109-2" data-name="名称未設定グラデーション 109" x1="338.384" y1="113.167" x2="272.64" y2="75.209" xlink:href="#_称未設定グラデーション_109"/>
    <linearGradient id="_規グラデーションスウォッチ_2-4" data-name="新規グラデーションスウォッチ 2" x1="353.278" y1="65.797" x2="261.978" y2="65.797" xlink:href="#_規グラデーションスウォッチ_2"/>
    <linearGradient id="_称未設定グラデーション_63-2" data-name="名称未設定グラデーション 63" x1="290.141" y1="127.942" x2="349.201" y2="127.942" xlink:href="#_称未設定グラデーション_63"/>
    <linearGradient id="_規グラデーションスウォッチ_2-5" data-name="新規グラデーションスウォッチ 2" x1="287.786" y1="74.336" x2="277.785" y2="74.336" xlink:href="#_規グラデーションスウォッチ_2"/>
    <linearGradient id="_規グラデーションスウォッチ_2-6" data-name="新規グラデーションスウォッチ 2" x1="324.253" y1="77.758" x2="311.013" y2="77.758" xlink:href="#_規グラデーションスウォッチ_2"/>
    <linearGradient id="_称未設定グラデーション_119" data-name="名称未設定グラデーション 119" x1="379.971" y1="192.129" x2="213.801" y2="192.129" gradientTransform="matrix(1, 0, 0, 1, 0, 0)" gradientUnits="userSpaceOnUse">
      <stop offset="0" stop-color="#41a988"/>
      <stop offset=".094" stop-color="#4fad8e"/>
      <stop offset=".359" stop-color="#74b89f"/>
      <stop offset=".606" stop-color="#8ec0ab"/>
      <stop offset=".828" stop-color="#9ec5b2"/>
      <stop offset="1" stop-color="#a4c7b5"/>
    </linearGradient>
    <linearGradient id="_称未設定グラデーション_109-3" data-name="名称未設定グラデーション 109" x1="348.542" y1="145.832" x2="316.404" y2="145.832" xlink:href="#_称未設定グラデーション_109"/>
    <linearGradient id="_称未設定グラデーション_119-2" data-name="名称未設定グラデーション 119" x1="334.778" y1="197.326" x2="379.971" y2="197.326" xlink:href="#_称未設定グラデーション_119"/>
    <linearGradient id="_称未設定グラデーション_119-3" data-name="名称未設定グラデーション 119" x1="328.126" y1="172.95" x2="358.112" y2="172.95" xlink:href="#_称未設定グラデーション_119"/>
  </defs>
  <rect class="cls-12" x="1.978" y=".5" width="377.994" height="220.004"/>
  <g>
    <rect class="cls-23" x="1.978" y=".5" width="377.994" height="220.004" transform="translate(381.949 221.004) rotate(-180)"/>
    <g>
      <polygon class="cls-38" points="88.955 146.921 85.577 127.92 61.509 112.296 56.02 144.809 82.723 163.682 88.955 146.921"/>
      <path class="cls-44" d="M115.134,60.624s16.045,44.916-17.312,73.207c-6.441,5.462-19.845-1.689-19.845-1.689,0,0-32.513-27.868-28.29-51.092,4.222-23.223,30.824-29.979,30.824-29.979,0,0,24.545-2.279,34.624,9.553Z"/>
      <polygon class="cls-8" points="0 163.682 49.308 146.498 88.533 170.566 100.198 158.031 131.693 171.202 137.152 220.504 0 220.504 0 163.682"/>
      <path class="cls-37" d="M42.931,91.184l-2.956-29.979s.211-4.011,2.956-6.756c2.745-2.745,10.978-4.645,10.978-4.645,0,0,8.023-16.045,14.356-18.157,6.334-2.111,10.556-2.111,15.623,0s24.49,8.445,46.869,7.178c0,0-4.222,7.6-11.823,9.289,0,0,8.023,19.001,18.157,22.379,0,0-10.134,4.222-18.157,.422l5.067,12.667s-26.601-9.289-32.513-17.312l9.712,11.401s-23.223-8.445-30.402-15.201c0,0-2.956,12.245-14.779,17.312l-2.533,11.401h-10.556Z"/>
      <path class="cls-32" d="M77.289,134.529c.378,1.938-.928,3.524-2.903,3.524h-24.065c-1.975,0-3.9-1.586-4.278-3.524l-8.759-44.887c-.378-1.938,.928-3.524,2.903-3.524h24.065c1.975,0,3.9,1.586,4.278,3.524l8.759,44.887Z"/>
      <path class="cls-10" d="M76.023,135.796c.378,1.938-.928,3.524-2.903,3.524h-24.065c-1.975,0-3.9-1.586-4.278-3.524l-8.759-44.887c-.378-1.938,.928-3.524,2.903-3.524h24.065c1.975,0,3.9,1.586,4.278,3.524l8.759,44.887Z"/>
      <path class="cls-9" d="M82.833,175.422l-3.845,44.993h23.823s-2.074-28.896-10.9-43.515l-9.078-1.478Z"/>
      <path class="cls-1" d="M77.766,169.088c.633-.844,6.384-9.448,6.384-9.448l7.761,6.07v11.189l-9.289,1.056-4.856-8.867Z"/>
      <polygon class="cls-11" points="46.098 151.565 56.02 144.809 84.15 159.641 76.71 180.7 46.098 151.565"/>
      <polygon class="cls-7" points="100.198 158.031 88.955 146.921 84.15 159.641 96.767 176.9 100.198 158.031"/>
      <ellipse class="cls-26" cx="50.627" cy="102.42" rx="5.503" ry="6.39" transform="translate(-62.128 120.84) rotate(-72.974)"/>
      <path class="cls-43" d="M46.098,173.891l-11.612-13.459s4.95-18.648,2.745-41.942c-.766-8.094,7.759-10.628,7.759-10.628,8.55-3.906,14.939-6.824,23.489-10.73,1.845-.671,2.788-.811,3.211,.931s-1.454,2.563-2.37,3.379l-16.255,10.009,16.652-7.976s3.458-.521,4.408,6.287-.935,11.511-.935,11.511c0,0-9.516,23.535-15.058,29.025-4.909,5.7-11.189,18.948-12.034,23.593Z"/>
      <polygon class="cls-6" points="13.45 190.072 21.957 177.636 31.134 159.641 51.459 167.191 46.098 190.072 36.597 220.504 11.262 219.829 0 220.504 13.45 190.072"/>
      <path class="cls-19" d="M21.957,177.636s4.081,7.829,18.355,10.281"/>
      <circle class="cls-19" cx="41.541" cy="180.366" r="2.41"/>
      <path class="cls-20" d="M110.384,76.195s-10.82,13.617-4.539,28.501l-6.703,5.7"/>
      <path class="cls-20" d="M76.71,76.986s8.734-8.55,21.125-5.384"/>
      <line class="cls-17" x1="87.273" y1="87.384" x2="86.158" y2="97.571"/>
      <line class="cls-16" x1="111.651" y1="89.97" x2="110.384" y2="99.312"/>
      <ellipse class="cls-27" cx="90.987" cy="120.609" rx="8.155" ry="4.988"/>
      <path class="cls-31" d="M126.523,85.125s6.446-6.947,10.946-3.89c4.501,3.057-.337,6.024-2.489,4.638-3.617-2.33-8.457-.748-8.457-.748Z"/>
      <path class="cls-31" d="M130.091,89.544s10.43-3.457,13.295,2.164c2.865,5.621-4.178,6.974-5.686,4.417-2.665-4.519-7.609-6.581-7.609-6.581Z"/>
    </g>
    <polygon class="cls-41" points="262.48 .5 186.476 115.58 166.895 109.97 145.254 123.367 125.721 115.58 143.73 130.746 166.895 121.191 176.379 130.867 120.422 220.504 379.971 220.504 379.971 .5 262.48 .5"/>
    <g>
      <polygon class="cls-3" points="154.147 151.55 154.147 169.55 175.022 205.113 178.993 190.144 154.147 151.55"/>
      <polygon class="cls-5" points="233.138 179.508 178.993 190.144 175.022 205.113 230.239 193.892 233.138 179.508"/>
      <path class="cls-4" d="M204.08,146.917c-.19,0-49.933,4.633-49.933,4.633l24.846,38.593,54.145-10.636-29.058-32.591Z"/>
      <path class="cls-40" d="M154.147,151.55l17.97,25.477s5.349,7.159,9.626,8.076l54.988-10.539s-8.056-1.935-15.083-7.943c-3.243-2.773-17.568-19.704-17.568-19.704l-49.933,4.633Z"/>
      <polygon class="cls-25" points="154.147 151.55 204.08 146.917 207.489 150.171 157.007 155.605 154.147 151.55"/>
      <g>
        <path class="cls-29" d="M184.806,168.99c.506,.889,.378,1.771-.384,2.649-.893,.875-2.191,1.447-3.898,1.716-1.958,.308-3.76,.213-5.407-.285-1.648-.498-2.833-1.361-3.557-2.588l4.492-.708c.636,1.077,1.648,1.507,3.037,1.288,1.271-.2,1.687-.767,1.246-1.701-.78-1.043-2.141-1.413-4.082-1.107l-2.083,.328-1.151-1.952,2.284-.36c1.506-.237,2.017-.796,1.535-1.677-.162-.335-.49-.599-.987-.789-.479-.192-.97-.249-1.471-.17-1.189,.187-1.527,.759-1.017,1.717l-3.89,.613c-.535-.907-.482-1.778,.159-2.614,.68-.924,1.882-1.521,3.605-1.792,1.69-.266,3.295-.181,4.814,.256,1.56,.443,2.581,1.075,3.065,1.896,.642,1.089,.287,2.037-1.065,2.844,2.282,.119,3.868,.93,4.755,2.435Z"/>
        <path class="cls-29" d="M199.468,165.946c.584,1.144,.585,2.17,.006,3.078-.687,1.006-1.951,1.654-3.792,1.943-2.192,.345-4.135,.151-5.831-.586-1.702-.746-3.085-2.021-4.148-3.824-1.152-1.953-1.504-3.588-1.057-4.907,.459-1.331,1.717-2.159,3.775-2.483,1.924-.303,3.716-.148,5.376,.465,1.209,.439,2.115,1.013,2.717,1.723l-4.266,.672c-.262-.227-.57-.423-.923-.589-.494-.155-.976-.196-1.444-.123-.736,.116-1.178,.344-1.326,.682-.162,.469-.038,1.16,.373,2.074,.61-.516,1.418-.852,2.422-1.01,1.773-.279,3.424-.131,4.952,.443,1.367,.52,2.423,1.333,3.167,2.44Zm-4.345,.632c-.337-.449-.771-.812-1.301-1.09-.661-.315-1.285-.426-1.87-.334-.803,.127-1.346,.556-1.627,1.288,.533,.78,1.024,1.332,1.472,1.658,.723,.574,1.577,.783,2.564,.627,.569-.09,.932-.327,1.088-.714,.03-.413-.078-.891-.326-1.435Z"/>
        <path class="cls-29" d="M214.627,163.698c.68,1.153,.618,2.194-.186,3.125-.81,.921-2.118,1.523-3.925,1.808-1.908,.301-3.693,.174-5.354-.381-1.547-.514-2.635-1.211-3.264-2.092l4.267-.672c.232,.302,.652,.562,1.257,.782,.448,.233,.982,.3,1.6,.203,.703-.111,1.168-.406,1.398-.885,.037-.402-.041-.844-.234-1.328-.355-.446-.755-.814-1.201-1.105-.664-.35-1.372-.466-2.125-.347-1.071,.169-1.559,.659-1.463,1.472l-4.447-.052-2.473-6.379,10.34-1.629,1.435,2.432-7.002,1.103,.703,1.796c.158-.165,.491-.345,.997-.541,.426-.208,.907-.353,1.442-.437,1.506-.237,2.994-.133,4.463,.311,1.735,.555,2.993,1.494,3.773,2.817Z"/>
      </g>
    </g>
    <g>
      <circle class="cls-14" cx="190.438" cy="53.219" r="36.363"/>
      <polygon class="cls-24" points="190.366 54.462 187.827 43.331 190.366 20.102 192.467 43.331 190.366 54.462"/>
      <polygon class="cls-24" points="190.617 53.744 194.501 47.837 205.651 38.514 196.304 49.616 190.617 53.744"/>
      <g>
        <path class="cls-22" d="M187.781,52.845h-16.285c.161-2.582,.796-4.783,1.902-6.604,1.175-1.936,3.33-4.091,6.465-6.465,2.098-1.591,3.169-3.204,3.216-4.841,.022-.991-.312-1.82-1.003-2.489-.669-.668-1.498-1.003-2.489-1.003-.968,0-1.775,.358-2.42,1.072-.646,.714-.969,1.879-.969,3.492h-4.84c.068-2.466,.875-4.483,2.42-6.05,1.405-1.429,3.389-2.144,5.947-2.144,2.396,0,4.321,.669,5.773,2.005,1.429,1.314,2.144,3.112,2.144,5.394,0,2.858-1.879,5.636-5.636,8.333-3.158,2.259-4.863,4.011-5.117,5.255h10.892v4.045Z"/>
        <path class="cls-22" d="M208.526,48.108h-2.801v4.737h-4.321v-4.737h-10.892v-4.702l11.687-15.075h3.526v15.904h2.801v3.873Zm-7.122-3.873v-8.609l-6.466,8.609h6.466Z"/>
        <path class="cls-22" d="M172.18,73.745h-2.032v1.938h-2.575v-17.34h7.206v16.702h-2.599v-1.299Zm0-12.639h-2.032v3.591h2.032v-3.591Zm0,6.379h-2.032v3.591h2.032v-3.591Zm3.686-8.127h4.157v-2.504h3.048v2.504h3.969v2.48h-3.969v2.032h5.269v2.669h-2.575v1.678h2.197v2.575h-2.197v4.701c0,1.024-.292,1.662-.874,1.914-.488,.268-1.646,.402-3.473,.402-.048-.708-.292-1.536-.732-2.48h2.291v-4.536h-7.654v-2.575h7.654v-1.678h-7.843v-2.669h4.89v-2.032h-4.157v-2.48Zm1.866,11.434c.566,.425,1.149,.898,1.748,1.417,.566,.488,1.023,.938,1.37,1.347l-1.938,1.937c-.756-.945-1.74-1.929-2.953-2.953l1.772-1.749Z"/>
        <path class="cls-22" d="M191.647,57.326h8.788v7.749h-6v12.922h-2.788v-20.671Zm2.788,3.048h3.307v-1.016h-3.307v1.016Zm0,2.669h3.307v-1.016h-3.307v1.016Zm2.031,3.142h9.308v9.308h-6.638v1.016h-2.67v-10.324Zm2.67,3.591h3.874v-1.276h-3.874v1.276Zm0,3.425h3.874v-1.299h-3.874v1.299Zm6-15.875h5.718v14.86c.094,2.725-.11,4.347-.614,4.867-.395,.551-1.575,.929-3.544,1.134-.032-.788-.339-1.686-.922-2.693h1.843c.378-.015,.535-.26,.473-.732v-9.686h-5.906v-7.749h2.953Zm-.283,3.048h3.236v-1.016h-3.236v1.016Zm3.236,2.669v-1.016h-3.236v1.016h3.236Z"/>
      </g>
    </g>
    <g>
      <path class="cls-42" d="M279.721,163.754s10.323-7.886,13.764-25.092l27.098-3.656,14.194,33.765s-39.142,12.332-55.057-5.017Z"/>
      <path class="cls-35" d="M278.861,65.207s-23.333,47.447,10.753,76.816c6.022,5.188,17.205,2.5,24.517,0,7.312-2.5,30.109-27.555,30.109-54.17s-12.474-39.196-21.937-39.357-37.635-.874-43.443,16.711Z"/>
      <path class="cls-45" d="M325.207,59.088s-4.839,3.764-2.581,12.151c0,0-6.556-2.258-2.955-14.84,0,0-32.423-5.699-44.337,17.936l-13.356-24.066,9.033,4.839s-3.871-3.62-2.258-9.714c0,0,6.001-.287,21.389-6.739,15.388-6.452,45.067-11.291,47.647,15.162,0,0,15.807,.743,15.485,14.727s-8.71,29.469-8.71,29.469c0,0-20.355-15.799-19.356-38.927Z"/>
      <path class="cls-2" d="M327.035,107.879l8.603-17.103s3.011-3.153,6.452,0c3.441,3.153,9.033,6.051,6.452,17.721s-13.535,45.22-31.292,52.855c-17.757,7.635-20.454,5.316-25.915,2.402-4.301-2.295,4.409-14.661,4.409-14.661,0,0,6.775-7.42,10.646-5.269,3.871,2.151,5.835,5.307,10.015,2.008s17.514-25.666,17.944-30.397c.43-4.731-4.301-2.639-7.312-7.557Z"/>
      <path class="cls-47" d="M277.785,77.691s5.807-3.871,10.001-1.936c0,0-5.162-11.936-10.001,1.936Z"/>
      <path class="cls-46" d="M311.013,76.078s9.033-1.29,13.227,6.452c0,0,.968-16.13-13.227-6.452Z"/>
      <g>
        <circle class="cls-15" cx="281.104" cy="94.789" r="11.706"/>
        <line class="cls-13" x1="281.104" y1="87.853" x2="281.104" y2="98.015"/>
      </g>
      <g>
        <circle class="cls-15" cx="313.364" cy="97.37" r="11.706"/>
        <line class="cls-13" x1="311.013" y1="101.806" x2="311.013" y2="91.644"/>
      </g>
      <line class="cls-15" x1="292.811" y1="94.789" x2="301.657" y2="94.789"/>
      <path class="cls-21" d="M290.141,115.758l-3.968-5.12s3.92-3.591,6.638-12.623"/>
      <path class="cls-27" d="M289.492,125.113s5.714-5.377,14.101,0c0,0-.137,7.742-6.359,7.581s-7.327-3.065-7.742-7.581Z"/>
      <path class="cls-39" d="M379.971,220.504H213.801l12.691-35.065s1.936-2.903,11.291-6.129c9.355-3.226,30.393-8.824,41.938-15.556,0,0,12.689,10.394,31.292,10.394s31.615-9.033,31.615-9.033l37.344,12.045v43.343Z"/>
      <path class="cls-30" d="M282.785,160.783s10.22,10.139,24.869,9.817c14.649-.323,29.13-6.758,32.715-8.388l3.871,6.12s-25.393,11.352-37.236,11.997l-3.411,40.175-12.811-.687,6.2-40.644s-6.959-.239-20.336-13.762l6.14-4.628Z"/>
      <path class="cls-36" d="M329.616,174.148s-7.423-7.725-8.069-13.872c-.307-2.924-6.589-19.894-4.835-27.582,1.736-7.612,8.555-14.53,13.764-15.108,7.742-.86,16.345,6.452,15.055,12.904s-4.301,23.156-3.871,25.772,6.882,10.359,6.882,10.359l-18.926,7.527Z"/>
      <path class="cls-33" d="M343.119,220.504c-.968,.108-8.342-35.387-8.342-35.387l23.335-10.968,21.859,26.681v19.675h-36.852Z"/>
      <path class="cls-34" d="M328.126,172.469l6.651,12.647,23.335-10.968-6.452-13.365s-14.501,3.944-23.534,11.686Z"/>
      <circle class="cls-28" cx="351.015" cy="169.954" r="2.903"/>
    </g>
    <rect class="cls-18" x="1.978" y=".5" width="377.994" height="220.004" transform="translate(381.949 221.004) rotate(-180)"/>
  </g>
</svg>