<svg id="レイヤー_11" data-name="レイヤー 11" xmlns="http://www.w3.org/2000/svg" xmlns:xlink="http://www.w3.org/1999/xlink" viewBox="0 0 239 160"><defs><style>.cls-1{fill:url(#名称未設定グラデーション_485);}.cls-2{fill:#7bc490;}.cls-3{fill:url(#新規グラデーションスウォッチ_6);}.cls-4{fill:url(#名称未設定グラデーション_209);}.cls-5{fill:url(#名称未設定グラデーション_212);}.cls-6{fill:url(#新規グラデーションスウォッチ_1);}.cls-7{fill:url(#名称未設定グラデーション_300);}.cls-8{fill:url(#名称未設定グラデーション_387);}.cls-9{fill:url(#名称未設定グラデーション_300-2);}.cls-10{fill:url(#名称未設定グラデーション_388);}.cls-11{fill:url(#名称未設定グラデーション_390);}.cls-12{fill:url(#名称未設定グラデーション_309);}.cls-13{fill:url(#名称未設定グラデーション_386);}.cls-14{fill:url(#名称未設定グラデーション_388-2);}.cls-15{fill:url(#新規グラデーションスウォッチ_2);}.cls-16{fill:url(#新規グラデーションスウォッチ_2-2);}.cls-17{fill:url(#名称未設定グラデーション_390-2);}.cls-18{fill:url(#新規グラデーションスウォッチ_2-3);}.cls-19{fill:url(#新規グラデーションスウォッチ_2-4);}.cls-20{fill:url(#新規グラデーションスウォッチ_2-5);}.cls-21,.cls-22,.cls-23,.cls-24{fill:none;}.cls-21{stroke:#c30d23;}.cls-21,.cls-23,.cls-24{stroke-miterlimit:10;}.cls-22,.cls-23{stroke:#6a3906;}.cls-22{stroke-linejoin:round;}.cls-24{stroke:#231815;stroke-width:2px;}.cls-25{fill:#b2dee0;}</style><radialGradient id="名称未設定グラデーション_485" cx="119.5" cy="80" fx="45.62387001016046" r="129.902" gradientUnits="userSpaceOnUse"><stop offset="0" stop-color="#fcedf4"/><stop offset="0.377" stop-color="#fcebf1"/><stop offset="0.656" stop-color="#fbe4e8"/><stop offset="0.903" stop-color="#fad8d8"/><stop offset="1" stop-color="#f9d1cf"/></radialGradient><linearGradient id="新規グラデーションスウォッチ_6" x1="35.774" y1="132.385" x2="137.409" y2="132.385" gradientUnits="userSpaceOnUse"><stop offset="0" stop-color="#9fcf8d"/><stop offset="0.112" stop-color="#b6d8a6"/><stop offset="0.272" stop-color="#d2e2c4"/><stop offset="0.409" stop-color="#e3e9d6"/><stop offset="0.507" stop-color="#e9ebdd"/><stop offset="0.648" stop-color="#d4e4cc"/><stop offset="0.854" stop-color="#bbdcb8"/><stop offset="0.98" stop-color="#b2d9b1"/></linearGradient><linearGradient id="名称未設定グラデーション_209" x1="237.853" y1="465.198" x2="254.331" y2="382.643" gradientTransform="matrix(0.943, 0.303, -0.082, 1.034, 30.251, -91.573)" gradientUnits="userSpaceOnUse"><stop offset="0" stop-color="#e9ebdd"/><stop offset="0.323" stop-color="#cfe2ca"/><stop offset="1" stop-color="#8fcb99"/></linearGradient><linearGradient id="名称未設定グラデーション_212" x1="303.542" y1="503.732" x2="313.412" y2="454.282" gradientUnits="userSpaceOnUse"><stop offset="0" stop-color="#f6ac58"/><stop offset="0.188" stop-color="#f6ad5c"/><stop offset="0.376" stop-color="#f7b268"/><stop offset="0.563" stop-color="#f7b97c"/><stop offset="0.75" stop-color="#f8c298"/><stop offset="0.935" stop-color="#f9cfbc"/><stop offset="1" stop-color="#fad4ca"/></linearGradient><linearGradient id="新規グラデーションスウォッチ_1" x1="286.093" y1="502.55" x2="295.186" y2="456.993" gradientUnits="userSpaceOnUse"><stop offset="0" stop-color="#f6ac58"/><stop offset="1" stop-color="#fad4ca"/></linearGradient><linearGradient id="名称未設定グラデーション_300" x1="231.789" y1="502.634" x2="280.407" y2="454.015" gradientUnits="userSpaceOnUse"><stop offset="0" stop-color="#c4b5ce"/><stop offset="0.038" stop-color="#bbb0cc"/><stop offset="0.272" stop-color="#8996be"/><stop offset="0.493" stop-color="#6281b4"/><stop offset="0.695" stop-color="#4572ac"/><stop offset="0.87" stop-color="#3469a8"/><stop offset="1" stop-color="#2e66a6"/></linearGradient><linearGradient id="名称未設定グラデーション_387" x1="325.321" y1="468.654" x2="325.321" y2="439.161" gradientUnits="userSpaceOnUse"><stop offset="0" stop-color="#ed7049"/><stop offset="0.04" stop-color="#f0835b"/><stop offset="0.115" stop-color="#f4a078"/><stop offset="0.189" stop-color="#f7b58d"/><stop offset="0.261" stop-color="#f8c29a"/><stop offset="0.33" stop-color="#f9c69e"/><stop offset="0.515" stop-color="#f9c59b"/><stop offset="0.665" stop-color="#f8c191"/><stop offset="0.802" stop-color="#f8bb80"/><stop offset="0.931" stop-color="#f7b268"/><stop offset="1" stop-color="#f6ac58"/></linearGradient><linearGradient id="名称未設定グラデーション_300-2" x1="233.892" y1="487.131" x2="275.035" y2="445.989" xlink:href="#名称未設定グラデーション_300"/><linearGradient id="名称未設定グラデーション_388" x1="309.689" y1="417.907" x2="285.426" y2="417.907" gradientUnits="userSpaceOnUse"><stop offset="0" stop-color="#c4b5ce"/><stop offset="0.127" stop-color="#bdb2cc"/><stop offset="0.307" stop-color="#aba8c7"/><stop offset="0.519" stop-color="#8c98bf"/><stop offset="0.754" stop-color="#6281b4"/><stop offset="1" stop-color="#2e66a6"/></linearGradient><linearGradient id="名称未設定グラデーション_390" x1="281.514" y1="376.656" x2="281.514" y2="412.751" gradientUnits="userSpaceOnUse"><stop offset="0" stop-color="#ed7049"/><stop offset="0.526" stop-color="#f9c69e"/><stop offset="0.657" stop-color="#f9c59b"/><stop offset="0.763" stop-color="#f8c191"/><stop offset="0.86" stop-color="#f8bb80"/><stop offset="0.951" stop-color="#f7b268"/><stop offset="1" stop-color="#f6ac58"/></linearGradient><linearGradient id="名称未設定グラデーション_309" x1="262.772" y1="472.552" x2="262.772" y2="374.889" gradientUnits="userSpaceOnUse"><stop offset="0" stop-color="#c4b5ce"/><stop offset="0.193" stop-color="#9ca0c3"/><stop offset="0.454" stop-color="#6d87b7"/><stop offset="0.685" stop-color="#4b75ae"/><stop offset="0.875" stop-color="#366aa8"/><stop offset="1" stop-color="#2e66a6"/></linearGradient><linearGradient id="名称未設定グラデーション_386" x1="272.935" y1="467.571" x2="272.935" y2="429.521" gradientUnits="userSpaceOnUse"><stop offset="0" stop-color="#ed7049"/><stop offset="0.024" stop-color="#f08760"/><stop offset="0.056" stop-color="#f39e76"/><stop offset="0.094" stop-color="#f6b088"/><stop offset="0.138" stop-color="#f8bd95"/><stop offset="0.198" stop-color="#f9c49c"/><stop offset="0.33" stop-color="#f9c69e"/><stop offset="0.515" stop-color="#f9c59b"/><stop offset="0.665" stop-color="#f8c191"/><stop offset="0.802" stop-color="#f8bb80"/><stop offset="0.931" stop-color="#f7b268"/><stop offset="1" stop-color="#f6ac58"/></linearGradient><linearGradient id="名称未設定グラデーション_388-2" x1="254.218" y1="436.161" x2="254.218" y2="372.086" xlink:href="#名称未設定グラデーション_388"/><linearGradient id="新規グラデーションスウォッチ_2" x1="326.259" y1="377.116" x2="326.259" y2="356.972" gradientUnits="userSpaceOnUse"><stop offset="0" stop-color="#6a3906"/><stop offset="1" stop-color="#956134"/></linearGradient><linearGradient id="新規グラデーションスウォッチ_2-2" x1="315.861" y1="395.264" x2="315.861" y2="383.256" xlink:href="#新規グラデーションスウォッチ_2"/><linearGradient id="名称未設定グラデーション_390-2" x1="320.309" y1="353.022" x2="287.322" y2="386.008" xlink:href="#名称未設定グラデーション_390"/><linearGradient id="新規グラデーションスウォッチ_2-3" x1="275.209" y1="370.907" x2="275.209" y2="346.191" xlink:href="#新規グラデーションスウォッチ_2"/><linearGradient id="新規グラデーションスウォッチ_2-4" x1="287.377" y1="377.116" x2="287.377" y2="346.191" xlink:href="#新規グラデーションスウォッチ_2"/><linearGradient id="新規グラデーションスウォッチ_2-5" x1="297.535" y1="383.256" x2="297.535" y2="346.191" xlink:href="#新規グラデーションスウォッチ_2"/></defs><rect class="cls-1" width="239" height="160"/><path class="cls-2" d="M217.507,486.949c2.777,6.666,32.889,11.293,35.755,19.242h38.489c-2.876-6.768,8.025-13.285,12.377-14.8,8.519-2.968,10.683-12.815,10.683-12.815h-95.86S214.62,480.02,217.507,486.949Z" transform="translate(-180 -346.191)"/><ellipse class="cls-3" cx="86.592" cy="132.385" rx="50.817" ry="14.437"/><ellipse class="cls-2" cx="225.68" cy="422.774" rx="20.188" ry="45.167" transform="translate(-229.113 -316.047) rotate(-6.894)"/><ellipse class="cls-4" cx="227.666" cy="421.058" rx="19.605" ry="45.024" transform="translate(-223.279 -319.735) rotate(-6.074)"/><path class="cls-5" d="M334.221,463.589c-.5-8-11.724-6.706-11.724-6.706l-34.4.962,27.763,48.346h11.792C327.058,500.454,334.636,470.236,334.221,463.589Z" transform="translate(-180 -346.191)"/><path class="cls-6" d="M322.5,468.677s-.386-7.8-6.636-7.3-50.527-1.955-50.527-1.955l-9.75,27s23.836,3.021,47.248-5.164c0,0-.152,17.953,1.5,24.933h14.759C317.973,497.05,322.5,468.677,322.5,468.677Z" transform="translate(-180 -346.191)"/><path class="cls-7" d="M283.787,460.05s-14.6,2.654-22.34,20.571c-8.33,19.278-13.715,25.57-13.715,25.57H235.345s-9.29-10.625-3.539-23.074c0,0,37.6-28.376,51.1-26.606Z" transform="translate(-180 -346.191)"/><path class="cls-8" d="M297.01,444.317l1.6,4.115s13.635,7.415,28.534,9.185c4.587.545,7.963,4.2,8.627,6.857s2.74,4.539,4.7,4.122c2.591-.552,7.31-1.822,11.539-2.976a2.213,2.213,0,0,0,1.429-3.049,25.914,25.914,0,0,1-1.818-5.343,2.3,2.3,0,0,0-2.2-1.868,133.164,133.164,0,0,1-15.644-1.246c-4.694-.816-14.433-3.19-25.434-13.751C303.968,436.163,297.01,444.317,297.01,444.317Z" transform="translate(-180 -346.191)"/><path class="cls-9" d="M283.566,457.4s-19.907,1.642-31.631,15.484c-3.551,4.192-18.138,11.5-20.571,11.723,0,0-5.3-7.778-2.831-12.051,0,0,16.324-2.769,24.287-8.078s23.668-10.839,30.746-9.954Z" transform="translate(-180 -346.191)"/><path class="cls-10" d="M297.01,390.815c1.089.357-1.5,21.235,7.349,30.525,5.4,5.668,6.636,7.3,3.985,13.272v5.751s-8.283-.884-11,5.088c0,0-2.331-5.131-5.592-7.521a20.473,20.473,0,0,1-5.088-5.53S280.15,385.285,297.01,390.815Z" transform="translate(-180 -346.191)"/><path class="cls-11" d="M270.737,379.755s-7.742,21.678,0,29.2,21.014,1.549,21.014,1.549-4.424-15.263,3.981-20.35c0,0-3.981-13.715-11.06-13.494A44.943,44.943,0,0,0,270.737,379.755Z" transform="translate(-180 -346.191)"/><path class="cls-12" d="M282.239,455.626s-14.591,2.283-33.65,12.057c-8.626,4.424-20.056,4.869-20.056,4.869s15.107-6.944,25.282-56.935c1.342-6.592,11.613-40.728,11.613-40.728s6.012,1.991,6.435,2.654-6.214,25.88,3.519,30.3c10.987,5,16.369,2.655,16.369,2.655l3.981,6.636s2.876,1.769,0,6.083-11.5,16.258-11.723,30.193Z" transform="translate(-180 -346.191)"/><path class="cls-13" d="M240.049,433.46l-.28,7.125,32.094,14.156s5.067,2.433,5.952,6.194a20.292,20.292,0,0,0,.837,2.732,4.8,4.8,0,0,0,3.714,2.963l5.732.941h13.527l3.963-3.117a1.354,1.354,0,0,0,.224-1.9,16.416,16.416,0,0,1-2.769-5.242,3.739,3.739,0,0,0-3.889-2.638c-4.262.334-11.566.453-16.472-1.925-7.3-3.54-17.4-10.679-28.464-21.706C252.494,429.328,249.118,427.93,240.049,433.46Z" transform="translate(-180 -346.191)"/><path class="cls-14" d="M239.99,436.161s4.867-9.291,14.821-4.424l1.548-5.546s5.349-1.311,6.324-4.629-1.236-5.309-1.236-11.724c0-3.008,2.212-14.6,7.52-22.12s5.53-13.714,0-15.041-13.05-1.327-14.82,9.954-7.963,22.783-16.369,32.516c-1.165,1.35-3.889,4.866-1.281,7.963S240.433,431.737,239.99,436.161Z" transform="translate(-180 -346.191)"/><path class="cls-15" d="M319.622,377.116s13.05-3.333,13.271-11.075-11.723-9.069-11.723-9.069S323.6,374.7,319.622,377.116Z" transform="translate(-180 -346.191)"/><path class="cls-16" d="M317.188,383.256s-2.433,9.55,5.973,8.886c0,0-9.954,7.963-14.6-1.548Z" transform="translate(-180 -346.191)"/><path class="cls-17" d="M299.5,397.893s-19.03-15.041-14.607-32.073c2.12-8.161,5.973-17.917,19.908-16.811s18.8,4.645,19.466,11.723S323.4,387.718,299.5,397.893Z" transform="translate(-180 -346.191)"/><path class="cls-18" d="M260.783,370.907s-9.069-3.539-5.088-8.626,7.742-2.212,12.166-2.434,8.848-9.617,8.848-13.656h19.023S286.884,366.041,260.783,370.907Z" transform="translate(-180 -346.191)"/><path class="cls-19" d="M270.737,376.658a9.264,9.264,0,0,1-10.175-3.1c-4.424-5.309.885-8.406,5.087-8.848s19.244-6.194,22.341-11.724,3.982-6.8,3.982-6.8h23.889S281.354,374.668,270.737,376.658Z" transform="translate(-180 -346.191)"/><path class="cls-20" d="M289.981,381.746s-17.475,5.309-20.571-3.982c-1.158-3.473.442-10.617,10.285-13.935s22.894-9.348,27.982-13.493l5.087-4.145h10.4a22.107,22.107,0,0,1,2.8,11.887c-.363,6.857-12.75,11.5-22.041,10.839S278.258,368.474,289.981,381.746Z" transform="translate(-180 -346.191)"/><path class="cls-21" d="M294.46,382.769s3.445-.581,5.04,1.327.933,5.164.933,5.164l5.668.311" transform="translate(-180 -346.191)"/><path class="cls-22" d="M308.562,383.93a17.125,17.125,0,0,0,5.557-2.239s-4.147-1.6-2.779-3.826a6.285,6.285,0,0,1,4.106-2.976s1.155,3.231,4.176,2.227" transform="translate(-180 -346.191)"/><path class="cls-23" d="M311.88,372.981s-4.644-1.544-4.562-4.049" transform="translate(-180 -346.191)"/><path class="cls-24" d="M304.082,371.737s2.213.63,2.019,4.919" transform="translate(-180 -346.191)"/><line class="cls-24" x1="134.091" y1="33.219" x2="138.764" y2="32.846"/><path class="cls-25" d="M336.433,374.889s5.419-5.475,11.889-5.475c8.793,0,11.889,7.242,8.682,10-2.787,2.393-6.3-.374-7.687-3.028C347.944,373.745,344.562,373.408,336.433,374.889Z" transform="translate(-180 -346.191)"/><path class="cls-25" d="M349.151,389.571s8.487.111,13.383,4.341c6.653,5.748,3.717,13.365-.511,13.351-3.673-.011-5.377-4.577-4.687-7.489C358.021,396.88,355.179,393.027,349.151,389.571Z" transform="translate(-180 -346.191)"/><path class="cls-25" d="M356.34,365.6S361.934,362,364.92,362c8.793,0,10.554,6.3,7.347,9.055-2.787,2.393-6.305-.373-7.687-3.027C363.206,365.394,361.981,364.723,356.34,365.6Z" transform="translate(-180 -346.191)"/></svg>