<?xml version="1.0" encoding="UTF-8"?>
<svg id="_レイヤー_1" data-name="レイヤー 1" xmlns="http://www.w3.org/2000/svg" width="145.242mm" height="97.13mm" xmlns:xlink="http://www.w3.org/1999/xlink" viewBox="0 0 411.711 275.329">
  <defs>
    <style>
      .cls-1 {
        opacity: .23;
      }

      .cls-1, .cls-2, .cls-3, .cls-4, .cls-5, .cls-6, .cls-7 {
        fill: none;
      }

      .cls-2 {
        opacity: .7;
      }

      .cls-8 {
        fill: url(#_新規グラデーションスウォッチ_9-2);
      }

      .cls-8, .cls-9, .cls-10, .cls-11, .cls-12 {
        opacity: .091;
      }

      .cls-13 {
        fill: url(#_名称未設定グラデーション_138-2);
      }

      .cls-13, .cls-14, .cls-3, .cls-5, .cls-6 {
        stroke-miterlimit: 10;
      }

      .cls-13, .cls-14, .cls-4, .cls-5, .cls-6 {
        stroke-width: 1.465px;
      }

      .cls-13, .cls-14, .cls-6 {
        stroke: #7e4f22;
      }

      .cls-14 {
        fill: url(#_名称未設定グラデーション_138);
      }

      .cls-15 {
        fill: url(#_新規グラデーションスウォッチ_9-10);
      }

      .cls-15, .cls-16, .cls-17, .cls-18, .cls-19 {
        opacity: .818;
      }

      .cls-16 {
        fill: url(#_新規グラデーションスウォッチ_9-34);
      }

      .cls-17 {
        fill: url(#_新規グラデーションスウォッチ_9-22);
      }

      .cls-18 {
        fill: url(#_新規グラデーションスウォッチ_9-58);
      }

      .cls-19 {
        fill: url(#_新規グラデーションスウォッチ_9-46);
      }

      .cls-20 {
        fill: url(#_新規グラデーションスウォッチ_9-35);
      }

      .cls-20, .cls-21, .cls-22, .cls-23, .cls-24 {
        opacity: .909;
      }

      .cls-21 {
        fill: url(#_新規グラデーションスウォッチ_9-23);
      }

      .cls-22 {
        fill: url(#_新規グラデーションスウォッチ_9-59);
      }

      .cls-23 {
        fill: url(#_新規グラデーションスウォッチ_9-11);
      }

      .cls-24 {
        fill: url(#_新規グラデーションスウォッチ_9-47);
      }

      .cls-25 {
        fill: url(#_新規グラデーションスウォッチ_9-31);
      }

      .cls-25, .cls-26, .cls-27, .cls-28, .cls-29 {
        opacity: .545;
      }

      .cls-26 {
        fill: url(#_新規グラデーションスウォッチ_9-55);
      }

      .cls-27 {
        fill: url(#_新規グラデーションスウォッチ_9-43);
      }

      .cls-28 {
        fill: url(#_新規グラデーションスウォッチ_9-19);
      }

      .cls-30 {
        fill: url(#_新規グラデーションスウォッチ_9-45);
      }

      .cls-30, .cls-31, .cls-32, .cls-33, .cls-34 {
        opacity: .727;
      }

      .cls-31 {
        fill: url(#_新規グラデーションスウォッチ_9-33);
      }

      .cls-32 {
        fill: url(#_新規グラデーションスウォッチ_9-21);
      }

      .cls-33 {
        fill: url(#_新規グラデーションスウォッチ_9-57);
      }

      .cls-35 {
        fill: url(#_新規グラデーションスウォッチ_9-54);
      }

      .cls-35, .cls-36, .cls-37, .cls-38, .cls-39 {
        opacity: .455;
      }

      .cls-36 {
        fill: url(#_新規グラデーションスウォッチ_9-18);
      }

      .cls-37 {
        fill: url(#_新規グラデーションスウォッチ_9-30);
      }

      .cls-38 {
        fill: url(#_新規グラデーションスウォッチ_9-42);
      }

      .cls-40 {
        fill: url(#_新規グラデーションスウォッチ_9-20);
      }

      .cls-40, .cls-41, .cls-42, .cls-43, .cls-44 {
        opacity: .636;
      }

      .cls-41 {
        fill: url(#_新規グラデーションスウォッチ_9-56);
      }

      .cls-42 {
        fill: url(#_新規グラデーションスウォッチ_9-32);
      }

      .cls-43 {
        fill: url(#_新規グラデーションスウォッチ_9-44);
      }

      .cls-45 {
        fill: url(#_新規グラデーションスウォッチ_9-41);
      }

      .cls-45, .cls-46, .cls-47, .cls-48, .cls-49 {
        opacity: .364;
      }

      .cls-46 {
        fill: url(#_新規グラデーションスウォッチ_9-29);
      }

      .cls-47 {
        fill: url(#_新規グラデーションスウォッチ_9-17);
      }

      .cls-48 {
        fill: url(#_新規グラデーションスウォッチ_9-53);
      }

      .cls-50 {
        fill: url(#_新規グラデーションスウォッチ_9-49);
      }

      .cls-50, .cls-51, .cls-52, .cls-53, .cls-54 {
        opacity: 0;
      }

      .cls-51 {
        fill: url(#_新規グラデーションスウォッチ_9-13);
      }

      .cls-52 {
        fill: url(#_新規グラデーションスウォッチ_9-37);
      }

      .cls-53 {
        fill: url(#_新規グラデーションスウォッチ_9-25);
      }

      .cls-55 {
        fill: #89c6cb;
      }

      .cls-56 {
        fill: #ae373e;
      }

      .cls-3, .cls-4, .cls-5, .cls-7 {
        stroke: #ae373e;
      }

      .cls-3, .cls-7 {
        stroke-width: 1.279px;
      }

      .cls-57 {
        fill: url(#_名称未設定グラデーション_49-2);
      }

      .cls-58 {
        fill: url(#_新規グラデーションスウォッチ_9-48);
      }

      .cls-59 {
        fill: url(#_新規グラデーションスウォッチ_9-24);
      }

      .cls-60 {
        fill: url(#_新規グラデーションスウォッチ_9-36);
      }

      .cls-61 {
        fill: url(#_新規グラデーションスウォッチ_9-12);
      }

      .cls-62 {
        fill: url(#_新規グラデーションスウォッチ_9-60);
      }

      .cls-54 {
        fill: url(#_新規グラデーションスウォッチ_9);
      }

      .cls-63 {
        fill: url(#_新規グラデーションスウォッチ_9-16);
      }

      .cls-63, .cls-64, .cls-65, .cls-66, .cls-67 {
        opacity: .273;
      }

      .cls-64 {
        fill: url(#_新規グラデーションスウォッチ_9-28);
      }

      .cls-65 {
        fill: url(#_新規グラデーションスウォッチ_9-52);
      }

      .cls-66 {
        fill: url(#_新規グラデーションスウォッチ_9-40);
      }

      .cls-68 {
        fill: url(#_新規グラデーションスウォッチ_9-27);
      }

      .cls-68, .cls-69, .cls-70, .cls-71, .cls-72 {
        opacity: .182;
      }

      .cls-69 {
        fill: url(#_新規グラデーションスウォッチ_9-15);
      }

      .cls-70 {
        fill: url(#_新規グラデーションスウォッチ_9-39);
      }

      .cls-71 {
        fill: url(#_新規グラデーションスウォッチ_9-51);
      }

      .cls-4, .cls-7 {
        stroke-linejoin: round;
      }

      .cls-34 {
        fill: url(#_新規グラデーションスウォッチ_9-9);
      }

      .cls-29 {
        fill: url(#_新規グラデーションスウォッチ_9-7);
      }

      .cls-44 {
        fill: url(#_新規グラデーションスウォッチ_9-8);
      }

      .cls-49 {
        fill: url(#_新規グラデーションスウォッチ_9-5);
      }

      .cls-39 {
        fill: url(#_新規グラデーションスウォッチ_9-6);
      }

      .cls-67 {
        fill: url(#_新規グラデーションスウォッチ_9-4);
      }

      .cls-72 {
        fill: url(#_新規グラデーションスウォッチ_9-3);
      }

      .cls-73 {
        fill: url(#_名称未設定グラデーション_11);
      }

      .cls-74 {
        fill: url(#_名称未設定グラデーション_49);
      }

      .cls-9 {
        fill: url(#_新規グラデーションスウォッチ_9-14);
      }

      .cls-10 {
        fill: url(#_新規グラデーションスウォッチ_9-26);
      }

      .cls-11 {
        fill: url(#_新規グラデーションスウォッチ_9-38);
      }

      .cls-12 {
        fill: url(#_新規グラデーションスウォッチ_9-50);
      }
    </style>
    <linearGradient id="_名称未設定グラデーション_138" data-name="名称未設定グラデーション 138" x1="131.841" y1="157.378" x2="276.705" y2="157.378" gradientUnits="userSpaceOnUse">
      <stop offset="0" stop-color="#c65a45"/>
      <stop offset=".504" stop-color="#e6bfa0"/>
      <stop offset="1" stop-color="#c65a45"/>
    </linearGradient>
    <linearGradient id="_名称未設定グラデーション_138-2" data-name="名称未設定グラデーション 138" x1="106.216" y1="74.513" x2="300.955" y2="74.513" xlink:href="#_名称未設定グラデーション_138"/>
    <linearGradient id="_新規グラデーションスウォッチ_9" data-name="新規グラデーションスウォッチ 9" x1="201.459" y1="89.933" x2="210.898" y2="89.933" gradientUnits="userSpaceOnUse">
      <stop offset="0" stop-color="#c0725a"/>
      <stop offset="1" stop-color="#c0725a"/>
    </linearGradient>
    <linearGradient id="_新規グラデーションスウォッチ_9-2" data-name="新規グラデーションスウォッチ 9" x1="201.682" y1="89.933" x2="210.675" y2="89.933" xlink:href="#_新規グラデーションスウォッチ_9"/>
    <linearGradient id="_新規グラデーションスウォッチ_9-3" data-name="新規グラデーションスウォッチ 9" x1="201.906" x2="210.452" xlink:href="#_新規グラデーションスウォッチ_9"/>
    <linearGradient id="_新規グラデーションスウォッチ_9-4" data-name="新規グラデーションスウォッチ 9" x1="202.129" x2="210.229" xlink:href="#_新規グラデーションスウォッチ_9"/>
    <linearGradient id="_新規グラデーションスウォッチ_9-5" data-name="新規グラデーションスウォッチ 9" x1="202.352" x2="210.006" xlink:href="#_新規グラデーションスウォッチ_9"/>
    <linearGradient id="_新規グラデーションスウォッチ_9-6" data-name="新規グラデーションスウォッチ 9" x1="202.575" x2="209.783" xlink:href="#_新規グラデーションスウォッチ_9"/>
    <linearGradient id="_新規グラデーションスウォッチ_9-7" data-name="新規グラデーションスウォッチ 9" x1="202.798" y1="89.933" x2="209.56" y2="89.933" xlink:href="#_新規グラデーションスウォッチ_9"/>
    <linearGradient id="_新規グラデーションスウォッチ_9-8" data-name="新規グラデーションスウォッチ 9" x1="203.021" y1="89.933" x2="209.337" y2="89.933" xlink:href="#_新規グラデーションスウォッチ_9"/>
    <linearGradient id="_新規グラデーションスウォッチ_9-9" data-name="新規グラデーションスウォッチ 9" x1="203.244" y1="89.933" x2="209.113" y2="89.933" xlink:href="#_新規グラデーションスウォッチ_9"/>
    <linearGradient id="_新規グラデーションスウォッチ_9-10" data-name="新規グラデーションスウォッチ 9" x1="203.467" y1="89.933" x2="208.89" y2="89.933" xlink:href="#_新規グラデーションスウォッチ_9"/>
    <linearGradient id="_新規グラデーションスウォッチ_9-11" data-name="新規グラデーションスウォッチ 9" x1="203.69" y1="89.933" x2="208.667" y2="89.933" xlink:href="#_新規グラデーションスウォッチ_9"/>
    <linearGradient id="_新規グラデーションスウォッチ_9-12" data-name="新規グラデーションスウォッチ 9" x1="203.913" y1="89.933" x2="208.444" y2="89.933" xlink:href="#_新規グラデーションスウォッチ_9"/>
    <linearGradient id="_新規グラデーションスウォッチ_9-13" data-name="新規グラデーションスウォッチ 9" x1="215.242" y1="88.933" x2="224.681" y2="88.933" xlink:href="#_新規グラデーションスウォッチ_9"/>
    <linearGradient id="_新規グラデーションスウォッチ_9-14" data-name="新規グラデーションスウォッチ 9" x1="215.465" y1="88.933" x2="224.458" y2="88.933" xlink:href="#_新規グラデーションスウォッチ_9"/>
    <linearGradient id="_新規グラデーションスウォッチ_9-15" data-name="新規グラデーションスウォッチ 9" x1="215.688" y1="88.933" x2="224.235" y2="88.933" xlink:href="#_新規グラデーションスウォッチ_9"/>
    <linearGradient id="_新規グラデーションスウォッチ_9-16" data-name="新規グラデーションスウォッチ 9" x1="215.911" y1="88.933" x2="224.011" y2="88.933" xlink:href="#_新規グラデーションスウォッチ_9"/>
    <linearGradient id="_新規グラデーションスウォッチ_9-17" data-name="新規グラデーションスウォッチ 9" x1="216.134" y1="88.933" x2="223.788" y2="88.933" xlink:href="#_新規グラデーションスウォッチ_9"/>
    <linearGradient id="_新規グラデーションスウォッチ_9-18" data-name="新規グラデーションスウォッチ 9" x1="216.357" y1="88.933" x2="223.565" y2="88.933" xlink:href="#_新規グラデーションスウォッチ_9"/>
    <linearGradient id="_新規グラデーションスウォッチ_9-19" data-name="新規グラデーションスウォッチ 9" x1="216.581" y1="88.933" x2="223.342" y2="88.933" xlink:href="#_新規グラデーションスウォッチ_9"/>
    <linearGradient id="_新規グラデーションスウォッチ_9-20" data-name="新規グラデーションスウォッチ 9" x1="216.804" y1="88.933" x2="223.119" y2="88.933" xlink:href="#_新規グラデーションスウォッチ_9"/>
    <linearGradient id="_新規グラデーションスウォッチ_9-21" data-name="新規グラデーションスウォッチ 9" x1="217.027" y1="88.933" x2="222.896" y2="88.933" xlink:href="#_新規グラデーションスウォッチ_9"/>
    <linearGradient id="_新規グラデーションスウォッチ_9-22" data-name="新規グラデーションスウォッチ 9" x1="217.25" y1="88.933" x2="222.673" y2="88.933" xlink:href="#_新規グラデーションスウォッチ_9"/>
    <linearGradient id="_新規グラデーションスウォッチ_9-23" data-name="新規グラデーションスウォッチ 9" x1="217.473" y1="88.933" x2="222.45" y2="88.933" xlink:href="#_新規グラデーションスウォッチ_9"/>
    <linearGradient id="_新規グラデーションスウォッチ_9-24" data-name="新規グラデーションスウォッチ 9" x1="217.696" y1="88.933" x2="222.227" y2="88.933" xlink:href="#_新規グラデーションスウォッチ_9"/>
    <linearGradient id="_新規グラデーションスウォッチ_9-25" data-name="新規グラデーションスウォッチ 9" x1="232.163" y1="88.551" x2="241.602" y2="88.551" gradientTransform="translate(325.944 -147.95) rotate(90)" xlink:href="#_新規グラデーションスウォッチ_9"/>
    <linearGradient id="_新規グラデーションスウォッチ_9-26" data-name="新規グラデーションスウォッチ 9" x1="232.387" y1="88.551" x2="241.379" y2="88.551" gradientTransform="translate(325.944 -147.95) rotate(90)" xlink:href="#_新規グラデーションスウォッチ_9"/>
    <linearGradient id="_新規グラデーションスウォッチ_9-27" data-name="新規グラデーションスウォッチ 9" x1="232.61" y1="88.551" x2="241.156" y2="88.551" gradientTransform="translate(325.944 -147.95) rotate(90)" xlink:href="#_新規グラデーションスウォッチ_9"/>
    <linearGradient id="_新規グラデーションスウォッチ_9-28" data-name="新規グラデーションスウォッチ 9" x1="232.833" y1="88.551" x2="240.933" y2="88.551" gradientTransform="translate(325.944 -147.95) rotate(90)" xlink:href="#_新規グラデーションスウォッチ_9"/>
    <linearGradient id="_新規グラデーションスウォッチ_9-29" data-name="新規グラデーションスウォッチ 9" x1="233.056" y1="88.551" x2="240.71" y2="88.551" gradientTransform="translate(325.944 -147.95) rotate(90)" xlink:href="#_新規グラデーションスウォッチ_9"/>
    <linearGradient id="_新規グラデーションスウォッチ_9-30" data-name="新規グラデーションスウォッチ 9" x1="233.279" y1="88.551" x2="240.487" y2="88.551" gradientTransform="translate(325.944 -147.95) rotate(90)" xlink:href="#_新規グラデーションスウォッチ_9"/>
    <linearGradient id="_新規グラデーションスウォッチ_9-31" data-name="新規グラデーションスウォッチ 9" x1="233.502" y1="88.551" x2="240.264" y2="88.551" gradientTransform="translate(325.944 -147.95) rotate(90)" xlink:href="#_新規グラデーションスウォッチ_9"/>
    <linearGradient id="_新規グラデーションスウォッチ_9-32" data-name="新規グラデーションスウォッチ 9" x1="233.725" y1="88.551" x2="240.041" y2="88.551" gradientTransform="translate(325.944 -147.95) rotate(90)" xlink:href="#_新規グラデーションスウォッチ_9"/>
    <linearGradient id="_新規グラデーションスウォッチ_9-33" data-name="新規グラデーションスウォッチ 9" x1="233.948" y1="88.551" x2="239.817" y2="88.551" gradientTransform="translate(325.944 -147.95) rotate(90)" xlink:href="#_新規グラデーションスウォッチ_9"/>
    <linearGradient id="_新規グラデーションスウォッチ_9-34" data-name="新規グラデーションスウォッチ 9" x1="234.171" y1="88.551" x2="239.594" y2="88.551" gradientTransform="translate(325.944 -147.95) rotate(90)" xlink:href="#_新規グラデーションスウォッチ_9"/>
    <linearGradient id="_新規グラデーションスウォッチ_9-35" data-name="新規グラデーションスウォッチ 9" x1="234.394" y1="88.551" x2="239.371" y2="88.551" gradientTransform="translate(325.944 -147.95) rotate(90)" xlink:href="#_新規グラデーションスウォッチ_9"/>
    <linearGradient id="_新規グラデーションスウォッチ_9-36" data-name="新規グラデーションスウォッチ 9" x1="234.618" y1="88.551" x2="239.148" y2="88.551" gradientTransform="translate(325.944 -147.95) rotate(90)" xlink:href="#_新規グラデーションスウォッチ_9"/>
    <linearGradient id="_新規グラデーションスウォッチ_9-37" data-name="新規グラデーションスウォッチ 9" x1="187.378" y1="88.933" x2="196.817" y2="88.933" xlink:href="#_新規グラデーションスウォッチ_9"/>
    <linearGradient id="_新規グラデーションスウォッチ_9-38" data-name="新規グラデーションスウォッチ 9" x1="187.601" y1="88.933" x2="196.594" y2="88.933" xlink:href="#_新規グラデーションスウォッチ_9"/>
    <linearGradient id="_新規グラデーションスウォッチ_9-39" data-name="新規グラデーションスウォッチ 9" x1="187.825" y1="88.933" x2="196.371" y2="88.933" xlink:href="#_新規グラデーションスウォッチ_9"/>
    <linearGradient id="_新規グラデーションスウォッチ_9-40" data-name="新規グラデーションスウォッチ 9" x1="188.048" y1="88.933" x2="196.148" y2="88.933" xlink:href="#_新規グラデーションスウォッチ_9"/>
    <linearGradient id="_新規グラデーションスウォッチ_9-41" data-name="新規グラデーションスウォッチ 9" x1="188.271" y1="88.933" x2="195.925" y2="88.933" xlink:href="#_新規グラデーションスウォッチ_9"/>
    <linearGradient id="_新規グラデーションスウォッチ_9-42" data-name="新規グラデーションスウォッチ 9" x1="188.494" y1="88.933" x2="195.702" y2="88.933" xlink:href="#_新規グラデーションスウォッチ_9"/>
    <linearGradient id="_新規グラデーションスウォッチ_9-43" data-name="新規グラデーションスウォッチ 9" x1="188.717" y1="88.933" x2="195.479" y2="88.933" xlink:href="#_新規グラデーションスウォッチ_9"/>
    <linearGradient id="_新規グラデーションスウォッチ_9-44" data-name="新規グラデーションスウォッチ 9" x1="188.94" y1="88.933" x2="195.256" y2="88.933" xlink:href="#_新規グラデーションスウォッチ_9"/>
    <linearGradient id="_新規グラデーションスウォッチ_9-45" data-name="新規グラデーションスウォッチ 9" x1="189.163" y1="88.933" x2="195.032" y2="88.933" xlink:href="#_新規グラデーションスウォッチ_9"/>
    <linearGradient id="_新規グラデーションスウォッチ_9-46" data-name="新規グラデーションスウォッチ 9" x1="189.386" y1="88.933" x2="194.809" y2="88.933" xlink:href="#_新規グラデーションスウォッチ_9"/>
    <linearGradient id="_新規グラデーションスウォッチ_9-47" data-name="新規グラデーションスウォッチ 9" x1="189.609" y1="88.933" x2="194.586" y2="88.933" xlink:href="#_新規グラデーションスウォッチ_9"/>
    <linearGradient id="_新規グラデーションスウォッチ_9-48" data-name="新規グラデーションスウォッチ 9" x1="189.832" y1="88.933" x2="194.363" y2="88.933" xlink:href="#_新規グラデーションスウォッチ_9"/>
    <linearGradient id="_新規グラデーションスウォッチ_9-49" data-name="新規グラデーションスウォッチ 9" x1="172.891" y1="88.629" x2="182.33" y2="88.629" gradientTransform="translate(-.46 .304)" xlink:href="#_新規グラデーションスウォッチ_9"/>
    <linearGradient id="_新規グラデーションスウォッチ_9-50" data-name="新規グラデーションスウォッチ 9" x1="173.114" y1="88.629" x2="182.107" y2="88.629" gradientTransform="translate(-.46 .304)" xlink:href="#_新規グラデーションスウォッチ_9"/>
    <linearGradient id="_新規グラデーションスウォッチ_9-51" data-name="新規グラデーションスウォッチ 9" x1="173.337" y1="88.629" x2="181.884" y2="88.629" gradientTransform="translate(-.46 .304)" xlink:href="#_新規グラデーションスウォッチ_9"/>
    <linearGradient id="_新規グラデーションスウォッチ_9-52" data-name="新規グラデーションスウォッチ 9" x1="173.56" y1="88.629" x2="181.66" y2="88.629" gradientTransform="translate(-.46 .304)" xlink:href="#_新規グラデーションスウォッチ_9"/>
    <linearGradient id="_新規グラデーションスウォッチ_9-53" data-name="新規グラデーションスウォッチ 9" x1="173.783" y1="88.629" x2="181.437" y2="88.629" gradientTransform="translate(-.46 .304)" xlink:href="#_新規グラデーションスウォッチ_9"/>
    <linearGradient id="_新規グラデーションスウォッチ_9-54" data-name="新規グラデーションスウォッチ 9" x1="174.006" y1="88.629" x2="181.214" y2="88.629" gradientTransform="translate(-.46 .304)" xlink:href="#_新規グラデーションスウォッチ_9"/>
    <linearGradient id="_新規グラデーションスウォッチ_9-55" data-name="新規グラデーションスウォッチ 9" x1="174.229" y1="88.629" x2="180.991" y2="88.629" gradientTransform="translate(-.46 .304)" xlink:href="#_新規グラデーションスウォッチ_9"/>
    <linearGradient id="_新規グラデーションスウォッチ_9-56" data-name="新規グラデーションスウォッチ 9" x1="174.453" y1="88.629" x2="180.768" y2="88.629" gradientTransform="translate(-.46 .304)" xlink:href="#_新規グラデーションスウォッチ_9"/>
    <linearGradient id="_新規グラデーションスウォッチ_9-57" data-name="新規グラデーションスウォッチ 9" x1="174.676" y1="88.629" x2="180.545" y2="88.629" gradientTransform="translate(-.46 .304)" xlink:href="#_新規グラデーションスウォッチ_9"/>
    <linearGradient id="_新規グラデーションスウォッチ_9-58" data-name="新規グラデーションスウォッチ 9" x1="174.899" y1="88.629" x2="180.322" y2="88.629" gradientTransform="translate(-.46 .304)" xlink:href="#_新規グラデーションスウォッチ_9"/>
    <linearGradient id="_新規グラデーションスウォッチ_9-59" data-name="新規グラデーションスウォッチ 9" x1="175.122" y1="88.629" x2="180.099" y2="88.629" gradientTransform="translate(-.46 .304)" xlink:href="#_新規グラデーションスウォッチ_9"/>
    <linearGradient id="_新規グラデーションスウォッチ_9-60" data-name="新規グラデーションスウォッチ 9" x1="175.345" y1="88.629" x2="179.876" y2="88.629" gradientTransform="translate(-.46 .304)" xlink:href="#_新規グラデーションスウォッチ_9"/>
    <linearGradient id="_名称未設定グラデーション_49" data-name="名称未設定グラデーション 49" x1="989.608" y1="219.497" x2="989.608" y2=".338" gradientTransform="translate(1092.189) rotate(-180) scale(1 -1)" gradientUnits="userSpaceOnUse">
      <stop offset="0" stop-color="#e79274"/>
      <stop offset="1" stop-color="#f4e7ce"/>
    </linearGradient>
    <linearGradient id="_名称未設定グラデーション_11" data-name="名称未設定グラデーション 11" x1="1071.504" y1="83.217" x2="864.829" y2="170.091" gradientTransform="translate(1092.189) rotate(-180) scale(1 -1)" gradientUnits="userSpaceOnUse">
      <stop offset=".068" stop-color="#f2dec5" stop-opacity="0"/>
      <stop offset=".459" stop-color="#efd8c0" stop-opacity=".011"/>
      <stop offset=".599" stop-color="#e6c2ae" stop-opacity=".05"/>
      <stop offset=".7" stop-color="#d79c90" stop-opacity=".118"/>
      <stop offset=".78" stop-color="#c16664" stop-opacity=".214"/>
      <stop offset=".83" stop-color="#ae373e" stop-opacity=".3"/>
    </linearGradient>
    <linearGradient id="_名称未設定グラデーション_49-2" data-name="名称未設定グラデーション 49" x1="771.809" y1="220.932" x2="771.809" y2=".338" gradientTransform="translate(-449.909)" xlink:href="#_名称未設定グラデーション_49"/>
  </defs>
  <g id="_04" data-name="04">
    <g>
      <rect class="cls-55" width="411.711" height="275.329"/>
      <path class="cls-14" d="m136.535,201.647c.853-.213,34.563-19.841,66.992-19.841s70.832,22.615,70.832,22.615l2.347-94.087s-144.864.213-144.864,1.067,4.694,90.247,4.694,90.247Z"/>
      <path class="cls-13" d="m106.216.338c.588,38.433,6.293,136.864,21.891,145.066,20.695,10.881,29.229-8.747,29.229-8.747,0,0-3.236-8.618.396-8.702,2.723-.063,4.932,3.968,5.527,4.827s4.852,8.525,6.608,8.381c1.627-.133,2.473-3.574,3.438-4.657,1.214-1.362,2.476-5.303,4.672-5.823,1.038-.246,2.027.4,3.029,1.939,0,0,1.343,2.601,3.158,2.541,2.4-.08,3.212-2.027,3.686-3.12s1.351-3.223,3.327-3.227c2.24-.004,3.094,2.907,3.254,3.227.16.32,1.068,3.242,3.6,3.334,2.96.107,3.787-2.72,4.107-3.547s1.173-3.048,3.174-3.017,2.921,1.921,3.787,3.284c.552.869,1.334,2.476,2.747,2.534,1.973.08,2.827-2.347,3.147-2.96.32-.613,1.28-2.48,2.987-2.48s2.8,1.2,3.494,2.88c.392.949,1.253,3.494,3.974,3.387,2.72-.107,2.877-1.948,3.014-2.48.293-1.147.853-2.396,2.156-2.503,3.776-.309,4.193,6.523,7.521,7.628,3.749,1.245,9.712.037,10.163.527l1.097-15.528s3.966-6.012,11.578-3.173c22.068,8.232,29.899-74.624,39.978-119.59"/>
      <g class="cls-1">
        <ellipse class="cls-54" cx="206.179" cy="89.933" rx="4.719" ry="42.27"/>
        <ellipse class="cls-8" cx="206.179" cy="89.933" rx="4.496" ry="41.815"/>
        <ellipse class="cls-72" cx="206.179" cy="89.933" rx="4.273" ry="41.359"/>
        <ellipse class="cls-67" cx="206.179" cy="89.933" rx="4.05" ry="40.904"/>
        <ellipse class="cls-49" cx="206.179" cy="89.933" rx="3.827" ry="40.449"/>
        <ellipse class="cls-39" cx="206.179" cy="89.933" rx="3.604" ry="39.994"/>
        <ellipse class="cls-29" cx="206.179" cy="89.933" rx="3.381" ry="39.539"/>
        <ellipse class="cls-44" cx="206.179" cy="89.933" rx="3.158" ry="39.083"/>
        <ellipse class="cls-34" cx="206.179" cy="89.933" rx="2.935" ry="38.628"/>
        <ellipse class="cls-15" cx="206.179" cy="89.933" rx="2.712" ry="38.173"/>
        <ellipse class="cls-23" cx="206.179" cy="89.933" rx="2.488" ry="37.718"/>
        <ellipse class="cls-61" cx="206.179" cy="89.933" rx="2.265" ry="37.263"/>
      </g>
      <g class="cls-1">
        <ellipse class="cls-51" cx="219.961" cy="88.933" rx="4.719" ry="42.27"/>
        <ellipse class="cls-9" cx="219.961" cy="88.933" rx="4.496" ry="41.815"/>
        <ellipse class="cls-69" cx="219.961" cy="88.933" rx="4.273" ry="41.359"/>
        <ellipse class="cls-63" cx="219.961" cy="88.933" rx="4.05" ry="40.904"/>
        <ellipse class="cls-47" cx="219.961" cy="88.933" rx="3.827" ry="40.449"/>
        <ellipse class="cls-36" cx="219.961" cy="88.933" rx="3.604" ry="39.994"/>
        <ellipse class="cls-28" cx="219.961" cy="88.933" rx="3.381" ry="39.539"/>
        <ellipse class="cls-40" cx="219.961" cy="88.933" rx="3.158" ry="39.083"/>
        <ellipse class="cls-32" cx="219.961" cy="88.933" rx="2.935" ry="38.628"/>
        <ellipse class="cls-17" cx="219.961" cy="88.933" rx="2.712" ry="38.173"/>
        <ellipse class="cls-21" cx="219.961" cy="88.933" rx="2.488" ry="37.718"/>
        <ellipse class="cls-59" cx="219.961" cy="88.933" rx="2.265" ry="37.263"/>
      </g>
      <g class="cls-1">
        <ellipse class="cls-53" cx="237.393" cy="88.933" rx="42.27" ry="4.719" transform="translate(126.293 316.795) rotate(-84.544)"/>
        <ellipse class="cls-10" cx="237.393" cy="88.933" rx="41.815" ry="4.496" transform="translate(126.293 316.795) rotate(-84.544)"/>
        <ellipse class="cls-68" cx="237.393" cy="88.933" rx="41.359" ry="4.273" transform="translate(126.293 316.795) rotate(-84.544)"/>
        <ellipse class="cls-64" cx="237.393" cy="88.933" rx="40.904" ry="4.05" transform="translate(126.293 316.795) rotate(-84.544)"/>
        <ellipse class="cls-46" cx="237.393" cy="88.933" rx="40.449" ry="3.827" transform="translate(126.293 316.795) rotate(-84.544)"/>
        <ellipse class="cls-37" cx="237.393" cy="88.933" rx="39.994" ry="3.604" transform="translate(126.293 316.795) rotate(-84.544)"/>
        <ellipse class="cls-25" cx="237.393" cy="88.933" rx="39.539" ry="3.381" transform="translate(126.293 316.795) rotate(-84.544)"/>
        <ellipse class="cls-42" cx="237.393" cy="88.933" rx="39.083" ry="3.158" transform="translate(126.293 316.795) rotate(-84.544)"/>
        <ellipse class="cls-31" cx="237.393" cy="88.933" rx="38.628" ry="2.935" transform="translate(126.293 316.795) rotate(-84.544)"/>
        <ellipse class="cls-16" cx="237.393" cy="88.933" rx="38.173" ry="2.712" transform="translate(126.293 316.795) rotate(-84.544)"/>
        <ellipse class="cls-20" cx="237.393" cy="88.933" rx="37.718" ry="2.488" transform="translate(126.293 316.795) rotate(-84.544)"/>
        <ellipse class="cls-60" cx="237.393" cy="88.933" rx="37.263" ry="2.265" transform="translate(126.293 316.795) rotate(-84.544)"/>
      </g>
      <g class="cls-1">
        <ellipse class="cls-52" cx="192.098" cy="88.933" rx="4.719" ry="42.27"/>
        <ellipse class="cls-11" cx="192.098" cy="88.933" rx="4.496" ry="41.815"/>
        <ellipse class="cls-70" cx="192.098" cy="88.933" rx="4.273" ry="41.359"/>
        <ellipse class="cls-66" cx="192.098" cy="88.933" rx="4.05" ry="40.904"/>
        <ellipse class="cls-45" cx="192.098" cy="88.933" rx="3.827" ry="40.449"/>
        <ellipse class="cls-38" cx="192.098" cy="88.933" rx="3.604" ry="39.994"/>
        <ellipse class="cls-27" cx="192.098" cy="88.933" rx="3.381" ry="39.539"/>
        <ellipse class="cls-43" cx="192.098" cy="88.933" rx="3.158" ry="39.083"/>
        <ellipse class="cls-30" cx="192.098" cy="88.933" rx="2.935" ry="38.628"/>
        <ellipse class="cls-19" cx="192.098" cy="88.933" rx="2.712" ry="38.173"/>
        <ellipse class="cls-24" cx="192.098" cy="88.933" rx="2.488" ry="37.718"/>
        <ellipse class="cls-58" cx="192.098" cy="88.933" rx="2.265" ry="37.263"/>
      </g>
      <g class="cls-1">
        <ellipse class="cls-50" cx="177.15" cy="88.933" rx="4.719" ry="42.27" transform="translate(-7.02 15.635) rotate(-4.955)"/>
        <ellipse class="cls-12" cx="177.15" cy="88.933" rx="4.496" ry="41.815" transform="translate(-7.02 15.635) rotate(-4.955)"/>
        <ellipse class="cls-71" cx="177.15" cy="88.933" rx="4.273" ry="41.359" transform="translate(-7.02 15.635) rotate(-4.955)"/>
        <ellipse class="cls-65" cx="177.15" cy="88.933" rx="4.05" ry="40.904" transform="translate(-7.02 15.635) rotate(-4.955)"/>
        <ellipse class="cls-48" cx="177.15" cy="88.933" rx="3.827" ry="40.449" transform="translate(-7.02 15.635) rotate(-4.955)"/>
        <ellipse class="cls-35" cx="177.15" cy="88.933" rx="3.604" ry="39.994" transform="translate(-7.02 15.635) rotate(-4.955)"/>
        <ellipse class="cls-26" cx="177.15" cy="88.933" rx="3.381" ry="39.539" transform="translate(-7.02 15.635) rotate(-4.955)"/>
        <ellipse class="cls-41" cx="177.15" cy="88.933" rx="3.158" ry="39.083" transform="translate(-7.02 15.635) rotate(-4.955)"/>
        <ellipse class="cls-33" cx="177.15" cy="88.933" rx="2.935" ry="38.628" transform="translate(-7.02 15.635) rotate(-4.955)"/>
        <ellipse class="cls-18" cx="177.15" cy="88.933" rx="2.712" ry="38.173" transform="translate(-7.02 15.635) rotate(-4.955)"/>
        <ellipse class="cls-22" cx="177.15" cy="88.933" rx="2.488" ry="37.718" transform="translate(-7.02 15.635) rotate(-4.955)"/>
        <ellipse class="cls-62" cx="177.15" cy="88.933" rx="2.265" ry="37.263" transform="translate(-7.02 15.635) rotate(-4.955)"/>
      </g>
      <path class="cls-74" d="m137.279,43.547c10.542,17.627,17.177,24.521,19.168,27.65s17.129,18.258,15.705,42.47c-.453,7.705-3.077,12.425-3.077,12.425,0,0-4.811,9.689-1.431,10.19,1.595.236,3.007-.501,3.007-.501,0,0,3.073-2.258,4.424-1.289,1.481,1.062,2.046,1.992-.289,8.463-.522,1.447,18.438,5.593,25.476,22.419,9.694,23.176,1.407,35.384-3.446,40.484-10.094,10.608-22.263,6.618-32.06-3.613-5.875-6.136-10.184,4.279-24.818,10.259-7.807,3.19-60.088,19.244-139.534-11.762V.338s123.749.319,123.749.319c2.02,11.567,3.812,27.318,13.126,42.89Z"/>
      <path class="cls-6" d="m124.153.657c2.02,11.567,3.812,27.318,13.126,42.89,10.542,17.627,17.177,24.521,19.168,27.65s17.129,18.258,15.705,42.47c-.453,7.705-3.077,12.425-3.077,12.425,0,0-4.811,9.689-1.431,10.19,1.595.236,3.007-.501,3.007-.501,0,0,3.073-2.258,4.424-1.289,1.481,1.062,2.046,1.992-.289,8.463-.522,1.447,18.384,3.098,25.476,22.419,10.048,27.373-.239,39.046-7.092,43.941-9.09,6.492-21.506,1.689-28.414-7.069-5.197-6.59-10.184,4.279-24.818,10.259-7.807,3.19-60.088,19.244-139.534-11.762"/>
      <path class="cls-73" d="m137.279,43.547c10.542,17.627,17.177,24.521,19.168,27.65s17.129,18.258,15.705,42.47c-.453,7.705-3.077,12.425-3.077,12.425,0,0-4.811,9.689-1.431,10.19,1.595.236,3.007-.501,3.007-.501,0,0,3.073-2.258,4.424-1.289,1.481,1.062,2.046,1.992-.289,8.463-.522,1.447,17.09,2.29,25.476,22.419,6.729,16.152,4.102,31.671-.387,37.094-7.123,8.605-18.322,17.028-35.12-.223-5.855-6.013-10.184,4.279-24.818,10.259-7.807,3.19-60.088,19.244-139.534-11.762V.338s123.749.319,123.749.319c2.02,11.567,3.812,27.318,13.126,42.89Z"/>
      <path class="cls-57" d="m271.504,43.547c-10.542,17.627-17.177,24.521-19.168,27.65-1.991,3.129-17.129,18.258-15.705,42.47.453,7.705,3.077,12.425,3.077,12.425,0,0,4.811,9.689,1.431,10.19-1.595.236-3.007-.501-3.007-.501,0,0-3.073-2.258-4.424-1.289-1.481,1.062-2.046,1.992.289,8.463.522,1.447,1.645,11.794,1.929,20.328.285,8.534,1.7,9.845,4.118,13.259,2.418,3.414,3.598,10.994,4.944,14.16,3.284,7.723,11.292,16.265,25.925,22.245,7.807,3.19,66.502,21.899,140.467-12.204V.338l-126.749.319c-2.02,11.567-3.812,27.318-13.126,42.89Z"/>
      <path class="cls-6" d="m284.63.657c-2.02,11.567-3.812,27.318-13.126,42.89-10.542,17.627-17.177,24.521-19.168,27.65-1.991,3.129-17.129,18.258-15.705,42.47.453,7.705,3.077,12.425,3.077,12.425,0,0,4.811,9.689,1.431,10.19-1.595.236-3.007-.501-3.007-.501,0,0-3.073-2.258-4.424-1.289-1.481,1.062-2.046,1.992.289,8.463.522,1.447,1.645,11.794,1.929,20.328.285,8.534,1.7,9.845,4.118,13.259,2.418,3.414,3.598,10.994,4.944,14.16,3.284,7.723,11.292,16.265,25.925,22.245,7.807,3.19,66.502,21.899,140.467-12.204"/>
    </g>
    <g>
      <path class="cls-3" d="m166.672,146.053c-7.066-3.114-15.109-20.29-17.422-31.261-1.819-8.627-2.014-16.217-3.07-26.305-1.021-9.758-.037-12.143-2.8-18.711s-15.195-20.759-19.879-37.266c-2.93-10.326-5.894-24.545-6.14-31.628"/>
      <path class="cls-3" d="m166.672,146.053c-.1-3.03-8.765-5.547-1.239-20.936,5.229-10.692,3.057-25.497-2.045-37.478-2.072-4.866-6.426-11.501-12.724-18.199-8.165-8.683-22.008-25.606-25.187-43.847,0,0-3.066-12.792-4.488-24.479"/>
      <path class="cls-3" d="m143.862,71.115l8.299,13.702-1.032,6.019.403,6.717-.011,4.49,3.347,4.298s-4.631,5.261-5.207,10.342"/>
      <line class="cls-3" x1="150.664" y1="69.441" x2="149.164" y2="80.416"/>
      <path class="cls-3" d="m156.523,75.61l-4.361,9.207,3.388,9.168s-.152,5.963,1.347,10.804c0,0-.832,6.417,2.711,11.399l1.093,5.677-3.561,7.403"/>
      <line class="cls-3" x1="147.163" y1="94.79" x2="151.129" y2="90.836"/>
      <path class="cls-3" d="m161.921,85.04s-.233,5.391-1.221,6.581-2.745,1.525-2.745,1.525l-2.405.84-1.245,2.531-2.773,1.037s-2.689.947-4.156,4.082"/>
      <path class="cls-3" d="m164.754,91.808s-3.753,2.717-3.424,5.852c.329,3.135,5.345,7.516,7.257,8.919"/>
      <path class="cls-3" d="m157.955,93.145s-.707,4.171,3.352,3.37"/>
      <path class="cls-3" d="m158.605,95.968s1.049,5.983-2.732,9.659c0,0-3.436,1.892-2.777,4.801.659,2.909,4.063,5.179,7.603,4.53,3.541-.649,7.888.841,7.888.841"/>
      <path class="cls-3" d="m165.935,104.346s-5.358-4.013-8.028-3.295"/>
      <path class="cls-3" d="m168.588,106.58c-.703.625-4.751,4.902-3.639,8.82"/>
      <path class="cls-3" d="m156.897,104.789s3.772,7.221,8.426,6.528"/>
      <path class="cls-3" d="m151.521,102.042s-2.098,2.082-2.99,8.916"/>
      <path class="cls-3" d="m151.118,121.531s4.416-7.162,5.653-7.013l.546,21.879"/>
      <line class="cls-3" x1="165.323" y1="124.107" x2="160.7" y2="121.865"/>
    </g>
    <g class="cls-2">
      <path class="cls-3" d="m248.291,148.817c.139-8.206,9.237-23.054,11.55-34.025,1.819-8.627,2.014-16.217,3.07-26.305,1.021-9.758.037-12.143,2.8-18.711,2.763-6.568,15.195-20.759,19.879-37.266,2.93-10.326,5.894-24.545,6.14-31.628"/>
      <path class="cls-3" d="m328.598,199.807s-21.686,7.947-34.175,10.044c-11.392,1.912-16.039,2.747-31.833-5.108-13.186-6.558-15.726-25.237-15.726-28.48,0-3.243,1.363-27.466,1.528-30.493.165-3.027,2.793-5.264-4.733-20.652-5.229-10.692-3.057-25.497,2.045-37.478,2.072-4.866,6.426-11.501,12.724-18.199,8.165-8.683,22.008-25.606,25.187-43.847,0,0,3.066-12.792,4.488-24.479"/>
      <path class="cls-3" d="m265.229,71.115l-8.299,13.702,1.032,6.019-.403,6.717.011,4.49-3.347,4.298s4.631,5.261,5.207,10.342"/>
      <line class="cls-3" x1="258.427" y1="69.441" x2="259.928" y2="80.416"/>
      <path class="cls-3" d="m252.569,75.61l4.361,9.207-3.388,9.168s.152,5.963-1.347,10.804c0,0,.832,6.417-2.711,11.399l-1.093,5.677,3.561,7.403"/>
      <line class="cls-3" x1="261.929" y1="94.79" x2="257.962" y2="90.836"/>
      <path class="cls-3" d="m247.17,85.04s.233,5.391,1.221,6.581,2.745,1.525,2.745,1.525l2.405.84,1.245,2.531,2.773,1.037s2.689.947,4.156,4.082"/>
      <path class="cls-3" d="m244.337,91.808s3.753,2.717,3.424,5.852c-.329,3.135-5.345,7.516-7.257,8.919"/>
      <path class="cls-3" d="m251.137,93.145s.707,4.171-3.352,3.37"/>
      <path class="cls-3" d="m250.486,95.968s-1.049,5.983,2.732,9.659c0,0,3.436,1.892,2.777,4.801-.659,2.909-4.063,5.179-7.603,4.53s-7.888.841-7.888.841"/>
      <path class="cls-3" d="m243.156,104.346s5.358-4.013,8.028-3.295"/>
      <path class="cls-3" d="m240.504,106.58c.703.625,4.751,4.902,3.639,8.82"/>
      <path class="cls-3" d="m252.195,104.789s-3.772,7.221-8.426,6.528"/>
      <path class="cls-3" d="m257.57,102.042s2.098,2.082,2.99,8.916"/>
      <path class="cls-3" d="m257.973,121.531s-4.416-7.162-5.653-7.013l-.546,21.879"/>
      <line class="cls-3" x1="243.769" y1="124.107" x2="248.391" y2="121.865"/>
      <path class="cls-3" d="m327.713,196.122s-24.357,6.1-40.161,6.879c-10.085.497-21.503-5.644-25.403-9.638-7.018-7.188-13.002-13.154-14.758-29.085"/>
      <path class="cls-3" d="m277.25,204.969c6.414,2.207,11.1,0,11.1,0"/>
      <path class="cls-3" d="m274.868,207.394s4.924,1.845,8.052,0c3.85-2.271,18.912-5.846,18.912-5.846"/>
      <path class="cls-7" d="m267.321,206.729c1.275-.775,2.752-2.956,2.402-8.183.066.362,6.175,11.265,5.899,10.751"/>
      <path class="cls-7" d="m279.793,202.246c-.627,2.589-2.33,3.919-7.203,1.302"/>
      <path class="cls-7" d="m282.921,207.394s16.116-.817,18.092,1.054"/>
      <path class="cls-7" d="m252.483,181.551c-.11,1.052,2.432,13.215,2.083,15.866"/>
      <path class="cls-7" d="m248.333,184.862s3.773,2.014,5.578,5.872"/>
      <path class="cls-7" d="m257.973,188.978s.225,6.855,1.756,9.067c1.217,1.759,2.033.276,1.632,5.503"/>
      <line class="cls-7" x1="254.566" y1="197.417" x2="258.942" y2="196.11"/>
      <line class="cls-7" x1="257.382" y1="201.098" x2="259.729" y2="198.045"/>
      <path class="cls-7" d="m260.898,201.097s2.815-.636,4.133-.54,2.651,5.302,2.651,5.302"/>
      <line class="cls-7" x1="262.15" y1="193.362" x2="265.031" y2="200.557"/>
    </g>
    <g id="_02" data-name="02">
      <g>
        <path class="cls-5" d="m165.42,143.681c3.28,5.009,18.318,3.62,26.794,17.045,5.012,7.939,10.745,27.64,1.675,38.948-4.678,5.832-12.468,7.536-27.1-4.937-3.762-3.207-23.223,9.933-43.158,10.723-12.368.49-23.53-2.257-26.385-3.213"/>
        <path class="cls-5" d="m97.247,199.201c17.771,4.612,31.89,2.083,38.321-.654,33.667-14.325,40.163-33.046,29.852-54.866"/>
        <path class="cls-4" d="m167.964,145.593c.144,1.052,10.873,3.331,2.947,11.924"/>
        <path class="cls-4" d="m185.391,151.857s-1.73,17.318-13.107-4.182"/>
        <path class="cls-4" d="m169.235,155.952c14.039,16.565,17.925,14.33,16.712,20.234-1.669,8.129-10.992,16.296-19.979,18.55"/>
        <path class="cls-4" d="m167.592,169.579s13.566-2.407,19.786,4.668l-7.095-14.342s6.183,1.202,12.941,2.529"/>
        <path class="cls-5" d="m167.964,170.203s8.816,4.472,10.245,14.019"/>
        <path class="cls-5" d="m183.274,172.517s6.927,4.763,13.696,3.436"/>
        <path class="cls-4" d="m180.332,185.283s11.872,8.811,16.486,10.98"/>
        <path class="cls-4" d="m159.849,181.729s12.434,5.768,20.483,3.554c0,0,5.898,17.37,3.087,18.376"/>
        <path class="cls-5" d="m183.274,172.517s14.472,19.211,13.543,23.746"/>
        <path class="cls-4" d="m152.935,189.881s10.131,2.44,13.032,4.855"/>
      </g>
      <ellipse class="cls-56" cx="197.59" cy="177.212" rx="4.146" ry="6.194" transform="translate(-9.985 11.808) rotate(-3.339)"/>
      <ellipse class="cls-56" cx="176.502" cy="148.548" rx="2.813" ry="4.506" transform="translate(-.033 297.057) rotate(-80.157)"/>
      <ellipse class="cls-56" cx="185.131" cy="153.592" rx="2.659" ry="4.138" transform="translate(-52.193 192.846) rotate(-49.072)"/>
      <ellipse class="cls-56" cx="152.935" cy="188.978" rx="5.526" ry="3.8" transform="translate(-51.612 57.592) rotate(-18.304)"/>
      <ellipse class="cls-56" cx="196.296" cy="193.362" rx="6.264" ry="4.442" transform="translate(-61.729 290.028) rotate(-65.106)"/>
      <ellipse class="cls-56" cx="193.145" cy="163.425" rx="3.085" ry="4.704" transform="translate(-51.997 100.829) rotate(-25.911)"/>
      <ellipse class="cls-56" cx="180.284" cy="159.906" rx="3.057" ry="4.563" transform="translate(-60.267 174.315) rotate(-45)"/>
      <ellipse class="cls-56" cx="169.235" cy="155.952" rx="3.428" ry="5.095" transform="translate(-29.468 39.855) rotate(-12.364)"/>
      <ellipse class="cls-56" cx="183.418" cy="203.658" rx="5.297" ry="4.137" transform="translate(-45.984 53.68) rotate(-14.817)"/>
      <ellipse class="cls-56" cx="167.964" cy="170.203" rx="5.194" ry="4.056" transform="translate(-70.919 159.45) rotate(-42.802)"/>
      <ellipse class="cls-56" cx="180.45" cy="185.977" rx="6.829" ry="5.469" transform="translate(-73.157 239.206) rotate(-57.718)"/>
      <ellipse class="cls-56" cx="163.011" cy="181.527" rx="4.416" ry="3.55" transform="translate(-71.927 115.735) rotate(-32.432)"/>
      <ellipse class="cls-56" cx="185.787" cy="171.889" rx="4.777" ry="6.949" transform="translate(-44.583 67.045) rotate(-18.304)"/>
      <ellipse class="cls-56" cx="166.919" cy="145.155" rx="2.839" ry="4.764" transform="translate(-54.103 136.146) rotate(-38.677)"/>
      <ellipse class="cls-56" cx="165.968" cy="194.737" rx="3.87" ry="5.913" transform="translate(-43.874 341.14) rotate(-84.463)"/>
    </g>
  </g>
</svg>