<svg viewBox="0 0 317 613" width="317" height="613" xmlns="http://www.w3.org/2000/svg"><g fill="#fff7d2"><path d="m253.1 94-.4 1.3 1.2.5c6.4 2.9 14.5 2.7 21.8-.6s12.8-9 15-15.7l.4-1.3-1.2-.5c-6.4-2.8-14.6-2.6-21.8.6s-12.8 9-15 15.8z"/><path d="m100.3 28.7.8.3.5-.7a20 20 0 0 0 -8.7-27l-.9-.3-.5.8a20 20 0 0 0 8.7 26.8z"/><path d="m35.8 105.8 1-.6-.5-1c-2.8-5.6-8.5-10-15.3-11.8s-13.9-.8-19 2.6l-1 .6.5 1c2.8 5.5 8.5 9.9 15.3 11.7s13.8.9 19-2.5z"/><path d="m222.4 42.2v.9h1a19.6 19.6 0 0 0 18.9-20.2v-1h-1a19.6 19.6 0 0 0 -18.9 20.3z"/><path d="m140 70.5-1.1-1.1-1.2 1c-6.1 5.5-9.8 14.3-9.8 23.5s3.7 17.9 9.8 23.4l1.2 1 1.2-1c6-5.5 9.7-14.3 9.7-23.4s-3.6-18-9.7-23.4zm-24.8 20.8 1.6.4.5-1.6c2.8-8.6 1.4-19-3.7-27.8s-13.3-15.1-22.2-17l-1.6-.3-.5 1.6c-2.8 8.5-1.4 19 3.6 27.7s13.4 15.1 22.3 17zm-21.7 39.9 1.1-1.2-1-1.2c-6-6.8-15.8-10.8-26-10.8s-19.7 4-25.8 10.7l-1 1.3 1 1.2c6 6.7 15.7 10.8 25.9 10.8s19.8-4 25.8-10.8zm67-41.1.6 1.6 1.6-.4c8.8-1.9 17-8.2 22.2-17s6.4-19.2 3.6-27.7l-.6-1.6-1.6.3c-8.8 2-17.1 8.3-22.2 17s-6.4 19.2-3.6 27.8zm75.5 38.7c-6-6.8-15.7-10.8-26-10.8s-19.8 4-25.8 10.7l-1.1 1.3 1 1.2c6 6.7 15.8 10.7 26 10.7s19.7-4 25.8-10.7l1-1.2zm-87.4-60.2 1.4-1a23.8 23.8 0 0 0 5.3-33.2l-1-1.4-1.4 1c-5 3.1-8.6 9-9.6 15.5a22.5 22.5 0 0 0 4.3 17.8zm-20.9-1 1.4 1 1-1.3a23.8 23.8 0 0 0 -5.1-33.3h-.1l-1.4-1-1 1.3a23.8 23.8 0 0 0 5.2 33.3zm69.8 38.6-.6 1.5 1.5.7a20.8 20.8 0 0 0 9.4 2.2 25 25 0 0 0 8.8-1.7 22.5 22.5 0 0 0 13.4-12.6l.6-1.5-1.5-.8a23.8 23.8 0 0 0 -31.5 12v.2zm-10.3-15.4 1.6.3a18.4 18.4 0 0 0 3 .2 23.2 23.2 0 0 0 14.5-5.4 22.8 22.8 0 0 0 8.7-16l.1-1.7-1.6-.3a23.8 23.8 0 0 0 -26.2 21.3zm19.2 83.2a22.6 22.6 0 0 0 -17.6-5.2l-1.6.3v1.6a22.5 22.5 0 0 0 8.8 16.1 23.2 23.2 0 0 0 14.5 5.4 19.5 19.5 0 0 0 3-.2l1.7-.3-.1-1.6c-.3-6-3.6-12-8.7-16.1zm10.3-23a22.5 22.5 0 0 0 -18.3.5l-1.5.8.6 1.5a22.5 22.5 0 0 0 13.3 12.6 25 25 0 0 0 8.8 1.7 20.8 20.8 0 0 0 9.4-2.2l1.5-.8-.6-1.5a22.6 22.6 0 0 0 -13.2-12.6zm-145.3-65a23.4 23.4 0 0 0 14.5 5.3 19.3 19.3 0 0 0 3-.2l1.6-.2v-1.7c-.3-5.9-3.6-12-8.8-16a22.5 22.5 0 0 0 -17.5-5.2l-1.6.3.1 1.6a22.6 22.6 0 0 0 8.7 16zm-10.3 23a24.7 24.7 0 0 0 8.9 1.7 20.5 20.5 0 0 0 9.4-2.2l1.5-.8-.6-1.5a23.8 23.8 0 0 0 -31.5-12.2h-.1l-1.5.8.6 1.5a22.6 22.6 0 0 0 13.3 12.7zm19.2 44.8.5-1.5-1.4-.8a23.8 23.8 0 0 0 -31.5 12v.2l-.6 1.5 1.4.7a20.5 20.5 0 0 0 9.4 2.2 24.7 24.7 0 0 0 8.9-1.7 22.6 22.6 0 0 0 13.3-12.6zm-8.9 20.2a22.9 22.9 0 0 0 -8.7 16v1.7l1.5.3a19.3 19.3 0 0 0 3 .2 23.4 23.4 0 0 0 14.6-5.4 22.6 22.6 0 0 0 8.7-16v-1.8l-1.5-.3a22.6 22.6 0 0 0 -17.6 5.2zm41.7-71.6c-8-4.6-17.4-5.8-25.2-3.3l-1.5.5.3 1.7c1.7 8 7.5 15.5 15.4 20a33.8 33.8 0 0 0 16.7 4.7 27.2 27.2 0 0 0 8.5-1.3l1.5-.5-.3-1.6c-1.7-8-7.5-15.6-15.4-20.2zm-11 36.1a31.5 31.5 0 0 0 -15.4 20.1l-.3 1.6 1.5.6a27.2 27.2 0 0 0 8.5 1.2 33.8 33.8 0 0 0 16.7-4.5c8-4.6 13.7-12.2 15.4-20.2l.3-1.6-1.5-.5a31.7 31.7 0 0 0 -25.2 3.3zm62.6-36a31.5 31.5 0 0 0 -15.4 20l-.4 1.6 1.6.6a27.2 27.2 0 0 0 8.4 1.2 33.7 33.7 0 0 0 16.7-4.5c8-4.6 13.7-12.1 15.4-20.1l.4-1.7-1.6-.5a31.8 31.8 0 0 0 -25.1 3.3zm26.6 57.7-.3-1.6c-1.7-8-7.4-15.5-15.4-20s-17.3-5.9-25.1-3.4l-1.6.6.4 1.6c1.6 8 7.4 15.5 15.4 20a33.6 33.6 0 0 0 16.6 4.7 27.2 27.2 0 0 0 8.5-1.3z"/><path d="m119.8 227a97.6 97.6 0 0 0 38.2 0l-19.1-97z"/><path d="m228.3 319-1-.8-.8.8a24 24 0 0 0 -7.4 17.7 24 24 0 0 0 7.4 17.6l.9.9 1-.9a24 24 0 0 0 7.2-17.6c0-7-2.7-13.6-7.3-17.7zm-18.8 15.7 1.2.3.4-1.2c2-6.5 1-14.3-2.8-21s-10-11.4-16.7-12.8l-1.2-.3-.4 1.2c-2.1 6.5-1.1 14.3 2.7 21s10.1 11.4 16.8 12.8zm-16.3 30.1.8-1-.8-.8c-4.6-5.1-11.9-8.1-19.5-8.1s-15 3-19.6 8l-.8 1 .8.9c4.6 5 11.9 8 19.6 8s14.9-3 19.5-8zm50.5-31 .4 1.2 1.2-.3c6.7-1.4 13-6.2 16.8-12.8s4.8-14.5 2.7-21l-.4-1.1-1.2.2c-6.7 1.4-13 6.2-16.8 12.9s-4.8 14.4-2.7 20.9zm57 29.2c-4.6-5-12-8.1-19.6-8.1s-15 3-19.5 8.1l-.8 1 .8.8c4.6 5.1 11.9 8.1 19.5 8.1s15-3 19.5-8l.9-1zm-66-45.4 1-.7a18 18 0 0 0 4-25.1v-.1l-.8-1-1 .7a17.3 17.3 0 0 0 -7.2 11.7 17 17 0 0 0 3.3 13.5zm-15.7-.7 1 .6.8-1a18 18 0 0 0 -4-25.1l-1-.7-.8 1a18 18 0 0 0 4 25.1zm52.6 29-.4 1.1 1.1.6a15.7 15.7 0 0 0 7.1 1.6 18.7 18.7 0 0 0 6.7-1.2 17 17 0 0 0 10-9.5l.4-1.2-1-.5a18 18 0 0 0 -23.8 9v.1zm-7.8-11.6 1.3.2a14.8 14.8 0 0 0 2.3.2 17.5 17.5 0 0 0 11-4.1 17.3 17.3 0 0 0 6.5-12.2v-1.2l-1.2-.2a18 18 0 0 0 -19.8 16v.1zm14.5 62.8a17 17 0 0 0 -13.2-4l-1.2.3v1.2a17 17 0 0 0 6.6 12.1 17.5 17.5 0 0 0 11 4.1 14.8 14.8 0 0 0 2.2-.1l1.3-.2v-1.3a17.3 17.3 0 0 0 -6.7-12zm7.8-17.4a17 17 0 0 0 -13.8.4l-1 .5.3 1.2a17 17 0 0 0 10 9.5 18.7 18.7 0 0 0 6.7 1.3 15.6 15.6 0 0 0 7.2-1.7l1-.5-.4-1.2a17 17 0 0 0 -10-9.5zm-109.7-49a17.6 17.6 0 0 0 11 4 14.8 14.8 0 0 0 2.3-.2l1.3-.2v-1.2a17.3 17.3 0 0 0 -6.7-12.1 17 17 0 0 0 -13.3-3.9l-1.2.2v1.2a17 17 0 0 0 6.6 12.1zm-7.7 17.3a18.8 18.8 0 0 0 6.7 1.3 15.5 15.5 0 0 0 7-1.7l1.2-.5-.5-1.2a18 18 0 0 0 -23.7-9.2l-1.2.6.5 1.2a17 17 0 0 0 10 9.5zm14.4 33.8.5-1.1-1.1-.6a18 18 0 0 0 -23.8 9v.2l-.4 1.1 1 .6a15.5 15.5 0 0 0 7.2 1.6 18.8 18.8 0 0 0 6.7-1.3 17 17 0 0 0 10-9.4zm-6.6 15.3a17.3 17.3 0 0 0 -6.6 12.2v1.2l1.1.2a14.8 14.8 0 0 0 2.3.2 17.6 17.6 0 0 0 11-4.1 17 17 0 0 0 6.6-12.2v-1.2l-1.1-.2a17 17 0 0 0 -13.3 4zm31.4-54a24 24 0 0 0 -19-2.5l-1.2.4.3 1.2a24 24 0 0 0 11.6 15.2 25.4 25.4 0 0 0 12.6 3.5 20.6 20.6 0 0 0 6.4-1l1.2-.4-.3-1.2c-1.3-6-5.6-11.7-11.6-15.2zm-8.2 27.3a24 24 0 0 0 -11.7 15.2l-.2 1.2 1.1.4a20.6 20.6 0 0 0 6.4 1 25.4 25.4 0 0 0 12.6-3.5c6-3.5 10.4-9.2 11.6-15.2l.3-1.2-1.2-.4c-5.9-1.9-13-1-19 2.5zm47.2-27.3a24 24 0 0 0 -11.7 15.2l-.2 1.2 1.1.4a20.6 20.6 0 0 0 6.4 1 25.5 25.5 0 0 0 12.6-3.5 24 24 0 0 0 11.6-15.2l.3-1.2-1.2-.4a24 24 0 0 0 -19 2.5zm20.1 43.6-.3-1.2c-1.2-6-5.6-11.7-11.6-15.1s-13-4.4-19-2.5l-1.1.4.2 1.2a24 24 0 0 0 11.6 15.1 25.5 25.5 0 0 0 12.6 3.5 20.6 20.6 0 0 0 6.4-1z"/><path d="m213 437.1a73.8 73.8 0 0 0 28.8 0l-14.4-73.1z"/><path d="m249.3 292.6.3.9 1-.2a20.5 20.5 0 0 0 14.4-25l-.2-1-1 .2a20.5 20.5 0 0 0 -14.4 25z"/><path d="m100.6 531.6.8.7.8-.7c4.5-3.9 7.2-10.1 7.3-16.8s-2.4-13-6.7-17l-.8-.7-.8.7c-4.5 3.9-7.2 10.1-7.3 16.8s2.4 13 6.7 17z"/><path d="m111 539.1-.2 1 1 .3c5.7 1.6 12.4.5 18-3s9.6-9 10.6-14.9l.2-1-1-.3c-5.7-1.6-12.4-.5-18 3s-9.5 9.1-10.6 15z"/><path d="m135.3 546.3-.6.5.6.6a17.3 17.3 0 0 0 24.4 0l.5-.6-.5-.5a17.3 17.3 0 0 0 -24.5 0z"/><path d="m136.6 593.3h-.8v.8a17.3 17.3 0 0 0 16.6 17.9h.8v-.8a17.3 17.3 0 0 0 -16.6-17.9z"/><path d="m126 503.7v1h1c5.5-.1 11-3 15-7.7s5.7-10.6 5-16l-.2-1h-1c-5.4.2-11 3-14.9 7.7a21 21 0 0 0 -5 16z"/><path d="m108.6 550h-1l-.2 1c-.9 5.8 1.2 12.3 5.5 17.4s10.3 8.3 16.2 8.5h1l.2-1c.8-6-1.2-12.4-5.5-17.5s-10.3-8.3-16.2-8.5z"/><path d="m94.7 549h1l.2 1c.8 5.9-1.2 12.4-5.5 17.5s-10.3 8.2-16.2 8.4h-1l-.2-1c-.8-5.9 1.2-12.4 5.5-17.5s10.3-8.2 16.2-8.4z"/><path d="m63.4 554.5.5.3-.2.6a14.7 14.7 0 0 1 -19.5 7.1l-.6-.3.2-.6a14.7 14.7 0 0 1 19.6-7z"/><path d="m80.2 508.6.7-.1v-.8a16.2 16.2 0 0 0 -18-14.1l-.8.1v.7a16.2 16.2 0 0 0 18 14.2z"/><path d="m92.4 539.9 1-.4-.3-1c-1.7-5.7-6.3-10.7-12.3-13.5s-12.9-3.1-18.3-.8l-1 .4.3 1c1.7 5.7 6.3 10.7 12.3 13.5s12.9 3 18.3.8z"/><path d="m294.2 309v1h1a20.2 20.2 0 0 0 20.8-19.4v-1h-.9a20.1 20.1 0 0 0 -20.9 19.4z"/><path d="m180.2 300.9h.9v-1a20.5 20.5 0 0 0 -20-20.8h-1.1v1a20.5 20.5 0 0 0 20.1 20.8z"/></g></svg>