<?xml version="1.0" encoding="utf-8"?>
<!-- Generator: Adobe Illustrator 27.2.0, SVG Export Plug-In . SVG Version: 6.00 Build 0)  -->
<svg version="1.1" id="レイヤー_1" xmlns="http://www.w3.org/2000/svg" xmlns:xlink="http://www.w3.org/1999/xlink" x="0px"
	 y="0px" viewBox="0 0 93.1 69.4" style="enable-background:new 0 0 93.1 69.4;" xml:space="preserve">
<style type="text/css">
	.st0{fill:#F8E690;}
	.st1{fill:#FFFFFF;}
</style>
<g>
	<path class="st0" d="M92.6,12.4L83,10c-0.3-0.1-0.5-0.2-0.5-0.5L80,0.5C79.9,0.2,79.7,0,79.4,0c-0.3,0-0.5,0.2-0.6,0.5l-2.5,9.1
		C76.2,9.8,76,10,75.8,10l-9.6,2.4c-0.3,0.1-0.5,0.3-0.5,0.6c0,0.3,0.2,0.5,0.5,0.6l9.6,2.4c0.3,0,0.5,0.2,0.5,0.5l2.5,9.1
		c0.1,0.3,0.3,0.5,0.6,0.5c0.3,0,0.5-0.2,0.6-0.5l2.5-9.1c0.1-0.2,0.3-0.4,0.5-0.5l9.6-2.4c0.3-0.1,0.5-0.3,0.5-0.6
		C93.1,12.7,92.9,12.5,92.6,12.4z"/>
	<path class="st0" d="M13.4,32l7.4-1.9c0.2,0,0.4-0.2,0.4-0.4c0-0.2-0.2-0.4-0.4-0.4l-7.4-1.9c-0.2,0-0.4-0.2-0.4-0.4l-2-7
		c-0.1-0.2-0.2-0.4-0.5-0.4c-0.2,0-0.4,0.1-0.5,0.4l-2,7c0,0.2-0.2,0.3-0.4,0.4l-7.4,1.9c-0.2,0-0.4,0.2-0.4,0.4
		c0,0.2,0.2,0.4,0.4,0.4L7.8,32c0.2,0,0.4,0.2,0.4,0.4l2,7c0.1,0.2,0.2,0.4,0.5,0.4c0.2,0,0.4-0.1,0.5-0.4l2-7
		C13.1,32.2,13.2,32,13.4,32z"/>
	<path class="st1" d="M73.4,67.6c-0.1-0.6-0.2-1.2-0.4-1.8c-0.6-2.7-1.1-5.4-1.8-8.1c-1-3.6-3.6-5.8-6.8-7.2c0,0-0.1,0-0.1-0.1
		c-0.3-0.1-0.7-0.3-1.1-0.4c-0.2-0.1-0.3-0.1-0.5-0.2c1.9-2.7,2.8-6,3-9.2c0.4-4.5-0.1-9.1-1-13.5c-1.4-6.9-3.5-14.1-9-18.7
		c-2.8-2.3-6.6-4-10.2-2.7c-1.3-0.2-2.6-0.1-3.9,0.2c0,0,0,0-0.1,0c-0.4,0.1-0.8,0.2-1.2,0.3c0,0-0.1,0-0.1,0
		c-0.4,0.1-0.8,0.3-1.2,0.4c0,0-0.1,0-0.1,0c-1.7,0.7-3.2,1.7-4.5,2.9c-3.5,3.4-5,8-6.1,12.6c-1.3,5.2-2.1,10.6-1.9,15.9
		c0.1,3.1,0.6,6.4,1.8,9.3c0,0.1,0.1,0.2,0.1,0.3c0.1,0.3,0.3,0.6,0.5,0.9c0.2,0.4,0.4,0.8,0.7,1.2c-2.5,0.7-4.9,1.9-6.6,4
		c-1.3,1.6-1.9,3.5-2.3,5.6c-0.7,2.8-1.5,5.8-1.9,8.7c-0.2,1.5,1.6,1.1,2.6,1.1c2,0,4,0,6,0c6.4,0,12.8,0,19.1,0
		c6.3,0,12.6,0,18.9,0c1.9,0,3.9,0,5.8,0c0.4,0,0.9,0,1.3,0C73.6,69.2,73.6,68.5,73.4,67.6z M26.6,54.6c0.1-0.1,0.3-0.2,0.4-0.3
		c0.1-0.1,0.3-0.2,0.4-0.3c1.3-0.8,2.9-1.3,4.4-1.5c0.7,0.6,1.4,1.1,2.2,1.5c0.6,0.3,0.9,0.9,1.3,1.5c0.9,1.1,1.9,2,3.1,2.7
		c2.4,1.5,5.3,2.2,8.1,2.2c2.8-0.1,5.6-0.9,7.9-2.5c1.1-0.7,2.1-1.6,2.9-2.7c0.2-0.3,0.4-0.6,0.6-0.9c0.2-0.3,0.4-0.4,0.8-0.5
		c0.7-0.3,1.2-0.8,1.7-1.3c3.8,0.6,7.1,2.6,8.1,6.4c0.5,1.8,0.8,3.6,1.2,5.4c0.2,0.9,0.6,2-0.7,2.2c-0.8,0.1-1.7,0-2.5,0
		c-1.7,0-3.5,0-5.2,0c-10.1,0-20.1,0-30.2,0c-2.7,0-5.4,0-8.1,0c-0.2,0-0.3,0-0.4-0.1c0,0,0,0,0,0c-0.8-0.6,0.1-2.9,0.2-3.6
		c0.3-1.5,0.6-3,1.1-4.5c0-0.2,0.1-0.3,0.2-0.5c0-0.1,0.1-0.2,0.1-0.3c0.1-0.2,0.2-0.4,0.3-0.6c0.1-0.2,0.2-0.3,0.3-0.5
		c0.1-0.1,0.2-0.2,0.3-0.4c0.2-0.2,0.3-0.4,0.5-0.6c0.1-0.1,0.2-0.2,0.3-0.3C26.2,54.9,26.4,54.8,26.6,54.6z M37.4,14
		C37.4,14,37.4,14,37.4,14C37.4,14.1,37.4,14.1,37.4,14L37.4,14c-0.2,0.5-0.4,0.9-0.5,1.4c0,0.1-0.1,0.2-0.1,0.4c0,0,0,0,0,0
		c0,0,0,0,0,0c0.5-0.2,1.1-0.1,1.6,0.1c0,0,0,0,0,0c-0.2,0.4-0.3,0.8-0.5,1.2c0,0.1,0,0.1-0.1,0.2c0,0,0,0,0,0c0,0,0,0,0,0
		c0.5,0.1,1,0,1.5-0.2c0,0,0.1,0,0.1,0c-0.1,0.2-0.2,0.4-0.4,0.6c-0.8,1.1-2.2,1.9-3.7,1.7c0,0,0,0-0.1,0l0.1-0.3c0,0,0,0,0,0l0.4-1
		l0.1-0.3c0,0,0,0,0,0l0,0c-0.6,0-1.1,0-1.7,0c-0.1,0-0.1,0-0.2,0c0-0.2,0.1-0.4,0.2-0.6h0c0.6-1.9,2-2.8,2.6-3.2c0,0,0,0,0,0
		c0,0,0.1,0,0.1-0.1C37.3,14.1,37.3,14,37.4,14z M54.7,54.7C54.7,54.7,54.7,54.7,54.7,54.7c-0.1,0.1-0.2,0.2-0.2,0.2c0,0,0,0,0,0
		c0,0,0,0,0,0c0.3,0,0.5-0.1,0.7-0.1c0.2,0,0.4-0.1,0.5-0.1c-4.6,5.4-13.9,5.5-18.8,0.4c1.3,0.3,2.5,0.4,3.2,0.5c0.1,0,0.1,0,0.2,0
		c0,0,0,0,0,0c0,0,0,0,0,0c-0.9-1.7-0.3-1.8-0.3-1.8l0.5,0.1c0.2,0.1,0.4,0.1,0.4,0.1s0,0,0,0l0,0c0,0-1.2-1.7-2-2.6
		c0.1-0.3,0-0.9-0.2-1.4c1-0.9,1.7-2,1.7-3.2v-0.7l0-0.3c3.5,2.1,7.4,1.8,10.8-0.1c0,0,0.1,0,0.1-0.1c0.1,0,0.1-0.1,0.2-0.1
		c0.2-0.1,0.4-0.2,0.6-0.3v1.6c0,1.2,0.7,2.3,1.6,3.2c-0.3,0.8-0.7,1.5-1.1,2.2c-0.4,0.5,1.1,0.1,2.2-0.4c0.4-0.2,0.8-0.3,1.1-0.4
		C55.7,51.9,55.3,53.8,54.7,54.7C54.8,54.6,54.7,54.7,54.7,54.7z M50.5,14.9c-0.7,1.4-1,3-2.8,3.3l0.1,0.5c1.5-0.1,3.3-0.6,4.6-1.4
		c0.7,0.8,1.4,1.7,2.1,2.6v0c0.8,1.2,1.4,2.4,1.8,3.7c0.4,1.1,0.6,2.5,1.2,3.6c0,0,0,0.1,0.1,0.1c0.1,0,0.1,0.1,0.2,0.1
		c0.5,0,0.7-1.4,0.9-1.9h0v0c0.2-0.5,1-0.1,1.2,0.1c1.1,0.8,0.6,3.2,0.4,4.4c-0.3,1.5-0.9,3.3-2.6,3.6c-0.3,0.1-0.6,0-0.9,0v0
		c-0.1,0.1-0.1,0.3-0.2,0.4c0,0,0,0,0,0c0,0.1-0.1,0.2-0.1,0.3c-0.2,0.8-0.5,1.6-0.8,2.4v0c-0.1,0.3-0.2,0.5-0.3,0.8v0
		c-0.2,0.5-0.5,1.2-0.9,1.6v0c-0.1,0.1-0.3,0.3-0.4,0.5c0,0,0,0,0,0c-0.2,0.2-0.4,0.5-0.6,0.7v0c-0.1,0.1-0.2,0.2-0.2,0.2v0
		c0,0,0,0,0,0c-0.5,0.6-1.2,1.2-1.9,1.7c-0.4,0.3-1.4,1.2-1.9,1.2h0c-0.4,0.2-1.1,0.6-1.6,0.7l0,0c0,0,0,0,0,0c0,0-0.1,0-0.1,0
		c0,0,0.1,0,0.1,0c-2.7,0.9-5.3-0.1-7.5-1.7c-1.3-1-2.6-2.1-3.5-3.5c-0.9-1.4-1-3.2-1.8-4.6c0,0,0,0-0.1,0v0c0,0-0.3,0-0.3,0
		c0,0,0,0,0,0l0,0c0,0,0,0,0,0l0,0c-0.2,0-0.4-0.1-0.6-0.1c0,0,0,0,0,0c0,0,0,0,0,0l0,0.1c-2.2-0.2-2.6-4-2.6-6.2
		c0-0.8-0.2-2.2,0.9-2.4c0.1,0,0.3,0,0.4,0c0,0.2,0.5,2,0.9,1.9c0.4-0.1,0.6-1,0.8-1.3v0c0.3-0.7,0.8-1.5,1.3-2.2
		c2-2.7,5.1-3.6,7.5-5.9c2.1-0.5,4.1-1.2,6-2.2C49.6,15.5,50.1,15.2,50.5,14.9z"/>
	<path class="st1" d="M33.9,34.1L33.9,34.1C33.8,34.1,33.8,34.1,33.9,34.1z"/>
</g>
</svg>
