<svg viewBox="0 0 132 132" width="132" height="132" xmlns="http://www.w3.org/2000/svg"><path d="m83.5 95.5a26.3 26.3 0 0 1 -9.8-2 20.6 20.6 0 0 0 -13.2-.4 36.7 36.7 0 0 1 -13.1 1.6 9.8 9.8 0 0 1 -6.4-2.9c-4.4-4.6-2-11-.3-14.4a16.6 16.6 0 0 0 1.8-5 55.2 55.2 0 0 0 .6-7.2 57 57 0 0 0 -2.3-17.5c-3.3-11.7-2.8-18.9-2.8-19.2a1 1 0 0 1 2 .2s-.5 7.2 2.7 18.4a58.7 58.7 0 0 1 2.3 17.9 57.6 57.6 0 0 1 -.7 7.6 18.9 18.9 0 0 1 -2 5.7c-1.5 2.9-3.5 8.3 0 12a7.7 7.7 0 0 0 5 2.3 34.7 34.7 0 0 0 12.4-1.5 22.6 22.6 0 0 1 14.6.5 24.3 24.3 0 0 0 15.3 1 12.3 12.3 0 0 1 6.4 0 8.8 8.8 0 0 0 6-.2 2.8 2.8 0 0 0 1.6-3.2 8.8 8.8 0 0 0 -4.1-.6h-.7l-.3-.5s-1.3-2.2-6.2-3.7a56.5 56.5 0 0 1 -14.6-6.7c-1.7-1-3.3-2-4.8-2.7a17.2 17.2 0 0 1 -9-11.6 37.7 37.7 0 0 1 -.6-10.2l2-24.8a1 1 0 1 1 2 .2l-2 24.8a35.5 35.5 0 0 0 .7 9.6 15.2 15.2 0 0 0 8 10.3c1.5.8 3.2 1.7 5 2.9a54.4 54.4 0 0 0 14 6.4c4.4 1.3 6.3 3.1 7 4a11 11 0 0 1 5 1l.3.3.2.4a4.8 4.8 0 0 1 -2.6 6 10.8 10.8 0 0 1 -7.3.2 10.2 10.2 0 0 0 -5.3 0 26.1 26.1 0 0 1 -6.8 1z" fill="#fff"/><path d="m49.5 89c-2.6-2.8-.8-7.2.4-9.6a20.5 20.5 0 0 0 2.2-6.3 59.6 59.6 0 0 0 -1.8-26.7 58.2 58.2 0 0 1 -2.6-17.2c-3.5 0-5.5-.3-5.5-.3 0 .2-.4 7 2.6 17.6a59.5 59.5 0 0 1 1.8 26.5 21.2 21.2 0 0 1 -2.2 6.3c-1.2 2.4-3 6.8-.4 9.5a5.6 5.6 0 0 0 3.7 1.6l1.8.1 3-.1a5.4 5.4 0 0 1 -3-1.6z" fill="#8ad27c"/><g fill="#ffec91"><path d="m92.3 73.7 7.3-8.2.4 3.6 12-12.4-10.3 5.5-1.4-5.8z"/><path d="m84.6 72.8 4.8-9.9 1.4 3.4 5.5-14.9-5.8 7.7-3-5.1z"/></g></svg>