<svg viewBox="0 0 132 132" width="132" height="132" xmlns="http://www.w3.org/2000/svg"><path d="m35.9 72.5a8.7 8.7 0 0 1 15-7.3s-3.7-8.4-12-7.8a12.8 12.8 0 0 0 -10.5 6.8 13 13 0 0 0 -.7 10.4 16.7 16.7 0 0 0 2.3 4.4 18.9 18.9 0 0 0 1.2 1.5 86.2 86.2 0 0 0 8.7 8.5s8.7 7.1 10.8 11.8a26.2 26.2 0 0 0 -6.5-16.6c-3-3.4-7.6-6.7-8.3-11.7z" fill="#8ad27c"/><g fill="#fff"><path d="m50.7 103.3-1-2a50 50 0 0 0 -10.4-11.4 86.3 86.3 0 0 1 -9-8.7 18.5 18.5 0 0 1 -1.2-1.6 18 18 0 0 1 -2.3-4.6 14.1 14.1 0 0 1 .7-11.2 13.8 13.8 0 0 1 11.3-7.4c6.6-.4 10.5 4.3 12 6.9 1.8-2.7 5.7-7.3 12.2-6.8a13.8 13.8 0 0 1 11.2 7.5 14.2 14.2 0 0 1 .6 11.2 17.6 17.6 0 0 1 -1.5 3.3 1 1 0 0 1 -1.7-1 15.8 15.8 0 0 0 1.4-3 12.2 12.2 0 0 0 -.6-9.6 11.8 11.8 0 0 0 -9.5-6.4c-7.6-.5-11 7.1-11.1 7.2l-1 2-.8-2c-.1-.4-3.5-7.8-11-7.3a11.8 11.8 0 0 0 -9.6 6.3 12 12 0 0 0 -.7 9.6 16 16 0 0 0 2.1 4.1l1.2 1.6a86.1 86.1 0 0 0 8.7 8.4c.3.2 7.1 5.8 10.1 10.5a45.7 45.7 0 0 1 7-7.6 1 1 0 1 1 1.3 1.4 32.8 32.8 0 0 0 -7.4 8.7z"/><path d="m61 86.3a5.7 5.7 0 1 1 5.6-5.7 5.7 5.7 0 0 1 -5.7 5.7zm0-9.4a3.7 3.7 0 1 0 3.6 3.7 3.7 3.7 0 0 0 -3.6-3.6z"/><path d="m52 81a1 1 0 0 1 -1-1 9.3 9.3 0 0 1 9.2-9.2 1 1 0 0 1 0 2 7.3 7.3 0 0 0 -7.2 7.2 1 1 0 0 1 -1 1zm25.1 10.9a12.8 12.8 0 0 1 -7.5-2.5l-2.4-1.7a1 1 0 1 1 1.1-1.6l2.5 1.7a11 11 0 0 0 15.2-2.5 10.8 10.8 0 0 0 2-6.4v-22.6a1 1 0 0 1 2 0v22.7a13 13 0 0 1 -10.8 12.8 12.6 12.6 0 0 1 -2 .2z"/><path d="m89.1 57.3a13.5 13.5 0 0 1 -10.2-4c-5.3-5.6-5.5-15.7-5.3-19.7a3.7 3.7 0 0 1 2.8-3.5l1.7-.4a2.7 2.7 0 0 1 1.5 5.2l-.7.2a1 1 0 0 1 -1.2-.7 1 1 0 0 1 .7-1.2l.6-.2a.7.7 0 0 0 -.4-1.4l-1.7.5a1.8 1.8 0 0 0 -1.3 1.6c-.2 3.8 0 13.1 4.8 18.2a11.6 11.6 0 0 0 8.7 3.4 11.6 11.6 0 0 0 8.7-3.4c4.9-5 5-14.4 4.8-18.2a1.8 1.8 0 0 0 -1.3-1.6l-1.7-.5a.7.7 0 0 0 -.4 1.4l.6.2a1 1 0 0 1 .7 1.2 1 1 0 0 1 -1.2.7l-.7-.2a2.7 2.7 0 0 1 1.5-5.2l1.7.5a3.7 3.7 0 0 1 2.8 3.4c.2 4 0 14-5.3 19.7a13.5 13.5 0 0 1 -10.2 4z"/></g></svg>