<svg viewBox="0 0 132 132" width="132" height="132" xmlns="http://www.w3.org/2000/svg"><g fill="#fff"><path d="m38.2 94.8-3.6-9.1h-3.6a1 1 0 0 1 0-2h5l2 4.8 3.8-14 3.6 9.2h4.6a1 1 0 0 1 0 2h-6l-2-4.8z"/><path d="m89 66.6-4-9.8h-4.4a1 1 0 0 1 0-2h5.8l2.2 5.6 4.4-15.4 3.8 9.8h5.3a1 1 0 0 1 0 2h-6.6l-2.2-5.5z"/><path d="m73.8 42.4a74.4 74.4 0 0 1 -8.7-.5 1 1 0 0 1 .3-2 71.3 71.3 0 0 0 16.9 0s1.1-.1 3-.4a1 1 0 1 1 .2 2l-3 .4a73.8 73.8 0 0 1 -8.7.5zm-16.8 13.2a1 1 0 0 1 -1-.8c-.2-.6-2.8-15.4 5.6-23.3v-4.2a1 1 0 0 1 2 0v5.1l-.4.3c-8 7-5.3 21.6-5.3 21.7a1 1 0 0 1 -.8 1.2.6.6 0 0 1 -.2 0z"/><path d="m74.7 42.4a1 1 0 0 1 -1-1c0-8-5.7-8.9-6-8.9l-.8-.1v-5.1a1 1 0 0 1 2 0v3.4c2 .7 6.8 3 6.8 10.7a1 1 0 0 1 -1 1z"/><path d="m75.4 98a8.7 8.7 0 0 1 -1.5-.1 45.3 45.3 0 0 1 -19.4-11.2 33 33 0 0 1 -5.6-7.1 18.6 18.6 0 0 1 3.7-22.4l2.4-2.3a12 12 0 0 1 10.4-3.1 13.4 13.4 0 0 0 1.2-3.7h-.3a4 4 0 0 1 -3.3-4.5 15.9 15.9 0 0 1 2.7-6.7 1 1 0 0 1 1.7 1.2 14 14 0 0 0 -2.4 5.8 2 2 0 0 0 1.6 2.2l1.4.2h1l-.2 1a15.5 15.5 0 0 1 -2 6l-.3.7-.8-.1a10 10 0 0 0 -9.2 2.4l-2.5 2.3a16.6 16.6 0 0 0 -3.3 20 30.9 30.9 0 0 0 5.2 6.7c0 .1 9.4 9 18.4 10.6a6.3 6.3 0 0 0 6.5-2.8 24 24 0 0 0 2-4 30.4 30.4 0 0 0 2.3-9 38 38 0 0 0 -1.1-12.1 16 16 0 0 0 -9-10h-.4l-.2-.5a27.5 27.5 0 0 1 -1.5-9.9v-.9h1s3.6-.1 8.2-.5 1.3-.2 3-.4a1 1 0 1 1 .3 2l-3.2.4-7.4.5a25.6 25.6 0 0 0 1.2 7.8 18 18 0 0 1 10 11 40 40 0 0 1 1 12.9 32.6 32.6 0 0 1 -2.5 9.6 26.6 26.6 0 0 1 -2.2 4.2 8.3 8.3 0 0 1 -7 3.8z"/><path d="m47.7 71.9a1 1 0 0 1 -.7-.3c-12.3-11-6-20.5-4.7-22.3q.7-.8 1.2-1.7a19.5 19.5 0 0 0 2.7-12.2 1 1 0 0 1 .9-1 1 1 0 0 1 1.1.8 21.6 21.6 0 0 1 -3 13.5 22.3 22.3 0 0 1 -1.3 1.8c-1.7 2.2-6.3 10 4.5 19.6a1 1 0 0 1 -.7 1.8zm9-26.1a1 1 0 0 1 -.3 0c-5.4-1.5-4.2-10.2-4.1-10.6a1 1 0 1 1 2 .3s-1 7.3 2.7 8.3a1 1 0 0 1 -.3 2zm19 30.2a1 1 0 0 1 -.5 0c-7-3.5-7.7-8.6-7.7-8.8a1 1 0 0 1 2-.3c0 .2.7 4.3 6.7 7.3a1 1 0 0 1 -.5 1.9zm-10.7-1.1a1 1 0 0 1 -.8-.4c-7.5-8.6.5-21.6.9-22.1a1 1 0 0 1 1.7 1c-.1.2-7.6 12.3-1 19.8a1 1 0 0 1 -.1 1.5 1 1 0 0 1 -.7.2z"/><path d="m74.3 83.4a1 1 0 0 1 -.4 0c-2.4-1.4-3.8-3-4.2-5a8.4 8.4 0 0 1 1.6-6.3 1 1 0 0 1 1.4-.2 1 1 0 0 1 .2 1.4 6.4 6.4 0 0 0 -1.3 4.6 5.7 5.7 0 0 0 3.2 3.7 1 1 0 0 1 -.5 1.9z"/></g><path d="m57.4 83.7c.5.4 9.1 8.5 17.3 10a3.6 3.6 0 0 0 .7 0 4.1 4.1 0 0 0 3.6-1.7 22.7 22.7 0 0 0 1.8-3.6 30.4 30.4 0 0 0 2.1-8.4 27.5 27.5 0 0 1 -1.9 3c-3 4.5-8.7 5.8-13.7 3.7-10.4-4.3-16-13.7-16.2-14a13.8 13.8 0 0 0 1.6 4.8 28.6 28.6 0 0 0 4.7 6.2z" fill="#ffec91"/></svg>