<svg viewBox="0 0 400 261" xmlns="http://www.w3.org/2000/svg"><path d="m8 246h328a7 7 0 0 1 7 7 7 7 0 0 1 -7 7h-328a7 7 0 0 1 -7-7 7 7 0 0 1 7-7z" fill="#fff4bf"/><path d="m41.6 230.2a1.8 1.8 0 0 0 -.7-1.7h7.5c3.2 0 4-.8 4-4v-3c0-3.2-.8-4-4-4h-23.8c-3.2 0-4.1 1-4.1 4v11.3a42 42 0 0 1 -2.5 15.5 5 5 0 0 0 -.4 1.7 2.3 2.3 0 0 0 2.3 2c1 0 1.5-.4 2.4-2.8a52.8 52.8 0 0 0 2.3-16.4v-4.4h14a1.7 1.7 0 0 0 -.7 1.7v2h-7c-2.6 0-3.9.9-3.9 4v12c0 3 1.3 4 3.9 4h17.8c2.7 0 4-1 4-4v-12c0-3.1-1.4-4-4-4h-7zm-10.6 6.5a1 1 0 0 1 .8-1.1.8.8 0 0 1 .3 0h5.9v4.7h-7zm7 6.7v5.2h-6a1 1 0 0 1 -1-.9.6.6 0 0 1 0-.2v-4zm3.8-3v-4.8h6a1 1 0 0 1 1 .8 1.1 1.1 0 0 1 0 .3v3.6zm7.1 7a1 1 0 0 1 -.8 1.2.7.7 0 0 1 -.3 0h-6v-5.2h7.2zm-24.2-25.2a1 1 0 0 1 .8-1 1.1 1.1 0 0 1 .2 0h21.7a1 1 0 0 1 1 .7 1.1 1.1 0 0 1 0 .3v1.9a1 1 0 0 1 -.7 1.1.7.7 0 0 1 -.3 0h-22.8zm126.6-3.8c-2.6 0-3.7 0-5 2.2a32.5 32.5 0 0 1 -6.8 8.6c-1.6 1.4-2 1.7-2 2.5a2.5 2.5 0 0 0 2.5 2.4 3 3 0 0 0 2-.9 35.7 35.7 0 0 0 7.3-8.5c1-1.7 1.2-2 2.7-2h10.7c.7 0 1.4 0 1.4 1a25.6 25.6 0 0 1 -2 6.6 33 33 0 0 1 -16 16.2c-2 1-2.8 1.3-2.8 2.6a2.4 2.4 0 0 0 2.2 2.4c1.7 0 7.8-2.7 12.9-7.6a38.7 38.7 0 0 0 11.1-22c0-3.5-3-3.5-4.2-3.5zm34 .4c0-1.6-.8-2.1-2.3-2.1-2.2 0-2.4 1.2-2.4 2.1v18c0 1.2.4 2.2 2.4 2.2 2.2 0 2.3-1.4 2.3-2.2zm16 11.7c0 5.4-1 12.1-10 15.9-2.5 1-2.9 1.1-2.9 2.3a2.5 2.5 0 0 0 2.3 2.6c1.4 0 6.5-2.2 9.8-5.1 5-4.6 5.5-10.5 5.5-16.6v-11.4c0-1.5-.7-2.2-2.3-2.2-2.2 0-2.3 1.3-2.3 2.2zm19-10.5a2 2 0 0 0 -2.3 1.8 2 2 0 0 0 0 .6 2 2 0 0 0 1.9 2.2 2.1 2.1 0 0 0 .5 0h25a2 2 0 0 0 2.3-1.7 2 2 0 0 0 0-.6 2 2 0 0 0 -1.8-2.3 1.9 1.9 0 0 0 -.5 0zm-3.3 22.6a2 2 0 0 0 -2.3 1.7 2.2 2.2 0 0 0 2.3 3h31.4a2.3 2.3 0 0 0 .6-4.7 1.8 1.8 0 0 0 -.6 0zm41.5-14.5a2.5 2.5 0 0 0 .5 1.2l2.2 4c1 2 1.3 2.6 2.3 2.6s2.3-.7 2.3-1.8-1.9-4.4-2.8-5.9-1.2-2-2.3-2c-.7 0-2.2.6-2.2 1.9zm8.4-1.9a3.5 3.5 0 0 0 .6 1.7 43.5 43.5 0 0 1 2 4.1c1 1.8 1.1 2.3 2.2 2.3a2.2 2.2 0 0 0 2.3-1.8c0-1.3-2-5.3-2.2-5.4-1.2-2.3-1.7-2.8-2.6-2.8a2.1 2.1 0 0 0 -2.3 2zm18.9.9c0-1.8-2-2-2.3-2-1.7 0-1.8 1-2.3 3.2-2.2 11.7-8.2 16.3-14.6 19.2-2.6 1.1-2.9 1.3-2.9 2.3a2.2 2.2 0 0 0 2 2.3 6 6 0 0 0 2.7-.8 26.3 26.3 0 0 0 14.1-13.3 38.1 38.1 0 0 0 3.2-10.9zm22.2-8.7c-2.7 0-3.7 0-5 2.2a32.7 32.7 0 0 1 -6.8 8.6c-1.6 1.4-2 1.7-2 2.5a2.6 2.6 0 0 0 2.5 2.4 3 3 0 0 0 2-.9 35.7 35.7 0 0 0 7.3-8.5c1-1.7 1.2-2 2.6-2h10.7c.7 0 1.5 0 1.5 1a25.6 25.6 0 0 1 -2 6.7 33 33 0 0 1 -16.1 16.1c-2 1-2.8 1.2-2.8 2.6a2.4 2.4 0 0 0 2.2 2.4c1.7 0 7.8-2.7 12.9-7.6a38.7 38.7 0 0 0 11.1-22c0-3.5-3-3.5-4.2-3.5zm-192.6 8.7-14.3 12c-2.3 1.7-2.5 2-2.5 2.7a2 2 0 0 0 2 2c.6 0 .8-.2 2.5-1.8a18 18 0 0 1 12.1-5.2c1 0 7.7 0 7.7 6a6.4 6.4 0 0 1 -3.3 5.8 11.1 11.1 0 0 0 -1.9-3.1 9.5 9.5 0 0 0 -6.9-3.2c-4 0-6 2.6-6 5.1 0 4.4 5.3 6 9.4 6 7 0 12.5-4.3 12.5-10.6 0-4-2.6-9.1-10.2-9.1a17 17 0 0 0 -5.4 1c2-1.8 3.5-3 8.4-6.6 2-1.5 2.2-1.6 2.2-2.4s-.5-2.1-2.5-2.1l-6.4.5c-3.7.2-5.2.2-8 .2-1.2 0-2.6 0-2.6 1.8s1.4 1.8 2.2 1.8c3.2 0 7.8-.5 11-.8zm.8 22.7a11.5 11.5 0 0 1 -2.5.3c-2.5 0-5.5-1-5.5-2.7 0-.8.6-2 2.4-2 2.6 0 4.4 1.7 5.6 4.4zm-29-17.1c4.8-.5 5.6-.7 5.6-2.4a1.7 1.7 0 0 0 -1.5-1.9h-.3l-4 .5-.1-4.2c0-1.7-.1-2.8-2-2.8-2.1 0-2 1.5-2 3.3l.1 4c-1.5.2-3.2.3-6 .3h-3.7c-1.4 0-2.1.5-2.1 1.9 0 1.8 1.1 2 4.4 2 1.6 0 6.2-.2 7.6-.4l.1 3c.3 6.5-1 9.5-3.6 12.2-1.5 1.6-1.7 1.8-1.7 2.3a2.3 2.3 0 0 0 2.2 2c1.7 0 4-3.3 4.8-4.4 1.8-3 2.4-6 2.4-10l-.1-2.2zm-24 5a45.9 45.9 0 0 0 1.4 12.3 1.8 1.8 0 0 0 2 1.6c.8 0 2-.4 2-1.6a2.7 2.7 0 0 0 -.1-1 36.3 36.3 0 0 1 -1.4-11 57.4 57.4 0 0 1 1.2-11.7 12.6 12.6 0 0 0 .4-2.5c0-1.2-1.2-1.6-2-1.6a1.6 1.6 0 0 0 -1.5.7c-1 1.6-2 10-2 14.8z" fill="#010101"/><path d="m9 177h131a8 8 0 0 1 8 8 8 8 0 0 1 -8 8h-131a8 8 0 0 1 -8-8 8 8 0 0 1 8-8zm350 0h32a8 8 0 0 1 8 8 8 8 0 0 1 -8 8h-32a8 8 0 0 1 -8-8 8 8 0 0 1 8-8z" fill="#fff4bf"/><path d="m34.7 168.3a11.1 11.1 0 0 0 .6-2c0-1-1.2-1.4-2.2-1.4-1.5 0-1.8.7-2 1l-.8 2.4h-6.4c-3 0-4.4 1-4.4 4.3v8.4c0 3.2 1.3 4.4 4.4 4.4h20.1c3 0 4.3-1.2 4.3-4.4v-8.4c0-3.3-1.3-4.3-4.3-4.3zm-11 4.8a1.4 1.4 0 0 1 1-1.5 1.4 1.4 0 0 1 .5 0h17.4a1.4 1.4 0 0 1 1.5 1.1 1 1 0 0 1 0 .4v1.9h-20.5zm20.4 7.2a1.3 1.3 0 0 1 -1 1.6 1.5 1.5 0 0 1 -.5 0h-17.5a1.4 1.4 0 0 1 -1.5-1.2 1.3 1.3 0 0 1 0-.4v-2h20.5zm-24.8-17.7a22.6 22.6 0 0 0 -2.7.3 1.6 1.6 0 0 0 -1.1 1.7c0 .6.3 2 1.7 2 .5 0 8.2-.8 13.1-1.7 2.1-.3 2.8-.5 2.8-2 0-1.3-.6-1.8-1.5-1.8l-3.4.4-4.8.6v-5.3h7.8c.5 0 1.8 0 1.8-1.8a1.6 1.6 0 0 0 -1.4-1.8 1.6 1.6 0 0 0 -.5 0h-7.7v-2c0-1.4-.8-1.8-2.1-1.8-2 0-2 1.3-2 1.9zm19.5-4.7a47.2 47.2 0 0 0 8.6-2.5c2.9-1.2 3.5-1.4 3.5-2.7a2 2 0 0 0 -1.9-2c-.5 0-.6 0-3 1a34.9 34.9 0 0 1 -7.2 2.4v-2.8c0-.9-.2-1.8-2-1.8-2.1 0-2.1 1.2-2.1 1.9v10.2c0 3.8 1.1 4.5 4.2 4.5h6.2c4.2 0 4.8 0 5.6-.8 1-1 1.4-4.1 1.4-5.4 0-.5 0-2-2.1-2-1.7 0-1.8.9-2 2-.2 2-.3 2.3-1.3 2.5h-6.1c-.9 0-1.8 0-1.8-1.6zm30.2 7.9c-.9 0-1.7.2-1.8 1.6a28.7 28.7 0 0 1 -3.7-5.7v-.9h2.2c1 0 1.7-.5 1.7-2 0-1.6-.9-1.9-1.7-1.9h-2.3v-5.9c0-.9-.2-1.8-1.9-1.8s-1.8 1.2-1.8 1.8v6h-3.2c-.8 0-2 .2-2 2a1.7 1.7 0 0 0 1.5 1.8 1.6 1.6 0 0 0 .5 0h3a37.8 37.8 0 0 1 -5 12 3 3 0 0 0 -.5 1.5 2.2 2.2 0 0 0 2 2.2 1.6 1.6 0 0 0 1.3-1 38.7 38.7 0 0 0 2.3-5.7v14.6c0 1.4.6 1.9 2 1.9a1.6 1.6 0 0 0 1.8-1.4 1.9 1.9 0 0 0 0-.5v-17.2a19 19 0 0 0 1.4 2.6 1.3 1.3 0 0 0 1.2.8 1.8 1.8 0 0 0 1.6-1.8c.2.2.4.4 1.3.4h8.1v11.3c0 .6-.2 1.1-.8 1.2h-1.5c-1.2 0-2.5 0-2.5 1.9a2 2 0 0 0 1.3 2 16 16 0 0 0 2.5.2c3.3 0 4.9-.3 4.9-4.1v-5.2c3 4.7 7.1 7.9 8.5 7.9a2.2 2.2 0 0 0 1.9-2.3c0-1-.5-1.3-1.3-1.8a21.9 21.9 0 0 1 -4.4-3.2 38.2 38.2 0 0 0 3.2-3c1.3-1.4 1.5-1.8 1.5-2.4a2 2 0 0 0 -2-1.9 1.9 1.9 0 0 0 -1.5.9 36.5 36.5 0 0 1 -3.6 3.7 20.1 20.1 0 0 1 -2.3-4v-1.1h8.4c1 0 1.8-.3 1.8-1.7 0-1.6-1-1.8-1.8-1.8h-8.4v-2.8h6.9c1.3 0 1.7-.6 1.7-1.6 0-1.4-.9-1.6-1.7-1.6h-7v-2.8h8c.6 0 1.7 0 1.7-1.6s-1.2-1.7-1.8-1.7h-3.6a9.5 9.5 0 0 0 1.3-3c0-1-1.4-1.4-2.2-1.4a1.3 1.3 0 0 0 -1.3.8s-1.8 3.5-1.8 3.7h-4.1a22.8 22.8 0 0 0 -1.5-3.5c-.5-.8-.9-1.1-1.7-1.1-.6 0-2 .3-2 1.5a2.7 2.7 0 0 0 .1 1l1 2h-3.5c-1 0-1.8.3-1.8 1.8s1.2 1.6 1.8 1.6h7.7v2.7h-6.6c-1.3 0-1.8.6-1.8 1.6s.7 1.6 1.8 1.6h6.5v2.9zm.9 4a2.1 2.1 0 0 0 -2.2 2c0 .6.2.7 2.2 2.4s2 1.8 2.6 1.8a2 2 0 0 0 2-2c0-.6-.3-1-1.4-2-.8-.7-2.5-2.1-3.2-2.1zm-4.8 12.2c0 1 .5 2.4 1.8 2.4a12 12 0 0 0 3.7-1.7c5-3 5-3.2 5-4 0-.7-.4-2-1.5-2a2.4 2.4 0 0 0 -1.2.4 43.9 43.9 0 0 1 -4.9 2.8c-2.6 1.1-2.8 1.2-2.9 2.1zm39.1-10.5c0 5.8.8 10.5 1.3 11.8a1.7 1.7 0 0 0 1.8 1.2c.6 0 2-.2 2-1.6a8.1 8.1 0 0 0 -.3-2 44.9 44.9 0 0 1 -1-9.5 58 58 0 0 1 1.4-12.4 9 9 0 0 0 .3-1.8 1.9 1.9 0 0 0 -2-1.6 1.6 1.6 0 0 0 -1.6.9c-.9 1.5-2 10-2 15zm27-11.3c0-1.7-.8-2-6.7-2-3 0-7 .3-8 .5s-2 .5-2 1.9c0 2 1.2 2 1.7 2l2.4-.2 6-.3 4.5.1c.8 0 2 0 2-2zm-17.8 16.3c0 5.5 6.5 6 11 6a36.7 36.7 0 0 0 7.1-.7 1.8 1.8 0 0 0 1.3-1.8 1.7 1.7 0 0 0 -1.6-1.9h-.2l-1.3.1a44 44 0 0 1 -5.5.4c-4.1 0-7.1-.4-7.1-2.8 0-.7.2-1.1 1-2.3a1.9 1.9 0 0 0 .3-1c0-.9-1-1.2-1.7-1.2-2.2 0-3.3 3.8-3.3 5.2zm255.6-16.2c2.7-.2 6.8-.5 10.3-1 2.6-.3 3.5-.4 3.5-1.8a1.7 1.7 0 0 0 -1.5-1.8l-3.9.5c-2 .3-4.3.5-6.2.6 1-1.7 1.4-2.3 1.4-2.8 0-.8-.9-1.4-2-1.4a1.7 1.7 0 0 0 -1.5.8l-1.9 3.5h-6.2c-1.3 0-2.1.3-2.1 1.8a1.5 1.5 0 0 0 1.2 1.7 1.2 1.2 0 0 0 .3 0h5l-5.4 7.6c-1.6 2-1.7 2.3-1.7 2.9a1.8 1.8 0 0 0 1.8 1.7c.8 0 1-.3 2-1.7 1.6-2.1 4.2-5.4 8-5.4 2.4 0 3 1.4 3.2 2.2-4 2-9.1 4.5-9.1 9 0 6.2 8.2 6.2 11.5 6.2a44.9 44.9 0 0 0 7.2-.5 1.6 1.6 0 0 0 1.4-1.7c0-1-.4-1.8-1.6-1.8l-1.4.2a54.9 54.9 0 0 1 -6.6.4c-2 0-7 0-7-3 0-2 2.6-3.6 6-5.3l-.1 4a1.6 1.6 0 0 0 1.3 1.8 1.4 1.4 0 0 0 .3 0c1.9 0 1.9-1.2 1.9-4.3l-.1-2.9 6.8-2.6c2-.7 2.3-.8 2.3-1.9 0-.6-.5-2-1.7-2s-6.5 2.3-8 3a5.6 5.6 0 0 0 -5.7-3.8 7.8 7.8 0 0 0 -4 1z" fill="#010101"/><circle cx="190.8" cy="74.9" fill="#fff" opacity=".6" r="73.9"/><circle cx="272" cy="135.3" fill="#fff" opacity=".6" r="73.9"/><path d="m249.5 106.8c-3.6 0-4.3 1.1-4.6 4.3-1.1 14-3.4 20-6.1 27a10 10 0 0 0 -1 3.4c0 2.7 2.7 4.5 5 4.5 2.6 0 3.4-1.5 5-6.1 4.4-12 5.6-27 5.6-29.2a3.4 3.4 0 0 0 -.6-2.3 4.9 4.9 0 0 0 -3.3-1.6zm18-.9c0-1.7-.2-4-4.2-4s-4.1 2.6-4.1 4v39.5c0 8.7 4.3 8.7 13.4 8.7 12.3 0 15.7 0 18.8-4 2.6-3.4 3.2-14 3.2-14.6 0-1 0-4.4-4.3-4.4-3.5 0-3.7 2.2-4 5.5-1 9.4-1.3 9.4-6.8 9.4h-3l-6.6-.1c-.6-.1-2.3-.4-2.3-3zm23.6-9.7c0-2.3-1.1-3-6.2-5a112 112 0 0 0 -25.4-7c-3.5 0-4 3.3-4 4.3 0 3 2.4 3.4 3.8 3.7 11.6 2.4 16.3 4.4 24.8 8a9.6 9.6 0 0 0 3.3 1c2.5 0 3.7-3.2 3.7-5zm5.7 8.8c-2.8 0-4.7 1.5-4.7 3.6a10 10 0 0 0 .7 3c4.6 11.6 6.3 15.7 8.8 30.4.3 1.7.8 4 4.1 4 .8 0 4.8 0 4.8-4 0-3.3-2.7-16-7-27.4-3.7-9.5-4.5-9.6-6.7-9.6zm-112.4-24.7c-.9 1.6-1.4 2.5-4 6.5-1 1.7-1.8 3.2-1.8 4.9 0 3.3 2.9 4.2 6.1 5.2 6.5 2 7.7 2.4 14.7 4.8a65.2 65.2 0 0 1 -25.8 6.7c-1.9.1-4.4.4-4.4 4 0 4.3 3 4.5 4.3 4.5a88 88 0 0 0 16-2.6 52.8 52.8 0 0 0 19-8.7 125.6 125.6 0 0 1 17.3 9.4c2.1 1.3 3.2 1.7 4.2 1.7a4.8 4.8 0 0 0 4.4-5c0-2-1.3-2.8-3-3.8-8-4.5-8.7-5-16.3-8.2a49.5 49.5 0 0 0 10.9-19.4h8.7c1.8 0 4-.4 4-3.7 0-3.7-3-3.7-4-3.7h-36.6c.9-2 2.9-6.1 2.9-7.6 0-2.2-2.7-3.6-5.1-3.6a3.5 3.5 0 0 0 -3.6 2.5l-3.9 8.7h-17.6c-2 0-4 .7-4 3.7 0 3.7 3 3.7 4 3.7zm32.7 0a46.7 46.7 0 0 1 -10.3 16.1c-.9-.4-6.8-2.5-15.6-5-1.2-.3-2.4-.7-2.4-2 0-.5.2-1 1-2.1 1.8-2.8 2.8-4.3 4.2-7zm-10.2-28.6v-3c0-2.8-1.6-3.5-4.6-3.5-2.7 0-3.8 1.3-3.8 3.4v3.1h-21.3c-5.9 0-8.6 2-8.6 8.6v5.7c0 2.8 1 4 4.4 4 3.9 0 4-2.8 4-4v-4.4a2.5 2.5 0 0 1 2-2.7 2.7 2.7 0 0 1 .7 0h46.2c2.1 0 2.7 1.2 2.7 2.7v4.4c0 3.3 1.5 4 4.5 4 3.6 0 3.8-2.4 3.8-4.2v-5.5c0-6.7-2.8-8.5-8.6-8.5z" fill="#4fb43c"/><path d="m310.1 161.2a1.4 1.4 0 0 1 -.8-.3 1.5 1.5 0 0 1 -.4-2 92 92 0 0 0 -128.2-128.7 1.5 1.5 0 0 1 -2.1-.4 1.5 1.5 0 0 1 .3-2 95 95 0 0 1 122.6 10 94.7 94.7 0 0 1 27.9 67.1 94.7 94.7 0 0 1 -18 55.7 1.5 1.5 0 0 1 -1.3.6zm-75.8 38.8a94.8 94.8 0 0 1 -19.1-2 94.6 94.6 0 0 1 -34-14.3 95 95 0 0 1 -23.2-135.3 1.5 1.5 0 0 1 2.1-.3 1.5 1.5 0 0 1 .3 2 92 92 0 0 0 128.3 129 1.5 1.5 0 0 1 2.1.4 1.5 1.5 0 0 1 -.3 2 94.6 94.6 0 0 1 -56.2 18.5z" fill="#4fb43c"/><path d="m335.1 199.6a25.5 25.5 0 0 1 3.6-1.5s-1-.3-2.7-2.4c-4.3-5-13.3-9.3-18.7-1.4 0 0 5.6 12 17.8 5.3z" fill="#b1cc99"/><path d="m307.5 166.8a27.7 27.7 0 0 1 -2.7-2.7 9.2 9.2 0 0 1 -.5 3.6c-1.8 6.1-.9 16.3 7.3 17.9 0 0 6.2-10.4-4.1-18.8z" fill="#99bf38"/><path d="m341.8 171.1a39.1 39.1 0 0 1 2.3-5.4s-1.3.7-5.5.3c-10-1-24.5 4-22 18.3 0 0 18.9 7.3 25.2-13.2z" fill="#8abc5d"/><path d="m167.8 12.6a29 29 0 0 1 -3-2.8s0 1-1.2 3.7c-3 6.6-3 17.6 7.2 19.2 0 0 9.4-11-3-20z" fill="#b1cc99"/><path d="m140.8 19.2a34.7 34.7 0 0 1 -5-.6s1 .9 2.3 4c3.2 7.8 12.3 17.6 22 12.6-.1 0-2-15.6-19.3-16z" fill="#99bf38"/></svg>