<?xml version="1.0" encoding="utf-8"?>
<!-- Generator: Adobe Illustrator 27.1.1, SVG Export Plug-In . SVG Version: 6.00 Build 0)  -->
<svg version="1.1" id="a4c53a0f-45c6-4de8-907b-e7070d14b393"
	 xmlns="http://www.w3.org/2000/svg" xmlns:xlink="http://www.w3.org/1999/xlink" x="0px" y="0px" viewBox="0 0 125 16.2"
	 style="enable-background:new 0 0 125 16.2;" xml:space="preserve">
<style type="text/css">
	.st0{fill:#FFFFFF;}
</style>
<path class="st0" d="M21.1,1.6h2.4v7.6c1-0.2,1.8-0.4,2.7-0.6v1.5c-1,0.2-1.4,0.4-2.6,0.6v3.9h-2.4v-3.5c-2.4,0.3-4.8,0.5-7.2,0.5
	V10c2.4,0,4.8-0.1,7.2-0.4L21.1,1.6L21.1,1.6z M14.8,2.7c1.9,0.1,3.8,0.4,5.8,1v1.4c-1.8-0.5-3.8-0.9-5.8-1.1V2.7z M14.8,5.8
	c1.9,0.1,3.8,0.5,5.8,1v1.4c-1.8-0.6-3.8-1-5.8-1.1V5.8z"/>
<path class="st0" d="M28.8,2.8h5V1.7h1.9v1.2h5v1.4h-5v1h2.9c1.3,0,2.2,1,2.1,2.2v0.1c0,0.7,0.1,1.5,0.1,2.5c0,0.8,0,1.5-0.1,2.2
	c0,1.4-0.8,2.2-2,2.2c-0.9,0-1.7,0-2.2,0v-1.4c0.4,0.1,1.2,0.1,1.6,0.1c0.6,0,0.8-0.5,0.8-1c0-0.6,0.1-1.3,0.1-2.2
	c0-0.8,0-1.6-0.2-2.3c-0.2-0.8-0.3-1.3-0.9-1.4H31v8.1h-1.9V5.1h4.8v-1h-5L28.8,2.8z M32.1,7h1.4c0.1,0.4,0.2,0.9,0.2,1.3h2
	C35.9,7.9,36,7.5,36,7h1.5c0,0.4-0.1,0.9-0.2,1.3h1v1.2h-2.5v1.2h2.6v1.1h-2.6v2h-1.9v-2h-2.5v-1.1h2.5V9.4h-2.4V8.3h1
	C32.3,7.9,32.2,7.5,32.1,7L32.1,7z"/>
<path class="st0" d="M43.4,12.8h5v-1.2h-4.2v-1.2h4.2V9.2h-2.7V5.4h6.2c0.5,0,0.9,0.2,1.2,0.5c0.3,0.4,0.4,0.9,0.3,1.3v2h-3v1.3h4.2
	v1.2h-4.2v1.2h5V14H43.4V12.8z M44.8,1.8h1.9c0.2,0.4,0.3,0.9,0.4,1.4h1.2V1.6h2.2v1.6h1.2c0.2-0.5,0.3-1,0.5-1.4h1.8
	c-0.2,0.5-0.3,1-0.5,1.4h0.5c1,0,1.5,0.6,1.5,1.2c0,1.1-0.1,1.8-0.1,1.8h-1.9c0,0,0.1-1.2,0.1-1.6s-0.1-0.4-0.5-0.4h-7.9v1.8h-1.9
	v-3h1.8C45.1,2.7,45,2.3,44.8,1.8z M47.3,8.2h4.5v-1c0-0.7,0-1-0.6-1h-3.9V8.2z"/>
<path class="st0" d="M61.9,2.7c0,3.4-1.8,4.4-3.5,5l0.2,1.4c3.1-0.6,5.4-3.3,5.4-6.4L61.9,2.7z"/>
<path class="st0" d="M67.6,5.3h-5.4V3.7h5.9c1.1,0,2,0.3,2,1.5v1.7c-0.1,2.3-1.2,4.5-3,5.8c-2.2,1.4-4.7,2-7.3,1.5v-1.7
	c1.2,0.2,2.5,0.1,3.7-0.2c2.1-0.6,3.6-2.3,4.2-4.4C67.8,7.1,67.8,6.2,67.6,5.3z"/>
<rect x="70.5" y="2.3" class="st0" width="1.2" height="2.9"/>
<rect x="72.5" y="2.3" class="st0" width="1.2" height="2.9"/>
<path class="st0" d="M75.2,14.3c1.6-2.2,2.2-3.3,2.2-6.9V2.7h-2.1v5.3c0,2.5-0.4,3.6-1.6,5.1L75.2,14.3z"/>
<path class="st0" d="M79.6,14.3c3.4,0,6.2-2.8,6.2-6.3V7.9c0-0.2,0-0.5,0-0.7h-1.4c-0.1,1.8-1,3.5-2.6,4.5v-9h-2.1L79.6,14.3z"/>
<rect x="88.6" y="7.1" class="st0" width="9.7" height="1.9"/>
<path class="st0" d="M106.9,5h-7V3.4h7.5c1.1,0,2.1,0.3,2.1,1.5v1.7c-0.1,2.3-1.2,4.5-3.1,5.8c-1.8,1.2-3.8,1.9-5.9,2v-1.8
	c0.8-0.1,1.6-0.2,2.3-0.5c2.1-0.6,3.6-2.3,4.2-4.4C107.1,6.8,107.1,5.9,106.9,5z"/>
<path class="st0" d="M111.1,1.8c-0.9,0-1.6,0.7-1.6,1.6s0.7,1.6,1.6,1.6s1.6-0.7,1.6-1.6S111.9,1.8,111.1,1.8z M111.1,4.2
	c-0.5,0-0.8-0.3-0.8-0.8s0.3-0.8,0.8-0.8s0.8,0.3,0.8,0.8S111.5,4.2,111.1,4.2z"/>
</svg>
