<?xml version="1.0" encoding="UTF-8"?>
<svg id="_イヤー_1" data-name="レイヤー 1" xmlns="http://www.w3.org/2000/svg" width="69.47mm" height="6.326mm" viewBox="0 0 196.922 17.933">
  <defs>
    <style>
      .cls-1 {
        fill: #fff;
      }
    </style>
  </defs>
  <rect class="cls-1" x="98.961" y="14.54" width="16.274" height="2.576"/>
  <g>
    <polygon class="cls-1" points="31.948 15.18 31.948 10.063 36.783 10.063 36.783 7.911 31.948 7.911 31.948 3.062 38.272 3.062 38.272 .686 22.194 .686 22.194 3.062 28.516 3.062 28.516 7.911 23.678 7.911 23.678 10.063 28.516 10.063 28.516 15.18 21.556 15.18 21.556 17.543 38.906 17.543 38.906 15.18 31.948 15.18"/>
    <path class="cls-1" d="M5.355,4.142c-.398,4.209-2.598,8.065-5.355,9.766v3.871C5.936,14.315,6.981,6.796,7.044,4.142h-1.689Z"/>
    <path class="cls-1" d="M14.54,8.387c-.78-1.685-1.312-4.057-1.312-6.177,0-1.312-1.496-1.53-1.996-1.53H7.145V3.147h3.651c.437,0,.407-.065,.407,.718,0,4.99,2.402,9.983,7.112,14.069v-5.022c-2.494-1.435-3.141-3.152-3.774-4.524Z"/>
    <path class="cls-1" d="M58.468,8.122h-5.742v-.578s2.953-2.421,3.527-2.868c1.31-1.031,1.184-3.989-1.531-3.989h-11.397V3.062h9.465c.279,0,.719,.02,.436,.426-.279,.406-2.121,2.872-2.121,2.872h-1.589v1.762h-8.237v2.153h8.237v4.696h-4.556v2.557h3.898c2.185,0,3.869-1.092,3.869-3.587v-3.666h5.742v-2.153Z"/>
    <path class="cls-1" d="M67.015,.68c0,4.852-2.558,6.303-5.025,7.271l.305,1.98c5.452-1.076,7.721-5.71,7.721-9.251h-3.001Z"/>
    <path class="cls-1" d="M75.305,4.566h-7.849V2.188h8.511c1.608,0,2.934,.515,2.934,2.174v2.401c0,2.98-1.767,6.522-4.43,8.364-3.658,2.525-8.431,2.783-10.422,2.198v-2.364c1.406,.211,3.997,.162,5.29-.233,3.463-1.054,5.545-4.141,5.966-6.341,.344-1.799,0-3.821,0-3.821Z"/>
    <path class="cls-1" d="M139.645,.68c0,4.852-2.56,6.303-5.023,7.271l.306,1.98c5.452-1.076,7.719-5.71,7.719-9.251h-3.001Z"/>
    <path class="cls-1" d="M147.936,4.566h-7.849V2.188h8.51c1.607,0,2.933,.515,2.933,2.174v2.401c0,2.98-1.766,6.522-4.428,8.364-3.66,2.525-8.432,2.783-10.421,2.198v-2.364c1.401,.211,3.991,.162,5.287-.233,3.462-1.054,5.546-4.141,5.968-6.341,.34-1.799,0-3.821,0-3.821Z"/>
    <path class="cls-1" d="M128.899,5.065h3.197v4.196c0,3.605-1.381,4.788-2.498,5.866-3.199,3.086-8.172,2.619-10.417,2.198v-2.122c1.402,.211,4.059,.231,5.356-.163,3.463-1.054,4.362-3.252,4.362-5.204,0-.714,0,.077,0-4.771Z"/>
    <rect class="cls-1" x="81.926" y=".666" width="3.232" height="9.265"/>
    <path class="cls-1" d="M96.223,9.477V.666h-3.227V9.321c0,3.636-3.144,5.395-5.203,5.395h-3.807v2.818h4.151c3.196,0,8.086-2.909,8.086-8.058Z"/>
    <rect class="cls-1" x="100.233" y="2.216" width="13.732" height="2.578"/>
    <rect class="cls-1" x="118.789" y="5.065" width="2.105" height="4.725"/>
    <rect class="cls-1" x="122.759" y="5.065" width="2.105" height="4.725"/>
    <g>
      <g>
        <path class="cls-1" d="M184.838,.686h-6.556V17.543h8.662V2.792c0-1.163-.943-2.106-2.106-2.106Zm-3.108,14.479h-1.069v-4.864h1.069v4.864Zm0-7.24h-1.069V3.062h1.069V7.925Zm2.837,7.24h-1.07v-4.864h1.07v4.864Zm0-7.24h-1.07V3.062h1.07V7.925Z"/>
        <path class="cls-1" d="M189.115,14.98v2.563h2.914v-.002c1.162,0,2.107-.941,2.107-2.107V3.062h2.786V.686h-9.31V3.062h3.755V14.98h-2.251Z"/>
      </g>
      <g>
        <path class="cls-1" d="M168.298,5.821V3.395s2.991-.121,5.558-.969l-1.376-2.426c-3.07,1.132-6.611,1.048-6.611,1.048V5.6c0,4.561-.214,7.922-2.305,11.943h3.108c1.104-2.601,1.585-6.272,1.585-9.297h1.698v9.297h2.426V8.227h1.576v-2.427l-5.66,.02Z"/>
        <path class="cls-1" d="M164.486,13.474c-.688-.538-1.294-1.178-1.777-1.912h2.168c.098-.628,.169-1.261,.216-1.916v-.102h-3.35v-1.439h3.35v-1.728h-1.567V3.436h1.567V1.829h-3.285V.438h-2.631V1.829h-3.015v1.607h1.541v2.941h-1.541v1.728h3.177v1.439h-3.177v2.018h2.428c-.63,.961-1.454,1.778-2.428,2.386v2.685c1.192-.648,2.264-1.556,3.177-2.595v3.505h2.405v-3.747c.598,.715,1.274,1.356,2.007,1.915,.3-.756,.543-1.496,.735-2.237Zm-3.123-7.097h-1.495V3.436h1.495v2.941Z"/>
      </g>
    </g>
  </g>
</svg>