<?xml version="1.0" encoding="UTF-8"?>
<svg id="_イヤー_1" data-name="レイヤー 1" xmlns="http://www.w3.org/2000/svg" width="221.363mm" height="85.23mm" xmlns:xlink="http://www.w3.org/1999/xlink" viewBox="0 0 627.485 241.598">
  <defs>
    <style>
      .cls-1, .cls-2, .cls-3, .cls-4, .cls-5, .cls-6, .cls-7, .cls-8, .cls-9 {
        fill: none;
      }

      .cls-1, .cls-2, .cls-3, .cls-4, .cls-5, .cls-9 {
        stroke: #ad363d;
      }

      .cls-1, .cls-2, .cls-4 {
        stroke-linejoin: round;
      }

      .cls-1, .cls-9 {
        stroke-width: 1.34px;
      }

      .cls-10 {
        fill: url(#_称未設定グラデーション_13);
      }

      .cls-11 {
        fill: url(#_称未設定グラデーション_12);
      }

      .cls-12 {
        fill: url(#_称未設定グラデーション_138-2);
      }

      .cls-12, .cls-13, .cls-14, .cls-15, .cls-16, .cls-17, .cls-18, .cls-3, .cls-5, .cls-19, .cls-6, .cls-7, .cls-8, .cls-9 {
        stroke-miterlimit: 10;
      }

      .cls-12, .cls-13, .cls-14, .cls-15, .cls-16, .cls-17, .cls-18, .cls-4, .cls-5, .cls-19 {
        stroke-width: 1.465px;
      }

      .cls-12, .cls-13, .cls-14, .cls-15, .cls-16, .cls-17, .cls-18, .cls-19 {
        stroke: #804f21;
      }

      .cls-13 {
        fill: url(#_称未設定グラデーション_138-3);
      }

      .cls-14 {
        fill: url(#_称未設定グラデーション_138-4);
      }

      .cls-20 {
        fill: url(#_規グラデーションスウォッチ_4-110);
      }

      .cls-20, .cls-21, .cls-22, .cls-23, .cls-24, .cls-25, .cls-26, .cls-27, .cls-28, .cls-29 {
        opacity: .091;
      }

      .cls-21 {
        fill: url(#_規グラデーションスウォッチ_4-2);
      }

      .cls-30 {
        fill: #e73828;
      }

      .cls-31 {
        fill: #ad363d;
      }

      .cls-32 {
        fill: #231815;
      }

      .cls-33 {
        fill: #9ad4df;
      }

      .cls-2 {
        stroke-linecap: round;
        stroke-width: 1.474px;
      }

      .cls-34 {
        fill: url(#_規グラデーションスウォッチ_4-61);
      }

      .cls-34, .cls-35, .cls-36, .cls-37, .cls-38, .cls-39, .cls-40, .cls-41, .cls-42, .cls-43 {
        opacity: 0;
      }

      .cls-35 {
        fill: url(#_規グラデーションスウォッチ_4-37);
      }

      .cls-36 {
        fill: url(#_規グラデーションスウォッチ_4-49);
      }

      .cls-37 {
        fill: url(#_規グラデーションスウォッチ_4-85);
      }

      .cls-38 {
        fill: url(#_規グラデーションスウォッチ_4-97);
      }

      .cls-39 {
        fill: url(#_規グラデーションスウォッチ_4-73);
      }

      .cls-40 {
        fill: url(#_規グラデーションスウォッチ_4-25);
      }

      .cls-41 {
        fill: url(#_規グラデーションスウォッチ_4-13);
      }

      .cls-15 {
        fill: url(#_称未設定グラデーション_49);
      }

      .cls-16 {
        fill: url(#_称未設定グラデーション_49-2);
      }

      .cls-17 {
        fill: url(#_称未設定グラデーション_49-3);
      }

      .cls-18 {
        fill: url(#_称未設定グラデーション_49-4);
      }

      .cls-44 {
        fill: url(#_規グラデーションスウォッチ_4-108);
      }

      .cls-45 {
        fill: url(#_規グラデーションスウォッチ_4-120);
      }

      .cls-3 {
        stroke-width: 1.279px;
      }

      .cls-42 {
        fill: url(#_規グラデーションスウォッチ_4-109);
      }

      .cls-46 {
        fill: url(#_規グラデーションスウォッチ_4-82);
      }

      .cls-46, .cls-47, .cls-48, .cls-49, .cls-50, .cls-51, .cls-52, .cls-53, .cls-54, .cls-55 {
        opacity: .818;
      }

      .cls-47 {
        fill: url(#_規グラデーションスウォッチ_4-94);
      }

      .cls-48 {
        fill: url(#_規グラデーションスウォッチ_4-70);
      }

      .cls-49 {
        fill: url(#_規グラデーションスウォッチ_4-58);
      }

      .cls-50 {
        fill: url(#_規グラデーションスウォッチ_4-46);
      }

      .cls-51 {
        fill: url(#_規グラデーションスウォッチ_4-34);
      }

      .cls-52 {
        fill: url(#_規グラデーションスウォッチ_4-22);
      }

      .cls-53 {
        fill: url(#_規グラデーションスウォッチ_4-10);
      }

      .cls-56 {
        fill: url(#_規グラデーションスウォッチ_4-35);
      }

      .cls-56, .cls-57, .cls-58, .cls-59, .cls-60, .cls-61, .cls-62, .cls-63, .cls-64, .cls-65 {
        opacity: .909;
      }

      .cls-57 {
        fill: url(#_規グラデーションスウォッチ_4-47);
      }

      .cls-58 {
        fill: url(#_規グラデーションスウォッチ_4-59);
      }

      .cls-59 {
        fill: url(#_規グラデーションスウォッチ_4-23);
      }

      .cls-60 {
        fill: url(#_規グラデーションスウォッチ_4-11);
      }

      .cls-61 {
        fill: url(#_規グラデーションスウォッチ_4-83);
      }

      .cls-62 {
        fill: url(#_規グラデーションスウォッチ_4-95);
      }

      .cls-63 {
        fill: url(#_規グラデーションスウォッチ_4-71);
      }

      .cls-66 {
        fill: url(#_規グラデーションスウォッチ_4-81);
      }

      .cls-66, .cls-67, .cls-68, .cls-69, .cls-70, .cls-71, .cls-72, .cls-73, .cls-74, .cls-75 {
        opacity: .727;
      }

      .cls-67 {
        fill: url(#_規グラデーションスウォッチ_4-93);
      }

      .cls-68 {
        fill: url(#_規グラデーションスウォッチ_4-45);
      }

      .cls-69 {
        fill: url(#_規グラデーションスウォッチ_4-33);
      }

      .cls-70 {
        fill: url(#_規グラデーションスウォッチ_4-69);
      }

      .cls-71 {
        fill: url(#_規グラデーションスウォッチ_4-57);
      }

      .cls-72 {
        fill: url(#_規グラデーションスウォッチ_4-21);
      }

      .cls-76 {
        fill: url(#_規グラデーションスウォッチ_4-42);
      }

      .cls-76, .cls-77, .cls-78, .cls-79, .cls-80, .cls-81, .cls-82, .cls-83, .cls-84, .cls-85 {
        opacity: .455;
      }

      .cls-77 {
        fill: url(#_規グラデーションスウォッチ_4-78);
      }

      .cls-78 {
        fill: url(#_規グラデーションスウォッチ_4-30);
      }

      .cls-79 {
        fill: url(#_規グラデーションスウォッチ_4-66);
      }

      .cls-80 {
        fill: url(#_規グラデーションスウォッチ_4-54);
      }

      .cls-81 {
        fill: url(#_規グラデーションスウォッチ_4-90);
      }

      .cls-82 {
        fill: url(#_規グラデーションスウォッチ_4-18);
      }

      .cls-86 {
        fill: url(#_規グラデーションスウォッチ_4-80);
      }

      .cls-86, .cls-87, .cls-88, .cls-89, .cls-90, .cls-91, .cls-92, .cls-93, .cls-94, .cls-95 {
        opacity: .636;
      }

      .cls-87 {
        fill: url(#_規グラデーションスウォッチ_4-92);
      }

      .cls-88 {
        fill: url(#_規グラデーションスウォッチ_4-44);
      }

      .cls-89 {
        fill: url(#_規グラデーションスウォッチ_4-32);
      }

      .cls-90 {
        fill: url(#_規グラデーションスウォッチ_4-68);
      }

      .cls-91 {
        fill: url(#_規グラデーションスウォッチ_4-56);
      }

      .cls-92 {
        fill: url(#_規グラデーションスウォッチ_4-20);
      }

      .cls-96 {
        fill: url(#_規グラデーションスウォッチ_4-41);
      }

      .cls-96, .cls-97, .cls-98, .cls-99, .cls-100, .cls-101, .cls-102, .cls-103, .cls-104, .cls-105 {
        opacity: .364;
      }

      .cls-97 {
        fill: url(#_規グラデーションスウォッチ_4-77);
      }

      .cls-98 {
        fill: url(#_規グラデーションスウォッチ_4-65);
      }

      .cls-99 {
        fill: url(#_規グラデーションスウォッチ_4-53);
      }

      .cls-100 {
        fill: url(#_規グラデーションスウォッチ_4-89);
      }

      .cls-101 {
        fill: url(#_規グラデーションスウォッチ_4-29);
      }

      .cls-102 {
        fill: url(#_規グラデーションスウォッチ_4-17);
      }

      .cls-106 {
        fill: url(#_規グラデーションスウォッチ_4-19);
      }

      .cls-106, .cls-107, .cls-108, .cls-109, .cls-110, .cls-111, .cls-112, .cls-113, .cls-114, .cls-115 {
        opacity: .545;
      }

      .cls-107 {
        fill: url(#_規グラデーションスウォッチ_4-91);
      }

      .cls-108 {
        fill: url(#_規グラデーションスウォッチ_4-79);
      }

      .cls-109 {
        fill: url(#_規グラデーションスウォッチ_4-43);
      }

      .cls-110 {
        fill: url(#_規グラデーションスウォッチ_4-31);
      }

      .cls-111 {
        fill: url(#_規グラデーションスウォッチ_4-67);
      }

      .cls-112 {
        fill: url(#_規グラデーションスウォッチ_4-55);
      }

      .cls-116 {
        fill: url(#_規グラデーションスウォッチ_4-75);
      }

      .cls-116, .cls-117, .cls-118, .cls-119, .cls-120, .cls-121, .cls-122, .cls-123, .cls-124, .cls-125 {
        opacity: .182;
      }

      .cls-117 {
        fill: url(#_規グラデーションスウォッチ_4-63);
      }

      .cls-118 {
        fill: url(#_規グラデーションスウォッチ_4-51);
      }

      .cls-119 {
        fill: url(#_規グラデーションスウォッチ_4-39);
      }

      .cls-120 {
        fill: url(#_規グラデーションスウォッチ_4-99);
      }

      .cls-121 {
        fill: url(#_規グラデーションスウォッチ_4-87);
      }

      .cls-122 {
        fill: url(#_規グラデーションスウォッチ_4-15);
      }

      .cls-123 {
        fill: url(#_規グラデーションスウォッチ_4-27);
      }

      .cls-126 {
        fill: url(#_規グラデーションスウォッチ_4-76);
      }

      .cls-126, .cls-127, .cls-128, .cls-129, .cls-130, .cls-131, .cls-132, .cls-133, .cls-134, .cls-135 {
        opacity: .273;
      }

      .cls-127 {
        fill: url(#_規グラデーションスウォッチ_4-40);
      }

      .cls-128 {
        fill: url(#_規グラデーションスウォッチ_4-64);
      }

      .cls-129 {
        fill: url(#_規グラデーションスウォッチ_4-52);
      }

      .cls-130 {
        fill: url(#_規グラデーションスウォッチ_4-88);
      }

      .cls-131 {
        fill: url(#_規グラデーションスウォッチ_4-16);
      }

      .cls-132 {
        fill: url(#_規グラデーションスウォッチ_4-28);
      }

      .cls-136 {
        fill: url(#_規グラデーションスウォッチ_4-24);
      }

      .cls-137 {
        fill: url(#_規グラデーションスウォッチ_4-12);
      }

      .cls-138 {
        fill: url(#_規グラデーションスウォッチ_4-36);
      }

      .cls-139 {
        fill: url(#_規グラデーションスウォッチ_4-60);
      }

      .cls-140 {
        fill: url(#_規グラデーションスウォッチ_4-48);
      }

      .cls-141 {
        fill: url(#_規グラデーションスウォッチ_4-72);
      }

      .cls-142 {
        fill: url(#_規グラデーションスウォッチ_4-96);
      }

      .cls-143 {
        fill: url(#_規グラデーションスウォッチ_4-84);
      }

      .cls-43 {
        fill: url(#_規グラデーションスウォッチ_4);
      }

      .cls-19 {
        fill: url(#_称未設定グラデーション_138);
      }

      .cls-6 {
        stroke: #fff;
        stroke-width: 2px;
      }

      .cls-73 {
        fill: url(#_規グラデーションスウォッチ_4-9);
      }

      .cls-113 {
        fill: url(#_規グラデーションスウォッチ_4-7);
      }

      .cls-103 {
        fill: url(#_規グラデーションスウォッチ_4-5);
      }

      .cls-93 {
        fill: url(#_規グラデーションスウォッチ_4-8);
      }

      .cls-124 {
        fill: url(#_規グラデーションスウォッチ_4-111);
      }

      .cls-133 {
        fill: url(#_規グラデーションスウォッチ_4-4);
      }

      .cls-83 {
        fill: url(#_規グラデーションスウォッチ_4-6);
      }

      .cls-7, .cls-8 {
        stroke: #231815;
      }

      .cls-125 {
        fill: url(#_規グラデーションスウォッチ_4-3);
      }

      .cls-144 {
        opacity: .23;
      }

      .cls-8 {
        stroke-width: 1.2px;
      }

      .cls-145 {
        opacity: .7;
      }

      .cls-114 {
        fill: url(#_規グラデーションスウォッチ_4-115);
      }

      .cls-115 {
        fill: url(#_規グラデーションスウォッチ_4-103);
      }

      .cls-64 {
        fill: url(#_規グラデーションスウォッチ_4-107);
      }

      .cls-65 {
        fill: url(#_規グラデーションスウォッチ_4-119);
      }

      .cls-54 {
        fill: url(#_規グラデーションスウォッチ_4-106);
      }

      .cls-55 {
        fill: url(#_規グラデーションスウォッチ_4-118);
      }

      .cls-74 {
        fill: url(#_規グラデーションスウォッチ_4-105);
      }

      .cls-75 {
        fill: url(#_規グラデーションスウォッチ_4-117);
      }

      .cls-134 {
        fill: url(#_規グラデーションスウォッチ_4-100);
      }

      .cls-135 {
        fill: url(#_規グラデーションスウォッチ_4-112);
      }

      .cls-84 {
        fill: url(#_規グラデーションスウォッチ_4-114);
      }

      .cls-85 {
        fill: url(#_規グラデーションスウォッチ_4-102);
      }

      .cls-94 {
        fill: url(#_規グラデーションスウォッチ_4-104);
      }

      .cls-95 {
        fill: url(#_規グラデーションスウォッチ_4-116);
      }

      .cls-104 {
        fill: url(#_規グラデーションスウォッチ_4-101);
      }

      .cls-105 {
        fill: url(#_規グラデーションスウォッチ_4-113);
      }

      .cls-22 {
        fill: url(#_規グラデーションスウォッチ_4-26);
      }

      .cls-23 {
        fill: url(#_規グラデーションスウォッチ_4-14);
      }

      .cls-24 {
        fill: url(#_規グラデーションスウォッチ_4-62);
      }

      .cls-25 {
        fill: url(#_規グラデーションスウォッチ_4-38);
      }

      .cls-26 {
        fill: url(#_規グラデーションスウォッチ_4-50);
      }

      .cls-27 {
        fill: url(#_規グラデーションスウォッチ_4-86);
      }

      .cls-28 {
        fill: url(#_規グラデーションスウォッチ_4-98);
      }

      .cls-29 {
        fill: url(#_規グラデーションスウォッチ_4-74);
      }
    </style>
    <linearGradient id="_称未設定グラデーション_138" data-name="名称未設定グラデーション 138" x1="379.047" y1="112.776" x2="523.911" y2="112.776" gradientTransform="matrix(1, 0, 0, 1, 0, 0)" gradientUnits="userSpaceOnUse">
      <stop offset="0" stop-color="#ce5b46"/>
      <stop offset=".504" stop-color="#ebc2a2"/>
      <stop offset="1" stop-color="#ce5b46"/>
    </linearGradient>
    <linearGradient id="_称未設定グラデーション_138-2" data-name="名称未設定グラデーション 138" x1="353.422" y1="52.913" x2="548.161" y2="52.913" xlink:href="#_称未設定グラデーション_138"/>
    <linearGradient id="_規グラデーションスウォッチ_4" data-name="新規グラデーションスウォッチ 4" x1="448.666" y1="45.331" x2="458.104" y2="45.331" gradientTransform="matrix(1, 0, 0, 1, 0, 0)" gradientUnits="userSpaceOnUse">
      <stop offset="0" stop-color="#be725a"/>
      <stop offset="1" stop-color="#be725a"/>
    </linearGradient>
    <linearGradient id="_規グラデーションスウォッチ_4-2" data-name="新規グラデーションスウォッチ 4" x1="448.889" y1="45.331" x2="457.881" y2="45.331" xlink:href="#_規グラデーションスウォッチ_4"/>
    <linearGradient id="_規グラデーションスウォッチ_4-3" data-name="新規グラデーションスウォッチ 4" x1="449.112" x2="457.658" xlink:href="#_規グラデーションスウォッチ_4"/>
    <linearGradient id="_規グラデーションスウォッチ_4-4" data-name="新規グラデーションスウォッチ 4" x1="449.335" x2="457.435" xlink:href="#_規グラデーションスウォッチ_4"/>
    <linearGradient id="_規グラデーションスウォッチ_4-5" data-name="新規グラデーションスウォッチ 4" x1="449.558" x2="457.212" xlink:href="#_規グラデーションスウォッチ_4"/>
    <linearGradient id="_規グラデーションスウォッチ_4-6" data-name="新規グラデーションスウォッチ 4" x1="449.781" x2="456.989" xlink:href="#_規グラデーションスウォッチ_4"/>
    <linearGradient id="_規グラデーションスウォッチ_4-7" data-name="新規グラデーションスウォッチ 4" x1="450.004" x2="456.766" xlink:href="#_規グラデーションスウォッチ_4"/>
    <linearGradient id="_規グラデーションスウォッチ_4-8" data-name="新規グラデーションスウォッチ 4" x1="450.227" x2="456.543" xlink:href="#_規グラデーションスウォッチ_4"/>
    <linearGradient id="_規グラデーションスウォッチ_4-9" data-name="新規グラデーションスウォッチ 4" x1="450.45" x2="456.32" xlink:href="#_規グラデーションスウォッチ_4"/>
    <linearGradient id="_規グラデーションスウォッチ_4-10" data-name="新規グラデーションスウォッチ 4" x1="450.674" x2="456.097" xlink:href="#_規グラデーションスウォッチ_4"/>
    <linearGradient id="_規グラデーションスウォッチ_4-11" data-name="新規グラデーションスウォッチ 4" x1="450.897" x2="455.873" xlink:href="#_規グラデーションスウォッチ_4"/>
    <linearGradient id="_規グラデーションスウォッチ_4-12" data-name="新規グラデーションスウォッチ 4" x1="451.12" x2="455.65" xlink:href="#_規グラデーションスウォッチ_4"/>
    <linearGradient id="_規グラデーションスウォッチ_4-13" data-name="新規グラデーションスウォッチ 4" x1="462.448" y1="44.331" x2="471.887" y2="44.331" xlink:href="#_規グラデーションスウォッチ_4"/>
    <linearGradient id="_規グラデーションスウォッチ_4-14" data-name="新規グラデーションスウォッチ 4" x1="462.671" y1="44.331" x2="471.664" y2="44.331" xlink:href="#_規グラデーションスウォッチ_4"/>
    <linearGradient id="_規グラデーションスウォッチ_4-15" data-name="新規グラデーションスウォッチ 4" x1="462.894" y1="44.331" x2="471.441" y2="44.331" xlink:href="#_規グラデーションスウォッチ_4"/>
    <linearGradient id="_規グラデーションスウォッチ_4-16" data-name="新規グラデーションスウォッチ 4" x1="463.117" y1="44.331" x2="471.218" y2="44.331" xlink:href="#_規グラデーションスウォッチ_4"/>
    <linearGradient id="_規グラデーションスウォッチ_4-17" data-name="新規グラデーションスウォッチ 4" x1="463.341" y1="44.331" x2="470.995" y2="44.331" xlink:href="#_規グラデーションスウォッチ_4"/>
    <linearGradient id="_規グラデーションスウォッチ_4-18" data-name="新規グラデーションスウォッチ 4" x1="463.564" y1="44.331" x2="470.772" y2="44.331" xlink:href="#_規グラデーションスウォッチ_4"/>
    <linearGradient id="_規グラデーションスウォッチ_4-19" data-name="新規グラデーションスウォッチ 4" x1="463.787" y1="44.331" x2="470.548" y2="44.331" xlink:href="#_規グラデーションスウォッチ_4"/>
    <linearGradient id="_規グラデーションスウォッチ_4-20" data-name="新規グラデーションスウォッチ 4" x1="464.01" y1="44.331" x2="470.325" y2="44.331" xlink:href="#_規グラデーションスウォッチ_4"/>
    <linearGradient id="_規グラデーションスウォッチ_4-21" data-name="新規グラデーションスウォッチ 4" x1="464.233" y1="44.331" x2="470.102" y2="44.331" xlink:href="#_規グラデーションスウォッチ_4"/>
    <linearGradient id="_規グラデーションスウォッチ_4-22" data-name="新規グラデーションスウォッチ 4" x1="464.456" y1="44.331" x2="469.879" y2="44.331" xlink:href="#_規グラデーションスウォッチ_4"/>
    <linearGradient id="_規グラデーションスウォッチ_4-23" data-name="新規グラデーションスウォッチ 4" x1="464.679" y1="44.331" x2="469.656" y2="44.331" xlink:href="#_規グラデーションスウォッチ_4"/>
    <linearGradient id="_規グラデーションスウォッチ_4-24" data-name="新規グラデーションスウォッチ 4" x1="464.902" y1="44.331" x2="469.433" y2="44.331" xlink:href="#_規グラデーションスウォッチ_4"/>
    <linearGradient id="_規グラデーションスウォッチ_4-25" data-name="新規グラデーションスウォッチ 4" x1="464.441" y1="31.409" x2="473.88" y2="31.409" gradientTransform="translate(516.008 -424.829) rotate(90)" xlink:href="#_規グラデーションスウォッチ_4"/>
    <linearGradient id="_規グラデーションスウォッチ_4-26" data-name="新規グラデーションスウォッチ 4" x1="464.664" y1="31.409" x2="473.657" y2="31.409" gradientTransform="translate(516.008 -424.829) rotate(90)" xlink:href="#_規グラデーションスウォッチ_4"/>
    <linearGradient id="_規グラデーションスウォッチ_4-27" data-name="新規グラデーションスウォッチ 4" x1="464.887" y1="31.409" x2="473.434" y2="31.409" gradientTransform="translate(516.008 -424.829) rotate(90)" xlink:href="#_規グラデーションスウォッチ_4"/>
    <linearGradient id="_規グラデーションスウォッチ_4-28" data-name="新規グラデーションスウォッチ 4" x1="465.11" y1="31.409" x2="473.21" y2="31.409" gradientTransform="translate(516.008 -424.829) rotate(90)" xlink:href="#_規グラデーションスウォッチ_4"/>
    <linearGradient id="_規グラデーションスウォッチ_4-29" data-name="新規グラデーションスウォッチ 4" x1="465.333" y1="31.409" x2="472.987" y2="31.409" gradientTransform="translate(516.008 -424.829) rotate(90)" xlink:href="#_規グラデーションスウォッチ_4"/>
    <linearGradient id="_規グラデーションスウォッチ_4-30" data-name="新規グラデーションスウォッチ 4" x1="465.556" y1="31.409" x2="472.764" y2="31.409" gradientTransform="translate(516.008 -424.829) rotate(90)" xlink:href="#_規グラデーションスウォッチ_4"/>
    <linearGradient id="_規グラデーションスウォッチ_4-31" data-name="新規グラデーションスウォッチ 4" x1="465.779" y1="31.409" x2="472.541" y2="31.409" gradientTransform="translate(516.008 -424.829) rotate(90)" xlink:href="#_規グラデーションスウォッチ_4"/>
    <linearGradient id="_規グラデーションスウォッチ_4-32" data-name="新規グラデーションスウォッチ 4" x1="466.003" y1="31.409" x2="472.318" y2="31.409" gradientTransform="translate(516.008 -424.829) rotate(90)" xlink:href="#_規グラデーションスウォッチ_4"/>
    <linearGradient id="_規グラデーションスウォッチ_4-33" data-name="新規グラデーションスウォッチ 4" x1="466.226" y1="31.409" x2="472.095" y2="31.409" gradientTransform="translate(516.008 -424.829) rotate(90)" xlink:href="#_規グラデーションスウォッチ_4"/>
    <linearGradient id="_規グラデーションスウォッチ_4-34" data-name="新規グラデーションスウォッチ 4" x1="466.449" y1="31.409" x2="471.872" y2="31.409" gradientTransform="translate(516.008 -424.829) rotate(90)" xlink:href="#_規グラデーションスウォッチ_4"/>
    <linearGradient id="_規グラデーションスウォッチ_4-35" data-name="新規グラデーションスウォッチ 4" x1="466.672" y1="31.409" x2="471.649" y2="31.409" gradientTransform="translate(516.008 -424.829) rotate(90)" xlink:href="#_規グラデーションスウォッチ_4"/>
    <linearGradient id="_規グラデーションスウォッチ_4-36" data-name="新規グラデーションスウォッチ 4" x1="466.895" y1="31.409" x2="471.426" y2="31.409" gradientTransform="translate(516.008 -424.829) rotate(90)" xlink:href="#_規グラデーションスウォッチ_4"/>
    <linearGradient id="_規グラデーションスウォッチ_4-37" data-name="新規グラデーションスウォッチ 4" x1="434.585" y1="44.331" x2="444.023" y2="44.331" xlink:href="#_規グラデーションスウォッチ_4"/>
    <linearGradient id="_規グラデーションスウォッチ_4-38" data-name="新規グラデーションスウォッチ 4" x1="434.808" y1="44.331" x2="443.8" y2="44.331" xlink:href="#_規グラデーションスウォッチ_4"/>
    <linearGradient id="_規グラデーションスウォッチ_4-39" data-name="新規グラデーションスウォッチ 4" x1="435.031" y1="44.331" x2="443.577" y2="44.331" xlink:href="#_規グラデーションスウォッチ_4"/>
    <linearGradient id="_規グラデーションスウォッチ_4-40" data-name="新規グラデーションスウォッチ 4" x1="435.254" y1="44.331" x2="443.354" y2="44.331" xlink:href="#_規グラデーションスウォッチ_4"/>
    <linearGradient id="_規グラデーションスウォッチ_4-41" data-name="新規グラデーションスウォッチ 4" x1="435.477" y1="44.331" x2="443.131" y2="44.331" xlink:href="#_規グラデーションスウォッチ_4"/>
    <linearGradient id="_規グラデーションスウォッチ_4-42" data-name="新規グラデーションスウォッチ 4" x1="435.7" y1="44.331" x2="442.908" y2="44.331" xlink:href="#_規グラデーションスウォッチ_4"/>
    <linearGradient id="_規グラデーションスウォッチ_4-43" data-name="新規グラデーションスウォッチ 4" x1="435.923" y1="44.331" x2="442.685" y2="44.331" xlink:href="#_規グラデーションスウォッチ_4"/>
    <linearGradient id="_規グラデーションスウォッチ_4-44" data-name="新規グラデーションスウォッチ 4" x1="436.146" y1="44.331" x2="442.462" y2="44.331" xlink:href="#_規グラデーションスウォッチ_4"/>
    <linearGradient id="_規グラデーションスウォッチ_4-45" data-name="新規グラデーションスウォッチ 4" x1="436.369" y1="44.331" x2="442.239" y2="44.331" xlink:href="#_規グラデーションスウォッチ_4"/>
    <linearGradient id="_規グラデーションスウォッチ_4-46" data-name="新規グラデーションスウォッチ 4" x1="436.592" y1="44.331" x2="442.016" y2="44.331" xlink:href="#_規グラデーションスウォッチ_4"/>
    <linearGradient id="_規グラデーションスウォッチ_4-47" data-name="新規グラデーションスウォッチ 4" x1="436.816" y1="44.331" x2="441.792" y2="44.331" xlink:href="#_規グラデーションスウォッチ_4"/>
    <linearGradient id="_規グラデーションスウォッチ_4-48" data-name="新規グラデーションスウォッチ 4" x1="437.039" y1="44.331" x2="441.569" y2="44.331" xlink:href="#_規グラデーションスウォッチ_4"/>
    <linearGradient id="_規グラデーションスウォッチ_4-49" data-name="新規グラデーションスウォッチ 4" x1="432.568" y1="56.601" x2="442.007" y2="56.601" gradientTransform="translate(-12.931 -12.27)" xlink:href="#_規グラデーションスウォッチ_4"/>
    <linearGradient id="_規グラデーションスウォッチ_4-50" data-name="新規グラデーションスウォッチ 4" x1="432.791" y1="56.601" x2="441.784" y2="56.601" gradientTransform="translate(-12.931 -12.27)" xlink:href="#_規グラデーションスウォッチ_4"/>
    <linearGradient id="_規グラデーションスウォッチ_4-51" data-name="新規グラデーションスウォッチ 4" x1="433.014" y1="56.601" x2="441.561" y2="56.601" gradientTransform="translate(-12.931 -12.27)" xlink:href="#_規グラデーションスウォッチ_4"/>
    <linearGradient id="_規グラデーションスウォッチ_4-52" data-name="新規グラデーションスウォッチ 4" x1="433.237" y1="56.601" x2="441.338" y2="56.601" gradientTransform="translate(-12.931 -12.27)" xlink:href="#_規グラデーションスウォッチ_4"/>
    <linearGradient id="_規グラデーションスウォッチ_4-53" data-name="新規グラデーションスウォッチ 4" x1="433.46" y1="56.601" x2="441.114" y2="56.601" gradientTransform="translate(-12.931 -12.27)" xlink:href="#_規グラデーションスウォッチ_4"/>
    <linearGradient id="_規グラデーションスウォッチ_4-54" data-name="新規グラデーションスウォッチ 4" x1="433.683" y1="56.601" x2="440.891" y2="56.601" gradientTransform="translate(-12.931 -12.27)" xlink:href="#_規グラデーションスウォッチ_4"/>
    <linearGradient id="_規グラデーションスウォッチ_4-55" data-name="新規グラデーションスウォッチ 4" x1="433.907" y1="56.601" x2="440.668" y2="56.601" gradientTransform="translate(-12.931 -12.27)" xlink:href="#_規グラデーションスウォッチ_4"/>
    <linearGradient id="_規グラデーションスウォッチ_4-56" data-name="新規グラデーションスウォッチ 4" x1="434.13" y1="56.601" x2="440.445" y2="56.601" gradientTransform="translate(-12.931 -12.27)" xlink:href="#_規グラデーションスウォッチ_4"/>
    <linearGradient id="_規グラデーションスウォッチ_4-57" data-name="新規グラデーションスウォッチ 4" x1="434.353" y1="56.601" x2="440.222" y2="56.601" gradientTransform="translate(-12.931 -12.27)" xlink:href="#_規グラデーションスウォッチ_4"/>
    <linearGradient id="_規グラデーションスウォッチ_4-58" data-name="新規グラデーションスウォッチ 4" x1="434.576" y1="56.601" x2="439.999" y2="56.601" gradientTransform="translate(-12.931 -12.27)" xlink:href="#_規グラデーションスウォッチ_4"/>
    <linearGradient id="_規グラデーションスウォッチ_4-59" data-name="新規グラデーションスウォッチ 4" x1="434.799" y1="56.601" x2="439.776" y2="56.601" gradientTransform="translate(-12.931 -12.27)" xlink:href="#_規グラデーションスウォッチ_4"/>
    <linearGradient id="_規グラデーションスウォッチ_4-60" data-name="新規グラデーションスウォッチ 4" x1="435.022" y1="56.601" x2="439.553" y2="56.601" gradientTransform="translate(-12.931 -12.27)" xlink:href="#_規グラデーションスウォッチ_4"/>
    <linearGradient id="_称未設定グラデーション_49" data-name="名称未設定グラデーション 49" x1="925.061" y1="175.25" x2="925.061" y2="1.169" gradientTransform="translate(1308.482) rotate(-180) scale(1 -1)" gradientUnits="userSpaceOnUse">
      <stop offset="0" stop-color="#f09576"/>
      <stop offset="1" stop-color="#f7e9cf"/>
    </linearGradient>
    <linearGradient id="_称未設定グラデーション_13" data-name="名称未設定グラデーション 13" x1="1003.264" y1="46.578" x2="870.081" y2="165.278" gradientTransform="translate(1308.482) rotate(-180) scale(1 -1)" gradientUnits="userSpaceOnUse">
      <stop offset=".068" stop-color="#f1ddc3" stop-opacity="0"/>
      <stop offset=".324" stop-color="#edd3bb" stop-opacity=".017"/>
      <stop offset=".509" stop-color="#e0b5a3" stop-opacity=".071"/>
      <stop offset=".671" stop-color="#cc837a" stop-opacity=".161"/>
      <stop offset=".82" stop-color="#af3c41" stop-opacity=".289"/>
      <stop offset=".83" stop-color="#ad363d" stop-opacity=".3"/>
    </linearGradient>
    <linearGradient id="_称未設定グラデーション_49-2" data-name="名称未設定グラデーション 49" x1="1002.965" y1="199.592" x2="1002.965" y2=".889" gradientTransform="translate(-449.909)" xlink:href="#_称未設定グラデーション_49"/>
    <linearGradient id="_称未設定グラデーション_12" data-name="名称未設定グラデーション 12" x1="1037.553" y1="51.599" x2="942.94" y2="222.591" gradientTransform="translate(-449.909)" gradientUnits="userSpaceOnUse">
      <stop offset="0" stop-color="#f1ddc3" stop-opacity="0"/>
      <stop offset=".291" stop-color="#edd4bc" stop-opacity=".015"/>
      <stop offset=".478" stop-color="#e2b8a5" stop-opacity=".066"/>
      <stop offset=".635" stop-color="#ce887f" stop-opacity=".151"/>
      <stop offset=".776" stop-color="#b34649" stop-opacity=".271"/>
      <stop offset=".803" stop-color="#ad363d" stop-opacity=".3"/>
    </linearGradient>
    <linearGradient id="_称未設定グラデーション_138-3" data-name="名称未設定グラデーション 138" x1="81.69" y1="111.352" x2="233.43" y2="111.352" xlink:href="#_称未設定グラデーション_138"/>
    <linearGradient id="_称未設定グラデーション_138-4" data-name="名称未設定グラデーション 138" x1="54.848" y1="52.056" x2="258.832" y2="52.056" xlink:href="#_称未設定グラデーション_138"/>
    <linearGradient id="_規グラデーションスウォッチ_4-61" data-name="新規グラデーションスウォッチ 4" x1="154.613" y1="43.815" x2="164.5" y2="43.815" xlink:href="#_規グラデーションスウォッチ_4"/>
    <linearGradient id="_規グラデーションスウォッチ_4-62" data-name="新規グラデーションスウォッチ 4" x1="154.847" y1="43.815" x2="164.266" y2="43.815" xlink:href="#_規グラデーションスウォッチ_4"/>
    <linearGradient id="_規グラデーションスウォッチ_4-63" data-name="新規グラデーションスウォッチ 4" x1="155.08" y1="43.815" x2="164.033" y2="43.815" xlink:href="#_規グラデーションスウォッチ_4"/>
    <linearGradient id="_規グラデーションスウォッチ_4-64" data-name="新規グラデーションスウォッチ 4" x1="155.314" y1="43.815" x2="163.799" y2="43.815" xlink:href="#_規グラデーションスウォッチ_4"/>
    <linearGradient id="_規グラデーションスウォッチ_4-65" data-name="新規グラデーションスウォッチ 4" x1="155.548" y1="43.815" x2="163.565" y2="43.815" xlink:href="#_規グラデーションスウォッチ_4"/>
    <linearGradient id="_規グラデーションスウォッチ_4-66" data-name="新規グラデーションスウォッチ 4" x1="155.781" y1="43.815" x2="163.331" y2="43.815" xlink:href="#_規グラデーションスウォッチ_4"/>
    <linearGradient id="_規グラデーションスウォッチ_4-67" data-name="新規グラデーションスウォッチ 4" x1="156.015" y1="43.815" x2="163.098" y2="43.815" xlink:href="#_規グラデーションスウォッチ_4"/>
    <linearGradient id="_規グラデーションスウォッチ_4-68" data-name="新規グラデーションスウォッチ 4" x1="156.249" y1="43.815" x2="162.864" y2="43.815" xlink:href="#_規グラデーションスウォッチ_4"/>
    <linearGradient id="_規グラデーションスウォッチ_4-69" data-name="新規グラデーションスウォッチ 4" x1="156.482" y1="43.815" x2="162.63" y2="43.815" xlink:href="#_規グラデーションスウォッチ_4"/>
    <linearGradient id="_規グラデーションスウォッチ_4-70" data-name="新規グラデーションスウォッチ 4" x1="156.716" y1="43.815" x2="162.397" y2="43.815" xlink:href="#_規グラデーションスウォッチ_4"/>
    <linearGradient id="_規グラデーションスウォッチ_4-71" data-name="新規グラデーションスウォッチ 4" x1="156.95" y1="43.815" x2="162.163" y2="43.815" xlink:href="#_規グラデーションスウォッチ_4"/>
    <linearGradient id="_規グラデーションスウォッチ_4-72" data-name="新規グラデーションスウォッチ 4" x1="157.184" y1="43.815" x2="161.929" y2="43.815" xlink:href="#_規グラデーションスウォッチ_4"/>
    <linearGradient id="_規グラデーションスウォッチ_4-73" data-name="新規グラデーションスウォッチ 4" x1="169.05" y1="42.841" x2="178.937" y2="42.841" xlink:href="#_規グラデーションスウォッチ_4"/>
    <linearGradient id="_規グラデーションスウォッチ_4-74" data-name="新規グラデーションスウォッチ 4" x1="169.283" y1="42.841" x2="178.703" y2="42.841" xlink:href="#_規グラデーションスウォッチ_4"/>
    <linearGradient id="_規グラデーションスウォッチ_4-75" data-name="新規グラデーションスウォッチ 4" x1="169.517" y1="42.841" x2="178.469" y2="42.841" xlink:href="#_規グラデーションスウォッチ_4"/>
    <linearGradient id="_規グラデーションスウォッチ_4-76" data-name="新規グラデーションスウォッチ 4" x1="169.751" y1="42.841" x2="178.236" y2="42.841" xlink:href="#_規グラデーションスウォッチ_4"/>
    <linearGradient id="_規グラデーションスウォッチ_4-77" data-name="新規グラデーションスウォッチ 4" x1="169.985" y1="42.841" x2="178.002" y2="42.841" xlink:href="#_規グラデーションスウォッチ_4"/>
    <linearGradient id="_規グラデーションスウォッチ_4-78" data-name="新規グラデーションスウォッチ 4" x1="170.218" y1="42.841" x2="177.768" y2="42.841" xlink:href="#_規グラデーションスウォッチ_4"/>
    <linearGradient id="_規グラデーションスウォッチ_4-79" data-name="新規グラデーションスウォッチ 4" x1="170.452" y1="42.841" x2="177.535" y2="42.841" xlink:href="#_規グラデーションスウォッチ_4"/>
    <linearGradient id="_規グラデーションスウォッチ_4-80" data-name="新規グラデーションスウォッチ 4" x1="170.686" y1="42.841" x2="177.301" y2="42.841" xlink:href="#_規グラデーションスウォッチ_4"/>
    <linearGradient id="_規グラデーションスウォッチ_4-81" data-name="新規グラデーションスウォッチ 4" x1="170.919" y1="42.841" x2="177.067" y2="42.841" xlink:href="#_規グラデーションスウォッチ_4"/>
    <linearGradient id="_規グラデーションスウォッチ_4-82" data-name="新規グラデーションスウォッチ 4" x1="171.153" y1="42.841" x2="176.833" y2="42.841" xlink:href="#_規グラデーションスウォッチ_4"/>
    <linearGradient id="_規グラデーションスウォッチ_4-83" data-name="新規グラデーションスウォッチ 4" x1="171.387" y1="42.841" x2="176.6" y2="42.841" xlink:href="#_規グラデーションスウォッチ_4"/>
    <linearGradient id="_規グラデーションスウォッチ_4-84" data-name="新規グラデーションスウォッチ 4" x1="171.62" y1="42.841" x2="176.366" y2="42.841" xlink:href="#_規グラデーションスウォッチ_4"/>
    <linearGradient id="_規グラデーションスウォッチ_4-85" data-name="新規グラデーションスウォッチ 4" x1="173.047" y1="57.722" x2="182.945" y2="57.722" gradientTransform="translate(248.666 -135.574) rotate(89.579)" xlink:href="#_規グラデーションスウォッチ_4"/>
    <linearGradient id="_規グラデーションスウォッチ_4-86" data-name="新規グラデーションスウォッチ 4" x1="173.28" y1="57.722" x2="182.712" y2="57.722" gradientTransform="translate(248.668 -135.573) rotate(89.58)" xlink:href="#_規グラデーションスウォッチ_4"/>
    <linearGradient id="_規グラデーションスウォッチ_4-87" data-name="新規グラデーションスウォッチ 4" x1="173.514" y1="57.722" x2="182.479" y2="57.722" gradientTransform="translate(248.671 -135.573) rotate(89.581)" xlink:href="#_規グラデーションスウォッチ_4"/>
    <linearGradient id="_規グラデーションスウォッチ_4-88" data-name="新規グラデーションスウォッチ 4" x1="173.747" y1="57.722" x2="182.246" y2="57.722" gradientTransform="translate(248.674 -135.572) rotate(89.582)" xlink:href="#_規グラデーションスウォッチ_4"/>
    <linearGradient id="_規グラデーションスウォッチ_4-89" data-name="新規グラデーションスウォッチ 4" x1="173.98" y1="57.722" x2="182.012" y2="57.722" gradientTransform="translate(248.676 -135.571) rotate(89.582)" xlink:href="#_規グラデーションスウォッチ_4"/>
    <linearGradient id="_規グラデーションスウォッチ_4-90" data-name="新規グラデーションスウォッチ 4" x1="174.213" y1="57.722" x2="181.779" y2="57.722" gradientTransform="translate(248.678 -135.57) rotate(89.583)" xlink:href="#_規グラデーションスウォッチ_4"/>
    <linearGradient id="_規グラデーションスウォッチ_4-91" data-name="新規グラデーションスウォッチ 4" x1="174.446" y1="57.722" x2="181.546" y2="57.722" gradientTransform="translate(248.681 -135.57) rotate(89.584)" xlink:href="#_規グラデーションスウォッチ_4"/>
    <linearGradient id="_規グラデーションスウォッチ_4-92" data-name="新規グラデーションスウォッチ 4" x1="174.679" y1="57.722" x2="181.313" y2="57.722" gradientTransform="translate(248.683 -135.569) rotate(89.585)" xlink:href="#_規グラデーションスウォッチ_4"/>
    <linearGradient id="_規グラデーションスウォッチ_4-93" data-name="新規グラデーションスウォッチ 4" x1="174.912" y1="57.722" x2="181.08" y2="57.722" gradientTransform="translate(248.685 -135.568) rotate(89.585)" xlink:href="#_規グラデーションスウォッチ_4"/>
    <linearGradient id="_規グラデーションスウォッチ_4-94" data-name="新規グラデーションスウォッチ 4" x1="175.145" y1="57.722" x2="180.847" y2="57.722" gradientTransform="translate(248.687 -135.567) rotate(89.586)" xlink:href="#_規グラデーションスウォッチ_4"/>
    <linearGradient id="_規グラデーションスウォッチ_4-95" data-name="新規グラデーションスウォッチ 4" x1="175.378" y1="57.722" x2="180.615" y2="57.722" gradientTransform="translate(248.689 -135.567) rotate(89.587)" xlink:href="#_規グラデーションスウォッチ_4"/>
    <linearGradient id="_規グラデーションスウォッチ_4-96" data-name="新規グラデーションスウォッチ 4" x1="175.611" y1="57.722" x2="180.382" y2="57.722" gradientTransform="translate(248.691 -135.566) rotate(89.587)" xlink:href="#_規グラデーションスウォッチ_4"/>
    <linearGradient id="_規グラデーションスウォッチ_4-97" data-name="新規グラデーションスウォッチ 4" x1="139.863" y1="42.841" x2="149.75" y2="42.841" xlink:href="#_規グラデーションスウォッチ_4"/>
    <linearGradient id="_規グラデーションスウォッチ_4-98" data-name="新規グラデーションスウォッチ 4" x1="140.097" y1="42.841" x2="149.517" y2="42.841" xlink:href="#_規グラデーションスウォッチ_4"/>
    <linearGradient id="_規グラデーションスウォッチ_4-99" data-name="新規グラデーションスウォッチ 4" x1="140.331" y1="42.841" x2="149.283" y2="42.841" xlink:href="#_規グラデーションスウォッチ_4"/>
    <linearGradient id="_規グラデーションスウォッチ_4-100" data-name="新規グラデーションスウォッチ 4" x1="140.565" y1="42.841" x2="149.049" y2="42.841" xlink:href="#_規グラデーションスウォッチ_4"/>
    <linearGradient id="_規グラデーションスウォッチ_4-101" data-name="新規グラデーションスウォッチ 4" x1="140.798" y1="42.841" x2="148.816" y2="42.841" xlink:href="#_規グラデーションスウォッチ_4"/>
    <linearGradient id="_規グラデーションスウォッチ_4-102" data-name="新規グラデーションスウォッチ 4" x1="141.032" y1="42.841" x2="148.582" y2="42.841" xlink:href="#_規グラデーションスウォッチ_4"/>
    <linearGradient id="_規グラデーションスウォッチ_4-103" data-name="新規グラデーションスウォッチ 4" x1="141.266" y1="42.841" x2="148.348" y2="42.841" xlink:href="#_規グラデーションスウォッチ_4"/>
    <linearGradient id="_規グラデーションスウォッチ_4-104" data-name="新規グラデーションスウォッチ 4" x1="141.499" y1="42.841" x2="148.115" y2="42.841" xlink:href="#_規グラデーションスウォッチ_4"/>
    <linearGradient id="_規グラデーションスウォッチ_4-105" data-name="新規グラデーションスウォッチ 4" x1="141.733" y1="42.841" x2="147.881" y2="42.841" xlink:href="#_規グラデーションスウォッチ_4"/>
    <linearGradient id="_規グラデーションスウォッチ_4-106" data-name="新規グラデーションスウォッチ 4" x1="141.967" y1="42.841" x2="147.647" y2="42.841" xlink:href="#_規グラデーションスウォッチ_4"/>
    <linearGradient id="_規グラデーションスウォッチ_4-107" data-name="新規グラデーションスウォッチ 4" x1="142.2" y1="42.841" x2="147.414" y2="42.841" xlink:href="#_規グラデーションスウォッチ_4"/>
    <linearGradient id="_規グラデーションスウォッチ_4-108" data-name="新規グラデーションスウォッチ 4" x1="142.434" y1="42.841" x2="147.18" y2="42.841" xlink:href="#_規グラデーションスウォッチ_4"/>
    <linearGradient id="_規グラデーションスウォッチ_4-109" data-name="新規グラデーションスウォッチ 4" x1="138.365" y1="29.617" x2="148.261" y2="29.617" gradientTransform="translate(-13.962 12.268) rotate(.383)" xlink:href="#_規グラデーションスウォッチ_4"/>
    <linearGradient id="_規グラデーションスウォッチ_4-110" data-name="新規グラデーションスウォッチ 4" x1="138.598" y1="29.617" x2="148.028" y2="29.617" gradientTransform="translate(-13.963 12.27) rotate(.382)" xlink:href="#_規グラデーションスウォッチ_4"/>
    <linearGradient id="_規グラデーションスウォッチ_4-111" data-name="新規グラデーションスウォッチ 4" x1="138.831" y1="29.617" x2="147.794" y2="29.617" gradientTransform="translate(-13.963 12.271) rotate(.381)" xlink:href="#_規グラデーションスウォッチ_4"/>
    <linearGradient id="_規グラデーションスウォッチ_4-112" data-name="新規グラデーションスウォッチ 4" x1="139.065" y1="29.617" x2="147.561" y2="29.617" gradientTransform="translate(-13.963 12.273) rotate(.38)" xlink:href="#_規グラデーションスウォッチ_4"/>
    <linearGradient id="_規グラデーションスウォッチ_4-113" data-name="新規グラデーションスウォッチ 4" x1="139.298" y1="29.617" x2="147.328" y2="29.617" gradientTransform="translate(-13.964 12.275) rotate(.38)" xlink:href="#_規グラデーションスウォッチ_4"/>
    <linearGradient id="_規グラデーションスウォッチ_4-114" data-name="新規グラデーションスウォッチ 4" x1="139.531" y1="29.617" x2="147.095" y2="29.617" gradientTransform="translate(-13.964 12.277) rotate(.379)" xlink:href="#_規グラデーションスウォッチ_4"/>
    <linearGradient id="_規グラデーションスウォッチ_4-115" data-name="新規グラデーションスウォッチ 4" x1="139.764" y1="29.617" x2="146.861" y2="29.617" gradientTransform="translate(-13.965 12.279) rotate(.378)" xlink:href="#_規グラデーションスウォッチ_4"/>
    <linearGradient id="_規グラデーションスウォッチ_4-116" data-name="新規グラデーションスウォッチ 4" x1="139.998" y1="29.617" x2="146.628" y2="29.617" gradientTransform="translate(-13.965 12.28) rotate(.378)" xlink:href="#_規グラデーションスウォッチ_4"/>
    <linearGradient id="_規グラデーションスウォッチ_4-117" data-name="新規グラデーションスウォッチ 4" x1="140.231" y1="29.617" x2="146.395" y2="29.617" gradientTransform="translate(-13.965 12.282) rotate(.377)" xlink:href="#_規グラデーションスウォッチ_4"/>
    <linearGradient id="_規グラデーションスウォッチ_4-118" data-name="新規グラデーションスウォッチ 4" x1="140.464" y1="29.617" x2="146.162" y2="29.617" gradientTransform="translate(-13.966 12.283) rotate(.376)" xlink:href="#_規グラデーションスウォッチ_4"/>
    <linearGradient id="_規グラデーションスウォッチ_4-119" data-name="新規グラデーションスウォッチ 4" x1="140.697" y1="29.617" x2="145.929" y2="29.617" gradientTransform="translate(-13.966 12.285) rotate(.376)" xlink:href="#_規グラデーションスウォッチ_4"/>
    <linearGradient id="_規グラデーションスウォッチ_4-120" data-name="新規グラデーションスウォッチ 4" x1="140.929" y1="29.617" x2="145.696" y2="29.617" gradientTransform="translate(-13.966 12.286) rotate(.375)" xlink:href="#_規グラデーションスウォッチ_4"/>
    <linearGradient id="_称未設定グラデーション_49-3" data-name="名称未設定グラデーション 49" x1="698.51" y1="177.924" x2="698.51" y2="1.166" gradientTransform="translate(-449.909)" xlink:href="#_称未設定グラデーション_49"/>
    <linearGradient id="_称未設定グラデーション_49-4" data-name="名称未設定グラデーション 49" x1="765.353" y1="177.402" x2="765.353" y2=".735" gradientTransform="translate(829.934) rotate(-180) scale(1 -1)" xlink:href="#_称未設定グラデーション_49"/>
  </defs>
  <g>
    <g>
      <rect class="cls-33" x="317.534" y="2.061" width="308.951" height="238.536"/>
      <path class="cls-19" d="M383.741,157.046c.853-.213,34.563-19.841,66.992-19.841s70.832,22.615,70.832,22.615l2.347-94.087s-144.864,.213-144.864,1.067,4.694,90.247,4.694,90.247Z"/>
      <path class="cls-12" d="M353.422,1.739c.588,38.433,6.293,90.862,21.891,99.063,20.695,10.881,29.229-8.747,29.229-8.747,0,0-3.236-8.618,.396-8.702,2.723-.063,4.932,3.968,5.527,4.827s4.852,8.525,6.608,8.381c1.627-.133,2.473-3.574,3.438-4.657,1.214-1.362,2.476-5.303,4.672-5.823,1.038-.246,2.027,.4,3.029,1.939,0,0,1.343,2.601,3.158,2.541,2.4-.08,3.212-2.027,3.686-3.12s1.351-3.223,3.327-3.227c2.24-.004,3.094,2.907,3.254,3.227,.16,.32,1.068,3.242,3.6,3.334,2.96,.107,3.787-2.72,4.107-3.547s1.173-3.048,3.174-3.017,2.921,1.921,3.787,3.284c.552,.869,1.334,2.476,2.747,2.534,1.973,.08,2.827-2.347,3.147-2.96,.32-.613,1.28-2.48,2.987-2.48s2.8,1.2,3.494,2.88c.392,.949,1.253,3.494,3.974,3.387,2.72-.107,2.877-1.948,3.014-2.48,.293-1.147,.853-2.396,2.156-2.503,3.776-.309,4.193,6.523,7.521,7.628,3.749,1.245,9.712,.037,10.163,.527l1.097-15.528s3.966-6.012,11.578-3.173c22.068,8.232,29.899-28.621,39.978-73.587"/>
      <g class="cls-144">
        <ellipse class="cls-43" cx="453.385" cy="45.331" rx="4.719" ry="42.27"/>
        <ellipse class="cls-21" cx="453.385" cy="45.331" rx="4.496" ry="41.815"/>
        <ellipse class="cls-125" cx="453.385" cy="45.331" rx="4.273" ry="41.359"/>
        <ellipse class="cls-133" cx="453.385" cy="45.331" rx="4.05" ry="40.904"/>
        <ellipse class="cls-103" cx="453.385" cy="45.331" rx="3.827" ry="40.449"/>
        <ellipse class="cls-83" cx="453.385" cy="45.331" rx="3.604" ry="39.994"/>
        <ellipse class="cls-113" cx="453.385" cy="45.331" rx="3.381" ry="39.539"/>
        <ellipse class="cls-93" cx="453.385" cy="45.331" rx="3.158" ry="39.083"/>
        <ellipse class="cls-73" cx="453.385" cy="45.331" rx="2.935" ry="38.628"/>
        <ellipse class="cls-53" cx="453.385" cy="45.331" rx="2.712" ry="38.173"/>
        <ellipse class="cls-60" cx="453.385" cy="45.331" rx="2.488" ry="37.718"/>
        <ellipse class="cls-137" cx="453.385" cy="45.331" rx="2.265" ry="37.263"/>
      </g>
      <g class="cls-144">
        <ellipse class="cls-41" cx="467.168" cy="44.331" rx="4.719" ry="42.27"/>
        <ellipse class="cls-23" cx="467.168" cy="44.331" rx="4.496" ry="41.815"/>
        <ellipse class="cls-122" cx="467.168" cy="44.331" rx="4.273" ry="41.359"/>
        <ellipse class="cls-131" cx="467.168" cy="44.331" rx="4.05" ry="40.904"/>
        <ellipse class="cls-102" cx="467.168" cy="44.331" rx="3.827" ry="40.449"/>
        <ellipse class="cls-82" cx="467.168" cy="44.331" rx="3.604" ry="39.994"/>
        <ellipse class="cls-106" cx="467.168" cy="44.331" rx="3.381" ry="39.539"/>
        <ellipse class="cls-92" cx="467.168" cy="44.331" rx="3.158" ry="39.083"/>
        <ellipse class="cls-72" cx="467.168" cy="44.331" rx="2.935" ry="38.628"/>
        <ellipse class="cls-52" cx="467.168" cy="44.331" rx="2.712" ry="38.173"/>
        <ellipse class="cls-59" cx="467.168" cy="44.331" rx="2.488" ry="37.718"/>
        <ellipse class="cls-136" cx="467.168" cy="44.331" rx="2.265" ry="37.263"/>
      </g>
      <g class="cls-144">
        <ellipse class="cls-40" cx="484.6" cy="44.331" rx="42.27" ry="4.719" transform="translate(394.394 522.52) rotate(-84.544)"/>
        <ellipse class="cls-22" cx="484.6" cy="44.331" rx="41.815" ry="4.496" transform="translate(394.394 522.52) rotate(-84.544)"/>
        <ellipse class="cls-123" cx="484.6" cy="44.331" rx="41.359" ry="4.273" transform="translate(394.394 522.52) rotate(-84.544)"/>
        <ellipse class="cls-132" cx="484.6" cy="44.331" rx="40.904" ry="4.05" transform="translate(394.394 522.52) rotate(-84.544)"/>
        <ellipse class="cls-101" cx="484.6" cy="44.331" rx="40.449" ry="3.827" transform="translate(394.394 522.52) rotate(-84.544)"/>
        <ellipse class="cls-78" cx="484.6" cy="44.331" rx="39.994" ry="3.604" transform="translate(394.394 522.52) rotate(-84.544)"/>
        <ellipse class="cls-110" cx="484.6" cy="44.331" rx="39.539" ry="3.381" transform="translate(394.394 522.52) rotate(-84.544)"/>
        <ellipse class="cls-89" cx="484.6" cy="44.331" rx="39.083" ry="3.158" transform="translate(394.394 522.52) rotate(-84.544)"/>
        <ellipse class="cls-69" cx="484.6" cy="44.331" rx="38.628" ry="2.935" transform="translate(394.394 522.52) rotate(-84.544)"/>
        <ellipse class="cls-51" cx="484.6" cy="44.331" rx="38.173" ry="2.712" transform="translate(394.394 522.52) rotate(-84.544)"/>
        <ellipse class="cls-56" cx="484.6" cy="44.331" rx="37.718" ry="2.488" transform="translate(394.394 522.52) rotate(-84.544)"/>
        <ellipse class="cls-138" cx="484.6" cy="44.331" rx="37.263" ry="2.265" transform="translate(394.394 522.52) rotate(-84.544)"/>
      </g>
      <g class="cls-144">
        <ellipse class="cls-35" cx="439.304" cy="44.331" rx="4.719" ry="42.27"/>
        <ellipse class="cls-25" cx="439.304" cy="44.331" rx="4.496" ry="41.815"/>
        <ellipse class="cls-119" cx="439.304" cy="44.331" rx="4.273" ry="41.359"/>
        <ellipse class="cls-127" cx="439.304" cy="44.331" rx="4.05" ry="40.904"/>
        <ellipse class="cls-96" cx="439.304" cy="44.331" rx="3.827" ry="40.449"/>
        <ellipse class="cls-76" cx="439.304" cy="44.331" rx="3.604" ry="39.994"/>
        <ellipse class="cls-109" cx="439.304" cy="44.331" rx="3.381" ry="39.539"/>
        <ellipse class="cls-88" cx="439.304" cy="44.331" rx="3.158" ry="39.083"/>
        <ellipse class="cls-68" cx="439.304" cy="44.331" rx="2.935" ry="38.628"/>
        <ellipse class="cls-50" cx="439.304" cy="44.331" rx="2.712" ry="38.173"/>
        <ellipse class="cls-57" cx="439.304" cy="44.331" rx="2.488" ry="37.718"/>
        <ellipse class="cls-140" cx="439.304" cy="44.331" rx="2.265" ry="37.263"/>
      </g>
      <g class="cls-144">
        <ellipse class="cls-36" cx="424.356" cy="44.331" rx="4.719" ry="42.27" transform="translate(-2.243 36.822) rotate(-4.955)"/>
        <ellipse class="cls-26" cx="424.356" cy="44.331" rx="4.496" ry="41.815" transform="translate(-2.243 36.822) rotate(-4.955)"/>
        <ellipse class="cls-118" cx="424.356" cy="44.331" rx="4.273" ry="41.359" transform="translate(-2.243 36.822) rotate(-4.955)"/>
        <ellipse class="cls-129" cx="424.356" cy="44.331" rx="4.05" ry="40.904" transform="translate(-2.243 36.822) rotate(-4.955)"/>
        <ellipse class="cls-99" cx="424.356" cy="44.331" rx="3.827" ry="40.449" transform="translate(-2.243 36.822) rotate(-4.955)"/>
        <ellipse class="cls-80" cx="424.356" cy="44.331" rx="3.604" ry="39.994" transform="translate(-2.243 36.822) rotate(-4.955)"/>
        <ellipse class="cls-112" cx="424.356" cy="44.331" rx="3.381" ry="39.539" transform="translate(-2.243 36.822) rotate(-4.955)"/>
        <ellipse class="cls-91" cx="424.356" cy="44.331" rx="3.158" ry="39.083" transform="translate(-2.243 36.822) rotate(-4.955)"/>
        <ellipse class="cls-71" cx="424.356" cy="44.331" rx="2.935" ry="38.628" transform="translate(-2.243 36.822) rotate(-4.955)"/>
        <ellipse class="cls-49" cx="424.356" cy="44.331" rx="2.712" ry="38.173" transform="translate(-2.243 36.822) rotate(-4.955)"/>
        <ellipse class="cls-58" cx="424.356" cy="44.331" rx="2.488" ry="37.718" transform="translate(-2.243 36.822) rotate(-4.955)"/>
        <ellipse class="cls-139" cx="424.356" cy="44.331" rx="2.265" ry="37.263" transform="translate(-2.243 36.822) rotate(-4.955)"/>
      </g>
      <path class="cls-15" d="M386.376,2.061c9.446,15.34,15.408,21.597,17.278,24.534,1.991,3.129,17.129,18.258,15.705,42.47-.453,7.705-3.077,12.425-3.077,12.425,0,0-4.811,9.689-1.431,10.19,1.595,.236,3.007-.501,3.007-.501,0,0,3.073-2.258,4.424-1.289,1.481,1.062,2.046,1.992-.289,8.463-.522,1.447,17.311,2.199,25.476,22.419,3.811,9.437,1.196,23.101-3.293,28.524-7.123,8.605-16.562,10.982-30.051,6.658-3.996-1.281-8.95,1.99-8.95,1.99-3.477,4.38-26.128,17.574-48.54,16.95-10.832-.302-23.7,1.26-39.101-.491V1.173s68.227-.111,68.842,.888Z"/>
      <path class="cls-10" d="M386.376,2.061c9.446,15.34,15.408,21.597,17.278,24.534,1.991,3.129,17.129,18.258,15.705,42.47-.453,7.705-3.077,12.425-3.077,12.425,0,0-4.811,9.689-1.431,10.19,1.595,.236,3.007-.501,3.007-.501,0,0,3.073-2.258,4.424-1.289,1.481,1.062,2.046,1.992-.289,8.463-.522,1.447,17.311,2.199,25.476,22.419,3.811,9.437,1.196,23.101-3.293,28.524-7.123,8.605-16.562,10.982-30.051,6.658-3.996-1.281-8.95,1.99-8.95,1.99-3.477,4.38-26.128,15.784-48.54,16.95-10.822,.563-23.7,1.26-39.101-.491V1.173l68.842,.888Z"/>
    </g>
    <g>
      <path class="cls-3" d="M413.879,101.451c-7.066-3.114-15.109-20.29-17.422-31.261-1.819-8.627-2.014-16.217-3.07-26.305-1.021-9.758-.037-12.143-2.8-18.711-2.003-4.762-9.089-13.531-14.62-24.285"/>
      <path class="cls-3" d="M413.879,101.451c-.1-3.03-8.765-5.547-1.239-20.936,5.229-10.692,3.057-25.497-2.045-37.478-2.072-4.866-6.426-11.501-12.724-18.199-5.005-5.323-12.145-13.744-17.654-23.666"/>
      <path class="cls-3" d="M391.069,26.513l8.299,13.702-1.032,6.019,.403,6.717-.011,4.49,3.347,4.298s-4.631,5.261-5.207,10.342"/>
      <line class="cls-3" x1="397.87" y1="24.839" x2="396.37" y2="35.814"/>
      <path class="cls-3" d="M403.729,31.008l-4.361,9.207,3.388,9.168s-.152,5.963,1.347,10.804c0,0-.832,6.417,2.711,11.399l1.093,5.677-3.561,7.403"/>
      <line class="cls-3" x1="394.369" y1="50.188" x2="398.335" y2="46.234"/>
      <path class="cls-3" d="M409.127,40.439s-.233,5.391-1.221,6.581-2.745,1.525-2.745,1.525l-2.405,.84-1.245,2.531-2.773,1.037s-2.689,.947-4.156,4.082"/>
      <path class="cls-3" d="M411.96,47.207s-3.753,2.717-3.424,5.852c.329,3.135,5.345,7.516,7.257,8.919"/>
      <path class="cls-3" d="M405.161,48.544s-.707,4.171,3.352,3.37"/>
      <path class="cls-3" d="M405.812,51.366s1.049,5.983-2.732,9.659c0,0-3.436,1.892-2.777,4.801,.659,2.909,4.063,5.179,7.603,4.53,3.541-.649,7.888,.841,7.888,.841"/>
      <path class="cls-3" d="M413.141,59.744s-5.358-4.013-8.028-3.295"/>
      <path class="cls-3" d="M415.794,61.978c-.703,.625-4.751,4.902-3.639,8.82"/>
      <path class="cls-3" d="M404.103,60.188s3.772,7.221,8.426,6.528"/>
      <path class="cls-3" d="M398.728,57.441s-2.098,2.082-2.99,8.916"/>
      <path class="cls-3" d="M398.325,76.929s4.416-7.162,5.653-7.013l.546,21.879"/>
      <line class="cls-3" x1="412.529" y1="79.506" x2="407.906" y2="77.263"/>
    </g>
    <g id="_2" data-name="02">
      <g>
        <path class="cls-5" d="M412.626,99.079c3.28,5.009,18.318,3.62,26.794,17.045,5.012,7.939,7.781,19.98-1.289,31.288-4.678,5.832-11.259,8.775-24.28,1.074-6.753-3.994-23.079,11.581-43.014,12.371-12.368,.49-23.53-2.257-26.385-3.213"/>
        <path class="cls-5" d="M344.453,154.599c17.771,4.612,31.589,1.225,38.321-.654,21.014-5.865,40.163-33.046,29.852-54.866"/>
        <path class="cls-4" d="M415.17,100.992c.144,1.052,10.873,3.331,2.947,11.924"/>
        <path class="cls-4" d="M432.597,107.255s-1.73,17.318-13.107-4.182"/>
        <path class="cls-4" d="M416.441,111.351c14.039,16.565,15.252,10.661,14.039,16.565-1.669,8.129-7.368,17.771-16.355,20.025"/>
        <path class="cls-4" d="M414.798,124.977s9.462-4.137,15.682,2.938l-2.991-12.611s6.183,1.202,12.941,2.529"/>
        <path class="cls-5" d="M415.17,125.601s8.816,4.472,10.245,14.019"/>
        <path class="cls-5" d="M430.48,127.916s6.927,4.763,13.696,3.436"/>
        <path class="cls-4" d="M427.538,140.681s8.169,2.811,12.783,4.98"/>
        <path class="cls-4" d="M407.055,137.127s12.434,5.768,20.483,3.554c0,0,3.344,10.958,.532,11.964"/>
        <path class="cls-5" d="M430.48,127.916s10.768,13.211,9.84,17.746"/>
        <path class="cls-4" d="M394.162,145.28s17.061,.246,19.963,2.661"/>
      </g>
      <ellipse class="cls-31" cx="443.246" cy="131.916" rx="3.287" ry="4.911" transform="translate(-6.93 26.037) rotate(-3.339)"/>
      <ellipse class="cls-31" cx="423.708" cy="103.947" rx="2.813" ry="4.506" transform="translate(248.857 503.647) rotate(-80.157)"/>
      <ellipse class="cls-31" cx="432.338" cy="108.99" rx="2.659" ry="4.138" transform="translate(66.765 364.237) rotate(-49.072)"/>
      <ellipse class="cls-31" cx="395.334" cy="145.967" rx="5.526" ry="3.8" transform="translate(-25.84 131.543) rotate(-18.304)"/>
      <ellipse class="cls-31" cx="439.357" cy="144.886" rx="5.11" ry="3.623" transform="translate(122.991 482.435) rotate(-65.106)"/>
      <ellipse class="cls-31" cx="440.351" cy="118.824" rx="3.085" ry="4.704" transform="translate(-7.656 204.37) rotate(-25.911)"/>
      <ellipse class="cls-31" cx="427.49" cy="115.304" rx="3.057" ry="4.563" transform="translate(43.677 336.053) rotate(-45)"/>
      <ellipse class="cls-31" cx="416.441" cy="111.351" rx="3.428" ry="5.095" transform="translate(-14.184 91.753) rotate(-12.364)"/>
      <ellipse class="cls-31" cx="429.314" cy="151.668" rx="4.674" ry="3.65" transform="translate(-24.511 114.836) rotate(-14.817)"/>
      <ellipse class="cls-31" cx="415.17" cy="125.601" rx="5.194" ry="4.056" transform="translate(25.215 315.541) rotate(-42.802)"/>
      <ellipse class="cls-31" cx="426.214" cy="140.334" rx="5.662" ry="4.534" transform="translate(79.935 425.715) rotate(-57.718)"/>
      <ellipse class="cls-31" cx="407.923" cy="136.204" rx="4.416" ry="3.55" transform="translate(-9.422 240.011) rotate(-32.432)"/>
      <ellipse class="cls-31" cx="430.48" cy="127.345" rx="4.112" ry="5.981" transform="translate(-10.133 41.378) rotate(-5.439)"/>
      <ellipse class="cls-31" cx="414.125" cy="100.553" rx="2.839" ry="4.764" transform="translate(27.986 280.849) rotate(-38.677)"/>
      <ellipse class="cls-31" cx="412.046" cy="147.412" rx="3.87" ry="5.913" transform="translate(225.564 543.313) rotate(-84.463)"/>
    </g>
    <g>
      <path class="cls-16" d="M517.326,1.236c-9.739,15.942-15.881,22.37-17.784,25.359-1.991,3.129-17.129,18.258-15.705,42.47,.453,7.705,3.077,12.425,3.077,12.425,0,0,4.811,9.689,1.431,10.19-1.595,.236-3.007-.501-3.007-.501,0,0-3.073-2.258-4.424-1.289-1.481,1.062-2.046,1.992,.289,8.463,.522,1.447,1.645,11.794,1.929,20.328,.285,8.534,1.7,9.845,4.118,13.259,2.418,3.414,2.924,11.564,3.597,14.938,1.584,7.935,3.411,26.384,15.066,40.601,8.614,10.507,31.402,15.731,42.666,9.297,19.774-11.295,9.481-21.881,35.117-20.945,12.969,.473,27.358-2.108,42.79-7.014V1.173s-108.705-.679-109.159,.063Z"/>
      <path class="cls-11" d="M517.326,1.236c-9.739,15.942-15.881,22.37-17.784,25.359-1.991,3.129-17.129,18.258-15.705,42.47,.453,7.705,3.077,12.425,3.077,12.425,0,0,4.811,9.689,1.431,10.19-1.595,.236-3.007-.501-3.007-.501,0,0-3.073-2.258-4.424-1.289-1.481,1.062-2.046,1.992,.289,8.463,.522,1.447,1.645,11.794,1.929,20.328,.285,8.534,1.7,9.845,4.118,13.259,2.418,3.414,2.924,11.564,3.597,14.938,1.584,7.935,3.411,26.384,15.066,40.601,8.614,10.507,31.402,15.731,42.666,9.297,19.774-11.295,9.481-21.881,35.117-20.945,12.969,.473,27.358-2.108,42.79-7.014V1.173s-108.705-.679-109.159,.063Z"/>
    </g>
    <g>
      <path class="cls-3" d="M495.497,104.216c.139-8.206,9.237-23.054,11.55-34.025,1.819-8.627,2.014-16.217,3.07-26.305,1.021-9.758,.037-12.143,2.8-18.711,1.95-4.636,8.717-13.07,14.177-23.435"/>
      <path class="cls-3" d="M495.598,101.168c.165-3.027,2.793-5.264-4.733-20.652-5.229-10.692-3.057-25.497,2.045-37.478,2.072-4.866,6.426-11.501,12.724-18.199,5.005-5.323,12.145-13.743,17.653-23.665"/>
      <path class="cls-3" d="M512.435,26.513l-8.299,13.702,1.032,6.019-.403,6.717,.011,4.49-3.347,4.298s4.631,5.261,5.207,10.342"/>
      <line class="cls-3" x1="505.634" y1="24.839" x2="507.134" y2="35.814"/>
      <path class="cls-3" d="M499.775,31.008l4.361,9.207-3.388,9.168s.152,5.963-1.347,10.804c0,0,.832,6.417-2.711,11.399l-1.093,5.677,3.561,7.403"/>
      <line class="cls-3" x1="509.135" y1="50.188" x2="505.168" y2="46.234"/>
      <path class="cls-3" d="M494.376,40.439s.233,5.391,1.221,6.581,2.745,1.525,2.745,1.525l2.405,.84,1.245,2.531,2.773,1.037s2.689,.947,4.156,4.082"/>
      <path class="cls-3" d="M491.543,47.207s3.753,2.717,3.424,5.852c-.329,3.135-5.345,7.516-7.257,8.919"/>
      <path class="cls-3" d="M498.343,48.544s.707,4.171-3.352,3.37"/>
      <path class="cls-3" d="M497.692,51.366s-1.049,5.983,2.732,9.659c0,0,3.436,1.892,2.777,4.801-.659,2.909-4.063,5.179-7.603,4.53s-7.888,.841-7.888,.841"/>
      <path class="cls-3" d="M490.362,59.744s5.358-4.013,8.028-3.295"/>
      <path class="cls-3" d="M487.71,61.978c.703,.625,4.751,4.902,3.639,8.82"/>
      <path class="cls-3" d="M499.401,60.188s-3.772,7.221-8.426,6.528"/>
      <path class="cls-3" d="M504.776,57.441s2.098,2.082,2.99,8.916"/>
      <path class="cls-3" d="M505.179,76.929s-4.416-7.162-5.653-7.013l-.546,21.879"/>
      <line class="cls-3" x1="490.975" y1="79.506" x2="495.598" y2="77.263"/>
    </g>
    <g>
      <path class="cls-31" d="M552.747,189.276c-2.954,6.042-14.793,9.876-29.043,5.832s-21.7-13.437-20.726-20.092c1.082-7.394,14.348-8.362,29.125-4.393,15.137,4.066,24.035,11.718,20.644,18.652Z"/>
      <g>
        <path class="cls-2" d="M495.598,101.168c-.217,3.044-4.057,28.082-2.736,35.895,.544,3.216,5.656,42.39,19.573,47.597,6.852,2.563,26.528,14.957,39.357-.084,6.271-7.352,4.511-21.085,5.762-25.906,2.392-9.213,23.267-17.975,23.267-17.975"/>
        <path class="cls-2" d="M579.082,135.54s-18.459,7.341-33.438,12.444c-12.171,4.147-25.083,7.439-31.907,5.749-15.222-3.769-21.021-10.87-20.756-26.53"/>
        <path class="cls-2" d="M543.094,153.165c13.591-1.098,25.259-5.853,25.259-5.853"/>
        <path class="cls-2" d="M558.007,143.587s-13.521,7.295-17.523,10.6c-5.226,4.316-8.56,19.543-8.56,19.543,0,0,19.428-6.66,24.562-2.418"/>
        <path class="cls-2" d="M522.725,169.851s3.624-7.526,0-15.983c.128,.852,9.841,8.587,10.909,13.421"/>
        <path class="cls-2" d="M536.027,151.302s1.791,5.813,0,9.427"/>
        <path class="cls-2" d="M535.197,162.89s9.949-6.846,20.526,.766"/>
        <path class="cls-2" d="M499.82,147.312c-.145,1.058,3.793,6.876,5.831,8.941"/>
        <path class="cls-2" d="M496.192,151.302s9.181,3.144,11.565,7.024"/>
        <path class="cls-2" d="M507.15,152.067s-.516,4.763,1.513,6.26c2.03,1.496,7.017,7.728,6.487,12.985"/>
        <line class="cls-2" x1="499.059" y1="161.385" x2="508.664" y2="158.326"/>
        <line class="cls-2" x1="500.417" y1="166.324" x2="511.408" y2="162.325"/>
        <path class="cls-2" d="M511.408,160.225s4.359-3.204,6.099-3.108c1.74,.096,6.234,6.538,6.234,6.538"/>
        <line class="cls-2" x1="513.737" y1="153.734" x2="517.507" y2="157.117"/>
      </g>
    </g>
  </g>
  <rect class="cls-6" x="317.534" y="1.173" width="308.951" height="239.425"/>
  <g>
    <g id="_1" data-name="01">
      <g>
        <rect class="cls-33" x="2.203" y="1.173" width="308.476" height="238.425"/>
        <path class="cls-13" d="M86.606,157.724c.894-.223,36.203-20.783,70.172-20.783s74.194,23.689,74.194,23.689l2.458-98.553s-151.741,.223-151.741,1.117,4.916,94.531,4.916,94.531Z"/>
        <path class="cls-14" d="M54.848,1.861c.616,40.257,6.592,88.358,22.931,96.949,21.677,11.397,30.616-9.163,30.616-9.163,0,0-3.39-9.027,.415-9.115,2.853-.066,5.166,4.156,5.79,5.056s5.082,8.929,6.921,8.779c1.704-.14,2.59-3.744,3.602-4.878,1.272-1.426,2.593-5.554,4.894-6.099,1.087-.257,2.123,.419,3.173,2.032,0,0,1.406,2.725,3.308,2.661,2.514-.084,3.365-2.123,3.861-3.268s1.415-3.376,3.485-3.38c2.347-.004,3.24,3.045,3.408,3.38,.168,.335,1.119,3.396,3.771,3.492,3.101,.112,3.967-2.849,4.302-3.715s1.229-3.192,3.324-3.16,3.06,2.012,3.967,3.44c.578,.91,1.397,2.594,2.877,2.654,2.067,.084,2.961-2.458,3.296-3.101,.335-.642,1.341-2.598,3.129-2.598s2.933,1.257,3.659,3.017c.41,.994,1.313,3.659,4.162,3.548,2.849-.112,3.014-2.04,3.157-2.598,.307-1.201,.894-2.51,2.258-2.622,3.955-.323,4.393,6.833,7.878,7.991,3.927,1.304,10.173,.039,10.646,.552l1.149-16.265s4.154-6.298,12.128-3.324c23.116,8.622,31.318-23.163,41.876-70.263"/>
        <g class="cls-144">
          <ellipse class="cls-34" cx="159.556" cy="43.815" rx="4.943" ry="41.167"/>
          <ellipse class="cls-24" cx="159.556" cy="43.815" rx="4.71" ry="40.724"/>
          <ellipse class="cls-117" cx="159.556" cy="43.815" rx="4.476" ry="40.28"/>
          <ellipse class="cls-128" cx="159.556" cy="43.815" rx="4.242" ry="39.837"/>
          <ellipse class="cls-98" cx="159.556" cy="43.815" rx="4.009" ry="39.394"/>
          <ellipse class="cls-79" cx="159.556" cy="43.815" rx="3.775" ry="38.95"/>
          <ellipse class="cls-111" cx="159.556" cy="43.815" rx="3.541" ry="38.507"/>
          <ellipse class="cls-90" cx="159.556" cy="43.815" rx="3.308" ry="38.064"/>
          <ellipse class="cls-70" cx="159.556" cy="43.815" rx="3.074" ry="37.62"/>
          <ellipse class="cls-48" cx="159.556" cy="43.815" rx="2.84" ry="37.177"/>
          <ellipse class="cls-63" cx="159.556" cy="43.815" rx="2.607" ry="36.734"/>
          <ellipse class="cls-141" cx="159.556" cy="43.815" rx="2.373" ry="36.29"/>
        </g>
        <g class="cls-144">
          <ellipse class="cls-39" cx="173.993" cy="42.841" rx="4.943" ry="41.167"/>
          <ellipse class="cls-29" cx="173.993" cy="42.841" rx="4.71" ry="40.724"/>
          <ellipse class="cls-116" cx="173.993" cy="42.841" rx="4.476" ry="40.28"/>
          <ellipse class="cls-126" cx="173.993" cy="42.841" rx="4.242" ry="39.837"/>
          <ellipse class="cls-97" cx="173.993" cy="42.841" rx="4.009" ry="39.394"/>
          <ellipse class="cls-77" cx="173.993" cy="42.841" rx="3.775" ry="38.95"/>
          <ellipse class="cls-108" cx="173.993" cy="42.841" rx="3.541" ry="38.507"/>
          <ellipse class="cls-86" cx="173.993" cy="42.841" rx="3.308" ry="38.064"/>
          <ellipse class="cls-66" cx="173.993" cy="42.841" rx="3.074" ry="37.62"/>
          <ellipse class="cls-46" cx="173.993" cy="42.841" rx="2.84" ry="37.177"/>
          <ellipse class="cls-61" cx="173.993" cy="42.841" rx="2.607" ry="36.734"/>
          <ellipse class="cls-143" cx="173.993" cy="42.841" rx="2.373" ry="36.29"/>
        </g>
        <g class="cls-144">
          <ellipse class="cls-37" cx="192.253" cy="42.841" rx="41.196" ry="4.94" transform="translate(129.952 229.697) rotate(-84.123)"/>
          <ellipse class="cls-27" cx="192.253" cy="42.841" rx="40.753" ry="4.706" transform="translate(129.955 229.698) rotate(-84.124)"/>
          <ellipse class="cls-121" cx="192.253" cy="42.841" rx="40.309" ry="4.473" transform="translate(129.958 229.699) rotate(-84.125)"/>
          <ellipse class="cls-130" cx="192.253" cy="42.841" rx="39.865" ry="4.239" transform="translate(129.96 229.7) rotate(-84.126)"/>
          <ellipse class="cls-100" cx="192.253" cy="42.841" rx="39.422" ry="4.006" transform="translate(129.963 229.701) rotate(-84.127)"/>
          <ellipse class="cls-81" cx="192.253" cy="42.841" rx="38.978" ry="3.772" transform="translate(129.966 229.701) rotate(-84.127)"/>
          <ellipse class="cls-107" cx="192.253" cy="42.841" rx="38.534" ry="3.539" transform="translate(129.968 229.702) rotate(-84.128)"/>
          <ellipse class="cls-87" cx="192.253" cy="42.841" rx="38.091" ry="3.305" transform="translate(129.97 229.703) rotate(-84.129)"/>
          <ellipse class="cls-67" cx="192.253" cy="42.841" rx="37.647" ry="3.072" transform="translate(129.973 229.704) rotate(-84.129)"/>
          <ellipse class="cls-47" cx="192.253" cy="42.841" rx="37.203" ry="2.838" transform="translate(129.975 229.705) rotate(-84.13)"/>
          <ellipse class="cls-62" cx="192.253" cy="42.841" rx="36.76" ry="2.605" transform="translate(129.977 229.705) rotate(-84.131)"/>
          <ellipse class="cls-142" cx="192.253" cy="42.841" rx="36.316" ry="2.371" transform="translate(129.979 229.706) rotate(-84.131)"/>
        </g>
        <g class="cls-144">
          <ellipse class="cls-38" cx="144.807" cy="42.841" rx="4.943" ry="41.167"/>
          <ellipse class="cls-28" cx="144.807" cy="42.841" rx="4.71" ry="40.724"/>
          <ellipse class="cls-120" cx="144.807" cy="42.841" rx="4.476" ry="40.28"/>
          <ellipse class="cls-134" cx="144.807" cy="42.841" rx="4.242" ry="39.837"/>
          <ellipse class="cls-104" cx="144.807" cy="42.841" rx="4.009" ry="39.394"/>
          <ellipse class="cls-85" cx="144.807" cy="42.841" rx="3.775" ry="38.95"/>
          <ellipse class="cls-115" cx="144.807" cy="42.841" rx="3.541" ry="38.507"/>
          <ellipse class="cls-94" cx="144.807" cy="42.841" rx="3.308" ry="38.064"/>
          <ellipse class="cls-74" cx="144.807" cy="42.841" rx="3.074" ry="37.62"/>
          <ellipse class="cls-54" cx="144.807" cy="42.841" rx="2.84" ry="37.177"/>
          <ellipse class="cls-64" cx="144.807" cy="42.841" rx="2.607" ry="36.734"/>
          <ellipse class="cls-44" cx="144.807" cy="42.841" rx="2.373" ry="36.29"/>
        </g>
        <g class="cls-144">
          <ellipse class="cls-42" cx="129.15" cy="42.841" rx="4.941" ry="41.191" transform="translate(-3.426 12.201) rotate(-5.338)"/>
          <ellipse class="cls-20" cx="129.15" cy="42.841" rx="4.707" ry="40.747" transform="translate(-3.425 12.199) rotate(-5.337)"/>
          <ellipse class="cls-124" cx="129.15" cy="42.841" rx="4.473" ry="40.304" transform="translate(-3.425 12.197) rotate(-5.337)"/>
          <ellipse class="cls-135" cx="129.15" cy="42.841" rx="4.24" ry="39.86" transform="translate(-3.424 12.196) rotate(-5.336)"/>
          <ellipse class="cls-105" cx="129.15" cy="42.841" rx="4.006" ry="39.417" transform="translate(-3.424 12.194) rotate(-5.335)"/>
          <ellipse class="cls-84" cx="129.15" cy="42.841" rx="3.773" ry="38.973" transform="translate(-3.424 12.192) rotate(-5.334)"/>
          <ellipse class="cls-114" cx="129.15" cy="42.841" rx="3.539" ry="38.53" transform="translate(-3.423 12.191) rotate(-5.334)"/>
          <ellipse class="cls-95" cx="129.15" cy="42.841" rx="3.306" ry="38.086" transform="translate(-3.423 12.189) rotate(-5.333)"/>
          <ellipse class="cls-75" cx="129.15" cy="42.841" rx="3.072" ry="37.642" transform="translate(-3.422 12.188) rotate(-5.332)"/>
          <ellipse class="cls-55" cx="129.15" cy="42.841" rx="2.839" ry="37.199" transform="translate(-3.422 12.186) rotate(-5.332)"/>
          <ellipse class="cls-65" cx="129.15" cy="42.841" rx="2.605" ry="36.755" transform="translate(-3.422 12.185) rotate(-5.331)"/>
          <ellipse class="cls-45" cx="129.15" cy="42.841" rx="2.371" ry="36.312" transform="translate(-3.422 12.184) rotate(-5.331)"/>
        </g>
        <path class="cls-17" d="M222.339,1.166c-7.778,11.925-12.73,17.236-14.434,19.915-2.086,3.278-17.942,19.125-16.451,44.486,.475,8.071,3.223,13.015,3.223,13.015,0,0,5.039,10.149,1.499,10.674-1.671,.248-3.15-.525-3.15-.525,0,0-3.219-2.365-4.634-1.35-1.551,1.112-2.143,2.087,.303,8.865,.547,1.516,1.723,12.354,2.021,21.293,.298,8.939,1.78,10.313,4.313,13.888,2.533,3.576,3.768,11.516,5.178,14.832,3.44,8.09,11.828,17.037,27.156,23.301,5.723,2.339,37.555,12.639,82.707,6.366l.089-174.695-87.819-.066Z"/>
        <path class="cls-18" d="M92.585,.735c7.94,12.229,12.99,17.636,14.715,20.346,2.086,3.278,17.942,19.125,16.451,44.486-.475,8.071-3.223,13.015-3.223,13.015,0,0-5.039,10.149-1.499,10.674,1.671,.248,3.15-.525,3.15-.525,0,0,3.219-2.365,4.634-1.35,1.551,1.112,2.143,2.087-.303,8.865-.547,1.516-1.723,12.354-2.021,21.293-.298,8.939-1.78,10.313-4.313,13.888-2.533,3.576-3.768,11.516-5.178,14.832-3.44,8.09-11.828,17.037-27.156,23.301-5.723,2.339-41.691,12.035-86.842,5.761V1.232l91.585-.497Z"/>
      </g>
      <g class="cls-145">
        <path class="cls-9" d="M112.024,102.386c-.146-8.595-9.675-24.148-12.099-35.64-1.906-9.037-2.11-16.987-3.216-27.553-1.07-10.221-.038-12.72-2.932-19.6-1.292-3.072-5.38-8.228-9.783-15.023"/>
        <path class="cls-9" d="M27.905,155.796s22.715,8.325,35.797,10.521c11.932,2.003,16.801,2.877,33.345-5.351,13.812-6.869,16.472-26.435,16.472-29.832,0-3.397-1.428-28.77-1.6-31.941s-2.925-5.513,4.958-21.632c5.477-11.199,3.202-26.708-2.142-39.257-2.171-5.097-6.731-12.047-13.328-19.063-3.64-3.872-8.359-9.307-12.835-15.748"/>
        <path class="cls-9" d="M94.282,20.995l8.693,14.352-1.081,6.305,.422,7.036-.011,4.703,3.506,4.502s-4.851,5.511-5.455,10.833"/>
        <line class="cls-9" x1="101.406" y1="19.241" x2="99.835" y2="30.737"/>
        <path class="cls-9" d="M107.543,25.703l-4.568,9.644,3.549,9.603s-.159,6.246,1.411,11.317c0,0-.871,6.722,2.839,11.94l1.145,5.946-3.73,7.755"/>
        <line class="cls-9" x1="97.739" y1="45.793" x2="101.893" y2="41.652"/>
        <path class="cls-9" d="M113.198,35.581s-.244,5.647-1.279,6.893-2.876,1.597-2.876,1.597l-2.519,.879-1.304,2.651-2.905,1.086s-2.817,.992-4.353,4.276"/>
        <path class="cls-9" d="M116.165,42.67s-3.931,2.846-3.586,6.13c.345,3.284,5.598,7.873,7.602,9.343"/>
        <path class="cls-9" d="M109.043,44.071s-.741,4.369,3.511,3.53"/>
        <path class="cls-9" d="M109.725,47.027s1.099,6.267-2.862,10.117c0,0-3.599,1.982-2.909,5.029s4.256,5.424,7.964,4.745c3.709-.679,8.262,.881,8.262,.881"/>
        <path class="cls-9" d="M117.402,55.803s-5.612-4.204-8.409-3.452"/>
        <path class="cls-9" d="M120.181,58.143c-.737,.655-4.976,5.135-3.812,9.238"/>
        <path class="cls-9" d="M107.935,56.268s3.951,7.564,8.826,6.838"/>
        <path class="cls-9" d="M102.304,53.39s-2.198,2.18-3.132,9.339"/>
        <path class="cls-9" d="M101.882,73.804s4.626-7.502,5.921-7.346l.572,22.918"/>
        <line class="cls-9" x1="116.761" y1="76.503" x2="111.919" y2="74.154"/>
        <path class="cls-9" d="M28.831,151.936s25.514,6.39,42.068,7.206c10.564,.521,22.524-5.912,26.608-10.096,7.351-7.529,13.619-13.778,15.459-30.466"/>
        <path class="cls-9" d="M81.69,161.203c-6.719,2.311-11.627,0-11.627,0"/>
        <path class="cls-9" d="M84.185,163.743s-5.158,1.932-8.434,0c-4.033-2.379-19.81-6.123-19.81-6.123"/>
        <path class="cls-1" d="M92.091,163.047c-1.336-.812-2.883-3.096-2.516-8.571-.069,.379-6.468,11.799-6.179,11.262"/>
        <path class="cls-1" d="M79.026,158.351c.657,2.712,2.44,4.105,7.545,1.364"/>
        <path class="cls-1" d="M75.75,163.743s-16.881-.856-18.951,1.104"/>
        <path class="cls-1" d="M107.633,136.673c.115,1.102-2.548,13.842-2.182,16.619"/>
        <path class="cls-1" d="M111.979,140.142s-3.952,2.109-5.843,6.15"/>
        <path class="cls-1" d="M101.882,144.453s-.236,7.18-1.839,9.498c-1.275,1.843-2.129,.289-1.709,5.765"/>
        <line class="cls-1" x1="105.451" y1="153.293" x2="100.867" y2="151.924"/>
        <line class="cls-1" x1="102.501" y1="157.148" x2="100.043" y2="153.95"/>
        <path class="cls-1" d="M98.818,157.147s-2.949-.666-4.329-.566-2.777,5.554-2.777,5.554"/>
        <line class="cls-1" x1="97.507" y1="149.045" x2="94.489" y2="156.581"/>
      </g>
      <g class="cls-145">
        <path class="cls-9" d="M203.668,102.386c.146-8.595,9.675-24.148,12.099-35.64,1.906-9.037,2.11-16.987,3.216-27.553,1.07-10.221,.038-12.72,2.932-19.6,1.512-3.595,6.484-9.381,11.518-17.581"/>
        <path class="cls-9" d="M287.787,155.796s-22.715,8.325-35.797,10.521c-11.932,2.003-16.801,2.877-33.345-5.351-13.812-6.869-16.472-26.435-16.472-29.832,0-3.397,1.428-28.77,1.6-31.941,.172-3.171,2.925-5.513-4.958-21.632-5.477-11.199-3.202-26.708,2.142-39.257,2.171-5.097,6.731-12.047,13.328-19.063"/>
        <path class="cls-9" d="M221.41,20.995l-8.693,14.352,1.081,6.305-.422,7.036,.011,4.703-3.506,4.502s4.851,5.511,5.455,10.833"/>
        <polyline class="cls-9" points="215.857 30.737 214.285 19.241 226.183 2.414"/>
        <path class="cls-9" d="M208.148,25.703l4.568,9.644-3.549,9.603s.159,6.246-1.411,11.317c0,0,.871,6.722-2.839,11.94l-1.145,5.946,3.73,7.755"/>
        <line class="cls-9" x1="217.953" y1="45.793" x2="213.798" y2="41.652"/>
        <path class="cls-9" d="M202.494,35.581s.244,5.647,1.279,6.893,2.876,1.597,2.876,1.597l2.519,.879,1.304,2.651,2.905,1.086s2.817,.992,4.353,4.276"/>
        <path class="cls-9" d="M199.526,42.67s3.931,2.846,3.586,6.13-5.598,7.873-7.602,9.343"/>
        <path class="cls-9" d="M206.649,44.071s.741,4.369-3.511,3.53"/>
        <path class="cls-9" d="M205.967,47.027s-1.099,6.267,2.862,10.117c0,0,3.599,1.982,2.909,5.029s-4.256,5.424-7.964,4.745-8.262,.881-8.262,.881"/>
        <path class="cls-9" d="M198.289,55.803s5.612-4.204,8.409-3.452"/>
        <path class="cls-9" d="M195.511,58.143c.737,.655,4.976,5.135,3.812,9.238"/>
        <path class="cls-9" d="M207.757,56.268s-3.951,7.564-8.826,6.838"/>
        <path class="cls-9" d="M213.387,53.39s2.198,2.18,3.132,9.339"/>
        <path class="cls-9" d="M213.809,73.804s-4.626-7.502-5.921-7.346l-.572,22.918"/>
        <line class="cls-9" x1="198.931" y1="76.503" x2="203.773" y2="74.154"/>
        <path class="cls-9" d="M286.86,151.936s-25.514,6.39-42.068,7.206c-10.564,.521-22.524-5.912-26.608-10.096-7.351-7.529-13.619-13.778-15.459-30.466"/>
        <path class="cls-9" d="M234.002,161.203c6.719,2.311,11.627,0,11.627,0"/>
        <path class="cls-9" d="M231.507,163.743s5.158,1.932,8.434,0c4.033-2.379,19.81-6.123,19.81-6.123"/>
        <path class="cls-1" d="M223.601,163.047c1.336-.812,2.883-3.096,2.516-8.571,.069,.379,6.468,11.799,6.179,11.262"/>
        <path class="cls-1" d="M236.665,158.351c-.657,2.712-2.44,4.105-7.545,1.364"/>
        <path class="cls-1" d="M239.941,163.743s16.881-.856,18.951,1.104"/>
        <path class="cls-1" d="M208.058,136.673c-.115,1.102,2.548,13.842,2.182,16.619"/>
        <path class="cls-1" d="M203.712,140.142s3.952,2.109,5.843,6.15"/>
        <path class="cls-1" d="M213.809,144.453s.236,7.18,1.839,9.498c1.275,1.843,2.129,.289,1.709,5.765"/>
        <line class="cls-1" x1="210.241" y1="153.293" x2="214.824" y2="151.924"/>
        <line class="cls-1" x1="213.19" y1="157.148" x2="215.649" y2="153.95"/>
        <path class="cls-1" d="M216.874,157.147s2.949-.666,4.329-.566,2.777,5.554,2.777,5.554"/>
        <line class="cls-1" x1="218.184" y1="149.045" x2="221.203" y2="156.581"/>
      </g>
    </g>
    <rect class="cls-6" x="1" y="1.173" width="308.951" height="239.425"/>
  </g>
  <path class="cls-30" d="M339.094,116.915l-20.039,10.632v-4.23l7.904-3.785h-37.351v-5.344h37.351l-7.904-3.618v-4.342l20.039,10.688Z"/>
  <g>
    <path class="cls-32" d="M108.309,208.783c-.024,.168-.168,.288-.48,.336v10.657c1.752,1.608,3.72,2.976,5.64,3.84-.384,.312-.888,.936-1.152,1.368-1.512-.768-3.048-1.848-4.488-3.12v9h-1.656v-10.585c-1.488-1.536-2.833-3.24-3.864-5.016-1.488,7.705-4.801,12.817-9.097,15.553-.264-.36-.888-.936-1.296-1.176,2.544-1.536,4.729-3.864,6.336-7.033-1.008-.984-2.664-2.208-4.08-3.024l.888-1.128c1.32,.72,2.856,1.752,3.913,2.665,.864-2.088,1.536-4.489,1.968-7.201h-5.017c-.96,2.664-2.208,5.041-3.696,6.721-.24-.312-.792-.816-1.128-1.08,2.16-2.4,3.768-6.601,4.68-10.993l1.992,.48c-.048,.168-.216,.264-.504,.264-.24,1.032-.504,2.064-.816,3.072h5.113l.312-.072,1.032,.432c-.048,.096-.144,.216-.24,.288l-.216,1.368,.792-.312c.768,1.368,1.776,2.736,2.928,4.008v-9.457l2.136,.144Z"/>
    <path class="cls-32" d="M139.797,212.575h-16.97v6.121c0,3.768-.456,8.905-3.648,12.289-.216-.312-.816-.888-1.152-1.08,2.04-2.16,2.808-4.944,3.12-7.609l-2.88,1.704c0,.192-.096,.36-.24,.432l-.72-1.68c1.032-.456,2.448-1.224,3.96-2.064,.048-.672,.048-1.344,.048-1.992v-7.561h7.705v-2.544l2.16,.144c-.024,.168-.168,.288-.48,.336v2.064h9.097v1.44Zm-20.882,.672c.84,1.417,1.632,3.289,1.872,4.489l-1.32,.648c-.216-1.224-.984-3.145-1.776-4.584l1.224-.552Zm13.489,5.785h7.44v1.392h-16.297v-1.392h7.272v-2.664h-5.544v-1.368h5.544v-2.136l2.064,.12c-.024,.168-.144,.288-.48,.336v1.68h5.856v1.368h-5.856v2.664Zm3.576,1.8c-.048,.168-.168,.288-.48,.336v1.632h4.032v1.368h-4.032v4.896c0,1.752-.792,1.8-4.608,1.8-.048-.408-.288-.984-.504-1.416,.624,.024,1.2,.024,1.68,.024q1.873,0,1.873-.432v-4.872h-10.057v-1.368h10.057v-2.064l2.04,.096Zm-7.225,8.161c-.528-1.056-1.824-2.544-3.024-3.552l1.2-.696c1.224,.984,2.544,2.424,3.096,3.48l-1.272,.768Z"/>
    <path class="cls-32" d="M154.604,216.583v1.248h-10.729v-1.248h4.657v-1.728h-3.408v-1.224h3.408v-1.608h-4.152v-1.248h4.152v-2.208l2.04,.144c-.024,.168-.144,.264-.48,.312v1.752h4.272v1.248h-4.272v1.608h3.6v1.224h-3.6v1.728h4.512Zm-1.224,2.833v9.769c0,1.584-.792,1.728-3.72,1.728-.072-.408-.312-1.008-.528-1.392,1.104,.024,2.04,.024,2.328,.024,.288-.024,.384-.096,.384-.36v-2.4h-4.992v4.104h-1.488v-11.473h8.017Zm-1.536,1.272h-4.992v1.824h4.992v-1.824Zm-4.992,4.896h4.992v-1.872h-4.992v1.872Zm19.562-6.312v1.392h-1.632v5.136h-1.488v-.888h-2.928v4.057c0,1.728-.648,1.92-4.152,1.92-.072-.432-.312-1.08-.528-1.512,.648,.024,1.248,.024,1.729,.024,1.296,0,1.44,0,1.44-.432v-4.057h-3.36v-1.368h3.36v-2.88h-4.584v-1.392h4.584v-2.784h-3.24v-1.249l-.552,.576c-.264-.24-.768-.696-1.104-.912,1.56-1.44,3.12-3.888,4.008-6.336l1.8,.552c-.072,.168-.264,.24-.504,.216-.216,.504-.432,1.008-.696,1.512h3.84l.264-.072,1.104,.72c-.048,.096-.192,.168-.312,.192-.552,1.032-1.368,2.328-2.208,3.408h3.528v4.177h1.632Zm-6.769-4.177c.672-.84,1.368-1.944,1.872-2.928h-3.672c-.648,1.08-1.368,2.088-2.112,2.928h3.912Zm.72,1.393v2.784h2.928v-2.784h-2.928Zm2.928,7.056v-2.88h-2.928v2.88h2.928Z"/>
    <path class="cls-32" d="M177.98,209.479v19.466c0,1.752-.792,1.968-3.816,1.92-.048-.384-.264-1.08-.48-1.488,.576,0,1.104,.024,1.512,.024,1.272,0,1.32,0,1.32-.48v-6.312h-3.432c-.192,2.88-.672,5.953-1.728,8.281-.288-.264-.912-.624-1.296-.768,1.608-3.432,1.728-8.329,1.728-11.905v-8.737h6.193Zm-4.752,8.737c0,.888-.024,1.848-.048,2.88h3.336v-4.369h-3.288v1.488Zm3.288-7.225h-3.288v4.248h3.288v-4.248Zm5.161,.456c3.144-.744,6.528-1.776,8.449-2.809l1.536,1.296c-.096,.096-.144,.096-.504,.096-2.28,1.081-6.072,2.088-9.504,2.856v6.457c0,3.408-.264,8.185-2.424,11.593-.216-.336-.792-.84-1.176-1.032,1.896-3.12,2.088-7.321,2.088-10.561v-8.353l1.536,.456Zm10.729,3.576c-.096,.072-.144,.072-.48,.072-.984,.408-2.208,.84-3.576,1.272,.144,1.464,.36,2.904,.6,4.272,.888-.792,1.872-1.776,2.472-2.521l1.344,1.416c-.072,.072-.192,.096-.312,.096-.072,0-.144,0-.216-.024-.72,.72-1.968,1.752-3,2.496,.744,3.264,1.848,5.977,3.576,7.513-.384,.288-.936,.888-1.2,1.344-2.736-2.76-3.936-8.089-4.56-14.209l-1.8,.504v13.609h-1.488v-13.201c-.48,.12-.936,.216-1.392,.336-.072-.36-.336-.912-.528-1.248,3.264-.84,7.008-2.04,9.145-3.048l1.417,1.32Z"/>
    <path class="cls-32" d="M218.686,221.432h-11.809v9.457h-1.488v-2.088c-2.904,.264-5.809,.528-7.705,.672-.024,.168-.168,.264-.312,.312l-.6-1.584,2.352-.144v-6.625h-2.112v-1.224h9.96v-1.416h-7.44v-1.104h7.44v-1.368h-8.665v-1.128h5.449c-.24-.576-.72-1.296-1.152-1.848l.552-.168h-6.049v-1.248h4.057c-.36-.792-1.056-1.896-1.68-2.736l1.344-.408c.696,.864,1.488,2.041,1.824,2.833l-.912,.312h3.024v-3.36l1.968,.12c-.024,.168-.144,.288-.456,.336v2.904h3.048v-3.36l1.968,.12c-.024,.168-.144,.288-.456,.336v2.904h2.688l-.648-.24c.624-.816,1.44-2.064,1.872-2.928l1.848,.6c-.048,.144-.24,.216-.48,.216-.456,.672-1.176,1.632-1.8,2.352h4.296v1.248h-5.497l.48,.144c-.072,.144-.24,.216-.504,.216-.312,.48-.768,1.104-1.2,1.656h5.616v1.128h-8.929v1.368h7.752v1.104h-7.752v1.416h10.105v1.224Zm-13.297,1.368v-1.368h-4.8v1.368h4.8Zm0,2.424v-1.368h-4.8v1.368h4.8Zm-4.8,1.056v1.68c1.512-.12,3.144-.216,4.8-.36v-1.32h-4.8Zm10.033-11.089c-.144-.048-.264-.096-.36-.12,.384-.528,.864-1.272,1.2-1.896h-7.249c.48,.6,.936,1.32,1.128,1.872l-.456,.144h5.736Zm5.856,7.345l.936,.432c-.024,.096-.12,.168-.192,.216-.72,1.872-1.896,3.408-3.36,4.608,1.464,.84,3.192,1.464,5.064,1.8-.312,.288-.72,.84-.912,1.248-1.992-.432-3.792-1.176-5.328-2.16-1.392,.912-2.977,1.608-4.608,2.064-.168-.336-.504-.888-.792-1.176,1.488-.36,2.952-.96,4.248-1.752-1.224-1.008-2.232-2.232-2.928-3.648l1.032-.312h-1.944v-1.272h8.521l.264-.048Zm-6.552,1.32c.624,1.224,1.56,2.28,2.76,3.168,1.128-.864,2.064-1.92,2.712-3.168h-5.472Z"/>
  </g>
  <g>
    <path class="cls-32" d="M344.201,181.48v19.37c0,1.968-1.008,2.04-4.08,2.04-.072-.432-.288-1.152-.504-1.584,.6,0,1.151,.024,1.607,.024,1.393,0,1.417,0,1.417-.48v-6.24h-4.177c-.216,2.904-.696,5.977-1.824,8.328-.288-.264-.96-.672-1.344-.815,1.68-3.433,1.8-8.305,1.8-11.905v-8.737h7.104Zm-5.593,8.737c0,.888-.023,1.848-.048,2.856h4.081v-4.32h-4.033v1.464Zm4.033-7.177h-4.033v4.177h4.033v-4.177Zm9.265,17.161h5.904v1.561h-12.985v-1.561h5.448v-15.721h-4.896v-1.561h11.714v1.561h-5.185v15.721Z"/>
    <path class="cls-32" d="M370.506,181.768v8.833h-7.009v12.289h-1.584v-21.122h8.593Zm-1.536,1.368h-5.473v2.305h5.473v-2.305Zm-5.473,6.097h5.473v-2.521h-5.473v2.521Zm18.289-7.465v18.818c0,2.184-.84,2.256-5.472,2.256-.072-.456-.36-1.2-.601-1.68,1.032,.048,2.017,.048,2.761,.048,1.56,0,1.704,0,1.704-.624v-9.961h-7.297v-8.857h8.904Zm-1.607,1.368h-5.737v2.305h5.737v-2.305Zm-5.737,6.121h5.737v-2.545h-5.737v2.545Z"/>
    <path class="cls-32" d="M391.553,186.401c-.191-.696-.672-1.729-1.176-2.568h-1.152c-.672,1.008-1.44,1.944-2.185,2.641-.287-.265-.84-.648-1.199-.864,1.344-1.152,2.664-3.168,3.456-5.137l1.848,.624c-.071,.12-.239,.216-.504,.192-.168,.384-.384,.792-.6,1.2h6.624v1.344h-4.656c.433,.744,.84,1.561,1.032,2.137l-1.488,.432Zm16.514-3.912v1.344h-5.593c.576,.72,1.104,1.513,1.368,2.112l-1.44,.504c-.312-.72-1.008-1.776-1.704-2.616h-2.088c-.479,.624-.984,1.2-1.512,1.704l1.08,.072c-.024,.168-.145,.264-.456,.312v1.513h9.553v4.536h-1.584v-3.24h-17.282v3.24h-1.536v-4.536h9.266v-1.393c-.337-.216-.792-.479-1.104-.647,1.512-1.104,2.977-2.952,3.769-4.921l1.872,.576c-.048,.145-.216,.216-.504,.216-.192,.408-.408,.816-.648,1.225h8.545Zm-16.178,12.625v1.8h13.394v5.929h-1.608v-.792h-11.785v.84h-1.56v-12.553h13.44v4.776h-11.881Zm10.297-3.505h-10.297v2.232h10.297v-2.232Zm1.488,6.601h-11.785v2.545h11.785v-2.545Z"/>
    <path class="cls-32" d="M431.946,184.769v15.938c0,1.128-.264,1.655-1.08,1.943-.815,.265-2.304,.288-4.488,.288-.072-.479-.336-1.2-.576-1.656,.889,.024,1.753,.049,2.448,.049,1.992,0,2.089,0,2.089-.624v-14.354h-7.513c-.048,.984-.168,2.016-.408,3.072,2.496,2.184,5.496,5.088,7.009,6.937l-1.32,1.032c-1.32-1.656-3.841-4.272-6.169-6.409-.888,2.425-2.664,4.825-6.12,6.841-.24-.36-.769-.936-1.152-1.224,5.473-2.952,6.385-7.009,6.528-10.249h-7.128v16.585h-1.608v-18.169h8.761v-4.201l2.112,.145c-.024,.168-.145,.288-.48,.336v3.721h9.097Z"/>
    <path class="cls-32" d="M352.65,208.785c-.024,.168-.168,.288-.48,.336v10.656c1.752,1.608,3.721,2.977,5.641,3.841-.384,.312-.889,.937-1.152,1.368-1.512-.769-3.048-1.849-4.488-3.12v9.001h-1.656v-10.585c-1.488-1.536-2.832-3.24-3.864-5.017-1.488,7.704-4.801,12.817-9.097,15.553-.264-.359-.888-.936-1.296-1.176,2.544-1.536,4.729-3.864,6.336-7.032-1.008-.984-2.664-2.209-4.08-3.024l.888-1.128c1.32,.72,2.856,1.752,3.913,2.664,.864-2.088,1.536-4.488,1.968-7.201h-5.017c-.96,2.665-2.208,5.041-3.696,6.721-.24-.312-.792-.815-1.128-1.08,2.16-2.4,3.769-6.601,4.681-10.993l1.992,.48c-.048,.168-.216,.264-.504,.264-.24,1.032-.504,2.064-.816,3.072h5.112l.312-.071,1.032,.432c-.049,.096-.145,.216-.24,.288l-.216,1.368,.792-.312c.768,1.368,1.775,2.736,2.928,4.009v-9.457l2.137,.145Z"/>
    <path class="cls-32" d="M382.938,212.577h-16.97v6.12c0,3.769-.456,8.905-3.647,12.289-.217-.312-.816-.888-1.152-1.08,2.04-2.16,2.808-4.944,3.12-7.608l-2.88,1.704c0,.192-.097,.36-.24,.433l-.721-1.681c1.032-.456,2.448-1.224,3.961-2.064,.048-.672,.048-1.344,.048-1.992v-7.561h7.705v-2.544l2.16,.145c-.024,.168-.168,.287-.48,.336v2.063h9.097v1.44Zm-20.882,.672c.84,1.416,1.632,3.288,1.872,4.488l-1.32,.648c-.216-1.225-.983-3.145-1.775-4.584l1.224-.553Zm13.489,5.785h7.44v1.392h-16.297v-1.392h7.272v-2.665h-5.545v-1.368h5.545v-2.136l2.064,.12c-.024,.168-.145,.288-.48,.336v1.68h5.856v1.368h-5.856v2.665Zm3.576,1.8c-.048,.168-.168,.288-.479,.336v1.632h4.032v1.368h-4.032v4.896c0,1.752-.792,1.801-4.608,1.801-.048-.408-.288-.984-.504-1.417,.624,.024,1.199,.024,1.68,.024q1.872,0,1.872-.432v-4.873h-10.057v-1.368h10.057v-2.063l2.04,.096Zm-7.225,8.16c-.528-1.056-1.824-2.544-3.024-3.552l1.2-.696c1.225,.984,2.545,2.425,3.097,3.48l-1.272,.768Z"/>
    <path class="cls-32" d="M391.289,217.329c.744,.912,2.76,3.793,3.216,4.489l-.936,1.271c-.408-.84-1.465-2.544-2.28-3.84v11.593h-1.513v-11.881c-.863,2.832-2.04,5.593-3.264,7.272-.168-.432-.576-1.056-.864-1.416,1.561-2.088,3.168-6.024,3.937-9.457h-3.48v-1.512h3.672v-5.281l1.992,.145c-.023,.144-.168,.264-.479,.312v4.825h3.048v1.512h-3.048v1.968Zm15.721,13.634c-.936-1.2-2.735-3.024-4.392-4.513-2.257,1.849-4.993,3.36-7.993,4.44-.216-.408-.647-.96-1.008-1.32,5.473-1.8,10.057-5.208,12.481-9.408l1.823,.695c-.071,.12-.239,.217-.504,.192-.96,1.584-2.184,3.072-3.672,4.44,1.656,1.44,3.576,3.265,4.561,4.465l-1.297,1.008Zm-1.08-14.569c-.048,.168-.239,.216-.479,.24-2.16,3.504-6.001,6.96-10.201,9.024-.24-.384-.672-.864-1.056-1.176,1.704-.769,3.36-1.801,4.849-2.977-1.104-1.176-2.833-2.64-4.272-3.721l1.008-1.031,1.224,.912c.912-1.129,1.969-2.616,2.736-3.864h-5.232v-1.488h6.073v-3.745l2.063,.145c-.023,.168-.144,.288-.479,.336v3.265h5.977v1.488h-6.673l.504,.287c-.096,.12-.288,.192-.528,.168-.84,1.225-2.231,3.001-3.384,4.249,.815,.672,1.608,1.368,2.208,1.968,1.561-1.439,2.929-3.048,3.889-4.704l1.775,.624Z"/>
  </g>
  <line class="cls-8" x1="429.238" y1="135.547" x2="386.631" y2="180.588"/>
  <g>
    <path class="cls-32" d="M489.558,227.938h2.28v1.608h-22.274v-1.608h2.448v-14.545h5.568c.696-1.44,1.417-3.408,1.849-4.825l2.16,.625c-.096,.144-.264,.239-.552,.264-.433,1.152-1.104,2.664-1.729,3.937h10.249v14.545Zm-15.961-13.009v13.009h3.72v-13.009h-3.72Zm9.024,13.009v-13.009h-3.769v13.009h3.769Zm5.305-13.009h-3.769v13.009h3.769v-13.009Z"/>
    <path class="cls-32" d="M500.188,217.33c.744,.911,2.761,3.792,3.217,4.488l-.937,1.271c-.408-.84-1.464-2.544-2.28-3.84v11.593h-1.512v-11.881c-.864,2.832-2.041,5.593-3.265,7.272-.168-.432-.576-1.056-.864-1.416,1.561-2.088,3.169-6.024,3.937-9.457h-3.48v-1.512h3.673v-5.281l1.992,.145c-.024,.144-.168,.264-.48,.312v4.825h3.048v1.512h-3.048v1.969Zm10.825-8.569c-.072,.145-.192,.264-.384,.288,1.512,2.544,4.271,5.353,6.696,6.841-.336,.384-.721,.984-.96,1.44-2.473-1.705-5.161-4.513-6.648-7.057-1.32,2.472-3.816,5.352-6.529,7.2-.216-.408-.576-.984-.888-1.32,2.712-1.752,5.376-4.824,6.576-7.513l2.137,.12Zm-.528,15.313v4.488h6.433v1.488h-14.113v-1.488h6.097v-4.488h-4.681v-1.488h4.681v-4.008h-4.32v-1.465h10.44v1.465h-4.536v4.008h4.969v1.488h-4.969Z"/>
    <path class="cls-32" d="M522.461,213.464c0,2.112-.385,4.753-1.297,6.312l-1.271-.647c.815-1.393,1.2-3.841,1.248-5.856l1.32,.191Zm1.031-4.896l2.064,.145c-.023,.168-.168,.288-.479,.312v21.818h-1.585v-22.274Zm3.072,3.793c.792,1.176,1.633,2.712,1.992,3.672l-1.176,.792c-.36-1.008-1.2-2.64-1.944-3.84l1.128-.624Zm9.217,16.081h6.457v1.561h-14.953v-1.561h6.889v-5.832h-5.113v-1.488h5.113v-5.305h-3.745c-.479,1.488-1.031,2.832-1.655,3.864-.312-.24-.912-.576-1.297-.744,1.272-2.112,2.232-5.736,2.809-9.24l1.992,.456c-.048,.168-.216,.264-.504,.264-.24,1.272-.528,2.592-.889,3.864h3.289v-5.713l2.088,.145c-.024,.168-.145,.288-.48,.336v5.232h5.737v1.536h-5.737v5.305h4.993v1.488h-4.993v5.832Z"/>
    <path class="cls-32" d="M562.349,208.785c-.023,.168-.168,.288-.479,.336v10.656c1.752,1.608,3.72,2.977,5.641,3.841-.385,.312-.889,.937-1.152,1.368-1.513-.769-3.049-1.849-4.488-3.12v9.001h-1.656v-10.585c-1.488-1.536-2.832-3.24-3.864-5.017-1.488,7.704-4.801,12.816-9.097,15.553-.265-.359-.889-.936-1.297-1.176,2.545-1.536,4.729-3.864,6.337-7.032-1.008-.984-2.664-2.208-4.08-3.024l.888-1.128c1.32,.72,2.856,1.752,3.912,2.664,.864-2.088,1.536-4.488,1.969-7.201h-5.017c-.96,2.665-2.208,5.041-3.696,6.721-.24-.312-.792-.815-1.128-1.08,2.16-2.4,3.769-6.601,4.681-10.993l1.992,.48c-.049,.168-.217,.264-.505,.264-.239,1.032-.504,2.064-.815,3.072h5.112l.312-.071,1.032,.432c-.048,.096-.144,.216-.24,.288l-.216,1.368,.792-.312c.769,1.368,1.776,2.736,2.929,4.009v-9.457l2.136,.145Z"/>
    <path class="cls-32" d="M592.638,212.577h-16.97v6.12c0,3.769-.456,8.905-3.648,12.289-.216-.312-.815-.888-1.151-1.08,2.04-2.16,2.808-4.944,3.12-7.608l-2.881,1.704c0,.192-.096,.36-.239,.433l-.721-1.681c1.032-.456,2.448-1.224,3.961-2.064,.048-.672,.048-1.344,.048-1.992v-7.561h7.704v-2.544l2.16,.145c-.023,.168-.168,.287-.479,.336v2.063h9.097v1.44Zm-20.882,.672c.84,1.416,1.632,3.288,1.872,4.488l-1.32,.648c-.216-1.225-.983-3.145-1.776-4.584l1.225-.553Zm13.489,5.785h7.44v1.392h-16.297v-1.392h7.272v-2.665h-5.545v-1.368h5.545v-2.136l2.063,.12c-.023,.168-.144,.288-.479,.336v1.68h5.856v1.368h-5.856v2.665Zm3.576,1.8c-.048,.168-.168,.288-.48,.336v1.632h4.033v1.368h-4.033v4.896c0,1.752-.792,1.801-4.608,1.801-.048-.408-.288-.984-.504-1.417,.624,.024,1.2,.024,1.681,.024q1.872,0,1.872-.432v-4.873h-10.057v-1.368h10.057v-2.063l2.04,.096Zm-7.225,8.16c-.528-1.056-1.824-2.544-3.024-3.552l1.2-.696c1.224,.984,2.544,2.425,3.097,3.48l-1.272,.768Z"/>
    <path class="cls-32" d="M600.988,217.33c.744,.911,2.761,3.792,3.217,4.488l-.937,1.271c-.408-.84-1.464-2.544-2.28-3.84v11.593h-1.512v-11.881c-.864,2.832-2.041,5.593-3.265,7.272-.168-.432-.576-1.056-.864-1.416,1.561-2.088,3.168-6.024,3.937-9.457h-3.48v-1.512h3.673v-5.281l1.992,.145c-.024,.144-.168,.264-.48,.312v4.825h3.048v1.512h-3.048v1.969Zm15.722,13.633c-.937-1.2-2.736-3.024-4.393-4.513-2.256,1.849-4.992,3.36-7.993,4.44-.216-.408-.647-.96-1.008-1.32,5.473-1.8,10.057-5.208,12.481-9.408l1.824,.695c-.072,.12-.24,.217-.504,.192-.961,1.584-2.185,3.072-3.673,4.44,1.656,1.44,3.576,3.265,4.561,4.465l-1.296,1.008Zm-1.08-14.569c-.048,.168-.24,.216-.48,.24-2.16,3.504-6,6.96-10.201,9.024-.239-.384-.672-.864-1.056-1.176,1.704-.769,3.36-1.801,4.849-2.977-1.104-1.176-2.832-2.641-4.272-3.721l1.008-1.031,1.225,.912c.912-1.129,1.968-2.616,2.736-3.864h-5.232v-1.488h6.072v-3.745l2.064,.145c-.024,.168-.145,.288-.48,.336v3.265h5.977v1.488h-6.673l.504,.287c-.096,.12-.288,.192-.527,.169-.841,1.224-2.232,3-3.385,4.248,.816,.672,1.608,1.368,2.208,1.968,1.561-1.439,2.929-3.048,3.889-4.704l1.776,.624Z"/>
  </g>
  <line class="cls-8" x1="531.924" y1="185.413" x2="544.797" y2="207.982"/>
  <polyline class="cls-7" points="90.511 159.526 156.855 201.651 228.501 162.038"/>
</svg>