<?xml version="1.0" encoding="UTF-8"?>
<svg id="_レイヤー_1" data-name="レイヤー 1" xmlns="http://www.w3.org/2000/svg" width="107.801mm" height="79.847mm" viewBox="0 0 305.579 226.337">
  <defs>
    <style>
      .cls-1 {
        stroke-width: .573px;
      }

      .cls-1, .cls-2, .cls-3, .cls-4, .cls-5, .cls-6, .cls-7, .cls-8, .cls-9, .cls-10, .cls-11, .cls-12 {
        stroke: #fff;
        stroke-miterlimit: 10;
      }

      .cls-1, .cls-8 {
        fill: #e184ac;
      }

      .cls-2, .cls-3 {
        stroke-width: .585px;
      }

      .cls-2, .cls-13 {
        fill: #29a4a9;
      }

      .cls-3, .cls-14 {
        fill: #d680a5;
      }

      .cls-4, .cls-5, .cls-6, .cls-7, .cls-8, .cls-9, .cls-10, .cls-11, .cls-12 {
        stroke-width: .585px;
      }

      .cls-4, .cls-15 {
        fill: #f5dd3b;
      }

      .cls-5, .cls-16 {
        fill: #e99214;
      }

      .cls-6, .cls-17 {
        fill: #93649f;
      }

      .cls-7, .cls-18 {
        fill: #9ec122;
      }

      .cls-19 {
        fill: #fff;
      }

      .cls-20 {
        fill: #b8a978;
      }

      .cls-21 {
        fill: #cc3320;
      }

      .cls-22 {
        fill: #231815;
      }

      .cls-23 {
        fill: #095097;
      }

      .cls-24, .cls-10 {
        fill: #25acb3;
      }

      .cls-25, .cls-9 {
        fill: #339cd1;
      }

      .cls-26, .cls-11 {
        fill: #44ad8a;
      }

      .cls-12 {
        fill: #898989;
      }

      .cls-27 {
        opacity: .8;
      }
    </style>
  </defs>
  <g>
    <g class="cls-27">
      <path class="cls-2" d="m72.625,72.609l16.268,70.463c-38.916,8.984-77.747-15.28-86.731-54.196C-6.822,49.961,17.442,11.13,56.358,2.146c5.604-1.294,10.516-1.853,16.268-1.853v72.317Z"/>
      <path class="cls-3" d="m72.625,72.609V.293c39.939,0,72.317,32.377,72.317,72.317,0,34.188-22.737,62.773-56.049,70.463l-16.268-70.463Z"/>
    </g>
    <circle class="cls-19" cx="72.944" cy="72.907" r="32.381"/>
    <g>
      <path class="cls-23" d="m59.664,72.898q-.83.02-1.119.05c.04-.29.06-.53.06-1v-2.309c0-.49-.02-.75-.05-1.04.3.04.55.05,1.04.05h5.247c.49,0,.74-.01,1.04-.05-.03.29-.04.55-.04,1.04v2.309c0,.43.01.68.04.99-.31-.03-.62-.04-.979-.04h-2.279c-.03.37-.05.54-.1.85h2.599c.39,0,.69-.01,1.08-.04-.03.2-.04.31-.09.83-.07.799-.18,1.539-.29,1.889-.21.74-.59.93-1.839.93-.34,0-.46-.01-1.16-.05-.04-.38-.11-.68-.27-1.089.799.1,1.119.13,1.569.13.67,0,.7-.04.87-1.649h-2.758c-.33.729-.82,1.31-1.509,1.809-.62.43-1.339.74-2.469,1.029-.17-.379-.34-.64-.64-.989.97-.19,1.569-.39,2.189-.72.59-.33.969-.669,1.249-1.129h-1.899c-.549,0-.829.01-1.179.06v-1.06c.26.03.7.05,1.189.05h2.249c.06-.29.08-.5.09-.85h-1.839Zm0-3.368v.85h1.979v-.85h-1.979Zm0,1.669v.84h1.979v-.84h-1.979Zm5.117-.819v-.85h-2.109v.85h2.109Zm0,1.659v-.84h-2.109v.84h2.109Z"/>
      <path class="cls-21" d="m76.751,77.515c-1.049-.829-1.799-1.339-2.898-1.949-.6.53-1.319.959-2.159,1.279-.72.28-1.419.45-2.459.6-.17-.49-.31-.759-.53-1.079,1.09-.1,1.759-.25,2.459-.52.64-.25,1.189-.53,1.629-.839-.729-.36-.819-.4-1.909-.83-.16.22-.18.25-.35.49-.4-.2-.569-.27-1.119-.48.719-.879,1.189-1.619,1.729-2.749h-1.25c-.49,0-.879.02-1.179.06v-1.159c.33.04.7.06,1.179.06h1.699c.33-.86.55-1.579.629-2.089l1.299.18c-.07.15-.16.41-.25.7-.16.49-.26.78-.42,1.209h3.738c.51,0,.87-.02,1.18-.06v1.159c-.33-.04-.68-.06-1.149-.06h-.55c-.3,1.41-.709,2.349-1.429,3.278,1.219.67,1.879,1.089,2.908,1.839l-.799.959Zm-4.328-6.077c-.31.69-.53,1.1-.959,1.829.909.34,1.339.52,2.169.93.659-.8.999-1.539,1.269-2.759h-2.479Z"/>
      <path class="cls-22" d="m81.824,75.737c.939-.27,1.429-.43,2.319-.74l.01,1.06c-.78.3-1.289.479-2.499.859q-.33.1-1.06.3-.13.04-.21.06c-.24.07-.419.13-.549.19l-.24-1.239c.36-.03.6-.07,1.1-.19v-6.426c0-.52-.02-.79-.06-1.12h1.25c-.05.32-.06.58-.06,1.12v1.669h1.379c.48,0,.69-.01.96-.06v1.179c-.26-.05-.49-.06-.96-.06h-1.379v3.398Zm3.818.3c0,.22.13.26.85.26.7,0,.939-.04,1.039-.18.14-.19.2-.77.21-2.009.4.22.63.32,1.06.439-.07,1.489-.18,2.059-.47,2.379-.28.31-.709.4-1.899.4-.939,0-1.27-.04-1.529-.18-.27-.14-.37-.38-.37-.83v-6.686c0-.56-.02-.83-.06-1.129h1.229c-.05.33-.06.589-.06,1.129v2.179c1.159-.67,1.929-1.27,2.349-1.829l.78.919q-.15.11-.36.28c-.81.65-1.669,1.209-2.769,1.799v3.058Z"/>
    </g>
    <g>
      <path class="cls-22" d="m10.935,72.305q-.83.02-1.119.05c.04-.29.06-.53.06-1v-2.309c0-.49-.02-.75-.05-1.04.3.04.55.05,1.04.05h5.247c.49,0,.74-.01,1.04-.05-.03.29-.04.55-.04,1.04v2.309c0,.43.01.68.04.99-.31-.03-.62-.04-.979-.04h-2.279c-.03.37-.05.54-.1.85h2.599c.39,0,.69-.01,1.08-.04-.03.2-.04.31-.09.83-.07.799-.18,1.539-.29,1.889-.21.74-.59.93-1.839.93-.34,0-.46-.01-1.16-.05-.04-.38-.11-.68-.27-1.09.799.1,1.119.13,1.569.13.67,0,.7-.04.87-1.649h-2.758c-.33.729-.82,1.31-1.509,1.809-.62.43-1.339.74-2.469,1.029-.17-.379-.34-.64-.64-.989.97-.19,1.569-.39,2.189-.72.59-.33.969-.669,1.249-1.129h-1.899c-.549,0-.83.01-1.179.06v-1.06c.26.03.7.05,1.189.05h2.249c.06-.29.08-.5.09-.85h-1.839Zm0-3.368v.85h1.979v-.85h-1.979Zm0,1.669v.84h1.979v-.84h-1.979Zm5.117-.819v-.85h-2.109v.85h2.109Zm0,1.659v-.84h-2.109v.84h2.109Z"/>
      <path class="cls-22" d="m21.057,72.236c.26-.92.35-1.609.36-2.599l.81.1c-.06,1.229-.15,1.969-.37,2.799l-.799-.3Zm1.269,4.697c.05-.37.07-.79.07-1.259v-6.956c0-.44-.02-.72-.07-1.06h1.2c-.04.34-.06.61-.06,1.06v7.036c0,.509.02.819.06,1.179h-1.2Zm4.417-7.186v-1c0-.42-.02-.729-.07-1.06h1.209c-.05.34-.07.62-.07,1.06v1h1.169c.53,0,.85-.02,1.1-.06v1.109c-.33-.04-.7-.06-1.089-.06h-1.179v1.749h.999c.51,0,.8-.01,1.08-.05v1.08c-.26-.04-.609-.06-1.089-.06h-.989v2.119h1.359c.49,0,.88-.02,1.169-.06v1.129c-.35-.05-.709-.07-1.169-.07h-4.018c-.47,0-.83.02-1.179.07v-1.129c.28.04.689.06,1.179.06h1.589v-2.119h-.899c-.43,0-.85.02-1.109.06v-1.08c.07.01.09.01.16.02q-.41-.29-.899-.56c.25-.36.359-.57.529-1l-.58.28c-.16-.76-.22-.95-.459-1.489l.669-.32c.18.38.33.81.46,1.27.25-.75.43-1.709.43-2.309l1.069.2c-.03.11-.04.16-.07.36-.03.189-.1.6-.15.859h.849Zm-1.089.989c-.19.65-.39,1.14-.719,1.719.22.02.439.03.759.03h1.049v-1.749h-1.089Z"/>
    </g>
    <g>
      <path class="cls-22" d="m122.885,77.516c-1.049-.829-1.799-1.339-2.898-1.949-.6.53-1.319.959-2.159,1.279-.72.28-1.419.45-2.459.6-.17-.49-.31-.759-.53-1.079,1.09-.1,1.759-.25,2.459-.52.64-.25,1.189-.53,1.629-.839-.729-.36-.819-.4-1.909-.83-.16.22-.18.25-.35.49-.4-.2-.57-.27-1.119-.48.719-.879,1.189-1.619,1.729-2.749h-1.25c-.49,0-.879.02-1.179.06v-1.159c.33.04.7.06,1.179.06h1.699c.33-.86.55-1.579.629-2.089l1.299.18c-.07.15-.16.41-.25.7-.16.49-.26.78-.42,1.209h3.738c.51,0,.87-.02,1.18-.06v1.159c-.33-.04-.68-.06-1.149-.06h-.55c-.3,1.41-.709,2.349-1.429,3.278,1.219.67,1.879,1.089,2.908,1.839l-.799.959Zm-4.328-6.077c-.31.69-.53,1.1-.959,1.829.909.34,1.339.52,2.169.93.659-.8.999-1.539,1.269-2.759h-2.479Z"/>
      <path class="cls-22" d="m126.919,72.829c.26-.92.35-1.609.36-2.599l.81.1c-.06,1.229-.15,1.969-.37,2.799l-.799-.3Zm1.269,4.697c.05-.37.07-.79.07-1.259v-6.956c0-.44-.02-.72-.07-1.06h1.2c-.04.34-.06.61-.06,1.06v7.036c0,.509.02.819.06,1.179h-1.2Zm4.417-7.186v-1c0-.42-.02-.729-.07-1.06h1.209c-.05.34-.07.62-.07,1.06v1h1.169c.529,0,.85-.02,1.1-.06v1.109c-.33-.04-.7-.06-1.09-.06h-1.179v1.749h1c.51,0,.8-.01,1.079-.05v1.08c-.26-.04-.609-.06-1.089-.06h-.99v2.119h1.359c.49,0,.88-.02,1.17-.06v1.129c-.35-.05-.71-.07-1.17-.07h-4.018c-.47,0-.83.02-1.179.07v-1.129c.28.04.689.06,1.179.06h1.589v-2.119h-.899c-.43,0-.85.02-1.109.06v-1.08c.07.01.09.01.16.02q-.41-.29-.899-.56c.25-.36.359-.57.529-1l-.58.28c-.16-.76-.22-.95-.459-1.489l.669-.32c.18.38.33.81.46,1.27.25-.75.43-1.709.43-2.309l1.069.2c-.03.11-.04.16-.07.36-.03.189-.1.6-.15.859h.849Zm-1.089.989c-.19.65-.39,1.14-.719,1.719.22.02.439.03.759.03h1.049v-1.749h-1.089Z"/>
    </g>
    <g>
      <path class="cls-14" d="m18.666,167.702c.657.72,1.017,1.656,1.017,2.638,0,2.188-1.764,3.952-3.943,3.952s-3.952-1.773-3.952-3.952c0-1.134.45-2.143,1.305-2.926.702-.639,1.674-1.018,2.647-1.018,1.134,0,2.161.459,2.926,1.306Z"/>
      <path class="cls-14" d="m30.033,174.499c-.945-.747-1.621-1.207-2.611-1.755-.54.477-1.188.864-1.944,1.152-.648.252-1.278.405-2.215.54-.153-.441-.279-.684-.477-.972.981-.09,1.584-.225,2.215-.468.576-.225,1.071-.477,1.467-.756-.657-.324-.738-.36-1.72-.747-.144.198-.162.225-.315.441-.36-.18-.513-.243-1.008-.432.648-.792,1.071-1.458,1.558-2.476h-1.125c-.441,0-.792.018-1.062.054v-1.044c.297.036.63.054,1.062.054h1.53c.297-.774.495-1.422.567-1.881l1.17.162c-.063.135-.144.369-.225.63-.144.441-.234.703-.378,1.089h3.367c.459,0,.783-.018,1.062-.054v1.044c-.297-.036-.612-.054-1.036-.054h-.495c-.27,1.27-.639,2.116-1.287,2.953,1.098.604,1.692.981,2.62,1.657l-.72.864Zm-3.898-5.474c-.279.621-.478.99-.864,1.647.819.306,1.206.468,1.954.837.594-.72.9-1.387,1.143-2.485h-2.232Z"/>
      <path class="cls-14" d="m31.11,170.277c.234-.829.315-1.45.324-2.341l.729.09c-.054,1.107-.135,1.773-.333,2.521l-.72-.27Zm1.143,4.231c.045-.333.063-.711.063-1.134v-6.266c0-.396-.018-.648-.063-.955h1.081c-.036.306-.054.549-.054.955v6.338c0,.459.018.738.054,1.062h-1.081Zm3.979-6.473v-.9c0-.378-.018-.657-.063-.954h1.089c-.045.306-.063.558-.063.954v.9h1.053c.477,0,.765-.018.99-.054v1c-.297-.036-.63-.054-.981-.054h-1.062v1.576h.9c.459,0,.72-.009.973-.045v.973c-.234-.036-.549-.054-.981-.054h-.891v1.909h1.224c.441,0,.792-.018,1.053-.054v1.018c-.315-.045-.639-.063-1.053-.063h-3.619c-.423,0-.747.018-1.062.063v-1.018c.252.036.621.054,1.062.054h1.432v-1.909h-.811c-.387,0-.765.018-.999.054v-.973c.063.009.081.009.144.018q-.369-.261-.81-.504c.225-.324.324-.513.477-.9l-.522.252c-.144-.684-.198-.855-.414-1.341l.604-.288c.162.342.297.729.414,1.144.225-.675.387-1.54.387-2.08l.963.18c-.027.099-.036.144-.063.324-.027.171-.09.54-.135.774h.765Zm-.981.891c-.171.585-.351,1.026-.648,1.548.198.018.396.027.684.027h.945v-1.576h-.981Z"/>
      <path class="cls-22" d="m50.659,173.868c.054-.351.072-.702.072-1.17v-4.96h-.432c-.333,0-.594.018-.927.054v-1.144c.279.045.478.054.9.054h.828c.459,0,.594-.009.918-.045-.054.531-.072.945-.072,1.485v4.555c0,.478.018.801.072,1.17h-1.359Z"/>
      <path class="cls-22" d="m55.59,173.868c-.702,0-.846.009-1.161.045.054-.513.117-.828.234-1.152.243-.657.648-1.233,1.233-1.764.315-.279.585-.486,1.485-1.089.828-.567,1.081-.864,1.081-1.324,0-.612-.478-.99-1.243-.99-.522,0-.918.18-1.143.531-.153.216-.216.414-.279.828l-1.287-.153c.126-.684.288-1.053.621-1.44.45-.522,1.161-.801,2.062-.801,1.575,0,2.548.756,2.548,1.99,0,.594-.198,1.026-.639,1.44-.252.234-.342.306-1.513,1.107-.396.279-.846.657-1.071.9-.27.288-.378.468-.513.811h2.521c.567,0,1.017-.027,1.314-.072v1.188c-.423-.036-.784-.054-1.36-.054h-2.89Z"/>
      <path class="cls-22" d="m61.773,173.868c0,.774-.198,1.062-.927,1.351l-.324-.477c.549-.153.675-.315.684-.874h-.756v-1.314h1.323v1.314Z"/>
      <path class="cls-22" d="m68.074,172.266c-.333-.045-.522-.054-.9-.063h-.324v.639c0,.459.018.693.072,1.026h-1.278c.054-.315.072-.594.072-1.044v-.622h-2.494c-.531,0-.819.009-1.125.036v-1.107c.306-.333.405-.45.721-.828l2.133-2.611c.396-.477.54-.666.748-.99h1.215c-.054.522-.063.837-.063,1.521v2.953h.315c.36,0,.576-.018.909-.063v1.152Zm-2.35-2.944c0-.423.009-.711.045-1.08-.18.261-.288.405-.612.801l-1.729,2.143h2.296v-1.864Z"/>
      <path class="cls-22" d="m69.495,171.915c.117.414.198.558.423.738.297.234.657.351,1.089.351.891,0,1.458-.459,1.458-1.17,0-.414-.18-.756-.504-.945-.216-.126-.639-.216-1.035-.216s-.657.009-.963.045v-1.116c.288.036.486.045.874.045.9,0,1.431-.414,1.431-1.107,0-.621-.423-.972-1.188-.972-.441,0-.766.099-.981.279-.18.171-.27.324-.378.693l-1.287-.216c.225-.667.432-.981.855-1.288.459-.333,1.044-.495,1.765-.495,1.503,0,2.476.756,2.476,1.927,0,.54-.234,1.035-.621,1.323-.198.153-.396.225-.873.351.639.099.972.252,1.287.603.297.333.432.711.432,1.243,0,.486-.207.981-.54,1.314-.495.477-1.251.729-2.214.729-1.054,0-1.774-.27-2.287-.855-.225-.252-.342-.486-.504-1.008l1.287-.252Z"/>
      <path class="cls-22" d="m79.647,167.702c-.288.279-.549.648-.936,1.296-.954,1.593-1.432,2.971-1.675,4.87h-1.422c.297-1.503.567-2.368,1.089-3.484.414-.891.783-1.503,1.576-2.62h-2.782c-.531,0-.811.018-1.18.063v-1.188c.414.045.702.063,1.233.063h2.863c.675,0,.91-.009,1.233-.045v1.044Z"/>
      <path class="cls-22" d="m83.309,170.871c0-.306.009-.594.027-.991-.225.405-.423.685-.756,1.044-.153-.585-.225-.801-.405-1.107.685-.756,1.17-1.557,1.549-2.557.18-.486.27-.81.324-1.17l1.018.288c-.045.135-.063.18-.144.405-.225.684-.306.882-.63,1.575v5.105c0,.405.018.702.045,1.044h-1.08c.045-.369.054-.621.054-1.053v-2.583Zm3.961-3.655c0-.414-.018-.648-.063-.945h1.116c-.054.297-.063.513-.063.954v.829h1.125c.459,0,.72-.018.972-.054v1.026c-.405-.036-.675-.054-.963-.054h-1.134v1.684h1.404c.432,0,.72-.018,1.008-.054v1.036c-.306-.036-.621-.054-.99-.054h-1.422v1.873c0,.486.009.711.063,1.035h-1.116c.045-.324.063-.576.063-1.035v-1.873h-1.54c-.414,0-.738.018-1.008.054v-1.036c.261.036.576.054,1.008.054h1.54v-1.684h-1.242c-.225.531-.387.811-.729,1.314-.252-.27-.297-.306-.801-.648.414-.567.711-1.134.972-1.855.153-.441.243-.783.279-1.143l.99.252c-.063.207-.081.261-.162.54-.09.279-.126.396-.198.622h.891v-.837Z"/>
      <path class="cls-22" d="m95.289,175.345c-.504-.729-.711-1.098-.955-1.71-.36-.874-.522-1.738-.522-2.683,0-.783.117-1.548.351-2.241.243-.748.504-1.243,1.125-2.134l.954.612c-.522.756-.738,1.161-.936,1.792-.207.621-.306,1.278-.306,1.989,0,.703.099,1.359.288,1.954.198.612.414,1.018.936,1.783l-.936.639Z"/>
      <path class="cls-22" d="m102.201,172.266c-.333-.045-.522-.054-.9-.063h-.324v.639c0,.459.018.693.072,1.026h-1.278c.054-.315.072-.594.072-1.044v-.622h-2.494c-.531,0-.819.009-1.125.036v-1.107c.306-.333.405-.45.721-.828l2.133-2.611c.396-.477.54-.666.748-.99h1.215c-.054.522-.063.837-.063,1.521v2.953h.315c.36,0,.576-.018.909-.063v1.152Zm-2.35-2.944c0-.423.009-.711.045-1.08-.18.261-.288.405-.612.801l-1.729,2.143h2.296v-1.864Z"/>
      <path class="cls-22" d="m103.739,172.005c.081.261.144.378.27.522.252.306.63.459,1.107.459.891,0,1.477-.594,1.477-1.485,0-.882-.558-1.449-1.414-1.449-.441,0-.837.144-1.116.414-.126.126-.189.207-.27.405l-1.125-.108c.09-.639.099-.684.117-.936l.207-2.233c.009-.162.027-.468.036-.918.27.018.477.027.954.027h2.215c.621,0,.846-.009,1.251-.072v1.135c-.396-.054-.747-.072-1.242-.072h-2.116l-.144,1.576c-.009.072-.027.198-.054.378.441-.378.918-.549,1.539-.549.729,0,1.314.216,1.756.675.441.432.639.972.639,1.692,0,1.584-1.036,2.566-2.71,2.566-.891,0-1.558-.252-2.053-.783-.243-.261-.369-.477-.567-.981l1.242-.261Z"/>
      <path class="cls-22" d="m108.481,173.868v-1.314h1.314v1.314h-1.314Z"/>
      <path class="cls-22" d="m111.037,169.619c-.279-.288-.441-.729-.441-1.188,0-1.152.972-1.881,2.512-1.881,1.089,0,1.891.351,2.277.981.153.252.243.576.243.9,0,.837-.477,1.449-1.296,1.684.405.054.675.171.973.423.423.342.63.811.63,1.405,0,1.341-1.008,2.08-2.854,2.08-1.044,0-1.764-.225-2.277-.72-.333-.324-.522-.811-.522-1.351,0-.63.243-1.125.738-1.477.297-.207.522-.297.892-.36-.378-.099-.612-.234-.874-.495Zm3.628,2.232c0-.747-.585-1.197-1.557-1.197s-1.566.459-1.566,1.207c0,.738.576,1.17,1.548,1.17,1.008,0,1.575-.423,1.575-1.18Zm-2.863-3.295c0,.657.504,1.071,1.324,1.071.801,0,1.287-.405,1.287-1.062,0-.639-.504-1.044-1.305-1.044-.792,0-1.306.405-1.306,1.035Z"/>
      <path class="cls-22" d="m116.733,170.133c-.342-.333-.522-.882-.522-1.558,0-1.26.648-2.008,1.747-2.008.495,0,.918.162,1.215.459.342.333.522.873.522,1.548,0,.684-.18,1.224-.522,1.558-.306.306-.72.459-1.215.459-.504,0-.918-.153-1.225-.459Zm5.942-3.646l.468.36-5.672,7.256-.459-.369,5.663-7.247Zm-5.537,2.07c0,.828.288,1.278.819,1.278.522,0,.819-.45.819-1.26,0-.324-.063-.648-.162-.837-.153-.279-.36-.405-.657-.405-.522,0-.819.441-.819,1.224Zm3.835,4.997c-.342-.333-.522-.874-.522-1.558,0-.675.18-1.206.522-1.548.306-.297.729-.459,1.224-.459s.918.162,1.215.459c.342.333.522.873.522,1.548,0,.684-.18,1.225-.522,1.558-.306.306-.72.459-1.215.459-.504,0-.918-.153-1.224-.459Zm.648-2.512c-.162.225-.243.531-.243.936,0,.829.288,1.278.819,1.278.54,0,.819-.45.819-1.323,0-.36-.09-.684-.243-.9-.153-.198-.315-.279-.576-.279s-.432.081-.576.288Z"/>
      <path class="cls-22" d="m124.059,174.706c.522-.765.738-1.17.937-1.783.189-.603.288-1.242.288-1.954s-.099-1.368-.306-1.989c-.198-.63-.414-1.036-.936-1.792l.954-.612c.621.891.882,1.386,1.134,2.134.225.702.342,1.449.342,2.241,0,.955-.162,1.81-.513,2.683-.252.612-.459.981-.963,1.71l-.937-.639Z"/>
    </g>
  </g>
  <g>
    <path class="cls-25" d="m168.063,152.255c.657.72,1.018,1.656,1.018,2.638,0,2.188-1.765,3.952-3.943,3.952s-3.952-1.773-3.952-3.952c0-1.134.45-2.143,1.306-2.926.702-.64,1.675-1.018,2.646-1.018,1.135,0,2.161.459,2.926,1.306Z"/>
    <path class="cls-22" d="m175.307,158.422c.054-.351.072-.702.072-1.17v-4.96h-.433c-.333,0-.594.018-.927.054v-1.144c.278.045.477.054.9.054h.828c.459,0,.594-.009.918-.045-.054.531-.072.945-.072,1.485v4.555c0,.478.019.801.072,1.17h-1.359Z"/>
    <path class="cls-22" d="m180.347,157.837c-.271-.27-.478-.585-.595-.909-.233-.639-.351-1.342-.351-2.071,0-.954.216-1.944.549-2.494.486-.811,1.297-1.251,2.296-1.251.765,0,1.422.252,1.899.729.271.271.478.585.594.91.234.63.352,1.35.352,2.088,0,1.107-.243,2.08-.666,2.665-.504.702-1.252,1.062-2.188,1.062-.766,0-1.414-.252-1.891-.729Zm2.871-.693c.405-.423.631-1.26.631-2.313,0-1.044-.226-1.864-.631-2.305-.216-.243-.576-.378-.98-.378-.433,0-.748.144-1.009.459-.396.468-.594,1.206-.594,2.188,0,.945.171,1.729.459,2.143.279.396.657.585,1.152.585.396,0,.747-.135.972-.378Z"/>
    <path class="cls-22" d="m189.23,155.514c0-.459.009-.693.027-1.035-.36.531-.486.684-.918,1.125-.181-.531-.271-.729-.478-1.035.828-.828,1.377-1.629,1.81-2.674.18-.441.306-.864.351-1.179l1.026.351c-.278.756-.477,1.224-.837,1.917v4.987c0,.441.018.756.063,1.089h-1.107c.045-.306.062-.603.062-1.107v-2.439Zm4.223-1.414c.18,1.18.459,2.026.918,2.773.307.504.721.954.883.954.18,0,.297-.441.387-1.512.36.306.549.432.855.585-.207,1.54-.522,2.116-1.162,2.116-.432,0-.899-.315-1.377-.918-.792-.991-1.278-2.269-1.513-3.917l-.954.081c-.396.027-.621.054-.9.108l-.026-1.008c.144.009.216.009.278.009.172,0,.459-.018.685-.036l.819-.063c-.063-.72-.063-.81-.081-1.71,0-.18-.027-.513-.045-.666l1.089-.018c-.036.189-.045.369-.045.675,0,.531.019.91.09,1.63l1.927-.153c.531-.045.729-.072.981-.126l.027,1.017c-.145-.009-.207-.009-.262-.009-.144,0-.369.009-.666.036l-1.908.153Zm.945-3.232c.504.441.621.558,1.377,1.396l-.747.684c-.207-.306-.252-.351-.657-.792q-.423-.459-.675-.693l.702-.594Z"/>
    <path class="cls-22" d="m200.822,153.254v1.314h-1.313v-1.314h1.313Zm0,3.853v1.314h-1.313v-1.314h1.313Z"/>
    <path class="cls-22" d="m202.685,157.837c-.271-.27-.478-.585-.595-.909-.233-.639-.351-1.342-.351-2.071,0-.954.216-1.944.549-2.494.486-.811,1.297-1.251,2.296-1.251.765,0,1.422.252,1.899.729.271.271.478.585.594.91.234.63.352,1.35.352,2.088,0,1.107-.243,2.08-.666,2.665-.504.702-1.252,1.062-2.188,1.062-.766,0-1.414-.252-1.891-.729Zm2.871-.693c.405-.423.631-1.26.631-2.313,0-1.044-.226-1.864-.631-2.305-.216-.243-.576-.378-.98-.378-.433,0-.748.144-1.009.459-.396.468-.594,1.206-.594,2.188,0,.945.171,1.729.459,2.143.279.396.657.585,1.152.585.396,0,.747-.135.972-.378Z"/>
    <path class="cls-22" d="m208.346,158.422v-1.314h1.313v1.314h-1.313Z"/>
    <path class="cls-22" d="m211.352,154.173c-.279-.288-.441-.729-.441-1.188,0-1.152.972-1.881,2.512-1.881,1.089,0,1.891.351,2.277.981.153.252.243.576.243.9,0,.837-.477,1.449-1.296,1.684.404.054.675.171.972.423.424.342.631.811.631,1.405,0,1.341-1.009,2.08-2.854,2.08-1.044,0-1.765-.225-2.277-.72-.333-.324-.522-.811-.522-1.351,0-.63.243-1.125.738-1.477.297-.207.522-.297.892-.36-.378-.099-.612-.234-.873-.495Zm3.628,2.232c0-.747-.586-1.197-1.558-1.197s-1.566.459-1.566,1.207c0,.738.576,1.17,1.548,1.17,1.009,0,1.576-.423,1.576-1.18Zm-2.863-3.295c0,.657.504,1.071,1.323,1.071.802,0,1.288-.405,1.288-1.062,0-.64-.505-1.044-1.306-1.044-.792,0-1.306.405-1.306,1.035Z"/>
    <path class="cls-22" d="m217.499,154.686c-.342-.333-.521-.882-.521-1.558,0-1.26.647-2.008,1.746-2.008.495,0,.918.162,1.216.459.342.333.521.873.521,1.548,0,.684-.18,1.225-.521,1.558-.307.306-.721.459-1.216.459-.504,0-.918-.153-1.225-.459Zm5.942-3.646l.468.36-5.672,7.256-.459-.369,5.663-7.248Zm-5.537,2.071c0,.828.288,1.278.819,1.278.522,0,.819-.45.819-1.26,0-.324-.063-.648-.162-.837-.153-.279-.36-.405-.657-.405-.522,0-.819.441-.819,1.224Zm3.835,4.997c-.342-.333-.521-.873-.521-1.558,0-.675.18-1.206.521-1.548.307-.297.729-.459,1.225-.459s.918.162,1.216.459c.342.333.521.873.521,1.548,0,.685-.18,1.225-.521,1.558-.307.306-.721.459-1.216.459-.504,0-.918-.153-1.225-.459Zm.648-2.512c-.162.225-.243.531-.243.936,0,.829.288,1.279.819,1.279.54,0,.819-.45.819-1.324,0-.36-.09-.684-.243-.9-.153-.198-.315-.279-.576-.279s-.433.081-.576.288Z"/>
    <path class="cls-18" d="m168.063,168.255c.657.72,1.018,1.656,1.018,2.638,0,2.188-1.765,3.952-3.943,3.952s-3.952-1.773-3.952-3.952c0-1.134.45-2.143,1.306-2.926.702-.64,1.675-1.018,2.646-1.018,1.135,0,2.161.459,2.926,1.306Z"/>
    <path class="cls-22" d="m174.281,174.422c-.702,0-.847.009-1.161.045.054-.513.117-.828.233-1.152.243-.657.648-1.233,1.233-1.764.315-.279.586-.486,1.486-1.089.828-.567,1.08-.864,1.08-1.324,0-.612-.478-.99-1.242-.99-.522,0-.919.18-1.144.531-.153.216-.216.414-.279.828l-1.287-.153c.126-.684.288-1.053.621-1.44.45-.522,1.161-.801,2.062-.801,1.575,0,2.548.756,2.548,1.99,0,.594-.198,1.026-.64,1.44-.252.234-.342.306-1.512,1.107-.396.279-.847.657-1.071.9-.271.288-.379.468-.514.811h2.521c.567,0,1.018-.027,1.314-.072v1.188c-.423-.036-.783-.054-1.359-.054h-2.89Z"/>
    <path class="cls-22" d="m180.347,173.837c-.271-.27-.478-.585-.595-.909-.233-.639-.351-1.342-.351-2.071,0-.954.216-1.944.549-2.494.486-.811,1.297-1.251,2.296-1.251.765,0,1.422.252,1.899.729.271.271.478.585.594.91.234.63.352,1.35.352,2.088,0,1.107-.243,2.08-.666,2.665-.504.702-1.252,1.062-2.188,1.062-.766,0-1.414-.252-1.891-.729Zm2.871-.693c.405-.423.631-1.26.631-2.313,0-1.044-.226-1.864-.631-2.305-.216-.243-.576-.378-.98-.378-.433,0-.748.144-1.009.459-.396.468-.594,1.206-.594,2.188,0,.945.171,1.729.459,2.143.279.396.657.585,1.152.585.396,0,.747-.135.972-.378Z"/>
    <path class="cls-22" d="m189.23,171.514c0-.459.009-.693.027-1.035-.36.531-.486.684-.918,1.125-.181-.531-.271-.729-.478-1.035.828-.828,1.377-1.629,1.81-2.674.18-.441.306-.864.351-1.179l1.026.351c-.278.756-.477,1.224-.837,1.917v4.987c0,.441.018.756.063,1.089h-1.107c.045-.306.062-.603.062-1.107v-2.439Zm4.223-1.414c.18,1.18.459,2.026.918,2.773.307.504.721.954.883.954.18,0,.297-.441.387-1.512.36.306.549.432.855.585-.207,1.54-.522,2.116-1.162,2.116-.432,0-.899-.315-1.377-.918-.792-.991-1.278-2.269-1.513-3.917l-.954.081c-.396.027-.621.054-.9.108l-.026-1.008c.144.009.216.009.278.009.172,0,.459-.018.685-.036l.819-.063c-.063-.72-.063-.81-.081-1.71,0-.18-.027-.513-.045-.666l1.089-.018c-.036.189-.045.369-.045.675,0,.531.019.91.09,1.63l1.927-.153c.531-.045.729-.072.981-.126l.027,1.017c-.145-.009-.207-.009-.262-.009-.144,0-.369.009-.666.036l-1.908.153Zm.945-3.232c.504.441.621.558,1.377,1.396l-.747.684c-.207-.306-.252-.351-.657-.792q-.423-.459-.675-.693l.702-.594Z"/>
    <path class="cls-22" d="m200.822,169.254v1.314h-1.313v-1.314h1.313Zm0,3.853v1.314h-1.313v-1.314h1.313Z"/>
    <path class="cls-22" d="m204.053,174.422c.054-.351.072-.702.072-1.17v-4.96h-.433c-.333,0-.594.018-.927.054v-1.144c.278.045.477.054.9.054h.828c.459,0,.594-.009.918-.045-.054.531-.072.945-.072,1.485v4.555c0,.478.019.801.072,1.17h-1.359Z"/>
    <path class="cls-22" d="m209.444,172.468c.117.414.198.558.424.738.297.234.657.351,1.089.351.892,0,1.458-.459,1.458-1.17,0-.414-.18-.756-.504-.945-.216-.126-.639-.216-1.035-.216s-.657.009-.963.045v-1.116c.288.036.485.045.873.045.9,0,1.432-.414,1.432-1.107,0-.621-.424-.972-1.188-.972-.441,0-.766.099-.981.279-.18.171-.271.324-.378.693l-1.288-.216c.226-.667.433-.981.855-1.288.459-.333,1.045-.495,1.765-.495,1.504,0,2.476.756,2.476,1.927,0,.54-.233,1.035-.621,1.323-.198.153-.396.225-.873.351.639.099.973.252,1.287.603.297.333.433.711.433,1.243,0,.486-.207.981-.54,1.314-.495.477-1.252.729-2.215.729-1.054,0-1.773-.27-2.287-.855-.225-.252-.342-.486-.504-1.008l1.287-.252Z"/>
    <path class="cls-22" d="m214.754,174.422v-1.314h1.313v1.314h-1.313Z"/>
    <path class="cls-22" d="m218.417,172.684c.107.261.171.378.278.495.226.243.576.369,1.035.369.433,0,.766-.117,1.018-.369.45-.432.657-1.081.702-2.143-.171.252-.27.36-.477.513-.405.279-.864.414-1.459.414-1.494,0-2.448-.918-2.448-2.368,0-.918.405-1.666,1.144-2.116.414-.261.954-.396,1.575-.396,1.152,0,2.098.675,2.476,1.773.171.486.261,1.125.261,1.863,0,1.36-.359,2.548-.954,3.124-.477.477-1.062.684-1.918.684-.756,0-1.287-.162-1.737-.522-.306-.243-.477-.477-.738-.999l1.243-.324Zm2.826-3.16c0-.846-.621-1.449-1.513-1.449-.864,0-1.467.612-1.467,1.477,0,.873.558,1.44,1.432,1.44.882,0,1.548-.63,1.548-1.468Z"/>
    <path class="cls-22" d="m223.907,170.686c-.342-.333-.521-.882-.521-1.558,0-1.26.647-2.008,1.746-2.008.495,0,.918.162,1.216.459.342.333.521.873.521,1.548,0,.684-.18,1.225-.521,1.558-.307.306-.721.459-1.216.459-.504,0-.918-.153-1.225-.459Zm5.942-3.646l.468.36-5.672,7.256-.459-.369,5.663-7.248Zm-5.537,2.071c0,.828.288,1.278.819,1.278.522,0,.819-.45.819-1.26,0-.324-.063-.648-.162-.837-.153-.279-.36-.405-.657-.405-.522,0-.819.441-.819,1.224Zm3.835,4.997c-.342-.333-.521-.873-.521-1.558,0-.675.18-1.206.521-1.548.307-.297.729-.459,1.225-.459s.918.162,1.216.459c.342.333.521.873.521,1.548,0,.685-.18,1.225-.521,1.558-.307.306-.721.459-1.216.459-.504,0-.918-.153-1.225-.459Zm.648-2.512c-.162.225-.243.531-.243.936,0,.829.288,1.279.819,1.279.54,0,.819-.45.819-1.324,0-.36-.09-.684-.243-.9-.153-.198-.315-.279-.576-.279s-.433.081-.576.288Z"/>
    <path class="cls-1" d="m168.063,184.255c.657.72,1.018,1.656,1.018,2.638,0,2.188-1.765,3.952-3.943,3.952s-3.952-1.773-3.952-3.952c0-1.134.45-2.143,1.306-2.926.702-.64,1.675-1.018,2.646-1.018,1.135,0,2.161.459,2.926,1.306Z"/>
    <path class="cls-22" d="m174.29,188.468c.117.414.198.558.424.738.297.234.657.351,1.089.351.892,0,1.458-.459,1.458-1.17,0-.414-.18-.756-.504-.945-.216-.126-.639-.216-1.035-.216s-.657.009-.963.045v-1.116c.288.036.485.045.873.045.9,0,1.432-.414,1.432-1.107,0-.621-.424-.972-1.188-.972-.441,0-.766.099-.981.279-.18.171-.271.324-.378.693l-1.288-.216c.226-.667.433-.981.855-1.288.459-.333,1.045-.495,1.765-.495,1.504,0,2.476.756,2.476,1.927,0,.54-.233,1.035-.621,1.323-.198.153-.396.225-.873.351.639.099.973.252,1.287.603.297.333.433.711.433,1.243,0,.486-.207.981-.54,1.314-.495.477-1.252.729-2.215.729-1.054,0-1.773-.27-2.287-.855-.225-.252-.342-.486-.504-1.008l1.287-.252Z"/>
    <path class="cls-22" d="m180.347,189.837c-.271-.27-.478-.585-.595-.909-.233-.639-.351-1.342-.351-2.071,0-.954.216-1.944.549-2.494.486-.811,1.297-1.251,2.296-1.251.765,0,1.422.252,1.899.729.271.271.478.585.594.91.234.63.352,1.35.352,2.088,0,1.107-.243,2.08-.666,2.665-.504.702-1.252,1.062-2.188,1.062-.766,0-1.414-.252-1.891-.729Zm2.871-.693c.405-.423.631-1.26.631-2.313,0-1.044-.226-1.864-.631-2.305-.216-.243-.576-.378-.98-.378-.433,0-.748.144-1.009.459-.396.468-.594,1.206-.594,2.188,0,.945.171,1.729.459,2.143.279.396.657.585,1.152.585.396,0,.747-.135.972-.378Z"/>
    <path class="cls-22" d="m189.23,187.514c0-.459.009-.693.027-1.035-.36.531-.486.684-.918,1.125-.181-.531-.271-.729-.478-1.035.828-.828,1.377-1.629,1.81-2.674.18-.441.306-.864.351-1.179l1.026.351c-.278.756-.477,1.224-.837,1.917v4.987c0,.441.018.756.063,1.089h-1.107c.045-.306.062-.603.062-1.107v-2.439Zm4.223-1.414c.18,1.18.459,2.026.918,2.773.307.504.721.954.883.954.18,0,.297-.441.387-1.512.36.306.549.432.855.585-.207,1.54-.522,2.116-1.162,2.116-.432,0-.899-.315-1.377-.918-.792-.991-1.278-2.269-1.513-3.917l-.954.081c-.396.027-.621.054-.9.108l-.026-1.008c.144.009.216.009.278.009.172,0,.459-.018.685-.036l.819-.063c-.063-.72-.063-.81-.081-1.71,0-.18-.027-.513-.045-.666l1.089-.018c-.036.189-.045.369-.045.675,0,.531.019.91.09,1.63l1.927-.153c.531-.045.729-.072.981-.126l.027,1.017c-.145-.009-.207-.009-.262-.009-.144,0-.369.009-.666.036l-1.908.153Zm.945-3.232c.504.441.621.558,1.377,1.396l-.747.684c-.207-.306-.252-.351-.657-.792q-.423-.459-.675-.693l.702-.594Z"/>
    <path class="cls-22" d="m200.822,185.254v1.314h-1.313v-1.314h1.313Zm0,3.853v1.314h-1.313v-1.314h1.313Z"/>
    <path class="cls-22" d="m203.027,190.422c-.702,0-.847.009-1.161.045.054-.513.117-.828.233-1.152.243-.657.648-1.233,1.233-1.764.315-.279.586-.486,1.486-1.089.828-.567,1.08-.864,1.08-1.324,0-.612-.478-.99-1.242-.99-.522,0-.919.18-1.144.531-.153.216-.216.414-.279.828l-1.287-.153c.126-.684.288-1.053.621-1.44.45-.522,1.161-.801,2.062-.801,1.575,0,2.548.756,2.548,1.99,0,.594-.198,1.026-.64,1.44-.252.234-.342.306-1.512,1.107-.396.279-.847.657-1.071.9-.271.288-.379.468-.514.811h2.521c.567,0,1.018-.027,1.314-.072v1.188c-.423-.036-.783-.054-1.359-.054h-2.89Z"/>
    <path class="cls-22" d="m209.444,188.468c.117.414.198.558.424.738.297.234.657.351,1.089.351.892,0,1.458-.459,1.458-1.17,0-.414-.18-.756-.504-.945-.216-.126-.639-.216-1.035-.216s-.657.009-.963.045v-1.116c.288.036.485.045.873.045.9,0,1.432-.414,1.432-1.107,0-.621-.424-.972-1.188-.972-.441,0-.766.099-.981.279-.18.171-.271.324-.378.693l-1.288-.216c.226-.667.433-.981.855-1.288.459-.333,1.045-.495,1.765-.495,1.504,0,2.476.756,2.476,1.927,0,.54-.233,1.035-.621,1.323-.198.153-.396.225-.873.351.639.099.973.252,1.287.603.297.333.433.711.433,1.243,0,.486-.207.981-.54,1.314-.495.477-1.252.729-2.215.729-1.054,0-1.773-.27-2.287-.855-.225-.252-.342-.486-.504-1.008l1.287-.252Z"/>
    <path class="cls-22" d="m214.754,190.422v-1.314h1.313v1.314h-1.313Z"/>
    <path class="cls-22" d="m221.244,185.011c-.233-.657-.567-.909-1.206-.909s-1.107.315-1.413.937c-.226.468-.324.9-.369,1.593.485-.657,1.017-.9,1.926-.9.919,0,1.693.396,2.089,1.071.216.351.324.819.324,1.351,0,1.422-1.08,2.431-2.61,2.431-.721,0-1.387-.216-1.828-.594-.666-.576-1.044-1.656-1.044-3.016,0-1.107.279-2.17.738-2.782.531-.72,1.251-1.071,2.196-1.071.774,0,1.413.234,1.846.685.234.243.369.45.567.918l-1.216.288Zm-2.809,3.142c0,.819.639,1.422,1.521,1.422.522,0,.981-.234,1.233-.63.135-.208.207-.504.207-.819,0-.892-.531-1.414-1.423-1.414-.882,0-1.539.612-1.539,1.44Z"/>
    <path class="cls-22" d="m223.907,186.686c-.342-.333-.521-.882-.521-1.558,0-1.26.647-2.008,1.746-2.008.495,0,.918.162,1.216.459.342.333.521.873.521,1.548,0,.684-.18,1.225-.521,1.558-.307.306-.721.459-1.216.459-.504,0-.918-.153-1.225-.459Zm5.942-3.646l.468.36-5.672,7.256-.459-.369,5.663-7.248Zm-5.537,2.071c0,.828.288,1.278.819,1.278.522,0,.819-.45.819-1.26,0-.324-.063-.648-.162-.837-.153-.279-.36-.405-.657-.405-.522,0-.819.441-.819,1.224Zm3.835,4.997c-.342-.333-.521-.873-.521-1.558,0-.675.18-1.206.521-1.548.307-.297.729-.459,1.225-.459s.918.162,1.216.459c.342.333.521.873.521,1.548,0,.685-.18,1.225-.521,1.558-.307.306-.721.459-1.216.459-.504,0-.918-.153-1.225-.459Zm.648-2.512c-.162.225-.243.531-.243.936,0,.829.288,1.279.819,1.279.54,0,.819-.45.819-1.324,0-.36-.09-.684-.243-.9-.153-.198-.315-.279-.576-.279s-.433.081-.576.288Z"/>
    <path class="cls-24" d="m168.063,200.255c.657.72,1.018,1.656,1.018,2.638,0,2.188-1.765,3.952-3.943,3.952s-3.952-1.773-3.952-3.952c0-1.134.45-2.143,1.306-2.926.702-.64,1.675-1.018,2.646-1.018,1.135,0,2.161.459,2.926,1.306Z"/>
    <path class="cls-22" d="m178.828,204.819c-.334-.045-.522-.054-.9-.063h-.324v.639c0,.459.018.693.072,1.026h-1.279c.055-.315.072-.594.072-1.044v-.621h-2.493c-.531,0-.819.009-1.126.036v-1.107c.307-.333.405-.45.721-.828l2.134-2.611c.396-.477.54-.666.747-.99h1.215c-.054.522-.062.837-.062,1.521v2.953h.314c.36,0,.576-.018.91-.063v1.152Zm-2.351-2.944c0-.423.01-.711.046-1.08-.181.261-.289.405-.612.801l-1.729,2.143h2.295v-1.864Z"/>
    <path class="cls-22" d="m180.347,205.837c-.271-.27-.478-.585-.595-.909-.233-.639-.351-1.342-.351-2.071,0-.954.216-1.944.549-2.494.486-.811,1.297-1.251,2.296-1.251.765,0,1.422.252,1.899.729.271.271.478.585.594.91.234.63.352,1.35.352,2.088,0,1.107-.243,2.08-.666,2.665-.504.702-1.252,1.062-2.188,1.062-.766,0-1.414-.252-1.891-.729Zm2.871-.693c.405-.423.631-1.26.631-2.313,0-1.044-.226-1.864-.631-2.305-.216-.243-.576-.378-.98-.378-.433,0-.748.144-1.009.459-.396.468-.594,1.206-.594,2.188,0,.945.171,1.729.459,2.143.279.396.657.585,1.152.585.396,0,.747-.135.972-.378Z"/>
    <path class="cls-22" d="m189.23,203.514c0-.459.009-.693.027-1.035-.36.531-.486.684-.918,1.125-.181-.531-.271-.729-.478-1.035.828-.828,1.377-1.629,1.81-2.674.18-.441.306-.864.351-1.179l1.026.351c-.278.756-.477,1.224-.837,1.917v4.987c0,.441.018.756.063,1.089h-1.107c.045-.306.062-.603.062-1.107v-2.439Zm4.223-1.414c.18,1.18.459,2.026.918,2.773.307.504.721.954.883.954.18,0,.297-.441.387-1.512.36.306.549.432.855.585-.207,1.54-.522,2.116-1.162,2.116-.432,0-.899-.315-1.377-.918-.792-.991-1.278-2.269-1.513-3.917l-.954.081c-.396.027-.621.054-.9.108l-.026-1.008c.144.009.216.009.278.009.172,0,.459-.018.685-.036l.819-.063c-.063-.72-.063-.81-.081-1.71,0-.18-.027-.513-.045-.666l1.089-.018c-.036.189-.045.369-.045.675,0,.531.019.91.09,1.63l1.927-.153c.531-.045.729-.072.981-.126l.027,1.017c-.145-.009-.207-.009-.262-.009-.144,0-.369.009-.666.036l-1.908.153Zm.945-3.232c.504.441.621.558,1.377,1.396l-.747.684c-.207-.306-.252-.351-.657-.792q-.423-.459-.675-.693l.702-.594Z"/>
    <path class="cls-22" d="m200.822,201.254v1.314h-1.313v-1.314h1.313Zm0,3.853v1.314h-1.313v-1.314h1.313Z"/>
    <path class="cls-22" d="m203.027,206.422c-.702,0-.847.009-1.161.045.054-.513.117-.828.233-1.152.243-.657.648-1.233,1.233-1.764.315-.279.586-.486,1.486-1.089.828-.567,1.08-.864,1.08-1.324,0-.612-.478-.99-1.242-.99-.522,0-.919.18-1.144.531-.153.216-.216.414-.279.828l-1.287-.153c.126-.684.288-1.053.621-1.44.45-.522,1.161-.801,2.062-.801,1.575,0,2.548.756,2.548,1.99,0,.594-.198,1.026-.64,1.44-.252.234-.342.306-1.512,1.107-.396.279-.847.657-1.071.9-.271.288-.379.468-.514.811h2.521c.567,0,1.018-.027,1.314-.072v1.188c-.423-.036-.783-.054-1.359-.054h-2.89Z"/>
    <path class="cls-22" d="m209.444,204.468c.117.414.198.558.424.738.297.234.657.351,1.089.351.892,0,1.458-.459,1.458-1.17,0-.414-.18-.756-.504-.945-.216-.126-.639-.216-1.035-.216s-.657.009-.963.045v-1.116c.288.036.485.045.873.045.9,0,1.432-.414,1.432-1.107,0-.621-.424-.972-1.188-.972-.441,0-.766.099-.981.279-.18.171-.271.324-.378.693l-1.288-.216c.226-.667.433-.981.855-1.288.459-.333,1.045-.495,1.765-.495,1.504,0,2.476.756,2.476,1.927,0,.54-.233,1.035-.621,1.323-.198.153-.396.225-.873.351.639.099.973.252,1.287.603.297.333.433.711.433,1.243,0,.486-.207.981-.54,1.314-.495.477-1.252.729-2.215.729-1.054,0-1.773-.27-2.287-.855-.225-.252-.342-.486-.504-1.008l1.287-.252Z"/>
    <path class="cls-22" d="m214.754,206.422v-1.314h1.313v1.314h-1.313Z"/>
    <path class="cls-22" d="m222.477,200.255c-.288.279-.549.648-.937,1.296-.954,1.593-1.431,2.971-1.674,4.87h-1.423c.297-1.503.567-2.368,1.09-3.484.414-.891.783-1.503,1.575-2.62h-2.782c-.531,0-.81.018-1.179.063v-1.188c.414.045.702.063,1.233.063h2.862c.676,0,.909-.009,1.233-.045v1.044Z"/>
    <path class="cls-22" d="m223.907,202.686c-.342-.333-.521-.882-.521-1.558,0-1.26.647-2.008,1.746-2.008.495,0,.918.162,1.216.459.342.333.521.873.521,1.548,0,.684-.18,1.225-.521,1.558-.307.306-.721.459-1.216.459-.504,0-.918-.153-1.225-.459Zm5.942-3.646l.468.36-5.672,7.256-.459-.369,5.663-7.248Zm-5.537,2.071c0,.828.288,1.278.819,1.278.522,0,.819-.45.819-1.26,0-.324-.063-.648-.162-.837-.153-.279-.36-.405-.657-.405-.522,0-.819.441-.819,1.224Zm3.835,4.997c-.342-.333-.521-.873-.521-1.558,0-.675.18-1.206.521-1.548.307-.297.729-.459,1.225-.459s.918.162,1.216.459c.342.333.521.873.521,1.548,0,.685-.18,1.225-.521,1.558-.307.306-.721.459-1.216.459-.504,0-.918-.153-1.225-.459Zm.648-2.512c-.162.225-.243.531-.243.936,0,.829.288,1.279.819,1.279.54,0,.819-.45.819-1.324,0-.36-.09-.684-.243-.9-.153-.198-.315-.279-.576-.279s-.433.081-.576.288Z"/>
    <path class="cls-17" d="m168.063,216.255c.657.72,1.018,1.656,1.018,2.638,0,2.188-1.765,3.952-3.943,3.952s-3.952-1.773-3.952-3.952c0-1.134.45-2.143,1.306-2.926.702-.64,1.675-1.018,2.646-1.018,1.135,0,2.161.459,2.926,1.306Z"/>
    <path class="cls-22" d="m174.407,220.558c.081.261.145.378.271.522.252.306.63.459,1.107.459.891,0,1.476-.594,1.476-1.485,0-.882-.558-1.449-1.413-1.449-.441,0-.837.144-1.116.414-.126.126-.189.207-.271.405l-1.125-.108c.09-.639.099-.684.117-.936l.207-2.233c.009-.162.027-.468.036-.918.27.018.477.027.954.027h2.215c.621,0,.846-.009,1.251-.072v1.134c-.396-.054-.747-.072-1.242-.072h-2.115l-.145,1.576c-.009.072-.027.198-.054.378.441-.378.918-.549,1.539-.549.729,0,1.314.216,1.756.675.441.432.639.972.639,1.692,0,1.584-1.035,2.566-2.709,2.566-.892,0-1.558-.252-2.053-.783-.243-.261-.369-.477-.567-.981l1.242-.261Z"/>
    <path class="cls-22" d="m180.347,221.837c-.271-.27-.478-.585-.595-.909-.233-.639-.351-1.342-.351-2.071,0-.954.216-1.944.549-2.494.486-.811,1.297-1.251,2.296-1.251.765,0,1.422.252,1.899.729.271.271.478.585.594.91.234.63.352,1.35.352,2.088,0,1.107-.243,2.08-.666,2.665-.504.702-1.252,1.062-2.188,1.062-.766,0-1.414-.252-1.891-.729Zm2.871-.693c.405-.423.631-1.26.631-2.313,0-1.044-.226-1.864-.631-2.305-.216-.243-.576-.378-.98-.378-.433,0-.748.144-1.009.459-.396.468-.594,1.206-.594,2.188,0,.945.171,1.729.459,2.143.279.396.657.585,1.152.585.396,0,.747-.135.972-.378Z"/>
    <path class="cls-22" d="m189.23,219.514c0-.459.009-.693.027-1.035-.36.531-.486.684-.918,1.125-.181-.531-.271-.729-.478-1.035.828-.828,1.377-1.629,1.81-2.674.18-.441.306-.864.351-1.179l1.026.351c-.278.756-.477,1.224-.837,1.917v4.987c0,.441.018.756.063,1.089h-1.107c.045-.306.062-.603.062-1.107v-2.439Zm4.223-1.414c.18,1.18.459,2.026.918,2.773.307.504.721.954.883.954.18,0,.297-.441.387-1.512.36.306.549.432.855.585-.207,1.54-.522,2.116-1.162,2.116-.432,0-.899-.315-1.377-.918-.792-.991-1.278-2.269-1.513-3.917l-.954.081c-.396.027-.621.054-.9.108l-.026-1.008c.144.009.216.009.278.009.172,0,.459-.018.685-.036l.819-.063c-.063-.72-.063-.81-.081-1.71,0-.18-.027-.513-.045-.666l1.089-.018c-.036.189-.045.369-.045.675,0,.531.019.91.09,1.63l1.927-.153c.531-.045.729-.072.981-.126l.027,1.017c-.145-.009-.207-.009-.262-.009-.144,0-.369.009-.666.036l-1.908.153Zm.945-3.232c.504.441.621.558,1.377,1.396l-.747.684c-.207-.306-.252-.351-.657-.792q-.423-.459-.675-.693l.702-.594Z"/>
    <path class="cls-22" d="m200.822,217.254v1.314h-1.313v-1.314h1.313Zm0,3.853v1.314h-1.313v-1.314h1.313Z"/>
    <path class="cls-22" d="m204.053,222.422c.054-.351.072-.702.072-1.17v-4.96h-.433c-.333,0-.594.018-.927.054v-1.144c.278.045.477.054.9.054h.828c.459,0,.594-.009.918-.045-.054.531-.072.945-.072,1.485v4.555c0,.478.019.801.072,1.17h-1.359Z"/>
    <path class="cls-22" d="m213.639,216.255c-.288.279-.549.648-.937,1.296-.954,1.593-1.431,2.971-1.674,4.87h-1.423c.297-1.503.567-2.368,1.09-3.484.414-.891.783-1.503,1.575-2.62h-2.782c-.531,0-.81.018-1.179.063v-1.188c.414.045.702.063,1.233.063h2.862c.676,0,.909-.009,1.233-.045v1.044Z"/>
    <path class="cls-22" d="m214.754,222.422v-1.314h1.313v1.314h-1.313Z"/>
    <path class="cls-22" d="m222.477,216.255c-.288.279-.549.648-.937,1.296-.954,1.593-1.431,2.971-1.674,4.87h-1.423c.297-1.503.567-2.368,1.09-3.484.414-.891.783-1.503,1.575-2.62h-2.782c-.531,0-.81.018-1.179.063v-1.188c.414.045.702.063,1.233.063h2.862c.676,0,.909-.009,1.233-.045v1.044Z"/>
    <path class="cls-22" d="m223.907,218.686c-.342-.333-.521-.882-.521-1.558,0-1.26.647-2.008,1.746-2.008.495,0,.918.162,1.216.459.342.333.521.873.521,1.548,0,.684-.18,1.225-.521,1.558-.307.306-.721.459-1.216.459-.504,0-.918-.153-1.225-.459Zm5.942-3.646l.468.36-5.672,7.256-.459-.369,5.663-7.248Zm-5.537,2.071c0,.828.288,1.278.819,1.278.522,0,.819-.45.819-1.26,0-.324-.063-.648-.162-.837-.153-.279-.36-.405-.657-.405-.522,0-.819.441-.819,1.224Zm3.835,4.997c-.342-.333-.521-.873-.521-1.558,0-.675.18-1.206.521-1.548.307-.297.729-.459,1.225-.459s.918.162,1.216.459c.342.333.521.873.521,1.548,0,.685-.18,1.225-.521,1.558-.307.306-.721.459-1.216.459-.504,0-.918-.153-1.225-.459Zm.648-2.512c-.162.225-.243.531-.243.936,0,.829.288,1.279.819,1.279.54,0,.819-.45.819-1.324,0-.36-.09-.684-.243-.9-.153-.198-.315-.279-.576-.279s-.433.081-.576.288Z"/>
  </g>
  <g>
    <path class="cls-26" d="m241.711,152.255c.657.72,1.018,1.656,1.018,2.638,0,2.188-1.765,3.952-3.943,3.952s-3.952-1.773-3.952-3.952c0-1.135.45-2.143,1.306-2.926.702-.64,1.675-1.018,2.646-1.018,1.135,0,2.161.459,2.926,1.306Z"/>
    <path class="cls-22" d="m250.9,153.01c-.233-.657-.567-.909-1.206-.909s-1.107.315-1.413.937c-.226.468-.324.9-.369,1.594.485-.657,1.017-.9,1.926-.9.919,0,1.693.396,2.089,1.071.216.351.324.819.324,1.351,0,1.422-1.08,2.431-2.61,2.431-.721,0-1.387-.217-1.828-.595-.666-.576-1.044-1.656-1.044-3.016,0-1.107.279-2.17.738-2.782.531-.72,1.251-1.071,2.196-1.071.774,0,1.413.234,1.846.685.234.243.369.45.567.918l-1.216.288Zm-2.809,3.143c0,.818.64,1.422,1.521,1.422.522,0,.981-.234,1.233-.63.135-.207.207-.505.207-.819,0-.892-.531-1.414-1.423-1.414-.882,0-1.539.612-1.539,1.441Z"/>
    <path class="cls-22" d="m253.996,157.836c-.271-.27-.478-.585-.595-.909-.233-.639-.351-1.341-.351-2.07,0-.954.216-1.944.549-2.494.486-.81,1.297-1.251,2.296-1.251.765,0,1.422.252,1.899.729.271.27.478.585.594.909.234.63.352,1.351.352,2.089,0,1.106-.243,2.079-.666,2.664-.504.702-1.252,1.062-2.188,1.062-.766,0-1.414-.252-1.891-.729Zm2.872-.692c.404-.424.63-1.261.63-2.314,0-1.044-.226-1.863-.63-2.305-.217-.243-.576-.378-.981-.378-.433,0-.747.145-1.009.459-.396.469-.594,1.207-.594,2.188,0,.945.171,1.729.459,2.144.279.396.657.585,1.152.585.396,0,.747-.136.973-.378Z"/>
    <path class="cls-22" d="m262.878,155.513c0-.459.009-.693.027-1.035-.36.531-.486.684-.918,1.125-.181-.531-.271-.729-.478-1.035.828-.828,1.377-1.63,1.81-2.674.18-.441.306-.864.351-1.18l1.026.352c-.278.756-.477,1.225-.837,1.917v4.988c0,.44.018.756.063,1.089h-1.107c.045-.306.062-.603.062-1.107v-2.439Zm4.223-1.413c.18,1.179.459,2.025.918,2.772.307.504.721.954.883.954.18,0,.297-.441.387-1.513.36.307.549.433.855.586-.207,1.539-.522,2.115-1.161,2.115-.433,0-.9-.315-1.378-.918-.792-.99-1.278-2.269-1.513-3.916l-.954.081c-.396.026-.621.054-.9.107l-.026-1.008c.144.009.216.009.278.009.171,0,.46-.019.685-.036l.819-.062c-.063-.721-.063-.811-.081-1.711,0-.18-.027-.514-.045-.666l1.089-.019c-.036.189-.045.369-.045.676,0,.531.019.909.09,1.629l1.927-.152c.531-.046.729-.072.981-.126l.027,1.017c-.145-.009-.207-.009-.262-.009-.144,0-.369.009-.666.036l-1.908.153Zm.945-3.232c.504.441.621.559,1.377,1.396l-.747.685c-.207-.307-.252-.352-.657-.793q-.423-.459-.675-.692l.702-.595Z"/>
    <path class="cls-22" d="m274.471,153.254v1.314h-1.314v-1.314h1.314Zm0,3.854v1.314h-1.314v-1.314h1.314Z"/>
    <path class="cls-22" d="m277.702,158.422c.054-.352.072-.702.072-1.171v-4.96h-.433c-.333,0-.594.018-.927.054v-1.144c.278.045.477.054.9.054h.828c.459,0,.594-.009.918-.045-.054.531-.072.945-.072,1.486v4.555c0,.478.019.802.072,1.171h-1.359Z"/>
    <path class="cls-22" d="m283.083,158.422c-.702,0-.847.009-1.161.045.054-.514.117-.828.234-1.152.242-.657.647-1.233,1.232-1.765.315-.279.586-.486,1.486-1.09.828-.566,1.08-.864,1.08-1.323,0-.612-.478-.99-1.242-.99-.522,0-.919.181-1.144.531-.153.216-.216.414-.279.828l-1.287-.153c.126-.684.288-1.053.621-1.44.45-.521,1.161-.801,2.062-.801,1.575,0,2.548.756,2.548,1.989,0,.595-.198,1.026-.64,1.44-.252.234-.342.307-1.512,1.107-.396.279-.847.657-1.071.9-.271.288-.379.468-.514.811h2.521c.567,0,1.018-.027,1.314-.072v1.188c-.423-.036-.783-.054-1.359-.054h-2.89Z"/>
    <path class="cls-22" d="m288.403,158.422v-1.314h1.314v1.314h-1.314Z"/>
    <path class="cls-22" d="m294.892,153.01c-.233-.657-.567-.909-1.206-.909s-1.107.315-1.413.937c-.226.468-.324.9-.369,1.594.485-.657,1.017-.9,1.926-.9.919,0,1.693.396,2.089,1.071.216.351.324.819.324,1.351,0,1.422-1.08,2.431-2.61,2.431-.721,0-1.387-.217-1.828-.595-.666-.576-1.044-1.656-1.044-3.016,0-1.107.279-2.17.738-2.782.531-.72,1.251-1.071,2.196-1.071.774,0,1.413.234,1.846.685.234.243.369.45.567.918l-1.216.288Zm-2.809,3.143c0,.818.64,1.422,1.521,1.422.522,0,.981-.234,1.233-.63.135-.207.207-.505.207-.819,0-.892-.531-1.414-1.423-1.414-.882,0-1.539.612-1.539,1.441Z"/>
    <path class="cls-22" d="m297.555,154.685c-.342-.333-.521-.883-.521-1.558,0-1.261.647-2.008,1.746-2.008.495,0,.918.162,1.215.459.343.333.522.874.522,1.549,0,.685-.18,1.225-.522,1.558-.306.306-.72.459-1.215.459-.504,0-.918-.153-1.225-.459Zm5.942-3.646l.468.36-5.672,7.256-.459-.369,5.663-7.247Zm-5.537,2.071c0,.828.288,1.278.819,1.278.522,0,.819-.45.819-1.261,0-.324-.063-.648-.162-.837-.153-.279-.36-.405-.657-.405-.522,0-.819.441-.819,1.225Zm3.835,4.996c-.342-.333-.521-.873-.521-1.558,0-.675.18-1.206.521-1.548.307-.298.729-.46,1.225-.46s.918.162,1.216.46c.342.333.521.873.521,1.548,0,.685-.18,1.225-.521,1.558-.307.306-.721.459-1.216.459-.504,0-.918-.153-1.225-.459Zm.648-2.512c-.162.225-.243.531-.243.937,0,.828.288,1.278.819,1.278.54,0,.819-.45.819-1.323,0-.36-.09-.685-.243-.9-.153-.198-.315-.279-.576-.279s-.432.081-.576.288Z"/>
    <path class="cls-15" d="m241.711,168.255c.657.72,1.018,1.656,1.018,2.638,0,2.188-1.765,3.952-3.943,3.952s-3.952-1.773-3.952-3.952c0-1.135.45-2.143,1.306-2.926.702-.64,1.675-1.018,2.646-1.018,1.135,0,2.161.459,2.926,1.306Z"/>
    <path class="cls-22" d="m252.133,168.255c-.288.279-.549.648-.937,1.296-.954,1.594-1.431,2.971-1.674,4.871h-1.423c.297-1.504.567-2.368,1.09-3.484.414-.892.783-1.504,1.575-2.62h-2.782c-.531,0-.81.019-1.179.063v-1.188c.414.045.702.062,1.233.062h2.862c.676,0,.909-.009,1.233-.045v1.045Z"/>
    <path class="cls-22" d="m253.996,173.836c-.271-.27-.478-.585-.595-.909-.233-.639-.351-1.341-.351-2.07,0-.954.216-1.944.549-2.494.486-.81,1.297-1.251,2.296-1.251.765,0,1.422.252,1.899.729.271.27.478.585.594.909.234.63.352,1.351.352,2.089,0,1.106-.243,2.079-.666,2.664-.504.702-1.252,1.062-2.188,1.062-.766,0-1.414-.252-1.891-.729Zm2.872-.692c.404-.424.63-1.261.63-2.314,0-1.044-.226-1.863-.63-2.305-.217-.243-.576-.378-.981-.378-.433,0-.747.145-1.009.459-.396.469-.594,1.207-.594,2.188,0,.945.171,1.729.459,2.144.279.396.657.585,1.152.585.396,0,.747-.136.973-.378Z"/>
    <path class="cls-22" d="m262.878,171.513c0-.459.009-.693.027-1.035-.36.531-.486.684-.918,1.125-.181-.531-.271-.729-.478-1.035.828-.828,1.377-1.63,1.81-2.674.18-.441.306-.864.351-1.18l1.026.352c-.278.756-.477,1.225-.837,1.917v4.988c0,.44.018.756.063,1.089h-1.107c.045-.306.062-.603.062-1.107v-2.439Zm4.223-1.413c.18,1.179.459,2.025.918,2.772.307.504.721.954.883.954.18,0,.297-.441.387-1.513.36.307.549.433.855.586-.207,1.539-.522,2.115-1.161,2.115-.433,0-.9-.315-1.378-.918-.792-.99-1.278-2.269-1.513-3.916l-.954.081c-.396.026-.621.054-.9.107l-.026-1.008c.144.009.216.009.278.009.171,0,.46-.019.685-.036l.819-.062c-.063-.721-.063-.811-.081-1.711,0-.18-.027-.514-.045-.666l1.089-.019c-.036.189-.045.369-.045.676,0,.531.019.909.09,1.629l1.927-.152c.531-.046.729-.072.981-.126l.027,1.017c-.145-.009-.207-.009-.262-.009-.144,0-.369.009-.666.036l-1.908.153Zm.945-3.232c.504.441.621.559,1.377,1.396l-.747.685c-.207-.307-.252-.352-.657-.793q-.423-.459-.675-.692l.702-.595Z"/>
    <path class="cls-22" d="m274.471,169.254v1.314h-1.314v-1.314h1.314Zm0,3.854v1.314h-1.314v-1.314h1.314Z"/>
    <path class="cls-22" d="m279.646,169.01c-.233-.657-.567-.909-1.206-.909s-1.107.315-1.413.937c-.226.468-.324.9-.369,1.594.485-.657,1.017-.9,1.926-.9.919,0,1.693.396,2.089,1.071.216.351.324.819.324,1.351,0,1.422-1.08,2.431-2.61,2.431-.721,0-1.387-.217-1.828-.595-.666-.576-1.044-1.656-1.044-3.016,0-1.107.279-2.17.738-2.782.531-.72,1.251-1.071,2.196-1.071.774,0,1.413.234,1.846.685.234.243.369.45.567.918l-1.216.288Zm-2.809,3.143c0,.818.64,1.422,1.521,1.422.522,0,.981-.234,1.233-.63.135-.207.207-.505.207-.819,0-.892-.531-1.414-1.423-1.414-.882,0-1.539.612-1.539,1.441Z"/>
    <path class="cls-22" d="m281.995,174.422v-1.314h1.314v1.314h-1.314Z"/>
    <path class="cls-22" d="m290.059,172.819c-.333-.045-.521-.055-.899-.063h-.324v.64c0,.459.018.693.071,1.026h-1.278c.055-.315.072-.595.072-1.045v-.621h-2.493c-.531,0-.819.009-1.126.036v-1.107c.307-.333.405-.45.721-.828l2.134-2.61c.396-.478.54-.667.747-.991h1.215c-.054.522-.062.838-.062,1.521v2.953h.314c.36,0,.576-.018.909-.062v1.152Zm-2.35-2.944c0-.423.01-.711.045-1.08-.18.261-.287.405-.611.801l-1.729,2.143h2.295v-1.863Z"/>
    <path class="cls-22" d="m291.147,170.685c-.342-.333-.521-.883-.521-1.558,0-1.261.647-2.008,1.746-2.008.495,0,.918.162,1.215.459.343.333.522.874.522,1.549,0,.685-.18,1.225-.522,1.558-.306.306-.72.459-1.215.459-.504,0-.918-.153-1.225-.459Zm5.942-3.646l.468.36-5.672,7.256-.459-.369,5.663-7.247Zm-5.537,2.071c0,.828.288,1.278.819,1.278.522,0,.819-.45.819-1.261,0-.324-.063-.648-.162-.837-.153-.279-.36-.405-.657-.405-.522,0-.819.441-.819,1.225Zm3.835,4.996c-.342-.333-.521-.873-.521-1.558,0-.675.18-1.206.521-1.548.307-.298.729-.46,1.225-.46s.918.162,1.216.46c.342.333.521.873.521,1.548,0,.685-.18,1.225-.521,1.558-.307.306-.721.459-1.216.459-.504,0-.918-.153-1.225-.459Zm.648-2.512c-.162.225-.243.531-.243.937,0,.828.288,1.278.819,1.278.54,0,.819-.45.819-1.323,0-.36-.09-.685-.243-.9-.153-.198-.315-.279-.576-.279s-.432.081-.576.288Z"/>
    <path class="cls-16" d="m241.711,184.255c.657.72,1.018,1.656,1.018,2.638,0,2.188-1.765,3.952-3.943,3.952s-3.952-1.773-3.952-3.952c0-1.135.45-2.143,1.306-2.926.702-.64,1.675-1.018,2.646-1.018,1.135,0,2.161.459,2.926,1.306Z"/>
    <path class="cls-22" d="m247.417,186.172c-.279-.288-.441-.729-.441-1.188,0-1.152.972-1.881,2.512-1.881,1.089,0,1.891.351,2.277.981.153.252.243.576.243.899,0,.838-.477,1.45-1.296,1.684.404.055.675.172.972.424.424.342.631.81.631,1.404,0,1.341-1.009,2.079-2.854,2.079-1.044,0-1.765-.225-2.277-.72-.333-.324-.522-.811-.522-1.351,0-.63.243-1.125.738-1.477.297-.207.522-.297.892-.36-.378-.099-.612-.233-.873-.495Zm3.628,2.233c0-.748-.585-1.197-1.558-1.197s-1.566.459-1.566,1.206c0,.738.576,1.17,1.548,1.17,1.009,0,1.576-.423,1.576-1.179Zm-2.863-3.295c0,.657.504,1.071,1.323,1.071.802,0,1.288-.405,1.288-1.062,0-.64-.505-1.045-1.306-1.045-.792,0-1.306.405-1.306,1.036Z"/>
    <path class="cls-22" d="m253.996,189.836c-.271-.27-.478-.585-.595-.909-.233-.639-.351-1.341-.351-2.07,0-.954.216-1.944.549-2.494.486-.81,1.297-1.251,2.296-1.251.765,0,1.422.252,1.899.729.271.27.478.585.594.909.234.63.352,1.351.352,2.089,0,1.106-.243,2.079-.666,2.664-.504.702-1.252,1.062-2.188,1.062-.766,0-1.414-.252-1.891-.729Zm2.872-.692c.404-.424.63-1.261.63-2.314,0-1.044-.226-1.863-.63-2.305-.217-.243-.576-.378-.981-.378-.433,0-.747.145-1.009.459-.396.469-.594,1.207-.594,2.188,0,.945.171,1.729.459,2.144.279.396.657.585,1.152.585.396,0,.747-.136.973-.378Z"/>
    <path class="cls-22" d="m262.878,187.513c0-.459.009-.693.027-1.035-.36.531-.486.684-.918,1.125-.181-.531-.271-.729-.478-1.035.828-.828,1.377-1.63,1.81-2.674.18-.441.306-.864.351-1.18l1.026.352c-.278.756-.477,1.225-.837,1.917v4.988c0,.44.018.756.063,1.089h-1.107c.045-.306.062-.603.062-1.107v-2.439Zm4.223-1.413c.18,1.179.459,2.025.918,2.772.307.504.721.954.883.954.18,0,.297-.441.387-1.513.36.307.549.433.855.586-.207,1.539-.522,2.115-1.161,2.115-.433,0-.9-.315-1.378-.918-.792-.99-1.278-2.269-1.513-3.916l-.954.081c-.396.026-.621.054-.9.107l-.026-1.008c.144.009.216.009.278.009.171,0,.46-.019.685-.036l.819-.062c-.063-.721-.063-.811-.081-1.711,0-.18-.027-.514-.045-.666l1.089-.019c-.036.189-.045.369-.045.676,0,.531.019.909.09,1.629l1.927-.152c.531-.046.729-.072.981-.126l.027,1.017c-.145-.009-.207-.009-.262-.009-.144,0-.369.009-.666.036l-1.908.153Zm.945-3.232c.504.441.621.559,1.377,1.396l-.747.685c-.207-.307-.252-.352-.657-.793q-.423-.459-.675-.692l.702-.595Z"/>
    <path class="cls-22" d="m274.471,185.254v1.314h-1.314v-1.314h1.314Zm0,3.854v1.314h-1.314v-1.314h1.314Z"/>
    <path class="cls-22" d="m277.702,190.422c.054-.352.072-.702.072-1.171v-4.96h-.433c-.333,0-.594.018-.927.054v-1.144c.278.045.477.054.9.054h.828c.459,0,.594-.009.918-.045-.054.531-.072.945-.072,1.486v4.555c0,.478.019.802.072,1.171h-1.359Z"/>
    <path class="cls-22" d="m281.995,190.422v-1.314h1.314v1.314h-1.314Z"/>
    <path class="cls-22" d="m285.522,188.467c.117.414.198.559.424.738.297.234.656.352,1.089.352.892,0,1.458-.46,1.458-1.171,0-.414-.18-.756-.504-.945-.216-.126-.639-.216-1.035-.216s-.657.009-.963.045v-1.116c.288.036.485.045.873.045.9,0,1.432-.414,1.432-1.107,0-.621-.424-.972-1.188-.972-.441,0-.766.099-.981.278-.18.171-.271.324-.378.693l-1.288-.216c.226-.666.433-.981.855-1.287.459-.334,1.045-.495,1.765-.495,1.504,0,2.476.756,2.476,1.926,0,.54-.233,1.036-.621,1.324-.198.152-.396.225-.873.351.639.099.973.252,1.287.604.297.333.433.711.433,1.242,0,.486-.207.981-.54,1.314-.495.477-1.252.729-2.215.729-1.054,0-1.773-.271-2.287-.855-.225-.252-.342-.486-.504-1.009l1.287-.252Z"/>
    <path class="cls-22" d="m291.147,186.685c-.342-.333-.521-.883-.521-1.558,0-1.261.647-2.008,1.746-2.008.495,0,.918.162,1.215.459.343.333.522.874.522,1.549,0,.685-.18,1.225-.522,1.558-.306.306-.72.459-1.215.459-.504,0-.918-.153-1.225-.459Zm5.942-3.646l.468.36-5.672,7.256-.459-.369,5.663-7.247Zm-5.537,2.071c0,.828.288,1.278.819,1.278.522,0,.819-.45.819-1.261,0-.324-.063-.648-.162-.837-.153-.279-.36-.405-.657-.405-.522,0-.819.441-.819,1.225Zm3.835,4.996c-.342-.333-.521-.873-.521-1.558,0-.675.18-1.206.521-1.548.307-.298.729-.46,1.225-.46s.918.162,1.216.46c.342.333.521.873.521,1.548,0,.685-.18,1.225-.521,1.558-.307.306-.721.459-1.216.459-.504,0-.918-.153-1.225-.459Zm.648-2.512c-.162.225-.243.531-.243.937,0,.828.288,1.278.819,1.278.54,0,.819-.45.819-1.323,0-.36-.09-.685-.243-.9-.153-.198-.315-.279-.576-.279s-.432.081-.576.288Z"/>
    <path class="cls-20" d="m241.711,200.255c.657.72,1.018,1.656,1.018,2.638,0,2.188-1.765,3.952-3.943,3.952s-3.952-1.773-3.952-3.952c0-1.135.45-2.143,1.306-2.926.702-.64,1.675-1.018,2.646-1.018,1.135,0,2.161.459,2.926,1.306Z"/>
    <path class="cls-22" d="m248.074,204.683c.107.262.171.379.278.495.226.243.576.369,1.035.369.433,0,.766-.116,1.018-.369.45-.432.657-1.08.702-2.143-.171.252-.27.36-.477.514-.405.279-.864.414-1.459.414-1.494,0-2.448-.918-2.448-2.368,0-.918.405-1.665,1.143-2.115.415-.261.955-.396,1.576-.396,1.152,0,2.098.676,2.476,1.773.171.486.261,1.126.261,1.864,0,1.359-.359,2.548-.954,3.124-.478.477-1.062.684-1.917.684-.757,0-1.288-.162-1.738-.521-.306-.243-.477-.478-.738-1l1.243-.324Zm2.826-3.159c0-.847-.621-1.45-1.513-1.45-.864,0-1.467.612-1.467,1.477,0,.874.558,1.44,1.432,1.44.882,0,1.548-.63,1.548-1.467Z"/>
    <path class="cls-22" d="m253.996,205.836c-.271-.27-.478-.585-.595-.909-.233-.639-.351-1.341-.351-2.07,0-.954.216-1.944.549-2.494.486-.81,1.297-1.251,2.296-1.251.765,0,1.422.252,1.899.729.271.27.478.585.594.909.234.63.352,1.351.352,2.089,0,1.106-.243,2.079-.666,2.664-.504.702-1.252,1.062-2.188,1.062-.766,0-1.414-.252-1.891-.729Zm2.872-.692c.404-.424.63-1.261.63-2.314,0-1.044-.226-1.863-.63-2.305-.217-.243-.576-.378-.981-.378-.433,0-.747.145-1.009.459-.396.469-.594,1.207-.594,2.188,0,.945.171,1.729.459,2.144.279.396.657.585,1.152.585.396,0,.747-.136.973-.378Z"/>
    <path class="cls-22" d="m262.878,203.513c0-.459.009-.693.027-1.035-.36.531-.486.684-.918,1.125-.181-.531-.271-.729-.478-1.035.828-.828,1.377-1.63,1.81-2.674.18-.441.306-.864.351-1.18l1.026.352c-.278.756-.477,1.225-.837,1.917v4.988c0,.44.018.756.063,1.089h-1.107c.045-.306.062-.603.062-1.107v-2.439Zm4.223-1.413c.18,1.179.459,2.025.918,2.772.307.504.721.954.883.954.18,0,.297-.441.387-1.513.36.307.549.433.855.586-.207,1.539-.522,2.115-1.161,2.115-.433,0-.9-.315-1.378-.918-.792-.99-1.278-2.269-1.513-3.916l-.954.081c-.396.026-.621.054-.9.107l-.026-1.008c.144.009.216.009.278.009.171,0,.46-.019.685-.036l.819-.062c-.063-.721-.063-.811-.081-1.711,0-.18-.027-.514-.045-.666l1.089-.019c-.036.189-.045.369-.045.676,0,.531.019.909.09,1.629l1.927-.152c.531-.046.729-.072.981-.126l.027,1.017c-.145-.009-.207-.009-.262-.009-.144,0-.369.009-.666.036l-1.908.153Zm.945-3.232c.504.441.621.559,1.377,1.396l-.747.685c-.207-.307-.252-.352-.657-.793q-.423-.459-.675-.692l.702-.595Z"/>
    <path class="cls-22" d="m274.471,201.254v1.314h-1.314v-1.314h1.314Zm0,3.854v1.314h-1.314v-1.314h1.314Z"/>
    <path class="cls-22" d="m276.333,205.836c-.271-.27-.478-.585-.595-.909-.233-.639-.351-1.341-.351-2.07,0-.954.216-1.944.549-2.494.486-.81,1.297-1.251,2.296-1.251.765,0,1.422.252,1.899.729.271.27.478.585.594.909.234.63.352,1.351.352,2.089,0,1.106-.243,2.079-.666,2.664-.504.702-1.252,1.062-2.188,1.062-.766,0-1.414-.252-1.891-.729Zm2.872-.692c.404-.424.63-1.261.63-2.314,0-1.044-.226-1.863-.63-2.305-.217-.243-.576-.378-.981-.378-.433,0-.747.145-1.009.459-.396.469-.594,1.207-.594,2.188,0,.945.171,1.729.459,2.144.279.396.657.585,1.152.585.396,0,.747-.136.973-.378Z"/>
    <path class="cls-22" d="m281.995,206.422v-1.314h1.314v1.314h-1.314Z"/>
    <path class="cls-22" d="m285.171,205.836c-.271-.27-.478-.585-.595-.909-.233-.639-.351-1.341-.351-2.07,0-.954.216-1.944.549-2.494.486-.81,1.297-1.251,2.296-1.251.765,0,1.422.252,1.899.729.271.27.478.585.594.909.234.63.352,1.351.352,2.089,0,1.106-.243,2.079-.666,2.664-.504.702-1.252,1.062-2.188,1.062-.766,0-1.414-.252-1.891-.729Zm2.872-.692c.404-.424.63-1.261.63-2.314,0-1.044-.226-1.863-.63-2.305-.217-.243-.576-.378-.981-.378-.433,0-.747.145-1.009.459-.396.469-.594,1.207-.594,2.188,0,.945.171,1.729.459,2.144.279.396.657.585,1.152.585.396,0,.747-.136.973-.378Z"/>
    <path class="cls-22" d="m296.467,204.819c-.333-.045-.521-.055-.899-.063h-.324v.64c0,.459.018.693.071,1.026h-1.278c.055-.315.072-.595.072-1.045v-.621h-2.493c-.531,0-.819.009-1.126.036v-1.107c.307-.333.405-.45.721-.828l2.134-2.61c.396-.478.54-.667.747-.991h1.215c-.054.522-.062.838-.062,1.521v2.953h.314c.36,0,.576-.018.909-.062v1.152Zm-2.35-2.944c0-.423.01-.711.045-1.08-.18.261-.287.405-.611.801l-1.729,2.143h2.295v-1.863Z"/>
    <path class="cls-22" d="m297.555,202.685c-.342-.333-.521-.883-.521-1.558,0-1.261.647-2.008,1.746-2.008.495,0,.918.162,1.215.459.343.333.522.874.522,1.549,0,.685-.18,1.225-.522,1.558-.306.306-.72.459-1.215.459-.504,0-.918-.153-1.225-.459Zm5.942-3.646l.468.36-5.672,7.256-.459-.369,5.663-7.247Zm-5.537,2.071c0,.828.288,1.278.819,1.278.522,0,.819-.45.819-1.261,0-.324-.063-.648-.162-.837-.153-.279-.36-.405-.657-.405-.522,0-.819.441-.819,1.225Zm3.835,4.996c-.342-.333-.521-.873-.521-1.558,0-.675.18-1.206.521-1.548.307-.298.729-.46,1.225-.46s.918.162,1.216.46c.342.333.521.873.521,1.548,0,.685-.18,1.225-.521,1.558-.307.306-.721.459-1.216.459-.504,0-.918-.153-1.225-.459Zm.648-2.512c-.162.225-.243.531-.243.937,0,.828.288,1.278.819,1.278.54,0,.819-.45.819-1.323,0-.36-.09-.685-.243-.9-.153-.198-.315-.279-.576-.279s-.432.081-.576.288Z"/>
  </g>
  <g>
    <g class="cls-27">
      <g>
        <path class="cls-12" d="m233.025,72.539L231.764.304c.04,0,1.221-.011,1.261-.011v72.247Z"/>
        <path class="cls-5" d="m233.025,72.539L226.728.568c1.749-.153,3.28-.233,5.036-.264l1.261,72.236Z"/>
        <path class="cls-4" d="m233.025,72.539L201.354,7.604c8.607-4.198,15.834-6.202,25.374-7.037l6.297,71.972Z"/>
        <path class="cls-11" d="m233.025,72.539l-69.448-19.914c5.807-20.252,18.842-35.786,37.777-45.021l31.671,64.935Z"/>
        <path class="cls-6" d="m233.025,72.539l-48.343,53.69c-20.994-18.903-28.892-46.448-21.106-73.604l69.448,19.914Z"/>
        <path class="cls-10" d="m233.025,72.539l45.466,56.146c-28.156,22.8-66.885,21.786-93.809-2.456l48.343-53.69Z"/>
        <path class="cls-8" d="m233.025,72.539l57.699-43.479c23.437,31.101,18.032,75.118-12.232,99.626l-45.466-56.146Z"/>
        <path class="cls-7" d="m233.025,72.539L235.546.337c22.331.78,41.73,10.879,55.178,28.724l-57.699,43.479Z"/>
        <path class="cls-9" d="m233.025,72.539V.293c1.277,0,1.245,0,2.521.044l-2.521,72.203Z"/>
      </g>
      <circle class="cls-19" cx="233.343" cy="72.837" r="32.349"/>
      <g>
        <path class="cls-23" d="m219.345,71.5c0-.22-.01-.369-.029-.579.21.02.43.029.699.029h2.179v-1.299h-2.089c-.52.81-1.009,1.39-1.648,1.969-.29-.43-.4-.56-.74-.89,1.02-.869,1.539-1.529,1.949-2.509.14-.319.21-.529.24-.729l1.188.24c-.06.12-.079.149-.149.3-.01.03-.11.24-.29.63h4.678c.47,0,.72-.01,1.02-.05v1.089c-.311-.04-.57-.05-1.02-.05h-2.039v1.299h1.609c.46,0,.729-.01,1.029-.05v1.06c-.3-.03-.569-.04-1-.04h-1.639v1.619h2.318c.46,0,.78-.02,1.09-.06v1.139c-.31-.04-.66-.06-1.09-.06h-2.318v1.249c0,.51.01.78.06,1.069h-1.219c.04-.289.06-.56.06-1.089v-1.229h-3.357c-.44,0-.76.02-1.09.06v-1.139c.319.04.64.06,1.09.06h.509v-2.039Zm2.849,2.039v-1.619h-1.799v1.619h1.799Z"/>
        <path class="cls-23" d="m229.936,72.909c0-.51.01-.77.03-1.149-.4.59-.54.76-1.02,1.25-.2-.59-.3-.81-.53-1.149.92-.92,1.529-1.81,2.009-2.969.2-.489.34-.959.39-1.31l1.14.391c-.31.839-.529,1.358-.93,2.128v5.537c0,.49.021.84.07,1.21h-1.229c.05-.34.07-.67.07-1.229v-2.709Zm4.688-1.568c.199,1.309.51,2.248,1.02,3.078.34.56.799,1.06.979,1.06.199,0,.329-.49.43-1.68.399.34.609.479.949.649-.229,1.71-.58,2.35-1.289,2.35-.479,0-1-.351-1.529-1.02-.88-1.1-1.419-2.519-1.679-4.348l-1.06.09c-.44.029-.69.06-1,.12l-.029-1.12c.159.011.239.011.31.011.189,0,.51-.021.76-.04l.909-.07c-.07-.8-.07-.899-.09-1.899,0-.199-.03-.569-.05-.739l1.209-.02c-.04.21-.05.409-.05.749,0,.59.02,1.01.1,1.81l2.139-.17c.59-.051.81-.08,1.09-.141l.03,1.13c-.16-.01-.23-.01-.29-.01-.16,0-.41.01-.74.04l-2.118.17Zm1.049-3.589c.561.49.69.62,1.529,1.55l-.829.76c-.23-.34-.28-.391-.729-.88q-.47-.51-.75-.77l.779-.66Z"/>
        <path class="cls-23" d="m241.996,73.19c-.141.909-.29,1.449-.57,2.039-.31.629-.609,1.039-1.159,1.569-.26-.48-.38-.63-.749-.979.81-.7,1.159-1.38,1.379-2.629.109-.63.149-1.109.17-1.929-.59,0-.79.01-1.109.04.03-.351.04-.58.04-1.09v-1.209c0-.51-.01-.72-.04-1.1.31.04.67.05,1.249.05h2.02c.64,0,.949-.01,1.229-.05-.029.35-.04.569-.04,1.06v1.299c0,.61.011.81.04,1.04-.329-.03-.689-.04-1.259-.04h-1.05c-.01.539-.02.59-.04.969h1.38c.409,0,.68-.01.949-.05-.021.2-.021.3-.03.7,0,1.389-.1,2.618-.25,3.098-.17.54-.439.689-1.299.689-.22,0-.45-.01-.89-.05-.03-.449-.1-.739-.25-1.099.47.069.75.1,1.05.1.279,0,.39-.07.43-.27.09-.42.14-1.12.149-2.159h-1.349Zm-.939-2.868h2.318v-1.43h-2.318v1.43Zm5.327-2.109c-.051.33-.061.63-.061,1.22v3.777c0,.64.01.89.05,1.189h-1.149c.04-.29.051-.499.051-1.169v-3.798c0-.57-.021-.91-.061-1.22h1.17Zm2.198-.51c-.05.4-.069.79-.069,1.359v6.387c0,1.01-.28,1.209-1.739,1.209-.22,0-.36-.01-.83-.029-.08-.44-.17-.74-.34-1.12.58.07,1.069.101,1.359.101.38,0,.479-.061.479-.3v-6.247c0-.479-.02-.919-.069-1.359h1.209Z"/>
      </g>
    </g>
    <g>
      <path class="cls-22" d="m247.669,31.069c-.639,0-.77.008-1.057.041.049-.467.106-.754.213-1.049.222-.598.59-1.123,1.123-1.606.286-.254.532-.442,1.352-.991.754-.517.983-.787.983-1.205,0-.557-.435-.901-1.131-.901-.475,0-.836.164-1.04.483-.14.197-.197.377-.255.754l-1.171-.139c.114-.623.262-.959.565-1.311.409-.476,1.057-.729,1.876-.729,1.434,0,2.319.688,2.319,1.811,0,.541-.181.934-.582,1.311-.229.213-.312.278-1.377,1.008-.36.254-.771.598-.975.819-.246.262-.345.426-.468.737h2.295c.516,0,.926-.024,1.196-.065v1.082c-.385-.033-.713-.049-1.237-.049h-2.631Z"/>
      <path class="cls-22" d="m253.192,30.536c-.246-.246-.435-.533-.541-.828-.213-.582-.319-1.221-.319-1.885,0-.869.196-1.77.499-2.27.443-.738,1.181-1.139,2.09-1.139.696,0,1.295.229,1.729.664.246.246.435.533.541.828.213.574.32,1.229.32,1.901,0,1.008-.222,1.893-.606,2.426-.459.639-1.14.967-1.991.967-.697,0-1.287-.229-1.721-.664Zm2.613-.631c.369-.385.574-1.147.574-2.105,0-.951-.205-1.696-.574-2.098-.196-.221-.524-.344-.893-.344-.394,0-.681.131-.918.418-.36.426-.541,1.098-.541,1.991,0,.86.156,1.573.418,1.95.254.361.599.533,1.049.533.36,0,.68-.123.885-.344Z"/>
      <path class="cls-22" d="m261.277,28.422c0-.418.009-.631.025-.942-.328.483-.443.623-.836,1.024-.164-.483-.246-.664-.435-.942.754-.754,1.254-1.483,1.647-2.434.163-.401.278-.787.319-1.073l.934.319c-.254.688-.434,1.114-.762,1.745v4.54c0,.402.017.688.058.992h-1.008c.041-.279.057-.549.057-1.008v-2.221Zm3.844-1.287c.163,1.074.418,1.844.835,2.524.279.459.656.869.804.869.164,0,.271-.401.353-1.376.327.278.499.393.778.532-.188,1.401-.476,1.926-1.058,1.926-.393,0-.819-.287-1.254-.836-.721-.901-1.163-2.065-1.376-3.564l-.869.074c-.36.025-.565.049-.819.099l-.024-.918c.131.008.197.008.254.008.156,0,.418-.016.623-.033l.746-.057c-.058-.656-.058-.738-.074-1.557,0-.164-.024-.467-.041-.606l.991-.016c-.032.172-.041.336-.041.614,0,.483.017.828.082,1.483l1.754-.14c.483-.041.664-.065.893-.115l.025.926c-.132-.008-.188-.008-.238-.008-.131,0-.336.008-.606.033l-1.736.139Zm.86-2.941c.459.401.565.508,1.253,1.27l-.68.623c-.188-.278-.229-.319-.599-.721q-.385-.418-.614-.631l.64-.541Z"/>
    </g>
    <g>
      <path class="cls-22" d="m275.049,80.953c.106.377.18.508.385.672.271.213.599.319.992.319.811,0,1.327-.417,1.327-1.065,0-.377-.164-.688-.459-.86-.196-.115-.582-.197-.942-.197s-.599.008-.877.041v-1.016c.263.033.442.041.795.041.819,0,1.303-.377,1.303-1.008,0-.565-.385-.885-1.081-.885-.402,0-.697.09-.894.254-.164.156-.246.295-.344.631l-1.172-.197c.205-.606.394-.893.778-1.172.418-.303.95-.451,1.605-.451,1.369,0,2.254.688,2.254,1.754,0,.491-.213.942-.565,1.204-.181.14-.36.205-.795.32.582.09.885.229,1.172.549.271.303.394.647.394,1.131,0,.442-.188.893-.492,1.196-.45.435-1.139.664-2.016.664-.959,0-1.614-.246-2.081-.778-.205-.229-.312-.442-.459-.917l1.172-.229Z"/>
      <path class="cls-22" d="m280.563,82.198c-.246-.246-.435-.533-.541-.828-.213-.582-.319-1.221-.319-1.885,0-.869.196-1.77.499-2.27.443-.738,1.181-1.139,2.09-1.139.696,0,1.295.229,1.729.664.246.246.435.533.541.828.213.574.32,1.229.32,1.901,0,1.008-.222,1.893-.606,2.426-.459.639-1.14.967-1.991.967-.697,0-1.287-.229-1.721-.664Zm2.613-.631c.369-.385.574-1.147.574-2.105,0-.951-.205-1.696-.574-2.098-.196-.221-.524-.344-.893-.344-.394,0-.681.131-.918.418-.36.426-.541,1.098-.541,1.991,0,.86.156,1.573.418,1.95.254.361.599.533,1.049.533.36,0,.68-.123.885-.344Z"/>
      <path class="cls-22" d="m288.648,80.084c0-.418.009-.631.025-.942-.328.483-.443.623-.836,1.024-.164-.483-.246-.664-.435-.942.754-.754,1.254-1.483,1.647-2.434.163-.401.278-.787.319-1.073l.934.319c-.254.688-.434,1.114-.762,1.745v4.54c0,.402.017.688.058.992h-1.008c.041-.279.057-.549.057-1.008v-2.221Zm3.844-1.287c.163,1.074.418,1.844.835,2.524.279.459.656.869.804.869.164,0,.271-.401.353-1.376.327.278.499.393.778.532-.188,1.401-.476,1.926-1.058,1.926-.393,0-.819-.287-1.254-.836-.721-.901-1.163-2.065-1.376-3.564l-.869.074c-.36.025-.565.049-.819.099l-.024-.918c.131.008.197.008.254.008.156,0,.418-.016.623-.033l.746-.057c-.058-.656-.058-.738-.074-1.557,0-.164-.024-.467-.041-.606l.991-.016c-.032.172-.041.336-.041.614,0,.483.017.828.082,1.483l1.754-.14c.483-.041.664-.065.893-.115l.025.926c-.132-.008-.188-.008-.238-.008-.131,0-.336.008-.606.033l-1.736.139Zm.86-2.941c.459.401.565.508,1.253,1.27l-.68.623c-.188-.278-.229-.319-.599-.721q-.385-.418-.614-.631l.64-.541Z"/>
    </g>
    <g>
      <path class="cls-22" d="m225.176,126.275c-.304-.041-.476-.049-.819-.057h-.295v.582c0,.418.016.631.065.934h-1.164c.05-.287.065-.541.065-.95v-.565h-2.27c-.483,0-.745.008-1.024.033v-1.008c.279-.303.369-.41.656-.754l1.941-2.376c.36-.434.492-.606.681-.901h1.105c-.049.476-.057.762-.057,1.385v2.688h.286c.328,0,.524-.017.828-.058v1.049Zm-2.139-2.679c0-.385.008-.647.041-.983-.164.238-.263.369-.558.729l-1.573,1.95h2.09v-1.696Z"/>
      <path class="cls-22" d="m226.56,127.201c-.246-.246-.435-.533-.541-.828-.213-.582-.319-1.221-.319-1.885,0-.869.196-1.77.499-2.27.443-.738,1.181-1.139,2.09-1.139.696,0,1.295.229,1.729.664.246.246.435.533.541.828.213.574.32,1.229.32,1.901,0,1.008-.222,1.893-.606,2.426-.459.639-1.14.967-1.991.967-.697,0-1.287-.229-1.721-.664Zm2.613-.631c.369-.385.574-1.147.574-2.105,0-.951-.205-1.696-.574-2.098-.196-.221-.524-.344-.893-.344-.394,0-.681.131-.918.418-.36.426-.541,1.098-.541,1.991,0,.86.156,1.573.418,1.95.254.361.599.533,1.049.533.36,0,.68-.123.885-.344Z"/>
      <path class="cls-22" d="m234.645,125.087c0-.418.009-.631.025-.942-.328.483-.443.623-.836,1.024-.164-.483-.246-.664-.435-.942.754-.754,1.254-1.483,1.647-2.434.163-.401.278-.787.319-1.073l.934.319c-.254.688-.434,1.114-.762,1.745v4.54c0,.402.017.688.058.992h-1.008c.041-.279.057-.549.057-1.008v-2.221Zm3.844-1.287c.163,1.074.418,1.844.835,2.524.279.459.656.869.804.869.164,0,.271-.401.353-1.376.327.278.499.393.778.532-.188,1.401-.476,1.926-1.058,1.926-.393,0-.819-.287-1.254-.836-.721-.901-1.163-2.065-1.376-3.564l-.869.074c-.36.025-.565.049-.819.099l-.024-.918c.131.008.197.008.254.008.156,0,.418-.016.623-.033l.746-.057c-.058-.656-.058-.738-.074-1.557,0-.164-.024-.467-.041-.606l.991-.016c-.032.172-.041.336-.041.614,0,.483.017.828.082,1.483l1.754-.14c.483-.041.664-.065.893-.115l.025.926c-.132-.008-.188-.008-.238-.008-.131,0-.336.008-.606.033l-1.736.139Zm.86-2.941c.459.401.565.508,1.253,1.27l-.68.623c-.188-.278-.229-.319-.599-.721q-.385-.418-.614-.631l.64-.541Z"/>
    </g>
    <g>
      <path class="cls-22" d="m174.15,89.035c.073.237.131.344.246.475.229.279.573.418,1.008.418.811,0,1.344-.541,1.344-1.352,0-.803-.508-1.319-1.287-1.319-.401,0-.762.131-1.016.377-.114.115-.172.188-.246.369l-1.024-.098c.082-.582.091-.623.107-.852l.188-2.032c.008-.147.024-.426.032-.836.246.017.435.024.869.024h2.016c.565,0,.77-.008,1.139-.065v1.033c-.36-.049-.681-.066-1.131-.066h-1.926l-.131,1.434c-.008.065-.024.18-.049.344.401-.344.835-.5,1.4-.5.664,0,1.196.197,1.599.615.401.393.581.885.581,1.541,0,1.442-.942,2.335-2.466,2.335-.812,0-1.418-.229-1.868-.713-.222-.237-.336-.434-.517-.893l1.131-.237Z"/>
      <path class="cls-22" d="m179.557,90.199c-.246-.246-.435-.533-.541-.828-.213-.582-.319-1.221-.319-1.885,0-.869.196-1.77.499-2.27.443-.738,1.181-1.139,2.09-1.139.696,0,1.295.229,1.729.664.246.246.435.533.541.828.213.574.32,1.229.32,1.901,0,1.008-.222,1.893-.606,2.426-.459.639-1.14.967-1.991.967-.697,0-1.287-.229-1.721-.664Zm2.613-.631c.369-.385.574-1.147.574-2.105,0-.951-.205-1.696-.574-2.098-.196-.221-.524-.344-.893-.344-.394,0-.681.131-.918.418-.36.426-.541,1.098-.541,1.991,0,.86.156,1.573.418,1.95.254.361.599.533,1.049.533.36,0,.68-.123.885-.344Z"/>
      <path class="cls-22" d="m187.642,88.085c0-.418.009-.631.025-.942-.328.483-.443.623-.836,1.024-.164-.483-.246-.664-.435-.942.754-.754,1.254-1.483,1.647-2.434.163-.401.278-.787.319-1.073l.934.319c-.254.688-.434,1.114-.762,1.745v4.54c0,.402.017.688.058.992h-1.008c.041-.279.057-.549.057-1.008v-2.221Zm3.844-1.287c.163,1.074.418,1.844.835,2.524.279.459.656.869.804.869.164,0,.271-.401.353-1.376.327.278.499.393.778.532-.188,1.401-.476,1.926-1.058,1.926-.393,0-.819-.287-1.254-.836-.721-.901-1.163-2.065-1.376-3.564l-.869.074c-.36.025-.565.049-.819.099l-.024-.918c.131.008.197.008.254.008.156,0,.418-.016.623-.033l.746-.057c-.058-.656-.058-.738-.074-1.557,0-.164-.024-.467-.041-.606l.991-.016c-.032.172-.041.336-.041.614,0,.483.017.828.082,1.483l1.754-.14c.483-.041.664-.065.893-.115l.025.926c-.132-.008-.188-.008-.238-.008-.131,0-.336.008-.606.033l-1.736.139Zm.86-2.941c.459.401.565.508,1.253,1.27l-.68.623c-.188-.278-.229-.319-.599-.721q-.385-.418-.614-.631l.64-.541Z"/>
    </g>
    <g>
      <path class="cls-22" d="m186.005,38.423c-.213-.598-.516-.828-1.098-.828s-1.008.287-1.286.852c-.205.426-.295.819-.336,1.45.442-.598.926-.819,1.753-.819.836,0,1.541.361,1.901.975.196.32.295.746.295,1.229,0,1.294-.983,2.212-2.376,2.212-.656,0-1.262-.196-1.664-.541-.605-.524-.95-1.508-.95-2.745,0-1.008.254-1.975.672-2.532.483-.656,1.139-.975,1.999-.975.705,0,1.287.213,1.681.623.213.221.336.41.516.836l-1.106.262Zm-2.556,2.86c0,.746.581,1.294,1.385,1.294.475,0,.893-.213,1.122-.574.123-.188.188-.459.188-.746,0-.811-.483-1.287-1.295-1.287-.803,0-1.4.558-1.4,1.312Z"/>
      <path class="cls-22" d="m188.824,42.815c-.246-.246-.435-.533-.541-.828-.213-.582-.319-1.221-.319-1.885,0-.869.196-1.77.499-2.27.443-.738,1.181-1.139,2.09-1.139.696,0,1.295.229,1.729.664.246.246.435.533.541.828.213.574.32,1.229.32,1.901,0,1.008-.222,1.893-.606,2.426-.459.639-1.14.967-1.991.967-.697,0-1.287-.229-1.721-.664Zm2.613-.631c.369-.385.574-1.147.574-2.105,0-.951-.205-1.696-.574-2.098-.196-.221-.524-.344-.893-.344-.394,0-.681.131-.918.418-.36.426-.541,1.098-.541,1.991,0,.86.156,1.573.418,1.95.254.361.599.533,1.049.533.36,0,.68-.123.885-.344Z"/>
      <path class="cls-22" d="m196.909,40.701c0-.418.009-.631.025-.942-.328.483-.443.623-.836,1.024-.164-.483-.246-.664-.435-.942.754-.754,1.254-1.483,1.647-2.434.163-.401.278-.787.319-1.073l.934.319c-.254.688-.434,1.114-.762,1.745v4.54c0,.402.017.688.058.992h-1.008c.041-.279.057-.549.057-1.008v-2.221Zm3.844-1.287c.163,1.074.418,1.844.835,2.524.279.459.656.869.804.869.164,0,.271-.401.353-1.376.327.278.499.393.778.532-.188,1.401-.476,1.926-1.058,1.926-.393,0-.819-.287-1.254-.836-.721-.901-1.163-2.065-1.376-3.564l-.869.074c-.36.025-.565.049-.819.099l-.024-.918c.131.008.197.008.254.008.156,0,.418-.016.623-.033l.746-.057c-.058-.656-.058-.738-.074-1.557,0-.164-.024-.467-.041-.606l.991-.016c-.032.172-.041.336-.041.614,0,.483.017.828.082,1.483l1.754-.14c.483-.041.664-.065.893-.115l.025.926c-.132-.008-.188-.008-.238-.008-.131,0-.336.008-.606.033l-1.736.139Zm.86-2.941c.459.401.565.508,1.253,1.27l-.68.623c-.188-.278-.229-.319-.599-.721q-.385-.418-.614-.631l.64-.541Z"/>
    </g>
  </g>
  <g>
    <path class="cls-13" d="m18.931,151.545c.657.72,1.017,1.656,1.017,2.638,0,2.188-1.764,3.952-3.943,3.952s-3.952-1.773-3.952-3.952c0-1.134.45-2.143,1.305-2.926.702-.64,1.674-1.018,2.647-1.018,1.134,0,2.161.459,2.926,1.306Z"/>
    <path class="cls-13" d="m24.816,154.182q-.748.018-1.008.045c.036-.261.054-.477.054-.9v-2.08c0-.441-.018-.675-.045-.936.27.036.495.045.937.045h4.726c.441,0,.667-.009.937-.045-.027.261-.036.495-.036.936v2.08c0,.387.009.612.036.892-.279-.027-.558-.036-.882-.036h-2.053c-.027.333-.045.486-.09.765h2.34c.352,0,.622-.009.973-.036-.027.18-.036.279-.081.748-.063.72-.162,1.386-.261,1.701-.189.667-.531.837-1.656.837-.306,0-.415-.009-1.044-.045-.036-.342-.099-.612-.243-.981.72.09,1.008.117,1.414.117.603,0,.63-.036.783-1.486h-2.485c-.297.657-.738,1.18-1.359,1.63-.558.387-1.207.666-2.224.927-.153-.342-.306-.576-.576-.892.873-.171,1.414-.351,1.972-.648.531-.297.873-.603,1.125-1.018h-1.71c-.495,0-.747.009-1.062.054v-.954c.234.027.63.045,1.071.045h2.025c.054-.261.072-.45.081-.765h-1.656Zm0-3.034v.766h1.782v-.766h-1.782Zm0,1.503v.756h1.782v-.756h-1.782Zm4.609-.738v-.766h-1.9v.766h1.9Zm0,1.494v-.756h-1.9v.756h1.9Z"/>
    <path class="cls-13" d="m31.376,154.119c.234-.829.315-1.45.324-2.341l.729.09c-.054,1.107-.135,1.774-.333,2.521l-.72-.27Zm1.143,4.231c.045-.333.063-.711.063-1.134v-6.266c0-.396-.018-.648-.063-.955h1.081c-.036.306-.054.549-.054.955v6.338c0,.459.018.738.054,1.062h-1.081Zm3.979-6.473v-.9c0-.378-.018-.657-.063-.954h1.089c-.045.306-.063.558-.063.954v.9h1.053c.477,0,.765-.018.99-.054v1c-.297-.036-.63-.054-.981-.054h-1.062v1.576h.9c.459,0,.72-.009.973-.045v.973c-.234-.036-.549-.054-.981-.054h-.891v1.909h1.224c.441,0,.792-.018,1.053-.054v1.018c-.315-.045-.639-.063-1.053-.063h-3.619c-.423,0-.747.018-1.062.063v-1.018c.252.036.621.054,1.062.054h1.432v-1.909h-.811c-.387,0-.765.018-.999.054v-.973c.063.009.081.009.144.018q-.369-.261-.81-.504c.225-.324.324-.513.477-.9l-.522.252c-.144-.684-.198-.855-.414-1.341l.604-.288c.162.342.297.729.414,1.144.225-.675.387-1.54.387-2.08l.963.18c-.027.099-.036.144-.063.324-.027.171-.09.54-.135.774h.765Zm-.981.891c-.171.585-.351,1.026-.648,1.548.198.018.396.027.684.027h.945v-1.576h-.981Z"/>
    <path class="cls-22" d="m50.925,157.711c.054-.351.072-.702.072-1.17v-4.96h-.432c-.333,0-.594.018-.927.054v-1.144c.279.045.478.054.9.054h.828c.459,0,.594-.009.918-.045-.054.531-.072.945-.072,1.485v4.555c0,.478.018.801.072,1.17h-1.359Z"/>
    <path class="cls-22" d="m60.402,156.109c-.333-.045-.522-.054-.9-.063h-.324v.639c0,.459.018.693.072,1.026h-1.278c.054-.315.072-.594.072-1.044v-.621h-2.494c-.531,0-.819.009-1.125.036v-1.107c.306-.333.405-.45.721-.828l2.133-2.611c.396-.477.54-.666.748-.99h1.215c-.054.522-.063.837-.063,1.521v2.953h.315c.36,0,.576-.018.909-.063v1.152Zm-2.35-2.944c0-.423.009-.711.045-1.08-.18.261-.288.405-.612.801l-1.729,2.143h2.296v-1.864Z"/>
    <path class="cls-22" d="m62.039,157.711c0,.774-.198,1.062-.927,1.351l-.324-.477c.549-.153.675-.315.684-.874h-.756v-1.314h1.323v1.314Z"/>
    <path class="cls-22" d="m66.764,152.301c-.234-.657-.567-.909-1.206-.909s-1.107.315-1.414.937c-.225.468-.324.9-.369,1.593.486-.657,1.018-.9,1.927-.9.918,0,1.692.396,2.088,1.071.216.351.324.819.324,1.351,0,1.422-1.08,2.431-2.611,2.431-.72,0-1.386-.216-1.828-.594-.666-.576-1.044-1.656-1.044-3.016,0-1.107.279-2.17.738-2.782.531-.72,1.251-1.071,2.196-1.071.774,0,1.414.234,1.846.685.234.243.369.45.567.918l-1.216.288Zm-2.809,3.142c0,.819.639,1.422,1.521,1.422.522,0,.981-.234,1.233-.63.135-.208.207-.504.207-.819,0-.892-.531-1.414-1.422-1.414-.882,0-1.54.612-1.54,1.44Z"/>
    <path class="cls-22" d="m69.896,155.974c.108.261.171.378.279.495.225.243.576.369,1.035.369.432,0,.765-.117,1.017-.369.45-.432.657-1.081.702-2.143-.171.252-.27.36-.477.513-.405.279-.864.414-1.458.414-1.494,0-2.449-.918-2.449-2.368,0-.918.405-1.666,1.144-2.116.414-.261.954-.396,1.576-.396,1.152,0,2.098.675,2.476,1.773.171.486.261,1.125.261,1.863,0,1.36-.36,2.548-.955,3.124-.477.477-1.062.684-1.917.684-.756,0-1.288-.162-1.737-.522-.306-.243-.478-.477-.738-.999l1.242-.324Zm2.827-3.16c0-.846-.621-1.449-1.512-1.449-.864,0-1.467.612-1.467,1.477,0,.873.558,1.44,1.431,1.44.882,0,1.548-.63,1.548-1.468Z"/>
    <path class="cls-22" d="m75.709,157.711c-.702,0-.846.009-1.161.045.054-.513.117-.828.234-1.152.243-.657.648-1.233,1.233-1.764.315-.279.585-.486,1.485-1.089.828-.567,1.081-.864,1.081-1.324,0-.612-.478-.99-1.243-.99-.522,0-.918.18-1.143.531-.153.216-.216.414-.279.828l-1.287-.153c.126-.684.288-1.053.621-1.44.45-.522,1.161-.801,2.062-.801,1.576,0,2.548.756,2.548,1.99,0,.594-.198,1.026-.639,1.44-.252.234-.342.306-1.513,1.107-.396.279-.846.657-1.071.9-.27.288-.378.468-.513.811h2.521c.567,0,1.017-.027,1.314-.072v1.188c-.423-.036-.783-.054-1.359-.054h-2.89Z"/>
    <path class="cls-22" d="m83.574,154.714c0-.306.009-.594.027-.991-.225.405-.423.685-.756,1.044-.153-.585-.225-.801-.405-1.107.685-.756,1.17-1.557,1.549-2.557.18-.486.27-.81.324-1.17l1.018.288c-.045.135-.063.18-.144.405-.225.684-.306.882-.63,1.576v5.104c0,.405.018.702.045,1.044h-1.08c.045-.369.054-.621.054-1.053v-2.583Zm3.961-3.655c0-.414-.018-.648-.063-.945h1.116c-.054.297-.063.513-.063.954v.829h1.125c.459,0,.72-.018.972-.054v1.026c-.405-.036-.675-.054-.963-.054h-1.134v1.684h1.404c.432,0,.72-.018,1.008-.054v1.036c-.306-.036-.621-.054-.99-.054h-1.422v1.873c0,.486.009.711.063,1.035h-1.116c.045-.324.063-.576.063-1.035v-1.873h-1.54c-.414,0-.738.018-1.008.054v-1.036c.261.036.576.054,1.008.054h1.54v-1.684h-1.242c-.225.531-.387.811-.729,1.314-.252-.27-.297-.306-.801-.648.414-.567.711-1.135.972-1.854.153-.441.243-.784.279-1.144l.99.252c-.063.207-.081.261-.162.54-.09.279-.126.396-.198.622h.891v-.837Z"/>
    <path class="cls-22" d="m95.554,159.188c-.504-.729-.711-1.098-.955-1.71-.36-.874-.522-1.738-.522-2.683,0-.784.117-1.549.351-2.242.243-.748.504-1.243,1.125-2.134l.954.612c-.522.756-.738,1.161-.936,1.792-.207.621-.306,1.278-.306,1.989,0,.702.099,1.359.288,1.954.198.612.414,1.018.936,1.783l-.936.639Z"/>
    <path class="cls-22" d="m98.046,155.848c.081.261.144.378.27.522.252.306.63.459,1.107.459.891,0,1.477-.594,1.477-1.485,0-.882-.558-1.449-1.414-1.449-.441,0-.837.144-1.116.414-.126.126-.189.207-.27.405l-1.125-.108c.09-.639.099-.684.117-.936l.207-2.233c.009-.162.027-.468.036-.918.27.018.477.027.954.027h2.215c.621,0,.846-.009,1.251-.072v1.134c-.396-.054-.747-.072-1.242-.072h-2.116l-.144,1.576c-.009.072-.027.198-.054.378.441-.378.918-.549,1.539-.549.729,0,1.314.216,1.756.675.441.432.639.972.639,1.692,0,1.584-1.036,2.566-2.71,2.566-.891,0-1.558-.252-2.053-.783-.243-.261-.369-.477-.567-.981l1.242-.261Z"/>
    <path class="cls-22" d="m108.425,156.109c-.333-.045-.522-.054-.9-.063h-.324v.639c0,.459.018.693.072,1.026h-1.278c.054-.315.072-.594.072-1.044v-.621h-2.494c-.531,0-.819.009-1.125.036v-1.107c.306-.333.405-.45.721-.828l2.133-2.611c.396-.477.54-.666.748-.99h1.215c-.054.522-.063.837-.063,1.521v2.953h.315c.36,0,.576-.018.909-.063v1.152Zm-2.35-2.944c0-.423.009-.711.045-1.08-.18.261-.288.405-.612.801l-1.729,2.143h2.296v-1.864Z"/>
    <path class="cls-22" d="m108.747,157.711v-1.314h1.314v1.314h-1.314Z"/>
    <path class="cls-22" d="m111.815,157.711c-.702,0-.846.009-1.161.045.054-.513.117-.828.234-1.152.243-.657.648-1.233,1.233-1.764.315-.279.585-.486,1.485-1.089.828-.567,1.081-.864,1.081-1.324,0-.612-.478-.99-1.243-.99-.522,0-.918.18-1.143.531-.153.216-.216.414-.279.828l-1.287-.153c.126-.684.288-1.053.621-1.44.45-.522,1.161-.801,2.062-.801,1.576,0,2.548.756,2.548,1.99,0,.594-.198,1.026-.639,1.44-.252.234-.342.306-1.513,1.107-.396.279-.846.657-1.071.9-.27.288-.378.468-.513.811h2.521c.567,0,1.017-.027,1.314-.072v1.188c-.423-.036-.783-.054-1.359-.054h-2.89Z"/>
    <path class="cls-22" d="m116.999,153.975c-.342-.333-.522-.882-.522-1.558,0-1.26.648-2.008,1.747-2.008.495,0,.918.162,1.215.459.342.333.522.873.522,1.548,0,.684-.18,1.225-.522,1.558-.306.306-.72.459-1.215.459-.504,0-.918-.153-1.225-.459Zm5.942-3.646l.468.36-5.672,7.256-.459-.369,5.663-7.248Zm-5.537,2.071c0,.828.288,1.278.819,1.278.522,0,.819-.45.819-1.26,0-.324-.063-.648-.162-.837-.153-.279-.36-.405-.657-.405-.522,0-.819.441-.819,1.224Zm3.835,4.997c-.342-.333-.522-.873-.522-1.558,0-.675.18-1.206.522-1.548.306-.297.729-.459,1.224-.459s.918.162,1.215.459c.342.333.522.873.522,1.548,0,.685-.18,1.225-.522,1.558-.306.306-.72.459-1.215.459-.504,0-.918-.153-1.224-.459Zm.648-2.512c-.162.225-.243.531-.243.936,0,.829.288,1.279.819,1.279.54,0,.819-.45.819-1.324,0-.36-.09-.684-.243-.9-.153-.198-.315-.279-.576-.279s-.432.081-.576.288Z"/>
    <path class="cls-22" d="m124.325,158.549c.522-.765.738-1.17.937-1.783.189-.603.288-1.242.288-1.954s-.099-1.368-.306-1.989c-.198-.63-.414-1.036-.936-1.792l.954-.612c.621.891.882,1.386,1.134,2.134.225.702.342,1.449.342,2.242,0,.954-.162,1.809-.513,2.683-.252.612-.459.981-.963,1.71l-.937-.639Z"/>
  </g>
</svg>