<svg id="レイヤー_5" data-name="レイヤー 5" xmlns="http://www.w3.org/2000/svg" xmlns:xlink="http://www.w3.org/1999/xlink" viewBox="0 0 239 160"><defs><style>.cls-1{fill:#f8f5a9;}.cls-10,.cls-2,.cls-22,.cls-23{fill:none;}.cls-3{fill:url(#新規グラデーションスウォッチ_1);}.cls-4{fill:url(#新規グラデーションスウォッチ_1-2);}.cls-5{fill:url(#名称未設定グラデーション_184);}.cls-6{fill:#6a3906;}.cls-7{fill:#ea5514;}.cls-8{fill:url(#名称未設定グラデーション_122);}.cls-9{fill:#727171;}.cls-10{stroke:#f8b62d;}.cls-10,.cls-22,.cls-23{stroke-miterlimit:10;}.cls-11{fill:url(#名称未設定グラデーション_159);}.cls-12{fill:url(#名称未設定グラデーション_159-2);}.cls-13{fill:url(#名称未設定グラデーション_159-3);}.cls-14{fill:url(#名称未設定グラデーション_159-4);}.cls-15{fill:#f39800;}.cls-16{fill:url(#名称未設定グラデーション_187);}.cls-17{fill:url(#名称未設定グラデーション_195);}.cls-18{fill:#40220f;}.cls-19{fill:url(#新規グラデーションスウォッチ_1-3);}.cls-20{fill:url(#新規グラデーションスウォッチ_3);}.cls-21{fill:url(#新規グラデーションスウォッチ_3-2);}.cls-22,.cls-23{stroke:#40220f;}.cls-22{stroke-linecap:round;stroke-width:2px;}.cls-24{fill:url(#新規グラデーションスウォッチ_3-3);}.cls-25{fill:#006934;}.cls-26{fill:url(#名称未設定グラデーション_244);}.cls-27{fill:url(#名称未設定グラデーション_244-2);}.cls-28{fill:url(#名称未設定グラデーション_244-3);}.cls-29{fill:url(#名称未設定グラデーション_244-4);}.cls-30{fill:url(#名称未設定グラデーション_244-5);}.cls-31{fill:url(#名称未設定グラデーション_244-6);}.cls-32{fill:url(#名称未設定グラデーション_250);}.cls-33{fill:url(#名称未設定グラデーション_250-2);}.cls-34{fill:url(#名称未設定グラデーション_250-3);}.cls-35{fill:url(#名称未設定グラデーション_250-4);}.cls-36{fill:url(#名称未設定グラデーション_250-5);}.cls-37{fill:url(#名称未設定グラデーション_250-6);}.cls-38{opacity:0.86;fill:url(#新規グラデーションスウォッチ_3-4);}.cls-39{fill:url(#名称未設定グラデーション_244-7);}.cls-40{fill:url(#名称未設定グラデーション_250-7);}.cls-41{fill:#22ac38;}.cls-42{fill:#ea5217;}.cls-43{fill:url(#新規グラデーションスウォッチ_3-5);}.cls-44{fill:url(#名称未設定グラデーション_244-8);}.cls-45{fill:#1b8a3b;}</style><linearGradient id="新規グラデーションスウォッチ_1" x1="420.107" y1="433.692" x2="461.857" y2="433.692" gradientUnits="userSpaceOnUse"><stop offset="0" stop-color="#f6ac58"/><stop offset="1" stop-color="#fad4ca"/></linearGradient><linearGradient id="新規グラデーションスウォッチ_1-2" x1="259.844" y1="407.546" x2="315.357" y2="407.546" xlink:href="#新規グラデーションスウォッチ_1"/><linearGradient id="名称未設定グラデーション_184" x1="416.936" y1="464.68" x2="342.74" y2="336.169" gradientUnits="userSpaceOnUse"><stop offset="0" stop-color="#40220f"/><stop offset="1" stop-color="#956134"/></linearGradient><linearGradient id="名称未設定グラデーション_122" x1="312.16" y1="419.478" x2="290.858" y2="419.478" gradientTransform="translate(486.805 -62.741) rotate(56.727)" gradientUnits="userSpaceOnUse"><stop offset="0" stop-color="#fff"/><stop offset="0.352" stop-color="#eaf3da"/><stop offset="0.777" stop-color="#d4e7b4"/><stop offset="1" stop-color="#cce2a5"/></linearGradient><linearGradient id="名称未設定グラデーション_159" x1="271.955" y1="387.292" x2="263.997" y2="401.075" gradientTransform="translate(-87.476 60.408) rotate(-13.073)" gradientUnits="userSpaceOnUse"><stop offset="0.087" stop-color="#e3904e"/><stop offset="0.099" stop-color="#e69758"/><stop offset="0.132" stop-color="#eda66e"/><stop offset="0.172" stop-color="#f2b27f"/><stop offset="0.221" stop-color="#f5ba8a"/><stop offset="0.29" stop-color="#f7bf91"/><stop offset="0.481" stop-color="#f8c093"/><stop offset="0.574" stop-color="#f8bd8b"/><stop offset="0.719" stop-color="#f7b675"/><stop offset="0.866" stop-color="#f6ac58"/></linearGradient><linearGradient id="名称未設定グラデーション_159-2" x1="273.813" y1="378.876" x2="264.871" y2="394.365" gradientTransform="matrix(1, 0, 0, 1, 0, 0)" xlink:href="#名称未設定グラデーション_159"/><linearGradient id="名称未設定グラデーション_159-3" x1="287.238" y1="386.333" x2="278.296" y2="401.822" gradientTransform="matrix(1, 0, 0, 1, 0, 0)" xlink:href="#名称未設定グラデーション_159"/><linearGradient id="名称未設定グラデーション_159-4" x1="280.619" y1="381.984" x2="271.677" y2="397.473" gradientTransform="matrix(1, 0, 0, 1, 0, 0)" xlink:href="#名称未設定グラデーション_159"/><linearGradient id="名称未設定グラデーション_187" x1="336.784" y1="337.653" x2="329.69" y2="325.365" gradientUnits="userSpaceOnUse"><stop offset="0" stop-color="#f6ac58"/><stop offset="0.365" stop-color="#f6ad5a"/><stop offset="0.534" stop-color="#f6af62"/><stop offset="0.662" stop-color="#f7b46e"/><stop offset="0.77" stop-color="#f7ba81"/><stop offset="0.865" stop-color="#f8c398"/><stop offset="0.95" stop-color="#f9cdb5"/><stop offset="1" stop-color="#fad4ca"/></linearGradient><linearGradient id="名称未設定グラデーション_195" x1="403.221" y1="330.949" x2="399.97" y2="325.319" gradientUnits="userSpaceOnUse"><stop offset="0" stop-color="#f6ac58"/><stop offset="0.508" stop-color="#f4aa59"/><stop offset="0.742" stop-color="#eca25d"/><stop offset="0.92" stop-color="#e09664"/><stop offset="1" stop-color="#d78d69"/></linearGradient><linearGradient id="新規グラデーションスウォッチ_1-3" x1="341.725" y1="357.925" x2="387.637" y2="312.013" xlink:href="#新規グラデーションスウォッチ_1"/><linearGradient id="新規グラデーションスウォッチ_3" x1="327.702" y1="319.737" x2="335.678" y2="319.737" gradientUnits="userSpaceOnUse"><stop offset="0" stop-color="#fff"/><stop offset="0.084" stop-color="#f3f9f3"/><stop offset="0.306" stop-color="#d8ecd9"/><stop offset="0.532" stop-color="#c4e2c7"/><stop offset="0.761" stop-color="#b9ddbc"/><stop offset="1" stop-color="#b5dbb8"/></linearGradient><linearGradient id="新規グラデーションスウォッチ_3-2" x1="389.482" y1="320.616" x2="403.166" y2="320.616" xlink:href="#新規グラデーションスウォッチ_3"/><linearGradient id="新規グラデーションスウォッチ_3-3" x1="258.001" y1="462.181" x2="369.184" y2="462.181" xlink:href="#新規グラデーションスウォッチ_3"/><linearGradient id="名称未設定グラデーション_244" x1="296.276" y1="454.851" x2="276.878" y2="443.652" gradientUnits="userSpaceOnUse"><stop offset="0" stop-color="#d57200"/><stop offset="1" stop-color="#e6001f"/></linearGradient><linearGradient id="名称未設定グラデーション_244-2" x1="309.751" y1="459.995" x2="297.478" y2="452.91" xlink:href="#名称未設定グラデーション_244"/><linearGradient id="名称未設定グラデーション_244-3" x1="327.178" y1="465.477" x2="311.722" y2="456.554" xlink:href="#名称未設定グラデーション_244"/><linearGradient id="名称未設定グラデーション_244-4" x1="342.204" y1="464.461" x2="324.544" y2="454.264" xlink:href="#名称未設定グラデーション_244"/><linearGradient id="名称未設定グラデーション_244-5" x1="356.587" y1="460.905" x2="334.257" y2="448.013" xlink:href="#名称未設定グラデーション_244"/><linearGradient id="名称未設定グラデーション_244-6" x1="111.534" y1="133.594" x2="102.529" y2="128.395" xlink:href="#名称未設定グラデーション_244"/><linearGradient id="名称未設定グラデーション_250" x1="299.114" y1="459.821" x2="283.916" y2="451.047" gradientUnits="userSpaceOnUse"><stop offset="0" stop-color="#13ae67"/><stop offset="1" stop-color="#8fc31f"/></linearGradient><linearGradient id="名称未設定グラデーション_250-2" x1="317.37" y1="465.143" x2="305.792" y2="458.459" xlink:href="#名称未設定グラデーション_250"/><linearGradient id="名称未設定グラデーション_250-3" x1="335.898" y1="468.288" x2="319.842" y2="459.018" xlink:href="#名称未設定グラデーション_250"/><linearGradient id="名称未設定グラデーション_250-4" x1="351.849" y1="466.627" x2="334.004" y2="456.325" xlink:href="#名称未設定グラデーション_250"/><linearGradient id="名称未設定グラデーション_250-5" x1="85.16" y1="131.37" x2="74.873" y2="125.431" xlink:href="#名称未設定グラデーション_250"/><linearGradient id="名称未設定グラデーション_250-6" x1="106.608" y1="135.228" x2="91.574" y2="126.548" xlink:href="#名称未設定グラデーション_250"/><linearGradient id="新規グラデーションスウォッチ_3-4" x1="392.545" y1="447.459" x2="415.688" y2="447.459" xlink:href="#新規グラデーションスウォッチ_3"/><linearGradient id="名称未設定グラデーション_244-7" x1="392.605" y1="458.943" x2="415.469" y2="458.943" xlink:href="#名称未設定グラデーション_244"/><linearGradient id="名称未設定グラデーション_250-7" x1="411.685" y1="421.617" x2="397.288" y2="421.617" xlink:href="#名称未設定グラデーション_250"/><linearGradient id="新規グラデーションスウォッチ_3-5" x1="394.511" y1="465.474" x2="413.301" y2="465.474" xlink:href="#新規グラデーションスウォッチ_3"/><linearGradient id="名称未設定グラデーション_244-8" x1="399.64" y1="467.583" x2="407.468" y2="467.583" xlink:href="#名称未設定グラデーション_244"/></defs><rect class="cls-1" width="239" height="160"/><rect class="cls-2" width="239" height="160"/><path class="cls-3" d="M448.357,393.241c-22.25-1.055-28.25,17.305-28.25,17.305s22.95,32.289,22.95,33.789c0,.812-6.037,25.716,6.73,29.851h12.07V427.394Z" transform="translate(-222.857 -314.186)"/><path class="cls-4" d="M295.357,382.8s17.25,3.5,20,20.25c0,0-26,14-42.75,27.25,0,0-3.75,4.5-6,0s-10-15.25-5.25-26.75C261.357,403.546,277.107,405.546,295.357,382.8Z" transform="translate(-222.857 -314.186)"/><path class="cls-5" d="M293.513,384.546s12.351-16.75,16.1-29.25c0,0,24.5,1,38.121-2.25s43.875-2.125,43.875-2.125,17.625,4.375,42.25,2.125c0,0,15.25,40.375,16.375,42.125,0,0-21.625,3.75-25.75,14.75l-4.5,53-92-11.375s-.375-39-3.875-49.125l-10.25,3.314S307.3,385.671,293.513,384.546Z" transform="translate(-222.857 -314.186)"/><path class="cls-6" d="M345.46,446.513c-52.625-2.932-102.725,3.356-122.6,6.333v21.34h239V465.4C438.281,459.375,392.572,449.138,345.46,446.513Z" transform="translate(-222.857 -314.186)"/><path class="cls-7" d="M251.357,374.546c-1.089-.253-13,6.75-15.25,30.75,0,0,18,8,27.5,9.5s26.514,15.335,29.014,17.585l18.236-25.835s-16.75-2.166-26.75-12.833A65.723,65.723,0,0,0,251.357,374.546Z" transform="translate(-222.857 -314.186)"/><ellipse class="cls-8" cx="301.509" cy="419.478" rx="15.682" ry="7.509" transform="translate(-437.476 127.237) rotate(-56.727)"/><ellipse class="cls-9" cx="309.236" cy="409.932" rx="1.914" ry="0.876" transform="translate(-424.626 146.19) rotate(-58.608)"/><ellipse class="cls-9" cx="309.611" cy="414.807" rx="1.914" ry="0.876" transform="translate(-428.608 148.846) rotate(-58.608)"/><ellipse class="cls-9" cx="304.548" cy="410.619" rx="1.914" ry="0.876" transform="translate(-427.459 142.518) rotate(-58.608)"/><ellipse class="cls-9" cx="300.263" cy="414.013" rx="1.914" ry="0.876" transform="translate(-432.408 140.486) rotate(-58.608)"/><ellipse class="cls-9" cx="305.794" cy="414.807" rx="1.914" ry="0.876" transform="translate(-430.436 145.588) rotate(-58.608)"/><ellipse class="cls-9" cx="307.669" cy="419.807" rx="1.914" ry="0.876" transform="translate(-433.806 149.584) rotate(-58.608)"/><ellipse class="cls-9" cx="304.548" cy="424.619" rx="1.914" ry="0.876" transform="translate(-439.41 149.226) rotate(-58.608)"/><ellipse class="cls-9" cx="300.263" cy="428.807" rx="1.914" ry="0.876" transform="translate(-445.037 147.574) rotate(-58.608)"/><ellipse class="cls-9" cx="295.451" cy="430.504" rx="1.914" ry="0.876" transform="translate(-448.791 144.279) rotate(-58.608)"/><ellipse class="cls-9" cx="293.513" cy="426.004" rx="1.914" ry="0.876" transform="translate(-445.878 140.469) rotate(-58.608)"/><ellipse class="cls-9" cx="296.388" cy="419.066" rx="1.914" ry="0.876" transform="translate(-438.579 139.599) rotate(-58.608)"/><ellipse class="cls-9" cx="302.029" cy="419.807" rx="1.914" ry="0.876" transform="translate(-436.509 144.769) rotate(-58.608)"/><ellipse class="cls-9" cx="299.017" cy="424.619" rx="1.914" ry="0.876" transform="translate(-442.06 144.504) rotate(-58.608)"/><path class="cls-10" d="M271.864,411.359s-6.936-2.412-3.119-13.187" transform="translate(-222.857 -314.186)"/><polyline class="cls-10" points="68.203 94.609 63.209 104.41 55.898 100.684 60.892 90.883"/><line class="cls-10" x1="56.131" y1="88.457" x2="52.28" y2="92.574"/><line class="cls-10" x1="52.689" y1="86.703" x2="49.333" y2="90.043"/><polyline class="cls-10" points="41.383 87.502 39.042 92.095 34.64 89.852 37.137 84.951"/><line class="cls-10" x1="38.647" y1="87.778" x2="36.982" y2="91.045"/><line class="cls-10" x1="33.4" y1="81.925" x2="23.896" y2="77.081"/><path class="cls-11" d="M260.411,378.66s.921-3.411,4.065-2.657,3.605,2.246,3.382,4.239-2.658,5.319-2.658,5.319-.315,3.022-1.331,4.057-3,1.839-3.966,1.606a2.883,2.883,0,0,1-1.7-3.374,19.076,19.076,0,0,0,.392-4.162Z" transform="translate(-222.857 -314.186)"/><path class="cls-12" d="M268.119,380.447s1.875-3.5,5.125-1.875,3.375,3.375,2.625,5.5-4.262,5.147-4.262,5.147-1.113,3.228-2.488,4.1-3.75,1.25-4.75.75a3.24,3.24,0,0,1-1-4.125,21.439,21.439,0,0,0,1.488-4.456Z" transform="translate(-222.857 -314.186)"/><path class="cls-13" d="M281.357,387.8s1.875-3.5,5.125-1.875,3.375,3.375,2.625,5.5a44.772,44.772,0,0,1-3.686,6.5,19.389,19.389,0,0,1-3.064,2.75c-1.375.875-3.75,1.25-4.75.75a3.24,3.24,0,0,1-1-4.125,23.434,23.434,0,0,1,2.625-3.583Z" transform="translate(-222.857 -314.186)"/><path class="cls-14" d="M274.738,383.447s1.875-3.5,5.125-1.875,3.375,3.375,2.625,5.5a44.772,44.772,0,0,1-3.686,6.5,19.389,19.389,0,0,1-3.064,2.75c-1.375.875-3.75,1.25-4.75.75a3.24,3.24,0,0,1-1-4.125,31.413,31.413,0,0,0,1.619-3.728Z" transform="translate(-222.857 -314.186)"/><path class="cls-15" d="M260.482,418.3s8.75,1.375,11.5,3,7-.125,5.375-3-14.347-6.125-14.347-6.125-4.64.25-4.9,2.25S258.653,417.98,260.482,418.3Z" transform="translate(-222.857 -314.186)"/><path class="cls-15" d="M352.857,359.8s4.5,15,17,14.125,23.125-13.125,23.25-14.125,0-8,0-8Z" transform="translate(-222.857 -314.186)"/><path class="cls-16" d="M336.107,331.046s-4.75-8.25-7.25-5,5.5,9.976,9,10.988Z" transform="translate(-222.857 -314.186)"/><path class="cls-17" d="M396.607,328.046s6-5.5,9-4.75-4.75,8.75-7.75,10.75Z" transform="translate(-222.857 -314.186)"/><path class="cls-18" d="M355.107,383.579s2.5-8.358,9.274-10.358c0,0-8.024-6.675-11.024-15.175h-3.5S349.857,371.362,355.107,383.579Z" transform="translate(-222.857 -314.186)"/><path class="cls-18" d="M377.107,372.192c-.6-.253,13.6-11.586,17.179-19.845.535-1.236.32.317.32-.877a62.807,62.807,0,0,1-7.774,32.109S381.857,374.192,377.107,372.192Z" transform="translate(-222.857 -314.186)"/><path class="cls-19" d="M342.357,357.3s-.75,3.25,5.75,3.5,8.75,1.75,11.75,2.75,12.25,2.75,17.75,0a27.772,27.772,0,0,1,9.75-3,6.889,6.889,0,0,0,5.5-4.5c1.75-4.25,8.5-22.25,6.5-29-1.125-3.8-5.732-9.018-9.546-12.86h-54.5C334.073,321.774,332.744,339.39,342.357,357.3Z" transform="translate(-222.857 -314.186)"/><path class="cls-20" d="M327.784,314.186c-.948,6.6,6.67,11.1,6.67,11.1l1.224-11.1Z" transform="translate(-222.857 -314.186)"/><path class="cls-21" d="M403.166,314.186H389.482c3.843,4.622,9.875,12.86,9.875,12.86C401.182,324.916,402.451,318.717,403.166,314.186Z" transform="translate(-222.857 -314.186)"/><path class="cls-22" d="M344.107,327.046s3.25,3.75,4.25,7" transform="translate(-222.857 -314.186)"/><path class="cls-22" d="M373.607,328.636s3.5,6.136,3.5,8.4" transform="translate(-222.857 -314.186)"/><path class="cls-23" d="M355.857,331.161s-1.02,11.135,2.615,17.385a17.425,17.425,0,0,1,8.615-4.75" transform="translate(-222.857 -314.186)"/><path class="cls-23" d="M353.357,344.546s-3,2-1.75,9.5" transform="translate(-222.857 -314.186)"/><path class="cls-23" d="M373.607,342.8s2.987.274,3.5,12.75" transform="translate(-222.857 -314.186)"/><path class="cls-23" d="M355.725,352.546s4.382,7.75,15.132,0" transform="translate(-222.857 -314.186)"/><circle class="cls-18" cx="146.327" cy="65.178" r="3.097"/><circle class="cls-18" cx="146.327" cy="75.958" r="3.097"/><path class="cls-24" d="M258.113,458.8c-.886,2.478,2.7,9.9,38.94,15.39H360.3c7.9-2.907,8.886-6.64,8.886-6.64-9.923-7.75-12.065-7.562-55.077-15.123S258.113,458.8,258.113,458.8Z" transform="translate(-222.857 -314.186)"/><ellipse class="cls-25" cx="91.249" cy="138.672" rx="29.249" ry="10.209"/><path class="cls-26" d="M275.107,458.8s-4-6.246-3.25-6.373,7.25-5.127,13-6.877,12.914-6,12.914-6l3.012,7.5S279.357,453.546,275.107,458.8Z" transform="translate(-222.857 -314.186)"/><path class="cls-27" d="M296.7,465.546s4.527-8.5,10.343-9.25,7.067-3.873,7.067-3.873l-3.25-4.877s-14.945,6-16.1,10.25S296.7,465.546,296.7,465.546Z" transform="translate(-222.857 -314.186)"/><path class="cls-28" d="M322.857,453.8l-8.75-1.373s-.25,12.623,2.75,15.873a8.52,8.52,0,0,0,7.25,2.5S319.107,462.3,322.857,453.8Z" transform="translate(-222.857 -314.186)"/><path class="cls-29" d="M325.607,452.423l8.843-3.252s.907,4.875,3.407,7.375,4.25,9.25,2.5,11l-5.907,3.25s4.364-5.048-1.115-9.149A25.934,25.934,0,0,1,325.607,452.423Z" transform="translate(-222.857 -314.186)"/><path class="cls-30" d="M352.857,464.046,335.1,451.593v-5.047l2.754-1.75s5,6.254,10,7.627,8.774,5.248,9.262,7.561Z" transform="translate(-222.857 -314.186)"/><polygon class="cls-31" points="101.25 130.61 107.5 127.11 112.246 132.36 106.748 134.985 101.25 130.61"/><path class="cls-32" d="M285.107,465.546l-6-5.562s4.256-10.688,10.378-12.438,8.286-2.312,8.286-2.312l6.777,5.176S288.357,461.046,285.107,465.546Z" transform="translate(-222.857 -314.186)"/><path class="cls-33" d="M305.794,469.3c-.187-.75-2.57-4.25,1.246-13l7.067-3.873s-1.25,12.873,0,18.373Z" transform="translate(-222.857 -314.186)"/><path class="cls-34" d="M328.107,473.713s-6.5-10.917-5.25-19.917l2.75-1.373s6.614,7.873,7.728,13.123l1.115,5.25Z" transform="translate(-222.857 -314.186)"/><path class="cls-35" d="M335.1,454.421l2.754-4.375s12.5,5.25,13.75,17l-7.5,3.75S343.6,459.8,335.1,454.421Z" transform="translate(-222.857 -314.186)"/><polygon class="cls-36" points="74.914 125.36 82.937 125.36 86.754 128.61 80.418 133.36 74.914 125.36"/><polyline class="cls-37" points="91.25 129.36 101.25 135.86 106.748 134.985 101.25 130.61 98.999 127.11 91.25 127.11"/><rect class="cls-6" x="91.25" y="110.121" width="1.697" height="1.697"/><rect class="cls-6" x="92.098" y="105.292" width="2.025" height="2.025"/><rect class="cls-6" x="86.754" y="114.621" width="2.55" height="2.55"/><rect class="cls-6" x="94.124" y="114.621" width="1.697" height="1.697"/><rect class="cls-6" x="86.379" y="110.121" width="2.009" height="2.009"/><rect class="cls-6" x="94.124" y="119.863" width="2.947" height="2.947"/><rect class="cls-6" x="88.388" y="122.277" width="1.723" height="1.723"/><rect class="cls-6" x="82.938" y="121.337" width="2.57" height="2.57"/><rect class="cls-6" x="94.972" y="127.11" width="1.519" height="1.519"/><rect class="cls-6" x="88.388" y="128.463" width="1.723" height="1.723"/><rect class="cls-6" x="79.172" y="118.014" width="1.849" height="1.849"/><rect class="cls-6" x="99.84" y="115.895" width="2.215" height="2.215"/><rect class="cls-6" x="101.25" y="125.36" width="3.103" height="3.103"/><rect class="cls-6" x="99.84" y="131.594" width="1.766" height="1.766"/><rect class="cls-6" x="92.098" y="132.477" width="2.025" height="2.025"/><rect class="cls-6" x="78.653" y="127.11" width="3.039" height="3.039"/><rect class="cls-6" x="72.285" y="122.277" width="3.083" height="3.083"/><rect class="cls-6" x="71.645" y="130.61" width="2.75" height="2.75"/><rect class="cls-6" x="85.508" y="135.86" width="2.117" height="2.117"/><rect class="cls-6" x="100.723" y="136.919" width="3.606" height="3.606"/><rect class="cls-6" x="109.167" y="132.477" width="2.508" height="2.508"/><rect class="cls-6" x="112.545" y="138.237" width="2.455" height="2.455"/><rect class="cls-6" x="92.5" y="141.589" width="1.624" height="1.624"/><rect class="cls-6" x="82.031" y="142.4" width="2.781" height="2.781"/><rect class="cls-6" x="66.628" y="132.477" width="2.782" height="2.782"/><rect class="cls-6" x="82.031" y="132.477" width="3.101" height="3.101"/><rect class="cls-6" x="95.82" y="135.988" width="2.248" height="2.248"/><rect class="cls-6" x="110.421" y="142.4" width="2.781" height="2.781"/><rect class="cls-6" x="105.066" y="133.647" width="2.342" height="2.342"/><rect class="cls-6" x="106.748" y="127.531" width="2.655" height="2.655"/><rect class="cls-6" x="118.207" y="138.722" width="2.482" height="2.482"/><rect class="cls-6" x="73.531" y="136.919" width="2.546" height="2.546"/><path class="cls-38" d="M399.094,423.716s.683,10.784-1.806,12.257c-3.057,1.811-5.125,1.613-4.683,6.407s1.847,31.806,1.847,31.806h19.161l1.856-30.487s1.339-5.059-2.606-6.7c-2.328-.97-4.2-3.305-3.566-12.285C409.746,418.332,398.905,420.871,399.094,423.716Z" transform="translate(-222.857 -314.186)"/><path class="cls-39" d="M392.605,443.7c.442,4.794,1.847,30.487,1.847,30.487h19.161l1.856-30.487Z" transform="translate(-222.857 -314.186)"/><path class="cls-40" d="M411.685,423.808s0,3-7.2,3-7.2-3-7.2-3v-7.382h14.4Z" transform="translate(-222.857 -314.186)"/><ellipse class="cls-41" cx="181.63" cy="102.239" rx="7.198" ry="1.895"/><ellipse class="cls-42" cx="181.18" cy="129.513" rx="11.432" ry="3.011"/><path class="cls-43" d="M396.053,456.818a29.066,29.066,0,0,0,15.523.238,1.391,1.391,0,0,1,1.721,1.45l-1.185,15.68H395.779l-1.264-16.144A1.183,1.183,0,0,1,396.053,456.818Z" transform="translate(-222.857 -314.186)"/><path class="cls-44" d="M404.53,462.755s-.819.832-.715,3.34c0,0-.432,2.432-.788,4.369,0,0-.2,1.979-3.031,2.089,0,0-1.865,1.174,2.948.574a3.774,3.774,0,0,0,2.653-3.033,6.3,6.3,0,0,1,.874-1.917,6.342,6.342,0,0,0,.516-2.488s1.118-3.253-.056-3.718S404.53,462.755,404.53,462.755Z" transform="translate(-222.857 -314.186)"/><path class="cls-45" d="M404.487,462.832a2.047,2.047,0,0,1,1.453-1.289,5.571,5.571,0,0,1,2.023-2.356c1.441-.91.212.338.212.338s-1.972,1.367-1.229,2.285a1.234,1.234,0,0,1,.545,1.045s-.618-.645-.678,0c0,0-.5-.9-.64-.075,0,0-.483-.751-.945.028S405.25,462.145,404.487,462.832Z" transform="translate(-222.857 -314.186)"/></svg>