<?xml version="1.0" encoding="UTF-8"?>
<svg id="_イヤー_1" data-name="レイヤー 1" xmlns="http://www.w3.org/2000/svg" width="145.242mm" height="90.074mm" xmlns:xlink="http://www.w3.org/1999/xlink" viewBox="0 0 411.711 255.328">
  <defs>
    <style>
      .cls-1 {
        fill: url(#_称未設定グラデーション_49-2);
      }

      .cls-2 {
        fill: url(#_称未設定グラデーション_49);
      }

      .cls-3 {
        fill: url(#_称未設定グラデーション_138-2);
      }

      .cls-3, .cls-4, .cls-5, .cls-6 {
        stroke-miterlimit: 10;
      }

      .cls-3, .cls-5, .cls-6 {
        stroke: #7e4f22;
        stroke-width: 1.465px;
      }

      .cls-7 {
        fill: url(#_規グラデーションスウォッチ_4-2);
      }

      .cls-7, .cls-8, .cls-9, .cls-10, .cls-11 {
        opacity: .091;
      }

      .cls-12 {
        fill: #89c6cb;
      }

      .cls-13 {
        fill: #ae373e;
      }

      .cls-14 {
        fill: url(#_規グラデーションスウォッチ_4-37);
      }

      .cls-14, .cls-15, .cls-16, .cls-17, .cls-18 {
        opacity: 0;
      }

      .cls-15 {
        fill: url(#_規グラデーションスウォッチ_4-49);
      }

      .cls-16 {
        fill: url(#_規グラデーションスウォッチ_4-25);
      }

      .cls-17 {
        fill: url(#_規グラデーションスウォッチ_4-13);
      }

      .cls-4, .cls-5, .cls-19 {
        fill: none;
      }

      .cls-4, .cls-19 {
        stroke: #ae373e;
        stroke-width: 1.279px;
      }

      .cls-20 {
        fill: url(#_規グラデーションスウォッチ_4-58);
      }

      .cls-20, .cls-21, .cls-22, .cls-23, .cls-24 {
        opacity: .818;
      }

      .cls-21 {
        fill: url(#_規グラデーションスウォッチ_4-46);
      }

      .cls-22 {
        fill: url(#_規グラデーションスウォッチ_4-34);
      }

      .cls-23 {
        fill: url(#_規グラデーションスウォッチ_4-22);
      }

      .cls-24 {
        fill: url(#_規グラデーションスウォッチ_4-10);
      }

      .cls-25 {
        fill: url(#_規グラデーションスウォッチ_4-35);
      }

      .cls-25, .cls-26, .cls-27, .cls-28, .cls-29 {
        opacity: .909;
      }

      .cls-26 {
        fill: url(#_規グラデーションスウォッチ_4-47);
      }

      .cls-27 {
        fill: url(#_規グラデーションスウォッチ_4-59);
      }

      .cls-28 {
        fill: url(#_規グラデーションスウォッチ_4-23);
      }

      .cls-29 {
        fill: url(#_規グラデーションスウォッチ_4-11);
      }

      .cls-30 {
        fill: url(#_規グラデーションスウォッチ_4-45);
      }

      .cls-30, .cls-31, .cls-32, .cls-33, .cls-34 {
        opacity: .727;
      }

      .cls-31 {
        fill: url(#_規グラデーションスウォッチ_4-33);
      }

      .cls-32 {
        fill: url(#_規グラデーションスウォッチ_4-57);
      }

      .cls-33 {
        fill: url(#_規グラデーションスウォッチ_4-21);
      }

      .cls-35 {
        fill: url(#_規グラデーションスウォッチ_4-42);
      }

      .cls-35, .cls-36, .cls-37, .cls-38, .cls-39 {
        opacity: .455;
      }

      .cls-36 {
        fill: url(#_規グラデーションスウォッチ_4-30);
      }

      .cls-37 {
        fill: url(#_規グラデーションスウォッチ_4-54);
      }

      .cls-38 {
        fill: url(#_規グラデーションスウォッチ_4-18);
      }

      .cls-40 {
        fill: url(#_規グラデーションスウォッチ_4-44);
      }

      .cls-40, .cls-41, .cls-42, .cls-43, .cls-44 {
        opacity: .636;
      }

      .cls-41 {
        fill: url(#_規グラデーションスウォッチ_4-32);
      }

      .cls-42 {
        fill: url(#_規グラデーションスウォッチ_4-56);
      }

      .cls-43 {
        fill: url(#_規グラデーションスウォッチ_4-20);
      }

      .cls-45 {
        fill: url(#_規グラデーションスウォッチ_4-41);
      }

      .cls-45, .cls-46, .cls-47, .cls-48, .cls-49 {
        opacity: .364;
      }

      .cls-46 {
        fill: url(#_規グラデーションスウォッチ_4-53);
      }

      .cls-47 {
        fill: url(#_規グラデーションスウォッチ_4-29);
      }

      .cls-48 {
        fill: url(#_規グラデーションスウォッチ_4-17);
      }

      .cls-50 {
        fill: url(#_規グラデーションスウォッチ_4-19);
      }

      .cls-50, .cls-51, .cls-52, .cls-53, .cls-54 {
        opacity: .545;
      }

      .cls-51 {
        fill: url(#_規グラデーションスウォッチ_4-43);
      }

      .cls-52 {
        fill: url(#_規グラデーションスウォッチ_4-31);
      }

      .cls-53 {
        fill: url(#_規グラデーションスウォッチ_4-55);
      }

      .cls-55 {
        fill: url(#_規グラデーションスウォッチ_4-51);
      }

      .cls-55, .cls-56, .cls-57, .cls-58, .cls-59 {
        opacity: .182;
      }

      .cls-56 {
        fill: url(#_規グラデーションスウォッチ_4-39);
      }

      .cls-57 {
        fill: url(#_規グラデーションスウォッチ_4-15);
      }

      .cls-58 {
        fill: url(#_規グラデーションスウォッチ_4-27);
      }

      .cls-60 {
        fill: url(#_規グラデーションスウォッチ_4-40);
      }

      .cls-60, .cls-61, .cls-62, .cls-63, .cls-64 {
        opacity: .273;
      }

      .cls-61 {
        fill: url(#_規グラデーションスウォッチ_4-52);
      }

      .cls-62 {
        fill: url(#_規グラデーションスウォッチ_4-16);
      }

      .cls-63 {
        fill: url(#_規グラデーションスウォッチ_4-28);
      }

      .cls-65 {
        fill: url(#_規グラデーションスウォッチ_4-24);
      }

      .cls-66 {
        fill: url(#_規グラデーションスウォッチ_4-12);
      }

      .cls-67 {
        fill: url(#_規グラデーションスウォッチ_4-36);
      }

      .cls-68 {
        fill: url(#_規グラデーションスウォッチ_4-60);
      }

      .cls-69 {
        fill: url(#_規グラデーションスウォッチ_4-48);
      }

      .cls-18 {
        fill: url(#_規グラデーションスウォッチ_4);
      }

      .cls-6 {
        fill: url(#_称未設定グラデーション_138);
      }

      .cls-19 {
        stroke-linejoin: round;
      }

      .cls-34 {
        fill: url(#_規グラデーションスウォッチ_4-9);
      }

      .cls-70 {
        fill: url(#_称未設定グラデーション_9);
      }

      .cls-54 {
        fill: url(#_規グラデーションスウォッチ_4-7);
      }

      .cls-49 {
        fill: url(#_規グラデーションスウォッチ_4-5);
      }

      .cls-44 {
        fill: url(#_規グラデーションスウォッチ_4-8);
      }

      .cls-64 {
        fill: url(#_規グラデーションスウォッチ_4-4);
      }

      .cls-39 {
        fill: url(#_規グラデーションスウォッチ_4-6);
      }

      .cls-59 {
        fill: url(#_規グラデーションスウォッチ_4-3);
      }

      .cls-71 {
        opacity: .23;
      }

      .cls-72 {
        opacity: .7;
      }

      .cls-8 {
        fill: url(#_規グラデーションスウォッチ_4-26);
      }

      .cls-9 {
        fill: url(#_規グラデーションスウォッチ_4-14);
      }

      .cls-10 {
        fill: url(#_規グラデーションスウォッチ_4-38);
      }

      .cls-11 {
        fill: url(#_規グラデーションスウォッチ_4-50);
      }
    </style>
    <linearGradient id="_称未設定グラデーション_138" data-name="名称未設定グラデーション 138" x1="131.841" y1="157.378" x2="276.705" y2="157.378" gradientTransform="matrix(1, 0, 0, 1, 0, 0)" gradientUnits="userSpaceOnUse">
      <stop offset="0" stop-color="#c65a45"/>
      <stop offset=".504" stop-color="#e6bfa0"/>
      <stop offset="1" stop-color="#c65a45"/>
    </linearGradient>
    <linearGradient id="_称未設定グラデーション_138-2" data-name="名称未設定グラデーション 138" x1="106.216" y1="74.513" x2="300.955" y2="74.513" xlink:href="#_称未設定グラデーション_138"/>
    <linearGradient id="_規グラデーションスウォッチ_4" data-name="新規グラデーションスウォッチ 4" x1="201.459" y1="89.933" x2="210.898" y2="89.933" gradientTransform="matrix(1, 0, 0, 1, 0, 0)" gradientUnits="userSpaceOnUse">
      <stop offset="0" stop-color="#c0725a"/>
      <stop offset="1" stop-color="#c0725a"/>
    </linearGradient>
    <linearGradient id="_規グラデーションスウォッチ_4-2" data-name="新規グラデーションスウォッチ 4" x1="201.682" y1="89.933" x2="210.675" y2="89.933" xlink:href="#_規グラデーションスウォッチ_4"/>
    <linearGradient id="_規グラデーションスウォッチ_4-3" data-name="新規グラデーションスウォッチ 4" x1="201.906" x2="210.452" xlink:href="#_規グラデーションスウォッチ_4"/>
    <linearGradient id="_規グラデーションスウォッチ_4-4" data-name="新規グラデーションスウォッチ 4" x1="202.129" x2="210.229" xlink:href="#_規グラデーションスウォッチ_4"/>
    <linearGradient id="_規グラデーションスウォッチ_4-5" data-name="新規グラデーションスウォッチ 4" x1="202.352" x2="210.006" xlink:href="#_規グラデーションスウォッチ_4"/>
    <linearGradient id="_規グラデーションスウォッチ_4-6" data-name="新規グラデーションスウォッチ 4" x1="202.575" x2="209.783" xlink:href="#_規グラデーションスウォッチ_4"/>
    <linearGradient id="_規グラデーションスウォッチ_4-7" data-name="新規グラデーションスウォッチ 4" x1="202.798" x2="209.56" xlink:href="#_規グラデーションスウォッチ_4"/>
    <linearGradient id="_規グラデーションスウォッチ_4-8" data-name="新規グラデーションスウォッチ 4" x1="203.021" x2="209.337" xlink:href="#_規グラデーションスウォッチ_4"/>
    <linearGradient id="_規グラデーションスウォッチ_4-9" data-name="新規グラデーションスウォッチ 4" x1="203.244" x2="209.113" xlink:href="#_規グラデーションスウォッチ_4"/>
    <linearGradient id="_規グラデーションスウォッチ_4-10" data-name="新規グラデーションスウォッチ 4" x1="203.467" x2="208.89" xlink:href="#_規グラデーションスウォッチ_4"/>
    <linearGradient id="_規グラデーションスウォッチ_4-11" data-name="新規グラデーションスウォッチ 4" x1="203.69" y1="89.933" x2="208.667" y2="89.933" xlink:href="#_規グラデーションスウォッチ_4"/>
    <linearGradient id="_規グラデーションスウォッチ_4-12" data-name="新規グラデーションスウォッチ 4" x1="203.913" x2="208.444" xlink:href="#_規グラデーションスウォッチ_4"/>
    <linearGradient id="_規グラデーションスウォッチ_4-13" data-name="新規グラデーションスウォッチ 4" x1="215.242" y1="88.933" x2="224.681" y2="88.933" xlink:href="#_規グラデーションスウォッチ_4"/>
    <linearGradient id="_規グラデーションスウォッチ_4-14" data-name="新規グラデーションスウォッチ 4" x1="215.465" y1="88.933" x2="224.458" y2="88.933" xlink:href="#_規グラデーションスウォッチ_4"/>
    <linearGradient id="_規グラデーションスウォッチ_4-15" data-name="新規グラデーションスウォッチ 4" x1="215.688" y1="88.933" x2="224.235" y2="88.933" xlink:href="#_規グラデーションスウォッチ_4"/>
    <linearGradient id="_規グラデーションスウォッチ_4-16" data-name="新規グラデーションスウォッチ 4" x1="215.911" y1="88.933" x2="224.011" y2="88.933" xlink:href="#_規グラデーションスウォッチ_4"/>
    <linearGradient id="_規グラデーションスウォッチ_4-17" data-name="新規グラデーションスウォッチ 4" x1="216.134" y1="88.933" x2="223.788" y2="88.933" xlink:href="#_規グラデーションスウォッチ_4"/>
    <linearGradient id="_規グラデーションスウォッチ_4-18" data-name="新規グラデーションスウォッチ 4" x1="216.357" y1="88.933" x2="223.565" y2="88.933" xlink:href="#_規グラデーションスウォッチ_4"/>
    <linearGradient id="_規グラデーションスウォッチ_4-19" data-name="新規グラデーションスウォッチ 4" x1="216.581" y1="88.933" x2="223.342" y2="88.933" xlink:href="#_規グラデーションスウォッチ_4"/>
    <linearGradient id="_規グラデーションスウォッチ_4-20" data-name="新規グラデーションスウォッチ 4" x1="216.804" y1="88.933" x2="223.119" y2="88.933" xlink:href="#_規グラデーションスウォッチ_4"/>
    <linearGradient id="_規グラデーションスウォッチ_4-21" data-name="新規グラデーションスウォッチ 4" x1="217.027" y1="88.933" x2="222.896" y2="88.933" xlink:href="#_規グラデーションスウォッチ_4"/>
    <linearGradient id="_規グラデーションスウォッチ_4-22" data-name="新規グラデーションスウォッチ 4" x1="217.25" y1="88.933" x2="222.673" y2="88.933" xlink:href="#_規グラデーションスウォッチ_4"/>
    <linearGradient id="_規グラデーションスウォッチ_4-23" data-name="新規グラデーションスウォッチ 4" x1="217.473" y1="88.933" x2="222.45" y2="88.933" xlink:href="#_規グラデーションスウォッチ_4"/>
    <linearGradient id="_規グラデーションスウォッチ_4-24" data-name="新規グラデーションスウォッチ 4" x1="217.696" y1="88.933" x2="222.227" y2="88.933" xlink:href="#_規グラデーションスウォッチ_4"/>
    <linearGradient id="_規グラデーションスウォッチ_4-25" data-name="新規グラデーションスウォッチ 4" x1="230.471" y1="88.583" x2="239.91" y2="88.583" gradientTransform="translate(325.976 -146.258) rotate(90)" xlink:href="#_規グラデーションスウォッチ_4"/>
    <linearGradient id="_規グラデーションスウォッチ_4-26" data-name="新規グラデーションスウォッチ 4" x1="230.694" y1="88.583" x2="239.687" y2="88.583" gradientTransform="translate(325.976 -146.258) rotate(90)" xlink:href="#_規グラデーションスウォッチ_4"/>
    <linearGradient id="_規グラデーションスウォッチ_4-27" data-name="新規グラデーションスウォッチ 4" x1="230.917" y1="88.583" x2="239.463" y2="88.583" gradientTransform="translate(325.976 -146.258) rotate(90)" xlink:href="#_規グラデーションスウォッチ_4"/>
    <linearGradient id="_規グラデーションスウォッチ_4-28" data-name="新規グラデーションスウォッチ 4" x1="231.14" y1="88.583" x2="239.24" y2="88.583" gradientTransform="translate(325.976 -146.258) rotate(90)" xlink:href="#_規グラデーションスウォッチ_4"/>
    <linearGradient id="_規グラデーションスウォッチ_4-29" data-name="新規グラデーションスウォッチ 4" x1="231.363" y1="88.583" x2="239.017" y2="88.583" gradientTransform="translate(325.976 -146.258) rotate(90)" xlink:href="#_規グラデーションスウォッチ_4"/>
    <linearGradient id="_規グラデーションスウォッチ_4-30" data-name="新規グラデーションスウォッチ 4" x1="231.586" y1="88.583" x2="238.794" y2="88.583" gradientTransform="translate(325.976 -146.258) rotate(90)" xlink:href="#_規グラデーションスウォッチ_4"/>
    <linearGradient id="_規グラデーションスウォッチ_4-31" data-name="新規グラデーションスウォッチ 4" x1="231.809" y1="88.583" x2="238.571" y2="88.583" gradientTransform="translate(325.976 -146.258) rotate(90)" xlink:href="#_規グラデーションスウォッチ_4"/>
    <linearGradient id="_規グラデーションスウォッチ_4-32" data-name="新規グラデーションスウォッチ 4" x1="232.032" y1="88.583" x2="238.348" y2="88.583" gradientTransform="translate(325.976 -146.258) rotate(90)" xlink:href="#_規グラデーションスウォッチ_4"/>
    <linearGradient id="_規グラデーションスウォッチ_4-33" data-name="新規グラデーションスウォッチ 4" x1="232.256" y1="88.583" x2="238.125" y2="88.583" gradientTransform="translate(325.976 -146.258) rotate(90)" xlink:href="#_規グラデーションスウォッチ_4"/>
    <linearGradient id="_規グラデーションスウォッチ_4-34" data-name="新規グラデーションスウォッチ 4" x1="232.479" y1="88.583" x2="237.902" y2="88.583" gradientTransform="translate(325.976 -146.258) rotate(90)" xlink:href="#_規グラデーションスウォッチ_4"/>
    <linearGradient id="_規グラデーションスウォッチ_4-35" data-name="新規グラデーションスウォッチ 4" x1="232.702" y1="88.583" x2="237.679" y2="88.583" gradientTransform="translate(325.976 -146.258) rotate(90)" xlink:href="#_規グラデーションスウォッチ_4"/>
    <linearGradient id="_規グラデーションスウォッチ_4-36" data-name="新規グラデーションスウォッチ 4" x1="232.925" y1="88.583" x2="237.456" y2="88.583" gradientTransform="translate(325.976 -146.258) rotate(90)" xlink:href="#_規グラデーションスウォッチ_4"/>
    <linearGradient id="_規グラデーションスウォッチ_4-37" data-name="新規グラデーションスウォッチ 4" x1="187.378" y1="88.933" x2="196.817" y2="88.933" xlink:href="#_規グラデーションスウォッチ_4"/>
    <linearGradient id="_規グラデーションスウォッチ_4-38" data-name="新規グラデーションスウォッチ 4" x1="187.601" y1="88.933" x2="196.594" y2="88.933" xlink:href="#_規グラデーションスウォッチ_4"/>
    <linearGradient id="_規グラデーションスウォッチ_4-39" data-name="新規グラデーションスウォッチ 4" x1="187.825" y1="88.933" x2="196.371" y2="88.933" xlink:href="#_規グラデーションスウォッチ_4"/>
    <linearGradient id="_規グラデーションスウォッチ_4-40" data-name="新規グラデーションスウォッチ 4" x1="188.048" y1="88.933" x2="196.148" y2="88.933" xlink:href="#_規グラデーションスウォッチ_4"/>
    <linearGradient id="_規グラデーションスウォッチ_4-41" data-name="新規グラデーションスウォッチ 4" x1="188.271" y1="88.933" x2="195.925" y2="88.933" xlink:href="#_規グラデーションスウォッチ_4"/>
    <linearGradient id="_規グラデーションスウォッチ_4-42" data-name="新規グラデーションスウォッチ 4" x1="188.494" y1="88.933" x2="195.702" y2="88.933" xlink:href="#_規グラデーションスウォッチ_4"/>
    <linearGradient id="_規グラデーションスウォッチ_4-43" data-name="新規グラデーションスウォッチ 4" x1="188.717" y1="88.933" x2="195.479" y2="88.933" xlink:href="#_規グラデーションスウォッチ_4"/>
    <linearGradient id="_規グラデーションスウォッチ_4-44" data-name="新規グラデーションスウォッチ 4" x1="188.94" y1="88.933" x2="195.256" y2="88.933" xlink:href="#_規グラデーションスウォッチ_4"/>
    <linearGradient id="_規グラデーションスウォッチ_4-45" data-name="新規グラデーションスウォッチ 4" x1="189.163" y1="88.933" x2="195.032" y2="88.933" xlink:href="#_規グラデーションスウォッチ_4"/>
    <linearGradient id="_規グラデーションスウォッチ_4-46" data-name="新規グラデーションスウォッチ 4" x1="189.386" y1="88.933" x2="194.809" y2="88.933" xlink:href="#_規グラデーションスウォッチ_4"/>
    <linearGradient id="_規グラデーションスウォッチ_4-47" data-name="新規グラデーションスウォッチ 4" x1="189.609" y1="88.933" x2="194.586" y2="88.933" xlink:href="#_規グラデーションスウォッチ_4"/>
    <linearGradient id="_規グラデーションスウォッチ_4-48" data-name="新規グラデーションスウォッチ 4" x1="189.832" y1="88.933" x2="194.363" y2="88.933" xlink:href="#_規グラデーションスウォッチ_4"/>
    <linearGradient id="_規グラデーションスウォッチ_4-49" data-name="新規グラデーションスウォッチ 4" x1="174.425" y1="88.739" x2="183.864" y2="88.739" gradientTransform="translate(-1.994 .193)" xlink:href="#_規グラデーションスウォッチ_4"/>
    <linearGradient id="_規グラデーションスウォッチ_4-50" data-name="新規グラデーションスウォッチ 4" x1="174.648" y1="88.739" x2="183.64" y2="88.739" gradientTransform="translate(-1.994 .193)" xlink:href="#_規グラデーションスウォッチ_4"/>
    <linearGradient id="_規グラデーションスウォッチ_4-51" data-name="新規グラデーションスウォッチ 4" x1="174.871" y1="88.739" x2="183.417" y2="88.739" gradientTransform="translate(-1.994 .193)" xlink:href="#_規グラデーションスウォッチ_4"/>
    <linearGradient id="_規グラデーションスウォッチ_4-52" data-name="新規グラデーションスウォッチ 4" x1="175.094" y1="88.739" x2="183.194" y2="88.739" gradientTransform="translate(-1.994 .193)" xlink:href="#_規グラデーションスウォッチ_4"/>
    <linearGradient id="_規グラデーションスウォッチ_4-53" data-name="新規グラデーションスウォッチ 4" x1="175.317" y1="88.739" x2="182.971" y2="88.739" gradientTransform="translate(-1.994 .193)" xlink:href="#_規グラデーションスウォッチ_4"/>
    <linearGradient id="_規グラデーションスウォッチ_4-54" data-name="新規グラデーションスウォッチ 4" x1="175.54" y1="88.739" x2="182.748" y2="88.739" gradientTransform="translate(-1.994 .193)" xlink:href="#_規グラデーションスウォッチ_4"/>
    <linearGradient id="_規グラデーションスウォッチ_4-55" data-name="新規グラデーションスウォッチ 4" x1="175.763" y1="88.739" x2="182.525" y2="88.739" gradientTransform="translate(-1.994 .193)" xlink:href="#_規グラデーションスウォッチ_4"/>
    <linearGradient id="_規グラデーションスウォッチ_4-56" data-name="新規グラデーションスウォッチ 4" x1="175.986" y1="88.739" x2="182.302" y2="88.739" gradientTransform="translate(-1.994 .193)" xlink:href="#_規グラデーションスウォッチ_4"/>
    <linearGradient id="_規グラデーションスウォッチ_4-57" data-name="新規グラデーションスウォッチ 4" x1="176.209" y1="88.739" x2="182.079" y2="88.739" gradientTransform="translate(-1.994 .193)" xlink:href="#_規グラデーションスウォッチ_4"/>
    <linearGradient id="_規グラデーションスウォッチ_4-58" data-name="新規グラデーションスウォッチ 4" x1="176.433" y1="88.739" x2="181.856" y2="88.739" gradientTransform="translate(-1.994 .193)" xlink:href="#_規グラデーションスウォッチ_4"/>
    <linearGradient id="_規グラデーションスウォッチ_4-59" data-name="新規グラデーションスウォッチ 4" x1="176.656" y1="88.739" x2="181.632" y2="88.739" gradientTransform="translate(-1.994 .193)" xlink:href="#_規グラデーションスウォッチ_4"/>
    <linearGradient id="_規グラデーションスウォッチ_4-60" data-name="新規グラデーションスウォッチ 4" x1="176.879" y1="88.739" x2="181.409" y2="88.739" gradientTransform="translate(-1.994 .193)" xlink:href="#_規グラデーションスウォッチ_4"/>
    <linearGradient id="_称未設定グラデーション_49" data-name="名称未設定グラデーション 49" x1="985.56" y1="241.424" x2="985.56" y2=".338" gradientTransform="translate(1091.165) rotate(-180) scale(1 -1)" gradientUnits="userSpaceOnUse">
      <stop offset="0" stop-color="#e79274"/>
      <stop offset="1" stop-color="#f4e7ce"/>
    </linearGradient>
    <linearGradient id="_称未設定グラデーション_49-2" data-name="名称未設定グラデーション 49" x1="771.809" y1="220.932" x2="771.809" y2=".338" gradientTransform="translate(-449.909)" xlink:href="#_称未設定グラデーション_49"/>
    <linearGradient id="_称未設定グラデーション_9" data-name="名称未設定グラデーション 9" x1="124.05" y1="139.991" x2="223.698" y2="160.004" gradientTransform="matrix(1, 0, 0, 1, 0, 0)" gradientUnits="userSpaceOnUse">
      <stop offset="0" stop-color="#f2dec5" stop-opacity="0"/>
      <stop offset=".226" stop-color="#e4bcaa" stop-opacity=".1"/>
      <stop offset=".673" stop-color="#c16664" stop-opacity=".359"/>
      <stop offset=".894" stop-color="#ae373e" stop-opacity=".5"/>
    </linearGradient>
  </defs>
  <g id="_4" data-name="04">
    <g>
      <rect class="cls-12" width="411.711" height="255.328"/>
      <path class="cls-6" d="M136.535,201.647c.853-.213,34.563-19.841,66.992-19.841s70.832,22.615,70.832,22.615l2.347-94.087s-144.864,.213-144.864,1.067,4.694,90.247,4.694,90.247Z"/>
      <path class="cls-3" d="M106.216,.338c.588,38.433,6.293,136.864,21.891,145.066,20.695,10.881,29.229-8.747,29.229-8.747,0,0-3.236-8.618,.396-8.702,2.723-.063,4.932,3.968,5.527,4.827s4.852,8.525,6.608,8.381c1.627-.133,2.473-3.574,3.438-4.657,1.214-1.362,2.476-5.303,4.672-5.823,1.038-.246,2.027,.4,3.029,1.939,0,0,1.343,2.601,3.158,2.541,2.4-.08,3.212-2.027,3.686-3.12s1.351-3.223,3.327-3.227c2.24-.004,3.094,2.907,3.254,3.227,.16,.32,1.068,3.242,3.6,3.334,2.96,.107,3.787-2.72,4.107-3.547s1.173-3.048,3.174-3.017,2.921,1.921,3.787,3.284c.552,.869,1.334,2.476,2.747,2.534,1.973,.08,2.827-2.347,3.147-2.96,.32-.613,1.28-2.48,2.987-2.48s2.8,1.2,3.494,2.88c.392,.949,1.253,3.494,3.974,3.387,2.72-.107,2.877-1.948,3.014-2.48,.293-1.147,.853-2.396,2.156-2.503,3.776-.309,4.193,6.523,7.521,7.628,3.749,1.245,9.712,.037,10.163,.527l1.097-15.528s3.966-6.012,11.578-3.173c22.068,8.232,29.899-74.624,39.978-119.59"/>
      <g class="cls-71">
        <ellipse class="cls-18" cx="206.179" cy="89.933" rx="4.719" ry="42.27"/>
        <ellipse class="cls-7" cx="206.179" cy="89.933" rx="4.496" ry="41.815"/>
        <ellipse class="cls-59" cx="206.179" cy="89.933" rx="4.273" ry="41.359"/>
        <ellipse class="cls-64" cx="206.179" cy="89.933" rx="4.05" ry="40.904"/>
        <ellipse class="cls-49" cx="206.179" cy="89.933" rx="3.827" ry="40.449"/>
        <ellipse class="cls-39" cx="206.179" cy="89.933" rx="3.604" ry="39.994"/>
        <ellipse class="cls-54" cx="206.179" cy="89.933" rx="3.381" ry="39.539"/>
        <ellipse class="cls-44" cx="206.179" cy="89.933" rx="3.158" ry="39.083"/>
        <ellipse class="cls-34" cx="206.179" cy="89.933" rx="2.935" ry="38.628"/>
        <ellipse class="cls-24" cx="206.179" cy="89.933" rx="2.712" ry="38.173"/>
        <ellipse class="cls-29" cx="206.179" cy="89.933" rx="2.488" ry="37.718"/>
        <ellipse class="cls-66" cx="206.179" cy="89.933" rx="2.265" ry="37.263"/>
      </g>
      <g class="cls-71">
        <ellipse class="cls-17" cx="219.961" cy="88.933" rx="4.719" ry="42.27"/>
        <ellipse class="cls-9" cx="219.961" cy="88.933" rx="4.496" ry="41.815"/>
        <ellipse class="cls-57" cx="219.961" cy="88.933" rx="4.273" ry="41.359"/>
        <ellipse class="cls-62" cx="219.961" cy="88.933" rx="4.05" ry="40.904"/>
        <ellipse class="cls-48" cx="219.961" cy="88.933" rx="3.827" ry="40.449"/>
        <ellipse class="cls-38" cx="219.961" cy="88.933" rx="3.604" ry="39.994"/>
        <ellipse class="cls-50" cx="219.961" cy="88.933" rx="3.381" ry="39.539"/>
        <ellipse class="cls-43" cx="219.961" cy="88.933" rx="3.158" ry="39.083"/>
        <ellipse class="cls-33" cx="219.961" cy="88.933" rx="2.935" ry="38.628"/>
        <ellipse class="cls-23" cx="219.961" cy="88.933" rx="2.712" ry="38.173"/>
        <ellipse class="cls-28" cx="219.961" cy="88.933" rx="2.488" ry="37.718"/>
        <ellipse class="cls-65" cx="219.961" cy="88.933" rx="2.265" ry="37.263"/>
      </g>
      <g class="cls-71">
        <ellipse class="cls-16" cx="237.393" cy="88.933" rx="42.27" ry="4.719" transform="translate(126.293 316.795) rotate(-84.544)"/>
        <ellipse class="cls-8" cx="237.393" cy="88.933" rx="41.815" ry="4.496" transform="translate(126.293 316.795) rotate(-84.544)"/>
        <ellipse class="cls-58" cx="237.393" cy="88.933" rx="41.359" ry="4.273" transform="translate(126.293 316.795) rotate(-84.544)"/>
        <ellipse class="cls-63" cx="237.393" cy="88.933" rx="40.904" ry="4.05" transform="translate(126.293 316.795) rotate(-84.544)"/>
        <ellipse class="cls-47" cx="237.393" cy="88.933" rx="40.449" ry="3.827" transform="translate(126.293 316.795) rotate(-84.544)"/>
        <ellipse class="cls-36" cx="237.393" cy="88.933" rx="39.994" ry="3.604" transform="translate(126.293 316.795) rotate(-84.544)"/>
        <ellipse class="cls-52" cx="237.393" cy="88.933" rx="39.539" ry="3.381" transform="translate(126.293 316.795) rotate(-84.544)"/>
        <ellipse class="cls-41" cx="237.393" cy="88.933" rx="39.083" ry="3.158" transform="translate(126.293 316.795) rotate(-84.544)"/>
        <ellipse class="cls-31" cx="237.393" cy="88.933" rx="38.628" ry="2.935" transform="translate(126.293 316.795) rotate(-84.544)"/>
        <ellipse class="cls-22" cx="237.393" cy="88.933" rx="38.173" ry="2.712" transform="translate(126.293 316.795) rotate(-84.544)"/>
        <ellipse class="cls-25" cx="237.393" cy="88.933" rx="37.718" ry="2.488" transform="translate(126.293 316.795) rotate(-84.544)"/>
        <ellipse class="cls-67" cx="237.393" cy="88.933" rx="37.263" ry="2.265" transform="translate(126.293 316.795) rotate(-84.544)"/>
      </g>
      <g class="cls-71">
        <ellipse class="cls-14" cx="192.098" cy="88.933" rx="4.719" ry="42.27"/>
        <ellipse class="cls-10" cx="192.098" cy="88.933" rx="4.496" ry="41.815"/>
        <ellipse class="cls-56" cx="192.098" cy="88.933" rx="4.273" ry="41.359"/>
        <ellipse class="cls-60" cx="192.098" cy="88.933" rx="4.05" ry="40.904"/>
        <ellipse class="cls-45" cx="192.098" cy="88.933" rx="3.827" ry="40.449"/>
        <ellipse class="cls-35" cx="192.098" cy="88.933" rx="3.604" ry="39.994"/>
        <ellipse class="cls-51" cx="192.098" cy="88.933" rx="3.381" ry="39.539"/>
        <ellipse class="cls-40" cx="192.098" cy="88.933" rx="3.158" ry="39.083"/>
        <ellipse class="cls-30" cx="192.098" cy="88.933" rx="2.935" ry="38.628"/>
        <ellipse class="cls-21" cx="192.098" cy="88.933" rx="2.712" ry="38.173"/>
        <ellipse class="cls-26" cx="192.098" cy="88.933" rx="2.488" ry="37.718"/>
        <ellipse class="cls-69" cx="192.098" cy="88.933" rx="2.265" ry="37.263"/>
      </g>
      <g class="cls-71">
        <ellipse class="cls-15" cx="177.15" cy="88.933" rx="4.719" ry="42.27" transform="translate(-7.02 15.635) rotate(-4.955)"/>
        <ellipse class="cls-11" cx="177.15" cy="88.933" rx="4.496" ry="41.815" transform="translate(-7.02 15.635) rotate(-4.955)"/>
        <ellipse class="cls-55" cx="177.15" cy="88.933" rx="4.273" ry="41.359" transform="translate(-7.02 15.635) rotate(-4.955)"/>
        <ellipse class="cls-61" cx="177.15" cy="88.933" rx="4.05" ry="40.904" transform="translate(-7.02 15.635) rotate(-4.955)"/>
        <ellipse class="cls-46" cx="177.15" cy="88.933" rx="3.827" ry="40.449" transform="translate(-7.02 15.635) rotate(-4.955)"/>
        <ellipse class="cls-37" cx="177.15" cy="88.933" rx="3.604" ry="39.994" transform="translate(-7.02 15.635) rotate(-4.955)"/>
        <ellipse class="cls-53" cx="177.15" cy="88.933" rx="3.381" ry="39.539" transform="translate(-7.02 15.635) rotate(-4.955)"/>
        <ellipse class="cls-42" cx="177.15" cy="88.933" rx="3.158" ry="39.083" transform="translate(-7.02 15.635) rotate(-4.955)"/>
        <ellipse class="cls-32" cx="177.15" cy="88.933" rx="2.935" ry="38.628" transform="translate(-7.02 15.635) rotate(-4.955)"/>
        <ellipse class="cls-20" cx="177.15" cy="88.933" rx="2.712" ry="38.173" transform="translate(-7.02 15.635) rotate(-4.955)"/>
        <ellipse class="cls-27" cx="177.15" cy="88.933" rx="2.488" ry="37.718" transform="translate(-7.02 15.635) rotate(-4.955)"/>
        <ellipse class="cls-68" cx="177.15" cy="88.933" rx="2.265" ry="37.263" transform="translate(-7.02 15.635) rotate(-4.955)"/>
      </g>
      <path class="cls-2" d="M137.279,43.547c10.542,17.627,17.177,24.521,19.168,27.65s46.178,35.759,51.996,72.416c1.21,7.623,3.902,23.067,1.196,44.185-1.275,9.945-8.181,56.46-35.589,53.49-15.681-1.699-13.293-28.94-14.16-34.071-1.101-6.514-5.318-.691-19.951,5.289-7.807,3.19-60.088,19.244-139.534-11.762V.338l123.749,.319c2.02,11.567,3.812,27.318,13.126,42.89Z"/>
      <path class="cls-5" d="M124.153,.657c2.02,11.567,3.812,27.318,13.126,42.89,10.542,17.627,17.177,24.521,19.168,27.65s46.178,35.759,51.996,72.416c1.21,7.623,3.902,23.067,1.196,44.185-1.275,9.945-8.181,56.46-35.589,53.49-15.681-1.699-13.293-28.94-14.16-34.071-1.101-6.514-5.318-.691-19.951,5.289-7.807,3.19-60.088,19.244-139.534-11.762"/>
      <path class="cls-1" d="M271.504,43.547c-10.542,17.627-17.177,24.521-19.168,27.65-1.991,3.129-17.129,18.258-15.705,42.47,.453,7.705,3.077,12.425,3.077,12.425,0,0,4.811,9.689,1.431,10.19-1.595,.236-3.007-.501-3.007-.501,0,0-3.073-2.258-4.424-1.289-1.481,1.062-2.046,1.992,.289,8.463,.522,1.447,1.645,11.794,1.929,20.328,.285,8.534,1.7,9.845,4.118,13.259,2.418,3.414,3.598,10.994,4.944,14.16,3.284,7.723,11.292,16.265,25.925,22.245,7.807,3.19,66.502,21.899,140.467-12.204V.338l-126.749,.319c-2.02,11.567-3.812,27.318-13.126,42.89Z"/>
      <path class="cls-5" d="M284.63,.657c-2.02,11.567-3.812,27.318-13.126,42.89-10.542,17.627-17.177,24.521-19.168,27.65-1.991,3.129-17.129,18.258-15.705,42.47,.453,7.705,3.077,12.425,3.077,12.425,0,0,4.811,9.689,1.431,10.19-1.595,.236-3.007-.501-3.007-.501,0,0-3.073-2.258-4.424-1.289-1.481,1.062-2.046,1.992,.289,8.463,.522,1.447,1.645,11.794,1.929,20.328,.285,8.534,1.7,9.845,4.118,13.259,2.418,3.414,3.598,10.994,4.944,14.16,3.284,7.723,11.292,16.265,25.925,22.245,7.807,3.19,66.502,21.899,140.467-12.204"/>
    </g>
    <g class="cls-72">
      <path class="cls-4" d="M248.291,148.817c.139-8.206,9.237-23.054,11.55-34.025,1.819-8.627,2.014-16.217,3.07-26.305,1.021-9.758,.037-12.143,2.8-18.711,2.763-6.568,15.195-20.759,19.879-37.266,2.93-10.326,5.894-24.545,6.14-31.628"/>
      <path class="cls-4" d="M328.598,199.807s-21.686,7.947-34.175,10.044c-11.392,1.912-16.039,2.747-31.833-5.108-13.186-6.558-15.726-25.237-15.726-28.48,0-3.243,1.363-27.466,1.528-30.493,.165-3.027,2.793-5.264-4.733-20.652-5.229-10.692-3.057-25.497,2.045-37.478,2.072-4.866,6.426-11.501,12.724-18.199,8.165-8.683,22.008-25.606,25.187-43.847,0,0,3.066-12.792,4.488-24.479"/>
      <path class="cls-4" d="M265.229,71.115l-8.299,13.702,1.032,6.019-.403,6.717,.011,4.49-3.347,4.298s4.631,5.261,5.207,10.342"/>
      <line class="cls-4" x1="258.427" y1="69.441" x2="259.928" y2="80.416"/>
      <path class="cls-4" d="M252.569,75.61l4.361,9.207-3.388,9.168s.152,5.963-1.347,10.804c0,0,.832,6.417-2.711,11.399l-1.093,5.677,3.561,7.403"/>
      <line class="cls-4" x1="261.929" y1="94.79" x2="257.962" y2="90.836"/>
      <path class="cls-4" d="M247.17,85.04s.233,5.391,1.221,6.581,2.745,1.525,2.745,1.525l2.405,.84,1.245,2.531,2.773,1.037s2.689,.947,4.156,4.082"/>
      <path class="cls-4" d="M244.337,91.808s3.753,2.717,3.424,5.852c-.329,3.135-5.345,7.516-7.257,8.919"/>
      <path class="cls-4" d="M251.137,93.145s.707,4.171-3.352,3.37"/>
      <path class="cls-4" d="M250.486,95.968s-1.049,5.983,2.732,9.659c0,0,3.436,1.892,2.777,4.801-.659,2.909-4.063,5.179-7.603,4.53s-7.888,.841-7.888,.841"/>
      <path class="cls-4" d="M243.156,104.346s5.358-4.013,8.028-3.295"/>
      <path class="cls-4" d="M240.504,106.58c.703,.625,4.751,4.902,3.639,8.82"/>
      <path class="cls-4" d="M252.195,104.789s-3.772,7.221-8.426,6.528"/>
      <path class="cls-4" d="M257.57,102.042s2.098,2.082,2.99,8.916"/>
      <path class="cls-4" d="M257.973,121.531s-4.416-7.162-5.653-7.013l-.546,21.879"/>
      <line class="cls-4" x1="243.769" y1="124.107" x2="248.391" y2="121.865"/>
      <path class="cls-4" d="M327.713,196.122s-24.357,6.1-40.161,6.879c-10.085,.497-21.503-5.644-25.403-9.638-7.018-7.188-13.002-13.154-14.758-29.085"/>
      <path class="cls-4" d="M277.25,204.969c6.414,2.207,11.1,0,11.1,0"/>
      <path class="cls-4" d="M274.868,207.394s4.924,1.845,8.052,0c3.85-2.271,18.912-5.846,18.912-5.846"/>
      <path class="cls-19" d="M267.321,206.729c1.275-.775,2.752-2.956,2.402-8.183,.066,.362,6.175,11.265,5.899,10.751"/>
      <path class="cls-19" d="M279.793,202.246c-.627,2.589-2.33,3.919-7.203,1.302"/>
      <path class="cls-19" d="M282.921,207.394s16.116-.817,18.092,1.054"/>
      <path class="cls-19" d="M252.483,181.551c-.11,1.052,2.432,13.215,2.083,15.866"/>
      <path class="cls-19" d="M248.333,184.862s3.773,2.014,5.578,5.872"/>
      <path class="cls-19" d="M257.973,188.978s.225,6.855,1.756,9.067c1.217,1.759,2.033,.276,1.632,5.503"/>
      <line class="cls-19" x1="254.566" y1="197.417" x2="258.942" y2="196.11"/>
      <line class="cls-19" x1="257.382" y1="201.098" x2="259.729" y2="198.045"/>
      <path class="cls-19" d="M260.898,201.097s2.815-.636,4.133-.54,2.651,5.302,2.651,5.302"/>
      <line class="cls-19" x1="262.15" y1="193.362" x2="265.031" y2="200.557"/>
    </g>
    <path class="cls-13" d="M206.269,193.675c0-3.096-.958-5.828-2.422-7.489,.581-5.446,.885-11.115,.86-16.891-.031-7.346-.584-14.393-1.579-20.903,1.523-1.577,2.221-4.494,1.603-7.603-.653-3.283-2.578-5.808-4.728-6.544-.865-2.852-1.839-5.5-2.914-7.907,.523-1.497,.465-3.455-.294-5.38-1.168-2.959-3.599-4.848-5.752-4.639-3.515-4.77-7.276-9.129-11.151-13.231,.032-1.219-.244-2.546-.881-3.823-1.509-3.024-4.444-4.668-6.779-3.901-2.215-2.15-4.437-4.257-6.641-6.345-.728-.689-1.464-1.393-2.196-2.088,.449-1.913-.174-4.364-1.277-5.71-1.381-1.685-4.607-2.976-6.745-2.091-2.731-2.74-5.427-5.549-8.007-8.492-14.972-17.078-23.782-46.57-27.035-68.475-.059-.396-.43-.669-.824-.611-.396,.059-.669,.428-.611,.824,3.284,22.109,12.2,51.903,27.379,69.218,2.555,2.915,5.214,5.704,7.911,8.414-1.522,1.863-.897,5.508,.545,7.267,.909,1.109,2.619,2.045,4.291,2.306,.494,2.145,.84,4.25,1.095,6.367-.5-.031-1.001,.022-1.488,.177-1.66,.529-2.782,2.075-3.152,4.011-3.744-2.823-7.131-5.139-8.861-6.023-1.314-2.411-2.903-5.366-4.934-9.398-6.691-13.283-21.472-52.238-27.106-82.578-.073-.394-.455-.655-.845-.581-.394,.073-.654,.452-.581,.845,5.66,30.475,20.512,69.616,27.237,82.965,2.034,4.037,3.624,6.998,4.942,9.413,.03,.137,.094,.261,.196,.36,.203,.372,.4,.732,.59,1.079,2.526,4.615,4.195,7.665,6.911,14.481,2.865,7.192,5.729,16.172,8.017,24.849-2.091,1.087-3.216,4.143-2.567,7.407,.689,3.466,3.135,5.945,5.64,5.871,.33,1.699,.617,3.33,.855,4.87,2.391,15.463-3.561,27.111-8.974,34.16-.018,.024-.023,.052-.038,.078-.012,.021-.031,.035-.042,.058-15.574,12.714-24.105,14.869-34.344,14.36-15.558-.767-39.792-6.8-40.036-6.861l-.315,1.262c.176,.044,12.939,3.221,25.925,5.273l-.037,.156c.121,.029,9.963,2.374,15.641,4.43-4.818-.135-12.612-.137-14.791,1.134-12.098-3.02-27.062-8.483-27.242-8.549l-.447,1.221c.217,.08,21.886,7.992,34.291,10.074l1.026,.174c3.947,.666,7.158,1.208,10.434,1.208,5.494,0,11.168-1.526,20.783-6.554,7.764-4.061,9.54-9.35,10.212-14.964l.12-.127c.016-.006,.034-.004,.05-.011,.193-.093,.367-.173,.557-.264,1.072,.9,2.433,2.451,3.018,4.836,.46,1.879,.696,5.308,.968,9.278,.593,8.642,1.338,19.433,4.757,25.75-.238,.65-.33,1.321-.246,1.996,.436,3.51,5.364,5.787,11.008,5.086,4.897-.608,8.719-3.258,9.362-6.241,2.672-2.213,5.124-5.226,7.299-9.019,2.905-5.063,5.297-11.507,7.09-18.829,2.948-.366,5.27-4.312,5.27-9.137Zm-3.805-8.637c-.598-.341-1.239-.536-1.91-.536-.591,0-1.16,.144-1.696,.411-1.444-3.256-2.275-6.369-2.745-9.383,2.976-1.219,4.542-4.67,3.484-10.246-.521-2.749-2.092-4.966-3.991-5.781,.26-5.179,.957-8.683,1.771-11.166,1.134,.984,2.446,1.458,3.731,1.203,.228-.045,.446-.12,.657-.207,1.631,11.281,1.867,23.813,.698,35.705Zm-7.625,8.637c0,.457,.028,.902,.068,1.341-.217-.043-.448,.002-.624,.161-1.577,1.427-3.055,3.11-4.427,4.967-.303-1.78-.875-3.345-1.645-4.553,2.097-5.041,4.458-13.218,5.908-19.626,.19,0,.384-.021,.579-.049,.502,3.158,1.396,6.429,2.956,9.864-1.683,1.596-2.815,4.53-2.815,7.895Zm-44.504,1.813l-.133,.445c-.576,.683-1.064,1.293-1.375,1.742-.28,.405-.527,.598-.766,.784-.545,.425-.881,.804-1.016,1.745-.618-.111-1.364-.227-2.034-.279l1.323-3.303c2.868-1.82,5.986-4.08,9.436-6.852v.008c-1.123,1.189-3.497,3.732-5.241,5.767l-.196-.058Zm-2.027,5.095l.027-.12-.011-.003c.086-.619,.28-.776,.536-.976,.137-.107,.299-.234,.476-.406l1.458,1.897c-.71,.665-1.528,1.306-2.46,1.922-.074-1.128-.077-1.842-.027-2.315Zm1.867-2.547c.221-.292,.493-.631,.8-1l2.435,.727c-.465,.781-1.028,1.541-1.693,2.278l-1.542-2.005Zm-16.18,8.75c-.047,.016-4.676,1.709-7.495,.049-.2-.118-.435-.24-.688-.363,.185,.005,.37,.011,.558,.011,1.788,0,3.719-.235,5.626-.882,.066,.003,.125,.018,.193,.018,.863,0,1.881-.259,3.049-.75-.414,.738-.821,1.459-1.179,2.09l-.065-.173Zm2.249-3.715l-.05-.094c-2.273,1.22-3.934,1.611-4.93,1.165-.368-.164-.663-.478-.903-.915,2.211-.365,4.461-.964,6.832-1.876-.268,.492-.591,1.078-.948,1.719Zm.273,2.175c.578-1.03,1.026-1.835,1.374-2.465,.371,2.633,1.711,3.521,2.78,4.093-2.424,1.091-4.551,1.897-6.492,2.473,.357-.573,1.004-1.725,2.338-4.101Zm4.322,.223c-.977-.631-1.888-1.748-1.725-4.915,1.705-.757,3.482-1.674,5.361-2.785l-.913,2.28c-1.271,.651-2.219,3.508-2.723,5.42Zm16.801-17.396c2.83-3.809,5.72-8.82,7.519-14.932,.356,1.688,.646,3.565,.878,5.572-2.109,1.032-3.409,3.941-3.035,7.187-.56,.261-1.139,.528-1.741,.806-1.04,.48-2.166,1.004-3.334,1.555-.102-.07-.196-.132-.287-.19Zm-.496-70.406c.626,.354,1.209,.668,1.747,.955,2.785,1.488,4.646,2.49,7.561,6.74-.837,.676-1.415,1.628-1.636,2.706-1.329,.173-2.777,.604-4.045,1.069-1.137-3.923-2.363-7.808-3.627-11.47Zm4.997-8.417c.209-.031,.418-.074,.624-.139,.331-.105,.64-.253,.927-.434,2.943,2.578,5.343,4.923,6.361,6.397,.116,.39,.291,.796,.532,1.219,.047,.659-.071,1.12-.365,1.356-.32,.256-.858,.327-1.507,.296,.14-.743,.104-1.559-.155-2.371-.715-2.244-2.812-3.579-4.683-2.983-1.397,.445-2.272,1.841-2.33,3.453-1.41-.454-2.651-.804-3.685-.925,.052-.054,.105-.111,.157-.165,1.748-1.794,3.428-3.521,4.125-5.703Zm11.21,11.382c-.272,1.265-.063,2.742,.717,4.093,1.066,1.846,2.868,2.915,4.547,2.889,.516,.828,.943,1.759,1.399,3.187,.02,.14,.038,.279,.057,.419-1.046,.604-1.868,1.004-2.258,1.075-1.223,.22-2.574-.24-3.948-.915,.272-1.247,.248-2.576-.138-3.651-.921-2.569-3.615-3.953-6.019-3.096-1.2-1.758-2.248-3.013-3.243-3.973,.647,.227,1.334,.268,1.995,.057,.721-.23,1.299-.716,1.702-1.351,1.215,.125,2.241-.007,2.962-.586,.235-.189,.409-.429,.555-.691,.606,.959,1.159,1.798,1.67,2.545Zm19.352,55.055c-1.393,6.059-3.634,13.724-5.546,18.604-.06-.058-.12-.117-.181-.171,.218-4.107-.331-9.016-.815-13.331l-.102-.911c-1.007-9.061-1.656-16.508-2.156-22.803,.484,.142,.984,.216,1.497,.193,1.442-.064,2.735-.813,3.735-2.007,.538,1.545,1.024,3.147,1.456,4.577,.103,.339,.203,.671,.302,.996-1.195,1.534-1.946,4.012-2.197,6.924-.277,3.216,1.41,6.907,4.005,7.929Zm-15.21,28.108c.013-.373,.027-.745,.04-1.114,.123-3.522,.239-6.851,.794-9.751,.763-3.984,1.274-9.938,1.422-15.813,2.151-.512,3.654-2.64,4.003-5.322,.257,2.593,.542,5.332,.866,8.243l.102,.912c.428,3.824,.94,8.419,.835,12.305-.342-.126-.694-.212-1.06-.233-3.421-.195-6.47,4.485-6.81,10.454-.005,.09-.004,.177-.007,.266-.061,.018-.123,.035-.184,.053Zm-10.55-41.946c.034-1.32-.006-2.683-.094-4.071,.003-.007,.008-.013,.01-.02,1.043-3.354,3.411-3.83,6.688-4.488,.58-.117,1.17-.235,1.771-.374,.002,.885,.344,2.093,.873,3.927,.326,1.13,.731,2.535,1.148,4.199,.09,.359,.172,.754,.25,1.172-.317-.009-.635,.008-.953,.071-1.634,.325-2.906,1.578-3.615,3.3-.765-.46-1.546-.982-2.298-1.485-1.36-.912-2.644-1.757-3.781-2.23Zm15.449-5.497c.263,3.354,.568,7.037,.947,11.129-.78-2.43-2.387-4.268-4.227-4.974-.108-.672-.229-1.292-.366-1.836-.423-1.689-.832-3.108-1.161-4.25-.538-1.866-1.002-3.477-.769-3.875,.031-.053,.126-.086,.213-.11,.026-.008,.051-.014,.077-.022,.819-.193,1.54-.437,2.188-.703,.59,2.023,1.704,3.678,3.098,4.641Zm-1.145-14.557c-1.571,1.609-2.533,4.255-2.402,7.202,.019,.436,.07,.86,.134,1.277-.457,.198-.957,.383-1.509,.545-.324-1.541-.938-3.705-1.717-6.152l-.006-.02c-1.01-3.168-2.291-6.794-3.562-10.105,.508-.456,.923-1.069,1.231-1.768,1.238,.594,2.488,1.027,3.739,1.027,.306,0,.613-.026,.919-.082,.425-.077,1.217-.438,2.207-.981,.389,2.945,.692,5.908,.968,9.056Zm-19.491-24.157c.009,.032,.012,.063,.022,.095,.146,.459,.362,.869,.611,1.243-.894-.603-1.806-1.094-2.815-1.633-.406-.217-.835-.447-1.291-.699,1.048,.216,2.35,.626,3.474,.994Zm2.99,11.898c.039,.439,.113,.88,.269,1.316,.894,2.493,3.534,5.035,5.886,4.404,.828,2.169,1.659,4.469,2.414,6.677-1.614-1.43-3.334-2.261-5.377-2.147-.988-2.895-3.24-4.827-5.506-4.637-.404-1.532-.828-3.071-1.265-4.61,1.369-.508,2.58-.847,3.578-1.003Zm3.56,11.695c2.288-.004,4.086,1.496,6.089,3.968,.77,2.418,1.374,4.546,1.676,6.011-.953,.266-1.894,.455-2.81,.639-2.598,.522-5.08,1.029-6.667,3.196-.063-.522-.112-1.037-.194-1.569-.243-1.574-.538-3.242-.876-4.98,2.154-.982,3.353-3.996,2.781-7.266Zm-1.446,22.165c.905,.451,1.954,1.15,3.056,1.888,.868,.582,1.771,1.184,2.67,1.706-.243,1.176-.259,2.482,.007,3.82,.407,2.047,1.389,3.779,2.648,4.928-.896,2.09-2.025,3.668-3.474,4.999-1.106-1.584-2.678-2.528-4.319-2.407-.348-2.935-.809-5.626-1.436-7.824-.024-.082-.066-.153-.114-.219,.485-2.174,.814-4.474,.962-6.891Zm2.139,28.968c2.828-.351,4.731-3.775,4.25-7.648-.12-.967-.377-1.87-.74-2.676,1.637-1.436,2.923-3.146,3.941-5.436,.593,.327,1.218,.535,1.855,.604-.152,5.737-.656,11.548-1.403,15.449-.577,3.012-.695,6.394-.82,9.975-.018,.515-.036,1.036-.056,1.56-.631,.166-1.25,.334-1.846,.518-.469-3.617-2.529-6.342-4.999-6.342-.213,0-.421,.027-.627,.066-.044-1.92-.094-3.956-.164-6.048,.202,.007,.404,.003,.608-.022Zm.951,21.724c2.451-.576,4.332-3.848,4.332-7.811,0-.026-.002-.051-.003-.077,.522-.172,1.086-.333,1.685-.492-.267,5.989-.894,12.521-3.757,19.312-.893,.323-1.712,.717-2.442,1.168-.155-3.935-.008-8.287,.184-12.101Zm9.487,10.082c-1.187-.137-2.456-.141-3.767,.022-.578,.072-1.136,.178-1.68,.304,2.648-6.784,3.196-13.251,3.444-19.178,.08-.022,.16-.044,.24-.066,.129,3.453,1.214,6.408,2.843,8.037-.008,2.431-.091,4.866-.639,8.982-.16,.643-.307,1.276-.441,1.899Zm2.522-9.859c.119,.053,.242,.092,.364,.132-.134,.357-.265,.714-.392,1.07,.013-.409,.023-.81,.029-1.202Zm16.449-80.266c-.124,.011-.248,.021-.372,.045-2.848,.566-4.47,4.484-3.622,8.751,.331,1.667,.993,3.136,1.844,4.279-.944,2.593-1.784,6.326-2.091,12.048-.372-.014-.749,.025-1.127,.127-.341,.092-.662,.242-.967,.436-.032-.105-.063-.207-.095-.313-.572-1.891-1.173-3.873-1.848-5.69,.744-1.481,1.15-3.311,1.062-5.281-.21-4.72-3.145-8.422-6.555-8.27-.72,.032-1.4,.242-2.028,.584-.275-3.039-.584-5.922-.976-8.806,2.375-1.44,5.387-3.566,7.797-5.698,1.513,2.115,3.725,3.183,5.55,2.463,.46-.181,.858-.466,1.194-.826,.816,1.923,1.558,3.983,2.232,6.152Zm-8.797-17.22c-1.887,1.222-2.465,4.384-1.25,7.462,.096,.244,.204,.479,.317,.708-2.197,1.97-5.015,3.995-7.267,5.414-.43-1.356-.855-2.321-1.326-3.15,.079-.038,.164-.057,.241-.101,2.01-1.161,2.467-4.132,1.021-6.637-1.446-2.505-4.248-3.594-6.258-2.434-.426,.246-.766,.587-1.049,.974-.624-.937-1.31-2.011-2.071-3.261-.079-.346-.262-.746-.539-1.193-.48-1.776,.759-3.117,2.675-4.972,.634-.614,1.294-1.256,1.876-1.952,.56-.01,1.107-.128,1.614-.381,.959-.479,1.621-1.35,1.985-2.42,3.481,3.729,6.859,7.671,10.032,11.942Zm-29.092-27.209c.644-.083,1.24-.303,1.727-.702,.202-.166,.371-.361,.523-.57,.609,.578,1.218,1.155,1.823,1.729,2.103,1.992,4.221,4,6.333,6.047-1.708,1.534-2.018,4.644-.602,7.481,.938,1.879,2.426,3.22,3.979,3.787-.382,.403-.79,.802-1.206,1.206-1.268,1.227-2.629,2.554-3.077,4.164-1.343-1.538-3.221-3.318-5.232-5.083,1.253-1.585,1.652-4.112,.85-6.631-.732-2.296-2.282-4.019-4.019-4.738-.253-2.226-.594-4.433-1.098-6.69Zm-12.563,6.954c1.974,1.256,4.611,3.15,7.393,5.287,.027,.761,.154,1.548,.405,2.335,.847,2.659,2.791,4.553,4.852,5.002-.673,1.706-2.081,3.158-3.63,4.747-.279,.287-.559,.589-.84,.884-.586-1.615-1.176-3.179-1.766-4.661-2.537-6.369-4.17-9.485-6.414-13.594Zm-26.45,107.082c.9,.044,1.787,.068,2.666,.068,1.622,0,3.22-.093,4.826-.292,.244,.58,.565,1.03,.953,1.379-5.585,1.183-11.102-.965-11.162-.988l-.049,.123c-.79-.237-1.591-.469-2.383-.694,1.785,.183,3.516,.323,5.15,.404Zm-5.704,5.732l-1.028-.173c-1.362-.229-2.842-.532-4.391-.885,3.396-.561,10.467-.545,15.632-.287,1.122,.61,2.41,.828,3.641,.828,1.398,0,2.702-.263,3.602-.5-.183,.32-.312,.544-.349,.605l.267,.17-.28-.151c-.117,.219-.104,.501,.039,.703-6.069,1.557-10.46,.818-17.133-.309Zm30.397-5.216c-1.468,.768-2.835,1.449-4.123,2.058l.031-.051c-.142-.086-.302-.169-.465-.254l.395,.101c.603-2.352,1.599-4.649,2.068-4.815,.689-.049,1.918,.134,2.873,.31,.005,.564,.038,1.241,.103,2.083l.145-.011c-.334,.195-.666,.39-1.028,.58Zm7.83-7.576l-2.133-.637c1.137-1.306,2.478-2.771,3.549-3.924-.286,1.567-.718,3.095-1.416,4.562Zm9.145,7.378c-.277-4.038-.517-7.525-1.007-9.525-.593-2.418-1.852-4.087-2.995-5.168,.937-.439,1.843-.86,2.695-1.253,.486-.224,.955-.441,1.416-.655,.621,2.245,2.003,3.985,3.645,4.687,.084,2.431,.141,4.796,.19,6.993-1.788,1.229-3.036,4.001-3.036,7.229,0,4.007,1.923,7.31,4.415,7.83-.207,4.137-.361,8.9-.135,13.118-.379,.335-.713,.688-.999,1.056-2.944-6.217-3.659-16.581-4.189-24.312Zm29.476,16.95c-1.863,3.247-3.89,5.872-6.07,7.886-.515-2.081-2.652-3.665-5.546-4.355,.107-.714,.2-1.376,.284-2.007,.65-2.549,1.499-5.199,2.516-7.825,3.182-.322,5.917-4.803,6.239-10.437,.035-.606,.033-1.198,.011-1.78,1.561-2.319,3.245-4.368,5.013-5.997,.624,3.219,2.325,5.67,4.425,6.287-1.701,6.938-3.983,13.196-6.87,18.228Z"/>
    <path class="cls-70" d="M141.771,52.67s29.601,31.508,44.531,48.762c22.142,25.588,24.596,37.234,24.387,77.308-.129,24.695-13.027,51.805-18.591,55.785-2.626,1.878-23.125,18.139-30.633-8.751-1.645-5.893-21.116-159.211-19.694-173.103Z"/>
  </g>
</svg>