<svg id="レイヤー_6" data-name="レイヤー 6" xmlns="http://www.w3.org/2000/svg" xmlns:xlink="http://www.w3.org/1999/xlink" viewBox="0 0 239 160"><defs><style>.cls-1{fill:#b3ddd5;}.cls-2{fill:#d5ecea;}.cls-3{fill:#7bc490;}.cls-4{fill:url(#新規グラデーションスウォッチ_6);}.cls-5{fill:url(#名称未設定グラデーション_209);}.cls-6{fill:url(#名称未設定グラデーション_212);}.cls-7{fill:url(#新規グラデーションスウォッチ_1);}.cls-8{fill:#f0938d;}.cls-9{fill:#ed747b;}.cls-10{fill:url(#新規グラデーションスウォッチ_1-2);}.cls-11{fill:url(#名称未設定グラデーション_214);}.cls-12{fill:#ea5c71;}.cls-13{fill:url(#新規グラデーションスウォッチ_1-3);}.cls-14{fill:url(#新規グラデーションスウォッチ_1-4);}.cls-15{fill:#7f4f21;}.cls-16,.cls-17{fill:none;}.cls-16{stroke:#7f4f21;stroke-miterlimit:10;}.cls-18{fill:#e60012;}</style><linearGradient id="新規グラデーションスウォッチ_6" x1="59" y1="143.11" x2="147" y2="143.11" gradientUnits="userSpaceOnUse"><stop offset="0" stop-color="#9fcf8d"/><stop offset="0.112" stop-color="#b6d8a6"/><stop offset="0.272" stop-color="#d2e2c4"/><stop offset="0.409" stop-color="#e3e9d6"/><stop offset="0.507" stop-color="#e9ebdd"/><stop offset="0.648" stop-color="#d4e4cc"/><stop offset="0.854" stop-color="#bbdcb8"/><stop offset="0.98" stop-color="#b2d9b1"/></linearGradient><linearGradient id="名称未設定グラデーション_209" x1="273.508" y1="447.865" x2="288.682" y2="371.839" gradientTransform="matrix(0.943, 0.303, -0.082, 1.034, 43.399, -97.388)" gradientUnits="userSpaceOnUse"><stop offset="0" stop-color="#e9ebdd"/><stop offset="0.323" stop-color="#cfe2ca"/><stop offset="1" stop-color="#8fcb99"/></linearGradient><linearGradient id="名称未設定グラデーション_212" x1="378.405" y1="473.425" x2="385.619" y2="437.281" gradientUnits="userSpaceOnUse"><stop offset="0" stop-color="#f6ac58"/><stop offset="0.188" stop-color="#f6ad5c"/><stop offset="0.376" stop-color="#f7b268"/><stop offset="0.563" stop-color="#f7b97c"/><stop offset="0.75" stop-color="#f8c298"/><stop offset="0.935" stop-color="#f9cfbc"/><stop offset="1" stop-color="#fad4ca"/></linearGradient><linearGradient id="新規グラデーションスウォッチ_1" x1="354.408" y1="471.555" x2="361.949" y2="433.777" gradientUnits="userSpaceOnUse"><stop offset="0" stop-color="#f6ac58"/><stop offset="1" stop-color="#fad4ca"/></linearGradient><linearGradient id="新規グラデーションスウォッチ_1-2" x1="354.027" y1="437.185" x2="354.027" y2="423.769" xlink:href="#新規グラデーションスウォッチ_1"/><linearGradient id="名称未設定グラデーション_214" x1="312.781" y1="363.838" x2="348.076" y2="384.215" gradientUnits="userSpaceOnUse"><stop offset="0" stop-color="#f6ac58"/><stop offset="0.221" stop-color="#f6ad5b"/><stop offset="0.403" stop-color="#f6b166"/><stop offset="0.572" stop-color="#f7b777"/><stop offset="0.733" stop-color="#f8bf8f"/><stop offset="0.887" stop-color="#f9caae"/><stop offset="1" stop-color="#fad4ca"/></linearGradient><linearGradient id="新規グラデーションスウォッチ_1-3" x1="339.64" y1="446.637" x2="339.64" y2="426.63" xlink:href="#新規グラデーションスウォッチ_1"/><linearGradient id="新規グラデーションスウォッチ_1-4" x1="321.803" y1="341.011" x2="362.857" y2="341.011" xlink:href="#新規グラデーションスウォッチ_1"/></defs><rect class="cls-1" width="239" height="160"/><path class="cls-2" d="M222.857,314.186v97.227a110.274,110.274,0,0,0,162-97.227Z" transform="translate(-222.857 -314.186)"/><circle class="cls-2" cx="196.5" cy="21.61" r="19"/><circle class="cls-2" cx="170" cy="44.61" r="9"/><path class="cls-3" d="M283.357,464.546c2.4,5.772,8.74,2.758,11.221,9.64h57.6a9.462,9.462,0,0,1,6.184-5.794c7.376-2.569,9.25-11.1,9.25-11.1h-83S280.857,458.546,283.357,464.546Z" transform="translate(-222.857 -314.186)"/><ellipse class="cls-4" cx="103" cy="143.11" rx="44" ry="12.5"/><ellipse class="cls-3" cx="273.448" cy="413.155" rx="18.591" ry="41.595" transform="translate(-328.074 -220.537) rotate(-16.345)"/><ellipse class="cls-5" cx="274.993" cy="411.296" rx="18.054" ry="41.463" transform="translate(-322.912 -225.573) rotate(-15.525)"/><path class="cls-6" d="M386.857,444.3a8.246,8.246,0,0,0-7.75-8.25l-4.75.5,7.861,37.64h7.445C389.067,468.449,387.272,450.943,386.857,444.3Z" transform="translate(-222.857 -314.186)"/><path class="cls-7" d="M382.357,443.046s-1.75-7-8-6.5-40.75-2-40.75-2l-9.75,27s20,3.25,39.75-6c0,0,2.332,11.661,3.986,18.64h18.839C385.312,465.046,382.357,443.046,382.357,443.046Z" transform="translate(-222.857 -314.186)"/><path class="cls-8" d="M299.429,474.186h21.424c16-15.85,13-39.89,13-39.89C323.711,459.1,307.072,470.2,299.429,474.186Z" transform="translate(-222.857 -314.186)"/><path class="cls-9" d="M334.857,433.3s-15.25,19-26.25,19.75-13.5,2.5-14.5,0l4.25,7.5-2.5,13.5S328.635,469.7,334.857,433.3Z" transform="translate(-222.857 -314.186)"/><path class="cls-10" d="M331.482,427.171s4.642-4.176,9.2-3.275v1.574a101.4,101.4,0,0,1,20.3,5.2,14.134,14.134,0,0,0,4.708,1.209s8.667-3.667,10.542.166c1.3,2.662-1.375,4.113-3.875,4.863s-8.81-.283-13.25-.14c-4.215.136-25.25-2.473-25.25-2.473S331.857,432.421,331.482,427.171Z" transform="translate(-222.857 -314.186)"/><path class="cls-11" d="M347.19,360.3c-.667.667-7.833,1.977-8.5,12.655s1.833,24.345,1.833,24.345H330.19l-15.471-22.978s10.638-4.855,11.138-6.522-3.334-20.833-3.334-20.833Z" transform="translate(-222.857 -314.186)"/><path class="cls-9" d="M337.857,408.8s6.57,1.75,3.91,15a13.292,13.292,0,0,0-10.16,5.75s-1.75-5.25-6-5.25S330.357,411.3,337.857,408.8Z" transform="translate(-222.857 -314.186)"/><path class="cls-12" d="M340.107,394.186l-9.5-.39-4-10.5s-1.75-11.5-9.25-10.25c0,0-12,4.03-17.75,21.14s-3.75,16.61-4.25,17.86,2.25,19.5,2.25,19.5-10.872,15.477-2.311,26.364,30.311-11.364,30.311-11.364l8-12-2.125-16.333s6.547-5.928,11.015-9.917c3.36-3,1.61-5.75,1.61-5.75Z" transform="translate(-222.857 -314.186)"/><path class="cls-9" d="M308.357,434.3s-2-4-4.5-4.75-3-3-2.5-6.75,3.413-15,3.413-15l1.837-17s-.75-9,10.25-10,5.75,21.25,5.75,24.75,5.313,5.25,1.906,13.625-2.406,10.375-2.406,10.375S315.107,427.3,308.357,434.3Z" transform="translate(-222.857 -314.186)"/><path class="cls-13" d="M310.357,431.463s1.916-6.333,10.333-4.5l.667,7.167s22.5,2.916,28.083,4.916a14.829,14.829,0,0,0,10.167,0s7.583-2.083,9.166,3.25-9.833,4.25-9.833,4.25a32.036,32.036,0,0,0-11.667-2.5c-6.416-.083-34.75-2.25-35.666-3.083S310.357,431.463,310.357,431.463Z" transform="translate(-222.857 -314.186)"/><path class="cls-14" d="M335.523,320.13s12.5,2.166,15.834,8.333,4.5,7.333,4.5,7.333.166.167,3.5,0,3.5,1.5,3.5,2.334-4.5,3.833-4.5,3.833,4.166,8.667.833,16.833a25.47,25.47,0,0,1-28.667-3l-3.333-1s-6.667-2.833-5.167-6.5,3.355-2.958,6.021-1.625,1.685,1.743,1.685,1.743l.794-9.451,5-9.5Z" transform="translate(-222.857 -314.186)"/><path class="cls-15" d="M310.083,328.67s4.283-8.994,16.833-9.333c10.941-.3,13.284,1.5,13.284,1.5s-2.451,18-9.451,23.333c-1.365,1.04-.461,5.521-.461,5.521s-2.765-4.645-6.431-3.145-2.608,6.291,4.392,6.791l.5,8s-1.583,2.5,3.292,2.333l4.875-.166s-6.667,4-12.5,4-6.5-3.667-6.5-3.667-.167-1.5-2.333-1.5-7.5.167-7.5.167-4.167-.334-1.834-4,7.728-6.667,7.728-6.667S306.916,346.837,310.083,328.67Z" transform="translate(-222.857 -314.186)"/><path class="cls-1" d="M329.729,348.414" transform="translate(-222.857 -314.186)"/><path class="cls-16" d="M344.482,326.984s-1.063-2.188-2.125,5.187" transform="translate(-222.857 -314.186)"/><polyline class="cls-16" points="130 25.86 126.687 19.36 128.625 17.172"/><ellipse class="cls-17" cx="134.375" cy="37.266" rx="4.375" ry="3.656"/><path class="cls-18" d="M359.315,347.8s-3.914.446-4.833,1.375c-1.361,1.376-.616,3.092,2.75,3.375a28.087,28.087,0,0,0,3.234.166,14.39,14.39,0,0,0-.229-4.462A.693.693,0,0,0,359.315,347.8Z" transform="translate(-222.857 -314.186)"/></svg>