<?xml version="1.0" encoding="UTF-8"?>
<svg id="_レイヤー_1" data-name="レイヤー 1" xmlns="http://www.w3.org/2000/svg" width="182.297mm" height="103.785mm" viewBox="0 0 516.746 294.194">
  <defs>
    <style>
      .cls-1 {
        fill: #036eb8;
      }

      .cls-2 {
        fill: #f2a7c8;
      }

      .cls-3 {
        fill: #231815;
      }

      .cls-4 {
        fill: #6cc6db;
      }

      .cls-5 {
        fill: #5ac1ca;
      }

      .cls-6 {
        opacity: .6;
      }

      .cls-6, .cls-7 {
        fill: #efefef;
      }

      .cls-7 {
        opacity: .3;
      }
    </style>
  </defs>
  <rect class="cls-7" y="210.695" width="516.746" height="68.823"/>
  <rect class="cls-6" y="140.463" width="516.746" height="68.823"/>
  <rect class="cls-7" y="70.232" width="516.746" height="68.823"/>
  <rect class="cls-6" width="516.746" height="68.823"/>
  <g>
    <rect class="cls-5" x="38.281" y="254.081" width="7.668" height="25.438"/>
    <rect class="cls-2" x="38.281" y="226.599" width="7.668" height="27.991"/>
  </g>
  <g>
    <rect class="cls-4" x="20.558" y="274.533" width="7.668" height="4.985"/>
    <rect class="cls-2" x="20.558" y="269.794" width="7.668" height="4.739"/>
  </g>
  <g>
    <rect class="cls-5" x="56.005" y="239.704" width="7.668" height="39.815"/>
    <rect class="cls-2" x="56.005" y="200.008" width="7.668" height="40.205"/>
  </g>
  <g>
    <rect class="cls-5" x="73.729" y="233.342" width="7.668" height="46.176"/>
    <rect class="cls-2" x="73.729" y="187.539" width="7.668" height="46.312"/>
  </g>
  <g>
    <rect class="cls-5" x="91.452" y="231.688" width="7.668" height="47.83"/>
    <rect class="cls-2" x="91.452" y="185.885" width="7.668" height="46.312"/>
  </g>
  <g>
    <rect class="cls-5" x="109.176" y="233.597" width="7.668" height="45.922"/>
    <rect class="cls-2" x="109.176" y="178.633" width="7.668" height="55.473"/>
  </g>
  <g>
    <rect class="cls-5" x="126.9" y="229.144" width="7.668" height="50.375"/>
    <rect class="cls-2" x="126.9" y="171.126" width="7.668" height="58.526"/>
  </g>
  <g>
    <rect class="cls-5" x="144.623" y="232.197" width="7.668" height="47.321"/>
    <rect class="cls-2" x="144.623" y="168.073" width="7.668" height="64.634"/>
  </g>
  <g>
    <rect class="cls-5" x="162.347" y="203.316" width="7.668" height="76.203"/>
    <rect class="cls-2" x="162.347" y="130.03" width="7.668" height="73.794"/>
  </g>
  <g>
    <rect class="cls-5" x="180.07" y="189.702" width="7.668" height="89.817"/>
    <rect class="cls-2" x="180.07" y="122.524" width="7.668" height="67.687"/>
  </g>
  <g>
    <rect class="cls-5" x="197.794" y="197.209" width="7.668" height="82.31"/>
    <rect class="cls-2" x="197.794" y="126.977" width="7.668" height="70.741"/>
  </g>
  <g>
    <rect class="cls-5" x="215.518" y="189.956" width="7.668" height="89.562"/>
    <rect class="cls-2" x="215.518" y="110.564" width="7.668" height="79.901"/>
  </g>
  <g>
    <rect class="cls-5" x="233.241" y="186.521" width="7.668" height="92.997"/>
    <rect class="cls-2" x="233.241" y="110.182" width="7.668" height="76.848"/>
  </g>
  <g>
    <rect class="cls-5" x="250.965" y="190.593" width="7.668" height="88.926"/>
    <rect class="cls-2" x="250.965" y="108.147" width="7.668" height="82.955"/>
  </g>
  <g>
    <rect class="cls-5" x="268.689" y="176.215" width="7.668" height="103.303"/>
    <rect class="cls-2" x="268.689" y="90.716" width="7.668" height="86.008"/>
  </g>
  <g>
    <rect class="cls-5" x="286.412" y="182.831" width="7.668" height="96.687"/>
    <rect class="cls-2" x="286.412" y="100.386" width="7.668" height="82.955"/>
  </g>
  <g>
    <rect class="cls-5" x="304.136" y="162.093" width="7.668" height="117.426"/>
    <rect class="cls-2" x="304.136" y="67.433" width="7.668" height="95.169"/>
  </g>
  <g>
    <rect class="cls-5" x="321.86" y="151.66" width="7.668" height="127.859"/>
    <rect class="cls-2" x="321.86" y="44.785" width="7.668" height="107.383"/>
  </g>
  <g>
    <rect class="cls-5" x="339.583" y="135.374" width="7.668" height="144.144"/>
    <rect class="cls-2" x="339.583" y="13.232" width="7.668" height="122.651"/>
  </g>
  <g>
    <rect class="cls-5" x="357.307" y="137.028" width="7.668" height="142.49"/>
    <rect class="cls-2" x="357.307" y="36.261" width="7.668" height="101.276"/>
  </g>
  <g>
    <rect class="cls-5" x="375.03" y="146.443" width="7.668" height="133.075"/>
    <rect class="cls-2" x="375.03" y="57.89" width="7.668" height="89.062"/>
  </g>
  <g>
    <rect class="cls-5" x="392.754" y="136.646" width="7.668" height="142.872"/>
    <rect class="cls-2" x="392.754" y="41.986" width="7.668" height="95.169"/>
  </g>
  <g>
    <rect class="cls-5" x="410.202" y="132.09" width="7.668" height="147.428"/>
    <rect class="cls-2" x="410.202" y="34.412" width="7.668" height="98.204"/>
  </g>
  <g>
    <path class="cls-3" d="m19.928,286.616l-.875-.381,1.241-2.793.662.303-1.028,2.871Z"/>
    <path class="cls-3" d="m22.332,291.567l-.745-.62,1.607-2.456c-.087.013-.161.022-.222.029s-.11.01-.148.01c-.543,0-1.014-.232-1.411-.698-.395-.462-.592-1.019-.592-1.67,0-.693.219-1.286.658-1.777.441-.495.97-.742,1.585-.742s1.146.244,1.599.732c.453.485.679,1.058.679,1.719,0,.586-.221,1.219-.662,1.899l-2.347,3.574Zm-.523-5.488c0,.407.124.749.371,1.025.25.28.55.42.901.42s.65-.139.897-.415c.25-.28.375-.617.375-1.011s-.125-.73-.375-1.011c-.247-.276-.547-.415-.901-.415-.349,0-.646.139-.893.415-.25.28-.375.61-.375.991Z"/>
    <path class="cls-3" d="m29.391,284.834h-2.073l-.331,1.25c.049-.007.096-.012.141-.015.045-.003.086-.005.125-.005.653,0,1.189.247,1.607.742.421.491.631,1.121.631,1.89,0,.794-.238,1.448-.714,1.963s-1.076.771-1.798.771c-.892,0-1.594-.469-2.108-1.406l.767-.728c.212.403.425.688.64.854.215.163.478.244.788.244.406,0,.748-.159,1.023-.479.276-.329.414-.728.414-1.196,0-.481-.136-.876-.409-1.182-.273-.315-.614-.474-1.023-.474-.456,0-.849.223-1.18.669h-.335l1.058-3.965h2.779v1.064Z"/>
    <path class="cls-3" d="m36.932,286.616l-.875-.381,1.241-2.793.662.303-1.028,2.871Z"/>
    <path class="cls-3" d="m39.336,291.567l-.745-.62,1.607-2.456c-.087.013-.161.022-.222.029s-.11.01-.148.01c-.543,0-1.014-.232-1.411-.698-.395-.462-.592-1.019-.592-1.67,0-.693.219-1.286.658-1.777.441-.495.97-.742,1.585-.742s1.146.244,1.599.732c.453.485.679,1.058.679,1.719,0,.586-.221,1.219-.662,1.899l-2.347,3.574Zm-.523-5.488c0,.407.124.749.371,1.025.25.28.55.42.901.42s.65-.139.897-.415c.25-.28.375-.617.375-1.011s-.125-.73-.375-1.011c-.247-.276-.547-.415-.901-.415-.349,0-.646.139-.893.415-.25.28-.375.61-.375.991Z"/>
    <path class="cls-3" d="m45.206,283.506l.745.625-1.607,2.451c.087-.013.161-.022.222-.029s.109-.01.144-.01c.546,0,1.018.234,1.416.703.395.462.592,1.019.592,1.67,0,.69-.221,1.282-.662,1.777-.438.491-.965.737-1.581.737-.61,0-1.144-.242-1.603-.728-.45-.485-.675-1.06-.675-1.724,0-.596.219-1.228.658-1.895l2.352-3.579Zm.522,5.483c0-.4-.124-.739-.37-1.016-.25-.28-.55-.42-.901-.42-.354,0-.655.139-.901.415-.247.276-.371.612-.371,1.006s.124.729.371,1.006c.247.276.548.415.906.415.348,0,.646-.139.893-.415.25-.28.375-.61.375-.991Z"/>
    <path class="cls-3" d="m53.936,286.616l-.875-.381,1.241-2.793.662.303-1.028,2.871Z"/>
    <path class="cls-3" d="m56.34,291.567l-.745-.62,1.607-2.456c-.087.013-.161.022-.222.029s-.11.01-.148.01c-.543,0-1.014-.232-1.411-.698-.395-.462-.592-1.019-.592-1.67,0-.693.219-1.286.658-1.777.441-.495.97-.742,1.585-.742s1.146.244,1.599.732c.453.485.679,1.058.679,1.719,0,.586-.221,1.219-.662,1.899l-2.347,3.574Zm-.523-5.488c0,.407.124.749.371,1.025.25.28.55.42.901.42s.65-.139.897-.415c.25-.28.375-.617.375-1.011s-.125-.73-.375-1.011c-.247-.276-.547-.415-.901-.415-.349,0-.646.139-.893.415-.25.28-.375.61-.375.991Z"/>
    <path class="cls-3" d="m62.489,284.834h-3.319v-1.064h5.013l-4.242,7.798-.806-.571,3.354-6.162Z"/>
    <path class="cls-3" d="m72.56,286.616l-.875-.381,1.241-2.793.662.303-1.028,2.871Z"/>
    <path class="cls-3" d="m74.964,291.567l-.745-.62,1.607-2.456c-.087.013-.161.022-.222.029s-.11.01-.148.01c-.543,0-1.014-.232-1.411-.698-.395-.462-.592-1.019-.592-1.67,0-.693.219-1.286.658-1.777.441-.495.97-.742,1.585-.742s1.146.244,1.599.732c.453.485.679,1.058.679,1.719,0,.586-.221,1.219-.662,1.899l-2.347,3.574Zm-.523-5.488c0,.407.124.749.371,1.025.25.28.55.42.901.42s.65-.139.897-.415c.25-.28.375-.617.375-1.011s-.125-.73-.375-1.011c-.247-.276-.547-.415-.901-.415-.349,0-.646.139-.893.415-.25.28-.375.61-.375.991Z"/>
    <path class="cls-3" d="m78.883,287.388c-.494-.391-.74-.923-.74-1.597,0-.612.187-1.123.562-1.533.377-.41.846-.615,1.406-.615s1.022.205,1.394.615c.372.407.558.92.558,1.538,0,.647-.245,1.177-.736,1.587.27.163.482.4.636.713.157.312.235.664.235,1.055,0,.667-.195,1.214-.584,1.641-.389.427-.887.64-1.494.64-.621,0-1.134-.215-1.537-.645-.407-.43-.61-.97-.61-1.621,0-.847.303-1.438.91-1.777Zm.087,1.738c0,.349.107.647.322.898.218.247.482.371.792.371.308,0,.57-.122.788-.366.218-.247.327-.544.327-.889,0-.349-.109-.645-.327-.889s-.48-.366-.788-.366c-.305,0-.568.122-.788.366-.218.244-.327.535-.327.874Zm.126-3.34c0,.322.097.593.292.811.197.222.436.332.714.332.275,0,.512-.11.709-.332.198-.222.296-.486.296-.796s-.099-.574-.296-.796c-.197-.222-.434-.332-.709-.332s-.513.11-.71.332c-.198.222-.296.481-.296.781Z"/>
    <path class="cls-3" d="m91.184,286.616l-.875-.381,1.241-2.793.662.303-1.028,2.871Z"/>
    <path class="cls-3" d="m93.588,291.567l-.745-.62,1.607-2.456c-.087.013-.161.022-.222.029s-.11.01-.148.01c-.543,0-1.014-.232-1.411-.698-.395-.462-.592-1.019-.592-1.67,0-.693.219-1.286.658-1.777.441-.495.97-.742,1.585-.742s1.146.244,1.599.732c.453.485.679,1.058.679,1.719,0,.586-.221,1.219-.662,1.899l-2.347,3.574Zm-.523-5.488c0,.407.124.749.371,1.025.25.28.55.42.901.42s.65-.139.897-.415c.25-.28.375-.617.375-1.011s-.125-.73-.375-1.011c-.247-.276-.547-.415-.901-.415-.349,0-.646.139-.893.415-.25.28-.375.61-.375.991Z"/>
    <path class="cls-3" d="m97.96,291.567l-.745-.62,1.607-2.456c-.087.013-.161.022-.222.029s-.11.01-.148.01c-.543,0-1.014-.232-1.411-.698-.395-.462-.592-1.019-.592-1.67,0-.693.219-1.286.658-1.777.441-.495.97-.742,1.585-.742s1.146.244,1.599.732c.453.485.679,1.058.679,1.719,0,.586-.221,1.219-.662,1.899l-2.347,3.574Zm-.523-5.488c0,.407.124.749.371,1.025.25.28.55.42.901.42s.65-.139.897-.415c.25-.28.375-.617.375-1.011s-.125-.73-.375-1.011c-.247-.276-.547-.415-.901-.415-.349,0-.646.139-.893.415-.25.28-.375.61-.375.991Z"/>
    <path class="cls-3" d="m108.188,286.616l-.875-.381,1.241-2.793.662.303-1.028,2.871Z"/>
    <path class="cls-3" d="m108.967,287.49c0-1.201.25-2.16.749-2.876.447-.647.989-.972,1.625-.972s1.177.324,1.625.972c.499.716.749,1.691.749,2.925s-.25,2.204-.749,2.92c-.447.647-.987.972-1.62.972s-1.176-.324-1.629-.972c-.5-.716-.749-1.706-.749-2.969Zm.997.005c0,.837.129,1.531.388,2.085.258.544.588.815.989.815.397,0,.727-.271.989-.815.261-.54.392-1.223.392-2.046s-.13-1.507-.392-2.051c-.262-.54-.591-.811-.989-.811-.395,0-.723.271-.984.811-.261.537-.392,1.208-.392,2.012Z"/>
    <path class="cls-3" d="m113.339,287.49c0-1.201.25-2.16.749-2.876.447-.647.989-.972,1.625-.972s1.177.324,1.625.972c.499.716.749,1.691.749,2.925s-.25,2.204-.749,2.92c-.447.647-.987.972-1.62.972s-1.176-.324-1.629-.972c-.5-.716-.749-1.706-.749-2.969Zm.997.005c0,.837.129,1.531.388,2.085.258.544.588.815.989.815.397,0,.727-.271.989-.815.261-.54.392-1.223.392-2.046s-.13-1.507-.392-2.051c-.262-.54-.591-.811-.989-.811-.395,0-.723.271-.984.811-.261.537-.392,1.208-.392,2.012Z"/>
    <path class="cls-3" d="m126.811,286.616l-.875-.381,1.241-2.793.662.303-1.028,2.871Z"/>
    <path class="cls-3" d="m127.591,287.49c0-1.201.25-2.16.749-2.876.447-.647.989-.972,1.625-.972s1.177.324,1.625.972c.499.716.749,1.691.749,2.925s-.25,2.204-.749,2.92c-.447.647-.987.972-1.62.972s-1.176-.324-1.629-.972c-.5-.716-.749-1.706-.749-2.969Zm.997.005c0,.837.129,1.531.388,2.085.258.544.588.815.989.815.397,0,.727-.271.989-.815.261-.54.392-1.223.392-2.046s-.13-1.507-.392-2.051c-.262-.54-.591-.811-.989-.811-.395,0-.723.271-.984.811-.261.537-.392,1.208-.392,2.012Z"/>
    <path class="cls-3" d="m134.001,284.834h-1.163l.557-1.064h1.62v7.539h-1.015v-6.475Z"/>
    <path class="cls-3" d="m143.815,286.616l-.875-.381,1.241-2.793.662.303-1.028,2.871Z"/>
    <path class="cls-3" d="m144.595,287.49c0-1.201.25-2.16.749-2.876.447-.647.989-.972,1.625-.972s1.177.324,1.625.972c.499.716.749,1.691.749,2.925s-.25,2.204-.749,2.92c-.447.647-.987.972-1.62.972s-1.176-.324-1.629-.972c-.5-.716-.749-1.706-.749-2.969Zm.997.005c0,.837.129,1.531.388,2.085.258.544.588.815.989.815.397,0,.727-.271.989-.815.261-.54.392-1.223.392-2.046s-.13-1.507-.392-2.051c-.262-.54-.591-.811-.989-.811-.395,0-.723.271-.984.811-.261.537-.392,1.208-.392,2.012Z"/>
    <path class="cls-3" d="m150.822,290.239h2.504v1.069h-4.516l2.334-3.169c.229-.315.421-.589.577-.82s.274-.425.355-.581c.166-.306.249-.581.249-.825,0-.352-.11-.646-.331-.884s-.494-.356-.819-.356c-.679,0-1.068.451-1.167,1.353h-1.011c.163-1.589.878-2.383,2.147-2.383.612,0,1.126.218,1.542.654.418.437.627.977.627,1.621,0,.41-.097.812-.292,1.206-.099.205-.243.448-.434.729-.19.282-.43.615-.721.999l-1.045,1.387Z"/>
    <path class="cls-3" d="m162.439,286.616l-.875-.381,1.241-2.793.662.303-1.028,2.871Z"/>
    <path class="cls-3" d="m163.219,287.49c0-1.201.25-2.16.749-2.876.447-.647.989-.972,1.625-.972s1.177.324,1.625.972c.499.716.749,1.691.749,2.925s-.25,2.204-.749,2.92c-.447.647-.987.972-1.62.972s-1.176-.324-1.629-.972c-.5-.716-.749-1.706-.749-2.969Zm.997.005c0,.837.129,1.531.388,2.085.258.544.588.815.989.815.397,0,.727-.271.989-.815.261-.54.392-1.223.392-2.046s-.13-1.507-.392-2.051c-.262-.54-.591-.811-.989-.811-.395,0-.723.271-.984.811-.261.537-.392,1.208-.392,2.012Z"/>
    <path class="cls-3" d="m169.52,287.808v-.972c.43,0,.719-.054.867-.161.264-.188.396-.491.396-.908,0-.322-.096-.584-.288-.786-.189-.205-.434-.308-.736-.308-.282,0-.5.076-.653.229-.148.156-.258.42-.331.791h-1.01c.104-.71.319-1.229.645-1.561.325-.33.779-.495,1.363-.495.589,0,1.07.195,1.442.586.372.388.557.887.557,1.499,0,.69-.244,1.228-.731,1.611.558.368.836.965.836,1.792,0,.677-.203,1.23-.609,1.66-.407.43-.928.645-1.563.645-.81,0-1.411-.334-1.803-1.001-.163-.28-.266-.667-.309-1.162h.98c.052.364.179.644.381.838.202.193.465.29.791.29.328,0,.6-.122.814-.366.215-.251.322-.568.322-.952,0-.508-.161-.869-.483-1.084-.189-.124-.48-.186-.875-.186Z"/>
    <path class="cls-3" d="m179.442,286.616l-.875-.381,1.241-2.793.662.303-1.028,2.871Z"/>
    <path class="cls-3" d="m180.221,287.49c0-1.201.25-2.16.749-2.876.447-.647.989-.972,1.625-.972s1.177.324,1.625.972c.499.716.749,1.691.749,2.925s-.25,2.204-.749,2.92c-.447.647-.987.972-1.62.972s-1.176-.324-1.629-.972c-.5-.716-.749-1.706-.749-2.969Zm.997.005c0,.837.129,1.531.388,2.085.258.544.588.815.989.815.397,0,.727-.271.989-.815.261-.54.392-1.223.392-2.046s-.13-1.507-.392-2.051c-.262-.54-.591-.811-.989-.811-.395,0-.723.271-.984.811-.261.537-.392,1.208-.392,2.012Z"/>
    <path class="cls-3" d="m188.612,289.204h.714v1.035h-.714v1.069h-1.015v-1.069h-3.301l4.316-7.031v5.996Zm-1.015,0v-2.524l-1.55,2.524h1.55Z"/>
    <path class="cls-3" d="m198.062,286.616l-.875-.381,1.241-2.793.662.303-1.028,2.871Z"/>
    <path class="cls-3" d="m198.841,287.49c0-1.201.25-2.16.749-2.876.447-.647.989-.972,1.625-.972s1.177.324,1.625.972c.499.716.749,1.691.749,2.925s-.25,2.204-.749,2.92c-.447.647-.987.972-1.62.972s-1.176-.324-1.629-.972c-.5-.716-.749-1.706-.749-2.969Zm.997.005c0,.837.129,1.531.388,2.085.258.544.588.815.989.815.397,0,.727-.271.989-.815.261-.54.392-1.223.392-2.046s-.13-1.507-.392-2.051c-.262-.54-.591-.811-.989-.811-.395,0-.723.271-.984.811-.261.537-.392,1.208-.392,2.012Z"/>
    <path class="cls-3" d="m207.525,284.834h-2.073l-.331,1.25c.049-.007.096-.012.141-.015.045-.003.086-.005.125-.005.653,0,1.189.247,1.607.742.421.491.631,1.121.631,1.89,0,.794-.238,1.448-.714,1.963s-1.076.771-1.798.771c-.892,0-1.594-.469-2.108-1.406l.767-.728c.212.403.425.688.64.854.215.163.478.244.788.244.406,0,.748-.159,1.023-.479.276-.329.414-.728.414-1.196,0-.481-.136-.876-.409-1.182-.273-.315-.614-.474-1.023-.474-.456,0-.849.223-1.18.669h-.335l1.058-3.965h2.779v1.064Z"/>
    <path class="cls-3" d="m215.064,286.616l-.875-.381,1.241-2.793.662.303-1.028,2.871Z"/>
    <path class="cls-3" d="m215.843,287.49c0-1.201.25-2.16.749-2.876.447-.647.989-.972,1.625-.972s1.177.324,1.625.972c.499.716.749,1.691.749,2.925s-.25,2.204-.749,2.92c-.447.647-.987.972-1.62.972s-1.176-.324-1.629-.972c-.5-.716-.749-1.706-.749-2.969Zm.997.005c0,.837.129,1.531.388,2.085.258.544.588.815.989.815.397,0,.727-.271.989-.815.261-.54.392-1.223.392-2.046s-.13-1.507-.392-2.051c-.262-.54-.591-.811-.989-.811-.395,0-.723.271-.984.811-.261.537-.392,1.208-.392,2.012Z"/>
    <path class="cls-3" d="m223.338,283.506l.745.625-1.607,2.451c.087-.013.161-.022.222-.029s.109-.01.144-.01c.546,0,1.018.234,1.416.703.395.462.592,1.019.592,1.67,0,.69-.221,1.282-.662,1.777-.438.491-.965.737-1.581.737-.61,0-1.144-.242-1.603-.728-.45-.485-.675-1.06-.675-1.724,0-.596.219-1.228.658-1.895l2.352-3.579Zm.522,5.483c0-.4-.124-.739-.37-1.016-.25-.28-.55-.42-.901-.42-.354,0-.655.139-.901.415-.247.276-.371.612-.371,1.006s.124.729.371,1.006c.247.276.548.415.906.415.348,0,.646-.139.893-.415.25-.28.375-.61.375-.991Z"/>
    <path class="cls-3" d="m233.685,286.616l-.875-.381,1.241-2.793.662.303-1.028,2.871Z"/>
    <path class="cls-3" d="m234.464,287.49c0-1.201.25-2.16.749-2.876.447-.647.989-.972,1.625-.972s1.177.324,1.625.972c.499.716.749,1.691.749,2.925s-.25,2.204-.749,2.92c-.447.647-.987.972-1.62.972s-1.176-.324-1.629-.972c-.5-.716-.749-1.706-.749-2.969Zm.997.005c0,.837.129,1.531.388,2.085.258.544.588.815.989.815.397,0,.727-.271.989-.815.261-.54.392-1.223.392-2.046s-.13-1.507-.392-2.051c-.262-.54-.591-.811-.989-.811-.395,0-.723.271-.984.811-.261.537-.392,1.208-.392,2.012Z"/>
    <path class="cls-3" d="m242.237,284.834h-3.319v-1.064h5.013l-4.242,7.798-.806-.571,3.354-6.162Z"/>
    <path class="cls-3" d="m250.687,286.616l-.876-.381,1.241-2.793.662.303-1.027,2.871Z"/>
    <path class="cls-3" d="m251.466,287.49c0-1.201.25-2.16.749-2.876.447-.647.988-.972,1.624-.972s1.178.324,1.625.972c.499.716.749,1.691.749,2.925s-.25,2.204-.749,2.92c-.447.647-.987.972-1.62.972s-1.176-.324-1.629-.972c-.499-.716-.749-1.706-.749-2.969Zm.997.005c0,.837.129,1.531.388,2.085.259.544.588.815.988.815s.728-.271.989-.815c.261-.54.392-1.223.392-2.046s-.131-1.507-.392-2.051c-.262-.54-.591-.811-.989-.811-.395,0-.723.271-.983.811-.262.537-.393,1.208-.393,2.012Z"/>
    <path class="cls-3" d="m257.01,287.388c-.494-.391-.741-.923-.741-1.597,0-.612.188-1.123.562-1.533.377-.41.846-.615,1.406-.615.558,0,1.022.205,1.394.615.372.407.558.92.558,1.538,0,.647-.245,1.177-.736,1.587.271.163.482.4.637.713.156.312.234.664.234,1.055,0,.667-.194,1.214-.583,1.641-.39.427-.888.64-1.494.64-.621,0-1.134-.215-1.537-.645-.406-.43-.609-.97-.609-1.621,0-.847.303-1.438.91-1.777Zm.087,1.738c0,.349.107.647.322.898.218.247.481.371.792.371.309,0,.571-.122.789-.366.218-.247.326-.544.326-.889,0-.349-.108-.645-.326-.889s-.48-.366-.789-.366c-.305,0-.567.122-.788.366-.218.244-.326.535-.326.874Zm.126-3.34c0,.322.098.593.292.811.197.222.436.332.714.332.276,0,.513-.11.71-.332s.296-.486.296-.796-.099-.574-.296-.796-.434-.332-.71-.332-.512.11-.71.332c-.197.222-.296.481-.296.781Z"/>
    <path class="cls-3" d="m267.688,286.616l-.876-.381,1.241-2.793.662.303-1.027,2.871Z"/>
    <path class="cls-3" d="m268.467,287.49c0-1.201.25-2.16.749-2.876.447-.647.988-.972,1.624-.972s1.178.324,1.625.972c.499.716.749,1.691.749,2.925s-.25,2.204-.749,2.92c-.447.647-.987.972-1.62.972s-1.176-.324-1.629-.972c-.499-.716-.749-1.706-.749-2.969Zm.997.005c0,.837.129,1.531.388,2.085.259.544.588.815.988.815s.728-.271.989-.815c.261-.54.392-1.223.392-2.046s-.131-1.507-.392-2.051c-.262-.54-.591-.811-.989-.811-.395,0-.723.271-.983.811-.262.537-.393,1.208-.393,2.012Z"/>
    <path class="cls-3" d="m274.463,291.567l-.744-.62,1.606-2.456c-.087.013-.161.022-.222.029s-.11.01-.148.01c-.543,0-1.013-.232-1.411-.698-.395-.462-.592-1.019-.592-1.67,0-.693.219-1.286.657-1.777.441-.495.97-.742,1.586-.742.612,0,1.145.244,1.598.732.453.485.68,1.058.68,1.719,0,.586-.221,1.219-.662,1.899l-2.348,3.574Zm-.522-5.488c0,.407.124.749.37,1.025.25.28.551.42.901.42s.65-.139.897-.415c.25-.28.375-.617.375-1.011s-.125-.73-.375-1.011c-.247-.276-.547-.415-.901-.415-.349,0-.646.139-.893.415-.25.28-.375.61-.375.991Z"/>
    <path class="cls-3" d="m286.31,286.616l-.876-.381,1.241-2.793.662.303-1.027,2.871Z"/>
    <path class="cls-3" d="m289.126,284.834h-1.163l.558-1.064h1.62v7.539h-1.015v-6.475Z"/>
    <path class="cls-3" d="m291.46,287.49c0-1.201.25-2.16.749-2.876.447-.647.988-.972,1.624-.972s1.178.324,1.625.972c.499.716.749,1.691.749,2.925s-.25,2.204-.749,2.92c-.447.647-.987.972-1.62.972s-1.176-.324-1.629-.972c-.499-.716-.749-1.706-.749-2.969Zm.997.005c0,.837.129,1.531.388,2.085.259.544.588.815.988.815s.728-.271.989-.815c.261-.54.392-1.223.392-2.046s-.131-1.507-.392-2.051c-.262-.54-.591-.811-.989-.811-.395,0-.723.271-.983.811-.262.537-.393,1.208-.393,2.012Z"/>
    <path class="cls-3" d="m303.31,286.616l-.876-.381,1.241-2.793.662.303-1.027,2.871Z"/>
    <path class="cls-3" d="m306.128,284.834h-1.163l.558-1.064h1.62v7.539h-1.015v-6.475Z"/>
    <path class="cls-3" d="m310.5,284.834h-1.163l.558-1.064h1.62v7.539h-1.015v-6.475Z"/>
    <path class="cls-3" d="m321.932,286.616l-.876-.381,1.241-2.793.662.303-1.027,2.871Z"/>
    <path class="cls-3" d="m324.748,284.834h-1.163l.558-1.064h1.62v7.539h-1.015v-6.475Z"/>
    <path class="cls-3" d="m328.937,290.239h2.504v1.069h-4.517l2.335-3.169c.229-.315.422-.589.577-.82s.273-.425.354-.581c.166-.306.248-.581.248-.825,0-.352-.11-.646-.331-.884s-.493-.356-.818-.356c-.68,0-1.068.451-1.167,1.353h-1.011c.163-1.589.878-2.383,2.147-2.383.612,0,1.126.218,1.541.654.419.437.628.977.628,1.621,0,.41-.098.812-.292,1.206-.099.205-.243.448-.434.729-.19.282-.431.615-.721.999l-1.045,1.387Z"/>
    <path class="cls-3" d="m338.934,286.616l-.876-.381,1.241-2.793.662.303-1.027,2.871Z"/>
    <path class="cls-3" d="m341.75,284.834h-1.163l.558-1.064h1.62v7.539h-1.015v-6.475Z"/>
    <path class="cls-3" d="m346.014,287.808v-.972c.43,0,.718-.054.866-.161.265-.188.396-.491.396-.908,0-.322-.096-.584-.287-.786-.189-.205-.435-.308-.736-.308-.282,0-.5.076-.653.229-.148.156-.259.42-.331.791h-1.011c.104-.71.319-1.229.645-1.561.325-.33.78-.495,1.363-.495.59,0,1.07.195,1.441.586.372.388.558.887.558,1.499,0,.69-.244,1.228-.731,1.611.558.368.836.965.836,1.792,0,.677-.203,1.23-.609,1.66s-.928.645-1.563.645c-.811,0-1.411-.334-1.803-1.001-.163-.28-.266-.667-.31-1.162h.979c.053.364.18.644.382.838.201.193.465.29.79.29.328,0,.6-.122.814-.366.215-.251.322-.568.322-.952,0-.508-.161-.869-.483-1.084-.188-.124-.48-.186-.875-.186Z"/>
    <path class="cls-3" d="m355.935,286.616l-.876-.381,1.241-2.793.662.303-1.027,2.871Z"/>
    <path class="cls-3" d="m358.752,284.834h-1.163l.558-1.064h1.62v7.539h-1.015v-6.475Z"/>
    <path class="cls-3" d="m365.105,289.204h.715v1.035h-.715v1.069h-1.015v-1.069h-3.301l4.315-7.031v5.996Zm-1.015,0v-2.524l-1.551,2.524h1.551Z"/>
    <path class="cls-3" d="m374.556,286.616l-.876-.381,1.241-2.793.662.303-1.027,2.871Z"/>
    <path class="cls-3" d="m377.372,284.834h-1.163l.558-1.064h1.62v7.539h-1.015v-6.475Z"/>
    <path class="cls-3" d="m384.018,284.834h-2.073l-.331,1.25c.05-.007.097-.012.142-.015s.087-.005.124-.005c.653,0,1.189.247,1.607.742.421.491.632,1.121.632,1.89,0,.794-.238,1.448-.715,1.963-.476.515-1.075.771-1.799.771-.891,0-1.594-.469-2.107-1.406l.767-.728c.212.403.425.688.64.854.215.163.478.244.789.244.406,0,.747-.159,1.023-.479.275-.329.413-.728.413-1.196,0-.481-.137-.876-.409-1.182-.272-.315-.614-.474-1.023-.474-.456,0-.85.223-1.181.669h-.335l1.059-3.965h2.778v1.064Z"/>
    <path class="cls-3" d="m391.558,286.616l-.876-.381,1.241-2.793.662.303-1.027,2.871Z"/>
    <path class="cls-3" d="m394.374,284.834h-1.163l.558-1.064h1.62v7.539h-1.015v-6.475Z"/>
    <path class="cls-3" d="m399.83,283.506l.745.625-1.607,2.451c.088-.013.161-.022.223-.029.061-.007.108-.01.144-.01.546,0,1.018.234,1.415.703.396.462.593,1.019.593,1.67,0,.69-.221,1.282-.662,1.777-.438.491-.965.737-1.581.737-.609,0-1.144-.242-1.603-.728-.45-.485-.675-1.06-.675-1.724,0-.596.219-1.228.657-1.895l2.352-3.579Zm.523,5.483c0-.4-.124-.739-.37-1.016-.25-.28-.551-.42-.902-.42-.354,0-.654.139-.901.415-.246.276-.37.612-.37,1.006s.124.729.37,1.006c.247.276.549.415.906.415.349,0,.646-.139.893-.415.25-.28.375-.61.375-.991Z"/>
    <path class="cls-3" d="m410.179,286.616l-.876-.381,1.241-2.793.662.303-1.027,2.871Z"/>
    <path class="cls-3" d="m412.995,284.834h-1.163l.558-1.064h1.62v7.539h-1.015v-6.475Z"/>
    <path class="cls-3" d="m418.73,284.834h-3.318v-1.064h5.013l-4.242,7.798-.806-.571,3.354-6.162Z"/>
    <path class="cls-3" d="m427.18,286.616l-.876-.381,1.241-2.793.662.303-1.027,2.871Z"/>
    <path class="cls-3" d="m429.996,284.834h-1.163l.558-1.064h1.62v7.539h-1.015v-6.475Z"/>
    <path class="cls-3" d="m433.503,287.388c-.494-.391-.741-.923-.741-1.597,0-.612.188-1.123.562-1.533.377-.41.846-.615,1.406-.615.558,0,1.022.205,1.394.615.372.407.558.92.558,1.538,0,.647-.245,1.177-.736,1.587.271.163.482.4.637.713.156.312.234.664.234,1.055,0,.667-.194,1.214-.583,1.641-.39.427-.888.64-1.494.64-.621,0-1.134-.215-1.537-.645-.406-.43-.609-.97-.609-1.621,0-.847.303-1.438.91-1.777Zm.087,1.738c0,.349.107.647.322.898.218.247.481.371.792.371.309,0,.571-.122.789-.366.218-.247.326-.544.326-.889,0-.349-.108-.645-.326-.889s-.48-.366-.789-.366c-.305,0-.567.122-.788.366-.218.244-.326.535-.326.874Zm.126-3.34c0,.322.098.593.292.811.197.222.436.332.714.332.276,0,.513-.11.71-.332s.296-.486.296-.796-.099-.574-.296-.796-.434-.332-.71-.332-.512.11-.71.332c-.197.222-.296.481-.296.781Z"/>
    <path class="cls-3" d="m444.182,286.616l-.876-.381,1.241-2.793.662.303-1.027,2.871Z"/>
    <path class="cls-3" d="m446.998,284.834h-1.163l.558-1.064h1.62v7.539h-1.015v-6.475Z"/>
    <path class="cls-3" d="m450.956,291.567l-.744-.62,1.606-2.456c-.087.013-.161.022-.222.029s-.11.01-.148.01c-.543,0-1.013-.232-1.411-.698-.395-.462-.592-1.019-.592-1.67,0-.693.219-1.286.657-1.777.441-.495.97-.742,1.586-.742.612,0,1.145.244,1.598.732.453.485.68,1.058.68,1.719,0,.586-.221,1.219-.662,1.899l-2.348,3.574Zm-.522-5.488c0,.407.124.749.37,1.025.25.28.551.42.901.42s.65-.139.897-.415c.25-.28.375-.617.375-1.011s-.125-.73-.375-1.011c-.247-.276-.547-.415-.901-.415-.349,0-.646.139-.893.415-.25.28-.375.61-.375.991Z"/>
    <path class="cls-3" d="m462.803,286.616l-.876-.381,1.241-2.793.662.303-1.027,2.871Z"/>
    <path class="cls-3" d="m465.436,290.239h2.504v1.069h-4.517l2.335-3.169c.229-.315.422-.589.577-.82s.273-.425.354-.581c.166-.306.248-.581.248-.825,0-.352-.11-.646-.331-.884s-.493-.356-.818-.356c-.68,0-1.068.451-1.167,1.353h-1.011c.163-1.589.878-2.383,2.147-2.383.612,0,1.126.218,1.541.654.419.437.628.977.628,1.621,0,.41-.098.812-.292,1.206-.099.205-.243.448-.434.729-.19.282-.431.615-.721.999l-1.045,1.387Z"/>
    <path class="cls-3" d="m467.953,287.49c0-1.201.25-2.16.749-2.876.447-.647.988-.972,1.624-.972s1.178.324,1.625.972c.499.716.749,1.691.749,2.925s-.25,2.204-.749,2.92c-.447.647-.987.972-1.62.972s-1.176-.324-1.629-.972c-.499-.716-.749-1.706-.749-2.969Zm.997.005c0,.837.129,1.531.388,2.085.259.544.588.815.988.815s.728-.271.989-.815c.261-.54.392-1.223.392-2.046s-.131-1.507-.392-2.051c-.262-.54-.591-.811-.989-.811-.395,0-.723.271-.983.811-.262.537-.393,1.208-.393,2.012Z"/>
    <path class="cls-3" d="m481.423,286.616l-.876-.381,1.241-2.793.662.303-1.027,2.871Z"/>
    <path class="cls-3" d="m484.058,290.239h2.504v1.069h-4.517l2.335-3.169c.229-.315.422-.589.577-.82s.273-.425.354-.581c.166-.306.248-.581.248-.825,0-.352-.11-.646-.331-.884s-.493-.356-.818-.356c-.68,0-1.068.451-1.167,1.353h-1.011c.163-1.589.878-2.383,2.147-2.383.612,0,1.126.218,1.541.654.419.437.628.977.628,1.621,0,.41-.098.812-.292,1.206-.099.205-.243.448-.434.729-.19.282-.431.615-.721.999l-1.045,1.387Z"/>
    <path class="cls-3" d="m488.612,284.834h-1.163l.558-1.064h1.62v7.539h-1.015v-6.475Z"/>
    <path class="cls-3" d="m496.806,286.616l-.876-.381,1.241-2.793.662.303-1.027,2.871Z"/>
    <path class="cls-3" d="m499.439,290.239h2.504v1.069h-4.517l2.335-3.169c.229-.315.422-.589.577-.82s.273-.425.354-.581c.166-.306.248-.581.248-.825,0-.352-.11-.646-.331-.884s-.493-.356-.818-.356c-.68,0-1.068.451-1.167,1.353h-1.011c.163-1.589.878-2.383,2.147-2.383.612,0,1.126.218,1.541.654.419.437.628.977.628,1.621,0,.41-.098.812-.292,1.206-.099.205-.243.448-.434.729-.19.282-.431.615-.721.999l-1.045,1.387Z"/>
    <path class="cls-3" d="m503.811,290.239h2.504v1.069h-4.517l2.335-3.169c.229-.315.422-.589.577-.82s.273-.425.354-.581c.166-.306.248-.581.248-.825,0-.352-.11-.646-.331-.884s-.493-.356-.818-.356c-.68,0-1.068.451-1.167,1.353h-1.011c.163-1.589.878-2.383,2.147-2.383.612,0,1.126.218,1.541.654.419.437.628.977.628,1.621,0,.41-.098.812-.292,1.206-.099.205-.243.448-.434.729-.19.282-.431.615-.721.999l-1.045,1.387Z"/>
  </g>
  <g>
    <path class="cls-3" d="m4.142,2.934h-1.173l.562-.95h1.635v6.729h-1.024V2.934Z"/>
    <path class="cls-3" d="m8.088,7.454l.879.34-1.252,2.488-.668-.274,1.042-2.554Z"/>
    <path class="cls-3" d="m12.758,1.749l.751.558-1.622,2.188c.088-.012.163-.021.224-.026s.11-.009.145-.009c.551,0,1.027.209,1.428.627.398.413.598.91.598,1.491,0,.616-.223,1.145-.668,1.586-.442.439-.974.658-1.595.658-.615,0-1.154-.216-1.617-.649-.454-.433-.681-.945-.681-1.538,0-.532.221-1.095.664-1.691l2.373-3.194Zm.527,4.894c0-.357-.125-.66-.374-.907-.252-.25-.555-.375-.91-.375-.357,0-.661.124-.91.37-.249.247-.374.546-.374.898s.125.651.374.897c.249.247.554.371.914.371.352,0,.652-.124.901-.371.252-.25.378-.544.378-.884Z"/>
    <path class="cls-3" d="m14.757,5.305c0-1.072.252-1.928.756-2.567.451-.578.998-.867,1.639-.867s1.188.289,1.639.867c.504.639.756,1.509.756,2.61s-.252,1.967-.756,2.606c-.451.578-.996.867-1.635.867s-1.187-.289-1.644-.867c-.504-.639-.756-1.522-.756-2.649Zm1.006.004c0,.747.13,1.367.391,1.861.261.485.593.728.998.728.401,0,.734-.243.998-.728.264-.482.396-1.091.396-1.826s-.132-1.345-.396-1.831c-.264-.482-.596-.723-.998-.723-.398,0-.729.241-.993.723-.264.479-.396,1.078-.396,1.796Z"/>
    <path class="cls-3" d="m19.907,5.305c0-1.072.252-1.928.756-2.567.451-.578.998-.867,1.639-.867s1.188.289,1.639.867c.504.639.756,1.509.756,2.61s-.252,1.967-.756,2.606c-.451.578-.996.867-1.635.867s-1.187-.289-1.644-.867c-.504-.639-.756-1.522-.756-2.649Zm1.006.004c0,.747.13,1.367.391,1.861.261.485.593.728.998.728.401,0,.734-.243.998-.728.264-.482.396-1.091.396-1.826s-.132-1.345-.396-1.831c-.264-.482-.596-.723-.998-.723-.398,0-.729.241-.993.723-.264.479-.396,1.078-.396,1.796Z"/>
    <path class="cls-3" d="m4.142,71.066h-1.173l.562-.95h1.635v6.729h-1.024v-5.779Z"/>
    <path class="cls-3" d="m8.088,75.586l.879.34-1.252,2.488-.668-.274,1.042-2.554Z"/>
    <path class="cls-3" d="m11.479,75.891h2.527v.955h-4.557l2.355-2.828c.231-.282.425-.526.583-.732.156-.206.276-.379.358-.519.167-.273.25-.519.25-.736,0-.314-.111-.577-.334-.789-.223-.212-.498-.318-.826-.318-.686,0-1.078.402-1.178,1.207h-1.02c.164-1.417.886-2.126,2.167-2.126.618,0,1.137.194,1.556.584.422.389.633.872.633,1.447,0,.366-.098.725-.294,1.076-.1.183-.246.4-.438.652-.192.251-.434.548-.727.891l-1.055,1.237Z"/>
    <path class="cls-3" d="m14.757,73.437c0-1.072.252-1.928.756-2.567.451-.578.998-.867,1.639-.867s1.188.289,1.639.867c.504.639.756,1.509.756,2.61s-.252,1.967-.756,2.606c-.451.578-.996.867-1.635.867s-1.187-.289-1.644-.867c-.504-.639-.756-1.522-.756-2.649Zm1.006.004c0,.747.13,1.367.391,1.861.261.485.593.728.998.728.401,0,.734-.243.998-.728.264-.482.396-1.091.396-1.826s-.132-1.345-.396-1.831c-.264-.482-.596-.723-.998-.723-.398,0-.729.241-.993.723-.264.479-.396,1.078-.396,1.796Z"/>
    <path class="cls-3" d="m19.907,73.437c0-1.072.252-1.928.756-2.567.451-.578.998-.867,1.639-.867s1.188.289,1.639.867c.504.639.756,1.509.756,2.61s-.252,1.967-.756,2.606c-.451.578-.996.867-1.635.867s-1.187-.289-1.644-.867c-.504-.639-.756-1.522-.756-2.649Zm1.006.004c0,.747.13,1.367.391,1.861.261.485.593.728.998.728.401,0,.734-.243.998-.728.264-.482.396-1.091.396-1.826s-.132-1.345-.396-1.831c-.264-.482-.596-.723-.998-.723-.398,0-.729.241-.993.723-.264.479-.396,1.078-.396,1.796Z"/>
    <path class="cls-3" d="m3.268,141.478c-.498-.349-.747-.824-.747-1.425,0-.546.189-1.002.567-1.369.381-.366.854-.549,1.419-.549.562,0,1.031.183,1.406.549.375.363.562.821.562,1.373,0,.578-.248,1.05-.743,1.416.272.146.486.357.642.636.158.279.237.593.237.941,0,.596-.196,1.084-.589,1.464s-.895.571-1.507.571c-.627,0-1.144-.192-1.551-.575-.41-.383-.615-.866-.615-1.447,0-.755.306-1.284.918-1.586Zm.088,1.552c0,.311.108.578.325.802.22.221.486.331.8.331.311,0,.576-.109.795-.327.22-.221.33-.485.33-.793,0-.311-.11-.575-.33-.793s-.485-.327-.795-.327c-.308,0-.573.109-.795.327-.22.218-.33.478-.33.78Zm.127-2.981c0,.288.098.529.294.723.199.198.439.296.721.296.278,0,.517-.099.716-.296.199-.197.299-.434.299-.71s-.1-.513-.299-.71c-.199-.198-.438-.296-.716-.296s-.517.099-.716.296c-.199.197-.299.43-.299.697Z"/>
    <path class="cls-3" d="m7.235,141.57c0-1.072.252-1.928.756-2.567.451-.578.998-.867,1.639-.867s1.188.289,1.639.867c.504.639.756,1.509.756,2.61s-.252,1.967-.756,2.606c-.451.578-.996.867-1.635.867s-1.187-.289-1.644-.867c-.504-.639-.756-1.522-.756-2.649Zm1.006.004c0,.747.13,1.367.391,1.861.261.485.593.728.998.728.401,0,.734-.243.998-.728.264-.482.396-1.091.396-1.826s-.132-1.345-.396-1.831c-.264-.482-.596-.723-.998-.723-.398,0-.729.241-.993.723-.264.479-.396,1.078-.396,1.796Z"/>
    <path class="cls-3" d="m12.385,141.57c0-1.072.252-1.928.756-2.567.451-.578.998-.867,1.639-.867s1.188.289,1.639.867c.504.639.756,1.509.756,2.61s-.252,1.967-.756,2.606c-.451.578-.996.867-1.635.867s-1.187-.289-1.644-.867c-.504-.639-.756-1.522-.756-2.649Zm1.006.004c0,.747.13,1.367.391,1.861.261.485.593.728.998.728.401,0,.734-.243.998-.728.264-.482.396-1.091.396-1.826s-.132-1.345-.396-1.831c-.264-.482-.596-.723-.998-.723-.398,0-.729.241-.993.723-.264.479-.396,1.078-.396,1.796Z"/>
    <path class="cls-3" d="m6.142,211.232h.721v.924h-.721v.954h-1.024v-.954H1.787l4.355-6.275v5.352Zm-1.024,0v-2.253l-1.564,2.253h1.564Z"/>
    <path class="cls-3" d="m7.235,209.702c0-1.071.252-1.928.756-2.566.451-.578.998-.867,1.639-.867s1.188.289,1.639.867c.504.639.756,1.509.756,2.61s-.252,1.967-.756,2.606c-.451.578-.996.867-1.635.867s-1.187-.289-1.644-.867c-.504-.64-.756-1.522-.756-2.65Zm1.006.005c0,.746.13,1.367.391,1.86.261.485.593.729.998.729.401,0,.734-.243.998-.729.264-.482.396-1.091.396-1.826s-.132-1.345-.396-1.83c-.264-.482-.596-.724-.998-.724-.398,0-.729.241-.993.724-.264.479-.396,1.078-.396,1.796Z"/>
    <path class="cls-3" d="m12.385,209.702c0-1.071.252-1.928.756-2.566.451-.578.998-.867,1.639-.867s1.188.289,1.639.867c.504.639.756,1.509.756,2.61s-.252,1.967-.756,2.606c-.451.578-.996.867-1.635.867s-1.187-.289-1.644-.867c-.504-.64-.756-1.522-.756-2.65Zm1.006.005c0,.746.13,1.367.391,1.86.261.485.593.729.998.729.401,0,.734-.243.998-.729.264-.482.396-1.091.396-1.826s-.132-1.345-.396-1.83c-.264-.482-.596-.724-.998-.724-.398,0-.729.241-.993.724-.264.479-.396,1.078-.396,1.796Z"/>
    <path class="cls-3" d="m2.085,277.835c0-1.071.252-1.928.756-2.566.451-.578.998-.867,1.639-.867s1.188.289,1.639.867c.504.639.756,1.509.756,2.61s-.252,1.967-.756,2.606c-.451.578-.996.867-1.635.867s-1.187-.289-1.644-.867c-.504-.64-.756-1.522-.756-2.65Zm1.006.005c0,.746.13,1.367.391,1.86.261.485.593.729.998.729.401,0,.734-.243.998-.729.264-.482.396-1.091.396-1.826s-.132-1.345-.396-1.83c-.264-.482-.596-.724-.998-.724-.398,0-.729.241-.993.724-.264.479-.396,1.078-.396,1.796Z"/>
  </g>
  <g>
    <rect class="cls-5" x="427.515" y="151.66" width="7.668" height="127.859"/>
    <rect class="cls-2" x="427.515" y="44.785" width="7.668" height="107.383"/>
  </g>
  <g>
    <rect class="cls-5" x="445.125" y="165.226" width="7.668" height="114.293"/>
    <rect class="cls-2" x="445.125" y="65.566" width="7.668" height="102.211"/>
  </g>
  <rect class="cls-5" x="463.587" y="151.66" width="7.668" height="127.859"/>
  <rect class="cls-2" x="463.587" y="56.394" width="7.668" height="95.265"/>
  <rect class="cls-5" x="481.888" y="152.946" width="7.668" height="126.171"/>
  <rect class="cls-2" x="481.888" y="65.566" width="7.668" height="87.38"/>
  <g>
    <path class="cls-1" d="m60.289,42.634v-12.747h-.038l-2.337,1.349-.38-1.178,2.945-1.653h1.349v14.229h-1.539Z"/>
    <path class="cls-1" d="m73.911,35.909c-.779.988-1.881,1.577-3.268,1.577-2.432,0-3.932-1.899-3.932-4.312,0-2.603,1.709-4.997,4.502-4.997,2.66,0,4.351,2.318,4.351,5.946,0,4.73-2.394,8.017-6.041,8.587-.665.114-1.273.152-1.691.133v-1.311c.399.038.855-.019,1.463-.095,2.394-.342,4.198-2.28,4.673-5.528h-.057Zm-5.604-2.831c0,1.919,1.083,3.21,2.716,3.21,1.539,0,2.945-1.178,2.945-2.317,0-2.736-1.007-4.579-2.888-4.579-1.653,0-2.773,1.558-2.773,3.686Z"/>
    <path class="cls-1" d="m84.398,35.909c-.779.988-1.881,1.577-3.268,1.577-2.432,0-3.932-1.899-3.932-4.312,0-2.603,1.709-4.997,4.502-4.997,2.66,0,4.351,2.318,4.351,5.946,0,4.73-2.394,8.017-6.041,8.587-.665.114-1.273.152-1.691.133v-1.311c.399.038.855-.019,1.463-.095,2.394-.342,4.198-2.28,4.673-5.528h-.057Zm-5.604-2.831c0,1.919,1.083,3.21,2.716,3.21,1.539,0,2.945-1.178,2.945-2.317,0-2.736-1.007-4.579-2.888-4.579-1.653,0-2.773,1.558-2.773,3.686Z"/>
    <path class="cls-1" d="m95.627,28.405v1.311h-5.11l-.589,4.027c.304-.038.608-.076,1.102-.076,2.527,0,4.787,1.501,4.787,4.37,0,2.812-2.089,4.825-4.901,4.825-1.425,0-2.622-.418-3.268-.836l.456-1.235c.532.361,1.577.798,2.812.798,1.786,0,3.324-1.311,3.305-3.362,0-1.957-1.253-3.325-3.913-3.325-.76,0-1.349.057-1.824.133l.893-6.63h6.25Z"/>
    <path class="cls-1" d="m116.431,38.645v1.253h-7.105v4.351h-1.292v-4.351h-9.005v-1.253h3.191v-5.225h5.813v-3.115h-4.901c-.912,1.5-1.957,2.85-3.04,3.837-.228-.228-.722-.646-1.026-.836,1.767-1.52,3.438-4.142,4.426-6.782l1.615.513c-.076.171-.247.209-.437.171-.247.627-.532,1.235-.855,1.843h11.703v1.254h-6.193v3.115h5.775v1.216h-5.775v4.009h7.105Zm-12.918,0h4.521v-4.009h-4.521v4.009Z"/>
    <path class="cls-1" d="m135.412,34.617c-1.197,2.146-2.944,3.286-4.939,3.286-1.71,0-2.907-.703-4.237-1.995-1.044-1.007-1.899-1.615-3.305-1.615-1.539,0-2.888,1.045-3.686,2.565l-1.235-.646c1.197-2.147,2.945-3.287,4.939-3.287,1.709,0,2.906.703,4.236,1.995,1.045,1.007,1.918,1.615,3.305,1.615,1.539,0,2.888-1.045,3.686-2.564l1.235.646Z"/>
    <path class="cls-1" d="m145.559,42.634h-8.416v-.969l1.387-1.463c3.381-3.419,5.091-5.49,5.091-7.808,0-1.52-.665-2.926-2.716-2.926-1.14,0-2.166.627-2.85,1.178l-.532-1.102c.874-.779,2.166-1.387,3.685-1.387,2.869,0,4.009,2.09,4.009,4.046,0,2.679-1.881,4.958-4.826,7.922l-1.121,1.178v.038h6.288v1.292Z"/>
    <path class="cls-1" d="m147.441,35.567c0-4.978,1.938-7.39,4.598-7.39,2.697,0,4.35,2.546,4.35,7.2,0,4.939-1.729,7.485-4.559,7.485-2.584,0-4.389-2.546-4.389-7.295Zm7.352-.114c0-3.552-.855-6.003-2.85-6.003-1.691,0-2.888,2.261-2.888,6.003s1.045,6.117,2.831,6.117c2.109,0,2.907-2.735,2.907-6.117Z"/>
    <path class="cls-1" d="m166.497,42.634h-8.416v-.969l1.387-1.463c3.381-3.419,5.091-5.49,5.091-7.808,0-1.52-.665-2.926-2.716-2.926-1.14,0-2.166.627-2.85,1.178l-.532-1.102c.874-.779,2.166-1.387,3.685-1.387,2.869,0,4.009,2.09,4.009,4.046,0,2.679-1.881,4.958-4.826,7.922l-1.121,1.178v.038h6.288v1.292Z"/>
    <path class="cls-1" d="m176.965,42.634h-8.416v-.969l1.387-1.463c3.381-3.419,5.091-5.49,5.091-7.808,0-1.52-.665-2.926-2.716-2.926-1.14,0-2.166.627-2.85,1.178l-.532-1.102c.874-.779,2.166-1.387,3.685-1.387,2.869,0,4.009,2.09,4.009,4.046,0,2.679-1.881,4.958-4.826,7.922l-1.121,1.178v.038h6.288v1.292Z"/>
    <path class="cls-1" d="m195.355,38.645v1.253h-7.105v4.351h-1.292v-4.351h-9.005v-1.253h3.191v-5.225h5.813v-3.115h-4.901c-.912,1.5-1.957,2.85-3.04,3.837-.228-.228-.722-.646-1.026-.836,1.767-1.52,3.438-4.142,4.426-6.782l1.615.513c-.076.171-.247.209-.437.171-.247.627-.532,1.235-.855,1.843h11.703v1.254h-6.193v3.115h5.775v1.216h-5.775v4.009h7.105Zm-12.918,0h4.521v-4.009h-4.521v4.009Z"/>
  </g>
  <g>
    <rect class="cls-5" x="56.283" y="106.935" width="7.668" height="28.939"/>
    <rect class="cls-2" x="56.283" y="75.67" width="7.668" height="31.844"/>
  </g>
  <g>
    <path class="cls-1" d="m82.712,89.104h-2.577c-.544,2.577-1.377,4.578-2.753,6.115,1.953.944,3.729,1.953,4.93,2.849l-.8.992c-1.185-.928-2.993-2-4.994-2.993-1.745,1.489-4.209,2.417-7.731,2.945-.096-.32-.352-.752-.561-1.024,3.202-.432,5.49-1.216,7.123-2.481-1.312-.608-2.673-1.168-3.954-1.633l-.384.816-1.072-.4c.672-1.345,1.504-3.233,2.321-5.187h-4.162v-1.072h4.594c.561-1.376,1.104-2.737,1.537-3.921l1.425.272c-.032.112-.144.176-.368.176-.4,1.041-.88,2.241-1.376,3.474h8.803v1.072Zm-9.251,0c-.56,1.329-1.121,2.641-1.633,3.81,1.425.497,2.961,1.121,4.434,1.793,1.344-1.393,2.145-3.217,2.673-5.603h-5.474Z"/>
    <path class="cls-1" d="m85.635,87.36c0,1.409-.256,3.169-.864,4.21l-.848-.432c.544-.929.8-2.561.832-3.906l.88.128Zm.688-3.265l1.376.096c-.016.112-.112.192-.32.208v14.55h-1.056v-14.854Zm2.049,2.529c.528.785,1.088,1.809,1.329,2.449l-.785.528c-.24-.672-.8-1.761-1.296-2.561l.752-.417Zm6.146,10.725h4.306v1.041h-9.972v-1.041h4.594v-3.89h-3.409v-.993h3.409v-3.537h-2.497c-.32.992-.688,1.889-1.104,2.577-.208-.16-.608-.384-.865-.497.849-1.408,1.489-3.825,1.873-6.162l1.329.304c-.032.112-.144.176-.336.176-.16.848-.352,1.729-.592,2.577h2.193v-3.81l1.393.096c-.016.112-.096.192-.32.224v3.49h3.825v1.024h-3.825v3.537h3.329v.993h-3.329v3.89Z"/>
    <path class="cls-1" d="m80.92,121.106l.64.128c-.016.096-.048.224-.08.32-.304,3.201-.624,4.481-1.152,4.994-.432.4-.896.432-1.648.432-.561,0-1.329-.016-2.129-.064-.016-.304-.144-.72-.353-.992,1.089.096,2.161.112,2.529.112s.544-.016.72-.16c.368-.32.64-1.36.896-3.761h-5.282c-.784,2.209-2.385,3.954-6.467,4.882-.096-.272-.368-.72-.576-.944,3.554-.736,5.106-2.113,5.875-3.938h-5.458v-.993h5.778c.144-.528.24-1.088.32-1.665h-4.722v-6.482h11.156v6.482h-4.994c-.048.08-.16.128-.32.16-.08.512-.176,1.024-.304,1.504h5.314l.256-.016Zm-10.036-7.187v1.841h3.906v-1.841h-3.906Zm0,2.721v1.873h3.906v-1.873h-3.906Zm8.964-.88v-1.841h-3.986v1.841h3.986Zm0,2.753v-1.873h-3.986v1.873h3.986Z"/>
    <path class="cls-1" d="m85.635,115.36c0,1.409-.256,3.169-.864,4.21l-.848-.432c.544-.929.8-2.561.832-3.906l.88.128Zm.688-3.265l1.376.096c-.016.112-.112.192-.32.208v14.55h-1.056v-14.854Zm2.049,2.529c.528.785,1.088,1.809,1.329,2.449l-.785.528c-.24-.672-.8-1.761-1.296-2.561l.752-.417Zm6.146,10.725h4.306v1.041h-9.972v-1.041h4.594v-3.89h-3.409v-.993h3.409v-3.537h-2.497c-.32.992-.688,1.889-1.104,2.577-.208-.16-.608-.384-.865-.497.849-1.408,1.489-3.825,1.873-6.162l1.329.304c-.032.112-.144.176-.336.176-.16.848-.352,1.729-.592,2.577h2.193v-3.81l1.393.096c-.016.112-.096.192-.32.224v3.49h3.825v1.024h-3.825v3.537h3.329v.993h-3.329v3.89Z"/>
  </g>
  <g>
    <path class="cls-3" d="m383.139,8.603l1.979,1.979,1.979-1.979.174.174-1.979,1.979,1.979,1.979-.174.174-1.979-1.979-1.984,1.985-.174-.174,1.984-1.985-1.979-1.979.174-.174Zm.27,2.603c-.246,0-.449-.204-.449-.45s.203-.45.449-.45.45.204.45.45c0,.258-.216.45-.45.45Zm1.26-2.159c0-.246.204-.45.449-.45s.45.204.45.45-.204.45-.45.45c-.258,0-.449-.216-.449-.45Zm.899,3.418c0,.246-.204.45-.45.45s-.449-.204-.449-.45.204-.45.449-.45c.258,0,.45.216.45.45Zm1.259-2.159c.246,0,.45.204.45.45s-.204.45-.45.45-.449-.204-.449-.45c0-.258.216-.45.449-.45Z"/>
    <path class="cls-3" d="m394.164,11.248v.396h-2.537v1.337c0,.306-.09.426-.306.492-.222.072-.611.078-1.259.072-.03-.114-.108-.288-.175-.402.288.012.564.012.774.012.51,0,.552,0,.552-.174v-1.337h-2.525v-.396h2.525v-1.013h-2.123v-.384h2.123v-.972c-.66.078-1.355.138-1.997.174-.013-.102-.061-.258-.108-.348,1.451-.096,3.196-.288,4.084-.605l.348.342c-.018.012-.036.018-.072.018-.012,0-.029,0-.054-.006-.432.144-1.02.258-1.667.354-.012.042-.042.06-.12.072v.972h2.195v.384h-2.195v1.013h2.537Z"/>
    <path class="cls-3" d="m396.452,8.147c-.024.042-.072.054-.126.048-.276.402-.773.954-1.199,1.325-.055-.084-.162-.216-.234-.294.402-.324.863-.839,1.109-1.253l.45.174Zm-.81,2.734c-.174.258-.348.486-.522.684-.042-.084-.149-.252-.216-.33.42-.462.899-1.229,1.206-1.961l.449.168c-.018.042-.06.06-.132.054-.12.264-.264.534-.414.792l.12.042c-.012.036-.042.066-.12.078v3.136h-.371v-2.663Zm1.547-.288c-.012.036-.048.06-.114.066-.071.792-.204,1.631-.462,2.123-.065-.054-.191-.132-.27-.174.234-.468.348-1.295.402-2.111l.443.096Zm1.661-.882h-.96v3.736h-.377v-3.736h-.942v-.366h.942v-1.289l.491.03c-.006.042-.036.072-.114.084v1.175h.96v.366Zm-.485-1.577c.222.246.443.582.539.81l-.288.156c-.096-.228-.317-.576-.527-.834l.276-.132Zm.191,4.252c-.036-.498-.18-1.242-.33-1.817.229-.042.271-.054.306-.06.162.582.307,1.319.349,1.811l-.324.066Zm1.943-2.381v.366h-.559v2.681c0,.461-.186.492-1.073.492-.012-.114-.065-.276-.126-.396.198.006.372.012.504.012.288,0,.306,0,.306-.108v-2.681h-.731v-.366h1.68Zm-.103-1.673v.366h-1.439v-.366h1.439Z"/>
    <path class="cls-3" d="m402.045,10.09c-.228.378-.479.713-.731,1.001-.042-.096-.144-.282-.21-.378.575-.624,1.151-1.661,1.499-2.698l.479.162c-.023.042-.065.06-.138.054-.156.419-.342.839-.552,1.241l.162.042c-.012.036-.042.066-.12.072v3.976h-.39v-3.472Zm4.804.983v.39h-1.8v2.087h-.401v-2.087h-1.871v-.39h1.871v-1.457h-1.079c-.162.372-.342.713-.528.971-.084-.06-.233-.144-.329-.192.371-.498.707-1.343.911-2.159l.485.132c-.018.042-.06.066-.132.066-.071.264-.161.534-.258.798h.93v-1.188l.527.03c-.006.048-.042.078-.126.084v1.074h1.571v.384h-1.571v1.457h1.8Z"/>
    <path class="cls-3" d="m408.83,10.648v-.786c-.306.372-.713.72-1.103.93-.049-.09-.145-.228-.223-.306.444-.192.93-.593,1.218-1.013h-1.182v-.342h1.289v-1.151l.492.03c-.006.042-.036.072-.114.078v1.043h1.271v.342h-1.271v.138c.246.144.888.558,1.05.678l-.234.294c-.144-.138-.527-.438-.815-.647v.713h-.378Zm1.674.941h-.54c-.09.372-.228.684-.426.954.27.144.51.288.695.426l-.27.3c-.18-.144-.42-.294-.684-.438-.354.318-.834.552-1.487.714-.03-.108-.114-.258-.191-.342.569-.114,1.001-.294,1.325-.558-.229-.114-.462-.222-.696-.318l-.119.216-.354-.132c.132-.222.294-.516.45-.822h-.678v-.354h.857c.096-.198.192-.396.27-.576l.474.108c-.018.042-.054.06-.132.054-.06.126-.126.27-.197.414h1.703v.354Zm-2.405-3.442c.181.246.354.576.42.797l-.317.15c-.061-.216-.234-.558-.408-.81l.306-.138Zm.528,3.442c-.078.15-.156.3-.234.444.27.102.54.216.798.336.174-.216.294-.474.378-.78h-.941Zm.839-2.639c.162-.216.372-.569.486-.81l.42.186c-.019.042-.066.048-.12.042-.126.216-.342.522-.51.726l-.276-.144Zm3.641.534h-.402c-.144.989-.378,1.811-.755,2.477.306.545.701.978,1.205,1.241-.096.084-.222.234-.288.348-.479-.282-.857-.695-1.163-1.205-.366.503-.84.905-1.464,1.205-.042-.096-.149-.264-.222-.342.642-.294,1.122-.713,1.476-1.265-.246-.51-.432-1.098-.569-1.739-.12.276-.246.522-.391.726-.065-.078-.21-.198-.306-.258.426-.6.731-1.655.905-2.698l.51.108c-.012.048-.054.072-.132.072-.06.318-.132.642-.216.954h1.812v.378Zm-1.919,0l-.019.06c.12.72.3,1.392.558,1.973.276-.564.45-1.241.57-2.033h-1.109Z"/>
    <path class="cls-3" d="m414.429,13.208c-.186-.432-.258-1.325-.258-2.111,0-.797.126-1.799.324-2.8l.581.114c-.012.06-.072.102-.155.108-.217.822-.349,1.889-.349,2.584,0,.456.006.912.055,1.134.132-.36.371-.936.497-1.217l.271.251c-.198.408-.618,1.319-.618,1.601,0,.084.019.174.061.288l-.408.048Zm1.523-3.532c.504.006,1.007.012,1.511-.024-.023-.516-.042-.959-.054-1.403l.605.018c-.006.06-.06.108-.156.126.007.384.019.774.03,1.229.474-.048.857-.132,1.176-.24l.054.419c-.288.09-.702.174-1.211.216.023.666.054,1.367.071,1.751.456.186.912.479,1.224.761l-.234.384c-.245-.246-.6-.51-.971-.684-.006.51-.103,1.08-1.002,1.08-.701,0-1.169-.336-1.169-.864,0-.611.617-.881,1.169-.881.187,0,.384.024.57.078-.019-.378-.055-1.007-.084-1.595-.187.012-.438.018-.612.018h-.911l-.006-.39Zm1.643,2.357c-.191-.06-.396-.108-.594-.108-.365,0-.804.132-.804.51,0,.336.36.504.798.504.444,0,.605-.216.605-.696l-.006-.21Z"/>
    <path class="cls-3" d="m423.229,8.003c-.007.042-.036.072-.12.084v2.075h2.015v3.394h-.407v-.264h-4.126v-.396h4.126v-1.001h-3.809v-.39h3.809v-.947h-4.013v-.396h1.997v-2.195l.528.036Zm-2.237.24c.342.426.678,1.001.821,1.385l-.384.174c-.138-.39-.474-.983-.797-1.409l.359-.15Zm4.3.15c-.024.036-.066.054-.138.054-.204.426-.546,1.02-.822,1.409-.006,0-.342-.156-.342-.156.265-.402.606-1.05.798-1.511l.504.204Z"/>
    <path class="cls-3" d="m428.155,8.219l.258.156c-.006.018-.029.042-.048.054-.155.456-.39,1.062-.594,1.559.462.492.624.912.624,1.295,0,.863-.527.839-.995.821-.006-.102-.048-.258-.103-.354.09.012.181.018.258.018.234,0,.468,0,.468-.51-.006-.336-.168-.744-.629-1.224.191-.456.377-1.013.51-1.433h-.858v4.947h-.365v-5.313h1.409l.065-.018Zm2.693,4.671c0,.15.018.174.161.174h.45c.138,0,.162-.096.174-.761.084.072.246.138.354.162-.042.768-.138.966-.485.966h-.546c-.396,0-.491-.114-.491-.54v-1.655h-.756c-.078,1.109-.312,1.895-1.457,2.314-.042-.09-.145-.24-.229-.312,1.008-.348,1.229-.984,1.302-2.003h-.834v-.372h3.448v.372h-1.091v1.655Zm-2.033-3.832v.75h-.372v-1.104h1.512v-.731l.51.03c-.007.042-.036.072-.114.084v.618h1.547v1.097h-.378v-.743h-2.704Zm2.603,1.055h-2.495v-.36h2.495v.36Z"/>
    <path class="cls-3" d="m434.894,11.271c-.03-.096-.078-.21-.139-.33l-.635.036v2.566h-.366v-2.549c-.342.012-.653.03-.899.036-.006.048-.042.066-.084.078l-.108-.45h.444c.132-.156.275-.336.413-.528-.186-.27-.509-.618-.797-.87l.204-.264c.06.048.119.102.18.162.21-.354.455-.839.594-1.187l.438.186c-.024.036-.06.048-.126.048-.168.348-.443.839-.672,1.175.156.156.294.312.39.45.271-.402.528-.828.714-1.175l.426.204c-.023.03-.072.048-.138.048-.312.51-.804,1.224-1.235,1.745l1.104-.018c-.114-.204-.246-.414-.372-.594.24-.108.276-.12.306-.138.282.378.576.882.684,1.211l-.323.156Zm-1.397.27c-.012.036-.048.06-.114.06-.084.51-.222,1.085-.407,1.439-.078-.054-.21-.114-.3-.156.174-.336.306-.912.384-1.457l.438.114Zm1.211-.132c.174.366.342.833.408,1.146-.072.03-.144.054-.336.12-.054-.318-.216-.797-.384-1.163l.312-.102Zm1.59-.336c-.007.042-.042.066-.108.078-.084,1.169-.456,1.985-1.283,2.387-.06-.078-.18-.204-.27-.264.779-.36,1.109-1.115,1.163-2.249l.498.048Zm-1.182-.642l.468-.012c.18-.348.384-.852.51-1.247h-1.104v-.366h1.421v-.84l.528.036c-.006.042-.042.072-.12.084v.72h1.493v.366h-1.835l.149.048c-.012.036-.06.054-.132.06-.126.324-.317.773-.504,1.127.475-.018,1.002-.036,1.535-.06-.168-.228-.348-.456-.521-.647l.312-.18c.385.414.81.983.996,1.355-.072.048-.15.09-.33.21-.06-.12-.144-.264-.24-.42-.893.06-1.805.102-2.398.132-.012.048-.054.072-.096.084l-.132-.45Zm2.146,2.513c0,.144.024.162.15.162h.42c.119,0,.149-.09.161-.75.078.066.24.132.342.156-.035.761-.132.959-.468.959h-.503c-.384,0-.48-.12-.48-.528v-1.967l.498.036c-.006.042-.042.072-.12.078v1.853Z"/>
    <path class="cls-3" d="m441.422,8.987v.336h-2.398v-.336h2.398Zm-.246,2.447v1.763h-1.511v.282h-.36v-2.045h1.871Zm-1.864-1.301v-.33h1.883v.33h-1.883Zm0,.815v-.33h1.883v.33h-1.883Zm1.883-2.758v.33h-1.854v-.33h1.854Zm-.384,3.586h-1.146v1.08h1.146v-1.08Zm3.861-1.715v.396h-1.391v3.088h-.408v-3.088h-1.451v-.396h1.451v-2.075l.527.036c-.006.042-.035.072-.119.084v1.955h1.391Z"/>
    <path class="cls-3" d="m450.126,13.005c-.516-.408-1.169-.798-1.799-1.001.013.234-.029.54-.078.695-.048.498-.51.69-1.061.69-.774,0-1.386-.378-1.392-.984-.012-.605.624-.977,1.379-.983.21,0,.479.012.702.054,0-.162-.03-.3-.036-.438-.054-.785-.103-2.045-.108-2.908l.624.036c0,.06-.054.114-.156.126-.006.162,0,.953,0,1.133.39,0,1.266-.066,1.991-.192l.042.426c-.684.108-1.571.168-2.027.174,0,.342.013.479.103,1.721.773.228,1.505.635,2.093,1.067l-.276.384Zm-2.962-1.224c-.576.012-.978.252-.978.594,0,.438.474.63.953.63.42,0,.768-.15.768-.576,0-.138,0-.384-.012-.558-.24-.072-.504-.09-.731-.09Z"/>
    <path class="cls-3" d="m452.894,11.512c-.114-.324-.168-.792-.174-1.127,0-.564.06-1.217.203-1.979l.6.102c-.023.078-.096.096-.174.102-.12.498-.203,1.26-.203,1.745,0,.132.006.24.018.324.12-.293.342-.701.468-.929.054.078.174.204.233.264-.443.798-.575,1.025-.575,1.277,0,.048.006.096.018.15l-.413.072Zm3.214-3.262c-.006.072-.054.102-.156.132.042.521.103,1.391.103,2.081-.006,1.158-.426,2.201-2.231,2.951-.065-.096-.21-.258-.3-.348,1.638-.624,2.075-1.613,2.075-2.596,0-.738-.072-1.607-.138-2.249l.647.03Z"/>
    <path class="cls-3" d="m463.506,7.998c-.654.545-1.188,1.547-1.188,2.758,0,1.241.552,2.231,1.188,2.758v.03h-.36c-.605-.546-1.146-1.553-1.146-2.789s.54-2.243,1.146-2.789h.36v.03Z"/>
    <path class="cls-3" d="m466.97,13.035h-2.656v-.306l.438-.462c1.067-1.08,1.607-1.733,1.607-2.465,0-.479-.21-.923-.857-.923-.36,0-.684.198-.899.372l-.168-.348c.275-.246.684-.438,1.163-.438.905,0,1.266.66,1.266,1.277,0,.845-.594,1.565-1.523,2.5l-.354.372v.012h1.984v.408Z"/>
    <path class="cls-3" d="m467.865,10.804c0-1.571.611-2.333,1.451-2.333.852,0,1.373.804,1.373,2.273,0,1.559-.546,2.362-1.439,2.362-.815,0-1.385-.803-1.385-2.303Zm2.32-.036c0-1.122-.27-1.895-.899-1.895-.534,0-.911.713-.911,1.895s.329,1.931.894,1.931c.665,0,.917-.863.917-1.931Z"/>
    <path class="cls-3" d="m474.181,13.035h-2.656v-.306l.438-.462c1.067-1.08,1.607-1.733,1.607-2.465,0-.479-.21-.923-.857-.923-.36,0-.684.198-.899.372l-.168-.348c.275-.246.684-.438,1.163-.438.905,0,1.266.66,1.266,1.277,0,.845-.594,1.565-1.523,2.5l-.354.372v.012h1.984v.408Z"/>
    <path class="cls-3" d="m476.719,10.606c.528.09.978.516.978,1.164,0,.713-.516,1.337-1.523,1.337-.449,0-.857-.144-1.062-.288l.15-.384c.162.108.521.27.918.27.755,0,1.001-.528,1.001-.942,0-.66-.558-.959-1.146-.959h-.294v-.372h.294c.432,0,.989-.27.989-.833,0-.39-.233-.726-.773-.726-.33,0-.642.162-.821.294l-.15-.366c.216-.167.636-.335,1.067-.335.822,0,1.188.521,1.188,1.061,0,.462-.294.876-.815,1.062v.018Z"/>
    <path class="cls-3" d="m485.692,11.775v.396h-2.243v1.373h-.407v-1.373h-2.843v-.396h1.008v-1.649h1.835v-.984h-1.548c-.287.474-.617.9-.959,1.211-.072-.072-.228-.204-.324-.264.558-.48,1.086-1.307,1.397-2.141l.51.162c-.024.054-.078.066-.138.054-.078.198-.168.39-.271.582h3.694v.396h-1.955v.984h1.823v.384h-1.823v1.265h2.243Zm-4.078,0h1.428v-1.265h-1.428v1.265Z"/>
    <path class="cls-3" d="m489.302,13.035v-4.024h-.013l-.737.426-.12-.372.93-.522h.426v4.492h-.485Z"/>
    <path class="cls-3" d="m497.77,8.297v4.653c0,.312-.084.45-.306.522-.222.072-.623.078-1.277.072-.029-.114-.107-.306-.174-.426.288.012.563.018.78.018.521,0,.558,0,.558-.186v-1.337h-2.969c-.156.702-.468,1.409-1.104,1.943-.06-.09-.21-.24-.3-.3,1.031-.875,1.134-2.117,1.134-3.112v-1.847h3.657Zm-3.25,1.847c0,.306-.012.684-.065,1.08h2.896v-1.08h-2.831Zm2.831-1.451h-2.831v1.067h2.831v-1.067Z"/>
    <path class="cls-3" d="m501.534,11.578l.048.348c-.737.228-1.523.462-2.015.6-.006.048-.036.084-.072.096l-.186-.444c.264-.066.6-.15.972-.252v-1.547h-.792v-.372h.792v-1.343h-.87v-.378h2.081v.378h-.821v1.343h.773v.372h-.773v1.439l.863-.24Zm1.259.204c-.012.036-.048.072-.119.078-.15.773-.462,1.361-1.619,1.685-.042-.096-.156-.264-.234-.336,1.062-.252,1.361-.744,1.47-1.481l.503.054Zm.99,1.193c0,.144.023.174.186.174h.516c.145,0,.174-.096.187-.726.083.066.239.132.348.156-.036.737-.139.917-.492.917h-.617c-.414,0-.516-.114-.516-.522v-1.391h-1.607v-3.34h2.836v3.34h-.839v1.391Zm-1.613-4.383v.653h2.057v-.653h-2.057Zm0,.983v.66h2.057v-.66h-2.057Zm0,.995v.666h2.057v-.666h-2.057Z"/>
    <path class="cls-3" d="m508.332,8.111c-.019.042-.066.066-.139.066-.077.246-.161.504-.264.756h3.173v.39h-3.347c-.197.426-.432.846-.72,1.235l.066.018c-.012.042-.048.072-.12.078v2.896h-.401v-2.435c-.216.234-.45.444-.708.636-.048-.108-.156-.276-.222-.366.348-.252.659-.558.93-.9v-.042l.023.006c.27-.348.504-.732.695-1.127h-1.505v-.39h1.686c.132-.318.239-.642.329-.959l.522.138Zm1.115,3.118v1.793h1.655v.378h-3.683v-.378h1.619v-1.793h-1.379v-.377h1.379v-1.206l.521.036c-.006.042-.035.066-.113.078v1.092h1.415v.377h-1.415Z"/>
    <path class="cls-3" d="m511.957,13.514c.653-.545,1.188-1.547,1.188-2.758,0-1.241-.552-2.231-1.188-2.758v-.03h.359c.612.546,1.146,1.553,1.146,2.789s-.533,2.243-1.146,2.789h-.359v-.03Z"/>
  </g>
  <rect class="cls-5" x="498.916" y="151.664" width="7.668" height="127.453"/>
  <rect class="cls-2" x="498.916" y="63.396" width="7.668" height="88.268"/>
</svg>