<?xml version="1.0" encoding="UTF-8"?>
<svg id="_イヤー_1" data-name="レイヤー 1" xmlns="http://www.w3.org/2000/svg" width="133.748mm" height="77.965mm" xmlns:xlink="http://www.w3.org/1999/xlink" viewBox="0 0 379.128 221.004">
  <defs>
    <style>
      .cls-1 {
        fill: url(#_称未設定グラデーション_55-2);
      }

      .cls-2 {
        fill: url(#_称未設定グラデーション_52-2);
      }

      .cls-3 {
        fill: url(#_称未設定グラデーション_67-3);
      }

      .cls-4 {
        fill: url(#_称未設定グラデーション_67-4);
      }

      .cls-5 {
        fill: url(#_称未設定グラデーション_67-2);
      }

      .cls-6 {
        fill: url(#_称未設定グラデーション_45-2);
      }

      .cls-7 {
        fill: url(#_称未設定グラデーション_43-3);
      }

      .cls-8 {
        fill: url(#_称未設定グラデーション_43-2);
      }

      .cls-9 {
        fill: url(#_称未設定グラデーション_42-3);
      }

      .cls-10 {
        fill: url(#_称未設定グラデーション_42-2);
      }

      .cls-11 {
        fill: url(#_称未設定グラデーション_92-2);
      }

      .cls-12 {
        fill: url(#_称未設定グラデーション_47-2);
      }

      .cls-13 {
        fill: url(#_称未設定グラデーション_47-3);
      }

      .cls-14 {
        fill: url(#_称未設定グラデーション_56-2);
      }

      .cls-15 {
        fill: url(#_称未設定グラデーション_61-2);
      }

      .cls-16 {
        fill: url(#_称未設定グラデーション_56);
      }

      .cls-17 {
        fill: url(#_称未設定グラデーション_46);
      }

      .cls-18 {
        fill: url(#_称未設定グラデーション_47);
      }

      .cls-19 {
        fill: url(#_称未設定グラデーション_49);
      }

      .cls-20 {
        fill: url(#_称未設定グラデーション_55);
      }

      .cls-21 {
        fill: url(#_称未設定グラデーション_53);
      }

      .cls-22 {
        fill: url(#_称未設定グラデーション_52);
      }

      .cls-23 {
        fill: url(#_称未設定グラデーション_51);
      }

      .cls-24 {
        fill: url(#_称未設定グラデーション_61);
      }

      .cls-25 {
        fill: url(#_称未設定グラデーション_42);
      }

      .cls-26 {
        fill: url(#_称未設定グラデーション_43);
      }

      .cls-27 {
        fill: url(#_称未設定グラデーション_67);
      }

      .cls-28 {
        fill: url(#_称未設定グラデーション_45);
      }

      .cls-29 {
        fill: url(#_称未設定グラデーション_92);
      }

      .cls-30 {
        fill: #673a1b;
      }

      .cls-31 {
        fill: #b71c25;
      }

      .cls-32 {
        fill: #aed6ce;
      }

      .cls-33 {
        fill: #acd6d9;
      }

      .cls-34 {
        fill: #d1e7e5;
      }

      .cls-35 {
        fill: #3f210e;
      }

      .cls-36 {
        stroke-width: 1.844px;
      }

      .cls-36, .cls-37, .cls-38, .cls-39, .cls-40, .cls-41 {
        stroke-miterlimit: 10;
      }

      .cls-36, .cls-37, .cls-38, .cls-39, .cls-40, .cls-41, .cls-42 {
        fill: none;
      }

      .cls-36, .cls-39, .cls-41 {
        stroke: #221714;
      }

      .cls-37 {
        stroke: #eba52f;
        stroke-width: 2px;
      }

      .cls-43 {
        fill: url(#_規グラデーションスウォッチ_12);
      }

      .cls-38 {
        stroke: #fff;
      }

      .cls-44 {
        fill: url(#_規グラデーションスウォッチ_4);
      }

      .cls-45 {
        fill: url(#_規グラデーションスウォッチ_6);
      }

      .cls-39, .cls-40 {
        stroke-width: 1.229px;
      }

      .cls-40 {
        stroke: #3f210e;
      }

      .cls-46 {
        fill: url(#_称未設定グラデーション_103);
      }

      .cls-41 {
        stroke-width: 1.936px;
      }

      .cls-42 {
        stroke: #673a1b;
        stroke-linejoin: round;
        stroke-width: .968px;
      }

      .cls-47 {
        fill: url(#_規グラデーションスウォッチ_4-5);
      }

      .cls-48 {
        fill: url(#_規グラデーションスウォッチ_4-2);
      }

      .cls-49 {
        fill: url(#_規グラデーションスウォッチ_4-3);
      }

      .cls-50 {
        fill: url(#_規グラデーションスウォッチ_4-4);
      }
    </style>
    <linearGradient id="_規グラデーションスウォッチ_4" data-name="新規グラデーションスウォッチ 4" x1="37.137" y1="146.457" x2="37.137" y2="220.197" gradientTransform="matrix(1, 0, 0, 1, 0, 0)" gradientUnits="userSpaceOnUse">
      <stop offset="0" stop-color="#9ec7a3"/>
      <stop offset=".12" stop-color="#86bd99"/>
      <stop offset=".415" stop-color="#51a983"/>
      <stop offset=".67" stop-color="#2a9b73"/>
      <stop offset=".874" stop-color="#129269"/>
      <stop offset="1" stop-color="#0a8f66"/>
    </linearGradient>
    <linearGradient id="_規グラデーションスウォッチ_4-2" data-name="新規グラデーションスウォッチ 4" x1="151.487" y1="159.793" x2="151.487" y2="205.977" xlink:href="#_規グラデーションスウォッチ_4"/>
    <linearGradient id="_規グラデーションスウォッチ_12" data-name="新規グラデーションスウォッチ 12" x1="94.998" y1="170.727" x2="94.998" y2="220.197" gradientTransform="matrix(1, 0, 0, 1, 0, 0)" gradientUnits="userSpaceOnUse">
      <stop offset="0" stop-color="#d3e1aa"/>
      <stop offset="1" stop-color="#7ab97d"/>
    </linearGradient>
    <linearGradient id="_称未設定グラデーション_61" data-name="名称未設定グラデーション 61" x1="161.802" y1="115.506" x2="161.802" y2="134.59" gradientTransform="matrix(1, 0, 0, 1, 0, 0)" gradientUnits="userSpaceOnUse">
      <stop offset="0" stop-color="#fff"/>
      <stop offset=".128" stop-color="#f3f5f5"/>
      <stop offset=".411" stop-color="#e0e5e6"/>
      <stop offset=".699" stop-color="#d4dcdd"/>
      <stop offset="1" stop-color="#d1d9da"/>
    </linearGradient>
    <linearGradient id="_称未設定グラデーション_61-2" data-name="名称未設定グラデーション 61" x1="2.041" y1="48.381" x2="25.938" y2="72.278" xlink:href="#_称未設定グラデーション_61"/>
    <linearGradient id="_規グラデーションスウォッチ_4-3" data-name="新規グラデーションスウォッチ 4" x1="171.834" y1="114.911" x2="171.834" y2="139.314" gradientTransform="translate(7.021 -48.149) rotate(18.5)" xlink:href="#_規グラデーションスウォッチ_4"/>
    <linearGradient id="_規グラデーションスウォッチ_4-4" data-name="新規グラデーションスウォッチ 4" x1="152.279" y1="117.163" x2="152.279" y2="137.082" gradientTransform="translate(.987 -33.924) rotate(14.827)" xlink:href="#_規グラデーションスウォッチ_4"/>
    <linearGradient id="_称未設定グラデーション_45" data-name="名称未設定グラデーション 45" x1="65.682" y1="125.048" x2="65.682" y2="154.789" gradientTransform="matrix(1, 0, 0, 1, 0, 0)" gradientUnits="userSpaceOnUse">
      <stop offset="0" stop-color="#e17a4b"/>
      <stop offset=".364" stop-color="#e7936f"/>
      <stop offset="1" stop-color="#f1beab"/>
    </linearGradient>
    <linearGradient id="_称未設定グラデーション_43" data-name="名称未設定グラデーション 43" x1="80.484" y1="128.695" x2="80.484" y2="62.082" gradientTransform="matrix(1, 0, 0, 1, 0, 0)" gradientUnits="userSpaceOnUse">
      <stop offset="0" stop-color="#e17a4b"/>
      <stop offset=".029" stop-color="#e58e6d"/>
      <stop offset=".29" stop-color="#e9a184"/>
      <stop offset="1" stop-color="#f6d4c0"/>
    </linearGradient>
    <linearGradient id="_称未設定グラデーション_55" data-name="名称未設定グラデーション 55" x1="127.564" y1="81.181" x2="127.564" y2="51.681" gradientTransform="matrix(1, 0, 0, 1, 0, 0)" gradientUnits="userSpaceOnUse">
      <stop offset="0" stop-color="#4d2712"/>
      <stop offset="1" stop-color="#a74f39"/>
    </linearGradient>
    <linearGradient id="_称未設定グラデーション_56" data-name="名称未設定グラデーション 56" x1="117.845" y1="79.21" x2="117.845" y2="55.417" gradientTransform="matrix(1, 0, 0, 1, 0, 0)" gradientUnits="userSpaceOnUse">
      <stop offset="0" stop-color="#633821"/>
      <stop offset="1" stop-color="#e58e65"/>
    </linearGradient>
    <linearGradient id="_称未設定グラデーション_56-2" data-name="名称未設定グラデーション 56" x1="130.22" y1="81.181" x2="130.22" y2="53.874" xlink:href="#_称未設定グラデーション_56"/>
    <linearGradient id="_称未設定グラデーション_55-2" data-name="名称未設定グラデーション 55" x1="85.981" y1="112.627" x2="85.981" y2="53.874" xlink:href="#_称未設定グラデーション_55"/>
    <linearGradient id="_称未設定グラデーション_52" data-name="名称未設定グラデーション 52" x1="171.614" y1="76.879" x2="171.614" y2="44.561" gradientTransform="matrix(1, 0, 0, 1, 0, 0)" gradientUnits="userSpaceOnUse">
      <stop offset="0" stop-color="#e17a4b"/>
      <stop offset="1" stop-color="#f6d4c0"/>
    </linearGradient>
    <linearGradient id="_称未設定グラデーション_53" data-name="名称未設定グラデーション 53" x1="171.702" y1="46.268" x2="171.702" y2="62.09" gradientTransform="matrix(1, 0, 0, 1, 0, 0)" gradientUnits="userSpaceOnUse">
      <stop offset="0" stop-color="#e17a4b"/>
      <stop offset="1" stop-color="#e2a78f"/>
    </linearGradient>
    <linearGradient id="_称未設定グラデーション_52-2" data-name="名称未設定グラデーション 52" x1="22.963" y1="53.02" x2="38.414" y2="26.258" xlink:href="#_称未設定グラデーション_52"/>
    <linearGradient id="_称未設定グラデーション_51" data-name="名称未設定グラデーション 51" x1="33.04" y1="28.895" x2="39.791" y2="40.589" gradientTransform="matrix(1, 0, 0, 1, 0, 0)" gradientUnits="userSpaceOnUse">
      <stop offset="0" stop-color="#e17a4b"/>
      <stop offset="1" stop-color="#e5b295"/>
    </linearGradient>
    <linearGradient id="_称未設定グラデーション_49" data-name="名称未設定グラデーション 49" x1="84.372" y1="220.642" x2="84.372" y2="60.519" gradientTransform="matrix(1, 0, 0, 1, 0, 0)" gradientUnits="userSpaceOnUse">
      <stop offset="0" stop-color="#d96a6e"/>
      <stop offset=".266" stop-color="#dc7777"/>
      <stop offset=".766" stop-color="#e79c8f"/>
      <stop offset="1" stop-color="#edb09c"/>
    </linearGradient>
    <linearGradient id="_称未設定グラデーション_47" data-name="名称未設定グラデーション 47" x1="63.301" y1="166.194" x2="63.301" y2="136.852" gradientTransform="matrix(1, 0, 0, 1, 0, 0)" gradientUnits="userSpaceOnUse">
      <stop offset="0" stop-color="#d02342"/>
      <stop offset=".277" stop-color="#d43b4e"/>
      <stop offset=".86" stop-color="#e1796f"/>
      <stop offset="1" stop-color="#e58978"/>
    </linearGradient>
    <linearGradient id="_称未設定グラデーション_47-2" data-name="名称未設定グラデーション 47" x1="155.323" y1="93.831" x2="155.323" y2="67.757" xlink:href="#_称未設定グラデーション_47"/>
    <linearGradient id="_称未設定グラデーション_47-3" data-name="名称未設定グラデーション 47" x1="29.845" y1="69.043" x2="29.845" y2="51.495" xlink:href="#_称未設定グラデーション_47"/>
    <linearGradient id="_称未設定グラデーション_46" data-name="名称未設定グラデーション 46" x1="64.441" y1="14.635" x2="68.873" y2="31.176" gradientTransform="matrix(1, 0, 0, 1, 0, 0)" gradientUnits="userSpaceOnUse">
      <stop offset="0" stop-color="#f6d797"/>
      <stop offset=".028" stop-color="#f8df99"/>
      <stop offset=".165" stop-color="#f0cb81"/>
      <stop offset=".392" stop-color="#e5b162"/>
      <stop offset=".612" stop-color="#de9e4b"/>
      <stop offset=".818" stop-color="#d9923d"/>
      <stop offset="1" stop-color="#d88f39"/>
    </linearGradient>
    <linearGradient id="_称未設定グラデーション_45-2" data-name="名称未設定グラデーション 45" x1="265.42" y1="76.613" x2="265.42" y2="117.774" xlink:href="#_称未設定グラデーション_45"/>
    <linearGradient id="_称未設定グラデーション_67" data-name="名称未設定グラデーション 67" x1="272.582" y1="216.783" x2="272.582" y2="101.454" gradientTransform="matrix(1, 0, 0, 1, 0, 0)" gradientUnits="userSpaceOnUse">
      <stop offset="0" stop-color="#c4cbb8"/>
      <stop offset="1" stop-color="#fff"/>
    </linearGradient>
    <linearGradient id="_称未設定グラデーション_92" data-name="名称未設定グラデーション 92" x1="281.615" y1="124.843" x2="281.615" y2="162.911" gradientTransform="matrix(1, 0, 0, 1, 0, 0)" gradientUnits="userSpaceOnUse">
      <stop offset="0" stop-color="#3061a4"/>
      <stop offset="1" stop-color="#343986"/>
    </linearGradient>
    <linearGradient id="_称未設定グラデーション_92-2" data-name="名称未設定グラデーション 92" x1="274.356" y1="126.779" x2="274.356" y2="112.786" xlink:href="#_称未設定グラデーション_92"/>
    <linearGradient id="_称未設定グラデーション_43-2" data-name="名称未設定グラデーション 43" x1="247.21" y1="65.085" x2="300.451" y2="65.085" xlink:href="#_称未設定グラデーション_43"/>
    <linearGradient id="_規グラデーションスウォッチ_6" data-name="新規グラデーションスウォッチ 6" x1="238.739" y1="49.727" x2="309.44" y2="49.727" gradientTransform="matrix(1, 0, 0, 1, 0, 0)" gradientUnits="userSpaceOnUse">
      <stop offset="0" stop-color="#673a1b"/>
      <stop offset="1" stop-color="#906033"/>
    </linearGradient>
    <linearGradient id="_称未設定グラデーション_67-2" data-name="名称未設定グラデーション 67" x1="259.865" y1="128.876" x2="259.865" y2="97.623" xlink:href="#_称未設定グラデーション_67"/>
    <linearGradient id="_称未設定グラデーション_67-3" data-name="名称未設定グラデーション 67" x1="279.961" y1="125.972" x2="279.961" y2="103.067" xlink:href="#_称未設定グラデーション_67"/>
    <linearGradient id="_規グラデーションスウォッチ_4-5" data-name="新規グラデーションスウォッチ 4" x1="269.633" y1="105.581" x2="269.633" y2="219.642" xlink:href="#_規グラデーションスウォッチ_4"/>
    <linearGradient id="_称未設定グラデーション_42" data-name="名称未設定グラデーション 42" x1="306.539" y1="204.254" x2="306.539" y2="141.731" gradientTransform="matrix(1, 0, 0, 1, 0, 0)" gradientUnits="userSpaceOnUse">
      <stop offset="0" stop-color="#d3d1ab"/>
      <stop offset=".626" stop-color="#efedcc"/>
      <stop offset="1" stop-color="#fcfadc"/>
    </linearGradient>
    <linearGradient id="_称未設定グラデーション_42-2" data-name="名称未設定グラデーション 42" x1="329.416" y1="173.395" x2="378.628" y2="173.395" xlink:href="#_称未設定グラデーション_42"/>
    <linearGradient id="_称未設定グラデーション_43-3" data-name="名称未設定グラデーション 43" x1="179.182" y1="201.164" x2="179.182" y2="164.87" gradientTransform="translate(39.661 183.488) rotate(-43.794)" xlink:href="#_称未設定グラデーション_43"/>
    <linearGradient id="_称未設定グラデーション_103" data-name="名称未設定グラデーション 103" x1="242.388" y1="196.395" x2="242.388" y2="116.428" gradientTransform="matrix(1, 0, 0, 1, 0, 0)" gradientUnits="userSpaceOnUse">
      <stop offset="0" stop-color="#d6e6e0"/>
      <stop offset="1" stop-color="#fff"/>
    </linearGradient>
    <linearGradient id="_称未設定グラデーション_42-3" data-name="名称未設定グラデーション 42" x1="331.15" y1="145.851" x2="331.15" y2="137.516" xlink:href="#_称未設定グラデーション_42"/>
    <linearGradient id="_称未設定グラデーション_67-4" data-name="名称未設定グラデーション 67" x1="270.469" y1="192.006" x2="274.86" y2="192.006" xlink:href="#_称未設定グラデーション_67"/>
  </defs>
  <rect class="cls-33" x=".5" y=".5" width="378.128" height="220.004"/>
  <rect class="cls-32" x="189.631" y=".5" width="188.997" height="220.004"/>
  <path class="cls-34" d="M189.631,.5V97.726c15.432,8.219,33.045,12.884,51.75,12.884,60.843,0,110.172-49.285,110.248-110.11H189.631Z"/>
  <path class="cls-44" d="M46.25,146.464c-9.25-.344-8.5,12.594-8.5,12.594-.5-2.75-5.25-3.25-8.5-1.797-3.25,1.453-3.25,10.797-3.25,10.797-4-10-10.5-2-10.5-2-.5-12.75-4.75-18.75-10-19.5-2.107-.301-3.763,.166-5,.83v72.81H33.002c17.212-7.046,45.841-21.154,39.998-35.14-8.25-19.75-17.5-38.25-26.75-38.594Z"/>
  <path class="cls-48" d="M189.497,171.562c-2.913,.376-11.667,3.312-11.667,3.312-13.88-15.608-20.215-5.16-20.215-5.16l-6.607-8.291c-10.5-5.75-14.177,5.553-14.177,5.553-19.083-7.183-23.354,5.738-23.354,5.738l76.019,33.262v-34.415Z"/>
  <path class="cls-43" d="M189.497,220.197v-23.297c-19.52-12.575-50.26-24.901-96.5-26.093-41.366-1.066-71.456,8.596-92.363,20.031l-.134,29.359H189.497Z"/>
  <path class="cls-24" d="M179.727,134.59s-17.417-6.139-36.583-5.806c0,0,4.583-9.667,9.917-9.333s5.333,3,5.333,3c0,0,.667-7.75,7.167-6.875,6.5,.875,4.5,5.625,4.5,5.625,0,0,4.405-1.236,6,1.25,1.667,2.598,.667,5-.5,6,0,0,7.167,1.279,4.167,6.139Z"/>
  <path class="cls-15" d="M27,51.583c-3.5-1.5-5.167,1.75-5.167,1.75-.167-2.083-.833-5.75-6.203-6.583-5.369-.833-7.631,5.667-7.631,5.667-2.838-2.62-5.454-2.951-7.5-2.494v19.131c15.801-5.272,35.262-6.598,35.262-6.598-.072-4.794-7.095-3.659-7.095-3.659,.833-1.62,1.833-5.713-1.667-7.213Z"/>
  <g>
    <rect class="cls-35" x="125.828" y="135.663" width="1.75" height="8.5" transform="translate(27.026 -20.38) rotate(10.288)"/>
    <path class="cls-49" d="M126.845,138.804c-2.516-.485-6.41-3.424-2.616-12.846,3.516-8.732,5.238-11.755,6.803-11.432,1.949,.402,3.125,5.703,2.918,13.894-.224,8.857-4.454,10.895-7.105,10.385Z"/>
  </g>
  <g>
    <rect class="cls-35" x="113.234" y="135.204" width="1.428" height="6.938" transform="translate(16.737 -12.205) rotate(6.616)"/>
    <path class="cls-50" d="M114.005,137.763c-2.075-.263-5.401-2.454-2.803-10.327,2.407-7.296,3.652-9.849,4.944-9.668,1.608,.226,2.843,4.482,3.103,11.165,.281,7.226-3.058,9.108-5.245,8.83Z"/>
  </g>
  <g>
    <path class="cls-28" d="M50.741,139.31s9.372,2.444,9.833-13.861c0,0,17.823-.903,17.823,0s-1.076,15.193,2.458,16.422c0,0-8.143,13.367-20.435,12.906-12.292-.461-9.68-15.467-9.68-15.467Z"/>
    <path class="cls-26" d="M105.285,68.121s19.667,18.898,3.841,40.87c0,0,3.688,.461,2.919,3.073s1.997,3.995-11.216,5.07c0,0-18.745,16.901-42.406,9.833-1.769-.528-18.591-11.063-10.602-41.945,7.99-30.883,43.021-23.969,57.464-16.901Z"/>
    <circle class="cls-20" cx="127.564" cy="66.431" r="14.75"/>
    <path class="cls-16" d="M112.814,66.431c0,5.469,2.984,10.232,7.406,12.779,5.67-11.728,1.015-20.351-2.442-23.793-3.038,2.702-4.963,6.629-4.963,11.014Z"/>
    <path class="cls-14" d="M129.101,53.874c2.503,14.79-3.858,24.286-5.725,26.695,1.329,.393,2.732,.612,4.188,.612,2.862,0,5.525-.829,7.787-2.24,6.155-17.646-6.251-25.067-6.251-25.067Z"/>
    <path class="cls-1" d="M102.673,70.887s-15.518,10.448-50.55,2.458c0,0,5.839-12.599,22.279-17.362,16.44-4.763,32.419-1.383,40.255,9.372s6.76,34.724-3.073,45.018c0,0-4.148-1.076-9.833,1.229s-1.69,0-1.69,0l6.916-8.843s-4.304-16.969-4.304-31.873Z"/>
    <path class="cls-22" d="M157.218,69.043l7.375-7.221s-4.594-10.722,3.841-15.518c7.836-4.456,13.06,.615,15.826,4.302s2.328,12.286-1.844,15.826c-5.07,4.302-12.445,1.096-12.445,1.096l-6.146,9.351-6.607-7.836Z"/>
    <path class="cls-21" d="M171.302,61.053s3.892-1.145,3.278-7.179c0,0,5.531-.042,5.685-2.193s-3.286-6.351-12.138-5.224c-4.225,.538-6.52,11.513-3.844,13.875,2.384,2.104,4.964,2.287,7.019,.721Z"/>
    <path class="cls-2" d="M26.055,54.805l.512-11.37s-8.707-4.2-4.507-12.906c4.2-8.707,15.057-7.887,18.642-1.434s-.102,12.497-5.224,13.521c0,0-.205,13.726-.512,13.726s-8.911-1.536-8.911-1.536Z"/>
    <path class="cls-23" d="M33.533,34.114s-4.712-2.356-2.049-4.302,9.719,.413,10.334,2.052,1.099,6.541-3.408,9.512c-4.507,2.97-9.31-3.21-4.877-7.261Z"/>
    <path class="cls-19" d="M14.574,220.096s-11.054-40.427,3.492-65.216c0,0-5.122-36.67,3.278-91.163,0,0,10.653-5.933,17.004-1.635,0,0,7.339,38.717,9.014,77.229,.117,2.692,5.834,10.422,11.677,12.497,8.399,2.982,21.176-7.785,21.446-9.014s5.498,0,5.498,0c0,0,41.071-53.059,61.762-67.399,0,0,9.014,5.122,10.448,15.569,0,0-37.285,71.292-62.073,91.778,0,0-5.687,34.482-15.262,37.354-4.097,1.229-66.282,0-66.282,0Z"/>
    <path class="cls-18" d="M47.566,136.852s1.434,2.049,5.736,2.458c0,0-1.639,11.677,6.965,12.906s20.217-11.882,20.217-11.882c0,0,1.507,.819,5.498,1.229,0,0-.721,16.389-7.072,21.51-6.351,5.122-13.726,3.073-15.365,0-1.639-3.073-3.278-8.638-3.278-8.638,0,0-5.736,5.36-12.701,5.36s-7.58-8.023-6.556-11.796,1.639-6.641,6.556-11.148Z"/>
    <path class="cls-12" d="M144.875,77.237c1.639,1.024,8.809,4.097,12.701,16.594,0,0,7.785-10.448,7.58-11.472s2.253-3.892-1.434-8.809-7.58-7.17-10.243-4.917c-2.663,2.253-8.604,8.604-8.604,8.604Z"/>
    <path class="cls-13" d="M20.114,69.043s8.809-6.146,19.462-5.326l-.819-9.843s0-3.166-5.326-2.193c-5.326,.973-11.472,1.658-12.087,8.588s-1.229,8.774-1.229,8.774Z"/>
    <circle class="cls-30" cx="48.758" cy="178.772" r="3.52"/>
    <circle class="cls-30" cx="45.238" cy="195.673" r="3.52"/>
    <path class="cls-31" d="M62.828,104.177s8.502-3.79,14.648,2.766c0,0,1.741,2.868,0,5.019-1.741,2.151-6.248,6.453-9.731,5.839s-6.556-4.405-4.917-13.623Z"/>
    <circle class="cls-30" cx="54.904" cy="165.251" r="3.52"/>
    <g>
      <path class="cls-36" d="M56.579,85.534s3.483-5.019,7.682-3.892c4.2,1.127,4.097,6.556,4.097,6.556"/>
      <path class="cls-36" d="M84.669,92.295s3.562-4.814,7.557-1.844c3.995,2.97,2.868,8.809,2.868,8.809"/>
      <path class="cls-39" d="M73.583,86.558c.102,.512,.615,6.714-4.507,7.813l1.236,3.762"/>
      <path class="cls-40" d="M94.684,80.105s5.941-1.292,4.917,4.732"/>
    </g>
  </g>
  <g>
    <circle class="cls-17" cx="66.657" cy="22.905" r="8.56"/>
    <line class="cls-37" x1="65.097" y1="2.179" x2="66.347" y2="10.512"/>
    <line class="cls-37" x1="75.597" y1="14.345" x2="83.43" y2="8.073"/>
    <line class="cls-37" x1="78.263" y1="22.405" x2="85.763" y2="22.405"/>
    <line class="cls-37" x1="77.097" y1="30.466" x2="85.763" y2="37.887"/>
    <line class="cls-37" x1="69.097" y1="35.179" x2="71.93" y2="44.362"/>
    <line class="cls-37" x1="60.93" y1="35.179" x2="58.097" y2="45.762"/>
    <line class="cls-37" x1="55.217" y1="30.466" x2="47.93" y2="36.179"/>
    <path class="cls-37" d="M45.763,21.179l8.667,1.227-8.667-1.227Z"/>
    <line class="cls-37" x1="58.097" y1="14.345" x2="50.347" y2="8.073"/>
  </g>
  <g>
    <g>
      <polygon class="cls-6" points="277.502 103.067 274.921 88.55 256.532 76.613 252.338 101.454 278.503 117.774 277.502 103.067"/>
      <path class="cls-27" d="M208.277,116.464l44.061-15.01,24.841,19.679,8.912-9.578,20.542,6.295,13.396,7.494,16.856,64.927-28.145,11.289-10.242,13.569-62.691,1.654-6.091-14.664c-1.583,1.028,1.873,5.743-1.627-.751-2.478-4.596-19.814-84.904-19.814-84.904Z"/>
      <path class="cls-29" d="M272.824,124.843v37.1l17.582,.968s-3.903-25.769-10.646-36.939l-6.936-1.129Z"/>
      <path class="cls-11" d="M268.953,120.004c.484-.645,4.878-7.218,4.878-7.218l5.93,4.638v8.549l-7.097,.807-3.71-6.775Z"/>
      <path class="cls-8" d="M297.504,40.05s12.259,34.318-13.227,55.933c-4.921,4.173-15.163-1.29-15.163-1.29,0,0-24.841-21.292-21.615-39.036,3.226-17.744,23.551-22.905,23.551-22.905,0,0,18.753-1.741,26.454,7.299Z"/>
      <path class="cls-45" d="M253.817,81.108l-13.738-25.476s-4.194-6.637,2.258-20.3c1.266-2.682,8.388-3.549,8.388-3.549,0,0,.45-8.425,7.462-11.699,0,0,8.339-3.933,19.036,.035,5.938,2.203,11.975,5.986,32.218,3.276,0,0-3.226,5.807-9.033,7.097,0,0,9.033,11.063,4.094,22.059,0,0-.868-9.598-6.997-12.501l1.661,6.42s-17.719-4.236-22.235-10.366l7.621,9.031s-21.61-.826-27.094-5.988c0,0,.374,7.704-3.853,12.951-1.265,1.57-.321,10.119-.321,10.119,0,0-5.93-14.852-5.641-4.123,.268,9.929,3.489,7.947,3.489,7.947l2.687,15.067Z"/>
      <polygon class="cls-5" points="245.899 103.648 252.985 97.623 273.831 112.786 268.146 128.876 245.899 103.648"/>
      <path class="cls-3" d="M286.091,111.556l-8.59-8.489c0,4.225-3.671,9.719-3.671,9.719l9.64,13.187,2.621-14.417Z"/>
    </g>
    <path class="cls-42" d="M296.758,56.789s-3.6-5.694-11.533-4.455c0,0-3.541,12.3,5.642,13.952,0,0-2.693,2.274-5.075,5.194"/>
    <path class="cls-42" d="M276.943,53.099s-4.971-2.018-8.846,1.142"/>
    <path class="cls-42" d="M286.222,79.753s-6.462,6.159-12.924,0"/>
    <path class="cls-41" d="M275.678,62.865s-5.172-3.906-7.531,.924"/>
    <path class="cls-41" d="M288.944,62.632s4.409-2.989,6.481,.783"/>
    <path class="cls-47" d="M240.222,105.581s9.332,8.938,16.575,25.384c1.967,4.466,36.916,5.864,38.628-.37,1.712-6.234-6.228-17.81-6.228-17.81l6.566,1.734s4.865,6.605,8.462,18.656c1.87,6.264,9.525,68.64,9.676,75.152v11.314l-88.538-.554v-17.453s30.015-9.06,23.101-69.775c-1.255-11.022-14.157-24.264-14.157-24.264l5.914-2.015Z"/>
    <polygon class="cls-25" points="283.661 141.731 329.416 145.851 329.416 204.254 285.147 192.538 283.661 141.731"/>
    <path class="cls-10" d="M329.416,145.851c.794-.652,30.297-2.314,49.211-3.316v56.973l-49.211,4.747v-58.403Z"/>
    <path class="cls-7" d="M288.807,183.522s15.002-7.74,17.085-6.997c2.082,.743-6.852,8.145-8.983,9.732s14.486,15.386,14.486,15.386c0,0-3.804,4.176-25.271-1.393-10.766-2.793-10.547-3.855-10.547-3.855l2.75-13.327s6.485,2.001,10.481,.454Z"/>
    <path class="cls-46" d="M278.327,183.068l-2.75,13.327-45.39-4.424s-8.784-21.104-17.591-36.896c-10.551-18.918-4.317-38.61-4.317-38.61,0,0,19.4-1.944,28.083,23.005,5.998,17.235,15.978,35.52,15.978,35.52l25.989,8.079Z"/>
    <polygon class="cls-9" points="283.661 141.731 354.584 137.516 378.628 140.074 378.639 142.721 329.416 145.851 283.661 141.731"/>
    <circle class="cls-4" cx="272.665" cy="192.006" r="2.195"/>
  </g>
  <rect class="cls-38" x=".5" y=".5" width="378.128" height="220.004"/>
</svg>