<?xml version="1.0" encoding="UTF-8"?>
<svg id="_レイヤー_1" data-name="レイヤー 1" xmlns="http://www.w3.org/2000/svg" width="191.629mm" height="60.745mm" viewBox="0 0 543.202 172.19">
  <defs>
    <style>
      .cls-1, .cls-2, .cls-3 {
        fill: #fff;
      }

      .cls-4 {
        fill: #00a199;
      }

      .cls-5 {
        fill: #182987;
      }

      .cls-6 {
        fill: #80bdc2;
      }

      .cls-2, .cls-3 {
        stroke: #80bdc2;
        stroke-miterlimit: 10;
        stroke-width: 4px;
      }

      .cls-3 {
        stroke-linecap: round;
      }
    </style>
  </defs>
  <rect class="cls-1" x="40.361" width="470.841" height="122.825" rx="24.676" ry="24.676"/>
  <g>
    <rect class="cls-6" x="67.559" y="30.453" width="81.294" height="63.296" rx="5.361" ry="5.361"/>
    <rect class="cls-1" x="72.614" y="44.609" width="70.98" height="43.882" rx="2.809" ry="2.809"/>
    <g>
      <rect class="cls-6" x="77.734" y="49.439" width="12.376" height="9.102" rx="1.787" ry="1.787"/>
      <rect class="cls-6" x="77.734" y="62.392" width="12.376" height="9.102" rx="1.787" ry="1.787"/>
      <rect class="cls-6" x="77.734" y="75.345" width="12.376" height="9.102" rx="1.787" ry="1.787"/>
    </g>
    <g>
      <rect class="cls-6" x="93.742" y="49.439" width="12.376" height="9.102" rx="1.787" ry="1.787"/>
      <rect class="cls-6" x="93.742" y="62.392" width="12.376" height="9.102" rx="1.787" ry="1.787"/>
      <rect class="cls-6" x="93.742" y="75.345" width="12.376" height="9.102" rx="1.787" ry="1.787"/>
    </g>
    <g>
      <rect class="cls-6" x="109.75" y="49.439" width="12.376" height="9.102" rx="1.787" ry="1.787"/>
      <rect class="cls-6" x="109.75" y="62.392" width="12.376" height="9.102" rx="1.787" ry="1.787"/>
      <rect class="cls-6" x="109.75" y="75.345" width="12.376" height="9.102" rx="1.787" ry="1.787"/>
    </g>
    <g>
      <rect class="cls-6" x="125.758" y="49.439" width="12.376" height="9.102" rx="1.787" ry="1.787"/>
      <rect class="cls-6" x="125.758" y="62.392" width="12.376" height="9.102" rx="1.787" ry="1.787"/>
      <rect class="cls-6" x="125.758" y="75.345" width="12.376" height="9.102" rx="1.787" ry="1.787"/>
    </g>
    <g>
      <circle class="cls-1" cx="134.923" cy="79.896" r="21.739"/>
      <circle class="cls-2" cx="134.923" cy="79.896" r="16.38"/>
      <polyline class="cls-3" points="135.048 69.412 135.048 80.938 142.732 85.387"/>
    </g>
    <g>
      <rect class="cls-1" x="80.697" y="24.474" width="13.044" height="15.07" rx="2.153" ry="2.153"/>
      <rect class="cls-6" x="85.096" y="26.437" width="4.247" height="11.144"/>
    </g>
    <g>
      <rect class="cls-1" x="121.878" y="24.474" width="13.044" height="15.07" rx="2.153" ry="2.153"/>
      <rect class="cls-6" x="126.277" y="26.437" width="4.247" height="11.144"/>
    </g>
  </g>
  <g>
    <path class="cls-4" d="m180.975,38.414c.311.172.532.301,1.33.774,1.329-1.634,2.305-3.139,3.457-5.418l2.704,1.72c.398.258.576.473.576.688,0,.43-.532.645-1.419.645-1.817,1.591-2.748,2.236-4.211,3.053,2.128,1.29,3.325,2.236,4.921,3.741l-2.793,2.752c-1.596-3.01-2.97-5.074-4.565-6.837v18.748h-3.458v-17.63c-1.729,1.677-3.103,2.838-5.983,4.988l-.798-1.032c4.033-3.87,9.485-11.395,12.189-16.856h-10.062l-1.729.344v-2.408l1.729.344h4.699v-6.794h3.28c.62,0,.931.172.931.559,0,.301-.133.473-.709.86v5.375h6.693c-1.906,3.956-4.034,7.353-6.782,10.792v1.591Zm16.8-11.868c-.089,8.256-1.285,16.425-2.926,19.995-2.305,5.633-5.452,9.202-10.55,11.997l-.842-1.204c7.27-5.848,10.195-14.362,10.505-30.787v-2.666h-4.344l-1.729.344v-2.408l1.729.344h19.814c-.178,9.589-.665,19.393-1.552,29.154-.354,3.439-.665,4.644-1.596,5.547-.976.903-1.773,1.161-3.812,1.161h-6.561v-1.806h4.212c1.684.086,2.659-.43,3.146-1.677.754-1.333,1.995-17.845,2.261-30.658h-7.757v2.666Z"/>
    <path class="cls-4" d="m271.095,26.503v2.494l-1.773-.344h-12.589l-1.772.344v-2.494l1.772.344h12.589l1.773-.344Zm-2.084-5.934v2.494l-1.772-.344h-8.467l-1.772.344v-2.494l1.772.344h8.467l1.772-.344Zm0,11.868v2.494l-1.772-.344h-8.422l-1.773.344v-2.494l1.773.344h8.422l1.772-.344Zm0,5.934v2.494l-1.772-.344h-8.422l-1.773.344v-2.494l1.773.344h8.422l1.772-.344Zm-8.776,19.178h-3.191v-12.9h11.968v12.427h-3.191v-1.677h-5.585v2.15Zm5.585-3.741v-7.568h-5.585v7.568h5.585Zm17.021-31.303c-3.635,6.622-6.383,9.632-12.633,13.932l-.754-1.032c4.876-4.644,8.91-10.621,10.993-16.426l3.546.645c.621.086,1.02.344,1.02.645,0,.387-.442.688-1.418.903,2.039,3.999,7.535,8.987,12.146,11.051-.976,1.677-1.108,1.978-1.95,3.784-4.832-2.967-8.334-7.267-10.904-13.373l-.045-.129Zm-11.791,19.307c4.3-2.709,8.688-6.708,11.791-10.75l2.217,1.763c.842.645.931.774.931,1.032,0,.387-.487.688-1.152.688h-.532c-4.565,4.472-7.846,6.579-12.633,8.256l-.621-.989Zm.267,15.522c7.89-2.752,15.824-7.568,20.967-12.771l2.305,2.064c.576.516.709.688.709.946,0,.473-.266.559-1.552.645-6.693,5.547-14.096,8.987-22.03,10.277l-.398-1.161Zm.887-8.514c5.318-2.666,10.683-6.536,14.716-10.621l2.306,1.806c.531.43.798.731.798.989,0,.43-.532.731-1.33.731h-.399c-5.718,4.386-9.84,6.536-15.647,8.169l-.442-1.075Z"/>
    <path class="cls-4" d="m369.947,46.154h8.244l1.773-.344v2.408l-1.773-.344h-8.244v6.837c.044,2.666-1.152,3.827-3.901,3.784h-5.983v-1.806h4.033c1.552,0,2.217-.645,2.217-2.15v-6.665h-25.355l-1.772.344v-2.408l1.772.344h25.355v-3.698h-23.006v-14.405h13.963v-3.655h-15.78l-1.729.344v-2.408l1.729.344h15.78v-3.483h3.236c.664,0,.975.172.975.559,0,.301-.133.473-.709.86v2.064h16.889l1.729-.344v2.408l-1.729-.344h-16.889v3.655h15.071v14.405h-5.896v3.698Zm-12.678-16.383h-10.328v4.472h10.328v-4.472Zm0,6.192h-10.328v4.773h10.328v-4.773Zm-9.22,13.373c3.59,1.075,5.585,2.064,8.156,4.042l-3.015,2.967c-1.817-2.279-3.369-3.827-6.028-5.934l.887-1.075Zm12.722-15.093h11.437v-4.472h-11.437v4.472Zm0,6.493h11.437v-4.773h-11.437v4.773Z"/>
    <path class="cls-4" d="m460.776,21.343v32.98c.044,2.494-1.152,3.569-3.989,3.569h-5.63v-1.806h3.945c1.33-.043,1.817-.559,1.861-1.935v-10.105h-11.48v13.115h-3.679v-13.115h-10.904c-.576,6.149-3.015,11.395-6.605,14.19l-.886-.946c3.679-5.934,4.3-10.32,4.433-30.615v-5.332h32.935Zm-29.3,13.76c-.089,2.924-.133,3.913-.399,7.224h10.728v-9.03h-10.284l-.044,1.806Zm10.328-3.526v-8.514h-10.151v3.612l-.133,4.902h10.284Zm3.679,0h11.48v-8.514h-11.48v8.514Zm11.48,10.75v-9.03h-11.48v9.03h11.48Z"/>
  </g>
  <g>
    <path class="cls-4" d="m194.284,80.688c-7.137,10.32-13.032,15.222-22.252,18.576l-.577-1.031c7.891-4.301,15.382-12.126,19.947-20.898l.089-.129h-17.421l-1.772.344v-2.666l1.772.344h20.08l-.133-6.063-.443-2.881,4.123.215c.709,0,1.107.301,1.107.731,0,.344-.177.602-.753,1.032l.177,6.966h9.841l1.773-.344v2.666l-1.773-.344h-9.796l.531,22.102v.688c0,.946-.442,1.935-1.107,2.58-.576.516-1.596.816-2.882.816h-7.27v-1.978h4.61c1.861-.043,2.482-.603,2.571-2.408l-.443-18.318Z"/>
    <path class="cls-4" d="m216.271,68.519c5.94,1.161,10.328,3.268,14.141,6.751l-3.635,3.569c-3.458-3.956-6.871-6.837-11.038-9.202l.532-1.118Zm35.107,6.364c-1.773,6.02-5.143,11.567-9.619,15.824-5.452,4.988-11.747,7.912-21.765,10.104-.311.688-.665.989-1.152.989-.443,0-.843-.344-1.108-.946l-1.596-3.826,2.35-.043c9.397-1.893,14.45-4.085,20.346-8.729,4.698-3.784,8.289-8.213,11.304-13.932l1.241.559Z"/>
    <path class="cls-4" d="m291.185,78.323c-1.418,13.717-11.702,22.833-27.659,24.467l-.311-1.419c12.898-3.096,21.1-10.664,22.961-21.07h-27.66l-1.95.387v-2.752l1.95.387h32.669Zm-2.748-10.32v2.752l-1.95-.387h-24.557l-1.951.387v-2.752l1.951.387h24.557l1.95-.387Z"/>
    <path class="cls-4" d="m320.709,103.521h-4.122v-22.445c-6.073,3.87-12.589,6.579-19.061,7.998l-.487-1.29c10.106-3.913,21.1-11.309,29.078-19.564l1.596-2.322,3.413,2.193c.443.301.709.645.709.989,0,.602-.487.903-1.685,1.032-3.723,3.483-6.427,5.805-9.441,8.084v25.326Z"/>
    <path class="cls-4" d="m338.62,68.519c5.939,1.161,10.328,3.268,14.141,6.751l-3.635,3.569c-3.458-3.956-6.871-6.837-11.038-9.202l.532-1.118Zm35.107,6.364c-1.773,6.02-5.143,11.567-9.619,15.824-5.452,4.988-11.747,7.912-21.765,10.104-.311.688-.665.989-1.152.989-.443,0-.843-.344-1.108-.946l-1.596-3.826,2.35-.043c9.396-1.893,14.45-4.085,20.346-8.729,4.698-3.784,8.289-8.213,11.304-13.932l1.241.559Z"/>
    <path class="cls-4" d="m399.836,100.941c.044,2.622-1.152,3.74-3.945,3.74h-6.915v-1.806h4.699c1.463,0,2.083-.559,2.083-2.021v-17.931h-16.091l-1.772.344v-2.408l1.772.344h39.008c-3.324,4.601-7.669,8.342-13.209,11.352l-.843-1.031c2.793-2.581,4.433-4.43,7.536-8.601h-12.323v18.018Zm-.487-25.843c2.482-1.849,4.211-3.311,7.713-6.493h-23.671l-1.773.344v-2.408l1.773.344h30.808c-3.901,3.956-7.314,6.278-13.432,9.288.754.473,1.419.903,2.97,2.064l-3.768,2.709c-3.413-3.483-6.737-6.063-11.835-9.116l.842-1.204c4.211,1.591,7.358,3.01,10.195,4.601l.178-.129Z"/>
    <path class="cls-4" d="m429.981,85.848c-1.64.301-1.906.301-5.187.774-.398.516-.665.731-.975.731-.267,0-.532-.258-.665-.559l-.931-3.01,2.659-.043.931-.043h.976l.089-.129c3.014-3.827,6.648-9.331,8.644-13.158l3.191,1.72c.311.172.443.387.443.645,0,.516-.354.774-1.33.86-4.255,5.203-6.472,7.74-8.821,9.976h.532c3.369-.129,4.389-.172,6.25-.258l.843-.086c-.399-1.118-.798-1.849-1.729-3.44l1.02-.559c2.35,1.634,4.256,4.042,5.364,6.837l-3.325,1.505c-.398-1.505-.576-2.15-.887-3.053-.487.129-1.02.215-1.551.344l-1.995.387h-.133v19.135h-3.413v-18.576Zm-7.757,14.663c1.285-4.214,1.95-7.481,2.305-11.524l3.502.99c.487.129.665.344.665.688,0,.43-.311.688-1.064.903-1.596,4.815-2.216,6.148-4.433,9.417l-.975-.474Zm.842-28.595c1.463.645,1.685.731,2.97,1.548,1.552-2.838,2.571-5.332,3.502-8.342l3.635,1.505c.399.172.621.43.621.731,0,.473-.355.731-1.419.946-2.039,2.795-3.28,4.3-5.009,6.02,1.64,1.032,1.817,1.204,3.059,2.494l-2.261,3.182c-1.861-2.967-3.28-4.73-5.718-7.138l.62-.946Zm13.52,17.071c1.862,1.978,3.724,5.418,4.699,8.471l-3.591,1.505c-.621-3.913-1.507-7.61-2.305-9.546l1.196-.43Zm25.089-15.609c-.177,8.084-1.063,22.231-1.596,26.188-.398,3.439-1.685,4.687-5.009,4.644h-7.535v-1.806h5.674c1.329.043,2.127-.345,2.57-1.333.621-.56,1.729-14.835,1.995-25.972h-11.835c-1.729,2.838-3.192,4.687-5.408,6.794l-1.063-.817c2.925-4.773,4.698-9.288,6.338-15.953l3.945.903c.443.129.798.473.798.817,0,.473-.398.774-1.285.989-1.33,3.311-1.773,4.343-2.394,5.547h14.805Zm-16.889,9.503c2.704,1.677,5.719,4.859,7.625,8.127l-3.68,2.408c-1.418-3.956-3.191-7.353-5.098-9.761l1.152-.774Z"/>
  </g>
  <g>
    <path class="cls-5" d="m11.199,165.054c.256.128.416.32.416.512,0,.416-.32.544-1.376.544-2.496,1.152-4.928,1.856-8.607,2.496l-.352-.832c3.392-1.216,5.6-2.368,7.743-4l2.176,1.28Zm6.911-4.096c1.568-.032,4.032-.096,7.424-.225-.8-.768-1.408-1.279-2.72-2.271l.672-.768c3.68,1.728,4.704,2.399,7.071,4.384l-1.952,2.079c-.896-1.151-1.375-1.695-2.079-2.432-.704.097-2.272.288-3.424.416l-2.24.225-3.743.256v6.303h-2.561v-6.111l-1.312.097-1.312.063c-.544.064-1.473.096-2.561.128l-5.631.16c-.225.416-.385.544-.608.544-.256,0-.448-.224-.608-.736l-.575-1.951c1.888.031,2.432.031,3.999.031,2.017,0,3.168,0,6.656-.063l1.248-.032.352-.352c2.271-2.08,4-4,5.312-5.855l2.176,1.151c.256.128.384.288.384.48,0,.352-.288.512-1.184.575-1.855,1.601-3.104,2.528-5.184,3.968l2.399-.063Zm-1.695-16.319v5.216h-5.28v2.784h4.288l1.216-.256v1.792l-1.216-.257h-2.784l2.08.929c.192.096.384.319.384.447,0,.288-.319.448-1.088.513-.896.672-1.6,1.151-2.56,1.663.736.32,1.312.641,2.72,1.44l-1.952,1.728c-1.407-1.279-3.936-2.943-6.303-4.128l.416-.735c1.567.352,2.592.672,3.936,1.184.928-1.12,1.823-2.304,2.239-3.04H2.464v-13.118h13.119l1.248-.257v1.792l-1.248-.256h-4.448v2.56h5.28Zm-7.456-2.56h-4.191v2.56h4.191v-2.56Zm-4.191,6.496h9.344v-2.656H4.768v2.656Zm0,1.279v2.784h4.191v-2.784h-4.191Zm12.319,4.063c1.792-.96,3.743-2.527,5.247-4.224-1.376-1.823-2.432-4.575-2.815-7.551l-.032-.064h-.479l-1.28.256v-1.792l1.28.257h10.719c-1.216,3.647-2.592,6.271-4.64,8.735,1.472,1.151,2.976,1.951,5.632,2.911-.704,1.185-.768,1.376-1.28,2.496-2.527-1.088-4.352-2.271-5.855-3.808-1.472,1.312-3.487,2.496-6.111,3.584l-.384-.801Zm3.968,10.111c3.52.576,6.399,1.376,8.927,2.433l-1.983,2.144c-2.56-1.44-4.704-2.496-7.487-3.68l.544-.896Zm-.48-21.95c.544,2.24,1.632,4.448,3.008,6.016,1.376-2.016,2.24-3.744,2.976-6.016h-5.983Z"/>
    <path class="cls-5" d="m39.072,147.231c-.8.513-1.504.896-2.912,1.536l-.479-.768c3.839-3.008,5.983-5.248,8.063-8.512l2.879.384c.416.064.641.256.641.513,0,.352-.32.575-1.088.703-.256.32-.544.641-.832.992h11.903c-1.696,2.048-3.392,3.488-5.728,4.864h10.463v11.198h-21.822l-1.248.257v-1.792l1.248.256h19.198v-3.775h-19.198l-1.248.256v-1.792l1.248.256h19.198v-3.584h-19.007l-1.279.256v-1.248Zm1.823,13.184c-.416,3.424-1.023,5.407-2.271,7.327l-2.784-1.664c1.984-2.016,3.04-3.647,3.904-5.951l1.151.288Zm-.544-13.471h9.567c1.12-1.248,1.888-2.24,2.784-3.584h-8.575c-1.216,1.216-2.752,2.399-4.416,3.455l.64.129Zm5.696,12.671c.447,0,.672.128.672.416,0,.224-.097.319-.512.64v3.872c0,.735.575,1.056,1.951,1.088h6.496c.96,0,1.344-.353,1.439-1.28l.16-1.983,1.28.128-.192,2.56c-.128,2.144-1.056,3.008-3.168,2.976h-6.751c-2.784-.032-3.744-.672-3.776-2.56v-5.855h2.4Zm3.775-.704c1.536.672,2.815,1.567,4.256,2.943l-2.496,1.888c-.832-1.76-1.504-2.943-2.496-4.255l.736-.576Zm9.631,1.184c2.272,1.664,3.809,3.264,5.504,5.728l-2.88,1.696c-1.12-2.752-2.111-4.672-3.552-6.943l.928-.48Z"/>
    <path class="cls-5" d="m80.031,141.44v21.534h-6.111v3.488h-2.368v-25.022h8.479Zm-2.368,9.887v-8.607h-3.743v8.607h3.743Zm0,10.367v-9.087h-3.743v9.087h3.743Zm5.023-4.607l-1.248.256v-1.792l1.248.257h9.855v-4.544h-10.367l-1.28.256v-1.792l1.28.256h6.016v-4.863h-4.928l-1.28.256v-1.792l1.28.256h4.928v-3.968h2.464c.448,0,.672.128.672.416,0,.225-.096.32-.512.641v2.911h5.472l1.279-.256v1.792l-1.279-.256h-5.472v4.863h7.455l1.248-.256v1.792l-1.248-.256h-3.104v4.544h2.432l1.28-.257v1.792l-1.28-.256h-2.432v9.247c.032,1.792-.8,2.561-2.72,2.561h-4.544v-1.344h3.136c1.056,0,1.504-.448,1.504-1.504v-8.96h-9.855Zm1.376,1.729c2.336.991,3.744,1.919,5.472,3.615l-2.368,2.176c-.896-1.567-2.655-3.936-3.808-5.056l.704-.735Z"/>
    <path class="cls-5" d="m106.624,167.518c-.513-4-.704-7.008-.704-10.976,0-4.287.224-7.583.928-14.175v-1.664l2.688.448c.48.063.769.32.769.672,0,.256-.16.479-.641.8-.607,4.384-.991,9.6-.991,13.215,0,3.584.287,7.359.863,11.168l-2.911.512Zm16.479-19.071q-4.416.129-5.536.129c-1.472,0-2.432-.032-4.543-.097l-.225-2.08,1.92.608c1.888.064,3.328.096,4.288.096,1.12,0,2.464-.031,4.159-.096l-.096-4.863-.256-1.632,2.943.191c.32.032.576.256.576.544s-.16.544-.576.832l.097,4.768c1.439-.096,2.271-.191,4.063-.479l2.08-.96-.128,2.336c-1.696.256-4.192.512-5.984.607l.225,11.008c2.496.96,4.544,2.144,6.495,3.775l-1.76,2.368c-1.855-1.729-3.584-2.977-4.703-3.456v.191c.031,1.024-.225,2.145-.704,2.944-.832,1.439-2.944,2.336-5.472,2.336-2.432,0-4.768-.832-5.888-2.048-.736-.832-1.12-1.792-1.12-2.848,0-2.752,2.4-4.608,5.952-4.608,1.439,0,2.976.225,4.511.641l-.224-10.208h-.096Zm.384,12.512c-1.855-.8-3.296-1.12-4.991-1.12-2.4,0-3.937,1.024-3.937,2.656,0,.672.257,1.184.832,1.663.864.704,2.528,1.185,4.032,1.185,1.695,0,3.071-.544,3.584-1.408.287-.512.512-1.344.512-1.952v-.191l-.032-.832Z"/>
    <path class="cls-5" d="m153.439,166.142c.031,1.952-.832,2.783-2.849,2.783h-4.991v-1.344h3.392c1.056,0,1.504-.416,1.504-1.504v-13.343h-11.615l-1.279.256v-1.792l1.279.256h28.158c-2.399,3.424-5.535,6.208-9.535,8.448l-.608-.769c2.017-1.92,3.2-3.296,5.439-6.399h-8.895v13.407Zm-.353-19.23c1.792-1.376,3.04-2.464,5.567-4.832h-17.086l-1.28.256v-1.792l1.28.257h22.238c-2.816,2.943-5.28,4.671-9.695,6.911.544.352,1.023.672,2.144,1.536l-2.72,2.016c-2.464-2.592-4.863-4.512-8.544-6.783l.608-.896c3.04,1.184,5.312,2.24,7.359,3.424l.128-.096Z"/>
    <path class="cls-5" d="m177.601,154.91c-1.185.225-1.376.225-3.744.576-.288.384-.479.544-.704.544-.191,0-.384-.192-.479-.416l-.672-2.24,1.92-.031.672-.032h.703l.064-.096c2.176-2.849,4.8-6.944,6.239-9.792l2.304,1.28c.225.128.32.288.32.479,0,.385-.256.576-.96.641-3.071,3.871-4.672,5.76-6.367,7.423h.384c2.432-.096,3.168-.128,4.512-.191l.607-.064c-.287-.832-.575-1.376-1.247-2.56l.735-.416c1.696,1.216,3.072,3.008,3.872,5.088l-2.4,1.12c-.287-1.12-.416-1.601-.64-2.272-.352.096-.735.16-1.12.256l-1.439.288h-.096v14.239h-2.464v-13.823Zm-5.6,10.911c.928-3.136,1.407-5.567,1.663-8.575l2.528.736c.352.096.479.256.479.512,0,.32-.224.512-.768.672-1.152,3.584-1.6,4.575-3.2,7.008l-.703-.353Zm.607-21.278c1.056.48,1.216.544,2.144,1.152,1.12-2.112,1.856-3.968,2.528-6.208l2.624,1.12c.288.128.447.32.447.544,0,.352-.256.544-1.023.704-1.472,2.08-2.368,3.199-3.616,4.479,1.185.768,1.312.896,2.208,1.855l-1.632,2.368c-1.344-2.208-2.367-3.52-4.128-5.312l.448-.704Zm9.76,12.703c1.344,1.472,2.688,4.032,3.392,6.304l-2.592,1.12c-.448-2.912-1.088-5.664-1.664-7.104l.864-.32Zm18.11-11.615c-.128,6.016-.768,16.543-1.152,19.486-.287,2.561-1.216,3.488-3.615,3.456h-5.439v-1.344h4.096c.96.032,1.536-.256,1.855-.992.448-.416,1.248-11.039,1.44-19.326h-8.544c-1.248,2.111-2.304,3.487-3.903,5.056l-.769-.608c2.112-3.552,3.393-6.911,4.576-11.871l2.848.672c.32.096.576.353.576.608,0,.352-.288.576-.928.735-.96,2.464-1.28,3.232-1.729,4.128h10.688Zm-12.191,7.071c1.952,1.248,4.128,3.616,5.504,6.048l-2.656,1.792c-1.023-2.944-2.304-5.472-3.68-7.264l.832-.576Z"/>
    <path class="cls-5" d="m214.72,143.999l.384-1.312c.063-.225.191-.704.352-1.344l.256-1.633,2.816.544c.256.032.448.257.448.513,0,.224-.097.384-.576.704-.288.928-.576,1.791-.672,2.079-.097.288-.097.32-.128.448,1.76-.096,3.071-.224,5.343-.479l1.984-.992-.096,2.271c-2.656.353-5.312.576-7.744.672-2.432,7.231-4.64,12.191-7.711,17.375l-2.432-1.567c2.911-4.608,5.439-10.08,7.263-15.711h-1.247c-1.984,0-3.104-.032-5.408-.192l-.16-2.176,1.729.736c1.728.096,2.848.159,5.567.159l.032-.096Zm18.494,21.471c-2.048-2.016-4.607-3.872-5.919-4.32v2.656c0,1.088-.128,1.824-.448,2.399-.704,1.248-2.304,1.92-4.512,1.92-4.096,0-7.071-2.207-7.071-5.247,0-3.008,2.495-4.8,6.655-4.8.96,0,1.792.063,2.815.224v-4.352l-.096-2.367,2.528.031c.479,0,.768.192.768.513,0,.224-.128.352-.64.703v5.984c2.911.8,5.343,2.144,7.807,4.255l-1.888,2.4Zm-8.479-4.992c-1.151-.319-2.144-.447-3.327-.447-1.888,0-3.36.447-4,1.184-.384.448-.576.928-.576,1.472,0,1.888,2.176,3.264,5.12,3.264,1.888,0,2.783-.735,2.783-2.271v-3.2Zm8.96-9.983c-2.592-1.247-6.464-1.983-10.048-1.919l-.063-.896c1.823-.607,3.296-.832,5.632-.832,2.688,0,3.999.225,6.271,1.024l-1.792,2.623Z"/>
    <path class="cls-5" d="m246.592,140.512c.479.031.8.288.8.64,0,.288-.128.512-.512.864l-.288,10.335c-.032.416-.032.928-.032,1.632,0,2.688.096,4.928.256,6.271.16,1.504.736,2.656,1.632,3.487,1.056.929,2.72,1.473,4.416,1.473,3.424,0,6.656-1.729,8.64-4.64.8-1.152,1.312-2.208,2.016-4.128l.992.32c-.416,2.239-.929,3.743-1.792,5.312-2.048,3.552-5.76,5.663-10.081,5.663-2.751,0-5.439-.992-6.943-2.56-1.567-1.664-2.079-4.16-2.079-10.144,0-.928,0-1.888.031-2.848l.288-10.079-.191-1.76,2.848.16Z"/>
    <path class="cls-5" d="m272.737,143.359l22.847-.8,2.111-.769-.159,2.24c-2.752.128-4.704.512-6.848,1.408-4.768,1.983-7.296,5.375-7.296,9.759,0,2.784,1.056,5.023,3.136,6.495,1.792,1.312,3.296,1.824,6.592,2.177l-1.216,3.327c-3.647-.672-5.344-1.344-7.359-2.943-2.561-2.017-3.904-4.864-3.904-8.319,0-3.616,1.504-6.56,4.576-8.96,1.472-1.12,2.815-1.855,5.056-2.655.128-.032.16-.032.256-.097l-19.423.769-.224-2.208,1.855.576Zm19.167,5.023c1.76.8,2.783,1.92,3.52,3.808l-2.144,1.024c-.448-1.729-1.057-3.072-1.952-4.416l.576-.416Zm5.344,3.968c-.608-1.728-1.248-2.912-2.145-4l.513-.479c1.695.575,2.848,1.6,3.775,3.327l-2.144,1.152Z"/>
    <path class="cls-5" d="m316.127,145.087v1.856l-1.279-.257h-9.088l-1.279.257v-1.856l1.279.256h9.088l1.279-.256Zm-1.504-4.416v1.856l-1.279-.256h-6.112l-1.279.256v-1.856l1.279.257h6.112l1.279-.257Zm0,8.832v1.855l-1.279-.256h-6.08l-1.279.256v-1.855l1.279.256h6.08l1.279-.256Zm0,4.415v1.856l-1.279-.256h-6.08l-1.279.256v-1.856l1.279.257h6.08l1.279-.257Zm-6.335,14.271h-2.304v-9.6h8.639v9.247h-2.304v-1.247h-4.031v1.6Zm4.031-2.784v-5.631h-4.031v5.631h4.031Zm12.287-23.294c-2.624,4.928-4.607,7.167-9.119,10.367l-.544-.768c3.52-3.456,6.432-7.904,7.936-12.224l2.56.48c.448.063.736.256.736.479,0,.288-.32.512-1.024.672,1.472,2.976,5.439,6.688,8.768,8.224-.704,1.248-.8,1.472-1.408,2.815-3.487-2.208-6.016-5.407-7.871-9.951l-.032-.096Zm-8.511,14.367c3.104-2.017,6.271-4.992,8.511-8l1.6,1.312c.608.479.673.575.673.768,0,.288-.353.512-.832.512h-.385c-3.295,3.328-5.663,4.896-9.119,6.144l-.447-.735Zm.191,11.551c5.695-2.048,11.423-5.632,15.135-9.503l1.664,1.535c.416.385.512.513.512.704,0,.353-.191.416-1.119.48-4.832,4.128-10.176,6.688-15.903,7.647l-.288-.864Zm.64-6.336c3.84-1.983,7.712-4.863,10.624-7.903l1.663,1.345c.385.319.576.544.576.735,0,.32-.384.544-.96.544h-.288c-4.127,3.264-7.104,4.864-11.295,6.08l-.32-.801Z"/>
    <path class="cls-5" d="m366.655,142.591l1.28-.256v1.792l-1.28-.256h-20.67v3.84c-.032,7.231-.32,10.463-1.088,12.639-1.12,3.36-2.721,5.792-5.248,7.872l-.608-.736c2.688-3.071,4.225-7.455,4.448-12.447-.896.896-1.408,1.376-2.752,2.496-.128.672-.352,1.023-.64,1.023-.192,0-.384-.191-.48-.447l-.735-2.336c.416-.16.832-.288.96-.353.256-.096.96-.447,2.815-1.376l.896-.415c.032-1.248.097-4.832.097-5.92v-5.12h10.111v-3.104h2.655c.448,0,.672.128.672.448,0,.191-.096.319-.512.607v2.048h10.079Zm-26.91,2.528c1.312,1.376,2.112,2.655,3.072,4.831l-2.368,1.248c-.32-2.048-.735-3.647-1.472-5.663l.768-.416Zm5.184,22.303c2.368-1.473,3.872-2.816,5.536-4.864l2.048,1.12c.256.128.447.352.447.512,0,.384-.384.608-1.119.64-2.145,1.568-3.36,2.208-6.464,3.265l-.448-.672Zm4.96-14.815c-.832-1.023-1.536-1.664-2.527-2.399l.512-.672c1.312.384,2.176.768,3.455,1.567.704-.896,1.152-1.567,1.696-2.464h-4.768l-1.28.256v-1.792l1.28.256h5.472c.544-1.023.864-1.791,1.344-3.136l2.368.48c.288.063.479.224.479.448,0,.288-.256.479-.8.64-.479.896-.736,1.376-.832,1.567h9.439l1.28-.256v1.792l-1.28-.256h-6.527c.704,1.088,1.728,2.048,3.199,3.04.736-.769,1.312-1.44,2.112-2.528l1.855,1.344c.128.097.225.257.225.416,0,.257-.288.48-.641.48-.128,0-.288,0-.479-.032-.736.384-1.536.736-2.08.928,1.344.769,2.976,1.473,4.576,1.952-.641.96-.704,1.12-1.152,2.208-1.344-.576-2.016-.928-3.136-1.632v6.688h-5.728v5.247c.032,1.504-.672,2.176-2.304,2.176h-3.136v-1.344h1.855c.864-.031,1.152-.319,1.185-1.184v-4.896h-5.696v-6.72c-1.151.8-1.823,1.216-3.199,1.952l-.48-.736c1.536-1.12,2.592-2.08,3.776-3.327l-.064-.064Zm11.551.544c-1.472-1.248-2.207-2.271-3.231-4.512h-2.655c-1.12,1.76-2.336,3.231-3.712,4.512h9.599Zm0,3.487v-2.207h-9.375v2.207h9.375Zm0,3.584v-2.304h-9.375v2.304h9.375Zm-.191,2.592c3.168,1.024,4.575,1.664,6.367,2.944l-2.048,2.176c-1.567-1.696-2.815-2.848-4.928-4.416l.608-.704Z"/>
    <path class="cls-5" d="m387.232,157.502c-4.671,1.729-6.655,3.231-6.655,5.023,0,.736.416,1.408,1.088,1.76,1.408.673,3.744,1.024,7.136,1.024,2.56,0,4.831-.224,7.424-.704v2.88c-2.048.256-4.225.384-6.944.384-4.287,0-6.943-.416-8.767-1.344-1.345-.704-2.176-2.048-2.176-3.552,0-2.176,1.472-3.903,4.799-5.695.992-.544,2.145-1.056,4.096-1.824-.063-1.279-.128-1.695-.288-2.239-.319-1.12-.928-1.536-2.144-1.536-2.304,0-4.287.863-6.848,2.976l-2.815,3.68-2.016-1.76c3.231-4,5.439-7.136,7.455-10.56-2.783-.031-3.52-.063-6.783-.191l-.16-2.208,1.983.8c2.656.096,3.968.128,5.76.16.448-.8.832-1.6,1.76-3.456l.448-1.408,2.528.864c.447.16.672.353.672.608,0,.319-.16.447-1.024.735l-1.472,2.624h.128c4.256-.063,5.023-.096,8.928-.384l2.432-.96-.32,2.336c-4.031.352-6.111.448-10.271.479h-1.695c-1.632,2.816-2.368,3.968-3.552,5.728,2.08-1.184,3.647-1.632,5.6-1.632,1.312,0,2.624.48,3.296,1.216.607.641.896,1.568.991,3.136l.097-.031,4.224-1.408c.479-.16,1.567-.48,3.071-.928l1.344-.608,1.152,1.92c.16.32.224.448.224.608,0,.352-.256.575-.64.575-.256,0-.416-.031-.96-.159-4.191.96-6.304,1.504-8.479,2.176v5.439h-2.624v-4.544Z"/>
    <path class="cls-5" d="m409.857,155.103c-1.504,1.344-2.688,2.304-4.191,3.327l-.544-.8c3.104-3.136,5.535-6.399,8.063-10.783l2.239,1.472c.256.16.384.32.384.513,0,.447-.288.607-1.119.672-1.057,1.407-1.473,1.92-2.177,2.815v16.415h-2.655v-13.631Zm-4.352-8.224c2.624-1.952,5.312-4.704,7.199-7.392l2.24,1.696c.256.191.352.352.352.512,0,.192-.16.384-.384.448-.192.063-.32.096-.864.096-2.495,2.368-4.735,3.872-7.999,5.439l-.544-.8Zm24.094,18.847c.032,1.952-.863,2.784-2.911,2.784h-4.832v-1.345h3.488c.991,0,1.439-.447,1.439-1.472v-13.727h-9.151l-1.28.256v-1.792l1.28.256h15.646l1.28-.256v1.792l-1.28-.256h-3.68v13.759Zm-11.263-22.687v-1.855l1.279.256h12.031l1.28-.256v1.855l-1.28-.256h-12.031l-1.279.256Z"/>
    <path class="cls-5" d="m452.224,159.774c-1.023,4.607-2.592,7.167-4.384,7.167-1.823,0-3.552-1.76-4.928-5.088-1.088-2.56-1.695-5.855-1.92-10.079,0-.288-.031-2.496-.063-6.623l-.16-1.92,2.88.191c.48.032.8.256.8.576s-.16.512-.704.896v2.048c0,6.367.608,10.879,1.792,13.694.896,2.048,2.048,3.552,2.784,3.552.768,0,1.76-1.952,2.496-4.863l1.407.448Zm12.031,1.184c-1.216-6.688-3.104-11.647-5.92-15.711l.801-.608c3.968,2.977,7.135,8.735,8.191,14.943l-3.072,1.376Z"/>
    <path class="cls-5" d="m487.393,158.43c4.127,1.057,7.263,2.656,10.367,5.28l-2.017,2.432c-2.623-2.528-4.671-3.84-8.319-5.312v.704c0,1.567-.224,3.455-.479,4.063-.608,1.439-2.784,2.368-5.536,2.368-4.671,0-7.807-2.08-7.807-5.185,0-1.567.863-2.976,2.239-3.743,1.408-.768,3.52-1.184,6.016-1.184.896,0,1.536.031,2.784.159l-.128-5.312c-2.592.032-4,.032-4.256.032-2.496,0-4.192-.063-6.624-.288l-.191-2.176,2.144.832c2.784.128,3.936.16,5.888.16.832,0,1.76,0,3.04-.032l-.128-5.119c-2.592.031-3.968.031-4.128.031-2.624,0-5.184-.096-7.52-.288l-.16-2.111,2.336.8c3.136.064,5.567.128,7.136.128.8,0,1.504,0,2.336-.032l-.064-3.104-.288-1.632,2.688.16c.608.032.96.256.96.576,0,.288-.191.575-.607.928l.032,2.976.896-.032c3.647-.128,5.12-.256,8.191-.64l2.016-.96-.128,2.271c-1.632.353-5.6.672-10.815.864h-.128l.097,5.088c3.487-.128,5.983-.32,7.839-.512l2.145-1.057-.097,2.304c-1.6.32-3.071.448-7.679.641l-2.177.128.129,5.791Zm-2.721,1.696c-1.344-.256-2.271-.352-3.392-.352-1.888,0-3.487.287-4.575.863-.832.416-1.312,1.185-1.312,2.048,0,1.824,2.24,3.104,5.344,3.104,1.664,0,3.136-.512,3.52-1.216.257-.447.48-2.111.416-3.008-.031-.128,0-.256.032-.384l-.032-1.056Z"/>
    <path class="cls-5" d="m523.489,144.287c2.527-.064,4.543-.192,7.615-.448l1.888-.768-.096,2.144c-1.632.256-4.448.416-9.504.544h-.416v11.424c0,4.479-1.151,7.071-4.063,9.15-1.92,1.345-4.479,2.112-7.711,2.336l-.192-.991c5.344-.864,8.415-3.584,9.184-8.063-1.12,1.056-2.56,1.632-4.128,1.632-1.664,0-3.296-.704-4.416-1.856-.896-.96-1.344-2.239-1.344-3.808,0-3.615,2.72-6.399,6.271-6.399,1.44,0,2.656.48,3.744,1.504v-4.863l-1.088.031c-3.04.064-4.063.097-5.504.097-4,0-7.775-.097-9.439-.256l-.128-2.017,1.76.672c1.473.032,6.592.129,8,.129,1.12,0,2.144-.032,5.344-.097l1.056-.032v-2.623l-.256-1.984,2.911.225c.385.031.641.256.641.544s-.16.479-.641.8v2.976h.513Zm-3.168,8.287c-.704-1.088-1.984-1.76-3.296-1.76-2.271,0-3.968,1.952-3.968,4.576,0,2.495,1.504,4.224,3.647,4.224,1.408,0,2.656-.736,3.616-2.08v-4.96Z"/>
    <path class="cls-5" d="m542.177,163.901c0,2.752-2.239,5.023-4.991,5.023-2.784,0-5.023-2.239-5.023-5.055,0-2.752,2.271-4.96,5.087-4.96,2.656,0,4.928,2.304,4.928,4.991Zm-8.543,0c0,1.952,1.6,3.552,3.552,3.552s3.52-1.6,3.52-3.583c0-1.92-1.6-3.488-3.584-3.488-1.888,0-3.487,1.632-3.487,3.52Z"/>
  </g>
</svg>