<?xml version="1.0" encoding="UTF-8"?>
<svg id="_レイヤー_1" data-name="レイヤー 1" xmlns="http://www.w3.org/2000/svg" width="169.951mm" height="59.69mm" viewBox="0 0 481.752 169.201">
  <defs>
    <style>
      .cls-1, .cls-2, .cls-3 {
        fill: #e89fb6;
      }

      .cls-4 {
        fill: #fff;
      }

      .cls-5 {
        fill: #e4657d;
      }

      .cls-2, .cls-3 {
        stroke: #fff;
        stroke-miterlimit: 10;
        stroke-width: 3.047px;
      }

      .cls-3 {
        stroke-linecap: round;
      }
    </style>
  </defs>
  <rect class="cls-1" width="470.841" height="122.825" rx="24.676" ry="24.676"/>
  <g>
    <rect class="cls-4" x="32.648" y="29.765" width="81.294" height="63.296" rx="5.361" ry="5.361"/>
    <rect class="cls-1" x="37.704" y="43.92" width="70.98" height="43.882" rx="2.809" ry="2.809"/>
    <g>
      <rect class="cls-4" x="42.823" y="48.75" width="12.376" height="9.102" rx="1.787" ry="1.787"/>
      <rect class="cls-4" x="42.823" y="61.703" width="12.376" height="9.102" rx="1.787" ry="1.787"/>
      <rect class="cls-4" x="42.823" y="74.656" width="12.376" height="9.102" rx="1.787" ry="1.787"/>
    </g>
    <g>
      <rect class="cls-4" x="58.832" y="48.75" width="12.376" height="9.102" rx="1.787" ry="1.787"/>
      <rect class="cls-4" x="58.832" y="61.703" width="12.376" height="9.102" rx="1.787" ry="1.787"/>
      <rect class="cls-4" x="58.832" y="74.656" width="12.376" height="9.102" rx="1.787" ry="1.787"/>
    </g>
    <g>
      <rect class="cls-4" x="74.84" y="48.75" width="12.376" height="9.102" rx="1.787" ry="1.787"/>
      <rect class="cls-4" x="74.84" y="61.703" width="12.376" height="9.102" rx="1.787" ry="1.787"/>
      <rect class="cls-4" x="74.84" y="74.656" width="12.376" height="9.102" rx="1.787" ry="1.787"/>
    </g>
    <g>
      <rect class="cls-4" x="90.848" y="48.75" width="12.376" height="9.102" rx="1.787" ry="1.787"/>
      <rect class="cls-4" x="90.848" y="61.703" width="12.376" height="9.102" rx="1.787" ry="1.787"/>
      <rect class="cls-4" x="90.848" y="74.656" width="12.376" height="9.102" rx="1.787" ry="1.787"/>
    </g>
    <g>
      <circle class="cls-1" cx="100.013" cy="79.207" r="21.739"/>
      <circle class="cls-2" cx="100.013" cy="79.207" r="16.38"/>
      <polyline class="cls-3" points="100.138 68.723 100.138 80.25 107.822 84.699"/>
    </g>
    <g>
      <rect class="cls-1" x="45.787" y="23.786" width="13.044" height="15.07" rx="2.153" ry="2.153"/>
      <rect class="cls-4" x="50.186" y="25.748" width="4.247" height="11.144"/>
    </g>
    <g>
      <rect class="cls-1" x="86.968" y="23.786" width="13.044" height="15.07" rx="2.153" ry="2.153"/>
      <rect class="cls-4" x="91.367" y="25.748" width="4.247" height="11.144"/>
    </g>
  </g>
  <g>
    <path class="cls-4" d="m146.703,38.138c.295.169.505.295,1.263.758,1.263-1.6,2.189-3.073,3.284-5.304l2.568,1.684c.379.253.547.463.547.674,0,.421-.505.631-1.347.631-1.726,1.558-2.61,2.189-4,2.989,2.021,1.263,3.158,2.189,4.673,3.663l-2.652,2.694c-1.516-2.947-2.821-4.968-4.336-6.694v18.355h-3.284v-17.261c-1.642,1.642-2.947,2.778-5.683,4.884l-.758-1.011c3.831-3.789,9.009-11.156,11.577-16.503h-9.557l-1.642.337v-2.357l1.642.337h4.462v-6.651h3.116c.589,0,.884.168.884.547,0,.295-.126.463-.673.842v5.263h6.357c-1.811,3.873-3.831,7.199-6.441,10.566v1.558Zm15.956-11.619c-.084,8.083-1.221,16.082-2.778,19.576-2.189,5.515-5.178,9.009-10.02,11.746l-.8-1.18c6.904-5.725,9.683-14.061,9.977-30.143v-2.61h-4.125l-1.642.337v-2.357l1.642.337h18.818c-.168,9.388-.632,18.986-1.474,28.543-.337,3.368-.631,4.547-1.516,5.431-.926.885-1.684,1.137-3.621,1.137h-6.23v-1.768h4c1.6.084,2.526-.421,2.989-1.643.716-1.305,1.895-17.471,2.147-30.017h-7.367v2.61Z"/>
    <path class="cls-4" d="m231.874,26.477v2.441l-1.684-.337h-11.956l-1.684.337v-2.441l1.684.337h11.956l1.684-.337Zm-1.979-5.81v2.441l-1.684-.337h-8.041l-1.684.337v-2.441l1.684.337h8.041l1.684-.337Zm0,11.619v2.441l-1.684-.336h-7.999l-1.684.336v-2.441l1.684.337h7.999l1.684-.337Zm0,5.81v2.442l-1.684-.337h-7.999l-1.684.337v-2.442l1.684.337h7.999l1.684-.337Zm-8.336,18.776h-3.031v-12.63h11.367v12.167h-3.031v-1.642h-5.305v2.104Zm5.305-3.663v-7.409h-5.305v7.409h5.305Zm16.166-30.647c-3.452,6.483-6.062,9.43-11.998,13.64l-.716-1.01c4.631-4.547,8.462-10.398,10.44-16.082l3.368.632c.59.084.969.336.969.631,0,.379-.422.674-1.348.884,1.937,3.916,7.157,8.799,11.535,10.82-.926,1.642-1.053,1.937-1.853,3.704-4.589-2.904-7.914-7.114-10.356-13.093l-.042-.126Zm-11.198,18.902c4.084-2.652,8.252-6.567,11.198-10.524l2.105,1.726c.8.632.884.758.884,1.011,0,.379-.463.673-1.095.673h-.505c-4.336,4.379-7.452,6.441-11.998,8.083l-.59-.968Zm.253,15.197c7.493-2.694,15.029-7.409,19.912-12.503l2.189,2.021c.548.506.674.674.674.927,0,.463-.253.547-1.474.631-6.356,5.431-13.388,8.799-20.923,10.062l-.379-1.137Zm.842-8.335c5.052-2.61,10.146-6.399,13.977-10.398l2.189,1.768c.505.421.758.716.758.969,0,.421-.505.716-1.263.716h-.379c-5.431,4.294-9.347,6.398-14.861,7.999l-.421-1.053Z"/>
    <path class="cls-4" d="m325.339,45.716h7.831l1.684-.337v2.357l-1.684-.337h-7.831v6.694c.042,2.61-1.095,3.747-3.704,3.704h-5.684v-1.768h3.831c1.474,0,2.104-.632,2.104-2.105v-6.525h-24.08l-1.685.337v-2.357l1.685.337h24.08v-3.62h-21.849v-14.104h13.261v-3.578h-14.987l-1.642.337v-2.358l1.642.337h14.987v-3.41h3.073c.632,0,.926.169.926.548,0,.295-.126.463-.673.842v2.021h16.039l1.643-.337v2.358l-1.643-.337h-16.039v3.578h14.313v14.104h-5.6v3.62Zm-12.04-16.04h-9.809v4.379h9.809v-4.379Zm0,6.062h-9.809v4.673h9.809v-4.673Zm-8.757,13.093c3.41,1.053,5.305,2.021,7.746,3.957l-2.862,2.905c-1.727-2.231-3.199-3.747-5.726-5.81l.842-1.053Zm12.083-14.776h10.861v-4.379h-10.861v4.379Zm0,6.356h10.861v-4.673h-10.861v4.673Z"/>
    <path class="cls-4" d="m411.185,21.425v32.29c.042,2.441-1.095,3.494-3.789,3.494h-5.347v-1.769h3.747c1.263-.042,1.726-.547,1.768-1.895v-9.893h-10.903v12.84h-3.494v-12.84h-10.356c-.548,6.02-2.863,11.156-6.272,13.893l-.843-.927c3.494-5.81,4.084-10.104,4.21-29.975v-5.22h31.28Zm-27.828,13.472c-.084,2.862-.126,3.831-.379,7.072h10.188v-8.841h-9.768l-.042,1.769Zm9.81-3.452v-8.336h-9.641v3.536l-.127,4.8h9.768Zm3.494,0h10.903v-8.336h-10.903v8.336Zm10.903,10.524v-8.841h-10.903v8.841h10.903Z"/>
  </g>
  <g>
    <path class="cls-4" d="m158.445,82.285c-6.778,10.104-12.377,14.903-21.134,18.188l-.547-1.011c7.494-4.21,14.608-11.872,18.945-20.46l.084-.126h-16.545l-1.684.336v-2.609l1.684.337h19.071l-.126-5.937-.421-2.82,3.916.21c.673,0,1.052.295,1.052.716,0,.337-.168.59-.716,1.011l.168,6.82h9.346l1.684-.337v2.609l-1.684-.336h-9.304l.505,21.639v.674c0,.926-.421,1.895-1.052,2.525-.547.505-1.516.8-2.737.8h-6.904v-1.937h4.378c1.768-.042,2.358-.589,2.442-2.357l-.421-17.935Z"/>
    <path class="cls-4" d="m179.329,70.372c5.641,1.136,9.809,3.199,13.429,6.609l-3.452,3.494c-3.284-3.873-6.525-6.694-10.483-9.01l.505-1.094Zm33.342,6.23c-1.684,5.894-4.883,11.324-9.136,15.492-5.178,4.884-11.156,7.746-20.67,9.894-.294.673-.631.968-1.095.968-.421,0-.8-.337-1.052-.926l-1.516-3.747,2.231-.042c8.925-1.853,13.724-3.999,19.323-8.546,4.462-3.705,7.873-8.041,10.735-13.641l1.179.548Z"/>
    <path class="cls-4" d="m250.48,79.97c-1.348,13.43-11.114,22.355-26.271,23.955l-.294-1.39c12.251-3.031,20.039-10.44,21.807-20.629h-26.27l-1.852.379v-2.694l1.852.379h31.027Zm-2.61-10.104v2.694l-1.853-.379h-23.323l-1.852.379v-2.694l1.852.379h23.323l1.853-.379Z"/>
    <path class="cls-4" d="m278.521,104.641h-3.915v-21.977c-5.768,3.789-11.957,6.441-18.103,7.831l-.464-1.263c9.599-3.831,20.039-11.072,27.617-19.155l1.516-2.273,3.241,2.146c.422.295.674.632.674.969,0,.589-.463.884-1.6,1.011-3.536,3.409-6.104,5.683-8.967,7.914v24.797Z"/>
    <path class="cls-4" d="m295.531,70.372c5.641,1.136,9.809,3.199,13.43,6.609l-3.452,3.494c-3.284-3.873-6.525-6.694-10.482-9.01l.505-1.094Zm33.342,6.23c-1.684,5.894-4.883,11.324-9.135,15.492-5.179,4.884-11.156,7.746-20.671,9.894-.295.673-.632.968-1.095.968-.421,0-.8-.337-1.053-.926l-1.515-3.747,2.23-.042c8.925-1.853,13.725-3.999,19.324-8.546,4.462-3.705,7.872-8.041,10.734-13.641l1.179.548Z"/>
    <path class="cls-4" d="m353.673,102.115c.042,2.568-1.095,3.663-3.747,3.663h-6.567v-1.769h4.462c1.39,0,1.979-.548,1.979-1.979v-17.556h-15.281l-1.685.337v-2.357l1.685.337h37.047c-3.157,4.504-7.283,8.167-12.546,11.114l-.8-1.011c2.652-2.526,4.21-4.336,7.157-8.42h-11.703v17.64Zm-.464-25.302c2.357-1.81,4-3.241,7.325-6.356h-22.48l-1.684.337v-2.358l1.684.337h29.259c-3.705,3.873-6.946,6.146-12.756,9.094.716.463,1.347.884,2.82,2.021l-3.578,2.652c-3.242-3.41-6.399-5.936-11.24-8.925l.8-1.179c3.999,1.558,6.988,2.947,9.683,4.505l.168-.127Z"/>
    <path class="cls-4" d="m382.304,87.338c-1.559.294-1.811.294-4.926.758-.379.505-.632.715-.927.715-.252,0-.505-.252-.631-.547l-.885-2.947,2.526-.042.884-.042h.927l.084-.126c2.862-3.747,6.314-9.136,8.209-12.883l3.031,1.685c.295.168.421.379.421.631,0,.506-.337.758-1.263.843-4.042,5.094-6.146,7.577-8.378,9.767h.505c3.2-.126,4.168-.169,5.937-.253l.8-.084c-.379-1.095-.758-1.811-1.642-3.368l.968-.547c2.231,1.6,4.042,3.957,5.094,6.693l-3.157,1.474c-.379-1.474-.547-2.104-.842-2.989-.463.127-.969.211-1.474.337l-1.895.379h-.126v18.734h-3.241v-18.187Zm-7.368,14.355c1.222-4.126,1.853-7.325,2.189-11.282l3.326.968c.463.126.631.337.631.674,0,.421-.294.674-1.01.884-1.516,4.715-2.105,6.021-4.21,9.22l-.927-.463Zm.8-27.996c1.39.632,1.601.716,2.821,1.516,1.474-2.778,2.441-5.22,3.325-8.167l3.452,1.474c.379.168.59.421.59.716,0,.463-.337.715-1.348.926-1.937,2.736-3.115,4.21-4.757,5.894,1.558,1.011,1.727,1.179,2.905,2.442l-2.147,3.115c-1.769-2.905-3.115-4.631-5.431-6.988l.589-.927Zm12.841,16.714c1.768,1.937,3.536,5.304,4.462,8.293l-3.409,1.474c-.59-3.831-1.432-7.451-2.189-9.346l1.137-.421Zm23.828-15.282c-.169,7.914-1.011,21.765-1.516,25.638-.379,3.368-1.6,4.589-4.758,4.547h-7.156v-1.768h5.389c1.263.042,2.021-.337,2.441-1.306.59-.547,1.642-14.523,1.895-25.428h-11.24c-1.642,2.778-3.031,4.589-5.136,6.652l-1.011-.801c2.778-4.673,4.463-9.093,6.021-15.618l3.746.884c.421.127.758.463.758.8,0,.463-.379.758-1.221.969-1.263,3.241-1.684,4.252-2.273,5.431h14.062Zm-16.04,9.304c2.568,1.642,5.431,4.757,7.241,7.957l-3.494,2.357c-1.348-3.873-3.031-7.199-4.842-9.557l1.095-.758Z"/>
  </g>
  <g>
    <path class="cls-5" d="m13.258,162.733c.232.116.377.29.377.464,0,.378-.29.493-1.247.493-2.263,1.045-4.467,1.683-7.803,2.263l-.319-.754c3.075-1.103,5.076-2.146,7.02-3.626l1.972,1.16Zm6.266-3.713c1.421-.029,3.655-.087,6.729-.203-.725-.696-1.276-1.16-2.465-2.06l.609-.696c3.336,1.566,4.264,2.176,6.411,3.975l-1.77,1.885c-.812-1.044-1.247-1.537-1.885-2.204-.638.087-2.06.261-3.104.377l-2.03.203-3.394.232v5.714h-2.32v-5.54l-1.189.087-1.189.058c-.493.059-1.334.088-2.321.116l-5.105.146c-.203.377-.348.493-.551.493-.232,0-.406-.203-.551-.667l-.522-1.77c1.711.028,2.205.028,3.626.028,1.827,0,2.872,0,6.033-.058l1.131-.029.319-.318c2.06-1.886,3.626-3.626,4.815-5.309l1.972,1.044c.232.116.348.262.348.436,0,.318-.261.464-1.073.521-1.682,1.451-2.813,2.292-4.699,3.598l2.176-.059Zm-1.538-14.793v4.728h-4.786v2.523h3.887l1.102-.231v1.624l-1.102-.232h-2.524l1.886.842c.174.087.348.29.348.406,0,.261-.29.406-.986.464-.812.609-1.45,1.044-2.321,1.509.667.29,1.189.58,2.466,1.305l-1.77,1.566c-1.276-1.16-3.568-2.669-5.714-3.742l.377-.667c1.421.319,2.35.609,3.568,1.073.841-1.015,1.654-2.088,2.031-2.756H5.339v-11.893h11.893l1.131-.231v1.624l-1.131-.232h-4.032v2.321h4.786Zm-6.758-2.321h-3.8v2.321h3.8v-2.321Zm-3.8,5.889h8.47v-2.407H7.428v2.407Zm0,1.16v2.523h3.8v-2.523h-3.8Zm11.167,3.684c1.625-.87,3.394-2.291,4.757-3.828-1.248-1.653-2.205-4.148-2.553-6.846l-.029-.059h-.435l-1.16.232v-1.624l1.16.231h9.717c-1.102,3.307-2.35,5.686-4.206,7.919,1.334,1.044,2.698,1.77,5.105,2.64-.638,1.073-.696,1.247-1.16,2.263-2.292-.986-3.945-2.06-5.309-3.452-1.334,1.189-3.162,2.263-5.54,3.249l-.348-.726Zm3.597,9.167c3.191.521,5.802,1.247,8.093,2.204l-1.799,1.943c-2.32-1.305-4.264-2.263-6.788-3.336l.493-.812Zm-.435-19.899c.493,2.031,1.479,4.032,2.727,5.454,1.248-1.828,2.031-3.395,2.698-5.454h-5.424Z"/>
    <path class="cls-5" d="m37.066,146.576c-.725.464-1.363.812-2.64,1.392l-.435-.696c3.481-2.727,5.424-4.757,7.31-7.716l2.61.349c.377.058.58.231.58.464,0,.319-.29.522-.986.639-.232.29-.493.58-.754.898h10.791c-1.537,1.856-3.075,3.162-5.192,4.409h9.485v10.152h-19.783l-1.131.232v-1.624l1.131.231h17.404v-3.423h-17.404l-1.131.232v-1.625l1.131.232h17.404v-3.249h-17.23l-1.161.232v-1.131Zm1.653,11.95c-.377,3.104-.928,4.902-2.059,6.643l-2.524-1.508c1.798-1.828,2.756-3.307,3.539-5.396l1.044.261Zm-.493-12.212h8.673c1.015-1.131,1.711-2.03,2.523-3.249h-7.774c-1.102,1.103-2.494,2.176-4.003,3.133l.581.116Zm5.163,11.487c.406,0,.609.115.609.377,0,.203-.087.29-.464.58v3.51c0,.667.522.957,1.77.986h5.888c.87,0,1.218-.319,1.305-1.16l.145-1.799,1.161.116-.174,2.32c-.116,1.943-.957,2.727-2.872,2.698h-6.121c-2.523-.029-3.394-.609-3.423-2.321v-5.308h2.176Zm3.423-.639c1.392.609,2.553,1.422,3.858,2.669l-2.263,1.711c-.754-1.595-1.363-2.668-2.263-3.857l.667-.522Zm8.731,1.073c2.06,1.509,3.452,2.959,4.989,5.192l-2.611,1.537c-1.015-2.494-1.914-4.234-3.22-6.294l.841-.436Z"/>
    <path class="cls-5" d="m72.737,141.326v19.521h-5.541v3.162h-2.146v-22.684h7.687Zm-2.146,8.964v-7.804h-3.394v7.804h3.394Zm0,9.397v-8.237h-3.394v8.237h3.394Zm4.554-4.177l-1.131.232v-1.625l1.131.232h8.934v-4.119h-9.398l-1.16.232v-1.625l1.16.232h5.453v-4.409h-4.467l-1.161.232v-1.625l1.161.232h4.467v-3.597h2.233c.406,0,.609.116.609.377,0,.203-.087.29-.464.58v2.64h4.96l1.16-.232v1.625l-1.16-.232h-4.96v4.409h6.758l1.131-.232v1.625l-1.131-.232h-2.813v4.119h2.205l1.16-.232v1.625l-1.16-.232h-2.205v8.383c.029,1.625-.725,2.321-2.466,2.321h-4.119v-1.219h2.842c.958,0,1.363-.406,1.363-1.363v-8.122h-8.934Zm1.248,1.566c2.117.899,3.394,1.74,4.96,3.278l-2.146,1.972c-.812-1.421-2.408-3.567-3.452-4.583l.638-.667Z"/>
    <path class="cls-5" d="m95.385,164.966c-.464-3.626-.638-6.353-.638-9.949,0-3.887.203-6.874.841-12.85v-1.509l2.437.406c.435.058.696.29.696.609,0,.231-.145.435-.58.725-.551,3.975-.899,8.702-.899,11.98,0,3.248.261,6.671.783,10.123l-2.64.464Zm14.938-17.288q-4.003.116-5.018.116c-1.334,0-2.205-.029-4.119-.087l-.203-1.886,1.741.552c1.711.058,3.017.087,3.887.087,1.015,0,2.233-.029,3.771-.087l-.087-4.409-.232-1.479,2.669.174c.29.029.522.232.522.493s-.145.493-.522.754l.087,4.322c1.305-.087,2.06-.174,3.684-.435l1.886-.871-.116,2.118c-1.537.231-3.8.464-5.424.551l.203,9.979c2.263.87,4.119,1.943,5.889,3.423l-1.596,2.146c-1.682-1.566-3.249-2.697-4.264-3.133v.174c.029.929-.203,1.943-.638,2.669-.754,1.306-2.669,2.117-4.96,2.117-2.205,0-4.322-.754-5.337-1.856-.667-.754-1.015-1.624-1.015-2.581,0-2.495,2.176-4.178,5.396-4.178,1.305,0,2.697.203,4.09.581l-.203-9.254h-.087Zm.348,11.342c-1.683-.725-2.988-1.015-4.525-1.015-2.175,0-3.568.928-3.568,2.407,0,.609.232,1.073.754,1.508.783.639,2.292,1.074,3.655,1.074,1.538,0,2.785-.493,3.249-1.276.261-.465.464-1.219.464-1.77v-.175l-.029-.754Z"/>
    <path class="cls-5" d="m136.364,163.719c.029,1.77-.754,2.523-2.582,2.523h-4.525v-1.218h3.075c.957,0,1.363-.377,1.363-1.363v-12.097h-10.53l-1.16.232v-1.624l1.16.231h25.526c-2.175,3.104-5.018,5.628-8.644,7.658l-.551-.696c1.828-1.74,2.901-2.987,4.931-5.802h-8.064v12.154Zm-.319-17.434c1.625-1.247,2.755-2.233,5.047-4.38h-15.49l-1.161.232v-1.624l1.161.231h20.16c-2.553,2.669-4.786,4.235-8.789,6.266.493.319.928.609,1.943,1.393l-2.465,1.827c-2.234-2.35-4.409-4.09-7.745-6.149l.551-.812c2.755,1.073,4.815,2.031,6.671,3.104l.116-.088Z"/>
    <path class="cls-5" d="m156.807,153.537c-1.073.203-1.247.203-3.394.522-.261.348-.435.493-.638.493-.174,0-.348-.174-.435-.377l-.609-2.03,1.741-.029.609-.029h.638l.058-.087c1.973-2.582,4.351-6.295,5.656-8.876l2.088,1.16c.203.116.29.261.29.436,0,.348-.232.521-.87.58-2.785,3.51-4.235,5.221-5.772,6.729h.348c2.205-.087,2.872-.116,4.09-.174l.551-.059c-.261-.754-.522-1.247-1.131-2.32l.667-.377c1.537,1.102,2.785,2.727,3.51,4.611l-2.176,1.016c-.261-1.016-.377-1.45-.58-2.06-.319.087-.667.146-1.015.232l-1.305.261h-.087v12.908h-2.234v-12.531Zm-5.076,9.892c.841-2.843,1.276-5.047,1.508-7.773l2.292.667c.319.087.436.231.436.464,0,.29-.203.464-.696.609-1.044,3.249-1.451,4.147-2.901,6.353l-.638-.319Zm.551-19.29c.957.436,1.102.493,1.943,1.045,1.015-1.915,1.683-3.597,2.292-5.628l2.379,1.016c.261.116.406.29.406.493,0,.319-.232.493-.928.638-1.334,1.886-2.146,2.901-3.278,4.062,1.073.696,1.189.812,2.001,1.683l-1.479,2.146c-1.218-2.002-2.146-3.191-3.742-4.815l.406-.639Zm8.847,11.517c1.218,1.334,2.437,3.654,3.075,5.714l-2.35,1.016c-.406-2.64-.986-5.135-1.508-6.439l.783-.29Zm16.418-10.53c-.116,5.454-.696,14.997-1.044,17.666-.261,2.32-1.102,3.161-3.278,3.133h-4.931v-1.219h3.713c.87.029,1.393-.232,1.683-.899.406-.377,1.131-10.007,1.305-17.521h-7.745c-1.131,1.915-2.089,3.162-3.539,4.584l-.696-.552c1.915-3.22,3.075-6.266,4.148-10.762l2.582.609c.29.087.522.319.522.552,0,.318-.261.521-.841.667-.87,2.233-1.16,2.93-1.566,3.741h9.688Zm-11.052,6.411c1.77,1.131,3.742,3.277,4.989,5.482l-2.408,1.624c-.928-2.669-2.088-4.96-3.336-6.585l.754-.521Z"/>
    <path class="cls-5" d="m188.998,143.647l.348-1.189c.058-.203.174-.639.319-1.219l.232-1.479,2.553.493c.232.029.406.232.406.465,0,.202-.087.348-.522.638-.261.841-.522,1.624-.609,1.886-.087.261-.087.29-.116.406,1.596-.088,2.785-.203,4.844-.436l1.798-.899-.087,2.06c-2.407.319-4.815.522-7.02.609-2.205,6.556-4.206,11.052-6.991,15.751l-2.205-1.422c2.64-4.177,4.931-9.137,6.584-14.242h-1.131c-1.799,0-2.814-.029-4.902-.174l-.145-1.973,1.566.667c1.566.087,2.582.146,5.047.146l.029-.087Zm16.766,19.463c-1.856-1.827-4.177-3.51-5.366-3.916v2.408c0,.986-.116,1.653-.406,2.175-.638,1.132-2.088,1.741-4.09,1.741-3.713,0-6.411-2.002-6.411-4.758,0-2.727,2.262-4.351,6.033-4.351.87,0,1.625.058,2.553.203v-3.945l-.087-2.146,2.292.029c.435,0,.696.174.696.464,0,.203-.116.319-.58.639v5.424c2.639.726,4.844,1.943,7.078,3.858l-1.711,2.175Zm-7.687-4.524c-1.044-.29-1.943-.406-3.017-.406-1.711,0-3.046.406-3.626,1.073-.348.406-.522.841-.522,1.334,0,1.712,1.972,2.959,4.641,2.959,1.711,0,2.523-.667,2.523-2.06v-2.9Zm8.122-9.051c-2.35-1.131-5.859-1.798-9.108-1.74l-.058-.812c1.654-.551,2.988-.754,5.105-.754,2.437,0,3.626.203,5.686.929l-1.625,2.378Z"/>
    <path class="cls-5" d="m216.432,140.485c.435.029.726.261.726.58,0,.261-.116.464-.464.783l-.261,9.369c-.029.377-.029.841-.029,1.479,0,2.437.087,4.467.232,5.686.145,1.363.667,2.407,1.479,3.161.957.842,2.465,1.335,4.003,1.335,3.104,0,6.034-1.566,7.833-4.206.725-1.045,1.188-2.002,1.827-3.742l.898.29c-.376,2.03-.841,3.394-1.624,4.815-1.856,3.22-5.221,5.134-9.137,5.134-2.495,0-4.931-.899-6.294-2.32-1.421-1.509-1.885-3.771-1.885-9.195,0-.841,0-1.711.029-2.581l.261-9.138-.174-1.596,2.582.146Z"/>
    <path class="cls-5" d="m238.674,143.066l20.712-.725,1.914-.696-.146,2.03c-2.494.116-4.264.464-6.207,1.276-4.322,1.799-6.613,4.873-6.613,8.848,0,2.523.957,4.554,2.843,5.888,1.624,1.189,2.987,1.653,5.975,1.973l-1.102,3.017c-3.307-.608-4.845-1.218-6.672-2.668-2.32-1.828-3.539-4.409-3.539-7.542,0-3.278,1.363-5.946,4.148-8.122,1.334-1.016,2.553-1.683,4.583-2.407.116-.029.145-.029.231-.088l-17.606.696-.203-2.001,1.682.521Zm17.376,4.555c1.595.725,2.523,1.74,3.19,3.452l-1.943.928c-.406-1.566-.957-2.784-1.77-4.003l.522-.377Zm4.844,3.597c-.551-1.566-1.131-2.64-1.943-3.626l.464-.435c1.537.521,2.582,1.45,3.423,3.017l-1.943,1.044Z"/>
    <path class="cls-5" d="m276.55,144.632v1.683l-1.16-.231h-8.238l-1.16.231v-1.683l1.16.232h8.238l1.16-.232Zm-1.363-4.003v1.683l-1.16-.231h-5.54l-1.161.231v-1.683l1.161.232h5.54l1.16-.232Zm0,8.006v1.683l-1.16-.231h-5.512l-1.16.231v-1.683l1.16.232h5.512l1.16-.232Zm0,4.003v1.683l-1.16-.231h-5.512l-1.16.231v-1.683l1.16.232h5.512l1.16-.232Zm-5.743,12.938h-2.089v-8.702h7.832v8.383h-2.089v-1.131h-3.654v1.45Zm3.654-2.523v-5.105h-3.654v5.105h3.654Zm11.139-21.117c-2.378,4.467-4.177,6.498-8.267,9.398l-.493-.696c3.19-3.133,5.83-7.165,7.193-11.081l2.321.436c.406.058.667.232.667.435,0,.262-.29.465-.929.609,1.335,2.698,4.932,6.062,7.948,7.455-.638,1.131-.726,1.334-1.276,2.553-3.162-2.002-5.453-4.902-7.136-9.021l-.029-.087Zm-7.716,13.024c2.814-1.828,5.686-4.525,7.716-7.252l1.451,1.189c.551.435.608.521.608.696,0,.261-.318.464-.754.464h-.348c-2.988,3.017-5.135,4.438-8.268,5.569l-.406-.667Zm.175,10.472c5.163-1.856,10.355-5.105,13.72-8.615l1.509,1.392c.377.349.464.465.464.639,0,.319-.174.377-1.016.436-4.38,3.741-9.224,6.062-14.416,6.933l-.261-.783Zm.58-5.744c3.48-1.798,6.99-4.409,9.63-7.164l1.509,1.218c.348.29.521.493.521.667,0,.29-.348.493-.87.493h-.261c-3.742,2.959-6.439,4.409-10.239,5.512l-.29-.726Z"/>
    <path class="cls-5" d="m320.894,142.37l1.161-.232v1.624l-1.161-.231h-18.738v3.48c-.028,6.556-.29,9.485-.986,11.458-1.015,3.046-2.465,5.25-4.757,7.136l-.551-.667c2.437-2.785,3.828-6.759,4.031-11.284-.812.812-1.276,1.247-2.494,2.263-.116.609-.319.928-.58.928-.174,0-.349-.174-.436-.405l-.667-2.118c.377-.145.754-.261.87-.318.232-.088.87-.406,2.553-1.248l.812-.377c.028-1.131.087-4.38.087-5.366v-4.641h9.166v-2.814h2.407c.406,0,.609.116.609.406,0,.174-.087.29-.464.552v1.856h9.137Zm-24.395,2.291c1.189,1.247,1.915,2.407,2.785,4.38l-2.146,1.132c-.29-1.856-.668-3.307-1.335-5.135l.696-.377Zm4.699,20.218c2.146-1.334,3.51-2.553,5.019-4.409l1.856,1.016c.231.116.406.319.406.464,0,.349-.349.552-1.016.58-1.943,1.422-3.046,2.002-5.859,2.959l-.406-.609Zm4.496-13.43c-.754-.929-1.393-1.509-2.292-2.176l.465-.609c1.189.349,1.973.696,3.133,1.422.638-.812,1.044-1.422,1.537-2.234h-4.322l-1.16.232v-1.624l1.16.231h4.96c.493-.928.783-1.624,1.219-2.843l2.146.436c.261.058.435.203.435.406,0,.261-.231.435-.725.58-.436.812-.667,1.247-.754,1.421h8.557l1.16-.231v1.624l-1.16-.232h-5.917c.638.986,1.566,1.856,2.9,2.756.667-.696,1.189-1.305,1.914-2.291l1.683,1.218c.116.087.203.232.203.377,0,.232-.261.436-.58.436-.116,0-.261,0-.436-.029-.667.349-1.392.667-1.885.842,1.218.696,2.697,1.334,4.147,1.77-.58.87-.638,1.015-1.044,2.001-1.219-.522-1.827-.841-2.843-1.479v6.062h-5.192v4.757c.029,1.363-.609,1.973-2.088,1.973h-2.843v-1.218h1.682c.783-.029,1.045-.29,1.073-1.073v-4.438h-5.163v-6.092c-1.044.726-1.653,1.103-2.9,1.77l-.436-.667c1.393-1.015,2.35-1.886,3.423-3.017l-.058-.058Zm10.472.493c-1.335-1.132-2.002-2.06-2.93-4.091h-2.408c-1.015,1.596-2.117,2.93-3.364,4.091h8.702Zm0,3.161v-2.001h-8.499v2.001h8.499Zm0,3.249v-2.089h-8.499v2.089h8.499Zm-.174,2.35c2.871.928,4.147,1.509,5.772,2.669l-1.856,1.972c-1.422-1.537-2.553-2.581-4.468-4.003l.552-.638Z"/>
    <path class="cls-5" d="m338.089,155.887c-4.235,1.566-6.033,2.93-6.033,4.555,0,.667.377,1.276.986,1.595,1.275.609,3.394.929,6.468.929,2.321,0,4.38-.203,6.729-.639v2.611c-1.856.231-3.828.348-6.294.348-3.887,0-6.295-.377-7.948-1.218-1.218-.639-1.973-1.856-1.973-3.221,0-1.972,1.335-3.538,4.352-5.163.899-.493,1.943-.957,3.713-1.653-.059-1.16-.116-1.537-.261-2.03-.29-1.016-.842-1.393-1.944-1.393-2.088,0-3.887.783-6.207,2.698l-2.553,3.336-1.827-1.596c2.93-3.626,4.931-6.469,6.759-9.572-2.524-.029-3.191-.059-6.149-.174l-.146-2.002,1.799.726c2.407.087,3.597.115,5.221.145.406-.725.754-1.45,1.596-3.133l.406-1.276,2.291.783c.406.146.609.319.609.552,0,.29-.145.405-.928.667l-1.335,2.378h.116c3.858-.058,4.554-.087,8.093-.348l2.205-.87-.29,2.117c-3.655.319-5.541.406-9.312.436h-1.537c-1.479,2.553-2.146,3.597-3.22,5.192,1.885-1.073,3.307-1.479,5.076-1.479,1.188,0,2.378.435,2.987,1.103.551.58.812,1.421.899,2.842l.087-.028,3.829-1.276c.435-.146,1.421-.436,2.784-.842l1.219-.551,1.044,1.74c.146.29.203.406.203.552,0,.318-.232.521-.58.521-.232,0-.377-.028-.87-.145-3.8.87-5.715,1.363-7.687,1.973v4.931h-2.379v-4.119Z"/>
    <path class="cls-5" d="m357.14,153.711c-1.363,1.219-2.437,2.089-3.8,3.018l-.493-.726c2.813-2.843,5.019-5.802,7.31-9.775l2.031,1.334c.231.146.348.29.348.465,0,.406-.261.551-1.016.608-.957,1.276-1.334,1.741-1.972,2.553v14.881h-2.408v-12.357Zm-3.944-7.454c2.378-1.77,4.814-4.265,6.526-6.701l2.03,1.538c.232.174.319.318.319.464,0,.174-.146.348-.349.406-.174.058-.29.087-.783.087-2.263,2.146-4.293,3.51-7.251,4.931l-.493-.725Zm21.842,17.085c.029,1.77-.783,2.523-2.64,2.523h-4.38v-1.218h3.161c.899,0,1.306-.406,1.306-1.335v-12.443h-8.296l-1.16.231v-1.624l1.16.231h14.185l1.16-.231v1.624l-1.16-.231h-3.336v12.473Zm-10.21-20.566v-1.682l1.16.231h10.906l1.16-.231v1.682l-1.16-.231h-10.906l-1.16.231Z"/>
    <path class="cls-5" d="m394.088,157.947c-.928,4.177-2.35,6.498-3.974,6.498-1.653,0-3.22-1.596-4.467-4.612-.986-2.32-1.537-5.309-1.74-9.138,0-.261-.029-2.262-.059-6.004l-.145-1.74,2.61.174c.435.029.726.231.726.522s-.146.464-.639.812v1.856c0,5.772.551,9.862,1.624,12.415.812,1.856,1.856,3.22,2.524,3.22.695,0,1.595-1.77,2.262-4.409l1.276.406Zm10.907,1.073c-1.103-6.062-2.813-10.559-5.366-14.242l.725-.551c3.597,2.697,6.469,7.919,7.426,13.546l-2.784,1.247Z"/>
    <path class="cls-5" d="m424.509,156.729c3.742.957,6.585,2.407,9.398,4.786l-1.827,2.204c-2.379-2.291-4.235-3.48-7.542-4.815v.639c0,1.421-.203,3.133-.435,3.684-.552,1.306-2.524,2.146-5.019,2.146-4.235,0-7.078-1.886-7.078-4.699,0-1.421.783-2.697,2.031-3.394,1.276-.696,3.19-1.073,5.453-1.073.812,0,1.393.029,2.523.145l-.116-4.814c-2.35.028-3.626.028-3.857.028-2.263,0-3.8-.058-6.005-.261l-.174-1.973,1.943.755c2.523.115,3.567.145,5.337.145.755,0,1.596,0,2.756-.029l-.116-4.641c-2.35.029-3.597.029-3.741.029-2.379,0-4.699-.087-6.817-.262l-.145-1.914,2.117.725c2.843.059,5.048.116,6.469.116.726,0,1.363,0,2.117-.028l-.058-2.814-.261-1.479,2.437.145c.551.029.87.232.87.522,0,.261-.174.521-.552.841l.029,2.697.812-.028c3.307-.116,4.641-.232,7.426-.58l1.827-.87-.116,2.06c-1.479.318-5.076.608-9.804.783h-.116l.087,4.611c3.162-.116,5.424-.29,7.106-.464l1.943-.957-.087,2.088c-1.45.291-2.784.406-6.962.581l-1.972.115.115,5.251Zm-2.465,1.537c-1.219-.232-2.06-.319-3.075-.319-1.711,0-3.161.261-4.147.783-.755.377-1.189,1.073-1.189,1.856,0,1.653,2.03,2.813,4.844,2.813,1.509,0,2.843-.464,3.191-1.102.231-.406.435-1.915.377-2.727-.029-.116,0-.232.028-.349l-.028-.957Z"/>
    <path class="cls-5" d="m455.773,143.908c2.291-.059,4.119-.174,6.903-.406l1.712-.696-.087,1.943c-1.479.232-4.032.377-8.615.493h-.377v10.355c0,4.062-1.045,6.411-3.685,8.296-1.74,1.219-4.061,1.915-6.99,2.118l-.174-.899c4.844-.783,7.629-3.249,8.324-7.31-1.015.957-2.32,1.479-3.741,1.479-1.509,0-2.988-.639-4.003-1.683-.812-.87-1.219-2.03-1.219-3.452,0-3.277,2.466-5.802,5.686-5.802,1.306,0,2.407.436,3.394,1.363v-4.408l-.986.028c-2.755.059-3.684.087-4.989.087-3.625,0-7.048-.087-8.557-.231l-.116-1.828,1.596.609c1.334.029,5.976.116,7.252.116,1.015,0,1.943-.029,4.844-.087l.957-.029v-2.378l-.231-1.799,2.64.203c.348.029.58.232.58.493s-.146.435-.58.725v2.698h.464Zm-2.872,7.513c-.638-.986-1.798-1.596-2.987-1.596-2.06,0-3.597,1.77-3.597,4.148,0,2.263,1.363,3.829,3.307,3.829,1.276,0,2.407-.668,3.277-1.886v-4.496Z"/>
    <path class="cls-5" d="m476.766,161.689c0,2.494-2.03,4.554-4.524,4.554-2.524,0-4.555-2.03-4.555-4.583,0-2.494,2.06-4.496,4.612-4.496,2.407,0,4.467,2.089,4.467,4.525Zm-7.745,0c0,1.77,1.451,3.22,3.221,3.22s3.19-1.45,3.19-3.249c0-1.74-1.45-3.161-3.249-3.161-1.711,0-3.162,1.479-3.162,3.19Z"/>
  </g>
</svg>