<?xml version="1.0" encoding="UTF-8"?>
<svg id="_イヤー_1" data-name="レイヤー 1" xmlns="http://www.w3.org/2000/svg" width="68.797mm" height="6.188mm" viewBox="0 0 195.016 17.539">
  <defs>
    <style>
      .cls-1 {
        fill: #fff;
      }
    </style>
  </defs>
  <g>
    <rect class="cls-1" x="98.961" y="13.964" width="16.274" height="2.576"/>
    <polygon class="cls-1" points="31.948 14.604 31.948 9.487 36.783 9.487 36.783 7.335 31.948 7.335 31.948 2.486 38.272 2.486 38.272 .11 22.194 .11 22.194 2.486 28.516 2.486 28.516 7.335 23.678 7.335 23.678 9.487 28.516 9.487 28.516 14.604 21.556 14.604 21.556 16.967 38.906 16.967 38.906 14.604 31.948 14.604"/>
    <path class="cls-1" d="M5.355,3.566c-.398,4.209-2.598,8.065-5.355,9.766v3.871C5.936,13.739,6.981,6.219,7.044,3.566h-1.689Z"/>
    <path class="cls-1" d="M14.54,7.811c-.78-1.685-1.312-4.057-1.312-6.177C13.228,.322,11.731,.104,11.232,.104H7.145V2.571h3.651c.437,0,.407-.065,.407,.718,0,4.99,2.402,9.983,7.112,14.069v-5.022c-2.494-1.435-3.141-3.152-3.774-4.524Z"/>
    <path class="cls-1" d="M58.468,7.545h-5.742v-.578s2.953-2.421,3.527-2.868c1.31-1.031,1.184-3.989-1.531-3.989h-11.397V2.486h9.465c.279,0,.719,.02,.436,.426-.279,.406-2.121,2.872-2.121,2.872h-1.589v1.762h-8.237v2.153h8.237v4.696h-4.556v2.557h3.898c2.185,0,3.869-1.092,3.869-3.587v-3.666h5.742v-2.153Z"/>
    <path class="cls-1" d="M67.015,.104c0,4.852-2.558,6.303-5.025,7.271l.305,1.98c5.452-1.076,7.721-5.71,7.721-9.251h-3.001Z"/>
    <path class="cls-1" d="M75.305,3.99h-7.849V1.612h8.511c1.608,0,2.934,.515,2.934,2.174v2.401c0,2.98-1.767,6.522-4.43,8.364-3.658,2.525-8.431,2.783-10.422,2.198v-2.364c1.406,.211,3.997,.162,5.29-.233,3.463-1.054,5.545-4.141,5.966-6.341,.344-1.799,0-3.821,0-3.821Z"/>
    <path class="cls-1" d="M139.645,.104c0,4.852-2.56,6.303-5.023,7.271l.306,1.98c5.452-1.076,7.719-5.71,7.719-9.251h-3.001Z"/>
    <path class="cls-1" d="M147.936,3.99h-7.849V1.612h8.51c1.607,0,2.933,.515,2.933,2.174v2.401c0,2.98-1.766,6.522-4.428,8.364-3.66,2.525-8.432,2.783-10.421,2.198v-2.364c1.401,.211,3.991,.162,5.287-.233,3.462-1.054,5.546-4.141,5.968-6.341,.34-1.799,0-3.821,0-3.821Z"/>
    <path class="cls-1" d="M128.899,4.489h3.197v4.196c0,3.605-1.381,4.788-2.498,5.866-3.199,3.086-8.172,2.619-10.417,2.198v-2.122c1.402,.211,4.059,.231,5.356-.163,3.463-1.054,4.362-3.252,4.362-5.204,0-.714,0,.077,0-4.771Z"/>
    <rect class="cls-1" x="81.926" y=".09" width="3.232" height="9.265"/>
    <path class="cls-1" d="M96.223,8.901V.09h-3.227V8.745c0,3.636-3.144,5.395-5.203,5.395h-3.807v2.818h4.151c3.196,0,8.086-2.909,8.086-8.058Z"/>
    <rect class="cls-1" x="100.233" y="1.64" width="13.732" height="2.578"/>
    <rect class="cls-1" x="118.789" y="4.489" width="2.105" height="4.725"/>
    <rect class="cls-1" x="122.759" y="4.489" width="2.105" height="4.725"/>
  </g>
  <g>
    <path class="cls-1" d="M182.199,4.132l1.921,.901v-.416h8.436v-.87h-11.693l-.038,2.435-2.39,.003V1.322h6.728V.208h2.962V1.322h5.465c.788,0,1.427,.639,1.427,1.427h0v3.143h-.695v1.115h-3.692c-.128,.329-.219,.512-.402,.876h2.186c.974,0,1.763,.789,1.763,1.763v7.762l-9.87-.018V7.885h3.246c.165-.329,.255-.543,.364-.871l-3.793-.006v-.951h-.003c-.347,.711-.843,1.352-1.428,2.283v9.049h-2.426v-6.204c-.717,.851-1.328,1.272-1.901,1.619l.095-3.37c1.571-1.21,2.757-2.898,3.739-5.302Zm4.526,7.384h5.004v-1.272h-5.004v1.272Zm0,3.552h5.004v-1.444h-5.004v1.444Z"/>
    <g>
      <path class="cls-1" d="M168.314,5.82V3.394s2.99-.121,5.557-.969l-1.376-2.425c-3.07,1.131-6.61,1.048-6.61,1.048V5.599c0,4.56-.214,7.921-2.304,11.941h3.107c1.104-2.6,1.585-6.271,1.585-9.295h1.698v9.295h2.426V8.226h1.576v-2.426l-5.659,.02Z"/>
      <path class="cls-1" d="M164.503,13.472c-.688-.538-1.293-1.178-1.777-1.912h2.168c.098-.628,.169-1.261,.216-1.915v-.102h-3.349v-1.439h3.349v-1.728h-1.567V3.436h1.567V1.829h-3.284V.438h-2.63V1.829h-3.015v1.607h1.541v2.941h-1.541v1.728h3.176v1.439h-3.176v2.017h2.428c-.63,.961-1.454,1.778-2.428,2.386v2.685c1.192-.648,2.264-1.555,3.176-2.595v3.504h2.404v-3.747c.598,.714,1.273,1.355,2.006,1.915,.3-.756,.543-1.496,.735-2.236Zm-3.122-7.095h-1.495V3.436h1.495v2.941Z"/>
    </g>
  </g>
</svg>