<?xml version="1.0" encoding="UTF-8"?>
<svg id="_イヤー_1" data-name="レイヤー 1" xmlns="http://www.w3.org/2000/svg" width="169.028mm" height="56.797mm" xmlns:xlink="http://www.w3.org/1999/xlink" viewBox="0 0 479.134 161">
  <defs>
    <style>
      .cls-1, .cls-2, .cls-3, .cls-4, .cls-5, .cls-6, .cls-7, .cls-8 {
        fill: none;
      }

      .cls-9 {
        fill: url(#_称未設定グラデーション_67-3);
      }

      .cls-10 {
        fill: url(#_称未設定グラデーション_67-4);
      }

      .cls-11 {
        fill: url(#_称未設定グラデーション_67-2);
      }

      .cls-12 {
        fill: url(#_称未設定グラデーション_92-2);
      }

      .cls-2 {
        stroke-width: 1.5px;
      }

      .cls-2, .cls-4, .cls-5, .cls-6, .cls-7, .cls-8 {
        stroke-miterlimit: 10;
      }

      .cls-2, .cls-5, .cls-6 {
        stroke: #231815;
      }

      .cls-13 {
        fill: url(#_称未設定グラデーション_99);
      }

      .cls-14 {
        fill: url(#_称未設定グラデーション_67);
      }

      .cls-15 {
        fill: url(#_称未設定グラデーション_92);
      }

      .cls-16 {
        fill: #6a3906;
      }

      .cls-17 {
        fill: #b1dce0;
      }

      .cls-18 {
        fill: #b2dcd4;
      }

      .cls-19 {
        fill: #c30d23;
      }

      .cls-20 {
        fill: #d4ebe9;
      }

      .cls-21 {
        fill: #40210f;
      }

      .cls-22 {
        fill: url(#_称未設定グラデーション_306-2);
      }

      .cls-23 {
        fill: url(#_称未設定グラデーション_306-3);
      }

      .cls-24 {
        fill: url(#_称未設定グラデーション_377-2);
      }

      .cls-25 {
        fill: url(#_称未設定グラデーション_225-2);
      }

      .cls-26 {
        fill: url(#_称未設定グラデーション_224-2);
      }

      .cls-27 {
        fill: url(#_称未設定グラデーション_100-2);
      }

      .cls-28 {
        fill: url(#_称未設定グラデーション_100-3);
      }

      .cls-29 {
        fill: url(#_称未設定グラデーション_141-2);
      }

      .cls-30 {
        fill: url(#_称未設定グラデーション_149-3);
      }

      .cls-31 {
        fill: url(#_称未設定グラデーション_149-2);
      }

      .cls-32 {
        fill: url(#_称未設定グラデーション_196-2);
      }

      .cls-3 {
        stroke: #6a3906;
        stroke-linejoin: round;
        stroke-width: .777px;
      }

      .cls-4 {
        stroke: #f5ab28;
        stroke-width: 2px;
      }

      .cls-33 {
        fill: url(#_規グラデーションスウォッチ_10);
      }

      .cls-5 {
        stroke-width: 1.553px;
      }

      .cls-7 {
        stroke: #40210f;
      }

      .cls-8 {
        stroke: #fff;
      }

      .cls-34 {
        fill: url(#_規グラデーションスウォッチ_9);
      }

      .cls-35 {
        fill: url(#_規グラデーションスウォッチ_2);
      }

      .cls-36 {
        fill: url(#_称未設定グラデーション_196);
      }

      .cls-37 {
        fill: url(#_称未設定グラデーション_149);
      }

      .cls-38 {
        fill: url(#_称未設定グラデーション_141);
      }

      .cls-39 {
        fill: url(#_称未設定グラデーション_100);
      }

      .cls-40 {
        fill: url(#_称未設定グラデーション_282);
      }

      .cls-41 {
        fill: url(#_称未設定グラデーション_239);
      }

      .cls-42 {
        fill: url(#_称未設定グラデーション_225);
      }

      .cls-43 {
        fill: url(#_称未設定グラデーション_224);
      }

      .cls-44 {
        fill: url(#_称未設定グラデーション_230);
      }

      .cls-45 {
        fill: url(#_称未設定グラデーション_306);
      }

      .cls-46 {
        fill: url(#_称未設定グラデーション_377);
      }

      .cls-47 {
        fill: url(#_称未設定グラデーション_366);
      }

      .cls-48 {
        fill: url(#_規グラデーションスウォッチ_9-3);
      }

      .cls-49 {
        fill: url(#_規グラデーションスウォッチ_9-4);
      }

      .cls-50 {
        fill: url(#_規グラデーションスウォッチ_9-2);
      }

      .cls-51 {
        fill: url(#_規グラデーションスウォッチ_9-5);
      }
    </style>
    <linearGradient id="_規グラデーションスウォッチ_9" data-name="新規グラデーションスウォッチ 9" x1="37.137" y1="86.453" x2="37.137" y2="160.194" gradientTransform="matrix(1, 0, 0, 1, 0, 0)" gradientUnits="userSpaceOnUse">
      <stop offset="0" stop-color="#a3cea8"/>
      <stop offset=".18" stop-color="#7cc098"/>
      <stop offset=".455" stop-color="#47ae84"/>
      <stop offset=".693" stop-color="#20a175"/>
      <stop offset=".882" stop-color="#08986c"/>
      <stop offset="1" stop-color="#009669"/>
    </linearGradient>
    <linearGradient id="_規グラデーションスウォッチ_9-2" data-name="新規グラデーションスウォッチ 9" x1="201.49" y1="99.79" x2="201.49" y2="145.973" xlink:href="#_規グラデーションスウォッチ_9"/>
    <linearGradient id="_規グラデーションスウォッチ_10" data-name="新規グラデーションスウォッチ 10" x1="126.946" y1="110.723" x2="126.946" y2="160.194" gradientTransform="matrix(1, 0, 0, 1, 0, 0)" gradientUnits="userSpaceOnUse">
      <stop offset="0" stop-color="#d9e8ae"/>
      <stop offset="1" stop-color="#7dc280"/>
    </linearGradient>
    <linearGradient id="_称未設定グラデーション_377" data-name="名称未設定グラデーション 377" x1="208.076" y1="48.368" x2="208.076" y2="67.452" gradientTransform="matrix(1, 0, 0, 1, 0, 0)" gradientUnits="userSpaceOnUse">
      <stop offset="0" stop-color="#fff"/>
      <stop offset=".109" stop-color="#f5f7f7"/>
      <stop offset=".398" stop-color="#e2e7e8"/>
      <stop offset=".693" stop-color="#d6dedf"/>
      <stop offset="1" stop-color="#d3dbdd"/>
    </linearGradient>
    <linearGradient id="_称未設定グラデーション_377-2" data-name="名称未設定グラデーション 377" x1="2.041" y1="53.935" x2="25.938" y2="77.833" xlink:href="#_称未設定グラデーション_377"/>
    <linearGradient id="_規グラデーションスウォッチ_9-3" data-name="新規グラデーションスウォッチ 9" x1="221.323" y1="82.069" x2="221.323" y2="106.471" gradientTransform="translate(-.328 -62.707) rotate(18.5)" xlink:href="#_規グラデーションスウォッチ_9"/>
    <linearGradient id="_規グラデーションスウォッチ_9-4" data-name="新規グラデーションスウォッチ 9" x1="201.942" y1="84.869" x2="201.942" y2="104.787" gradientTransform="translate(-5.284 -45.416) rotate(14.827)" xlink:href="#_規グラデーションスウォッチ_9"/>
    <linearGradient id="_称未設定グラデーション_141" data-name="名称未設定グラデーション 141" x1="105.407" y1="82.867" x2="105.407" y2="107.063" gradientTransform="matrix(1, 0, 0, 1, 0, 0)" gradientUnits="userSpaceOnUse">
      <stop offset="0" stop-color="#ed7d4c"/>
      <stop offset=".382" stop-color="#f09873"/>
      <stop offset="1" stop-color="#f7c3af"/>
    </linearGradient>
    <linearGradient id="_称未設定グラデーション_149" data-name="名称未設定グラデーション 149" x1="117.449" y1="85.834" x2="117.449" y2="31.64" gradientTransform="matrix(1, 0, 0, 1, 0, 0)" gradientUnits="userSpaceOnUse">
      <stop offset="0" stop-color="#ed7d4c"/>
      <stop offset=".029" stop-color="#f0936f"/>
      <stop offset=".298" stop-color="#f2a687"/>
      <stop offset="1" stop-color="#fad7c3"/>
    </linearGradient>
    <linearGradient id="_称未設定グラデーション_196" data-name="名称未設定グラデーション 196" x1="155.751" y1="47.179" x2="155.751" y2="23.179" gradientTransform="matrix(1, 0, 0, 1, 0, 0)" gradientUnits="userSpaceOnUse">
      <stop offset="0" stop-color="#4e2813"/>
      <stop offset="1" stop-color="#ae513a"/>
    </linearGradient>
    <linearGradient id="_称未設定グラデーション_224" data-name="名称未設定グラデーション 224" x1="147.844" y1="45.575" x2="147.844" y2="26.218" gradientTransform="matrix(1, 0, 0, 1, 0, 0)" gradientUnits="userSpaceOnUse">
      <stop offset="0" stop-color="#653821"/>
      <stop offset="1" stop-color="#f09367"/>
    </linearGradient>
    <linearGradient id="_称未設定グラデーション_224-2" data-name="名称未設定グラデーション 224" x1="157.912" y1="47.179" x2="157.912" y2="24.963" xlink:href="#_称未設定グラデーション_224"/>
    <linearGradient id="_称未設定グラデーション_196-2" data-name="名称未設定グラデーション 196" x1="121.921" y1="72.762" x2="121.921" y2="24.963" xlink:href="#_称未設定グラデーション_196"/>
    <linearGradient id="_称未設定グラデーション_225" data-name="名称未設定グラデーション 225" x1="191.588" y1="43.679" x2="191.588" y2="17.387" gradientTransform="matrix(1, 0, 0, 1, 0, 0)" gradientUnits="userSpaceOnUse">
      <stop offset="0" stop-color="#ed7d4c"/>
      <stop offset="1" stop-color="#fad7c3"/>
    </linearGradient>
    <linearGradient id="_称未設定グラデーション_230" data-name="名称未設定グラデーション 230" x1="191.66" y1="18.775" x2="191.66" y2="31.647" gradientTransform="matrix(1, 0, 0, 1, 0, 0)" gradientUnits="userSpaceOnUse">
      <stop offset="0" stop-color="#ed7d4c"/>
      <stop offset="1" stop-color="#eaac93"/>
    </linearGradient>
    <linearGradient id="_称未設定グラデーション_225-2" data-name="名称未設定グラデーション 225" x1="70.652" y1="24.268" x2="83.222" y2="2.496" xlink:href="#_称未設定グラデーション_225"/>
    <linearGradient id="_称未設定グラデーション_239" data-name="名称未設定グラデーション 239" x1="78.851" y1="4.641" x2="84.343" y2="14.154" gradientTransform="matrix(1, 0, 0, 1, 0, 0)" gradientUnits="userSpaceOnUse">
      <stop offset="0" stop-color="#ed7d4c"/>
      <stop offset="1" stop-color="#ecb799"/>
    </linearGradient>
    <linearGradient id="_称未設定グラデーション_282" data-name="名称未設定グラデーション 282" x1="120.612" y1="160.638" x2="120.612" y2="30.369" gradientTransform="matrix(1, 0, 0, 1, 0, 0)" gradientUnits="userSpaceOnUse">
      <stop offset="0" stop-color="#e56e72"/>
      <stop offset=".266" stop-color="#e77b7b"/>
      <stop offset=".766" stop-color="#efa093"/>
      <stop offset="1" stop-color="#f4b4a0"/>
    </linearGradient>
    <linearGradient id="_称未設定グラデーション_306" data-name="名称未設定グラデーション 306" x1="103.469" y1="116.341" x2="103.469" y2="92.47" gradientTransform="matrix(1, 0, 0, 1, 0, 0)" gradientUnits="userSpaceOnUse">
      <stop offset="0" stop-color="#df1e44"/>
      <stop offset=".253" stop-color="#e23650"/>
      <stop offset=".785" stop-color="#eb746e"/>
      <stop offset="1" stop-color="#ef8f7c"/>
    </linearGradient>
    <linearGradient id="_称未設定グラデーション_306-2" data-name="名称未設定グラデーション 306" x1="178.335" y1="57.47" x2="178.335" y2="36.257" xlink:href="#_称未設定グラデーション_306"/>
    <linearGradient id="_称未設定グラデーション_306-3" data-name="名称未設定グラデーション 306" x1="76.251" y1="37.304" x2="76.251" y2="23.027" xlink:href="#_称未設定グラデーション_306"/>
    <linearGradient id="_称未設定グラデーション_366" data-name="名称未設定グラデーション 366" x1="34.439" y1="14.635" x2="38.871" y2="31.176" gradientTransform="matrix(1, 0, 0, 1, 0, 0)" gradientUnits="userSpaceOnUse">
      <stop offset="0" stop-color="#fcdd99"/>
      <stop offset=".028" stop-color="#ffe59b"/>
      <stop offset=".184" stop-color="#f6cf80"/>
      <stop offset=".406" stop-color="#edb560"/>
      <stop offset=".62" stop-color="#e6a249"/>
      <stop offset=".823" stop-color="#e2973b"/>
      <stop offset="1" stop-color="#e19437"/>
    </linearGradient>
    <linearGradient id="_称未設定グラデーション_141-2" data-name="名称未設定グラデーション 141" x1="333.779" y1="45.856" x2="333.779" y2="78.889" xlink:href="#_称未設定グラデーション_141"/>
    <linearGradient id="_称未設定グラデーション_67" data-name="名称未設定グラデーション 67" x1="339.526" y1="158.344" x2="339.526" y2="65.791" gradientTransform="matrix(1, 0, 0, 1, 0, 0)" gradientUnits="userSpaceOnUse">
      <stop offset="0" stop-color="#c7cebb"/>
      <stop offset="1" stop-color="#fff"/>
    </linearGradient>
    <linearGradient id="_称未設定グラデーション_92" data-name="名称未設定グラデーション 92" x1="346.775" y1="84.561" x2="346.775" y2="115.111" gradientTransform="matrix(1, 0, 0, 1, 0, 0)" gradientUnits="userSpaceOnUse">
      <stop offset="0" stop-color="#3166b0"/>
      <stop offset="1" stop-color="#383c8f"/>
    </linearGradient>
    <linearGradient id="_称未設定グラデーション_92-2" data-name="名称未設定グラデーション 92" x1="340.95" y1="86.115" x2="340.95" y2="74.885" xlink:href="#_称未設定グラデーション_92"/>
    <linearGradient id="_称未設定グラデーション_149-2" data-name="名称未設定グラデーション 149" x1="319.165" y1="36.605" x2="361.891" y2="36.605" xlink:href="#_称未設定グラデーション_149"/>
    <linearGradient id="_規グラデーションスウォッチ_2" data-name="新規グラデーションスウォッチ 2" x1="312.367" y1="24.977" x2="369.105" y2="24.977" gradientTransform="matrix(1, 0, 0, 1, 0, 0)" gradientUnits="userSpaceOnUse">
      <stop offset="0" stop-color="#6a3906"/>
      <stop offset="1" stop-color="#946134"/>
    </linearGradient>
    <linearGradient id="_称未設定グラデーション_67-2" data-name="名称未設定グラデーション 67" x1="329.32" y1="87.798" x2="329.32" y2="62.717" xlink:href="#_称未設定グラデーション_67"/>
    <linearGradient id="_称未設定グラデーション_67-3" data-name="名称未設定グラデーション 67" x1="345.448" y1="85.468" x2="345.448" y2="67.086" xlink:href="#_称未設定グラデーション_67"/>
    <linearGradient id="_規グラデーションスウォッチ_9-5" data-name="新規グラデーションスウォッチ 9" x1="337.159" y1="69.104" x2="337.159" y2="160.638" xlink:href="#_規グラデーションスウォッチ_9"/>
    <linearGradient id="_称未設定グラデーション_100" data-name="名称未設定グラデーション 100" x1="366.777" y1="148.289" x2="366.777" y2="98.114" gradientTransform="matrix(1, 0, 0, 1, 0, 0)" gradientUnits="userSpaceOnUse">
      <stop offset="0" stop-color="#d8d5ae"/>
      <stop offset=".62" stop-color="#f2efce"/>
      <stop offset="1" stop-color="#fffcde"/>
    </linearGradient>
    <linearGradient id="_称未設定グラデーション_100-2" data-name="名称未設定グラデーション 100" x1="385.136" y1="123.202" x2="437.129" y2="123.202" xlink:href="#_称未設定グラデーション_100"/>
    <linearGradient id="_称未設定グラデーション_149-3" data-name="名称未設定グラデーション 149" x1="251.973" y1="165.471" x2="251.973" y2="136.345" gradientTransform="translate(71.726 203.578) rotate(-43.794)" xlink:href="#_称未設定グラデーション_149"/>
    <linearGradient id="_称未設定グラデーション_99" data-name="名称未設定グラデーション 99" x1="315.295" y1="141.982" x2="315.295" y2="77.808" gradientTransform="matrix(1, 0, 0, 1, 0, 0)" gradientUnits="userSpaceOnUse">
      <stop offset="0" stop-color="#d9e9e3"/>
      <stop offset="1" stop-color="#fff"/>
    </linearGradient>
    <linearGradient id="_称未設定グラデーション_100-3" data-name="名称未設定グラデーション 100" x1="392.773" y1="101.42" x2="392.773" y2="94.732" xlink:href="#_称未設定グラデーション_100"/>
    <linearGradient id="_称未設定グラデーション_67-4" data-name="名称未設定グラデーション 67" x1="337.831" y1="138.46" x2="341.354" y2="138.46" xlink:href="#_称未設定グラデーション_67"/>
  </defs>
  <rect class="cls-17" x=".5" y=".5" width="478.134" height="160"/>
  <rect class="cls-18" x="239.634" y=".5" width="239" height="160"/>
  <path class="cls-20" d="M239.634,.5V97.726c15.432,8.219,33.045,12.884,51.75,12.884,60.843,0,110.172-49.285,110.248-110.11H239.634Z"/>
  <path class="cls-34" d="M46.25,86.46c-9.25-.344-8.5,12.594-8.5,12.594-.5-2.75-5.25-3.25-8.5-1.797-3.25,1.453-3.25,10.797-3.25,10.797-4-10-10.5-2-10.5-2-.5-12.75-4.75-18.75-10-19.5-2.107-.301-3.763,.166-5,.83v72.81H33.002c17.212-7.046,45.841-21.154,39.998-35.14-8.25-19.75-17.5-38.25-26.75-38.594Z"/>
  <path class="cls-50" d="M239.5,111.558c-2.913,.376-11.667,3.312-11.667,3.312-13.88-15.608-20.215-5.16-20.215-5.16l-6.607-8.291c-10.5-5.75-14.177,5.553-14.177,5.553-19.083-7.183-23.354,5.738-23.354,5.738l76.019,33.262v-34.415Z"/>
  <path class="cls-33" d="M239.5,160.194v-23.297c-19.52-12.575-50.26-24.901-96.5-26.093-79.959-2.061-117.783,35.964-128.608,49.39H239.5Z"/>
  <path class="cls-46" d="M226.001,67.452s-17.417-6.139-36.583-5.806c0,0,4.583-9.667,9.917-9.333s5.333,3,5.333,3c0,0,.667-7.75,7.167-6.875s4.5,5.625,4.5,5.625c0,0,4.405-1.236,6,1.25,1.667,2.598,.667,5-.5,6,0,0,7.167,1.279,4.167,6.139Z"/>
  <path class="cls-24" d="M27,57.137c-3.5-1.5-5.167,1.75-5.167,1.75-.167-2.083-.833-5.75-6.203-6.583-5.369-.833-7.631,5.667-7.631,5.667-2.838-2.62-5.454-2.951-7.5-2.494v19.131c15.801-5.272,35.262-6.598,35.262-6.598-.072-4.794-7.095-3.659-7.095-3.659,.833-1.62,1.833-5.713-1.667-7.213Z"/>
  <g>
    <rect class="cls-21" x="175.832" y="105.661" width="1.75" height="8.5" transform="translate(22.472 -29.793) rotate(10.288)"/>
    <path class="cls-48" d="M176.848,108.802c-2.516-.485-6.41-3.424-2.616-12.846,3.516-8.732,5.238-11.755,6.803-11.432,1.949,.402,3.125,5.703,2.918,13.894-.224,8.857-4.454,10.895-7.105,10.385Z"/>
  </g>
  <g>
    <rect class="cls-21" x="163.237" y="105.203" width="1.428" height="6.938" transform="translate(13.613 -18.167) rotate(6.616)"/>
    <path class="cls-49" d="M164.008,107.761c-2.075-.263-5.401-2.454-2.803-10.327,2.407-7.296,3.652-9.849,4.944-9.668,1.608,.226,2.843,4.482,3.103,11.165,.281,7.226-3.058,9.108-5.245,8.83Z"/>
  </g>
  <g>
    <path class="cls-38" d="M93.251,94.47s7.625,1.988,8-11.277c0,0,14.5-.735,14.5,0s-.875,12.36,2,13.36c0,0-6.625,10.875-16.625,10.5s-7.875-12.583-7.875-12.583Z"/>
    <path class="cls-37" d="M137.626,36.554s16,15.375,3.125,33.25c0,0,3,.375,2.375,2.5s1.625,3.25-9.125,4.125c0,0-15.25,13.75-34.5,8-1.439-.43-15.125-9-8.625-34.125s35-19.5,46.75-13.75Z"/>
    <circle class="cls-36" cx="155.751" cy="35.179" r="12"/>
    <path class="cls-43" d="M143.751,35.179c0,4.449,2.428,8.324,6.025,10.397,4.613-9.541,.826-16.557-1.987-19.357-2.472,2.198-4.038,5.393-4.038,8.961Z"/>
    <path class="cls-26" d="M157.001,24.963c2.036,12.033-3.139,19.758-4.657,21.718,1.081,.32,2.223,.498,3.407,.498,2.329,0,4.495-.674,6.336-1.822,5.008-14.356-5.086-20.394-5.086-20.394Z"/>
    <path class="cls-32" d="M135.501,38.804s-12.625,8.5-41.125,2c0,0,4.75-10.25,18.125-14.125s26.375-1.125,32.75,7.625,5.5,28.25-2.5,36.625c0,0-3.375-.875-8,1s-1.375,0-1.375,0l5.626-7.194s-3.501-13.806-3.501-25.931Z"/>
    <path class="cls-42" d="M179.876,37.304l6-5.875s-3.738-8.723,3.125-12.625c6.375-3.625,10.625,.5,12.875,3.5s1.894,9.995-1.5,12.875c-4.125,3.5-10.125,.892-10.125,.892l-5,7.608-5.375-6.375Z"/>
    <path class="cls-44" d="M191.335,30.804s3.167-.932,2.667-5.841c0,0,4.5-.034,4.625-1.784s-2.673-5.167-9.875-4.25c-3.438,.438-5.305,9.366-3.127,11.288,1.94,1.712,4.039,1.861,5.71,.587Z"/>
    <path class="cls-25" d="M73.168,25.72l.417-9.25s-7.083-3.417-3.667-10.5,12.25-6.417,15.167-1.167-.083,10.167-4.25,11c0,0-.167,11.167-.417,11.167s-7.25-1.25-7.25-1.25Z"/>
    <path class="cls-41" d="M79.251,8.887s-3.833-1.917-1.667-3.5,7.907,.336,8.407,1.669,.894,5.322-2.773,7.738-7.574-2.612-3.968-5.908Z"/>
    <path class="cls-40" d="M63.827,160.194s-8.993-32.89,2.841-53.057c0,0-4.167-29.833,2.667-74.167,0,0,8.667-4.827,13.833-1.33,0,0,5.97,31.498,7.333,62.83,.095,2.19,4.746,8.479,9.5,10.167,6.833,2.426,17.228-6.333,17.447-7.333s4.473,0,4.473,0c0,0,33.413-43.167,50.247-54.833,0,0,7.333,4.167,8.5,12.667,0,0-30.333,58-50.5,74.667,0,0-4.627,28.053-12.417,30.39-3.333,1-53.924,0-53.924,0Z"/>
    <path class="cls-45" d="M90.668,92.47s1.167,1.667,4.667,2c0,0-1.333,9.5,5.667,10.5s16.447-9.667,16.447-9.667c0,0,1.226,.667,4.473,1,0,0-.587,13.333-5.753,17.5-5.167,4.167-11.167,2.5-12.5,0s-2.667-7.027-2.667-7.027c0,0-4.667,4.361-10.333,4.361s-6.167-6.527-5.333-9.597,1.333-5.403,5.333-9.07Z"/>
    <path class="cls-22" d="M169.835,43.97c1.333,.833,7.167,3.333,10.333,13.5,0,0,6.333-8.5,6.167-9.333s1.833-3.167-1.167-7.167-6.167-5.833-8.333-4c-2.167,1.833-7,7-7,7Z"/>
    <path class="cls-23" d="M68.335,37.304s7.167-5,15.833-4.333l-.667-8.008s0-2.576-4.333-1.784c-4.333,.792-9.333,1.349-9.833,6.987s-1,7.138-1,7.138Z"/>
    <circle class="cls-16" cx="91.638" cy="126.575" r="2.863"/>
    <circle class="cls-16" cx="88.774" cy="140.325" r="2.863"/>
    <path class="cls-19" d="M103.085,65.887s6.917-3.083,11.917,2.25c0,0,1.417,2.333,0,4.083s-5.083,5.25-7.917,4.75-5.333-3.583-4-11.083Z"/>
    <circle class="cls-16" cx="96.638" cy="115.575" r="2.863"/>
    <g>
      <path class="cls-2" d="M98.001,50.72s2.833-4.083,6.25-3.167c3.417,.917,3.333,5.333,3.333,5.333"/>
      <path class="cls-2" d="M120.854,56.22s2.898-3.917,6.148-1.5c3.25,2.417,2.333,7.167,2.333,7.167"/>
      <path class="cls-6" d="M111.835,51.554c.083,.417,.5,5.462-3.667,6.356l1.005,3.06"/>
      <path class="cls-7" d="M129.001,46.304s4.833-1.051,4,3.85"/>
    </g>
  </g>
  <g>
    <circle class="cls-47" cx="36.655" cy="22.905" r="8.56"/>
    <line class="cls-4" x1="35.095" y1="2.179" x2="36.345" y2="10.512"/>
    <line class="cls-4" x1="45.595" y1="14.345" x2="53.428" y2="8.073"/>
    <line class="cls-4" x1="48.262" y1="22.405" x2="55.762" y2="22.405"/>
    <line class="cls-4" x1="47.095" y1="30.466" x2="55.762" y2="37.887"/>
    <line class="cls-4" x1="39.095" y1="35.179" x2="41.928" y2="44.362"/>
    <line class="cls-4" x1="30.928" y1="35.179" x2="28.095" y2="45.762"/>
    <line class="cls-4" x1="25.215" y1="30.466" x2="17.928" y2="36.179"/>
    <path class="cls-4" d="M15.762,21.179l8.667,1.227-8.667-1.227Z"/>
    <line class="cls-4" x1="28.095" y1="14.345" x2="20.345" y2="8.073"/>
  </g>
  <rect class="cls-1" x=".5" y=".194" width="239" height="160"/>
  <g>
    <polygon class="cls-29" points="343.474 67.086 341.403 55.435 326.646 45.856 323.28 65.791 344.278 78.889 343.474 67.086"/>
    <path class="cls-14" d="M287.921,77.837l35.359-12.045,19.935,15.793,7.152-7.686,16.486,5.052,10.751,6.014,13.527,52.104-22.586,9.059-8.219,10.889-50.31,1.327-4.888-11.768c-1.27,.825,1.503,4.609-1.306-.603-1.988-3.689-15.901-68.137-15.901-68.137Z"/>
    <path class="cls-15" d="M339.72,84.561v29.773l14.11,.777s-3.132-20.68-8.544-29.644l-5.566-.906Z"/>
    <path class="cls-12" d="M336.614,80.678c.388-.518,3.915-5.793,3.915-5.793l4.759,3.722v6.861l-5.696,.647-2.977-5.437Z"/>
    <path class="cls-31" d="M359.526,16.514s9.838,27.54-10.615,44.886c-3.949,3.349-12.168-1.036-12.168-1.036,0,0-19.935-17.087-17.346-31.327,2.589-14.239,18.9-18.382,18.9-18.382,0,0,15.049-1.397,21.23,5.858Z"/>
    <path class="cls-35" d="M324.467,49.463l-11.025-20.445s-3.366-5.326,1.812-16.291c1.016-2.152,6.731-2.848,6.731-2.848,0,0,.361-6.761,5.988-9.388l15.276,.028c5.727,2.682,9.61,4.804,25.855,2.629,0,0-2.589,4.66-7.249,5.696,0,0,7.249,8.878,3.285,17.702,0,0-.696-7.702-5.615-10.032l1.333,5.152s-14.22-3.4-17.844-8.319l6.116,7.248s-17.342-.663-21.743-4.805c0,0,.3,6.183-3.092,10.393-1.015,1.26-.258,8.121-.258,8.121,0,0-4.759-11.919-4.527-3.309,.215,7.968,2.8,6.377,2.8,6.377l2.157,12.092Z"/>
    <polygon class="cls-11" points="318.113 67.552 323.8 62.717 340.528 74.885 335.966 87.798 318.113 67.552"/>
    <path class="cls-9" d="M350.368,73.898l-6.893-6.812c0,3.39-2.946,7.799-2.946,7.799l7.736,10.582,2.104-11.569Z"/>
  </g>
  <path class="cls-3" d="M358.927,29.947s-2.889-4.57-9.255-3.575c0,0-2.842,9.871,4.528,11.197,0,0-2.161,1.825-4.073,4.168"/>
  <path class="cls-3" d="M343.026,26.986s-3.989-1.62-7.099,.917"/>
  <path class="cls-3" d="M350.473,48.376s-5.186,4.943-10.372,0"/>
  <path class="cls-5" d="M342.011,34.823s-4.15-3.134-6.044,.742"/>
  <path class="cls-5" d="M352.657,34.637s3.539-2.399,5.201,.628"/>
  <path class="cls-51" d="M313.557,69.104s7.489,7.173,13.302,20.371c1.578,3.584,29.625,4.706,30.999-.297s-4.998-14.292-4.998-14.292l5.269,1.392s3.904,5.301,6.791,14.972c1.501,5.027,7.644,55.084,7.765,60.31v9.079l-71.052-.444v-14.006s24.088-7.271,18.539-55.995c-1.007-8.845-11.361-19.472-11.361-19.472l4.746-1.617Z"/>
  <polygon class="cls-39" points="348.417 98.114 385.136 101.42 385.136 148.289 349.61 138.887 348.417 98.114"/>
  <path class="cls-27" d="M385.136,101.42c.94-.771,51.992-3.306,51.992-3.306v45.16l-51.992,5.015v-46.869Z"/>
  <path class="cls-30" d="M352.547,131.652s12.04-6.211,13.711-5.615-5.499,6.536-7.209,7.81,11.625,12.348,11.625,12.348c0,0-3.053,3.351-20.28-1.118-8.64-2.242-8.464-3.094-8.464-3.094l2.207-10.695s5.204,1.606,8.411,.364Z"/>
  <path class="cls-13" d="M344.136,131.287l-2.207,10.695-36.426-3.55s-7.049-16.936-14.117-29.61c-8.467-15.182-3.465-30.985-3.465-30.985,0,0,15.569-1.56,22.536,18.461,4.813,13.831,12.823,28.505,12.823,28.505l20.856,6.484Z"/>
  <polygon class="cls-28" points="348.417 98.114 405.334 94.732 437.129 98.114 385.136 101.42 348.417 98.114"/>
  <circle class="cls-10" cx="339.593" cy="138.46" r="1.762"/>
  <rect class="cls-8" x=".5" y=".5" width="478.134" height="160"/>
</svg>