<?xml version="1.0" encoding="UTF-8"?>
<svg id="_イヤー_1" data-name="レイヤー 1" xmlns="http://www.w3.org/2000/svg" width="145.242mm" height="97.13mm" xmlns:xlink="http://www.w3.org/1999/xlink" viewBox="0 0 411.711 275.329">
  <defs>
    <style>
      .cls-1 {
        fill: url(#_称未設定グラデーション_49-2);
      }

      .cls-2 {
        fill: url(#_称未設定グラデーション_11);
      }

      .cls-3 {
        fill: url(#_称未設定グラデーション_49);
      }

      .cls-4 {
        fill: url(#_称未設定グラデーション_138-2);
      }

      .cls-4, .cls-5, .cls-6 {
        stroke: #7e4f22;
        stroke-miterlimit: 10;
        stroke-width: 1.465px;
      }

      .cls-7 {
        fill: url(#_規グラデーションスウォッチ_4-2);
      }

      .cls-7, .cls-8, .cls-9, .cls-10, .cls-11 {
        opacity: .091;
      }

      .cls-12 {
        fill: #89c6cb;
      }

      .cls-13 {
        fill: #ae373e;
      }

      .cls-14 {
        fill: url(#_規グラデーションスウォッチ_4-37);
      }

      .cls-14, .cls-15, .cls-16, .cls-17, .cls-18 {
        opacity: 0;
      }

      .cls-15 {
        fill: url(#_規グラデーションスウォッチ_4-49);
      }

      .cls-16 {
        fill: url(#_規グラデーションスウォッチ_4-25);
      }

      .cls-17 {
        fill: url(#_規グラデーションスウォッチ_4-13);
      }

      .cls-19 {
        fill: url(#_規グラデーションスウォッチ_4-58);
      }

      .cls-19, .cls-20, .cls-21, .cls-22, .cls-23 {
        opacity: .818;
      }

      .cls-20 {
        fill: url(#_規グラデーションスウォッチ_4-46);
      }

      .cls-21 {
        fill: url(#_規グラデーションスウォッチ_4-34);
      }

      .cls-22 {
        fill: url(#_規グラデーションスウォッチ_4-22);
      }

      .cls-23 {
        fill: url(#_規グラデーションスウォッチ_4-10);
      }

      .cls-24 {
        fill: url(#_規グラデーションスウォッチ_4-35);
      }

      .cls-24, .cls-25, .cls-26, .cls-27, .cls-28 {
        opacity: .909;
      }

      .cls-25 {
        fill: url(#_規グラデーションスウォッチ_4-47);
      }

      .cls-26 {
        fill: url(#_規グラデーションスウォッチ_4-59);
      }

      .cls-27 {
        fill: url(#_規グラデーションスウォッチ_4-23);
      }

      .cls-28 {
        fill: url(#_規グラデーションスウォッチ_4-11);
      }

      .cls-29 {
        fill: url(#_規グラデーションスウォッチ_4-45);
      }

      .cls-29, .cls-30, .cls-31, .cls-32, .cls-33 {
        opacity: .727;
      }

      .cls-30 {
        fill: url(#_規グラデーションスウォッチ_4-33);
      }

      .cls-31 {
        fill: url(#_規グラデーションスウォッチ_4-57);
      }

      .cls-32 {
        fill: url(#_規グラデーションスウォッチ_4-21);
      }

      .cls-34 {
        fill: url(#_規グラデーションスウォッチ_4-42);
      }

      .cls-34, .cls-35, .cls-36, .cls-37, .cls-38 {
        opacity: .455;
      }

      .cls-35 {
        fill: url(#_規グラデーションスウォッチ_4-30);
      }

      .cls-36 {
        fill: url(#_規グラデーションスウォッチ_4-54);
      }

      .cls-37 {
        fill: url(#_規グラデーションスウォッチ_4-18);
      }

      .cls-39 {
        fill: url(#_規グラデーションスウォッチ_4-44);
      }

      .cls-39, .cls-40, .cls-41, .cls-42, .cls-43 {
        opacity: .636;
      }

      .cls-40 {
        fill: url(#_規グラデーションスウォッチ_4-32);
      }

      .cls-41 {
        fill: url(#_規グラデーションスウォッチ_4-56);
      }

      .cls-42 {
        fill: url(#_規グラデーションスウォッチ_4-20);
      }

      .cls-44 {
        fill: url(#_規グラデーションスウォッチ_4-41);
      }

      .cls-44, .cls-45, .cls-46, .cls-47, .cls-48 {
        opacity: .364;
      }

      .cls-45 {
        fill: url(#_規グラデーションスウォッチ_4-53);
      }

      .cls-46 {
        fill: url(#_規グラデーションスウォッチ_4-29);
      }

      .cls-47 {
        fill: url(#_規グラデーションスウォッチ_4-17);
      }

      .cls-49 {
        fill: url(#_規グラデーションスウォッチ_4-19);
      }

      .cls-49, .cls-50, .cls-51, .cls-52, .cls-53 {
        opacity: .545;
      }

      .cls-50 {
        fill: url(#_規グラデーションスウォッチ_4-43);
      }

      .cls-51 {
        fill: url(#_規グラデーションスウォッチ_4-31);
      }

      .cls-52 {
        fill: url(#_規グラデーションスウォッチ_4-55);
      }

      .cls-54 {
        fill: url(#_規グラデーションスウォッチ_4-51);
      }

      .cls-54, .cls-55, .cls-56, .cls-57, .cls-58 {
        opacity: .182;
      }

      .cls-55 {
        fill: url(#_規グラデーションスウォッチ_4-39);
      }

      .cls-56 {
        fill: url(#_規グラデーションスウォッチ_4-15);
      }

      .cls-57 {
        fill: url(#_規グラデーションスウォッチ_4-27);
      }

      .cls-59 {
        fill: url(#_規グラデーションスウォッチ_4-40);
      }

      .cls-59, .cls-60, .cls-61, .cls-62, .cls-63 {
        opacity: .273;
      }

      .cls-60 {
        fill: url(#_規グラデーションスウォッチ_4-52);
      }

      .cls-61 {
        fill: url(#_規グラデーションスウォッチ_4-16);
      }

      .cls-62 {
        fill: url(#_規グラデーションスウォッチ_4-28);
      }

      .cls-64 {
        fill: url(#_規グラデーションスウォッチ_4-24);
      }

      .cls-65 {
        fill: url(#_規グラデーションスウォッチ_4-12);
      }

      .cls-66 {
        fill: url(#_規グラデーションスウォッチ_4-36);
      }

      .cls-67 {
        fill: url(#_規グラデーションスウォッチ_4-60);
      }

      .cls-68 {
        fill: url(#_規グラデーションスウォッチ_4-48);
      }

      .cls-5 {
        fill: none;
      }

      .cls-18 {
        fill: url(#_規グラデーションスウォッチ_4);
      }

      .cls-6 {
        fill: url(#_称未設定グラデーション_138);
      }

      .cls-33 {
        fill: url(#_規グラデーションスウォッチ_4-9);
      }

      .cls-53 {
        fill: url(#_規グラデーションスウォッチ_4-7);
      }

      .cls-48 {
        fill: url(#_規グラデーションスウォッチ_4-5);
      }

      .cls-43 {
        fill: url(#_規グラデーションスウォッチ_4-8);
      }

      .cls-63 {
        fill: url(#_規グラデーションスウォッチ_4-4);
      }

      .cls-38 {
        fill: url(#_規グラデーションスウォッチ_4-6);
      }

      .cls-58 {
        fill: url(#_規グラデーションスウォッチ_4-3);
      }

      .cls-69 {
        opacity: .23;
      }

      .cls-70 {
        opacity: .7;
      }

      .cls-8 {
        fill: url(#_規グラデーションスウォッチ_4-26);
      }

      .cls-9 {
        fill: url(#_規グラデーションスウォッチ_4-14);
      }

      .cls-10 {
        fill: url(#_規グラデーションスウォッチ_4-38);
      }

      .cls-11 {
        fill: url(#_規グラデーションスウォッチ_4-50);
      }
    </style>
    <linearGradient id="_称未設定グラデーション_138" data-name="名称未設定グラデーション 138" x1="131.841" y1="157.378" x2="276.705" y2="157.378" gradientTransform="matrix(1, 0, 0, 1, 0, 0)" gradientUnits="userSpaceOnUse">
      <stop offset="0" stop-color="#c65a45"/>
      <stop offset=".504" stop-color="#e6bfa0"/>
      <stop offset="1" stop-color="#c65a45"/>
    </linearGradient>
    <linearGradient id="_称未設定グラデーション_138-2" data-name="名称未設定グラデーション 138" x1="106.216" y1="74.513" x2="300.955" y2="74.513" xlink:href="#_称未設定グラデーション_138"/>
    <linearGradient id="_規グラデーションスウォッチ_4" data-name="新規グラデーションスウォッチ 4" x1="201.459" y1="89.933" x2="210.898" y2="89.933" gradientTransform="matrix(1, 0, 0, 1, 0, 0)" gradientUnits="userSpaceOnUse">
      <stop offset="0" stop-color="#c0725a"/>
      <stop offset="1" stop-color="#c0725a"/>
    </linearGradient>
    <linearGradient id="_規グラデーションスウォッチ_4-2" data-name="新規グラデーションスウォッチ 4" x1="201.682" x2="210.675" xlink:href="#_規グラデーションスウォッチ_4"/>
    <linearGradient id="_規グラデーションスウォッチ_4-3" data-name="新規グラデーションスウォッチ 4" x1="201.906" x2="210.452" xlink:href="#_規グラデーションスウォッチ_4"/>
    <linearGradient id="_規グラデーションスウォッチ_4-4" data-name="新規グラデーションスウォッチ 4" x1="202.129" x2="210.229" xlink:href="#_規グラデーションスウォッチ_4"/>
    <linearGradient id="_規グラデーションスウォッチ_4-5" data-name="新規グラデーションスウォッチ 4" x1="202.352" y1="89.933" x2="210.006" y2="89.933" xlink:href="#_規グラデーションスウォッチ_4"/>
    <linearGradient id="_規グラデーションスウォッチ_4-6" data-name="新規グラデーションスウォッチ 4" x1="202.575" x2="209.783" xlink:href="#_規グラデーションスウォッチ_4"/>
    <linearGradient id="_規グラデーションスウォッチ_4-7" data-name="新規グラデーションスウォッチ 4" x1="202.798" x2="209.56" xlink:href="#_規グラデーションスウォッチ_4"/>
    <linearGradient id="_規グラデーションスウォッチ_4-8" data-name="新規グラデーションスウォッチ 4" x1="203.021" x2="209.337" xlink:href="#_規グラデーションスウォッチ_4"/>
    <linearGradient id="_規グラデーションスウォッチ_4-9" data-name="新規グラデーションスウォッチ 4" x1="203.244" x2="209.113" xlink:href="#_規グラデーションスウォッチ_4"/>
    <linearGradient id="_規グラデーションスウォッチ_4-10" data-name="新規グラデーションスウォッチ 4" x1="203.467" y1="89.933" x2="208.89" y2="89.933" xlink:href="#_規グラデーションスウォッチ_4"/>
    <linearGradient id="_規グラデーションスウォッチ_4-11" data-name="新規グラデーションスウォッチ 4" x1="203.69" x2="208.667" xlink:href="#_規グラデーションスウォッチ_4"/>
    <linearGradient id="_規グラデーションスウォッチ_4-12" data-name="新規グラデーションスウォッチ 4" x1="203.913" y1="89.933" x2="208.444" y2="89.933" xlink:href="#_規グラデーションスウォッチ_4"/>
    <linearGradient id="_規グラデーションスウォッチ_4-13" data-name="新規グラデーションスウォッチ 4" x1="215.242" y1="88.933" x2="224.681" y2="88.933" xlink:href="#_規グラデーションスウォッチ_4"/>
    <linearGradient id="_規グラデーションスウォッチ_4-14" data-name="新規グラデーションスウォッチ 4" x1="215.465" y1="88.933" x2="224.458" y2="88.933" xlink:href="#_規グラデーションスウォッチ_4"/>
    <linearGradient id="_規グラデーションスウォッチ_4-15" data-name="新規グラデーションスウォッチ 4" x1="215.688" y1="88.933" x2="224.235" y2="88.933" xlink:href="#_規グラデーションスウォッチ_4"/>
    <linearGradient id="_規グラデーションスウォッチ_4-16" data-name="新規グラデーションスウォッチ 4" x1="215.911" y1="88.933" x2="224.011" y2="88.933" xlink:href="#_規グラデーションスウォッチ_4"/>
    <linearGradient id="_規グラデーションスウォッチ_4-17" data-name="新規グラデーションスウォッチ 4" x1="216.134" y1="88.933" x2="223.788" y2="88.933" xlink:href="#_規グラデーションスウォッチ_4"/>
    <linearGradient id="_規グラデーションスウォッチ_4-18" data-name="新規グラデーションスウォッチ 4" x1="216.357" y1="88.933" x2="223.565" y2="88.933" xlink:href="#_規グラデーションスウォッチ_4"/>
    <linearGradient id="_規グラデーションスウォッチ_4-19" data-name="新規グラデーションスウォッチ 4" x1="216.581" y1="88.933" x2="223.342" y2="88.933" xlink:href="#_規グラデーションスウォッチ_4"/>
    <linearGradient id="_規グラデーションスウォッチ_4-20" data-name="新規グラデーションスウォッチ 4" x1="216.804" y1="88.933" x2="223.119" y2="88.933" xlink:href="#_規グラデーションスウォッチ_4"/>
    <linearGradient id="_規グラデーションスウォッチ_4-21" data-name="新規グラデーションスウォッチ 4" x1="217.027" y1="88.933" x2="222.896" y2="88.933" xlink:href="#_規グラデーションスウォッチ_4"/>
    <linearGradient id="_規グラデーションスウォッチ_4-22" data-name="新規グラデーションスウォッチ 4" x1="217.25" y1="88.933" x2="222.673" y2="88.933" xlink:href="#_規グラデーションスウォッチ_4"/>
    <linearGradient id="_規グラデーションスウォッチ_4-23" data-name="新規グラデーションスウォッチ 4" x1="217.473" y1="88.933" x2="222.45" y2="88.933" xlink:href="#_規グラデーションスウォッチ_4"/>
    <linearGradient id="_規グラデーションスウォッチ_4-24" data-name="新規グラデーションスウォッチ 4" x1="217.696" y1="88.933" x2="222.227" y2="88.933" xlink:href="#_規グラデーションスウォッチ_4"/>
    <linearGradient id="_規グラデーションスウォッチ_4-25" data-name="新規グラデーションスウォッチ 4" x1="229.228" y1="89.218" x2="238.667" y2="89.218" gradientTransform="translate(326.611 -145.015) rotate(90)" xlink:href="#_規グラデーションスウォッチ_4"/>
    <linearGradient id="_規グラデーションスウォッチ_4-26" data-name="新規グラデーションスウォッチ 4" x1="229.451" y1="89.218" x2="238.444" y2="89.218" gradientTransform="translate(326.611 -145.015) rotate(90)" xlink:href="#_規グラデーションスウォッチ_4"/>
    <linearGradient id="_規グラデーションスウォッチ_4-27" data-name="新規グラデーションスウォッチ 4" x1="229.674" y1="89.218" x2="238.221" y2="89.218" gradientTransform="translate(326.611 -145.015) rotate(90)" xlink:href="#_規グラデーションスウォッチ_4"/>
    <linearGradient id="_規グラデーションスウォッチ_4-28" data-name="新規グラデーションスウォッチ 4" x1="229.898" y1="89.218" x2="237.998" y2="89.218" gradientTransform="translate(326.611 -145.015) rotate(90)" xlink:href="#_規グラデーションスウォッチ_4"/>
    <linearGradient id="_規グラデーションスウォッチ_4-29" data-name="新規グラデーションスウォッチ 4" x1="230.121" y1="89.218" x2="237.775" y2="89.218" gradientTransform="translate(326.611 -145.015) rotate(90)" xlink:href="#_規グラデーションスウォッチ_4"/>
    <linearGradient id="_規グラデーションスウォッチ_4-30" data-name="新規グラデーションスウォッチ 4" x1="230.344" y1="89.218" x2="237.552" y2="89.218" gradientTransform="translate(326.611 -145.015) rotate(90)" xlink:href="#_規グラデーションスウォッチ_4"/>
    <linearGradient id="_規グラデーションスウォッチ_4-31" data-name="新規グラデーションスウォッチ 4" x1="230.567" y1="89.218" x2="237.328" y2="89.218" gradientTransform="translate(326.611 -145.015) rotate(90)" xlink:href="#_規グラデーションスウォッチ_4"/>
    <linearGradient id="_規グラデーションスウォッチ_4-32" data-name="新規グラデーションスウォッチ 4" x1="230.79" y1="89.218" x2="237.105" y2="89.218" gradientTransform="translate(326.611 -145.015) rotate(90)" xlink:href="#_規グラデーションスウォッチ_4"/>
    <linearGradient id="_規グラデーションスウォッチ_4-33" data-name="新規グラデーションスウォッチ 4" x1="231.013" y1="89.218" x2="236.882" y2="89.218" gradientTransform="translate(326.611 -145.015) rotate(90)" xlink:href="#_規グラデーションスウォッチ_4"/>
    <linearGradient id="_規グラデーションスウォッチ_4-34" data-name="新規グラデーションスウォッチ 4" x1="231.236" y1="89.218" x2="236.659" y2="89.218" gradientTransform="translate(326.611 -145.015) rotate(90)" xlink:href="#_規グラデーションスウォッチ_4"/>
    <linearGradient id="_規グラデーションスウォッチ_4-35" data-name="新規グラデーションスウォッチ 4" x1="231.459" y1="89.218" x2="236.436" y2="89.218" gradientTransform="translate(326.611 -145.015) rotate(90)" xlink:href="#_規グラデーションスウォッチ_4"/>
    <linearGradient id="_規グラデーションスウォッチ_4-36" data-name="新規グラデーションスウォッチ 4" x1="231.682" y1="89.218" x2="236.213" y2="89.218" gradientTransform="translate(326.611 -145.015) rotate(90)" xlink:href="#_規グラデーションスウォッチ_4"/>
    <linearGradient id="_規グラデーションスウォッチ_4-37" data-name="新規グラデーションスウォッチ 4" x1="187.378" y1="88.933" x2="196.817" y2="88.933" xlink:href="#_規グラデーションスウォッチ_4"/>
    <linearGradient id="_規グラデーションスウォッチ_4-38" data-name="新規グラデーションスウォッチ 4" x1="187.601" y1="88.933" x2="196.594" y2="88.933" xlink:href="#_規グラデーションスウォッチ_4"/>
    <linearGradient id="_規グラデーションスウォッチ_4-39" data-name="新規グラデーションスウォッチ 4" x1="187.825" y1="88.933" x2="196.371" y2="88.933" xlink:href="#_規グラデーションスウォッチ_4"/>
    <linearGradient id="_規グラデーションスウォッチ_4-40" data-name="新規グラデーションスウォッチ 4" x1="188.048" y1="88.933" x2="196.148" y2="88.933" xlink:href="#_規グラデーションスウォッチ_4"/>
    <linearGradient id="_規グラデーションスウォッチ_4-41" data-name="新規グラデーションスウォッチ 4" x1="188.271" y1="88.933" x2="195.925" y2="88.933" xlink:href="#_規グラデーションスウォッチ_4"/>
    <linearGradient id="_規グラデーションスウォッチ_4-42" data-name="新規グラデーションスウォッチ 4" x1="188.494" y1="88.933" x2="195.702" y2="88.933" xlink:href="#_規グラデーションスウォッチ_4"/>
    <linearGradient id="_規グラデーションスウォッチ_4-43" data-name="新規グラデーションスウォッチ 4" x1="188.717" y1="88.933" x2="195.479" y2="88.933" xlink:href="#_規グラデーションスウォッチ_4"/>
    <linearGradient id="_規グラデーションスウォッチ_4-44" data-name="新規グラデーションスウォッチ 4" x1="188.94" y1="88.933" x2="195.256" y2="88.933" xlink:href="#_規グラデーションスウォッチ_4"/>
    <linearGradient id="_規グラデーションスウォッチ_4-45" data-name="新規グラデーションスウォッチ 4" x1="189.163" y1="88.933" x2="195.032" y2="88.933" xlink:href="#_規グラデーションスウォッチ_4"/>
    <linearGradient id="_規グラデーションスウォッチ_4-46" data-name="新規グラデーションスウォッチ 4" x1="189.386" y1="88.933" x2="194.809" y2="88.933" xlink:href="#_規グラデーションスウォッチ_4"/>
    <linearGradient id="_規グラデーションスウォッチ_4-47" data-name="新規グラデーションスウォッチ 4" x1="189.609" y1="88.933" x2="194.586" y2="88.933" xlink:href="#_規グラデーションスウォッチ_4"/>
    <linearGradient id="_規グラデーションスウォッチ_4-48" data-name="新規グラデーションスウォッチ 4" x1="189.832" y1="88.933" x2="194.363" y2="88.933" xlink:href="#_規グラデーションスウォッチ_4"/>
    <linearGradient id="_規グラデーションスウォッチ_4-49" data-name="新規グラデーションスウォッチ 4" x1="175.601" y1="88.268" x2="185.04" y2="88.268" gradientTransform="translate(-3.17 .665)" xlink:href="#_規グラデーションスウォッチ_4"/>
    <linearGradient id="_規グラデーションスウォッチ_4-50" data-name="新規グラデーションスウォッチ 4" x1="175.824" y1="88.268" x2="184.817" y2="88.268" gradientTransform="translate(-3.17 .665)" xlink:href="#_規グラデーションスウォッチ_4"/>
    <linearGradient id="_規グラデーションスウォッチ_4-51" data-name="新規グラデーションスウォッチ 4" x1="176.047" y1="88.268" x2="184.594" y2="88.268" gradientTransform="translate(-3.17 .665)" xlink:href="#_規グラデーションスウォッチ_4"/>
    <linearGradient id="_規グラデーションスウォッチ_4-52" data-name="新規グラデーションスウォッチ 4" x1="176.27" y1="88.268" x2="184.371" y2="88.268" gradientTransform="translate(-3.17 .665)" xlink:href="#_規グラデーションスウォッチ_4"/>
    <linearGradient id="_規グラデーションスウォッチ_4-53" data-name="新規グラデーションスウォッチ 4" x1="176.493" y1="88.268" x2="184.147" y2="88.268" gradientTransform="translate(-3.17 .665)" xlink:href="#_規グラデーションスウォッチ_4"/>
    <linearGradient id="_規グラデーションスウォッチ_4-54" data-name="新規グラデーションスウォッチ 4" x1="176.716" y1="88.268" x2="183.924" y2="88.268" gradientTransform="translate(-3.17 .665)" xlink:href="#_規グラデーションスウォッチ_4"/>
    <linearGradient id="_規グラデーションスウォッチ_4-55" data-name="新規グラデーションスウォッチ 4" x1="176.94" y1="88.268" x2="183.701" y2="88.268" gradientTransform="translate(-3.17 .665)" xlink:href="#_規グラデーションスウォッチ_4"/>
    <linearGradient id="_規グラデーションスウォッチ_4-56" data-name="新規グラデーションスウォッチ 4" x1="177.163" y1="88.268" x2="183.478" y2="88.268" gradientTransform="translate(-3.17 .665)" xlink:href="#_規グラデーションスウォッチ_4"/>
    <linearGradient id="_規グラデーションスウォッチ_4-57" data-name="新規グラデーションスウォッチ 4" x1="177.386" y1="88.268" x2="183.255" y2="88.268" gradientTransform="translate(-3.17 .665)" xlink:href="#_規グラデーションスウォッチ_4"/>
    <linearGradient id="_規グラデーションスウォッチ_4-58" data-name="新規グラデーションスウォッチ 4" x1="177.609" y1="88.268" x2="183.032" y2="88.268" gradientTransform="translate(-3.17 .665)" xlink:href="#_規グラデーションスウォッチ_4"/>
    <linearGradient id="_規グラデーションスウォッチ_4-59" data-name="新規グラデーションスウォッチ 4" x1="177.832" y1="88.268" x2="182.809" y2="88.268" gradientTransform="translate(-3.17 .665)" xlink:href="#_規グラデーションスウォッチ_4"/>
    <linearGradient id="_規グラデーションスウォッチ_4-60" data-name="新規グラデーションスウォッチ 4" x1="178.055" y1="88.268" x2="182.586" y2="88.268" gradientTransform="translate(-3.17 .665)" xlink:href="#_規グラデーションスウォッチ_4"/>
    <linearGradient id="_称未設定グラデーション_49" data-name="名称未設定グラデーション 49" x1="1001.993" y1="219.497" x2="1001.993" y2=".338" gradientTransform="translate(1103.245) rotate(-180) scale(1 -1)" gradientUnits="userSpaceOnUse">
      <stop offset="0" stop-color="#e79274"/>
      <stop offset="1" stop-color="#f4e7ce"/>
    </linearGradient>
    <linearGradient id="_称未設定グラデーション_11" data-name="名称未設定グラデーション 11" x1="1083.612" y1="82.775" x2="881.576" y2="167.699" gradientTransform="translate(1103.245) rotate(-180) scale(1 -1)" gradientUnits="userSpaceOnUse">
      <stop offset=".068" stop-color="#f2dec5" stop-opacity="0"/>
      <stop offset=".459" stop-color="#efd8c0" stop-opacity=".011"/>
      <stop offset=".599" stop-color="#e6c2ae" stop-opacity=".05"/>
      <stop offset=".7" stop-color="#d79c90" stop-opacity=".118"/>
      <stop offset=".78" stop-color="#c16664" stop-opacity=".214"/>
      <stop offset=".83" stop-color="#ae373e" stop-opacity=".3"/>
    </linearGradient>
    <linearGradient id="_称未設定グラデーション_49-2" data-name="名称未設定グラデーション 49" x1="771.809" y1="220.932" x2="771.809" y2=".338" gradientTransform="translate(-449.909)" xlink:href="#_称未設定グラデーション_49"/>
  </defs>
  <g id="_3" data-name="03">
    <g>
      <rect class="cls-12" width="411.711" height="275.329"/>
      <path class="cls-6" d="M136.535,201.647c.853-.213,34.563-19.841,66.992-19.841s70.832,22.615,70.832,22.615l2.347-94.087s-144.864,.213-144.864,1.067,4.694,90.247,4.694,90.247Z"/>
      <path class="cls-4" d="M106.216,.338c.588,38.433,6.293,136.864,21.891,145.066,20.695,10.881,29.229-8.747,29.229-8.747,0,0-3.236-8.618,.396-8.702,2.723-.063,4.932,3.968,5.527,4.827s4.852,8.525,6.608,8.381c1.627-.133,2.473-3.574,3.438-4.657,1.214-1.362,2.476-5.303,4.672-5.823,1.038-.246,2.027,.4,3.029,1.939,0,0,1.343,2.601,3.158,2.541,2.4-.08,3.212-2.027,3.686-3.12s1.351-3.223,3.327-3.227c2.24-.004,3.094,2.907,3.254,3.227,.16,.32,1.068,3.242,3.6,3.334,2.96,.107,3.787-2.72,4.107-3.547s1.173-3.048,3.174-3.017,2.921,1.921,3.787,3.284c.552,.869,1.334,2.476,2.747,2.534,1.973,.08,2.827-2.347,3.147-2.96,.32-.613,1.28-2.48,2.987-2.48s2.8,1.2,3.494,2.88c.392,.949,1.253,3.494,3.974,3.387,2.72-.107,2.877-1.948,3.014-2.48,.293-1.147,.853-2.396,2.156-2.503,3.776-.309,4.193,6.523,7.521,7.628,3.749,1.245,9.712,.037,10.163,.527l1.097-15.528s3.966-6.012,11.578-3.173c22.068,8.232,29.899-74.624,39.978-119.59"/>
      <g class="cls-69">
        <ellipse class="cls-18" cx="206.179" cy="89.933" rx="4.719" ry="42.27"/>
        <ellipse class="cls-7" cx="206.179" cy="89.933" rx="4.496" ry="41.815"/>
        <ellipse class="cls-58" cx="206.179" cy="89.933" rx="4.273" ry="41.359"/>
        <ellipse class="cls-63" cx="206.179" cy="89.933" rx="4.05" ry="40.904"/>
        <ellipse class="cls-48" cx="206.179" cy="89.933" rx="3.827" ry="40.449"/>
        <ellipse class="cls-38" cx="206.179" cy="89.933" rx="3.604" ry="39.994"/>
        <ellipse class="cls-53" cx="206.179" cy="89.933" rx="3.381" ry="39.539"/>
        <ellipse class="cls-43" cx="206.179" cy="89.933" rx="3.158" ry="39.083"/>
        <ellipse class="cls-33" cx="206.179" cy="89.933" rx="2.935" ry="38.628"/>
        <ellipse class="cls-23" cx="206.179" cy="89.933" rx="2.712" ry="38.173"/>
        <ellipse class="cls-28" cx="206.179" cy="89.933" rx="2.488" ry="37.718"/>
        <ellipse class="cls-65" cx="206.179" cy="89.933" rx="2.265" ry="37.263"/>
      </g>
      <g class="cls-69">
        <ellipse class="cls-17" cx="219.961" cy="88.933" rx="4.719" ry="42.27"/>
        <ellipse class="cls-9" cx="219.961" cy="88.933" rx="4.496" ry="41.815"/>
        <ellipse class="cls-56" cx="219.961" cy="88.933" rx="4.273" ry="41.359"/>
        <ellipse class="cls-61" cx="219.961" cy="88.933" rx="4.05" ry="40.904"/>
        <ellipse class="cls-47" cx="219.961" cy="88.933" rx="3.827" ry="40.449"/>
        <ellipse class="cls-37" cx="219.961" cy="88.933" rx="3.604" ry="39.994"/>
        <ellipse class="cls-49" cx="219.961" cy="88.933" rx="3.381" ry="39.539"/>
        <ellipse class="cls-42" cx="219.961" cy="88.933" rx="3.158" ry="39.083"/>
        <ellipse class="cls-32" cx="219.961" cy="88.933" rx="2.935" ry="38.628"/>
        <ellipse class="cls-22" cx="219.961" cy="88.933" rx="2.712" ry="38.173"/>
        <ellipse class="cls-27" cx="219.961" cy="88.933" rx="2.488" ry="37.718"/>
        <ellipse class="cls-64" cx="219.961" cy="88.933" rx="2.265" ry="37.263"/>
      </g>
      <g class="cls-69">
        <ellipse class="cls-16" cx="237.393" cy="88.933" rx="42.27" ry="4.719" transform="translate(126.293 316.795) rotate(-84.544)"/>
        <ellipse class="cls-8" cx="237.393" cy="88.933" rx="41.815" ry="4.496" transform="translate(126.293 316.795) rotate(-84.544)"/>
        <ellipse class="cls-57" cx="237.393" cy="88.933" rx="41.359" ry="4.273" transform="translate(126.293 316.795) rotate(-84.544)"/>
        <ellipse class="cls-62" cx="237.393" cy="88.933" rx="40.904" ry="4.05" transform="translate(126.293 316.795) rotate(-84.544)"/>
        <ellipse class="cls-46" cx="237.393" cy="88.933" rx="40.449" ry="3.827" transform="translate(126.293 316.795) rotate(-84.544)"/>
        <ellipse class="cls-35" cx="237.393" cy="88.933" rx="39.994" ry="3.604" transform="translate(126.293 316.795) rotate(-84.544)"/>
        <ellipse class="cls-51" cx="237.393" cy="88.933" rx="39.539" ry="3.381" transform="translate(126.293 316.795) rotate(-84.544)"/>
        <ellipse class="cls-40" cx="237.393" cy="88.933" rx="39.083" ry="3.158" transform="translate(126.293 316.795) rotate(-84.544)"/>
        <ellipse class="cls-30" cx="237.393" cy="88.933" rx="38.628" ry="2.935" transform="translate(126.293 316.795) rotate(-84.544)"/>
        <ellipse class="cls-21" cx="237.393" cy="88.933" rx="38.173" ry="2.712" transform="translate(126.293 316.795) rotate(-84.544)"/>
        <ellipse class="cls-24" cx="237.393" cy="88.933" rx="37.718" ry="2.488" transform="translate(126.293 316.795) rotate(-84.544)"/>
        <ellipse class="cls-66" cx="237.393" cy="88.933" rx="37.263" ry="2.265" transform="translate(126.293 316.795) rotate(-84.544)"/>
      </g>
      <g class="cls-69">
        <ellipse class="cls-14" cx="192.098" cy="88.933" rx="4.719" ry="42.27"/>
        <ellipse class="cls-10" cx="192.098" cy="88.933" rx="4.496" ry="41.815"/>
        <ellipse class="cls-55" cx="192.098" cy="88.933" rx="4.273" ry="41.359"/>
        <ellipse class="cls-59" cx="192.098" cy="88.933" rx="4.05" ry="40.904"/>
        <ellipse class="cls-44" cx="192.098" cy="88.933" rx="3.827" ry="40.449"/>
        <ellipse class="cls-34" cx="192.098" cy="88.933" rx="3.604" ry="39.994"/>
        <ellipse class="cls-50" cx="192.098" cy="88.933" rx="3.381" ry="39.539"/>
        <ellipse class="cls-39" cx="192.098" cy="88.933" rx="3.158" ry="39.083"/>
        <ellipse class="cls-29" cx="192.098" cy="88.933" rx="2.935" ry="38.628"/>
        <ellipse class="cls-20" cx="192.098" cy="88.933" rx="2.712" ry="38.173"/>
        <ellipse class="cls-25" cx="192.098" cy="88.933" rx="2.488" ry="37.718"/>
        <ellipse class="cls-68" cx="192.098" cy="88.933" rx="2.265" ry="37.263"/>
      </g>
      <g class="cls-69">
        <ellipse class="cls-15" cx="177.15" cy="88.933" rx="4.719" ry="42.27" transform="translate(-7.02 15.635) rotate(-4.955)"/>
        <ellipse class="cls-11" cx="177.15" cy="88.933" rx="4.496" ry="41.815" transform="translate(-7.02 15.635) rotate(-4.955)"/>
        <ellipse class="cls-54" cx="177.15" cy="88.933" rx="4.273" ry="41.359" transform="translate(-7.02 15.635) rotate(-4.955)"/>
        <ellipse class="cls-60" cx="177.15" cy="88.933" rx="4.05" ry="40.904" transform="translate(-7.02 15.635) rotate(-4.955)"/>
        <ellipse class="cls-45" cx="177.15" cy="88.933" rx="3.827" ry="40.449" transform="translate(-7.02 15.635) rotate(-4.955)"/>
        <ellipse class="cls-36" cx="177.15" cy="88.933" rx="3.604" ry="39.994" transform="translate(-7.02 15.635) rotate(-4.955)"/>
        <ellipse class="cls-52" cx="177.15" cy="88.933" rx="3.381" ry="39.539" transform="translate(-7.02 15.635) rotate(-4.955)"/>
        <ellipse class="cls-41" cx="177.15" cy="88.933" rx="3.158" ry="39.083" transform="translate(-7.02 15.635) rotate(-4.955)"/>
        <ellipse class="cls-31" cx="177.15" cy="88.933" rx="2.935" ry="38.628" transform="translate(-7.02 15.635) rotate(-4.955)"/>
        <ellipse class="cls-19" cx="177.15" cy="88.933" rx="2.712" ry="38.173" transform="translate(-7.02 15.635) rotate(-4.955)"/>
        <ellipse class="cls-26" cx="177.15" cy="88.933" rx="2.488" ry="37.718" transform="translate(-7.02 15.635) rotate(-4.955)"/>
        <ellipse class="cls-67" cx="177.15" cy="88.933" rx="2.265" ry="37.263" transform="translate(-7.02 15.635) rotate(-4.955)"/>
      </g>
      <path class="cls-3" d="M137.279,43.547c10.542,17.627,17.177,24.521,19.168,27.65s17.129,18.258,15.705,42.47c-.453,7.705-3.077,12.425-3.077,12.425,0,0-4.811,9.689-1.431,10.19,1.595,.236,3.007-.501,3.007-.501,0,0,3.073-2.258,4.424-1.289,1.481,1.062,2.046,1.992-.289,8.463-.522,1.447,17.311,2.199,25.476,22.419,3.811,9.437,1.196,23.101-3.293,28.524-7.123,8.605-16.562,10.982-30.051,6.658-7.992-2.562-12.346,5.969-26.98,11.949-7.807,3.19-60.088,19.244-139.534-11.762V.338l123.749,.319c2.02,11.567,3.812,27.318,13.126,42.89Z"/>
      <path class="cls-5" d="M124.153,.657c2.02,11.567,3.812,27.318,13.126,42.89,10.542,17.627,17.177,24.521,19.168,27.65s17.129,18.258,15.705,42.47c-.453,7.705-3.077,12.425-3.077,12.425,0,0-4.811,9.689-1.431,10.19,1.595,.236,3.007-.501,3.007-.501,0,0,3.073-2.258,4.424-1.289,1.481,1.062,2.046,1.992-.289,8.463-.522,1.447,17.311,2.199,25.476,22.419,3.811,9.437,1.196,23.101-3.293,28.524-7.123,8.605-16.562,10.982-30.051,6.658-7.992-2.562-12.346,5.969-26.98,11.949-7.807,3.19-60.088,19.244-139.534-11.762"/>
      <path class="cls-2" d="M137.279,43.547c10.542,17.627,17.177,24.521,19.168,27.65s17.129,18.258,15.705,42.47c-.453,7.705-3.077,12.425-3.077,12.425,0,0-4.811,9.689-1.431,10.19,1.595,.236,3.007-.501,3.007-.501,0,0,3.073-2.258,4.424-1.289,1.481,1.062,2.046,1.992-.289,8.463-.522,1.447,17.311,2.199,25.476,22.419,3.811,9.437,1.196,23.101-3.293,28.524-7.123,8.605-16.562,10.982-30.051,6.658-7.992-2.562-12.346,5.969-26.98,11.949-7.807,3.19-60.088,19.244-139.534-11.762V.338l123.749,.319c2.02,11.567,3.812,27.318,13.126,42.89Z"/>
      <path class="cls-1" d="M271.504,43.547c-10.542,17.627-17.177,24.521-19.168,27.65-1.991,3.129-17.129,18.258-15.705,42.47,.453,7.705,3.077,12.425,3.077,12.425,0,0,4.811,9.689,1.431,10.19-1.595,.236-3.007-.501-3.007-.501,0,0-3.073-2.258-4.424-1.289-1.481,1.062-2.046,1.992,.289,8.463,.522,1.447,1.645,11.794,1.929,20.328,.285,8.534,1.7,9.845,4.118,13.259,2.418,3.414,3.598,10.994,4.944,14.16,3.284,7.723,11.292,16.265,25.925,22.245,7.807,3.19,66.502,21.899,140.467-12.204V.338l-126.749,.319c-2.02,11.567-3.812,27.318-13.126,42.89Z"/>
      <path class="cls-5" d="M284.63,.657c-2.02,11.567-3.812,27.318-13.126,42.89-10.542,17.627-17.177,24.521-19.168,27.65-1.991,3.129-17.129,18.258-15.705,42.47,.453,7.705,3.077,12.425,3.077,12.425,0,0,4.811,9.689,1.431,10.19-1.595,.236-3.007-.501-3.007-.501,0,0-3.073-2.258-4.424-1.289-1.481,1.062-2.046,1.992,.289,8.463,.522,1.447,1.645,11.794,1.929,20.328,.285,8.534,1.7,9.845,4.118,13.259,2.418,3.414,3.598,10.994,4.944,14.16,3.284,7.723,11.292,16.265,25.925,22.245,7.807,3.19,66.502,21.899,140.467-12.204"/>
    </g>
    <g class="cls-70">
      <path class="cls-13" d="M248.931,148.828l-1.279-.021c.078-4.591,2.811-11.031,5.703-17.848,2.37-5.585,4.82-11.36,5.861-16.298,1.272-6.031,1.74-11.495,2.281-17.821,.229-2.666,.465-5.422,.778-8.419,.319-3.053,.439-5.334,.545-7.346,.228-4.329,.364-6.941,2.301-11.546,.947-2.25,2.92-5.251,5.418-9.05,4.788-7.28,11.344-17.25,14.436-28.143,2.775-9.777,5.861-24.131,6.116-31.475l1.277,.044c-.257,7.445-3.367,21.931-6.163,31.781-3.146,11.082-9.764,21.146-14.597,28.496-2.365,3.596-4.407,6.701-5.308,8.843-1.851,4.399-1.976,6.785-2.203,11.117-.102,1.928-.228,4.327-.551,7.412-.312,2.985-.548,5.735-.775,8.395-.545,6.368-1.016,11.868-2.304,17.976-1.067,5.06-3.542,10.893-5.936,16.534-2.843,6.7-5.528,13.028-5.602,17.37Z"/>
      <path class="cls-13" d="M283.355,211.795c-5.562,0-11.131-1.546-21.051-6.479-5.663-2.816-10.2-8.289-13.118-15.825-2.418-6.241-2.962-11.779-2.962-13.228,0-2.911,1.082-22.444,1.438-28.862l.092-1.666c.03-.561,.136-1.083,.247-1.636,.521-2.584,1.234-6.123-4.916-18.7-4.738-9.687-3.979-23.896,2.031-38.009,2.335-5.485,7.018-12.187,12.846-18.387,7.995-8.502,21.877-25.461,25.023-43.519,.039-.167,3.081-12.931,4.482-24.446l1.27,.154c-1.41,11.589-4.47,24.422-4.5,24.55-3.196,18.346-17.251,35.529-25.344,44.136-5.729,6.094-10.322,12.659-12.602,18.012-5.866,13.776-6.636,27.588-2.059,36.947,6.341,12.966,5.578,16.751,5.021,19.515-.106,.528-.198,.984-.224,1.452l-.092,1.667c-.355,6.41-1.436,25.916-1.436,28.792,0,3.333,2.672,21.592,15.371,27.908,15.526,7.723,20.136,6.947,31.267,5.08l.177-.03c12.287-2.062,33.844-9.936,34.061-10.015l.439,1.201c-.217,.079-21.885,7.992-34.289,10.075l-.176,.029c-4.296,.722-7.646,1.283-10.998,1.283Z"/>
      <path class="cls-13" d="M258.795,116.754c-.546-4.818-5.008-9.941-5.053-9.992l-.35-.397,3.538-4.542-.011-4.269,.399-6.683-1.061-6.182,8.423-13.906,1.094,.662-8.175,13.498,1.004,5.857-.406,6.79,.012,4.671-3.164,4.062c1.109,1.356,4.515,5.832,5.021,10.286l-1.271,.145Z"/>
      <rect class="cls-13" x="258.538" y="69.389" width="1.279" height="11.077" transform="translate(-7.762 35.81) rotate(-7.788)"/>
      <path class="cls-13" d="M251.376,129.545l-3.652-7.594,1.159-6.021,.08-.113c3.35-4.71,2.605-10.884,2.598-10.946l-.018-.138,.04-.133c1.45-4.682,1.32-10.541,1.318-10.599l-.003-.123,3.338-9.031-4.246-8.963,1.156-.548,4.477,9.45-3.44,9.308c.014,.902,.033,6.226-1.338,10.755,.105,1.005,.548,6.841-2.759,11.594l-1.026,5.334,3.469,7.213-1.152,.555Z"/>
      <rect class="cls-13" x="259.306" y="90.012" width="1.279" height="5.601" transform="translate(10.697 211.393) rotate(-45.092)"/>
      <path class="cls-13" d="M261.136,101.906c-1.326-2.835-3.767-3.742-3.791-3.75l-3.021-1.129-1.241-2.523-2.157-.754h0c-.034,0-1.918-.385-3.026-1.719-1.071-1.29-1.328-6.025-1.368-6.961l1.277-.056c.094,2.15,.488,5.494,1.075,6.2,.823,.992,2.358,1.302,2.374,1.305l2.741,.951,1.249,2.537,2.535,.948c.109,.038,2.948,1.07,4.511,4.41l-1.158,.542Z"/>
      <path class="cls-13" d="M240.882,107.096l-.756-1.031c2.159-1.585,6.712-5.741,6.999-8.471,.287-2.735-3.129-5.242-3.163-5.267l.75-1.036c.165,.12,4.049,2.974,3.685,6.437-.359,3.425-5.546,7.924-7.515,9.368Z"/>
      <path class="cls-13" d="M248.751,97.258c-.339,0-.702-.038-1.09-.115l.248-1.255c.961,.191,1.66,.082,2.078-.324,.636-.616,.59-1.879,.519-2.314l1.262-.212c.015,.09,.36,2.227-.886,3.44-.533,.519-1.247,.779-2.131,.779Z"/>
      <path class="cls-13" d="M240.711,116.403l-.414-1.21c.184-.062,4.55-1.534,8.21-.864,3.037,.555,6.25-1.332,6.864-4.042,.546-2.412-2.432-4.083-2.462-4.1l-.137-.102c-3.979-3.867-2.961-9.97-2.916-10.228l1.26,.22c-.01,.056-.93,5.641,2.491,9.035,.567,.334,3.715,2.348,3.012,5.456-.772,3.407-4.597,5.702-8.343,5.018-3.334-.611-7.522,.802-7.565,.816Z"/>
      <path class="cls-13" d="M243.54,104.858l-.768-1.023c.574-.43,5.688-4.175,8.577-3.401l-.332,1.235c-1.932-.524-6.056,2.125-7.478,3.189Z"/>
      <path class="cls-13" d="M244.758,115.574l-1.23-.349c.959-3.381-2.476-7.303-3.448-8.167l.85-.956c.053,.046,5.145,4.837,3.829,9.472Z"/>
      <path class="cls-13" d="M244.405,112.004c-.24,0-.484-.017-.73-.054l.188-1.265c4.161,.614,7.729-6.124,7.766-6.191l1.133,.592c-.154,.296-3.67,6.918-8.355,6.918Z"/>
      <path class="cls-13" d="M259.926,111.041c-.843-6.458-2.79-8.529-2.811-8.549l.905-.904c.092,.091,2.264,2.316,3.173,9.288l-1.268,.165Z"/>
      <path class="cls-13" d="M252.414,136.413l-1.279-.032,.561-22.432,.549-.066c1.099-.14,3.201,2.331,6.272,7.312l-1.088,.671c-1.519-2.462-3.43-5.153-4.496-6.236l-.519,20.783Z"/>
      <rect class="cls-13" x="243.511" y="122.347" width="5.138" height="1.279" transform="translate(-29.004 119.84) rotate(-25.9)"/>
      <path class="cls-13" d="M286.405,203.668c-9.729,0-20.649-5.696-24.714-9.859l-.237-.243c-6.942-7.108-12.938-13.248-14.699-29.218l1.271-.141c1.713,15.532,7.565,21.525,14.343,28.465l.238,.244c4.062,4.162,15.265,9.914,24.913,9.446,15.559-.768,39.794-6.8,40.037-6.86l.311,1.24c-.244,.062-24.6,6.124-40.285,6.897-.39,.02-.783,.028-1.178,.028Z"/>
      <path class="cls-13" d="M282.993,206.596c-1.708,0-3.728-.257-5.951-1.021l.416-1.209c6.068,2.088,10.577,.046,10.621,.025l.544,1.157c-.133,.063-2.282,1.048-5.63,1.048Z"/>
      <path class="cls-13" d="M279.434,208.854c-2.447,0-4.65-.81-4.79-.862l.448-1.197c.046,.018,4.681,1.714,7.504,.048,3.889-2.293,18.471-5.77,19.09-5.916l.295,1.244c-.149,.036-15.012,3.578-18.734,5.773-1.159,.684-2.521,.91-3.812,.91Z"/>
      <path class="cls-13" d="M275.479,209.936c-.058-.014-.173-.147-.333-.374l-.085,.043,.084-.045c-.911-1.296-3.272-5.636-4.762-8.433-.233,3.981-1.741,5.547-2.73,6.148l-.664-1.094c.752-.457,2.463-2.112,2.097-7.593-.023-.339,.223-.636,.56-.678,.326-.037,.647,.188,.707,.521,.234,.566,5.509,10.018,5.824,10.549l-.35,.207,.358-.194-.049,.712-.657,.229Z"/>
      <path class="cls-13" d="M276.901,205.606c-1.229,0-2.753-.495-4.614-1.494l.605-1.127c2.276,1.223,3.939,1.616,4.939,1.166,.635-.283,1.072-.956,1.34-2.056l1.242,.301c-.366,1.511-1.04,2.467-2.061,2.923-.429,.191-.912,.287-1.452,.287Z"/>
      <path class="cls-13" d="M300.573,208.913c-1.227-1.161-11.041-1.214-17.62-.881l-.064-1.277c2.736-.139,16.494-.73,18.563,1.229l-.879,.93Z"/>
      <path class="cls-13" d="M255.2,197.5l-1.268-.166c.205-1.561-.747-7.174-1.377-10.888-.551-3.251-.755-4.521-.709-4.962l1.271,.133-.636-.066,.637,.062c-.024,.364,.343,2.528,.698,4.62,.719,4.24,1.613,9.517,1.383,11.268Z"/>
      <path class="cls-13" d="M253.332,191.005c-1.689-3.609-5.265-5.56-5.301-5.579l.603-1.128c.162,.087,3.982,2.16,5.856,6.164l-1.158,.543Z"/>
      <path class="cls-13" d="M261.998,203.598l-1.275-.098c.264-3.438-.003-3.646-.486-4.024-.271-.211-.642-.499-1.034-1.067-1.618-2.34-1.859-9.122-1.868-9.409l1.277-.043c.062,1.855,.477,7.038,1.644,8.726,.28,.406,.528,.6,.768,.786,.957,.746,1.267,1.345,.976,5.13Z"/>
      <rect class="cls-13" x="254.471" y="196.125" width="4.566" height="1.278" transform="translate(-45.526 81.589) rotate(-16.607)"/>
      <rect class="cls-13" x="256.63" y="198.932" width="3.85" height="1.279" transform="translate(-57.25 282.916) rotate(-52.447)"/>
      <path class="cls-13" d="M267.064,206.018c-.606-2.363-1.605-4.663-2.097-4.827-.989-.064-3.169,.358-3.928,.529l-.281-1.248c.118-.026,2.917-.661,4.319-.554,1.546,.112,2.685,3.671,3.225,5.781l-1.238,.318Z"/>
      <rect class="cls-13" x="262.951" y="193.084" width="1.279" height="7.75" transform="translate(-54.338 112.138) rotate(-21.83)"/>
    </g>
    <path class="cls-13" d="M199.322,176.326c-.109-1.871-.913-3.436-1.992-4.202-.286-1.876-.757-3.62-1.311-5.199,.774-1.109,.788-3.021-.099-4.847-.94-1.935-2.58-3.132-3.988-3.071-1.013-1.416-2.102-2.652-3.241-3.744,.128-1.127-.539-2.571-1.817-3.68-1.588-1.377-3.547-1.738-4.602-.926-.511-.273-1.022-.534-1.531-.775,.096-.176,.167-.363,.201-.562,.266-1.531-1.507-3.117-3.959-3.542-1.855-.322-3.565,.115-4.403,1.009-.742-.251-1.443-.497-2.097-.742-.211-.867-.657-1.798-1.348-2.662-1.458-1.822-3.448-2.706-4.734-2.201-1.636-2.77-2.626-7.128,1.607-15.782,2.481-5.073,3.44-11.391,2.942-18.281,.02-.019,.045-.043,.064-.06l-.075-.084c-.02-.262-.038-.523-.062-.787l.09-.123c-.033-.024-.072-.055-.106-.08-.564-5.942-2.193-12.277-4.884-18.595-1.474-3.461-3.885-7.406-6.924-11.403l.048-.102-.205-.097c-1.74-2.274-3.675-4.561-5.766-6.785-7.995-8.502-21.876-25.462-25.03-43.558-.031-.128-3.074-12.892-4.475-24.407l-1.27,.154c1.41,11.589,4.47,24.422,4.493,24.511,3.176,18.229,17.019,35.274,25.142,43.951l-1.154,8.438-4.271-7.051c-.178-.483-.372-.982-.595-1.513-.946-2.25-2.92-5.251-5.418-9.05-4.788-7.28-11.344-17.25-14.435-28.143-2.775-9.777-5.862-24.131-6.116-31.475l-1.278,.044c.258,7.445,3.368,21.931,6.164,31.781,3.145,11.082,9.764,21.147,14.597,28.496,2.364,3.596,4.407,6.701,5.308,8.843,.208,.494,.387,.955,.554,1.404l-.029,.018,.1,.165c1.258,3.449,1.38,5.749,1.578,9.531,.102,1.928,.227,4.326,.55,7.412,.313,2.986,.548,5.737,.776,8.398,.545,6.367,1.017,11.866,2.304,17.973,1.256,5.956,4.298,14.053,8.032,20.645l.021,.844,.46-.012c1.98,3.371,4.135,6.287,6.312,8.232,.242,.759,.659,1.553,1.253,2.294,.525,.656,1.121,1.175,1.727,1.568,.279,.991,.501,1.999,.675,3.02-1.154,.967-1.694,2.999-1.218,5.17,.27,1.232,.826,2.276,1.515,3.035-.207,2.251-.64,4.531-1.305,6.818-.307,.2-.606,.425-.888,.687-1.799,1.666-2.393,4.031-1.58,5.71-.663,1.386-1.39,2.745-2.189,4.064-.866,.017-1.783,.273-2.626,.808-2.059,1.308-2.875,3.71-1.824,5.365,.005,.008,.013,.014,.018,.022-1.353,1.617-2.807,3.138-4.335,4.559-1.18-1.173-3.445-1.553-5.738-.794-2.898,.959-4.713,3.351-4.053,5.343,.237,.717,.77,1.278,1.48,1.666-2.901,1.693-5.925,3.016-8.989,3.871-8.367,2.336-21.402,4.943-37.941,.651l-.368,1.418c6.591,1.711,12.633,2.348,18.06,2.348,8.473,0,15.444-1.554,20.643-3.005,3.589-1.002,7.125-2.625,10.48-4.721,.951,.101,2.011-.005,3.075-.357,1.948-.645,3.403-1.938,3.949-3.321,1.939,.116,3.895,.275,5.704,.479-.005,.037-.016,.073-.019,.11-.042,.43,.031,.854,.192,1.259-2.478,.857-5.285,2.182-8.375,3.641-7.528,3.554-16.897,7.977-27.169,8.384-12.149,.483-23.208-2.198-26.123-3.176l-.466,1.389c2.74,.919,12.503,3.31,23.67,3.31,.982,0,1.977-.019,2.977-.058,10.57-.42,20.089-4.913,27.737-8.523,3.234-1.527,6.135-2.893,8.6-3.711,.992,.994,2.599,1.728,4.468,1.909,1.651,.16,3.185-.142,4.323-.755,3.382,1.762,6.43,2.831,9.199,3.203,.909,1.38,2.954,2.04,5.052,1.485,1.74-.46,3.027-1.632,3.484-2.957,1.225-.685,2.381-1.599,3.484-2.715,1.814,.833,4.242-.557,5.428-3.113,.856-1.844,.819-3.781,.06-5.041,.71-1.604,1.222-3.187,1.563-4.733,1.424-.589,2.397-2.589,2.261-4.913Zm-18.161,16.419c-2.188,.584-3.685,2.287-3.664,4.013-2.147-.383-4.607-1.224-7.444-2.645,.379-.45,.619-.965,.674-1.528,.022-.232,.008-.461-.031-.688,1.589-.8,3.051-1.827,4.383-3.023,.257,.324,.546,.621,.906,.848,1.37,.866,3.136,.715,4.667-.208,.235,1.148,.41,2.25,.51,3.231Zm-8.509-23.608c1.976-.158,4.328,.032,6.584,1.153-.097,.648-.123,1.336-.055,2.047,.184,1.93,.981,3.581,2.064,4.576-.336,.902-.722,1.796-1.146,2.676-.751-.022-1.523,.162-2.263,.52-1.496-3.756-4.001-6.458-6.081-8.187,.577-.895,.886-1.865,.897-2.784Zm.086-12.692c.918-1.255,1.489-2.45,1.707-3.576,.971,1.504,1.892,2.731,2.769,3.694-.05,.042-.11,.069-.157,.116-1.194,1.194-.717,3.606,1.065,5.388,.697,.697,1.489,1.186,2.268,1.462l.737,3.109c-.018,.014-.035,.031-.053,.045-1.766-1.321-4.514-3.623-8.583-8.123,.193-.636,.284-1.352,.246-2.117Zm10.652-.844c.077,.066,.158,.118,.236,.179-.362,.801-.824,1.473-1.403,1.769-1.108-1.015-2.41-1.55-3.515-1.516-.989-1.001-2.198-2.57-3.654-4.956,.309,.1,.63,.184,.968,.243,1.343,.233,2.598,.059,3.514-.388,.679,.306,1.359,.634,2.037,.994-.125,1.126,.541,2.567,1.817,3.674Zm6.341,6.896c.068,.733,.268,1.511,.64,2.277,1.032,2.125,2.909,3.367,4.394,3.018,.396,1.187,.736,2.469,.981,3.825-1.491,.093-2.646,1.664-2.923,3.725-2.06-.242-3.988-.873-5.541-1.537,.125-.705,.16-1.463,.086-2.248-.313-3.288-2.399-5.78-4.66-5.564-.074,.007-.146,.024-.218,.037l-.536-2.261c.608-.037,1.155-.234,1.557-.636,.44-.44,.649-1.046,.654-1.724,1.567,.306,3.484,.68,5.566,1.088Zm-7.698,17.652c-.152-.096-.318-.153-.479-.224,.344-.732,.666-1.469,.952-2.214,.43,.162,.879,.234,1.337,.191,.72-.069,1.37-.405,1.912-.936,1.877,2.586,3.961,5.704,5.297,8.373-.799,.538-1.522,1.35-2.048,2.376-1.915-.762-3.862-1.487-5.405-2.048,.669-2.206,.116-4.457-1.565-5.518Zm12.27,4.704c-.599-.278-1.267-.292-1.934-.121-1.508-3.077-3.845-6.495-5.71-9.027,.076-.15,.147-.305,.213-.466,1.656,.696,3.699,1.344,5.901,1.581,.165,2.243,1.315,4.041,2.748,4.484-.279,1.176-.663,2.372-1.166,3.582-.019-.009-.033-.025-.052-.034Zm-3.755-25.27c-.366,.356-.605,.857-.735,1.436-2.277-.446-4.344-.849-5.961-1.165-.156-.398-.378-.795-.646-1.182,.721-.482,1.266-1.259,1.681-2.117,1.164,.52,2.315,.542,3.056,.013,.906,.899,1.781,1.891,2.604,3.015Zm-25.083-36.118l-4.196-2.036-1.059-5.499-.081-.113c-.031-.044-.056-.09-.086-.134,.258-.02,.516-.05,.773-.097,1.137-.208,2.372-.178,3.511-.051,.004,.013,.004,.026,.008,.04l.098-.028c1.193,.14,2.264,.383,2.991,.576-.375,2.635-1.024,5.1-1.958,7.342Zm-17.869-26.623c-.05-.585-.101-1.177-.153-1.773l.173,.173,2.962-2.953,.292,4.856c-.659,.32-1.924,1.07-3.03,2.506-.082-.922-.162-1.854-.244-2.81Zm7.261-2.893l-1.012,2.056-1.725,.645-.347-5.78,.617-3.596,2.466,6.674Zm5.824,3.29c-.001,.162-.002,.323,.016,.488,.123,1.173,.818,2.47,1.75,3.729-1.075-.527-2.226-.958-3.269-1.083,.221-1.276,.23-2.429,.186-3.254,.301,.085,.622,.139,.979,.139,.109,0,.224-.011,.338-.018Zm6.916,17.603c-.578-.15-1.328-.32-2.173-.455-.183-2.194,1.179-4.483,2.336-5.948,.103,2.21,.054,4.355-.163,6.403Zm-8.317-.426c-1.427-2.698-1.773-5.606-1.816-7.496,1.38,1.995,3.907,4.898,6.959,5.061-.209,.725-.315,1.48-.285,2.245-1.15-.106-2.386-.111-3.552,.102-.435,.079-.872,.104-1.306,.088Zm-1.882-.468l-.417-.05c-1.615-.69-2.895-2.004-3.26-3.613-.128-.566-.056-1.091,.123-1.565,.744-1.058,1.334-1.759,1.467-1.915,.448-.373,.819-.59,.862-.615-.032,1.782,.166,4.907,1.557,7.979-.112-.032-.221-.071-.33-.109l-.003-.113Zm7.496-3.25c-3.687,.201-6.871-5.203-7.359-6.079,.65-.97,1.077-2.003,1.358-3.009,2.095,.166,5.369,2.285,6.632,3.226,.775,.724,1.511,1.345,2.105,1.813-.701,.759-1.932,2.245-2.736,4.049Zm-7.613-16.646c.027,.655,.191,1.489,.715,2.158,.063,.467,.244,2.207-.146,4.204-.035,.008-.073,.009-.107,.018l.06,.224c-.159,.729-.399,1.483-.75,2.216-.792-3.521-.866-7.205-.866-8.434l1.094-.386Zm-1.162,10.339c-.194,.248-.402,.49-.634,.72-.099,.059-.281,.172-.504,.33l-2.818-3.619,.008-3.826,2.598-.971,.194-.394c.103,2.066,.391,5.022,1.157,7.761Zm-8.086-2.625c.83-1.682,2.042-2.669,2.858-3.171l-.008,3.21c-.419,.521-1.451,2.06-2.268,5.266-.224-1.75-.412-3.507-.583-5.305Zm1.149,9.171c.599-4.498,1.732-6.839,2.356-7.836l2.462,3.161c-.495,.486-.99,1.109-1.302,1.854-1.008,1.447-2.228,3.469-2.995,5.663-.191-.957-.365-1.905-.521-2.842Zm3.349-.173c.421,1.591,1.506,2.926,2.934,3.805-1.037,.916-2.428,2.745-4.159,5.462-.369-1.173-.697-2.327-.98-3.45,.268-2.031,1.207-4.102,2.206-5.817Zm4.904,4.662c.344,.095,.698,.163,1.056,.21,.162,.271,.331,.541,.515,.806l1.027,5.334-2.32,4.823-.278-11.173Zm4.533-17.834c-.22-2.093,1.739-4.058,2.677-4.871,1.405,4.129,2.339,8.21,2.81,12.128-2.283-1.962-5.257-5.066-5.487-7.256Zm2.219-6.155c-.641,.504-2.676,2.248-3.317,4.49-.794,.107-1.395-.007-1.764-.365-.495-.479-.576-1.347-.554-1.915,.655-.196,1.843-.659,2.641-1.62,.706-.85,1.057-3.19,1.227-4.959,.125,.272,.269,.553,.382,.819,.504,1.184,.957,2.367,1.385,3.549Zm-2.784-6.421l-.118-.005c-.093,2.149-.488,5.494-1.075,6.2-.824,.992-2.359,1.302-2.464,1.33l-1.812,.632-3.078-8.327,3.577-7.552c1.986,2.658,3.666,5.27,4.969,7.722Zm-10.288-14.133c1.587,1.74,3.078,3.505,4.445,5.268l-3.465,7.316-2.203-3.638,1.223-8.947Zm-4.841,10.191c-.111-2.122-.204-3.832-.494-5.566l2.784,4.596-.031,.224,.181,.025,2.78,4.59-.958,5.583-3.21,3.2c-.151-1.703-.314-3.455-.507-5.306-.32-3.053-.439-5.333-.545-7.346Zm5.549,40.541c1.513-2.427,3.359-5.014,4.338-6.029l.428,17.164c-1.835-3.513-3.488-7.378-4.766-11.135Zm6.106,13.579l-.144-5.789,3.216-6.686,3.949,1.916c-.031,.065-.057,.136-.089,.201-4.629,9.465-3.246,14.295-1.403,17.257-.083,.177-.145,.368-.183,.576-1.804-1.893-3.631-4.496-5.347-7.474Zm11.97,13.679c.261-.209,.436-.496,.557-.822,1.196,.776,2.357,1.807,2.595,3.242,.152,.915-.096,1.946-.712,3.076-.732-2.116-2.298-3.52-3.842-3.419-.105-.58-.226-1.155-.364-1.726,.682,.123,1.303,.019,1.766-.352Zm-1.131,11.865c.509,.22,1.039,.305,1.56,.191,.58-.127,1.064-.483,1.455-.973,3.888,4.256,6.57,6.514,8.332,7.838-.2,.323-.375,.679-.517,1.065-2.482-1.136-5.048-1.308-7.193-1.125-.148-.385-.341-.751-.628-1.061-.948-1.024-2.447-1.313-3.952-.914,.433-1.681,.748-3.357,.943-5.021Zm-4.105,13.417c1.605,1.139,4.165,.777,6.059-.977,.035-.032,.06-.069,.094-.102,1.979,1.66,4.389,4.258,5.761,7.838-.524,.438-1.004,.97-1.401,1.598-.498,.788-.794,1.626-.938,2.453-3.718-.315-7.542-1.433-10.265-2.395,1.002-1.294,1.248-2.916,.473-4.135-.347-.545-.862-.926-1.459-1.165,.6-1.018,1.152-2.061,1.675-3.117Zm-11.173,15.243c-.012-.118-.032-.235-.06-.352,1.645-1.511,3.206-3.136,4.658-4.865,1.247,.68,3.015,.586,4.535-.38,.047-.03,.085-.068,.131-.099,2.83,1.047,7.144,2.39,11.403,2.736,.031,.386,.091,.763,.203,1.115-1.289,1.194-2.708,2.218-4.258,3.003-.912-1.238-2.724-2.187-4.887-2.396-2.401-.233-4.554,.51-5.6,1.77-2.032-.246-4.179-.417-6.125-.534Zm33.143,5.711c-.003-.012-.002-.024-.005-.035-.413-1.562-2.068-2.526-3.992-2.514-.13-1.364-.396-2.795-.693-4.085,.326-.336,.635-.7,.9-1.119,.07-.111,.116-.228,.179-.341,1.546,.561,3.515,1.295,5.445,2.062-.431,1.572-.257,3.103,.448,4.112-.691,.707-1.445,1.359-2.281,1.919Z"/>
  </g>
</svg>