<?xml version="1.0" encoding="UTF-8"?>
<svg id="_イヤー_1" data-name="レイヤー 1" xmlns="http://www.w3.org/2000/svg" width="84.314mm" height="56.444mm" xmlns:xlink="http://www.w3.org/1999/xlink" viewBox="0 0 239 160">
  <defs>
    <style>
      .cls-1, .cls-2, .cls-3, .cls-4, .cls-5 {
        fill: none;
      }

      .cls-6 {
        fill: url(#_称未設定グラデーション_55-2);
      }

      .cls-7 {
        fill: url(#_称未設定グラデーション_55-3);
      }

      .cls-8 {
        fill: url(#_称未設定グラデーション_67-2);
      }

      .cls-9 {
        fill: url(#_称未設定グラデーション_92-2);
      }

      .cls-10 {
        fill: url(#_称未設定グラデーション_70);
      }

      .cls-11 {
        fill: url(#_称未設定グラデーション_55);
      }

      .cls-12 {
        fill: url(#_称未設定グラデーション_67);
      }

      .cls-13 {
        fill: url(#_称未設定グラデーション_20);
      }

      .cls-14 {
        fill: url(#_称未設定グラデーション_92);
      }

      .cls-15 {
        fill: url(#_称未設定グラデーション_152);
        opacity: .56;
      }

      .cls-16 {
        fill: #036eb7;
      }

      .cls-17 {
        fill: #6a3906;
      }

      .cls-18 {
        fill: #f29600;
      }

      .cls-19 {
        fill: #fffbd2;
      }

      .cls-20 {
        fill: #8dc21f;
      }

      .cls-21 {
        fill: #dadf00;
      }

      .cls-22 {
        fill: #41a988;
      }

      .cls-23 {
        fill: #888;
      }

      .cls-2 {
        stroke: #40210f;
      }

      .cls-2, .cls-4, .cls-5 {
        stroke-miterlimit: 10;
      }

      .cls-2, .cls-5 {
        stroke-width: .706px;
      }

      .cls-24 {
        clip-path: url(#clippath-1);
      }

      .cls-25 {
        fill: url(#_規グラデーションスウォッチ_13-3);
      }

      .cls-25, .cls-26 {
        opacity: .73;
      }

      .cls-26 {
        fill: url(#_規グラデーションスウォッチ_13-2);
      }

      .cls-27 {
        fill: url(#_規グラデーションスウォッチ_12-2);
      }

      .cls-3 {
        stroke: #6a3906;
        stroke-linejoin: round;
        stroke-width: .592px;
      }

      .cls-28 {
        fill: url(#_規グラデーションスウォッチ_12);
      }

      .cls-29 {
        fill: url(#_規グラデーションスウォッチ_13);
      }

      .cls-30 {
        fill: url(#_称未設定グラデーション_2);
      }

      .cls-31 {
        fill: url(#_規グラデーションスウォッチ_5);
      }

      .cls-32 {
        fill: url(#_規グラデーションスウォッチ_2);
      }

      .cls-33 {
        fill: url(#_規グラデーションスウォッチ_1);
      }

      .cls-4 {
        stroke: #231815;
        stroke-width: 1.185px;
      }

      .cls-34 {
        fill: url(#_称未設定グラデーション_183);
      }

      .cls-35 {
        fill: url(#_称未設定グラデーション_336);
      }

      .cls-36 {
        fill: url(#_称未設定グラデーション_112);
      }

      .cls-37 {
        fill: url(#_称未設定グラデーション_2-2);
      }

      .cls-5 {
        stroke: #182987;
        stroke-linecap: round;
      }

      .cls-38 {
        clip-path: url(#clippath);
      }

      .cls-39 {
        fill: url(#_規グラデーションスウォッチ_1-4);
      }

      .cls-40 {
        fill: url(#_規グラデーションスウォッチ_1-6);
      }

      .cls-41 {
        fill: url(#_規グラデーションスウォッチ_1-3);
      }

      .cls-42 {
        fill: url(#_規グラデーションスウォッチ_1-2);
      }

      .cls-43 {
        fill: url(#_規グラデーションスウォッチ_1-5);
      }
    </style>
    <linearGradient id="_称未設定グラデーション_183" data-name="名称未設定グラデーション 183" x1="0" y1="80" x2="239" y2="80" gradientTransform="matrix(1, 0, 0, 1, 0, 0)" gradientUnits="userSpaceOnUse">
      <stop offset="0" stop-color="#faddd2"/>
      <stop offset="1" stop-color="#f8cfd9"/>
    </linearGradient>
    <linearGradient id="_称未設定グラデーション_152" data-name="名称未設定グラデーション 152" x1="239" y1="80" x2="0" y2="80" gradientTransform="matrix(1, 0, 0, 1, 0, 0)" gradientUnits="userSpaceOnUse">
      <stop offset="0" stop-color="#fae4a7"/>
      <stop offset="1" stop-color="#f9f17c"/>
    </linearGradient>
    <clipPath id="clippath">
      <polygon class="cls-1" points="0 160 239 0 239 160 0 160"/>
    </clipPath>
    <linearGradient id="_規グラデーションスウォッチ_12" data-name="新規グラデーションスウォッチ 12" x1="145.67" y1="150.531" x2="134.5" y2="169.878" gradientTransform="matrix(1, 0, 0, 1, 0, 0)" gradientUnits="userSpaceOnUse">
      <stop offset=".003" stop-color="#4f6bb1"/>
      <stop offset=".998" stop-color="#00063c"/>
    </linearGradient>
    <linearGradient id="_規グラデーションスウォッチ_12-2" data-name="新規グラデーションスウォッチ 12" x1="159.845" y1="146.708" x2="152.502" y2="159.425" xlink:href="#_規グラデーションスウォッチ_12"/>
    <linearGradient id="_規グラデーションスウォッチ_5" data-name="新規グラデーションスウォッチ 5" x1="0" y1="123.783" x2="188.893" y2="123.783" gradientTransform="matrix(1, 0, 0, 1, 0, 0)" gradientUnits="userSpaceOnUse">
      <stop offset="0" stop-color="#bad4a7"/>
      <stop offset="1" stop-color="#55b19b"/>
    </linearGradient>
    <linearGradient id="_称未設定グラデーション_2" data-name="名称未設定グラデーション 2" x1="86.916" y1="88.329" x2="143.493" y2="88.329" gradientTransform="matrix(1, 0, 0, 1, 0, 0)" gradientUnits="userSpaceOnUse">
      <stop offset="0" stop-color="#fff"/>
      <stop offset="1" stop-color="#036eb7"/>
    </linearGradient>
    <linearGradient id="_称未設定グラデーション_2-2" data-name="名称未設定グラデーション 2" x1="99.267" y1="117.264" x2="163.253" y2="117.264" xlink:href="#_称未設定グラデーション_2"/>
    <linearGradient id="_規グラデーションスウォッチ_1" data-name="新規グラデーションスウォッチ 1" x1="111.326" y1="122.122" x2="146.472" y2="122.122" gradientTransform="matrix(1, 0, 0, 1, 0, 0)" gradientUnits="userSpaceOnUse">
      <stop offset="0" stop-color="#f5ab58"/>
      <stop offset="1" stop-color="#f9d4ca"/>
    </linearGradient>
    <linearGradient id="_規グラデーションスウォッチ_1-2" data-name="新規グラデーションスウォッチ 1" x1="139.424" y1="110.215" x2="175.486" y2="110.215" xlink:href="#_規グラデーションスウォッチ_1"/>
    <linearGradient id="_規グラデーションスウォッチ_1-3" data-name="新規グラデーションスウォッチ 1" x1="216.595" y1="97.641" x2="188.453" y2="97.641" xlink:href="#_規グラデーションスウォッチ_1"/>
    <linearGradient id="_称未設定グラデーション_112" data-name="名称未設定グラデーション 112" x1="181.397" y1="67.941" x2="218.693" y2="67.941" gradientTransform="matrix(1, 0, 0, 1, 0, 0)" gradientUnits="userSpaceOnUse">
      <stop offset=".011" stop-color="#f9d4ca"/>
      <stop offset=".61" stop-color="#f5ab58"/>
    </linearGradient>
    <linearGradient id="_規グラデーションスウォッチ_13" data-name="新規グラデーションスウォッチ 13" x1="205.772" y1="104.045" x2="170.461" y2="165.204" gradientTransform="matrix(1, 0, 0, 1, 0, 0)" gradientUnits="userSpaceOnUse">
      <stop offset="0" stop-color="#fff"/>
      <stop offset=".215" stop-color="#fdfdfa"/>
      <stop offset=".471" stop-color="#fafaeb"/>
      <stop offset=".746" stop-color="#f4f5d3"/>
      <stop offset="1" stop-color="#edf0b7"/>
    </linearGradient>
    <linearGradient id="_称未設定グラデーション_20" data-name="名称未設定グラデーション 20" x1="142.846" y1="124.841" x2="187.903" y2="124.841" gradientTransform="matrix(1, 0, 0, 1, 0, 0)" gradientUnits="userSpaceOnUse">
      <stop offset="0" stop-color="#fff"/>
      <stop offset=".446" stop-color="#fdfefb"/>
      <stop offset=".811" stop-color="#fafbf1"/>
      <stop offset="1" stop-color="#f7f9e9"/>
    </linearGradient>
    <linearGradient id="_称未設定グラデーション_55" data-name="名称未設定グラデーション 55" x1="204.395" y1="156.982" x2="213.508" y2="156.982" gradientTransform="matrix(1, 0, 0, 1, 0, 0)" gradientUnits="userSpaceOnUse">
      <stop offset=".003" stop-color="#6c75b6"/>
      <stop offset="1" stop-color="#c4c9e5"/>
    </linearGradient>
    <linearGradient id="_称未設定グラデーション_55-2" data-name="名称未設定グラデーション 55" x1="221.103" y1="117.316" x2="196.836" y2="159.348" xlink:href="#_称未設定グラデーション_55"/>
    <linearGradient id="_称未設定グラデーション_55-3" data-name="名称未設定グラデーション 55" x1="203.631" y1="130.89" x2="187.706" y2="158.474" xlink:href="#_称未設定グラデーション_55"/>
    <linearGradient id="_規グラデーションスウォッチ_13-2" data-name="新規グラデーションスウォッチ 13" x1="156.578" y1="77.406" x2="182.544" y2="77.406" xlink:href="#_規グラデーションスウォッチ_13"/>
    <clipPath id="clippath-1">
      <polygon class="cls-1" points="0 160 239 0 0 0 0 160"/>
    </clipPath>
    <linearGradient id="_規グラデーションスウォッチ_1-4" data-name="新規グラデーションスウォッチ 1" x1="64.408" y1="32.95" x2="64.408" y2="58.145" xlink:href="#_規グラデーションスウォッチ_1"/>
    <linearGradient id="_称未設定グラデーション_70" data-name="名称未設定グラデーション 70" x1="51.207" y1="133.359" x2="51.207" y2="48.155" gradientTransform="matrix(1, 0, 0, 1, 0, 0)" gradientUnits="userSpaceOnUse">
      <stop offset="0" stop-color="#c7cebb"/>
      <stop offset=".085" stop-color="#d1d7c7"/>
      <stop offset=".286" stop-color="#e5e8df"/>
      <stop offset=".499" stop-color="#f3f5f1"/>
      <stop offset=".727" stop-color="#fcfcfb"/>
      <stop offset="1" stop-color="#fff"/>
    </linearGradient>
    <linearGradient id="_称未設定グラデーション_92" data-name="名称未設定グラデーション 92" x1="74.321" y1="62.472" x2="74.321" y2="85.773" gradientTransform="matrix(1, 0, 0, 1, 0, 0)" gradientUnits="userSpaceOnUse">
      <stop offset="0" stop-color="#3166b0"/>
      <stop offset="1" stop-color="#383c8f"/>
    </linearGradient>
    <linearGradient id="_称未設定グラデーション_92-2" data-name="名称未設定グラデーション 92" x1="69.878" y1="63.657" x2="69.878" y2="55.091" xlink:href="#_称未設定グラデーション_92"/>
    <linearGradient id="_規グラデーションスウォッチ_1-5" data-name="新規グラデーションスウォッチ 1" x1="53.262" y1="25.893" x2="85.851" y2="25.893" xlink:href="#_規グラデーションスウォッチ_1"/>
    <linearGradient id="_規グラデーションスウォッチ_2" data-name="新規グラデーションスウォッチ 2" x1="48.077" y1="17.851" x2="91.353" y2="17.851" gradientTransform="matrix(1, 0, 0, 1, 0, 0)" gradientUnits="userSpaceOnUse">
      <stop offset="0" stop-color="#6a3906"/>
      <stop offset="1" stop-color="#946134"/>
    </linearGradient>
    <linearGradient id="_称未設定グラデーション_67" data-name="名称未設定グラデーション 67" x1="61.409" y1="64.94" x2="61.409" y2="45.81" gradientTransform="matrix(1, 0, 0, 1, 0, 0)" gradientUnits="userSpaceOnUse">
      <stop offset="0" stop-color="#c7cebb"/>
      <stop offset="1" stop-color="#fff"/>
    </linearGradient>
    <linearGradient id="_称未設定グラデーション_67-2" data-name="名称未設定グラデーション 67" x1="73.309" y1="63.163" x2="73.309" y2="49.142" xlink:href="#_称未設定グラデーション_67"/>
    <linearGradient id="_称未設定グラデーション_336" data-name="名称未設定グラデーション 336" x1="66.987" y1="49.618" x2="66.987" y2="133.359" gradientTransform="matrix(1, 0, 0, 1, 0, 0)" gradientUnits="userSpaceOnUse">
      <stop offset="0" stop-color="#fbd26d"/>
      <stop offset=".271" stop-color="#f2b246"/>
      <stop offset=".588" stop-color="#ea9220"/>
      <stop offset=".842" stop-color="#e47f08"/>
      <stop offset="1" stop-color="#e37800"/>
    </linearGradient>
    <linearGradient id="_規グラデーションスウォッチ_13-3" data-name="新規グラデーションスウォッチ 13" x1="439.818" y1="34.007" x2="472.657" y2="34.007" gradientTransform="translate(556.577) rotate(-180) scale(1 -1)" xlink:href="#_規グラデーションスウォッチ_13"/>
    <linearGradient id="_規グラデーションスウォッチ_1-6" data-name="新規グラデーションスウォッチ 1" x1="39.246" y1="116.753" x2="39.246" y2="98.681" xlink:href="#_規グラデーションスウォッチ_1"/>
  </defs>
  <rect class="cls-34" width="239" height="160"/>
  <polygon class="cls-15" points="0 160 239 0 0 0 0 160"/>
  <g class="cls-38">
    <g>
      <path class="cls-28" d="M124.32,147.581v16.419h36.633c-8.72-6.556-25.585-19.35-25.783-19.53-.265-.241-10.851,2.582-10.851,3.111Z"/>
      <path class="cls-27" d="M136.611,145.575l23.815,18.425h13.323l2.796-5.745c-.618-.441-27.259-17.643-27.259-17.643l-12.675,4.963Z"/>
      <path class="cls-22" d="M154.667,94.21c-37.108-3.542-69.272,63.915-79.886,65.79l18.199,.05c6.991-1.961,6.246-1.752,18.346-5.147,55.345-15.526,77.127-36.345,77.127-36.345,0,0,6.882-20.466-33.786-24.348Z"/>
      <path class="cls-31" d="M154.667,89.27c-37.108-3.542-61.018-.755-71.632,1.121L0,160H74.781c6.991-1.961,24.445-6.642,36.545-10.037,55.345-15.526,77.127-36.345,77.127-36.345,0,0,6.882-20.466-33.786-24.348Z"/>
      <g>
        <path class="cls-30" d="M99.267,115.617l42.58-16.585,1.647-37.992s-33.052,6.116-56.577,18.584l12.35,35.993Z"/>
        <path class="cls-19" d="M103.971,107.207l31.935-11.586,.353-27.406s-20.878,6.293-39.992,14.938l7.704,24.054Z"/>
        <path class="cls-18" d="M104.383,87.329s14.291-6.528,26.465-8.998v-3.352s-16.761,3.529-26.465,9.527v2.823Z"/>
        <polygon class="cls-16" points="105.618 90.858 114.44 87.329 114.44 98.797 108.265 102.326 105.618 90.858"/>
        <polygon class="cls-20" points="117.616 85.917 117.616 89.446 127.849 85.917 127.849 82.036 117.616 85.917"/>
        <line class="cls-5" x1="117.616" y1="91.387" x2="127.584" y2="87.594"/>
        <line class="cls-5" x1="117.616" y1="92.798" x2="127.584" y2="89.005"/>
        <line class="cls-5" x1="117.616" y1="94.21" x2="127.584" y2="90.416"/>
        <line class="cls-5" x1="117.616" y1="95.621" x2="127.584" y2="91.828"/>
        <line class="cls-5" x1="117.616" y1="97.033" x2="127.584" y2="93.239"/>
        <path class="cls-37" d="M116.792,135.495l-17.526-19.878,42.58-16.585,21.407,17.526s-28.935,14.938-46.461,18.937Z"/>
        <polygon class="cls-23" points="110.029 116.441 140.67 104.325 149.256 111.853 118.204 124.674 110.029 116.441"/>
      </g>
      <path class="cls-33" d="M146.463,130.732s-12.791-4.411-14.115-6.44-1.542-7.851-1.5-14.556c.011-1.685-1.059-1.411-1.059-1.411l-.618,2.205-10.939-.441s-.441,.618,0,.882,5.117,2.029,5.117,2.029l-10.498-.088s-1.764,.265-.882,1.147,1.5,1.147,1.5,1.147c0,0-1.235-.265-1.323,.441s.176,1.059,2.029,1.588,5.469,2.285,5.469,2.285l-7.41,.626s-1.641,1.059-.512,1.588,8.275,.441,9.51,1.323,3.088,3.264,3.088,3.264c0,0,.768,1.323,4.574,2.029,3.806,.706,15.275,7.587,15.275,7.587,0,0,2.47-1.147,2.294-5.205Z"/>
      <path class="cls-42" d="M175.486,115.999s-17.643-7.322-20.114-10.321-5.999-6.705-5.999-6.705c0,0-1.853-1.5-2.558,0s-4.587,5.293-6.263,5.999-1.323,1.588,0,1.5,5.117-1.676,6.352-1.147,2.735,2.647,2.647,3.529-1.482,2.735-3.079,1.764-4.067-2.117-5.302-1.764,.618,1.411,.618,1.411c0,0,3.547,1.853,4.685,3.705s4.049,.353,4.049,.353c0,0,2.382-2.823,8.557,.529s11.556,7.27,11.556,7.27c0,0,3.088-1.536,4.852-6.123Z"/>
      <path class="cls-41" d="M201.775,82.389s1.411,12.791-3.352,16.497-9.88,6.352-9.969,6.616,4.234,11.204,10.763,13.321c6.528,2.117,17.379-6.528,17.379-6.528l-3.705-36.169-11.115,6.263Z"/>
      <path class="cls-36" d="M199.569,51.777s-5.734,2.647-8.645,8.822c-1.076,2.282-7.234,5.734-9.527,6.616,0,0,5.558,2.47,6.087,4.852s.706,11.115,.706,11.115c0,0-.441,1.147,4.146,.882,4.587-.265,19.849-.265,25.495-8.381s-18.261-23.907-18.261-23.907Z"/>
      <path class="cls-17" d="M197.717,52.395c0,9.969,8.028,20.29,8.028,20.29,1.059-1.588,5.117-4.323,5.822-1.853s-4.058,3.705-4.058,3.705l3.617,5.911s.618,1.147,5.734-2.382,9.63-11.397,10.512-14.573,1.485-6.423-.015-8.893c-.963-1.586-1.093-2.3-3.138-3.518,0,0-3.853-2.603-12.646-2.105s-11.3,2.105-11.3,2.105c-1.577,.748-2.557,1.313-2.557,1.313Z"/>
      <path class="cls-2" d="M194.365,57.953s1.853,.97,2.029,5.734"/>
      <path class="cls-2" d="M188.719,63.687s3.088,.618,3.264,5.469"/>
      <line class="cls-2" x1="188.038" y1="77.147" x2="191.365" y2="79.478"/>
      <path class="cls-29" d="M206.362,115.999c-5.381,1.5-9.792,.441-12.791-4.587s-2.735-7.234-2.735-8.822l-11.204,4.284-4.587,16.8-6.793,4.764s.97,5.381,8.998,9.88c0,0,1.588,14.115,.265,17.467-.903,2.288-5.995,6.053-9.139,8.215h27.287c.161-3.819,.731-11.105,2.76-14.655,2.823-4.94,20.966-27.223,20.966-27.223-.323-.389-5.44-13.357-5.44-13.357,0,0-2.205,5.734-7.587,7.234Z"/>
      <path class="cls-13" d="M179.632,106.874s11.909,1.186,7.146,17.153c0,0-22.319,11.468-27.171,17.291,0,0-2.294,3.352-7.322,0s-9.439-5.381-9.439-5.381c0,0,2.753-2.205,3.626-5.999l10.983,3.46s18.031-16.251,22.178-26.523Z"/>
      <path class="cls-17" d="M215.625,82.389s-3.264,7.763,4.499,19.143,1.877,25.23-2.59,28.406c0,0,1.973-8.998-4.997-17.643s-2.527-25.583,.457-28.759,2.631-1.147,2.631-1.147Z"/>
      <path class="cls-21" d="M209.979,80.626c.088-.178,4.411-4.236,8.822-3.354,0,0,1.323,4.852,0,6.528,0,0-5.382,2.534-7.322,2.281s-1.499-5.456-1.499-5.456Z"/>
      <polygon class="cls-11" points="204.395 164 210.183 164 213.508 149.963 206.539 153.051 204.395 164"/>
      <path class="cls-6" d="M195.335,129.056s11.115-8.507,25.054-9.899,7.851,18.192,6.793,20.485-10.851,15.869-29.641,20.114l-2.205-30.7Z"/>
      <path class="cls-7" d="M187.903,155.697s-1.919-19.849,7.432-26.642,5.805,20.461,5.293,22.672-1.337,8.557-6.006,9.175-6.598-3.175-6.719-5.205Z"/>
      <path class="cls-26" d="M182.544,77.147s-14.446,1.007-15.075-1.021-.275-7.851-3.275-6.969-3.352,4.411-2.823,5.822c0,0-4.823,.25-4.794,2.418s1.265,3.813,3.911,4.226c0,0-1.941,4.294,.882,4.118s2.668-1.059,6.098-2.823,15.075-5.771,15.075-5.771Z"/>
    </g>
  </g>
  <rect class="cls-1" width="239" height="160"/>
  <g class="cls-24">
    <g>
      <g>
        <polygon class="cls-39" points="71.804 49.142 70.224 40.256 58.968 32.95 56.401 48.155 72.416 58.145 71.804 49.142"/>
        <path class="cls-10" d="M34.106,52.493l22.295-4.338,15.205,12.046,5.455-5.862,12.574,3.853,8.2,17.08-7.102,23.41,.192,10.749,.428,23.929H42.259l.296-23.587c-.969,.629-1.166-31.675-3.309-35.65-1.517-2.813-15.488,2.581-20.185,4.506-1.423,.583,16.241,20.053,16.241,20.053-1.394,.719-3.06,4.518-4.379,5.139,0,0-19.981-15.463-25.812-28.549-1.279-2.87,.145-2.846,.145-2.846l28.85-19.933Z"/>
        <path class="cls-14" d="M68.94,62.472v22.709l10.762,.592s-2.389-15.773-6.517-22.61l-4.246-.691Z"/>
        <path class="cls-9" d="M66.571,59.51c.296-.395,2.986-4.418,2.986-4.418l3.63,2.839v5.233l-4.344,.494-2.271-4.147Z"/>
        <path class="cls-43" d="M84.047,10.57s7.504,21.006-8.096,34.237c-3.012,2.555-9.281-.79-9.281-.79,0,0-15.205-13.033-13.231-23.894,1.975-10.861,14.415-14.02,14.415-14.02,0,0,11.479-1.066,16.193,4.468Z"/>
        <path class="cls-32" d="M57.306,35.701l-8.409-15.594s-2.567-4.062,1.382-12.426c.775-1.641,5.134-2.172,5.134-2.172,0,0-.255-3.018,1.991-5.187l18.713-.323c2.689,1.24,7.472,3.267,15.235,.375,0,0-1.975,3.554-5.529,4.344,0,0,5.529,6.772,2.506,13.502,0,0-.531-5.875-4.283-7.652l1.017,3.93s-10.846-2.593-13.61-6.345l4.665,5.528s-13.227-.506-16.584-3.665c0,0,.229,4.716-2.359,7.927-.774,.961-.197,6.194-.197,6.194,0,0-3.63-9.091-3.453-2.524,.164,6.078,2.136,4.864,2.136,4.864l1.645,9.223Z"/>
        <polygon class="cls-12" points="53.262 48.815 56.797 45.81 69.556 55.091 66.077 64.94 53.262 48.815"/>
        <path class="cls-8" d="M77.061,54.338l-5.258-5.196c0,2.586-2.247,5.949-2.247,5.949l5.9,8.072,1.604-8.824Z"/>
      </g>
      <path class="cls-3" d="M83.59,19.374s-5.184-.153-7.059-2.727c0,0-2.168,7.529,3.454,8.54,0,0-1.648,1.392-3.107,3.179"/>
      <path class="cls-3" d="M71.453,17.052s-3.251,1.388-5.397,.827"/>
      <path class="cls-3" d="M77.915,33.842s-1.448,.561-3.593,0"/>
      <path class="cls-4" d="M70.687,22.401s-1.049,2.404-4.61,1.258"/>
      <path class="cls-4" d="M78.807,21.503s.174,1.58,3.967,1.927"/>
      <path class="cls-35" d="M48.88,49.618s5.817,6.534,10.25,16.601c1.204,2.733,22.596,3.589,23.644-.227s-3.812-10.901-3.812-10.901l4.019,1.061s2.978,4.043,5.18,11.419c1.145,3.834,5.83,42.015,5.923,46.001v19.786H39.89v-23.883s18.373-5.546,14.14-42.71c-.768-6.746-9.294-16.342-9.294-16.342l4.144-.806Z"/>
      <path class="cls-25" d="M83.921,33.679s18.27,1.274,19.065-1.292c.794-2.566,.348-9.93,4.141-8.814,3.793,1.116,4.24,5.578,3.57,7.364,0,0,6.1,.316,6.062,3.059-.038,2.743-1.6,4.822-4.947,5.345,0,0,2.455,5.431-1.116,5.208s-3.374-1.339-7.712-3.57-19.065-7.299-19.065-7.299Z"/>
      <path class="cls-40" d="M38.935,102.48s8.11,2.403,8.605,3.394-5.302,.57-6.623,.405-1.027,10.405-1.027,10.405c0,0-4.258,1.473-7.726-9.084l-1.241-3.778,4.379-5.139s1.651,2.973,3.633,3.798Z"/>
    </g>
  </g>
</svg>