<?xml version="1.0" encoding="UTF-8"?>
<svg id="_イヤー_1" data-name="レイヤー 1" xmlns="http://www.w3.org/2000/svg" width="168.608mm" height="56.444mm" xmlns:xlink="http://www.w3.org/1999/xlink" viewBox="0 0 477.944 160">
  <defs>
    <style>
      .cls-1 {
        fill: url(#_称未設定グラデーション_102);
      }

      .cls-2 {
        fill: url(#_称未設定グラデーション_108);
      }

      .cls-3 {
        fill: url(#_称未設定グラデーション_129);
      }

      .cls-4 {
        fill: url(#_称未設定グラデーション_114);
      }

      .cls-5 {
        fill: url(#_称未設定グラデーション_196);
      }

      .cls-6 {
        fill: url(#_称未設定グラデーション_141);
      }

      .cls-7 {
        fill: url(#_称未設定グラデーション_149);
      }

      .cls-8 {
        fill: url(#_称未設定グラデーション_306);
      }

      .cls-9 {
        fill: url(#_称未設定グラデーション_551);
      }

      .cls-10 {
        fill: url(#_称未設定グラデーション_282);
      }

      .cls-11 {
        fill: url(#_称未設定グラデーション_133);
        opacity: .51;
      }

      .cls-12 {
        fill: #6a3906;
      }

      .cls-13 {
        fill: #ea5514;
      }

      .cls-14 {
        fill: #fffbc7;
      }

      .cls-15 {
        fill: #7d5c47;
      }

      .cls-16 {
        fill: #8ac995;
      }

      .cls-17 {
        fill: #231815;
      }

      .cls-18 {
        fill: url(#_称未設定グラデーション_27-2);
      }

      .cls-19 {
        fill: url(#_称未設定グラデーション_27-3);
      }

      .cls-20 {
        fill: url(#_称未設定グラデーション_99-2);
      }

      .cls-21, .cls-22, .cls-23, .cls-24, .cls-25, .cls-26, .cls-27, .cls-28, .cls-29, .cls-30 {
        fill: none;
      }

      .cls-21, .cls-22, .cls-23, .cls-24, .cls-25, .cls-27, .cls-30 {
        stroke-linecap: round;
      }

      .cls-21, .cls-22, .cls-24, .cls-25, .cls-26, .cls-27, .cls-28, .cls-29, .cls-30 {
        stroke-miterlimit: 10;
      }

      .cls-21, .cls-24, .cls-29 {
        stroke: #c30d23;
      }

      .cls-22, .cls-25, .cls-26, .cls-27 {
        stroke: #231815;
      }

      .cls-23 {
        stroke: #6a3906;
        stroke-linejoin: round;
      }

      .cls-23, .cls-25 {
        stroke-width: .798px;
      }

      .cls-24 {
        stroke-width: 1.595px;
      }

      .cls-31 {
        fill: #fff;
        opacity: .34;
      }

      .cls-26, .cls-30 {
        stroke-width: 2px;
      }

      .cls-27 {
        stroke-width: 2.393px;
      }

      .cls-28 {
        stroke: #00a29a;
      }

      .cls-30 {
        stroke: #fac12c;
      }

      .cls-32 {
        fill: #fac12c;
        filter: url(#drop-shadow-1);
      }

      .cls-33 {
        fill: url(#_称未設定グラデーション_88);
      }

      .cls-34 {
        fill: url(#_称未設定グラデーション_87);
      }

      .cls-35 {
        fill: url(#_称未設定グラデーション_99);
      }

      .cls-36 {
        fill: url(#_称未設定グラデーション_62);
      }

      .cls-37 {
        fill: url(#_称未設定グラデーション_63);
      }

      .cls-38 {
        fill: url(#_称未設定グラデーション_27);
      }

      .cls-39 {
        fill: url(#_称未設定グラデーション_73);
      }

      .cls-40 {
        fill: url(#_称未設定グラデーション_282-2);
      }

      .cls-41 {
        fill: url(#_称未設定グラデーション_282-3);
      }

      .cls-42 {
        fill: url(#_称未設定グラデーション_306-2);
      }

      .cls-43 {
        fill: url(#_称未設定グラデーション_306-3);
      }

      .cls-44 {
        fill: url(#_称未設定グラデーション_141-3);
      }

      .cls-45 {
        fill: url(#_称未設定グラデーション_141-2);
      }
    </style>
    <linearGradient id="_称未設定グラデーション_27" data-name="名称未設定グラデーション 27" x1="251.364" y1="85.371" x2="241.568" y2="102.338" gradientTransform="matrix(1, 0, 0, 1, 0, 0)" gradientUnits="userSpaceOnUse">
      <stop offset="0" stop-color="#76bf9d"/>
      <stop offset=".31" stop-color="#47a185"/>
      <stop offset=".611" stop-color="#208872"/>
      <stop offset=".851" stop-color="#087966"/>
      <stop offset="1" stop-color="#007462"/>
    </linearGradient>
    <filter id="drop-shadow-1" filterUnits="userSpaceOnUse">
      <feOffset dx="-1.417" dy="1.417"/>
      <feGaussianBlur result="blur" stdDeviation="0"/>
      <feFlood flood-color="#7e3321" flood-opacity=".75"/>
      <feComposite in2="blur" operator="in"/>
      <feComposite in="SourceGraphic"/>
    </filter>
    <radialGradient id="_称未設定グラデーション_62" data-name="名称未設定グラデーション 62" cx="278.088" cy="44.146" fx="278.088" fy="44.146" r="26.615" gradientTransform="matrix(1, 0, 0, 1, 0, 0)" gradientUnits="userSpaceOnUse">
      <stop offset="0" stop-color="#fffbcb"/>
      <stop offset=".044" stop-color="#fcf8c7"/>
      <stop offset=".354" stop-color="#ede9b4"/>
      <stop offset=".67" stop-color="#e4e0a8"/>
      <stop offset="1" stop-color="#e1dea5"/>
    </radialGradient>
    <linearGradient id="_称未設定グラデーション_63" data-name="名称未設定グラデーション 63" x1="281.815" y1="1.596" x2="281.815" y2="21.298" gradientTransform="matrix(1, 0, 0, 1, 0, 0)" gradientUnits="userSpaceOnUse">
      <stop offset="0" stop-color="#fffbcb"/>
      <stop offset=".044" stop-color="#fcf8c7"/>
      <stop offset=".354" stop-color="#ede9b4"/>
      <stop offset=".67" stop-color="#e4e0a8"/>
      <stop offset="1" stop-color="#e1dea5"/>
    </linearGradient>
    <linearGradient id="_称未設定グラデーション_73" data-name="名称未設定グラデーション 73" x1="90.939" y1="69.568" x2="90.939" y2="90.485" gradientTransform="matrix(1, 0, 0, 1, 0, 0)" gradientUnits="userSpaceOnUse">
      <stop offset="0" stop-color="#ef7d4d"/>
      <stop offset=".176" stop-color="#ee8052"/>
      <stop offset=".405" stop-color="#ed8b62"/>
      <stop offset=".662" stop-color="#ec9d7d"/>
      <stop offset=".94" stop-color="#eab6a2"/>
      <stop offset="1" stop-color="#eabdac"/>
    </linearGradient>
    <linearGradient id="_称未設定グラデーション_102" data-name="名称未設定グラデーション 102" x1="137.958" y1="93.166" x2="47.616" y2="145.325" gradientTransform="matrix(1, 0, 0, 1, 0, 0)" gradientUnits="userSpaceOnUse">
      <stop offset="0" stop-color="#fffde5"/>
      <stop offset=".059" stop-color="#f8f8df"/>
      <stop offset=".478" stop-color="#cddcb9"/>
      <stop offset=".805" stop-color="#b3cba1"/>
      <stop offset="1" stop-color="#aac599"/>
    </linearGradient>
    <linearGradient id="_称未設定グラデーション_129" data-name="名称未設定グラデーション 129" x1="111.752" y1="88.297" x2="71.002" y2="88.297" gradientTransform="matrix(1, 0, 0, 1, 0, 0)" gradientUnits="userSpaceOnUse">
      <stop offset="0" stop-color="#eaf2cb"/>
      <stop offset=".444" stop-color="#b2d2a7"/>
      <stop offset=".81" stop-color="#8bbb8d"/>
      <stop offset="1" stop-color="#7cb384"/>
    </linearGradient>
    <linearGradient id="_称未設定グラデーション_133" data-name="名称未設定グラデーション 133" x1="93.252" y1="145.558" x2="93.252" y2="87.892" gradientTransform="matrix(1, 0, 0, 1, 0, 0)" gradientUnits="userSpaceOnUse">
      <stop offset="0" stop-color="#eaf2cb"/>
      <stop offset=".077" stop-color="#d8e7bf"/>
      <stop offset=".249" stop-color="#b7d4aa"/>
      <stop offset=".425" stop-color="#9dc699"/>
      <stop offset=".606" stop-color="#8abb8d"/>
      <stop offset=".794" stop-color="#7fb586"/>
      <stop offset="1" stop-color="#7cb384"/>
    </linearGradient>
    <linearGradient id="_称未設定グラデーション_27-2" data-name="名称未設定グラデーション 27" x1="282.954" y1="49.962" x2="269.111" y2="73.939" xlink:href="#_称未設定グラデーション_27"/>
    <linearGradient id="_称未設定グラデーション_27-3" data-name="名称未設定グラデーション 27" x1="214.954" y1="49.962" x2="201.111" y2="73.939" xlink:href="#_称未設定グラデーション_27"/>
    <linearGradient id="_称未設定グラデーション_88" data-name="名称未設定グラデーション 88" x1="117.046" y1="47.834" x2="67.338" y2="47.834" gradientTransform="matrix(1, 0, 0, 1, 0, 0)" gradientUnits="userSpaceOnUse">
      <stop offset="0" stop-color="#ef7d4d"/>
      <stop offset=".547" stop-color="#f1a481"/>
      <stop offset="1" stop-color="#f3c7b0"/>
    </linearGradient>
    <linearGradient id="_称未設定グラデーション_87" data-name="名称未設定グラデーション 87" x1="89.565" y1="46.36" x2="89.565" y2="10.327" gradientTransform="matrix(1, 0, 0, 1, 0, 0)" gradientUnits="userSpaceOnUse">
      <stop offset="0" stop-color="#231815"/>
      <stop offset="1" stop-color="#4c4948"/>
    </linearGradient>
    <linearGradient id="_称未設定グラデーション_99" data-name="名称未設定グラデーション 99" x1="106.303" y1="150.11" x2="106.303" y2="134.744" gradientTransform="matrix(1, 0, 0, 1, 0, 0)" gradientUnits="userSpaceOnUse">
      <stop offset="0" stop-color="#f29871"/>
      <stop offset=".069" stop-color="#f29f7b"/>
      <stop offset=".265" stop-color="#f2b092"/>
      <stop offset=".474" stop-color="#f2bda3"/>
      <stop offset=".705" stop-color="#f2c4ac"/>
      <stop offset="1" stop-color="#f3c7b0"/>
    </linearGradient>
    <linearGradient id="_称未設定グラデーション_99-2" data-name="名称未設定グラデーション 99" x1="109.976" y1="143.487" x2="73.45" y2="143.487" xlink:href="#_称未設定グラデーション_99"/>
    <linearGradient id="_称未設定グラデーション_108" data-name="名称未設定グラデーション 108" x1="66.26" y1="119.403" x2="31.413" y2="139.521" gradientTransform="matrix(1, 0, 0, 1, 0, 0)" gradientUnits="userSpaceOnUse">
      <stop offset="0" stop-color="#fffde5"/>
      <stop offset=".052" stop-color="#f8f8df"/>
      <stop offset=".416" stop-color="#cddcb9"/>
      <stop offset=".701" stop-color="#b3cba1"/>
      <stop offset=".871" stop-color="#aac599"/>
    </linearGradient>
    <linearGradient id="_称未設定グラデーション_114" data-name="名称未設定グラデーション 114" x1="151.89" y1="117.163" x2="108.187" y2="142.395" gradientTransform="matrix(1, 0, 0, 1, 0, 0)" gradientUnits="userSpaceOnUse">
      <stop offset="0" stop-color="#fffde5"/>
      <stop offset=".171" stop-color="#f4f6db"/>
      <stop offset=".463" stop-color="#d9e4c3"/>
      <stop offset=".839" stop-color="#aec79c"/>
      <stop offset=".871" stop-color="#aac599"/>
    </linearGradient>
    <linearGradient id="_称未設定グラデーション_551" data-name="名称未設定グラデーション 551" x1="387.534" y1="64.141" x2="387.534" y2="95.708" gradientTransform="matrix(1, 0, 0, 1, 0, 0)" gradientUnits="userSpaceOnUse">
      <stop offset="0" stop-color="#531f09"/>
      <stop offset=".584" stop-color="#823d2c"/>
      <stop offset="1" stop-color="#a05143"/>
    </linearGradient>
    <linearGradient id="_称未設定グラデーション_141" data-name="名称未設定グラデーション 141" x1="387.972" y1="92.733" x2="412.323" y2="92.733" gradientTransform="matrix(1, 0, 0, 1, 0, 0)" gradientUnits="userSpaceOnUse">
      <stop offset="0" stop-color="#ef7d4d"/>
      <stop offset=".382" stop-color="#f29974"/>
      <stop offset="1" stop-color="#f8c4b0"/>
    </linearGradient>
    <linearGradient id="_称未設定グラデーション_282" data-name="名称未設定グラデーション 282" x1="394.923" y1="144.958" x2="394.923" y2="90.529" gradientTransform="matrix(1, 0, 0, 1, 0, 0)" gradientUnits="userSpaceOnUse">
      <stop offset="0" stop-color="#e66f72"/>
      <stop offset=".266" stop-color="#e97c7b"/>
      <stop offset=".766" stop-color="#f1a193"/>
      <stop offset="1" stop-color="#f6b5a0"/>
    </linearGradient>
    <linearGradient id="_称未設定グラデーション_149" data-name="名称未設定グラデーション 149" x1="407.448" y1="81.153" x2="407.448" y2="30.917" gradientTransform="matrix(1, 0, 0, 1, 0, 0)" gradientUnits="userSpaceOnUse">
      <stop offset="0" stop-color="#ef7d4d"/>
      <stop offset=".029" stop-color="#f19470"/>
      <stop offset=".29" stop-color="#f3a687"/>
      <stop offset="1" stop-color="#fbd8c3"/>
    </linearGradient>
    <linearGradient id="_称未設定グラデーション_196" data-name="名称未設定グラデーション 196" x1="412.129" y1="94.684" x2="412.129" y2="21.945" gradientTransform="matrix(1, 0, 0, 1, 0, 0)" gradientUnits="userSpaceOnUse">
      <stop offset="0" stop-color="#4e2913"/>
      <stop offset="1" stop-color="#af523b"/>
    </linearGradient>
    <linearGradient id="_称未設定グラデーション_306" data-name="名称未設定グラデーション 306" x1="399.291" y1="114.225" x2="399.291" y2="88.538" gradientTransform="matrix(1, 0, 0, 1, 0, 0)" gradientUnits="userSpaceOnUse">
      <stop offset="0" stop-color="#e02045"/>
      <stop offset=".255" stop-color="#e33850"/>
      <stop offset=".791" stop-color="#ec766f"/>
      <stop offset="1" stop-color="#f0907c"/>
    </linearGradient>
    <linearGradient id="_称未設定グラデーション_282-2" data-name="名称未設定グラデーション 282" x1="366.021" x2="366.021" y2="111.874" xlink:href="#_称未設定グラデーション_282"/>
    <linearGradient id="_称未設定グラデーション_141-2" data-name="名称未設定グラデーション 141" x1="390.477" y1="103.948" x2="377.947" y2="82.247" xlink:href="#_称未設定グラデーション_141"/>
    <linearGradient id="_称未設定グラデーション_306-2" data-name="名称未設定グラデーション 306" x1="375.267" y1="116.343" x2="375.267" y2="105.407" xlink:href="#_称未設定グラデーション_306"/>
    <linearGradient id="_称未設定グラデーション_282-3" data-name="名称未設定グラデーション 282" x1="202.018" y1="168.433" x2="202.018" y2="133.539" gradientTransform="translate(153.301 162.704) rotate(-41.57)" xlink:href="#_称未設定グラデーション_282"/>
    <linearGradient id="_称未設定グラデーション_141-3" data-name="名称未設定グラデーション 141" x1="294.526" y1="174.536" x2="294.526" y2="149.957" gradientTransform="translate(43.983 52.515) rotate(-15.932)" xlink:href="#_称未設定グラデーション_141"/>
    <linearGradient id="_称未設定グラデーション_306-3" data-name="名称未設定グラデーション 306" x1="192.142" y1="137.514" x2="192.142" y2="128.117" gradientTransform="translate(153.301 162.704) rotate(-41.57)" xlink:href="#_称未設定グラデーション_306"/>
  </defs>
  <rect class="cls-16" y="0" width="477.944" height="160"/>
  <path class="cls-14" d="M326.517,0H159.902c-13.374,12.368-21.319,27.801-21.319,44.543,0,40.664,46.843,73.628,104.627,73.628s104.627-32.965,104.627-73.628c0-16.741-7.945-32.174-21.319-44.543Z"/>
  <rect class="cls-15" y="144.816" width="477.944" height="15.184"/>
  <path class="cls-38" d="M244.018,81.13l9.796,16.967h-19.593l9.797-16.967Z"/>
  <polyline class="cls-28" points="208.97 71.11 208.97 80 278.13 80 278.13 69.568"/>
  <g>
    <rect class="cls-32" x="186.789" y="24.987" width="53.83" height="35.106" rx="4.338" ry="4.338" transform="translate(-1.441 77.059) rotate(-20.373)"/>
    <g>
      <path class="cls-13" d="M196.566,31.525l2.114-.052c-.012,1.256-.072,2.474-.181,3.651l3.659,9.854-1.755,.652-2.435-6.555c-.114,.669-.25,1.317-.403,1.943-.507-.87-1.011-1.571-1.515-2.1,.436-1.801,.606-4.266,.515-7.394Zm2.212-.156l7.619-2.83,1.85,4.979-2.925,1.086,.412,1.11,4.034-1.498,.585,1.575-3.165,1.175c.727,.424,1.397,.744,2.012,.959,.778,.349,1.744,.605,2.896,.769-.373,.65-.59,1.26-.651,1.83-1.262-.18-2.297-.49-3.109-.928-.47-.225-.957-.493-1.46-.807l1.471,3.961-1.755,.651-1.504-4.05c-.19,.56-.383,1.053-.577,1.477-.501,1.073-1.066,2.018-1.697,2.832-.328-.515-.806-.958-1.432-1.328,.871-.96,1.643-2.316,2.312-4.067l-3,1.114-.584-1.575,3.869-1.437-.412-1.11-2.94,1.092-1.849-4.979Zm7.146,1.271l-.719-1.936-4.109,1.526,.719,1.935,4.109-1.526Z"/>
      <path class="cls-13" d="M210.432,27.042l3.03-1.125,.066-.094,1.644,.517-.421,3.279c1.235-1.665,1.972-3.622,2.205-5.871l2.011-.149c-.028,.17-.057,.339-.084,.508,1.076,.603,2.039,1.002,2.886,1.199,1.032,.299,1.968,.459,2.806,.478-.374,.525-.59,1.139-.646,1.844-.609-.047-1.183-.152-1.723-.316l.224,.601-1.59,.59c.097,.26,.186,.517,.27,.77l2.714-1.008,1.415,3.81-2.31,.858c.703,.363,1.344,.633,1.921,.805,.802,.26,1.661,.413,2.577,.46-.439,.686-.678,1.35-.713,1.987-.964-.142-1.826-.379-2.585-.711-.726-.299-1.438-.684-2.136-1.153-.018,.166-.045,.324-.08,.474-.346,1.459-1.312,2.859-2.896,4.198-.36-.481-.825-.889-1.394-1.223,1.36-1.086,2.168-2.16,2.424-3.221,.047-.177,.083-.373,.105-.585l-2.114,.785-1.415-3.81,2.775-1.031c-.083-.253-.168-.512-.254-.775l-1.756,.651-.217-.585c-.309,.547-.648,1.071-1.02,1.573-.438-.35-.923-.613-1.455-.791l-.129,.987c.988,.576,1.721,1.169,2.197,1.777,.419,.55,.727,1.085,.919,1.604,.142,.38,.169,.774,.081,1.182-.08,.395-.256,.721-.523,.98-.311,.297-.796,.568-1.456,.813-.168-.575-.534-1.087-1.1-1.538l.825-.306c.329-.123,.469-.283,.418-.48-.182-.49-.504-1.019-.965-1.587-.479-.585-1.099-1.15-1.859-1.699l3.002,8.084-1.635,.607-4.852-13.063,.811-.301Zm2.507,4.224l.2-3.506-1.32,.49,1.12,3.016Zm4.76-3.133l3.329-1.236c-.752-.278-1.584-.651-2.498-1.121-.215,.831-.492,1.616-.831,2.357Zm2.365,4.396c-.067-.396-.159-.828-.276-1.297l-1.05,.39,.456,1.23,.87-.323Zm3.06-1.136l-.457-1.23-1.17,.435c.125,.455,.227,.884,.309,1.286l1.318-.49Z"/>
      <path class="cls-13" d="M200.757,50.902l5.864-2.178,.439,1.185c.791-1.363,1.26-2.92,1.407-4.669l1.95-.127c-.016,.142-.037,.286-.062,.432,.725,.481,1.409,.871,2.054,1.166,.731,.377,1.687,.666,2.865,.864-.215,.616-.316,1.25-.301,1.903-.647-.088-1.438-.335-2.373-.739-.719-.279-1.58-.728-2.582-1.345-.415,1.61-1.062,3.052-1.945,4.323-.499-.395-1.049-.68-1.648-.856,.174-.235,.337-.472,.487-.71l-5.655,2.1-.501-1.35Zm.046-2.219l4.395-1.632,.502,1.35-4.395,1.632-.502-1.35Zm1.4,3.953l4.395-1.632,.457,1.229-4.396,1.632-.456-1.229Zm.713,1.919l4.395-1.632,.463,1.245-4.396,1.632-.462-1.245Zm5.23,5.26l-1.471,.546,.307,.825-1.636,.607-1.916-5.16,4.741-1.76,1.832,4.934-1.635,.607-.223-.6Zm-1.087-2.925l-1.47,.546,.59,1.59,1.471-.546-.591-1.59Zm3.687-8.042l1.732,.756c-.674,1.832-1.715,3.396-3.122,4.692-.28-.386-.706-.756-1.282-1.111,1.32-1.344,2.212-2.789,2.672-4.337Zm2.39,1.792l1.664,.713c-.978,2.115-2.405,3.955-4.282,5.517-.29-.382-.718-.752-1.284-1.111,1.861-1.636,3.163-3.342,3.902-5.119Zm2.294,1.674l1.889,.442c-.842,1.78-1.758,3.202-2.751,4.264-1.071,1.16-2.181,2.112-3.326,2.856-.425-.501-.91-.902-1.453-1.201,1.593-1.104,2.763-2.106,3.507-3.009,.694-.77,1.405-1.887,2.135-3.353Z"/>
      <path class="cls-13" d="M221.25,40.544l1.875-.696,.396,1.065,5.099-1.894,.54,1.454-5.265,1.955,.982-.022c-.056,.249-.119,.494-.188,.735l4.455-1.654,.479,1.29-1.095,.406,1.446,.539c-.131,.321-.271,.618-.42,.89,.583,.068,1.237,.086,1.965,.055-.344,.697-.491,1.31-.443,1.837-.604,.031-1.221-.007-1.852-.114l1.002,2.699-.795,.295c.516,.162,1.009,.28,1.48,.355,.493,.101,1.158,.132,1.998,.094-.184,.546-.267,1.106-.247,1.679-.479,.029-1.055-.006-1.729-.109-.645-.08-1.438-.269-2.379-.568l.728-1.396-1.575,.584,.675,1.815c.229,.62,.213,1.063-.052,1.333-.206,.271-.815,.593-1.825,.968-.192-.429-.538-.881-1.033-1.357l1.17-.435-.63-1.695-2.639,.98-.947-2.55c-.228,.369-.474,.716-.74,1.042-.271-.331-.596-.625-.976-.883,.771,2.934,.942,5.22,.516,6.857-.704-.455-1.411-.751-2.121-.885,.616-1.161,.723-2.744,.321-4.745l-.911,1.362-1.133-1.439c.502-.426,1.026-1.006,1.571-1.744-.11-.357-.235-.726-.377-1.106l-1.161,.96c-.488-.638-.988-1.203-1.501-1.696l1.067-1.079c.667,.663,1.196,1.262,1.59,1.799-.03-.114-.067-.225-.108-.336l-1.438-3.869,4.621-1.716-.396-1.065Zm-.667,8.27c.257-.38,.496-.775,.719-1.188-.257-.11-.551-.228-.883-.355l.534-1.273-.705,.262-.479-1.29,3-1.114c.097-.354,.187-.723,.272-1.108l-4.021,1.493,.896,2.415c.256,.748,.477,1.468,.666,2.159Zm.506-2.867c.324,.107,.61,.206,.86,.295,.106-.233,.205-.474,.294-.724l-1.154,.429Zm2.808,5.494l1.618,.406c-.633,1.236-1.383,2.266-2.249,3.087-.479-.402-.995-.717-1.546-.945,.461-.353,.824-.692,1.09-1.02,.306-.34,.668-.85,1.087-1.529Zm-.229-4.983l2.775-1.031c-.461-.261-.906-.586-1.334-.973l-.87,.323c-.18,.591-.37,1.15-.571,1.681Zm.209,1.85l3.689-1.37-.194-.524-3.689,1.37,.194,.524Zm4.28,.22l-.218-.585-3.689,1.37,.218,.585,3.689-1.37Zm-.256-4.274c.138-.301,.268-.628,.388-.98l-1.336,.496c.291,.2,.607,.361,.948,.484Z"/>
    </g>
  </g>
  <g>
    <ellipse class="cls-36" cx="278.088" cy="44.146" rx="27.25" ry="25.964"/>
    <path class="cls-37" d="M264.505,5.86s6.5-5.638,9.75,1.056c0,0,1.75-5.32,7.75-5.32s6.25,5.32,6.25,5.32c0,0,8.991-5.183,10.87,3.755,0,0-4.501,.895-10.12,9.313-2.028,3.039-17.167-.151-17.167-.151,0,0,.371-3.714-7.333-13.974Z"/>
    <path class="cls-30" d="M271.838,19.834s6.667,3.193,17.167,.151"/>
    <g>
      <path class="cls-13" d="M268.933,25.846l2.128,.432c-.128,.533-.31,1.077-.544,1.632h4.672v12.496h-2.128v-.752h-5.936v.816h-2.128v-12.561h3.376c.224-.629,.41-1.317,.56-2.063Zm-1.808,5.312h5.936v-1.504h-5.936v1.504Zm0,3.312h5.936v-1.633h-5.936v1.633Zm0,3.376h5.936v-1.633h-5.936v1.633Z"/>
      <path class="cls-13" d="M290.07,39.59h-8.129v.88h-2v-11.568h4.992v-2.624h1.872v2.624h5.265v11.504h-2v-.815Zm-5.137-6.305v-2.624h-2.992v2.624h2.992Zm-2.992,4.561h2.992v-2.816h-2.992v2.816Zm8.129-7.185h-3.265v2.624h3.265v-2.624Zm0,4.368h-3.265v2.816h3.265v-2.816Z"/>
      <path class="cls-13" d="M262.677,46.598h6.256v1.264c1.216-1.003,2.197-2.299,2.944-3.888l1.872,.56c-.064,.128-.134,.256-.208,.384,.512,.704,1.019,1.308,1.52,1.809,.555,.607,1.35,1.211,2.385,1.808-.416,.502-.731,1.062-.944,1.68-.576-.309-1.232-.815-1.968-1.52-.576-.512-1.228-1.232-1.952-2.16-.949,1.365-2.059,2.491-3.328,3.376-.331-.544-.747-1.002-1.248-1.376,.245-.16,.48-.325,.704-.496h-6.032v-1.439Zm3.824,10.928h-1.568v.88h-1.744v-5.504h5.057v5.264h-1.744v-.64Zm-3.072-8.8h4.688v1.312h-4.688v-1.312Zm0,2.048h4.688v1.328h-4.688v-1.328Zm.064-6.24h4.688v1.44h-4.688v-1.44Zm3.008,9.872h-1.568v1.696h1.568v-1.696Zm9.439-1.376l1.616,1.072c-1.408,1.376-2.763,2.39-4.063,3.04-1.408,.714-2.779,1.221-4.112,1.52-.224-.618-.539-1.162-.944-1.632,1.878-.479,3.323-1.013,4.336-1.6,.918-.48,1.974-1.28,3.168-2.4Zm-3.184-4.88l1.36,1.312c-1.27,1.483-2.79,2.587-4.561,3.312-.128-.459-.399-.954-.815-1.488,1.706-.8,3.045-1.845,4.016-3.136Zm1.616,2.512l1.312,1.248c-1.653,1.643-3.632,2.87-5.936,3.681-.139-.459-.411-.955-.816-1.488,2.314-.886,4.128-2.032,5.44-3.44Z"/>
      <path class="cls-13" d="M285.494,44.022h2v1.136h5.439v1.552h-5.616l.929,.32c-.139,.214-.283,.422-.433,.624h4.752v1.376h-1.168l1.168,1.008c-.234,.256-.469,.485-.703,.688,.522,.267,1.13,.512,1.823,.735-.565,.534-.917,1.057-1.056,1.568-.576-.182-1.142-.432-1.696-.752v2.88h-.848c.427,.331,.848,.613,1.264,.849,.427,.267,1.04,.527,1.84,.783-.362,.448-.635,.944-.815,1.488-.459-.139-.987-.373-1.584-.704-.576-.299-1.254-.752-2.032-1.36l1.168-1.056h-1.68v1.937c0,.661-.171,1.071-.513,1.231-.287,.182-.971,.272-2.048,.272-.031-.47-.197-1.014-.496-1.632h1.248v-1.809h-2.815v-2.72c-.342,.267-.693,.507-1.057,.72-.139-.405-.341-.794-.607-1.168-.299,3.019-.934,5.222-1.904,6.608-.501-.672-1.062-1.195-1.68-1.568,.981-.874,1.632-2.32,1.952-4.336l-1.328,.96-.561-1.744c.619-.224,1.312-.586,2.08-1.088,.021-.373,.032-.763,.032-1.168l-1.424,.496c-.235-.768-.507-1.472-.816-2.112l1.376-.64c.395,.854,.683,1.6,.864,2.24,.011-.117,.016-.234,.016-.353v-4.128h4.929v-1.136Zm-1.312,11.136l1.376,.944c-1.023,.938-2.085,1.643-3.184,2.111-.31-.544-.683-1.019-1.12-1.424,.555-.17,1.014-.362,1.376-.576,.405-.213,.923-.564,1.552-1.056Zm-2.191-3.616c.373-.267,.735-.554,1.088-.863-.203-.192-.438-.405-.704-.641l.943-1.008h-.752v-1.376h3.2c.214-.299,.427-.613,.641-.944h-4.288v2.576c-.021,.79-.064,1.542-.128,2.256Zm1.472-2.512c.267,.214,.501,.405,.704,.576,.181-.182,.357-.373,.528-.576h-1.232Zm1.792,3.184h3.936v-.56h-3.936v.56Zm3.936,1.696v-.624h-3.936v.624h3.936Zm-3.487-3.504h2.96c-.342-.405-.646-.864-.912-1.376h-.928c-.374,.491-.747,.949-1.12,1.376Zm4.735-.592c.234-.234,.47-.496,.704-.784h-1.424c.202,.288,.442,.55,.72,.784Z"/>
    </g>
  </g>
  <path class="cls-39" d="M81.752,70.11s-2.25,8.125-7.375,14.375c0,0,5.25,6,17.375,6s15.75-6.375,15.75-6.375c0,0-5.727-5.458-6.363-14.542l-19.387,.542Z"/>
  <path class="cls-1" d="M46.252,94.11s17-4.375,26.375-8.625c0,0,7.625,7.75,18.812,7,11.188-.75,17.813-7,17.813-7,0,0,16.5,7.125,29.25,8.624l-.875,51.251-89.125,1.5-2.25-52.75Z"/>
  <path class="cls-3" d="M75.093,82.485l-4.091,2.875s4.75,8.749,19.875,8.749,19.625-6.499,20.875-7.499l-4.5-3.5s-4.125,5.249-15.875,5.187-16.284-5.812-16.284-5.812Z"/>
  <path class="cls-11" d="M87.262,88.024s6.529,.734,9.634-.131l3.105,57.666h-13.5l.76-57.534Z"/>
  <path class="cls-18" d="M253.622,60.11c4.365,8.517,13.225,14.35,23.454,14.35s19.089-5.833,23.454-14.35h-46.908Z"/>
  <path class="cls-19" d="M185.622,60.11c4.365,8.517,13.225,14.35,23.454,14.35s19.089-5.833,23.454-14.35h-46.908Z"/>
  <path class="cls-33" d="M71.669,30.268s-.833,8.217,0,14.592c0,0-2.792-1.803-3.792-.714s-1.25,6.839,5.125,9.714c0,0,2,20.6,17.375,20.6s19.75-19.197,19.875-21.211c0,0,7.432-3.146,6.75-8.264-.5-3.75-5,.637-5,.637l.375-8.262s-1.458-15.5-15.542-16.062-23.5,1.379-25.167,8.97Z"/>
  <path class="cls-34" d="M71.002,34.814c-.217,.35-4.5-6.329-9.125-9.579,0,0,3.417-1.375,7.958,1.75,0,0-2.208-6.357-5.708-8.803,0,0,15-8.447,29.125-7.822s13.917,10.938,13.917,10.938c0,0,8.833,.062,9.958,9.562s-5.625,15.5-5.625,15.5l-.625-8.805s-10.766-5.464-13-13.07c0,0-1.083,2.375-1.042,6.625,0,0-3.333-3.777-2.708-7.388,0,0-15.875-.578-23.125,11.093Z"/>
  <path class="cls-17" d="M75.093,37.36s3.201-2.841,8.242-2.546c0,0-3.458-3.305-5.458-2.567s-2.784,5.113-2.784,5.113Z"/>
  <path class="cls-17" d="M99.752,34.75s6.484-1.432,6.859,2.318c0,0,.808-3.667-1.067-4.083-1.831-.407-2.542-.095-5.792,1.765Z"/>
  <path class="cls-22" d="M90.627,48.36s-.125,4.25-3,6.25l3,2.875"/>
  <g>
    <circle class="cls-31" cx="81.177" cy="46.711" r="7.45"/>
    <circle class="cls-29" cx="81.177" cy="46.711" r="7.45"/>
    <line class="cls-26" x1="81.177" y1="44.146" x2="81.177" y2="50.11"/>
  </g>
  <g>
    <circle class="cls-31" cx="101.177" cy="46.711" r="7.45"/>
    <circle class="cls-29" cx="101.177" cy="46.711" r="7.45"/>
    <line class="cls-26" x1="101.177" y1="44.146" x2="101.177" y2="50.11"/>
  </g>
  <line class="cls-29" x1="88.571" y1="47.611" x2="93.726" y2="47.611"/>
  <path class="cls-21" d="M83.939,63.048s5.626,4.438,15,.312"/>
  <path class="cls-35" d="M111.877,139.235l-5,1.25s-5.5-7.125-8.75-5.5l2,15.125h14.25s.875-9.625-2.5-10.875Z"/>
  <path class="cls-20" d="M75.877,139.86l8,.75s7.063-4.875,12.25-5.875c2.769-.534,4.5,.125,6.125,2.125s6.072,8.569,7.125,11.125c.906,2.199,2,3.875-6.75,4.375s-17.25-2.5-17.25-2.5l-11,1.125s-2.875-6.75,1.5-11.125Z"/>
  <path class="cls-2" d="M46.252,94.11s8.25-.375,8.625,12.75,.625,25.75,.625,25.75l22.375,6.914s-3.326,1.088-2.288,11.337c0,0-26.462,4.124-38.712-1.876,0,0-.5-15.406,9.375-54.875Z"/>
  <path class="cls-4" d="M138.502,94.109c.863-.152,3.75,18.876,6.5,27.376s5.625,21,5.75,27c0,0,.5,4.25-37.75,2.25,0,0,2.833-6.625-2.333-12.375,0,0,15.167-5.488,20.042-6,0,0-.708-36.752,7.792-38.251Z"/>
  <g>
    <path class="cls-9" d="M385.237,64.141s-1.588,19.506-11.293,30.913c0,0,16.3,2.055,20.414-1.122,0,0,7.102-13.682,6.755-16.634s-15.876-13.157-15.876-13.157Z"/>
    <path class="cls-6" d="M387.972,90.529s8.47-3.41,7.411-12.566l15.087-1.751s-5.558,8.949,1.853,14.746l-16.94,18.296-7.411-18.725Z"/>
    <path class="cls-10" d="M359.65,94.109s18.528-1.191,27.527-3.58c0,0,5.558,12.293,8.867,14.157,0,0,9.793-2.503,18.396-11.106,0,0,10.852,1.985,22.101,.265,1.592-.243,.662,51.114,.662,51.114h-84.832s6.75-24.91,7.279-50.849Z"/>
    <path class="cls-7" d="M421.94,69.581s-9.617,13.663-28.63,11.296c0,0-18.044-19.249-4.191-44.591,0,0,16.764-9.699,26.292-3.025,9.529,6.675,9.176,27.682,7.588,30.148,0,0,6.352-3.264,7.764-.975,1.412,2.29-3.529,8.294-8.823,7.147Z"/>
    <path class="cls-5" d="M387.001,39.128s13.72,2.081,27.439-2.842c0,0-.441,17.389,8.558,25.342l-3.529,4.996s6.177-6.387,10.853-3.215c0,0-1.193,6.348-9.64,5.995,0,0-2.933,5.978-11.469,9.573,0,0-3.154,6.889,3.11,11.981,1.861,1.512,2.534,2.475,5.029,3.018,5.906,1.285,13.94,.427,13.94,.427,0,0,0-21.588,2.382-32.776,1.5-7.046,5.598-21.616,2.382-29.905-1.141-2.942-7.688-14.028-34.056-8.021-5.448,1.241-13.764,9.677-14.999,15.426Z"/>
    <path class="cls-8" d="M412.191,89.874s5.161,3.573,5.161,4.103-3.441,12.176-9.132,20.249c0,0-1.985-7.256-5.161-9.54-1.743-1.254-6.352,.805-6.352,.805,0,0-4.5-2.779-5.558-2.647s-4.764,5.161-6.22,9.132c0,0-4.5-8.338-3.573-19.719l6.882-3.718s5.426,13.908,8.47,15.099c1.765,.69,10.985-6.882,15.484-13.764Z"/>
    <path class="cls-40" d="M376.193,144.958s.662-17.499,3.044-28.218c.552-2.485-5.426-6.22-9.661-4.367,0,0-14.425,25.865-16.808,32.586h23.425Z"/>
    <path class="cls-45" d="M372.559,105.755s6.546,.058,8.531,3.499c0,0,5.823-2.284,7.279-7.601,0,0,1.191-6.698-2.647-10.694,0,0,7.676-7.714,7.676-13.922,0-1.35-1.059-2.779-1.588-2.779s-1.985,5.558-6.75,9.926c-4.764,4.367-9.794,7.213-9.794,7.213,0,0-.661,7.734-2.707,14.359Z"/>
    <path class="cls-42" d="M369.444,112.769s6.352-2.25,10.058,3.573l1.588-7.089s-2.108-5.219-8.531-3.499l-3.115,7.014Z"/>
    <polygon class="cls-41" points="388.598 145.025 382.834 139.114 389.293 131.897 427.154 144.958 388.598 145.025"/>
    <path class="cls-44" d="M381.09,137.79l-6.69-6.493s-4.557,2.035-8.072,.653-5.84-3.101-5.84-3.101l-1.939,3.97s-.566-1.541-2.067-8.086c0,0,3.57-2.552,7.874-7.726,0,0,11.512,4.072,17.244,9.299,2.605,2.376,5.402,3.473,5.402,3.473l-5.911,8.012Z"/>
    <path class="cls-43" d="M384.109,141.808l-4.733-5.336s-1.355-2.395,5.759-8.056l5.404,3.768s-6.433,4.301-6.43,9.624Z"/>
    <circle class="cls-12" cx="395.504" cy="109.982" r="2.195"/>
    <circle class="cls-12" cx="394.357" cy="118.537" r="2.195"/>
    <path class="cls-24" d="M393.883,69.669s3-.088,4.5,3.353"/>
    <g>
      <path class="cls-27" d="M410.558,55.023s-.353,2.956-2.029,5.911"/>
      <path class="cls-25" d="M408.529,51.494s-.498,1.507,2.029,3.529"/>
    </g>
    <g>
      <path class="cls-27" d="M394.432,49.112s-.353,2.956-2.029,5.911"/>
      <path class="cls-25" d="M392.403,45.583s-.498,1.507,2.029,3.529"/>
    </g>
    <path class="cls-23" d="M392.363,43.201s1.52-2.823,7.784-1.323c0,0,1.059,9.617-1.412,12.352-1.848,2.046-2.647,3.264-5.426,3.176l1.613,5.029"/>
    <path class="cls-23" d="M409.544,45.583s4.49,.444,6.943,5.03"/>
  </g>
</svg>