<?xml version="1.0" encoding="UTF-8"?>
<svg id="_イヤー_1" data-name="レイヤー 1" xmlns="http://www.w3.org/2000/svg" width="68.858mm" height="6.188mm" viewBox="0 0 195.187 17.541">
  <defs>
    <style>
      .cls-1 {
        fill: #fff;
      }
    </style>
  </defs>
  <g>
    <rect class="cls-1" x="98.961" y="13.965" width="16.274" height="2.576"/>
    <polygon class="cls-1" points="31.948 14.605 31.948 9.487 36.783 9.487 36.783 7.336 31.948 7.336 31.948 2.487 38.272 2.487 38.272 .11 22.194 .11 22.194 2.487 28.516 2.487 28.516 7.336 23.678 7.336 23.678 9.487 28.516 9.487 28.516 14.605 21.556 14.605 21.556 16.968 38.906 16.968 38.906 14.605 31.948 14.605"/>
    <path class="cls-1" d="M5.355,3.567c-.398,4.209-2.598,8.065-5.355,9.766v3.871C5.936,13.739,6.981,6.22,7.044,3.567h-1.689Z"/>
    <path class="cls-1" d="M14.54,7.812c-.78-1.685-1.312-4.057-1.312-6.177C13.228,.323,11.731,.104,11.232,.104H7.145V2.572h3.651c.437,0,.407-.065,.407,.718,0,4.99,2.402,9.983,7.112,14.069v-5.022c-2.494-1.435-3.141-3.152-3.774-4.524Z"/>
    <path class="cls-1" d="M58.468,7.546h-5.742v-.578s2.953-2.421,3.527-2.868c1.31-1.031,1.184-3.989-1.531-3.989h-11.397V2.487h9.465c.279,0,.719,.02,.436,.426-.279,.406-2.121,2.872-2.121,2.872h-1.589v1.762h-8.237v2.153h8.237v4.696h-4.556v2.557h3.898c2.185,0,3.869-1.092,3.869-3.587v-3.666h5.742v-2.153Z"/>
    <path class="cls-1" d="M67.015,.104c0,4.852-2.558,6.303-5.025,7.271l.305,1.98c5.452-1.076,7.721-5.71,7.721-9.251h-3.001Z"/>
    <path class="cls-1" d="M75.305,3.991h-7.849V1.613h8.511c1.608,0,2.934,.515,2.934,2.174v2.401c0,2.98-1.767,6.522-4.43,8.364-3.658,2.525-8.431,2.783-10.422,2.198v-2.364c1.406,.211,3.997,.162,5.29-.233,3.463-1.054,5.545-4.141,5.966-6.341,.344-1.799,0-3.821,0-3.821Z"/>
    <path class="cls-1" d="M139.645,.104c0,4.852-2.56,6.303-5.023,7.271l.306,1.98c5.452-1.076,7.719-5.71,7.719-9.251h-3.001Z"/>
    <path class="cls-1" d="M147.936,3.991h-7.849V1.613h8.51c1.607,0,2.933,.515,2.933,2.174v2.401c0,2.98-1.766,6.522-4.428,8.364-3.66,2.525-8.432,2.783-10.421,2.198v-2.364c1.401,.211,3.991,.162,5.287-.233,3.462-1.054,5.546-4.141,5.968-6.341,.34-1.799,0-3.821,0-3.821Z"/>
    <path class="cls-1" d="M128.899,4.49h3.197v4.196c0,3.605-1.381,4.788-2.498,5.866-3.199,3.086-8.172,2.619-10.417,2.198v-2.122c1.402,.211,4.059,.231,5.356-.163,3.463-1.054,4.362-3.252,4.362-5.204,0-.714,0,.077,0-4.771Z"/>
    <rect class="cls-1" x="81.926" y=".09" width="3.232" height="9.265"/>
    <path class="cls-1" d="M96.223,8.902V.09h-3.227V8.746c0,3.636-3.144,5.395-5.203,5.395h-3.807v2.818h4.151c3.196,0,8.086-2.909,8.086-8.058Z"/>
    <rect class="cls-1" x="100.233" y="1.64" width="13.732" height="2.578"/>
    <rect class="cls-1" x="118.789" y="4.49" width="2.105" height="4.725"/>
    <rect class="cls-1" x="122.759" y="4.49" width="2.105" height="4.725"/>
  </g>
  <g>
    <path class="cls-1" d="M167.16,5.113c.468,1.218,1.386,2.334,2.336,3.359,1.305,1.398,2.438,2.105,4.078,2.876v3.664c-1.396-.622-3.149-1.665-4.081-2.56v1.585h-3.295v3.486h-2.77v-3.486h-3.144v-1.622c-1.063,1.063-2.541,1.92-4.005,2.639v-3.705c1.759-.912,2.709-1.455,3.843-2.931,.73-.965,1.571-2.004,2.09-3.291l-5.657-.007V2.708h6.872V.019h2.77V2.708h7.097v2.412l-6.137-.006Zm-3.731,3.033c-.671,1.268-1.509,2.624-2.432,3.494h2.432v-3.494Zm5.132,3.494c-.969-1.119-1.635-2.226-2.362-3.512v3.512h2.362Z"/>
    <path class="cls-1" d="M178.075,17.541V.522h5.592l.951,1.063h3.369V0h2.772V1.585h2.621c.782,0,1.417,.634,1.417,1.417h0v3.188h-1.641v1.063h-7.624v-1.1h-1.566v-1.92c-.224,.69-.541,1.547-.951,2.554,.597,1.044,.839,1.566,1.063,2.349,.205,.69,.298,1.268,.298,1.864,0,1.025-.373,1.79-1.081,2.162-.447,.224-.895,.317-2.051,.392l-.399-2.438v6.428h-2.77Zm2.77-10.849c.466-.988,.753-2.293,1.033-3.598h-1.033v3.598Zm0,4.172c.428,.084,.323,.084,.472,.084,.429,0,.664-.229,.664-.788,0-1.1-.353-2.032-1.136-3.244v3.948Zm7.73-.369c0,4.255-1.792,7.047-5.379,7.047v-2.874c2.448,0,2.919-1.639,2.919-4.172h-1.787v-2.461h10.506v2.461h-3.263v3.952c0,.28-.006,.801,.378,.811,.572,.015,.677-.01,.843-.743,.043-.189,.227-1.284,.246-2.234l2.15,.656c-.131,1.846-.298,2.834-.559,3.337-.41,.839-1.113,1.249-2.939,1.249-1.68,0-2.554-.559-2.554-1.771v-5.257h-.56Zm3.781-6.375h-5.965v.82h5.965v-.82Z"/>
  </g>
</svg>