<?xml version="1.0" encoding="UTF-8"?>
<svg id="_レイヤー_1" data-name="レイヤー 1" xmlns="http://www.w3.org/2000/svg" width="173.927mm" height="36.541mm" viewBox="0 0 493.021 103.58">
  <defs>
    <style>
      .cls-1 {
        fill: #fff;
      }

      .cls-2 {
        fill: #18a6d4;
      }

      .cls-3 {
        fill: #5cbbe2;
      }

      .cls-4 {
        fill: none;
        stroke: #fff;
        stroke-miterlimit: 10;
        stroke-width: 3.751px;
      }
    </style>
  </defs>
  <rect class="cls-1" x="0" y="0" width="493.021" height="103.58" rx="51.79" ry="51.79"/>
  <circle class="cls-3" cx="52.172" cy="51.896" r="38.991"/>
  <g>
    <path class="cls-2" d="m126.004,48.355h-11.521v21.648h-3.28v-35.999h14.801v14.35Zm-11.521-8.118h8.446v-4.592h-8.446v4.592Zm0,1.64v4.838h8.446v-4.838h-8.446Zm22.427,10.701v11.03h-14.145v2.624h-3.239v-13.654h17.384Zm-14.145,9.389h10.906v-7.749h-10.906v7.749Zm22.714,5.125c0,2.05-.861,2.911-2.952,2.911h-6.396v-1.722h4.387c1.23-.041,1.64-.451,1.681-1.723v-18.204h-12.054v-14.35h15.334v33.087Zm-3.28-31.447h-8.979v4.592h8.979v-4.592Zm-8.979,6.232v4.838h8.979v-4.838h-8.979Z"/>
    <path class="cls-2" d="m165.405,39.704v2.378l-1.64-.328h-11.645l-1.64.328v-2.378l1.64.328h11.645l1.64-.328Zm-1.927-5.658v2.378l-1.64-.328h-7.831l-1.64.328v-2.378l1.64.328h7.831l1.64-.328Zm0,11.316v2.378l-1.64-.328h-7.79l-1.64.328v-2.378l1.64.328h7.79l1.64-.328Zm0,5.658v2.378l-1.64-.328h-7.79l-1.64.328v-2.378l1.64.328h7.79l1.64-.328Zm-8.118,18.286h-2.952v-12.3h11.07v11.85h-2.952v-1.6h-5.166v2.05Zm5.166-3.566v-7.217h-5.166v7.217h5.166Zm15.744-29.849c-3.362,6.314-5.904,9.184-11.685,13.284l-.697-.984c4.51-4.428,8.241-10.127,10.168-15.662l3.28.615c.574.082.943.328.943.615,0,.369-.41.656-1.312.861,1.886,3.813,6.97,8.569,11.234,10.537-.902,1.599-1.025,1.886-1.804,3.608-4.469-2.829-7.708-6.929-10.086-12.751l-.041-.123Zm-10.906,18.409c3.977-2.583,8.036-6.396,10.906-10.25l2.05,1.681c.779.615.861.738.861.984,0,.369-.451.656-1.066.656h-.492c-4.223,4.264-7.257,6.273-11.685,7.873l-.574-.943Zm.246,14.801c7.298-2.624,14.637-7.216,19.393-12.177l2.132,1.968c.533.492.656.656.656.902,0,.451-.246.533-1.435.615-6.191,5.289-13.038,8.568-20.377,9.799l-.369-1.107Zm.82-8.117c4.92-2.542,9.881-6.232,13.612-10.128l2.132,1.722c.492.41.738.697.738.943,0,.41-.492.697-1.23.697h-.369c-5.289,4.183-9.102,6.232-14.473,7.79l-.41-1.024Z"/>
    <path class="cls-2" d="m203.904,62.624c.41.205.615.451.615.697,0,.369-.451.655-1.025.655-.205,0-.451,0-.697-.041-3.69,2.747-5.986,3.896-10.865,5.412l-.451-.983c3.813-2.132,7.134-4.715,9.512-7.339l2.911,1.599Zm8.241,4.346c0,2.296-1.066,3.321-3.485,3.28h-4.961v-1.722h3.28c1.312-.041,1.722-.451,1.763-1.805v-6.97h-15.17l-1.64.328v-2.296l1.64.328h33.497l1.641-.328v2.296l-1.641-.328h-14.924v7.216Zm-8.077-31.324h-9.963l-1.64.328v-2.296l1.64.328h32.473l1.64-.328v2.296l-1.64-.328h-10.537v4.141h9.758v8.897h-30.915v-8.897h9.184v-4.141Zm-8.077,18.778v-2.378l1.64.328h25.42l1.64-.328v2.378l-1.64-.328h-25.42l-1.64.328Zm8.077-12.998h-6.027v5.617h6.027v-5.617Zm2.993-1.64h5.986v-4.141h-5.986v4.141Zm0,7.257h5.986v-5.617h-5.986v5.617Zm8.979,0h6.601v-5.617h-6.601v5.617Zm.942,14.514c4.183,1.025,7.462,2.419,11.234,4.757l-2.46,2.992c-2.05-1.845-6.273-4.838-9.39-6.683l.615-1.066Z"/>
    <path class="cls-2" d="m234.284,68.118c7.667-2.255,13.695-5.986,18.123-11.193-3.321-3.649-6.313-6.068-8.938-7.216l.696-1.066c3.813.656,7.053,2.214,10.578,5.125,2.624-3.895,4.429-8.036,5.453-12.546h-13.284l-.082.123c-3.116,5.904-6.642,9.635-12.259,12.956l-.779-.943c5.248-4.797,8.898-10.496,11.276-17.63l.328-2.009,3.771.861c.615.123.902.369.902.738,0,.451-.287.779-1.025,1.107-.245.615-.409,1.025-.45,1.148l-.738,1.64-.041.123h16.81c-1.681,8.487-6.149,17.015-11.274,21.526-4.838,4.51-11.193,7.421-18.697,8.568l-.369-1.312Zm25.174-35.425c2.133.943,3.444,2.296,4.429,4.551l-2.788,1.312c-.697-2.337-1.477-4.1-2.378-5.33l.737-.533Zm6.766,5.412c-.779-2.255-1.559-3.649-2.706-5.125l.656-.615c2.173.779,3.607,2.05,4.797,4.264l-2.747,1.476Z"/>
    <path class="cls-2" d="m284.716,36.424l-.369-2.46,4.347.287c.45.041.778.328.778.697s-.205.656-.819,1.066v5.002h14.062c-.451,11.111-2.173,16.441-6.724,20.869-3.854,3.69-10.25,6.273-17.467,7.093l-.245-1.271c7.093-1.845,12.71-5.084,15.825-9.144,2.624-3.279,4.06-8.733,4.142-15.662h-22.591v10.414h-3.896v-12.3h12.956v-4.592Z"/>
    <path class="cls-2" d="m308.496,35.768c5.494,1.107,9.553,3.116,13.079,6.437l-3.362,3.403c-3.198-3.772-6.355-6.519-10.209-8.774l.492-1.066Zm32.472,6.068c-1.64,5.74-4.756,11.029-8.896,15.088-5.043,4.756-10.865,7.544-20.132,9.635-.287.656-.614.943-1.065.943-.41,0-.779-.328-1.025-.902l-1.476-3.648,2.173-.041c8.692-1.805,13.366-3.896,18.819-8.323,4.346-3.608,7.667-7.832,10.455-13.284l1.147.533Z"/>
    <path class="cls-2" d="m375.327,38.105v26.568h-29.028v-26.568h29.028Zm-25.134,24.683h21.238v-22.796h-21.238v22.796Z"/>
    <path class="cls-2" d="m381.189,49.217h34.235v2.911h-32.678c-.246.41-.778.697-1.312.779l-.246-3.69Z"/>
    <path class="cls-2" d="m428.586,45.69c7.011,1.517,12.997,4.264,18.204,8.364l-2.788,3.731c-4.797-5.043-9.472-8.283-15.416-10.62v21.772h-3.813v-32.719l-.287-2.46,4.101.287c.491.041.819.328.819.697s-.287.697-.819.984v9.963Zm11.315-12.997c2.05.984,3.403,2.419,4.347,4.674l-2.829,1.271c-.574-2.255-1.271-3.854-2.296-5.412l.778-.533Zm6.643,5.166c-.779-2.296-1.518-3.772-2.665-5.166l.696-.574c2.133.738,3.649,2.132,4.757,4.346l-2.788,1.394Z"/>
  </g>
  <rect class="cls-4" x="31.458" y="28.983" width="40.181" height="48.827" rx="3.988" ry="3.988"/>
  <g>
    <rect class="cls-1" x="38.105" y="39.592" width="3.544" height="3.544"/>
    <rect class="cls-1" x="44.687" y="39.592" width="19.052" height="3.544"/>
  </g>
  <g>
    <rect class="cls-1" x="38.102" y="48.198" width="3.544" height="3.544"/>
    <rect class="cls-1" x="44.684" y="48.198" width="19.052" height="3.544"/>
  </g>
  <g>
    <rect class="cls-1" x="38.102" y="56.805" width="3.544" height="3.544"/>
    <rect class="cls-1" x="44.684" y="56.805" width="19.052" height="3.544"/>
  </g>
  <g>
    <rect class="cls-1" x="38.102" y="65.412" width="3.544" height="3.544"/>
    <rect class="cls-1" x="44.684" y="65.412" width="19.052" height="3.544"/>
  </g>
  <path class="cls-1" d="m65.414,51.374l2.907,2.841c.189.184.107.504-.147.575l-3.914,1.096c-.254.071-.49-.159-.425-.415l1.007-3.938c.065-.256.383-.345.572-.16Z"/>
  <g>
    <path class="cls-1" d="m70.218,53.716c-.296,0-.576-.113-.788-.32l-3.218-3.146c-.215-.209-.336-.491-.34-.793-.003-.301.11-.586.321-.802l13.191-13.495c.214-.219.5-.339.807-.339.297,0,.577.114.79.322l3.217,3.144c.216.211.336.493.339.794.003.302-.111.587-.322.802l-13.19,13.494c-.21.215-.504.339-.807.339h0Z"/>
    <path class="cls-3" d="m80.192,35.57c.095,0,.191.036.264.108l3.217,3.145c.149.146.152.385.006.534l-13.191,13.495c-.074.076-.172.114-.27.114-.095,0-.191-.036-.264-.108l-3.217-3.145c-.149-.146-.152-.385-.006-.534l13.191-13.495c.074-.076.172-.114.27-.114m0-1.501c-.502,0-.992.206-1.343.565l-13.191,13.495c-.724.741-.71,1.932.03,2.656l3.218,3.145c.353.345.819.535,1.313.535.502,0,.992-.206,1.343-.565l13.191-13.495c.351-.359.541-.833.535-1.334s-.206-.971-.565-1.322l-3.217-3.145c-.353-.345-.819-.535-1.313-.535h0Z"/>
  </g>
  <rect class="cls-3" x="39.874" y="23.109" width="23.95" height="11.004"/>
  <rect class="cls-1" x="41.649" y="24.164" width="20.108" height="8.924"/>
</svg>