<?xml version="1.0" encoding="UTF-8"?>
<svg id="_レイヤー_1" data-name="レイヤー 1" xmlns="http://www.w3.org/2000/svg" width="173.927mm" height="36.541mm" viewBox="0 0 493.021 103.58">
  <defs>
    <style>
      .cls-1 {
        fill: #fff;
      }

      .cls-2 {
        fill: #e37893;
      }
    </style>
  </defs>
  <rect class="cls-1" x="0" y="0" width="493.021" height="103.58" rx="51.79" ry="51.79"/>
  <g>
    <path class="cls-2" d="m114.178,39.66c1.783-3.373,5.253-5.35,9.349-5.35,4.048,0,7.518,1.977,9.3,5.35,1.783,3.276,2.747,7.71,2.747,12.48s-.964,9.156-2.747,12.481c-1.782,3.373-5.252,5.349-9.3,5.349-4.096,0-7.565-2.024-9.349-5.349-1.782-3.325-2.746-7.759-2.746-12.481,0-4.771.964-9.107,2.746-12.48Zm9.349,29.057c5.156,0,7.421-5.06,7.421-16.577s-2.265-16.577-7.421-16.577-7.421,5.108-7.421,16.625,2.265,16.529,7.421,16.529Z"/>
    <path class="cls-2" d="m155.668,51.322c2.409.192,3.855.578,5.397,1.349,2.746,1.447,4.336,4.145,4.336,7.47,0,5.927-4.771,9.878-11.95,9.878-6.264,0-10.938-2.987-10.938-6.987,0-1.542.867-2.265,2.747-2.265,1.397,0,1.928.482,2.023,1.831.097,2.361.338,3.277,1.205,4.337.964,1.156,2.65,1.783,4.771,1.783,4.771,0,7.565-3.181,7.565-8.626,0-3.373-1.156-5.879-3.229-6.988-1.397-.723-3.422-1.156-5.59-1.156h-2.12v-1.542h2.12c1.928,0,3.854-.53,5.252-1.445,1.783-1.205,2.747-3.373,2.747-6.12,0-1.879-.434-3.565-1.205-4.818-1.012-1.639-2.602-2.409-5.011-2.409-3.614,0-5.445,1.879-5.687,5.734-.097,1.831-.53,2.312-2.217,2.312-1.782,0-2.554-.53-2.554-1.831,0-4.096,4.771-7.518,10.505-7.518,6.12,0,10.602,3.566,10.602,8.434,0,2.698-1.494,5.107-3.952,6.553-1.349.723-2.649,1.157-4.818,1.591v.434Z"/>
    <path class="cls-2" d="m173.497,54.213h10.649v2.65h-10.649v-2.65Z"/>
    <path class="cls-2" d="m195.568,51.466c2.506-2.458,4.963-3.47,8.529-3.47,6.408,0,10.601,4.289,10.601,10.794,0,6.795-4.771,11.18-12.239,11.18-5.638,0-10.312-2.843-10.312-6.217,0-1.397.867-2.12,2.603-2.12,1.542,0,1.976.386,2.072,1.976.24,3.181,2.409,5.061,5.782,5.061,4.578,0,7.613-3.808,7.613-9.542,0-2.746-.626-5.155-1.734-6.891-1.108-1.734-3.181-2.746-5.445-2.746-3.373,0-6.602,2.217-8.144,5.59l-1.494-.193,1.591-19.853h18.215l-.675,3.758h-15.95l-1.012,12.674Z"/>
    <path class="cls-2" d="m232.816,56.815c-3.084,0-6.023-1.156-7.807-2.987-1.734-1.832-2.795-4.723-2.795-7.759,0-6.987,4.723-11.758,11.613-11.758,7.662,0,11.758,5.59,11.758,16.191,0,6.988-1.542,12.722-4.24,15.854-2.12,2.409-4.915,3.662-8.385,3.662-5.012,0-9.396-2.602-9.396-5.638,0-1.542,1.012-2.458,2.747-2.458,1.542,0,2.071.434,2.168,1.928.289,3.373,1.735,4.964,4.481,4.964,3.325,0,5.687-2.266,6.987-6.65.675-2.409,1.108-5.879,1.108-9.156-2.458,2.651-4.963,3.807-8.24,3.807Zm6.457-17.734c-1.204-2.312-3.18-3.565-5.541-3.565-2.266,0-4.337,1.205-5.397,3.181-1.012,1.927-1.542,4.433-1.542,7.228,0,5.928,2.603,9.59,6.746,9.59,1.831,0,3.759-.771,5.108-2.12,1.734-1.687,2.457-3.567,2.457-6.41,0-2.987-.626-5.638-1.831-7.903Z"/>
    <path class="cls-2" d="m263.559,56.815c-3.084,0-6.023-1.156-7.807-2.987-1.734-1.832-2.795-4.723-2.795-7.759,0-6.987,4.723-11.758,11.613-11.758,7.662,0,11.758,5.59,11.758,16.191,0,6.988-1.542,12.722-4.24,15.854-2.12,2.409-4.915,3.662-8.385,3.662-5.012,0-9.396-2.602-9.396-5.638,0-1.542,1.012-2.458,2.747-2.458,1.542,0,2.071.434,2.168,1.928.289,3.373,1.735,4.964,4.481,4.964,3.325,0,5.687-2.266,6.987-6.65.675-2.409,1.108-5.879,1.108-9.156-2.458,2.651-4.963,3.807-8.24,3.807Zm6.457-17.734c-1.204-2.312-3.18-3.565-5.541-3.565-2.266,0-4.337,1.205-5.397,3.181-1.012,1.927-1.542,4.433-1.542,7.228,0,5.928,2.603,9.59,6.746,9.59,1.831,0,3.759-.771,5.108-2.12,1.734-1.687,2.457-3.567,2.457-6.41,0-2.987-.626-5.638-1.831-7.903Z"/>
    <path class="cls-2" d="m286.208,39.66c1.783-3.373,5.253-5.35,9.349-5.35,4.048,0,7.518,1.977,9.3,5.35,1.783,3.276,2.747,7.71,2.747,12.48s-.964,9.156-2.747,12.481c-1.782,3.373-5.252,5.349-9.3,5.349-4.096,0-7.565-2.024-9.349-5.349-1.782-3.325-2.746-7.759-2.746-12.481,0-4.771.964-9.107,2.746-12.48Zm9.349,29.057c5.156,0,7.421-5.06,7.421-16.577s-2.265-16.577-7.421-16.577-7.421,5.108-7.421,16.625,2.265,16.529,7.421,16.529Z"/>
    <path class="cls-2" d="m314.783,54.213h10.649v2.65h-10.649v-2.65Z"/>
    <path class="cls-2" d="m332.852,69.248c.578-3.903,1.591-6.65,3.566-9.396,1.879-2.699,3.902-4.626,10.07-9.638,1.977-1.59,2.988-2.65,3.663-3.759.723-1.253,1.06-2.603,1.06-4.048,0-4.048-2.65-6.794-6.554-6.794-2.843,0-4.915,1.349-5.733,3.759-.29.963-.386,1.638-.482,3.518-.097,1.638-.626,2.071-2.312,2.071-1.783,0-2.458-.578-2.458-1.976,0-4.963,4.818-8.674,11.275-8.674,4.048,0,7.421,1.302,9.252,3.614,1.061,1.397,1.542,2.892,1.542,5.108,0,3.999-1.782,6.457-7.131,9.733-6.023,3.711-7.325,4.674-9.445,6.747s-3.084,3.566-3.951,6.12h13.926c3.47,0,4.675-1.061,5.639-5.108l1.445.338-1.301,8.385h-22.07Z"/>
    <path class="cls-2" d="m387.209,60.574c0,5.782-4.675,9.444-12.047,9.444-7.132,0-11.661-3.47-11.661-8.914,0-2.603,1.349-5.253,3.613-6.987,1.108-.819,2.458-1.495,4.626-2.362-2.168-1.061-3.276-1.783-4.288-2.554-1.783-1.494-2.555-3.229-2.555-5.831,0-2.12.675-4.192,1.832-5.59,1.782-2.12,5.204-3.47,8.914-3.47,3.807,0,7.084,1.446,8.818,3.903.916,1.302,1.35,2.795,1.35,4.675,0,2.36-.868,4.096-2.795,5.638-1.35,1.06-2.603,1.687-4.386,2.168,5.831,2.313,8.578,5.494,8.578,9.879Zm-17.3-6.072c-1.831,1.591-2.795,3.808-2.795,6.265,0,4.771,3.373,7.951,8.385,7.951,4.674,0,7.854-2.892,7.854-7.132,0-2.313-1.012-3.951-3.565-5.734-.916-.675-2.41-1.445-4.434-2.409-.434-.193-1.928-.868-1.928-.868-1.734.578-2.506,1.012-3.518,1.927Zm12.433-11.517c0-4.626-2.65-7.372-7.18-7.372-4.048,0-6.65,2.506-6.65,6.408,0,2.555,1.061,4.097,4,5.783q.626.337,3.421,1.59c.338.192.819.386,1.397.723,3.422-1.493,5.012-3.759,5.012-7.132Z"/>
    <path class="cls-2" d="m404.845,56.815c-3.084,0-6.023-1.156-7.807-2.987-1.734-1.832-2.794-4.723-2.794-7.759,0-6.987,4.722-11.758,11.612-11.758,7.662,0,11.758,5.59,11.758,16.191,0,6.988-1.542,12.722-4.24,15.854-2.12,2.409-4.915,3.662-8.385,3.662-5.012,0-9.396-2.602-9.396-5.638,0-1.542,1.012-2.458,2.747-2.458,1.542,0,2.072.434,2.168,1.928.289,3.373,1.735,4.964,4.481,4.964,3.325,0,5.687-2.266,6.987-6.65.675-2.409,1.108-5.879,1.108-9.156-2.458,2.651-4.964,3.807-8.24,3.807Zm6.457-17.734c-1.204-2.312-3.181-3.565-5.541-3.565-2.265,0-4.337,1.205-5.397,3.181-1.012,1.927-1.542,4.433-1.542,7.228,0,5.928,2.603,9.59,6.746,9.59,1.831,0,3.759-.771,5.108-2.12,1.734-1.687,2.457-3.567,2.457-6.41,0-2.987-.626-5.638-1.831-7.903Z"/>
    <path class="cls-2" d="m425.084,69.248c.578-3.903,1.591-6.65,3.566-9.396,1.879-2.699,3.902-4.626,10.07-9.638,1.977-1.59,2.988-2.65,3.663-3.759.723-1.253,1.06-2.603,1.06-4.048,0-4.048-2.65-6.794-6.554-6.794-2.843,0-4.915,1.349-5.734,3.759-.289.963-.385,1.638-.481,3.518-.097,1.638-.626,2.071-2.312,2.071-1.783,0-2.458-.578-2.458-1.976,0-4.963,4.818-8.674,11.275-8.674,4.048,0,7.421,1.302,9.252,3.614,1.061,1.397,1.542,2.892,1.542,5.108,0,3.999-1.782,6.457-7.131,9.733-6.023,3.711-7.325,4.674-9.445,6.747s-3.084,3.566-3.951,6.12h13.926c3.47,0,4.675-1.061,5.639-5.108l1.445.338-1.301,8.385h-22.07Z"/>
  </g>
  <circle class="cls-2" cx="52.612" cy="51.79" r="38.991"/>
  <path class="cls-1" d="m44.396,40.713l4.114-2.649c1.319-.843,1.702-2.595.854-3.912l-5.818-9.074c-.844-1.316-2.598-1.693-3.916-.854-.03.018-.491.312-5.47,3.51-5.801,3.724-2.684,19.679,5.596,32.586,8.282,12.907,21.494,22.387,27.291,18.663,4.981-3.194,5.438-3.488,5.47-3.514,1.316-.839,1.7-2.599.856-3.916l-5.822-9.066c-.843-1.317-2.597-1.7-3.916-.85l-4.115,2.641c-1.2.767-2.789.523-3.706-.568,0,0-2.765-2.833-6.894-9.27-4.127-6.429-5.553-10.131-5.553-10.131-.613-1.286-.171-2.829,1.029-3.596Z"/>
</svg>