<?xml version="1.0" encoding="utf-8"?>
<!-- Generator: Adobe Illustrator 27.4.1, SVG Export Plug-In . SVG Version: 6.00 Build 0)  -->
<!DOCTYPE svg PUBLIC "-//W3C//DTD SVG 1.1//EN" "http://www.w3.org/Graphics/SVG/1.1/DTD/svg11.dtd" [
	<!ENTITY ns_extend "http://ns.adobe.com/Extensibility/1.0/">
	<!ENTITY ns_ai "http://ns.adobe.com/AdobeIllustrator/10.0/">
	<!ENTITY ns_graphs "http://ns.adobe.com/Graphs/1.0/">
	<!ENTITY ns_vars "http://ns.adobe.com/Variables/1.0/">
	<!ENTITY ns_imrep "http://ns.adobe.com/ImageReplacement/1.0/">
	<!ENTITY ns_sfw "http://ns.adobe.com/SaveForWeb/1.0/">
	<!ENTITY ns_custom "http://ns.adobe.com/GenericCustomNamespace/1.0/">
	<!ENTITY ns_adobe_xpath "http://ns.adobe.com/XPath/1.0/">
]>
<svg version="1.1" id="レイヤー_1" xmlns:x="&ns_extend;" xmlns:i="&ns_ai;" xmlns:graph="&ns_graphs;"
	 xmlns="http://www.w3.org/2000/svg" xmlns:xlink="http://www.w3.org/1999/xlink" x="0px" y="0px" viewBox="0 0 395.9 490.2"
	 style="enable-background:new 0 0 395.9 490.2;" xml:space="preserve">
<style type="text/css">
	.st0{fill:#FFFFFF;stroke:#FFFFFF;stroke-miterlimit:10;}
	.st1{fill:#F9E690;}
	.st2{fill:#FFFFFF;}
</style>
<metadata>
	<sfw  xmlns="&ns_sfw;">
		<slices></slices>
		<sliceSourceBounds  bottomLeftOrigin="true" height="490.2" width="395.9" x="3932.6" y="-1192.9"></sliceSourceBounds>
	</sfw>
</metadata>
<g>
	<path d="M147.8,114.5c-1.3,1-2.3,2.7-3.3,4.9c2.6-0.3,5.1-0.7,7.5-1.5c3.4-1,7.1-3.7,11.3-6.5c-0.1-0.7-0.2-1.4-0.3-2
		C156.9,110.8,151.1,111.6,147.8,114.5z"/>
	<path d="M169.7,159.4c-0.9-0.1-1.8-0.2-2.7-0.3c0.4,1.6,0.8,3.3,0.9,5C168.7,162.7,169.3,161.2,169.7,159.4z"/>
	<path d="M261.4,58.5c2.6,0,5.3,0.2,8.1,0.8c6.1,1.5,12.3,3.5,17.6,7.4c5.4,4.1,9.1,9.9,11.2,16.4c0.7,2.1,0.9,4.3,0.9,6.4
		c0,4.2-0.9,8.2-1.6,12.5c2.7,2.6,5.1,5.5,7.1,8.5c0.3,0.4,0.5,0.8,0.8,1.2c1.3-5.3,2.6-9.9,2.5-11.3c0,0,0-0.1,0,0
		c-0.1-4.5-1.6-9-3.6-14.3c-1.7-4.5-4.4-8.4-7.7-12.7c-3.9-5.5-5.9-10.9-8.7-12.7c-3.1-2.3-8.4-2.7-14.4-4c-1.2-0.3-2.4-0.4-3.8-0.4
		c-3.4,0-7.5,0.8-12.3,1.8c-0.6,0.1-1.1,0.2-1.7,0.3c0,0.1,0,0.2,0,0.2C257.6,58.6,259.5,58.5,261.4,58.5z"/>
	<path d="M214.3,99.3c-0.5,0-0.9,0.1-1.3,0.2c1,3.1,1.3,3.5,7.2,5.2c0.8,0.2,1.6,0.4,2.4,0.5c-0.8-1.3-1.4-2.6-1.9-4
		C218.1,100.1,215.9,99.2,214.3,99.3z"/>
	<path d="M211.6,127.2c-0.1,0.1-0.2,0.2-0.4,0.5c-0.4,0.6-0.9,1.5-1.4,2.7c-0.2,0.5-0.4,1-0.7,1.5c1.4,0.3,2.6,0.5,3.7,0.5
		c0.6,0,1.1-0.1,1.5-0.1c2-0.4,4.1-1.5,6.3-2.9c-2.4-1.7-4.8-2.8-6.6-2.7C213.3,126.6,212.5,126.8,211.6,127.2z"/>
	<path d="M215.6,87.5c-0.4,1-0.8,1.9-1.2,2.8c1.5,0,2.9,0.3,4.3,0.6c-0.1-0.6-0.1-1.2-0.2-1.8c-0.2-1.8-0.3-3.7-0.3-5.6
		c0-1.6,0.1-3.3,0.3-4.9C217.6,81.1,216.8,84.3,215.6,87.5z"/>
	<path d="M191.4,186.4c-0.8,0.4-1.6,0.9-2.5,1.4c-0.1,0.4-0.2,0.7-0.2,1.1c-0.1,0.6-0.2,1.2-0.2,1.8c0,1.2,0.2,2.5,0.5,3.8
		C190.2,191.7,191.1,189,191.4,186.4z"/>
	<path d="M178.9,183.3c1-0.5,2-1,3-1.7c2.2-4.2,5.2-7.1,6.8-9.3c-0.1-0.1-0.1-0.1-0.2-0.1c-0.7-0.5-2.3-1.1-4.3-1.1c0,0-0.1,0-0.1,0
		c-1.9,0-4.2,0.5-6.5,1.7c-3.8,2-6.6,6.3-8.3,10.5c-0.3,0.6-0.4,1.3-0.4,2.4c0,0.5,0,1,0.1,1.6C172.7,185.5,176.4,184.7,178.9,183.3
		z"/>
	<path d="M201.2,156.8c1.3-0.8,2.7-1.5,4.1-2.2c-2.5-2.1-4.6-4.5-6.5-6.8c-0.1-0.1-0.2-0.1-0.3-0.2c-0.4-0.2-0.9-0.5-1.2-0.9
		c-0.7,1.4-1.7,2.8-2.9,4c-3.9,3.7-9.5,6.7-15.5,8.1c-0.2,1.4-0.4,2.8-0.8,4.1c2-0.6,4.1-0.8,6-0.8c3.5,0,6.7,0.8,9.3,2.5
		C195.3,161.6,197.8,158.9,201.2,156.8z"/>
	<path d="M230.7,182.5c-0.3,0.5-0.5,1-0.8,1.5c1,1,1.8,2.1,2.5,3.2C231.9,185.9,231.2,184.3,230.7,182.5z"/>
	<path d="M236.3,101.3c2.3-2,4-4.1,4.1-5.9c0-0.5,0-0.6,0-0.6c0.1-3.5-2.3-9.8-5.3-15c-1.4-2.4-3.4-5-5.6-7.4
		c-0.2,0.5-0.4,0.9-0.6,1.3c-1.1,2.5-1.7,6.2-1.7,9.9c0,1.6,0.1,3.1,0.2,4.7c0.1,2.1,0.4,4.3,0.9,6.3
		C231.7,96.1,234.4,98.5,236.3,101.3z"/>
	<path d="M230.7,143.8c0.1-0.5,0.1-1,0.1-1.3c0-2.6-1.2-4.8-3.1-7c-3.3,2.4-7,4.6-11.4,5.6c-1.2,0.2-2.3,0.3-3.4,0.3
		c-2.8,0-5.3-0.6-7.7-1.2c0,0,0,0.1-0.1,0.1h0l0,0l-0.1,0.9c3.1,3.7,5.7,6.8,8.4,8.1c1.6,0.9,3.2,1.3,4.7,1.5c0.2,0,0.3,0,0.5-0.1
		c0.9-0.1,1.6-0.1,2.3-0.1c0.5,0,1,0,1.5,0.1c0.6-0.1,1.3-0.3,1.9-0.4C228.1,148.9,229.9,148.4,230.7,143.8z"/>
	<path d="M212.6,161.4c-2.4,0.8-4.7,1.9-6.8,3.1c-2.4,1.4-4.4,3.9-6.5,7.4C202.9,166.3,208.3,163.5,212.6,161.4z"/>
	<path d="M222.1,179.6c1.4-2.7,2.7-6.6,5.2-10.2c-0.3-0.5-0.6-0.8-1-1c-1.4-1-2.2-1.1-3.3-1.2c-1.5,0-3.7,0.8-6.4,2.2
		c-4.1,2-7.5,3.9-9.5,6.9c1.5,0.3,3,0.6,4.5,1C214.4,178.1,218.2,178.4,222.1,179.6z"/>
	<path d="M230.2,114.3c-1.2,0.2-2.4,0.3-3.6,0.3c-3,0-5.8-0.5-8.5-1.2c-5.9-1.1-10.9-4.2-13.1-9.2c-1,0.8-1.9,1.6-2.8,2.5
		c-2.6,2.3-4.4,5.6-5.4,8.7l0.2,0.3c2.5,4.5,2.9,9,2.9,12.7c0,0.4,0,0.8,0,1.1c0.1,0,0.2,0,0.4,0.1c0,0,0,0,0.1,0
		c1.4-3.6,2.9-7.8,7.3-10.6c2.1-1,4.3-1.5,6.4-1.4c5.7,0.1,10.1,3,13.6,5.7C229.2,121.1,230.1,117.8,230.2,114.3z"/>
	<path d="M238.5,120.1c-0.7,3.3-2,6.5-4.2,9.3c2.8,3.2,5.3,7.4,5.4,13c0,0.4,0,0.9,0,1.3c1.7-4.5,4.6-8.6,8.4-11.7
		c-0.7-0.8-1.4-1.7-2.1-2.4C244.7,127.9,240.9,125,238.5,120.1z"/>
	<path d="M264.7,180.6c-3.9,0-7.6-1.2-10.9-3.1c-2.3-1.4-7.7-2.9-11.7-7.6c-1.8,0.6-3.4,1.2-4.6,1.8c0.4,1.9,0.6,3.8,1,5.5
		c0.3,3,3.8,8,4,14.6c0,0.7-0.1,1.1-0.1,1.6c-0.4,3.1-1.3,5.9-2.2,8.4c1,2,1.8,4,2.1,6c3.2-0.4,6.6-1.1,10-1.7
		c5.6-1,11.2-1.4,14.8-3c0.8-0.2,1.6-1,2.5-2.1c-0.5-1.2-1-2.6-1.3-4c-0.4-1.7-0.6-3.3-0.5-4.9c0-4.8,1.4-9,3.3-12.5
		C268.9,180.3,266.8,180.6,264.7,180.6z"/>
	<path d="M161.2,208c1.2,0.4,2.3,0.8,3.3,1c-0.3-0.7-0.5-1.4-0.7-2c-0.3-0.4-0.6-0.8-1-1.2C162.3,206.5,161.7,207.2,161.2,208z"/>
	<path d="M169.7,149.6c-1.2-6.8-2.9-12.1-4.9-14.9c-2.8-3.9-6.6-5.1-11.3-5.1h-0.4c-4.9,0.1-10.5,0.6-14.4,3.1
		c-0.5,0.9-1,1.8-1.4,2.7c2.3,0.6,4.5,1.2,6.4,1.7c7.5,1.9,13.2,5,17.3,10.2c0.5,0.6,0.9,1.2,1.4,1.9c2.6,0.4,5.2,0.9,7.5,1.2
		C169.8,150.1,169.7,149.8,169.7,149.6z"/>
	<path d="M291.7,140c1.5,1.8,3,3.8,4.1,6.2c1.8-1.7,3.3-3.2,3.7-4.5c0.2-0.4,0.4-0.9,0.5-1.3c-1.1,0.3-2.2,0.4-3.3,0.3
		c-0.9,0-1.7-0.1-2.5-0.2C293.4,140.5,292.6,140.3,291.7,140z"/>
	<path d="M297.1,115.6c-1-1.5-2.1-3-3.3-4.4c-1.3,2.1-2.8,4-4.1,5.9c-2.2,2.4-2.7,9.1-7.9,14.1c1.4,0.9,2.8,1.9,4.1,2.9
		c-0.2-0.6-0.3-1.2-0.3-1.9c0-1.5,0.5-3.2,1.3-4.4c2.3-3.8,6.4-4.5,9.2-4.4c2.1,0,4.1,0.3,6.1,0.5
		C301.1,121.4,299.1,118.5,297.1,115.6z"/>
	<path d="M150.2,83.4c-4,3.3-8.1,6.6-11.4,9.7c-6.1,5.7-9.2,9.5-10.8,13.8c-1.1,2.8-1.7,5.1-1.7,7.8c0,0.7,0.1,1.4,0.2,2.2
		c3,1.4,5.8,2.5,8.3,2.8c1.5-3.9,3.3-8.3,7.3-11.9c6-5,13-5.7,18.1-6.8c-0.5-1.4-0.9-3-1.1-4.7c-2.8-3.1-5.1-7.3-5.1-12.4
		c0-1.1,0.1-2.3,0.3-3.5C153,81.1,151.7,82.2,150.2,83.4z"/>
	<path d="M163.3,122.4c3.3,1.4,6.4,3.6,8.9,7.2c3.3,4.8,5,11,6.4,18.4c0.1,0.5,0.2,1.1,0.3,1.6c3.7-1.2,7.4-3.3,9.4-5.3
		c1.2-1,2-3.3,2.4-6.2c-0.7-1-1.4-2.1-1.9-3.2c-1.8-0.9-3.4-1.9-5-2.7c-3.5-2.1-10.1-2.5-15.3-7.9c-1-1.2-1.8-2.4-2.4-3.6
		C165,121.3,164.2,121.8,163.3,122.4z"/>
	<path d="M191,93c-0.8,1.2-1.7,2.2-2.6,3c-0.6,2.3-1.5,4.4-2.5,6.5c1.7,1.3,3.3,2.8,4.9,4.5c1.4-2.4,3.1-4.8,5.4-6.9
		c2.3-2,4.8-4.3,7.8-6.2c0.6-3.6,1.9-6.8,3.3-9.9c2-4.1,1.8-11.6,7.9-16.8c2-1.4,4.1-2.3,6.2-2.9c-3.8-3.4-7.8-5.9-9.8-6.1
		c-0.4-0.1-0.9-0.1-1.5-0.1c-3.1,0-7.6,1.4-11.7,3.3c-1.7,0.8-3.4,1.6-5.1,2.4c1.3,3,2.1,6.2,2.1,9.7c0,1-0.1,1.9-0.1,3
		C194.6,81.2,194.7,87.4,191,93z"/>
	<path d="M173.5,93.2c2.6-0.7,5-1.3,6.9-2.4c0.1-0.6,0.1-1.2,0.1-1.7c0-0.8-0.1-1.5-0.2-2c-0.1-1.1-1.4-2.8-3.6-4.7
		c-4,4.6-8.2,8.1-8.7,9.9c1.4,1.1,2.2,1.2,3.2,1.3C171.8,93.6,172.5,93.5,173.5,93.2z"/>
	<path d="M159.1,167.6v-0.9c-0.1-3.7-1-6.6-2.4-9.4c-4.9-1.3-9.1-3.6-13-5.7c-3-1.7-6.1-3.6-9.1-6c0.1,4.3,0.8,8.7,2,12.6
		c1.6,5.3,3.6,10.1,6,11.8c2,1.6,5.3,2.8,9,2.8c1.1,0,2.1-0.1,3.2-0.3c1.4-0.2,2.7-0.6,3.9-1.1C159,170,159.1,168.8,159.1,167.6z"/>
	<path d="M156.5,183.5c0.2-0.8,0.4-1.6,0.6-2.4c-0.2,0-0.4,0.1-0.6,0.1c-1.6,0.3-3.2,0.4-4.7,0.4c0.1,0.1,0.3,0.3,0.4,0.4
		c1.1,1.1,2.4,2.2,3.8,3.4C156.2,184.7,156.3,184.1,156.5,183.5z"/>
	<path d="M124.2,187c3.3,4.4,6.6,7.7,11.2,10.6c4.5,2.7,9.1,4.6,14.3,6.1c1.1-1.3,2-2.7,2.8-4.1c0.6-1.1,1.1-2.5,1.5-4.1
		c-2.4-2.2-5.3-4.5-8-7.2c-4.9-5.1-8.2-10.7-11.1-12c-2.6-1.3-5.9-2-9.2-2c-1.8,0-3.7,0.2-5.3,0.6l1.8,1.4c-0.9,1.2-1.9,2.2-3.1,3.1
		C120.3,181.8,122.1,184.2,124.2,187z"/>
	<path d="M290.9,167.5v-0.2c-0.3,0.4-0.6,0.8-0.9,1.2c0.3,0.1,0.6,0.1,0.9,0.2C290.9,168.2,290.9,167.9,290.9,167.5z"/>
	<path d="M184.7,210.7c-1.5,0.7-3.2,1.7-5.1,2.9c2,3.3,3.7,6.6,4.7,10.2c3.1,2.8,6,4.8,8.3,5.3c0.7,0.2,1.4,0.3,2.1,0.3
		c-0.8-0.6-1.6-1.1-2.3-1.8C186.9,222.6,185.9,216.1,184.7,210.7z"/>
	<path d="M204.2,207.3c-3.1-2.3-5.6-5-7.3-8.1c-1.1,2.5-2.5,4.6-4.2,6.3c0,0,0,0.1,0,0.1c1.6,6.9,2.7,13.1,5.5,15.2
		c2.6,2.3,6.8,4.1,11.3,5c0.8-0.3,1.7-0.7,2.5-1v-0.3c0-4.7,1.2-8.8,1.1-11.5c0,0,0-0.2,0-0.6c0-0.3,0-0.5,0-0.8
		C209.7,210.5,206.8,209.2,204.2,207.3z"/>
	<path d="M182,202c-1-2.7-2-5.8-2.4-9.3c-3.6,1.4-6.8,2.3-9,3.8c0.3,2.2,0.7,4.2,1.2,6.1c0.9,1.2,1.8,2.3,2.7,3.4
		c2-1.1,4.1-2.4,6.5-3.6C181.4,202.4,181.7,202.2,182,202z"/>
	<path d="M111.9,155.8c2.2-5.1,5.4-9.3,8.6-13.3h-0.3c-4.3,0-7.6,0.6-9.4,2c-3.7,2.7-5.5,7.4-5.9,12.1c0,0.3,0,0.5,0,0.6
		c-0.1,2.8,1.6,6,3.8,9.2C109.3,162.9,110.4,159.4,111.9,155.8z"/>
	<path d="M117.9,166.3c0.1,0,0.2,0,0.3-0.1c2.4-0.5,4.9-0.8,7.5-0.8c1.4,0,2.7,0.1,4.1,0.2c-0.6-1.7-1.2-3.4-1.7-5
		c-1.1-3.4-1.8-6.9-2.1-10.5c-2.4,3.1-4.5,6-5.7,9.1C119.2,161.9,118.4,164.2,117.9,166.3z"/>
	<path d="M168.7,217.9c-0.7,0.1-1.5,0.2-2.3,0.2h-0.2c-4.6-0.1-8.5-1.6-11.9-3.1c-2.2,1.9-4,3.5-4.6,5c-0.5,1-0.7,2.6-0.7,4.7
		c0,1.8,0.1,3.8,0.1,6c0,1.4-0.1,2.9-0.3,4.5c-1.3,6.3-4.1,12.4-4,16c0,0.5,0,0.9,0.1,1.3c1,4.2,3.3,7.5,8.9,7.6
		c0.4,0,0.9,0,1.4-0.1c2.2,0.1,5.8-3.8,9.5-8.2c2.7-3.1,4.5-7.4,6.3-12c2.2-5.4,4.4-9.4,4.7-11.6c-0.1-0.1-0.3-0.2-0.4-0.4
		C172.3,224.7,170.3,221.2,168.7,217.9z"/>
	<path d="M117,192.4c-2.6-3.5-5.6-7.2-7.3-11.9c-0.8,0.7-1.6,1.4-2.4,2.2c-3.2,3.3-4.9,7.5-5.3,11.2c0,0.2,0,0.4,0,0.5
		c-0.2,2,2.1,5.1,5.1,9.6c2.4,3.7,4.3,6.2,8.2,8.4c5.4,3.2,9.3,4.9,12.5,4.8c0.2,0,0.5,0,0.8,0c4.8-0.4,9.2-2.3,13.1-5.7
		c0.3-0.2,0.5-0.5,0.8-0.7c-4.1-1.5-7.9-3.3-11.7-5.6C124.9,201.7,120.7,197.2,117,192.4z"/>
	<path d="M251.1,153.7c1.8-1.6,4-3.1,6.8-4.1c1.6-0.5,3.1-0.7,4.6-0.7c4.9,0.1,9.1,1.7,11.7,1.8c4.2,0.3,9.4,1,13.7,4.5
		c0.3-0.5,0.7-1.1,1.1-1.6c-1-4.7-3.8-7.7-7.2-11.1c-3-2.9-5.9-4.7-9.2-5.6c-3.1,1.4-6.3,2.4-9.3,2.8c-0.6,0.1-1.2,0.1-1.7,0.1
		c-2.5-0.1-4.6-0.7-6.4-1.7c-3.4,2.1-6.2,5.8-7.4,9.9c-0.5,1.6-0.9,3.5-1.1,5.4C248,153.5,249.5,153.5,251.1,153.7z"/>
	<path d="M328.4,145.3c-2.1-4.5-5.9-8-10.4-10.6c-0.1-0.3-2.8-0.6-6.3-0.9c-0.9,4-2.5,7.8-3.9,11.3c-2.4,5.3-6.6,8.2-9.3,10.9
		c0.7,3.8,1.4,7.6,1.4,11.4c0,0.6,0,1.2-0.1,1.8c-0.1,1.4-0.3,2.8-0.5,4.2c4.9,4.6,7.8,11,8.2,17.3c0,0.3,0,0.6,0,1
		c-0.1,6.1-2.6,11-4.3,15.7c-0.4,1-0.8,2.1-1.2,3.1c5-0.9,9.2-2.5,13.3-5.6c4.5-3.4,7.2-7.7,9.7-12.8c3.3-6.1,8.3-10.4,8.6-14.2
		c0.1-0.9,0.2-1.8,0.2-2.7c0-4.1-1.1-9.1-1.7-14.3C331.5,155.2,330.5,149.5,328.4,145.3z"/>
	<path d="M296.1,183.8c-0.4,0.9-0.7,1.7-1.1,2.5c-3.3,6.9-9.3,9.3-12.3,12.3c-0.8,0.6-1.6,1.7-2.5,3c2.1,2.6,4.8,4.8,6.7,6.2
		c2,1.4,3.6,2.3,5.3,2.8c0.9-2,1.7-4.1,2.5-6.3c2-5.2,3.8-9.2,3.7-12.5c0-0.2,0-0.4,0-0.6C298.5,189,297.6,186.2,296.1,183.8z"/>
	<path d="M228.5,206c0-0.1,0.1-0.1,0.1-0.2c0.4-1.1,0.9-2.1,1.4-3.2c-2.6-4.2-4-8.3-5.3-10.6c-1.6,2.3-2.9,4.4-3.4,6.4
		c-0.2,0.7-0.3,1.6-0.3,2.7c0,0.9,0.1,2,0.2,3.2c0.4,0.1,0.7,0.1,1.1,0.2C224.6,204.7,226.6,205.3,228.5,206z"/>
	<g>
		<path class="st0" d="M377.1,92.8l-0.1,0.1c-5.4-12.3-12.5-24.8-22.1-37.6c-12-18.7-63-78-186-45C78.9,30.6,37.6,41.8,16.6,74.1
			c-21,32.3-2.2,54,9,71.2c0,0-1.5,36,11.2,56.2c0,8.3-12,33-29.2,57.8c-10.5,10.5-10.5,24.8,7.5,33c12,3,21-1.5,16.5,26.2
			c0,6.8,2.2,9,7.9,14.6c0,10.9,2.4,13.3,9.2,20.1c0,11.8-1.5,40,28.2,40c31.2,0,52.2-7.2,63.5-7.2c0.2-0.1,0.5-0.1,0.7-0.2l0.1,0.2
			c0,0,0.9-0.4,2.3-0.8c0.8-0.2,1.9-0.5,2.9-0.7c9.5-1.9,31-1.9,54.2,27.1c21.7,30.7,23.3,42,27.3,60c4,18,4,18,4,18
			c49.8-19.5,94.8-37.5,147-98.2c-2-1.9-4.1-4.3-6.2-6.9c-3.1-3.8-5.9-7.7-8.3-11.8c-2.4-3.8-4.8-7.8-7-12.2
			c0.5,0.2,0.9,0.3,1.3,0.6c-9.2-22.7-8.5-47.6-3.6-71.6c3.4-13.4,23.8-39.5,32.7-74.5c0,0,0,0,0,0
			C399.3,183.3,399.1,139.3,377.1,92.8z"/>
	</g>
	<g>
		<path class="st1" d="M342.6,179.2c-1.5,8.6-8.1,13.6-9.4,17c-2.7,5.7-6.3,11.5-12.4,16.1c-5.9,4.4-12.3,6.7-19,7.6
			c-1.5,0.2-2.9,0.3-4.4,0.3c-0.5,0.8-1,1.6-1.6,2.4c-2.4,3.1-3.8,9.5-9,14.7c-5.2,4.6-11.5,6.1-15,8.3c-4.9,3-10.1,5.6-15.4,7.2
			c-2.2,0.6-4.3,0.9-6.3,0.9c-4.4,0-8-1.1-11.1-1.6c-4-1-11.7,0.3-17.7-6c-2.5-2.8-4.9-6.5-6.8-10.7c-0.2,0-0.4,0-0.6,0
			c-0.3,0-0.6,0-1,0c-0.9-0.1-1.8-0.1-2.6-0.3c-0.1,0-0.1,0-0.2,0.1c-4.4,1.7-9.3,3.3-14.6,3.3c-1.7,0-3.5-0.2-5.2-0.6
			c-2.7-0.7-5.1-1.9-7.3-3.4c-1.1,2.9-2.7,5.6-3.8,8.5c-1.8,4.6-3.8,10-7.9,14.7c-3.4,3.6-7.3,10.1-15.4,11.3
			c-0.7,0.1-1.5,0.1-2.2,0.1c-0.1,0-0.1,0-0.2,0c-10.2,0-16.4-7.7-17.5-14.8c-0.2-1.1-0.3-2.2-0.3-3c0.1-6.9,3.4-13.1,4.1-17.6
			c0.2-0.8,0.2-1.8,0.2-2.9c0-1.7-0.1-3.8-0.1-6c0-0.5,0-0.9,0-1.4c-3.4,1.6-7,2.6-10.8,2.9c-0.5,0-0.9,0.1-1.5,0.1
			c-6.2-0.1-11.4-2.9-17-6c-5.4-3.1-8.7-7.2-11.3-11.4c-2.1-3.6-6.3-7.6-6.5-14.4c0-0.7,0.1-1.3,0.1-1.8c0.7-5.3,3.1-11.2,7.8-16.2
			c0.8-0.8,1.6-1.6,2.4-2.3c-0.1-0.1-0.2-0.2-0.3-0.4c-2.6-3.8-7-9.1-7-16.7c0-0.6,0-1.1,0.1-1.4c0.5-6.2,3-13.6,9.5-18.5
			c4.8-3.6,10.4-3.7,15.2-3.8c1.2,0,2.4,0,3.5,0.1c-1.5-2.2-2.9-4.6-4.1-7.1c-0.5-1.1-0.9-2.2-1.3-3.2c-0.4-0.2-0.8-0.3-1.2-0.5
			c-5.2-2.3-10.7-5.1-15.7-10.1c-4.8-4.9-9.8-9.6-10.4-16.9c0,0,0-0.2,0-0.7c0.2-7.5,5.1-12.6,8.7-17.2c3.8-4.7,8.8-7.7,13.6-11
			c4.5-3.1,9.4-5.9,14.7-8.4c4.2-1.8,8.6-6.1,15.1-8.3c6.7-2,13-1.4,17.2-2c1.9-0.3,3.6-0.4,5.3-0.4c3.5,0,6.6,0.5,9.3,1.2
			c0.9-0.7,1.7-1.5,2.5-2.2c5.8-4.8,12.5-5.8,16.3-8.3c4.7-2.8,9.4-6.9,15.9-8.9c4.2-1.2,8.5-2,12.9-2c2.1,0,4.2,0.2,6.3,0.6
			c7.5,1.6,11.3,7,15.4,11.7c2,2.4,5.3,5.3,7.9,9.7c1.1-0.1,2.2-0.2,3.1-0.5c4.8-1,9.5-2,14.2-2c1.9,0,3.9,0.2,5.9,0.6
			c4.7,1.2,11.4,1.2,17.6,5.5c6,4.6,7.8,11.1,10.6,14.6c3.4,4.5,6.7,9.2,8.9,15c2,5.3,4.1,10.9,4.2,17.4v0.1
			c-0.1,4.5-1.9,9.5-3.3,15.5c-0.7,2.4-0.7,5.5-1.3,8.9c3.5,0.2,6.9,0.5,10,2c5.7,3.2,10.9,8,14.1,14.5c2.8,5.9,3.9,12.5,4.6,18.7
			c0.4,4.4,1.7,9.6,1.7,15.2C342.9,176.6,342.8,177.9,342.6,179.2z"/>
	</g>
	<path class="st2" d="M222.1,213.4v0.2l0,0.1c-0.1,1.8-0.3,3.5-0.5,5.1c1.2-1.3,2.3-2.9,3.2-4.6
		C223.8,213.9,222.9,213.6,222.1,213.4z"/>
	<path class="st2" d="M274.6,208.8c-1.1,1-2.4,1.9-4,2.7c-5.8,2.4-11.9,2.7-16.8,3.6c-3.8,0.7-8,1.6-12.6,2
		c-2,5.2-5.9,9.3-10.9,12.1c-2,1.1-4.3,2.5-6.9,3.8c1.4,2.9,3.1,5.4,4.7,7.2c1.7,2.3,6.2,2.2,12.5,3.1c3.7,0.7,6.8,1.5,9.6,1.4
		c1.3,0,2.5-0.1,3.7-0.5c4.3-1.3,8.8-3.4,13.3-6.2c5.3-3.1,10.9-4.6,13.6-7.3c2.4-2,3.9-7.1,7-12.1c-2.1-0.8-4.1-2-6.1-3.5
		C279.9,213.6,277.2,211.6,274.6,208.8z"/>
	<path class="st2" d="M203.6,184.9c-0.3,1.3-0.4,2.6-0.4,3.8c0,0.4,0,0.8,0.1,1.3c0.4,3.7,2.2,6.9,6.3,10.1c0.7,0.5,1.5,1,2.4,1.5
		c0-0.2,0-0.4,0-0.5c0-1.6,0.1-3.4,0.7-5.2c1-3.2,2.5-5.9,4.1-8.2c-2.2-0.5-4.6-0.9-7.2-1.4C207.5,185.6,205.5,185.2,203.6,184.9z"
		/>
	<path class="st2" d="M286.8,182.5c0.7-1.6,1.5-3.3,2.1-5.1c-0.5-0.1-0.9-0.2-1.4-0.2c-1.7,0-3.9,0.8-6.5,3.7
		c-2,2.2-4.3,6.5-4.3,10.9C281.4,187.8,285.7,185.6,286.8,182.5z"/>
	<path class="st2" d="M132.7,86.5c3.7-3.4,7.8-6.8,11.8-10.1c4.2-3.5,8.4-6.7,14.1-8.2l0.4-0.1c1.5-2.9,3.2-5.8,5.4-8.6
		c0.7-0.9,1.5-1.8,2.3-2.6c-0.2,0-0.5,0-0.7,0c-1.3,0-2.6,0.1-4.1,0.3c-5.8,0.7-11.3,0.2-15.7,1.7c-3.8,1.1-8.1,5-14,7.8
		c-4.9,2.3-9.3,4.8-13.4,7.7c-5,3.4-9.2,6.1-11.6,9.2c-3.9,4.6-6.9,9-6.7,11.5c0,0,0,0.1,0,0.2c-0.1,2.1,2.9,6.3,7.8,11
		c2.7,2.7,5.7,4.6,9.1,6.3c0.3-3.4,1.3-6.4,2.2-9C122,97.3,126.4,92.4,132.7,86.5z"/>
	<path class="st2" d="M276,165.3c-2.3,0-4.7-0.1-7-0.3c-4.8-0.5-9.7-1.2-14.7-1.8c-1,0.9-2.1,1.9-3.3,2.8c1.9,1.3,4.4,2.4,7.2,3.8
		c2.5,1.4,4.5,1.9,6.5,2c1.2,0,2.6-0.2,4.2-0.7c4.1-1.3,8.2-3,11.8-5.8C279.1,165.2,277.6,165.3,276,165.3z"/>
	<path class="st2" d="M236.5,162.4c-0.2,0-0.5,0-0.7,0c-1.1-0.1-2.2-0.2-3.2-0.4c0.6,0.5,1.1,1,1.5,1.6
		C234.9,163.1,235.7,162.7,236.5,162.4z"/>
	<path class="st2" d="M237.9,150.7c-0.5,1-1.1,1.9-1.8,2.7c0.1,0,0.2,0,0.3,0c0.4,0,0.8,0,1.2,0.1
		C237.6,152.5,237.7,151.6,237.9,150.7z"/>
	<path class="st2" d="M245.9,108.6c-0.2,0.9-0.3,1.8-0.3,2.8c0,0.4,0,1,0.1,1.6c0.4,4.6,3.8,7.1,7.3,11c1.2,1.5,2.4,2.9,3.5,4
		c2.6-0.7,5.3-0.9,7.9-0.9c2.3,0,4.6,0.2,6.7,0.4c0.1,0,0.1,0,0.2,0c1.4-0.8,2.8-1.6,4.1-2.5c2-0.9,3.2-7.2,7-13.1
		c1.9-2.6,3.5-4.8,4.6-6.8c-4.3-3.1-8.4-6.3-12-7.5c-3.6-1.2-7.8-1.7-11.6-1.7c-0.9,0-1.8,0-2.7,0.1c-1.4,0.1-2.8,0.3-4.1,0.7
		c-1.7,4.8-4.8,9-9.9,11.5C246.4,108.3,246.1,108.5,245.9,108.6z"/>
	<path class="st2" d="M260.2,87c1,0,2-0.1,3.1-0.1c4.5,0,9.6,0.4,14.6,2.1c4.5,1.6,8.2,4.2,11.6,6.7c0.4-2.4,0.7-4.4,0.7-6.1
		c0-1.5-0.2-2.7-0.5-3.7c-1.6-5-4.4-9.1-8.1-11.9c-3.5-2.7-8.7-4.5-14.3-5.9c-1.8-0.4-3.7-0.6-5.9-0.6c-1.4,0-2.9,0.1-4.4,0.1
		c0.2,1.9,0.4,3.9,0.6,5.8c0.4,3.7,0.9,7.4,0.9,11.2c0,0.8,0,1.7-0.1,2.6C259,87.1,259.6,87.1,260.2,87z"/>
	<path class="st2" d="M179.7,61.8c0.3-0.3,0.6-0.5,0.9-0.7c-0.8-0.6-1.9-1.2-3.3-1.8c-2.3,2-4.3,3.9-5.8,5.9
		c-0.7,0.8-1.3,1.7-1.9,2.6c1.4,0.4,2.9,0.9,4.4,1.7C175.3,66.9,177,64.2,179.7,61.8z"/>
	<path class="st2" d="M174.9,118.3c1.4,2,6.1,2.9,11.4,5.2c0.1-2.2,0.4-4.5,0.9-6.6c-2-2.9-4.3-5.3-6.5-7c-2.3,2.3-4.9,4.1-7.3,5.7
		C173.8,116.7,174.3,117.6,174.9,118.3z"/>
	<path class="st2" d="M243,75.3c2.5,4.7,4.9,9.8,5.9,15c0,0,0.1,0,0.1-0.1c0,0,0,0,0-0.1c0.3-1.7,0.5-3.6,0.5-5.5
		c0-3.1-0.4-6.5-0.8-10.1c-0.3-2.2-0.5-4.4-0.7-6.4c-3,0.3-5.9,0.9-8.8,1.6C240.6,71.5,241.9,73.3,243,75.3z"/>
	<path class="st2" d="M186.3,75.5c0.1-0.8,0.1-1.5,0.1-2c0-1.7-0.3-3.3-0.9-4.9c0,0-0.1,0.1-0.1,0.1c-1.5,1.1-2.6,3.3-4,6
		c1.7,1.3,3.2,2.7,4.5,4.3C186.1,77.8,186.2,76.7,186.3,75.5z"/>
	<path class="st2" d="M194.7,53.2c4.7-2.2,10.1-4.1,15.5-4.1c0.9,0,1.9,0.1,3,0.2c5.9,1.1,10.8,5.1,15.4,9.4c2-2,4.2-3.8,6.7-5.3
		c2.3-1.3,4.6-2.1,6.9-2.6c-1.3-1.6-2.8-3.1-4.4-4.9c-4.3-5.1-7-8.1-10.4-8.7c-1.4-0.3-2.9-0.4-4.5-0.4c-3.2,0-6.7,0.6-10.4,1.7
		c-4,1.1-8.3,4.6-13.8,7.9c-5.4,3.1-10.9,4.3-14,6.6c1.4,0.9,2.7,2,3.8,3.1C190.7,55,192.8,54,194.7,53.2z"/>
	<path class="st2" d="M165.2,76.2c-0.5,1.2-1,2.3-1.4,3.4c-0.7,1.6-0.9,2.9-0.9,4.1c0,0,0,0.1,0,0.1c2.2-2.6,4.6-4.5,6.5-6.6
		c-1.5-0.8-2.7-1-4-1C165.3,76.2,165.2,76.2,165.2,76.2z"/>
</g>
</svg>
