<svg viewBox="0 0 132 132" width="132" height="132" xmlns="http://www.w3.org/2000/svg"><g fill="#fff"><path d="m77.43 55.4a.82.82 0 0 1 -.53-.19l-4.44-3.54a8.4 8.4 0 0 1 -14.64-4.83h-2.44a.85.85 0 1 1 0-1.7h4.11v.85a6.73 6.73 0 0 0 12.15 3.97l.52-.72 5.79 4.62c.37.29.43.83.14 1.2a.86.86 0 0 1 -.67.32z"/><path d="m94.32 100.01h-56.18a6.26 6.26 0 0 1 -6.25-6.25v-42.37a6.26 6.26 0 0 1 6.25-6.25h56.19c3.45 0 6.25 2.8 6.25 6.25v42.36a6.26 6.26 0 0 1 -6.25 6.25zm-56.18-53.16a4.55 4.55 0 0 0 -4.55 4.55v42.36a4.55 4.55 0 0 0 4.55 4.55h56.19a4.55 4.55 0 0 0 4.55-4.55v-42.37a4.55 4.55 0 0 0 -4.55-4.55h-56.19z"/><path d="m66.23 61.24h-.31a14.98 14.98 0 0 1 -14.65-15.26c.01-.47.4-.86.87-.84.47.01.84.4.84.87a13.26 13.26 0 0 0 22.41 9.82c2.55-2.45 4-5.75 4.07-9.29v-.54a.85.85 0 0 1 .84-.87c.46.01.86.36.87.84v.61a14.84 14.84 0 0 1 -4.59 10.48 14.88 14.88 0 0 1 -10.35 4.17z"/></g><path d="m38.35 95.94h55.75a2.41 2.41 0 0 0 2.41-2.41v-18.64l-60.56 10.52v8.11a2.41 2.41 0 0 0 2.41 2.41z" fill="#8ad27c"/><path d="m78.6 38.09 9.91-5.04-.92 3.56 15.96-7.17-11.8 1.25.82-5.98z" fill="#ffec91"/><path d="m66.96 38.46 8.2-7.51.07 3.68 10.77-11.93-8.36 5.1-.81-5.98z" fill="#ffec91"/></svg>