<svg viewBox="0 0 132 132" width="132" height="132" xmlns="http://www.w3.org/2000/svg"><path d="m58 81.9h-14.9v-34.6l.6-.3a17.8 17.8 0 0 1 13.7 0l.6.3zm-12.9-2h10.9v-31.3a15.7 15.7 0 0 0 -10.9 0z" fill="#fff"/><path d="m50.6 50.3a12.4 12.4 0 0 0 -2.9.3v9.8h5.7v-9.8a12.5 12.5 0 0 0 -2.8-.3z" fill="#8ad27c"/><g fill="#fff"><path d="m52.7 47.8h-.8a16.3 16.3 0 0 0 -2.6 0h-.9l-2.6-10 .7-.3a10 10 0 0 1 8.1 0l.8.3zm-4.6-8.8 1.8 6.8h1.3l1.8-6.8a7.9 7.9 0 0 0 -4.9 0z"/><path d="m50.6 38.6a1 1 0 0 1 -1-1v-12.6a1 1 0 1 1 2 0v12.6a1 1 0 0 1 -1 1zm8 47.6h-16a3.1 3.1 0 1 1 0-6.3h16a3.1 3.1 0 0 1 0 6.3zm-16-4.3a1.1 1.1 0 1 0 0 2.3h16a1.1 1.1 0 0 0 0-2.3zm11.7 20.1h-7.5a3.1 3.1 0 0 1 0-6.4h7.5a3.1 3.1 0 0 1 0 6.3zm-7.5-4.4a1.1 1.1 0 0 0 0 2.3h7.5a1.1 1.1 0 0 0 0-2.3z"/><path d="m54.8 97.6h-8.4v-13.4h8.4zm-6.4-2h4.4v-9.4h-4.4zm8.6-18.7h-4a1 1 0 0 1 0-2h4a1 1 0 0 1 0 2zm0-5.1h-4a1 1 0 0 1 0-2h4a1 1 0 0 1 0 2zm0-5h-4a1 1 0 1 1 0-2h4a1 1 0 1 1 0 2z"/><path d="m88.3 83.7h-15v-31l.7-.3a17.7 17.7 0 0 1 13.7 0l.6.3zm-13-2h11v-27.7a15.7 15.7 0 0 0 -11 0zm5.5-37.7a1 1 0 0 1 -1-1v-18a1 1 0 1 1 2 0v18a1 1 0 0 1 -1 1z"/><path d="m88.8 88v-2a1.1 1.1 0 1 0 0-2.3h-16a1.1 1.1 0 1 0 0 2.3 1 1 0 0 1 0 2 3.1 3.1 0 0 1 0-6.3h16a3.1 3.1 0 1 1 0 6.3zm-4.2 14h-7.6a3.1 3.1 0 1 1 0-6.4h7.5a3.1 3.1 0 0 1 0 6.3zm-7.6-4.5a1.2 1.2 0 0 0 -1.2 1.2 1.2 1.2 0 0 0 1.2 1.1h7.5a1.2 1.2 0 0 0 1.1-1.1 1.2 1.2 0 0 0 -1.1-1.2z"/><path d="m85 97.6h-8.4v-15a1 1 0 0 1 2 0v13h4.4v-13a1 1 0 0 1 2 0zm.2-44-1.2-.2a15.9 15.9 0 0 0 -6.4 0l-1.2.3v-8.4a3.3 3.3 0 0 1 2.7-3.2 10 10 0 0 1 3.4 0 3.3 3.3 0 0 1 2.7 3.2zm-4.4-9.6a7.8 7.8 0 0 0 -1.4.1 1.3 1.3 0 0 0 -1 1.2v6a17 17 0 0 1 4.9 0v-6a1.3 1.3 0 0 0 -1-1.2 8 8 0 0 0 -1.5-.1z"/></g><path d="m83.7 71v-15a13.4 13.4 0 0 0 -5.7 0v16.3a13.2 13.2 0 0 1 5.7-1.3z" fill="#ffec91"/></svg>