<svg viewBox="0 0 1040 274" width="1040" height="274" xmlns="http://www.w3.org/2000/svg" xmlns:xlink="http://www.w3.org/1999/xlink"><linearGradient id="a" gradientTransform="matrix(703 0 0 624 -282628.2 -567)" gradientUnits="userSpaceOnUse" x1="402.8" x2="402.8" y1=".9" y2="1.3"><stop offset="0" stop-color="#7fc472"/><stop offset="1" stop-color="#4fb43c"/></linearGradient><clipPath id="b"><path d="m57.9 0h977v274h-977z"/></clipPath><g clip-path="url(#b)"><ellipse cx="545.4" cy="-51" fill="url(#a)" rx="351.5" ry="312"/></g><path d="m932.1 20.7a46.4 46.4 0 0 1 1.4-6.4s-1.2 1-5.9 1.4c-11.3 1-26 9.6-20.2 24.7 0 0 22.2 3.9 24.7-19.7z" fill="#6fbf60"/><path d="m588.7 170.6a76.8 76.8 0 0 1 2.9 11.3s1.2-2.6 8.2-7c17-10.8 33.4-36 12-55.3 0 0-38.1 11.7-23.1 51z" fill="#4fb43c"/><path d="m729.7 60.6a68.8 68.8 0 0 1 -8.7 5.4s2.5.3 8.2 5c13.7 11.3 39.4 18.2 49.8-5 0 0-20.3-29-49.3-5.5z" fill="#4fb43c"/><path d="m1014 63.7a46.6 46.6 0 0 1 -7-.7s1.3 1.3 2.3 6c2.6 11.7 13.3 26 28.4 18 0 0 1.3-23.7-23.8-23.3z" fill="#6fbf60"/><path d="m696.4 15.9a54.2 54.2 0 0 1 -3.4-7.1s-.5 1.8-4.6 5.7c-9.8 9.3-17.5 28.2-.8 38.2 0 0 23.9-12.7 8.8-36.8z" fill="#4fb43c"/><path d="m849.9 78.4a67 67 0 0 1 6.4 7.7s0-2.5 3.8-8.6c9-14.7 12.2-40.4-11.6-47.2 0 0-25.1 23.4 1.4 48.1z" fill="#6fbf60"/><path d="m498.9 106.1a88.4 88.4 0 0 1 5.3-12s-3 1.5-12.3.5c-22.5-2.2-54.6 8.9-49 40.8 0 0 42 16.1 56-29.3z" fill="#4fb43c"/><path d="m353 130.2a72 72 0 0 1 -10.7-.3s2 1.8 4.1 9.1c5.3 17.7 23.4 38.7 45.9 24.7 0 0-.7-36.8-39.3-33.5z" fill="#4fb43c"/><g fill="#6fbf60"><path d="m122.5 76.3a66.2 66.2 0 0 1 2.3 9.8s1.1-2.2 7.2-6c14.7-9 29.2-30.4 11.2-47.3 0 0-33 9.5-20.7 43.5z"/><path d="m14 113.6a81.6 81.6 0 0 1 -11.7 3.2s2.7 1.2 7.5 8.5c11.5 17.5 38.3 34.3 58 11.6 0 0-13-39.8-53.8-23.3z"/><path d="m971 58a33 33 0 0 1 2.1 4.5s.3-1.1 3-3.5c6.4-5.8 11.4-17.7 1-24.3-.1 0-15.3 7.8-6 23.3z"/></g><path d="m652 84.2-1.2-.9-1 1.1a31 31 0 0 0 -7.4 23.6c.8 9 5 17.2 11.4 22l1.2.9 1-1c5.4-6 8.2-14.7 7.5-23.7s-5.2-17.2-11.5-22z" fill="#4fb43c"/><path d="m800 58.5v.8l.7.2a17.2 17.2 0 0 0 21-12.1l.2-.8-.7-.2a17.2 17.2 0 0 0 -21.2 12.1z" fill="#6fbf60"/><path d="m887 69-1.6-.6-.8 1.6c-4.3 8.7-4.4 19.9-.3 30s12 18 21 21.4l1.6.6.8-1.6c4.3-8.7 4.4-19.9.3-30s-12-18.1-21-21.4z" fill="#6fbf60"/><path d="m591.2 38.5h-.9l-.2.9a20.2 20.2 0 0 0 17.2 22.8h1l.1-.8a20.2 20.2 0 0 0 -17.1-22.9z" fill="#4fb43c"/><path d="m162.7 175.4 1.7-.5-.3-1.7c-1.5-9.7-8-19-17.2-25s-20.4-8-29.8-5.5l-1.7.4.2 1.8c1.6 9.7 8 19 17.2 25s20.4 8 29.9 5.5z" fill="#6fbf60"/><path d="m300.7 190 1.1-1-1-1.3c-5-6.8-14-11.4-23.5-12.2s-19 2.1-25.4 8l-1 1 .8 1.3c5.2 6.8 14 11.4 23.6 12.3s19.1-2.2 25.4-8z" fill="#6fbf60"/><path d="m180.6 120.8-.5 2.3 2.2.7c12.4 4 27.4 2.1 40.2-5.2s22-19.4 24.6-32.2l.5-2.3-2.2-.7c-12.5-4-27.5-2.1-40.2 5.2s-22 19.4-24.6 32.2z" fill="#6fbf60"/></svg>