<?xml version="1.0" encoding="UTF-8"?>
<svg id="_レイヤー_1" data-name="レイヤー 1" xmlns="http://www.w3.org/2000/svg" width="173.927mm" height="36.541mm" viewBox="0 0 493.021 103.58">
  <defs>
    <style>
      .cls-1 {
        fill: #fff;
      }

      .cls-2 {
        fill: #e37893;
      }
    </style>
  </defs>
  <rect class="cls-1" x="0" y="0" width="493.021" height="103.58" rx="51.79" ry="51.79"/>
  <g>
    <path class="cls-2" d="m114.178,39.66c1.783-3.373,5.253-5.35,9.349-5.35,4.048,0,7.518,1.977,9.3,5.35,1.783,3.276,2.747,7.71,2.747,12.48s-.964,9.156-2.747,12.481c-1.782,3.373-5.252,5.349-9.3,5.349-4.096,0-7.565-2.024-9.349-5.349-1.782-3.325-2.746-7.759-2.746-12.481,0-4.771.964-9.107,2.746-12.48Zm9.349,29.057c5.156,0,7.421-5.06,7.421-16.577s-2.265-16.577-7.421-16.577-7.421,5.108-7.421,16.625,2.265,16.529,7.421,16.529Z"/>
    <path class="cls-2" d="m161.74,63.32c0,2.313.241,3.47.868,3.952.434.385.818.481,2.698.529v1.446h-11.565v-1.446c2.12-.048,2.506-.145,3.036-.529.626-.482.867-1.639.867-3.952v-3.469h-16.335v-2.266l17.396-23.275h3.035v23.42h5.012v2.12h-5.012v3.469Zm-4.096-24.624l-14.119,19.035h14.119v-19.035Z"/>
    <path class="cls-2" d="m173.256,69.248c.578-3.903,1.591-6.65,3.566-9.396,1.879-2.699,3.902-4.626,10.07-9.638,1.977-1.59,2.988-2.65,3.663-3.759.723-1.253,1.06-2.603,1.06-4.048,0-4.048-2.65-6.794-6.554-6.794-2.843,0-4.915,1.349-5.734,3.759-.289.963-.385,1.638-.481,3.518-.097,1.638-.626,2.071-2.312,2.071-1.783,0-2.458-.578-2.458-1.976,0-4.963,4.818-8.674,11.275-8.674,4.048,0,7.421,1.302,9.252,3.614,1.061,1.397,1.542,2.892,1.542,5.108,0,3.999-1.782,6.457-7.131,9.733-6.023,3.711-7.325,4.674-9.445,6.747s-3.084,3.566-3.951,6.12h13.926c3.47,0,4.675-1.061,5.639-5.108l1.445.338-1.301,8.385h-22.07Z"/>
    <path class="cls-2" d="m204.241,54.213h10.649v2.65h-10.649v-2.65Z"/>
    <path class="cls-2" d="m235.274,47.515c3.084,0,6.023,1.108,7.806,2.987,1.735,1.831,2.795,4.723,2.795,7.758,0,6.939-4.722,11.758-11.613,11.758-7.661,0-11.757-5.638-11.757-16.143,0-6.988,1.542-12.77,4.24-15.902,2.12-2.458,4.915-3.663,8.433-3.663,4.963,0,9.349,2.603,9.349,5.59,0,1.253-1.013,1.976-2.795,1.976-1.494,0-1.976-.434-2.12-1.782-.338-3.133-1.735-4.578-4.434-4.578-3.373,0-5.734,2.265-7.035,6.602-.675,2.458-1.108,5.879-1.108,9.204,2.506-2.698,4.915-3.807,8.24-3.807Zm-6.457,17.733c1.204,2.265,3.18,3.566,5.541,3.566,2.217,0,4.337-1.253,5.397-3.181,1.012-1.928,1.542-4.434,1.542-7.276,0-5.879-2.603-9.542-6.747-9.542-1.831,0-3.758.771-5.107,2.12-1.734,1.687-2.457,3.566-2.457,6.458,0,2.939.626,5.59,1.831,7.854Z"/>
    <path class="cls-2" d="m272.281,63.32c0,2.313.241,3.47.868,3.952.434.385.818.481,2.698.529v1.446h-11.565v-1.446c2.12-.048,2.506-.145,3.036-.529.626-.482.867-1.639.867-3.952v-3.469h-16.335v-2.266l17.396-23.275h3.035v23.42h5.012v2.12h-5.012v3.469Zm-4.096-24.624l-14.119,19.035h14.119v-19.035Z"/>
    <path class="cls-2" d="m296.954,51.322c2.409.192,3.855.578,5.397,1.349,2.746,1.447,4.336,4.145,4.336,7.47,0,5.927-4.771,9.878-11.95,9.878-6.264,0-10.938-2.987-10.938-6.987,0-1.542.867-2.265,2.747-2.265,1.397,0,1.928.482,2.023,1.831.097,2.361.338,3.277,1.205,4.337.964,1.156,2.65,1.783,4.771,1.783,4.771,0,7.565-3.181,7.565-8.626,0-3.373-1.156-5.879-3.229-6.988-1.397-.723-3.422-1.156-5.59-1.156h-2.12v-1.542h2.12c1.928,0,3.854-.53,5.252-1.445,1.783-1.205,2.747-3.373,2.747-6.12,0-1.879-.434-3.565-1.205-4.818-1.012-1.639-2.602-2.409-5.011-2.409-3.614,0-5.445,1.879-5.687,5.734-.097,1.831-.53,2.312-2.217,2.312-1.782,0-2.554-.53-2.554-1.831,0-4.096,4.771-7.518,10.505-7.518,6.12,0,10.602,3.566,10.602,8.434,0,2.698-1.494,5.107-3.952,6.553-1.349.723-2.65,1.157-4.818,1.591v.434Z"/>
    <path class="cls-2" d="m314.783,54.213h10.649v2.65h-10.649v-2.65Z"/>
    <path class="cls-2" d="m346.008,51.322c2.409.192,3.855.578,5.397,1.349,2.746,1.447,4.336,4.145,4.336,7.47,0,5.927-4.771,9.878-11.95,9.878-6.264,0-10.938-2.987-10.938-6.987,0-1.542.867-2.265,2.747-2.265,1.397,0,1.928.482,2.023,1.831.097,2.361.338,3.277,1.205,4.337.964,1.156,2.65,1.783,4.771,1.783,4.771,0,7.565-3.181,7.565-8.626,0-3.373-1.156-5.879-3.229-6.988-1.397-.723-3.422-1.156-5.59-1.156h-2.12v-1.542h2.12c1.928,0,3.854-.53,5.252-1.445,1.783-1.205,2.747-3.373,2.747-6.12,0-1.879-.434-3.565-1.205-4.818-1.012-1.639-2.602-2.409-5.011-2.409-3.614,0-5.445,1.879-5.687,5.734-.097,1.831-.53,2.312-2.217,2.312-1.782,0-2.554-.53-2.554-1.831,0-4.096,4.771-7.518,10.505-7.518,6.12,0,10.602,3.566,10.602,8.434,0,2.698-1.494,5.107-3.952,6.553-1.349.723-2.649,1.157-4.818,1.591v.434Z"/>
    <path class="cls-2" d="m370.536,38.697c-2.265,0-3.084.385-4,1.976-.481.915-.915,2.12-1.349,4.096l-1.494-.097,1.349-9.637h21.974v2.843c-2.843,4.048-5.301,8.674-7.324,13.733-1.253,3.084-2.265,6.265-2.939,9.108-.578,2.506-.723,3.807-.915,7.035-.049,1.783-.724,2.313-2.988,2.313-1.542,0-2.265-.53-2.265-1.639,0-4.337,6.265-17.926,13.686-29.732h-13.733Z"/>
    <path class="cls-2" d="m399.497,67.85c2.072-.145,2.554-.193,3.181-.482,1.06-.481,1.301-1.493,1.301-4.963v-20.288q-.097-4.192-.481-4.529c-.386-.338-.964-.434-2.169-.434h-1.831v-1.397c3.662-.241,6.794-.675,9.155-1.253-.24,3.807-.385,7.902-.385,13.589v14.312c0,3.229.192,4.192.867,4.771.578.481.771.53,3.518.675v1.397h-13.155v-1.397Z"/>
    <path class="cls-2" d="m432.023,38.697c-2.265,0-3.084.385-4,1.976-.481.915-.915,2.12-1.349,4.096l-1.494-.097,1.35-9.637h21.973v2.843c-2.843,4.048-5.301,8.674-7.324,13.733-1.253,3.084-2.265,6.265-2.939,9.108-.578,2.506-.723,3.807-.916,7.035-.048,1.783-.723,2.313-2.987,2.313-1.542,0-2.265-.53-2.265-1.639,0-4.337,6.265-17.926,13.686-29.732h-13.733Z"/>
  </g>
  <circle class="cls-2" cx="52.612" cy="51.79" r="38.991"/>
  <path class="cls-1" d="m44.396,40.713l4.114-2.649c1.319-.843,1.702-2.595.854-3.912l-5.818-9.074c-.844-1.316-2.598-1.693-3.916-.854-.03.018-.491.312-5.47,3.51-5.801,3.724-2.684,19.679,5.596,32.586,8.282,12.907,21.494,22.387,27.291,18.663,4.981-3.194,5.438-3.488,5.47-3.514,1.316-.839,1.7-2.599.856-3.916l-5.822-9.066c-.843-1.317-2.597-1.7-3.916-.85l-4.115,2.641c-1.2.767-2.789.523-3.706-.568,0,0-2.765-2.833-6.894-9.27-4.127-6.429-5.553-10.131-5.553-10.131-.613-1.286-.171-2.829,1.029-3.596Z"/>
</svg>