<svg viewBox="0 0 317 613" width="317" height="613" xmlns="http://www.w3.org/2000/svg"><g fill="#fff7d2"><path d="m63.8 94 .4 1.2-1.2.5c-6.4 3-14.5 2.7-21.7-.5s-12.8-9.1-15-15.8l-.4-1.2 1.1-.5c6.4-2.9 14.6-2.7 21.8.5s12.8 9.1 15 15.8z"/><path d="m216.7 28.7-.8.3-.5-.7a19.1 19.1 0 0 1 -1.2-15.3 19.1 19.1 0 0 1 10-11.6l.8-.4.5.8a19.1 19.1 0 0 1 1.2 15.2 19.1 19.1 0 0 1 -10 11.7z"/><path d="m281.2 105.9-1-.6.5-1c2.9-5.6 8.6-10 15.3-11.8s13.9-.8 19 2.6l1 .6-.5 1c-2.8 5.5-8.5 9.9-15.3 11.7s-13.8.9-19-2.5z"/><path d="m94.5 42.4-.1.8h-.9a18.8 18.8 0 0 1 -13.7-6.2 18.8 18.8 0 0 1 -5.2-14v-1h1a18.8 18.8 0 0 1 13.6 6.3 18.8 18.8 0 0 1 5.3 14z"/><path d="m177 70.5 1.1-1.1 1.3 1c6 5.5 9.7 14.3 9.7 23.5s-3.7 17.9-9.8 23.4l-1.2 1-1.2-1c-6-5.5-9.7-14.3-9.7-23.4s3.6-18 9.7-23.4zm25 20.8-1.7.4-.5-1.6c-2.8-8.6-1.4-19 3.6-27.8s13.4-15.1 22.2-17l1.7-.3.5 1.6c2.8 8.5 1.4 19-3.7 27.7s-13.3 15.2-22.2 17zm21.5 39.9-1-1.2 1-1.3c6-6.7 15.7-10.7 25.9-10.7s19.8 4 25.8 10.7l1.1 1.3-1 1.2c-6 6.7-15.8 10.7-26 10.7s-19.7-4-25.8-10.7zm-67-41.1-.5 1.6-1.6-.4c-8.8-1.9-17.1-8.2-22.2-17s-6.4-19.2-3.6-27.7l.5-1.6 1.6.3c8.8 2 17.1 8.3 22.2 17s6.4 19.2 3.6 27.8zm-75.4 38.7c6-6.8 15.7-10.8 25.8-10.8s19.9 4 25.9 10.7l1 1.3-1 1.2c-6 6.7-15.7 10.7-25.9 10.7s-19.8-4-25.8-10.7l-1.1-1.2zm87.3-60.2-1.4-1a23.8 23.8 0 0 1 -5.4-33.2h.1l1-1.4 1.4 1c5 3.1 8.5 9 9.6 15.5a22.5 22.5 0 0 1 -4.3 17.8zm20.9-1-1.4 1-1-1.3a23.8 23.8 0 0 1 5.1-33.3h.1l1.4-1 1 1.3a23.8 23.8 0 0 1 -5.2 33.3h-.1zm-69.8 38.6.6 1.5-1.4.7a20.9 20.9 0 0 1 -9.5 2.2 25 25 0 0 1 -8.9-1.7 22.5 22.5 0 0 1 -13.2-12.6l-.6-1.5 1.5-.8a23.8 23.8 0 0 1 31.5 12zm10.3-15.4-1.6.3a18.4 18.4 0 0 1 -3 .2 23.2 23.2 0 0 1 -14.5-5.4 22.8 22.8 0 0 1 -8.7-16v-1.7l1.5-.3a23.8 23.8 0 0 1 26.3 21.3zm-19 83.2a22.6 22.6 0 0 1 17.5-5.2l1.6.3v1.6a22.5 22.5 0 0 1 -8.8 16.1 23.2 23.2 0 0 1 -14.5 5.4 18.1 18.1 0 0 1 -3-.2l-1.6-.3v-1.6c.4-6 3.6-12 8.8-16.1zm-10.4-23a22.5 22.5 0 0 1 18.3.5l1.5.8-.6 1.5a22.5 22.5 0 0 1 -13.3 12.6 24.7 24.7 0 0 1 -8.8 1.6 20.6 20.6 0 0 1 -9.4-2.1l-1.5-.8.6-1.5a22.6 22.6 0 0 1 13.2-12.6zm145.3-65a23.4 23.4 0 0 1 -14.5 5.4 19.3 19.3 0 0 1 -3-.2l-1.6-.3v-1.6c.4-6 3.6-12 8.8-16.1a22.5 22.5 0 0 1 17.5-5.2l1.6.3v1.6a22.6 22.6 0 0 1 -8.8 16zm10.3 23a24.6 24.6 0 0 1 -8.8 1.7 20.6 20.6 0 0 1 -9.5-2.2l-1.4-.7.6-1.6a23.8 23.8 0 0 1 31.3-12.2h.1l1.5.8-.6 1.5a22.6 22.6 0 0 1 -13.3 12.7zm-19.1 44.8-.6-1.5 1.4-.8a23.8 23.8 0 0 1 31.5 12v.2l.6 1.5-1.4.7a20.6 20.6 0 0 1 -9.4 2.2 24.4 24.4 0 0 1 -8.9-1.7 22.5 22.5 0 0 1 -13.3-12.6zm8.8 20.2a22.8 22.8 0 0 1 8.7 16v1.7l-1.5.3a19.5 19.5 0 0 1 -3 .2 23.3 23.3 0 0 1 -14.6-5.4 22.5 22.5 0 0 1 -8.7-16v-1.8l1.5-.3a22.6 22.6 0 0 1 17.6 5.2zm-41.7-71.6c8-4.6 17.4-5.8 25.2-3.3l1.5.5-.3 1.7c-1.7 8-7.5 15.5-15.4 20a33.7 33.7 0 0 1 -16.7 4.7 27.2 27.2 0 0 1 -8.4-1.3l-1.6-.5.3-1.6c1.7-8 7.5-15.6 15.4-20.2zm11 36.1c8 4.6 13.7 12.1 15.4 20.1l.3 1.6-1.5.6a27.2 27.2 0 0 1 -8.5 1.2 33.7 33.7 0 0 1 -16.7-4.5 31.5 31.5 0 0 1 -15.4-20.2l-.3-1.6 1.6-.5a31.7 31.7 0 0 1 25 3.3zm-62.6-36c8 4.5 13.8 12 15.4 20l.4 1.6-1.6.6a27.2 27.2 0 0 1 -8.4 1.2 33.7 33.7 0 0 1 -16.7-4.5 31.5 31.5 0 0 1 -15.4-20.1l-.3-1.7 1.5-.5a31.8 31.8 0 0 1 25.1 3.3zm-26.6 57.7.3-1.6c1.7-8 7.4-15.5 15.4-20s17.3-5.9 25.1-3.4l1.6.6-.4 1.6c-1.6 8-7.4 15.5-15.4 20a33.6 33.6 0 0 1 -16.6 4.7 27.2 27.2 0 0 1 -8.5-1.3z"/><path d="m197.2 227a97.6 97.6 0 0 1 -38.1 0l19-97z"/><path d="m88.7 319 1-.8.8.8a24 24 0 0 1 7.4 17.7 24 24 0 0 1 -7.4 17.6l-.9.9-.9-.9a24 24 0 0 1 -7.3-17.6c0-7 2.7-13.6 7.3-17.7zm18.8 15.7-1.2.3-.4-1.2c-2-6.5-1-14.3 2.8-21s10-11.4 16.8-12.8l1.2-.2.3 1.1c2.2 6.5 1.1 14.4-2.7 21s-10.1 11.4-16.8 12.8zm16.5 30.3-.9-1 .8-.9c4.6-5 11.9-8 19.6-8s15 3 19.5 8l.8 1-.8.9c-4.6 5-11.9 8-19.5 8s-15-3-19.6-8.1zm-50.6-31-.4 1.1-1.2-.3c-6.7-1.4-13-6.2-16.8-12.8s-4.8-14.5-2.7-21l.4-1.1 1.2.2c6.7 1.4 13 6.2 16.8 12.9s4.8 14.4 2.7 20.9zm-57 29.1c4.6-5 12-8.1 19.6-8.1s15 3 19.5 8.1l.8 1-.8.8c-4.6 5.1-11.9 8.1-19.5 8.1s-15-3-19.5-8l-.9-1zm66-45.4-1-.7a18 18 0 0 1 -4-25.1v-.1l.8-1 1 .7a17.3 17.3 0 0 1 7.2 11.7 17 17 0 0 1 -3.2 13.5zm15.7-.7-1 .6-.8-1a18 18 0 0 1 4-25.1l1-.7.8 1a18 18 0 0 1 -4 25.1zm-52.6 29 .4 1.1-1.1.6a15.7 15.7 0 0 1 -7.1 1.6 18.8 18.8 0 0 1 -6.7-1.2 17 17 0 0 1 -10-9.5l-.4-1.2 1-.5a18 18 0 0 1 23.8 9v.1zm7.7-11.6-1.2.2a14.8 14.8 0 0 1 -2.3.2 17.6 17.6 0 0 1 -11-4.1 17.3 17.3 0 0 1 -6.5-12.2l-.1-1.2 1.2-.2a18 18 0 0 1 19.9 16v.1zm-14.5 62.6a17 17 0 0 1 13.2-3.9l1.3.2-.1 1.2a17 17 0 0 1 -6.6 12.2 17.6 17.6 0 0 1 -11 4 14.6 14.6 0 0 1 -2.2-.1l-1.3-.2.1-1.2a17.3 17.3 0 0 1 6.6-12.2zm-7.8-17.4a17 17 0 0 1 13.8.4l1.1.6-.4 1.1a17 17 0 0 1 -10 9.6 18.7 18.7 0 0 1 -6.7 1.2 15.5 15.5 0 0 1 -7.1-1.6l-1.2-.6.5-1.1a17 17 0 0 1 10-9.5zm109.7-49a17.6 17.6 0 0 1 -11 4 14.8 14.8 0 0 1 -2.3-.2l-1.2-.2v-1.2a17.3 17.3 0 0 1 6.6-12.1 17 17 0 0 1 13.3-3.9l1.2.2v1.2a17 17 0 0 1 -6.6 12.1zm7.8 17.3a18.8 18.8 0 0 1 -6.8 1.3 15.5 15.5 0 0 1 -7-1.7l-1.2-.5.5-1.2a18 18 0 0 1 23.7-9.2l1.2.6-.5 1.2a17 17 0 0 1 -10 9.5zm-14.5 33.8-.5-1.1 1.1-.6a18 18 0 0 1 23.8 9v.2l.4 1.1-1 .6a15.6 15.6 0 0 1 -7.2 1.6 18.7 18.7 0 0 1 -6.7-1.3 17 17 0 0 1 -10-9.4zm6.6 15.3a17.2 17.2 0 0 1 6.6 12.2v1.2l-1.1.2a14.8 14.8 0 0 1 -2.3.2 17.6 17.6 0 0 1 -11-4.1 17 17 0 0 1 -6.6-12.2v-1.2l1.2-.2a17 17 0 0 1 13.2 4zm-31.4-54a24 24 0 0 1 19-2.5l1.2.4-.3 1.2a24 24 0 0 1 -11.6 15.2 25.4 25.4 0 0 1 -12.6 3.5 20.6 20.6 0 0 1 -6.4-1l-1.2-.4.3-1.2c1.2-6 5.6-11.7 11.6-15.2zm8.2 27.3a24 24 0 0 1 11.7 15.2l.2 1.2-1.1.4a20.9 20.9 0 0 1 -6.4 1 25.4 25.4 0 0 1 -12.6-3.5 24 24 0 0 1 -11.6-15.2l-.3-1.2 1.2-.4c5.9-1.9 13-1 19 2.5zm-47.2-27.3a24 24 0 0 1 11.7 15.2l.2 1.2-1.1.4a20.6 20.6 0 0 1 -6.4 1 25.4 25.4 0 0 1 -12.6-3.5 24 24 0 0 1 -11.6-15.2l-.3-1.1 1.2-.4a24 24 0 0 1 19 2.5zm-20.1 43.7.3-1.2c1.2-6 5.6-11.7 11.6-15.1s13-4.4 19-2.5l1.2.4-.3 1.2a24 24 0 0 1 -11.6 15.1 25.5 25.5 0 0 1 -12.6 3.5 20.6 20.6 0 0 1 -6.4-1z"/><path d="m104 437.1a73.7 73.7 0 0 1 -28.8 0l14.4-73.1z"/><path d="m67.7 292.6-.3.9-1-.2a20.5 20.5 0 0 1 -14.4-25l.2-1 1 .2a20.5 20.5 0 0 1 14.4 25z"/><path d="m216.6 531.5-.8.7-.8-.7c-4.5-3.9-7.2-10.1-7.3-16.8s2.4-13 6.7-17l.8-.7.8.7c4.5 3.9 7.2 10.1 7.3 16.8s-2.4 13-6.7 17z"/><path d="m206.2 539.2.2 1-1 .3c-5.7 1.6-12.4.5-18-3s-9.6-9-10.6-14.9l-.2-1 1-.3c5.7-1.6 12.4-.5 18 3s9.6 9.1 10.6 15z"/><path d="m181.8 546.3.5.5-.5.6a17.3 17.3 0 0 1 -24.6 0l-.5-.6.6-.5a17.3 17.3 0 0 1 24.5 0z"/><path d="m180.4 593.3h.8v.8a17.3 17.3 0 0 1 -16.6 17.9h-.8v-.8a17.3 17.3 0 0 1 16.6-17.9z"/><path d="m191 503.7v1h-1a21.9 21.9 0 0 1 -20-23.7l.2-1h1a21.9 21.9 0 0 1 19.9 23.7z"/><path d="m208.4 550h1l.2 1c.9 5.8-1.2 12.3-5.5 17.4s-10.3 8.3-16.2 8.5h-1l-.2-1c-.8-6 1.2-12.5 5.5-17.5s10.3-8.3 16.2-8.5z"/><path d="m222.3 549h-1l-.2 1c-.8 5.9 1.3 12.4 5.5 17.5s10.3 8.2 16.2 8.4h1.1l.2-1c.8-5.9-1.3-12.4-5.5-17.5s-10.3-8.2-16.3-8.4z"/><path d="m253.7 554.5-.6.3.2.6a14.7 14.7 0 0 0 19.5 7.1l.6-.3-.2-.6a14.7 14.7 0 0 0 -19.5-7z"/><path d="m236.8 508.6-.7-.1v-.8a16.2 16.2 0 0 1 18.1-14.1l.8.1v.8a16.2 16.2 0 0 1 -18.2 14.1z"/><path d="m224.6 539.8-1-.4.3-1c1.7-5.7 6.3-10.7 12.3-13.5s12.9-3.1 18.3-.8l1 .4-.3 1c-1.7 5.7-6.3 10.7-12.3 13.5s-12.9 3-18.3.8z"/><path d="m22.8 309v1h-1a19.3 19.3 0 0 1 -14.4-5.4 19.3 19.3 0 0 1 -6.4-14v-1h.9a19.3 19.3 0 0 1 14.5 5.4 19.4 19.4 0 0 1 6.4 14z"/><path d="m136.8 300.9h-.9v-1a20.5 20.5 0 0 1 20.1-20.8h1v1a20.5 20.5 0 0 1 -20.2 20.8z"/></g></svg>