<svg viewBox="0 0 132 132" width="132" height="132" xmlns="http://www.w3.org/2000/svg"><path d="m81.44 29.8h9.56v9.56z" fill="#8ad27c"/><path d="m42.73 98.2v-9.56l9.56 9.56z" fill="#8ad27c"/><path d="m95.38 103.03h-57.02v-77.6h19.38v2h-17.38v73.6h53.02v-73.6h-17.38v-2h19.38z" fill="#fff"/><path d="m80.19 51h-13.32a1 1 0 0 1 0-2h13.32a1 1 0 0 1 0 2zm0 14.23h-13.32a1 1 0 0 1 0-2h13.32a1 1 0 0 1 0 2zm0 14.22h-13.32a1 1 0 0 1 0-2h13.32a1 1 0 0 1 0 2zm-5.8-44.2a2.61 2.61 0 0 1 -2.58-2.25v-.2a4.63 4.63 0 0 0 -9.18 0v.2a2.62 2.62 0 0 1 -2.63 2.25h-.65a2.61 2.61 0 0 1 -2.61-2.61v-9.4a2.25 2.25 0 0 1 2.26-2.24h15.76a2.25 2.25 0 0 1 2.24 2.24v9.4a2.61 2.61 0 0 1 -2.61 2.61zm-7.2-8.5a6.64 6.64 0 0 1 6.57 5.77v.2a.61.61 0 0 0 .6.53.61.61 0 0 0 .61-.61v-9.4a.25.25 0 0 0 -.25-.24h-15.72a.25.25 0 0 0 -.25.24v9.4a.61.61 0 0 0 .61.61h.64a.61.61 0 0 0 .6-.53v-.2a6.64 6.64 0 0 1 6.59-5.77z" fill="#fff"/><g fill="#ffec91"><path d="m51.26 74.82h8.02v8.02h-8.02z" transform="matrix(.70710678 -.70710678 .70710678 .70710678 -39.553019 62.170564)"/><path d="m51.26 60.22h8.02v8.02h-8.02z" transform="matrix(.70710678 -.70710678 .70710678 .70710678 -29.226331 57.901394)"/><path d="m51.26 46h8.02v8.02h-8.02z" transform="matrix(.70710678 -.70710678 .70710678 .70710678 -19.167131 53.726453)"/></g></svg>