<svg viewBox="0 0 132 132" width="132" height="132" xmlns="http://www.w3.org/2000/svg"><g fill="#fff"><path d="m90.9 100.4a1 1 0 0 1 -1-1l-1.2-9.8a7.5 7.5 0 0 0 -2.6-4.2 6 6 0 0 0 -2.5-1.3l-7.5-2.2a2.9 2.9 0 0 1 -.7-.3 2.6 2.6 0 0 1 -1.1-2l-.4-2.9a1 1 0 1 1 2-.2l.4 3a.6.6 0 0 0 .2.4h.2l7.4 2.2a8 8 0 0 1 3.3 1.8 9.6 9.6 0 0 1 3.3 5.4l1.2 10a1 1 0 0 1 -.9 1zm-43.6 0h-.1a1 1 0 0 1 -.9-1.1l1.2-9.9a9.6 9.6 0 0 1 3.3-5.6 7.9 7.9 0 0 1 3.3-1.7l7.4-2.1h.2a.6.6 0 0 0 .2-.5l.3-2.5a13.8 13.8 0 0 1 -4.1-6.5 4.4 4.4 0 0 1 -2.5-4.3 4.3 4.3 0 0 1 2.4-4.2 1 1 0 0 1 1.4.5 1 1 0 0 1 -.5 1.3 2.3 2.3 0 0 0 -1.4 2.4c0 1.4.7 2.5 1.4 2.5a1 1 0 0 1 1 .8 11.8 11.8 0 0 0 4 6.3 1 1 0 0 1 .3 1l-.4 2.9a2.6 2.6 0 0 1 -1 1.8 2.7 2.7 0 0 1 -.8.4l-7.4 2.1a6.3 6.3 0 0 0 -2.5 1.3 7.7 7.7 0 0 0 -2.6 4.4l-1.2 9.8a1 1 0 0 1 -1 .9z"/><path d="m90.9 100.4a1 1 0 0 1 -1-.9l-1.2-9.8a7.6 7.6 0 0 0 -2.6-4.3 6.2 6.2 0 0 0 -2.5-1.3l-7.6-2.2a2.6 2.6 0 0 1 -1.8-2.2l-.4-3a1 1 0 0 1 .4-.9 11.8 11.8 0 0 0 4-6.3 1 1 0 0 1 .9-.7c.7-.1 1.4-1.2 1.4-2.5a2.4 2.4 0 0 0 -1.4-2.5 1 1 0 0 1 -.5-1.3 1 1 0 0 1 1.4-.5 4.3 4.3 0 0 1 2.6 4.4 4.3 4.3 0 0 1 -2.5 4.2 13.8 13.8 0 0 1 -4.1 6.4l.3 2.4a.6.6 0 0 0 .3.5h.1l7.4 2.2a8.2 8.2 0 0 1 3.3 1.7 9.6 9.6 0 0 1 3.3 5.5l1.2 10a1 1 0 0 1 -.9 1z"/><path d="m69 86.5a7.8 7.8 0 0 1 -5.1-2l-2.9-2.5a1 1 0 0 1 0-1.4 1 1 0 0 1 1.3 0l3 2.5a5.8 5.8 0 0 0 7.7 0l2.9-2.6a1 1 0 0 1 1.4 0 1 1 0 0 1 0 1.5l-3 2.6a7.8 7.8 0 0 1 -5.2 2zm-10.5-22.6a1 1 0 0 1 -1-1 20.7 20.7 0 0 1 .7-6.5s2.4-8.7 10.9-8.7 10.8 8.7 10.9 8.8a20.4 20.4 0 0 1 .7 6.4 1 1 0 1 1 -2 0 18.5 18.5 0 0 0 -.7-5.9c0-.3-2-7.3-9-7.3s-8.8 7-8.9 7.3a18.6 18.6 0 0 0 -.6 5.9 1 1 0 0 1 -1 1zm-7.5 1.8a1 1 0 0 1 -.8-.3l-2.8-3.2h-12c-9 0-16.4-6.1-16.4-13.7s7.4-13.7 16.5-13.7 16.4 6.1 16.4 13.7v16.2a1 1 0 0 1 -.6 1 1 1 0 0 1 -.4 0zm-15.5-29c-8 0-14.5 5.3-14.5 11.8s6.5 11.7 14.5 11.7h12.4a1 1 0 0 1 .7.4l1.4 1.4v-13.5c0-6.5-6.5-11.7-14.4-11.7z"/><path d="m64.8 60.1a7.3 7.3 0 0 1 -6.3-3.4 1 1 0 1 1 1.7-1c.1.2 2.6 4.5 9.4 1a13 13 0 0 1 9.7-1 1 1 0 0 1 -.6 2 11 11 0 0 0 -8.1.8 12.6 12.6 0 0 1 -5.8 1.6z"/><path d="m90.5 78.6a1.1 1.1 0 0 1 -.3 0 1 1 0 0 1 -.7-1v-11.1c0-5.4 5.4-9.8 12-9.8s12 4.4 12 9.8-5.4 9.7-12 9.7h-8.4l-1.8 2.1a1 1 0 0 1 -.8.3zm11-19.9c-5.5 0-10 3.5-10 7.8v8.5l.4-.5a1 1 0 0 1 .8-.3h8.8c5.6 0 10-3.5 10-7.8s-4.4-7.7-10-7.7z"/></g><path d="m101.6 62a.7.7 0 0 0 -.2 1l1 .2a3 3 0 0 1 2 1.1 2.3 2.3 0 0 1 0 3.2 1 1 0 0 1 0 .1c-.8.6-1.1.5-3.1.1a3.4 3.4 0 0 0 -3.1.7.7.7 0 0 0 -.2 1c.4.6.7.4 1 .2a2.6 2.6 0 0 1 2.5-.5c1.6.4 2.6.6 3.8-.4 1.5-1.2 1.6-3.4.2-5.2a4.5 4.5 0 0 0 -2.5-1.5s-1-.2-1.4 0zm-4.6 8.3a1 1 0 1 0 -.2 1.4 1 1 0 0 0 .2-1.4z" fill="#ffec91"/><path d="m87 38.3a.6.6 0 0 0 .4.7c.2 0 .3 0 .8-.3a2.6 2.6 0 0 1 2-.4 2 2 0 0 1 1.8 2.1s0 .1 0 .2c-.2.8-.5 1-2 1.8a3 3 0 0 0 -1.8 2.2.6.6 0 0 0 .5.7c.6.2.7-.2.8-.5a2.2 2.2 0 0 1 1.5-1.6c1.3-.7 2-1 2.4-2.4a3.1 3.1 0 0 0 -2.6-3.6h-.1a4 4 0 0 0 -2.7.3s-.9.4-1 .8zm1.4 8.3a.9.9 0 0 0 -1 .7.9.9 0 0 0 .7 1 1 1 0 0 0 1-.6.9.9 0 0 0 -.6-1z" fill="#ffec91"/><path d="m29 48.7a1 1 0 0 0 1.3 0c.3-.2.3-.3.3-1.3a4.4 4.4 0 0 1 1.2-3.2c1.3-1.3 3.3-1.8 4.7-.4 1 1 1 1.5.8 4.4a5 5 0 0 0 1.5 4.4 1 1 0 0 0 1.5 0c.6-.7.3-1.1 0-1.5a3.7 3.7 0 0 1 -1-3.5c.2-2.4.3-3.8-1.2-5.3-2-2-5.3-1.8-7.5.5a6.5 6.5 0 0 0 -1.9 4s-.2 1.5.2 1.9zm12.8 5.4a1.5 1.5 0 1 0 2 0 1.5 1.5 0 0 0 -2 0z" fill="#ffec91"/><path d="m86.1 56.8a1 1 0 0 1 -1-.6c0-.1-2.3-6.3-3.6-9.3a11.2 11.2 0 0 1 1.2-11 8.2 8.2 0 0 1 7.7-3.4c4.6.6 7.2 4 7.2 9.9a10 10 0 0 1 -6.4 9.3c-3.2 1-3.4 1.7-4 4l-.1.3a1 1 0 0 1 -1 .7zm3.2-22.3a6.2 6.2 0 0 0 -5 2.6 9.3 9.3 0 0 0 -1 9l2.8 6.9c.7-1.3 1.8-2.2 4.5-3a8 8 0 0 0 5-7.5c0-4.8-1.8-7.5-5.4-8a7.3 7.3 0 0 0 -.9 0z" fill="#fff"/></svg>