<svg viewBox="0 0 132 132" width="132" height="132" xmlns="http://www.w3.org/2000/svg"><path d="m76.7 71.2a4.9 4.9 0 0 1 -4.8-4.3 5.2 5.2 0 0 1 0-1.4 8.5 8.5 0 0 1 -4.6-13.9 10.6 10.6 0 0 1 -5-9 10.6 10.6 0 0 1 10.7-10.6 10.6 10.6 0 0 1 10.1 7.3 8.5 8.5 0 0 1 6.4 9.6 8.5 8.5 0 0 1 -3.5 5.6 6.9 6.9 0 0 1 2.3 8 6.8 6.8 0 0 1 -6.7 4.4 4.9 4.9 0 0 1 -4.2 4.2 4.4 4.4 0 0 1 -.7 0zm-3.7-37.2a8.6 8.6 0 0 0 -8.6 8.6 8.6 8.6 0 0 0 5 7.9l1.6.7-1.3 1a6.5 6.5 0 0 0 3.6 11.5h1.4l-.6 1.4a2.9 2.9 0 0 0 -.2 1.5 2.9 2.9 0 0 0 1 2 2.9 2.9 0 0 0 4.1-.6 2.8 2.8 0 0 0 .6-2.1l-.2-1.4 1.4.3a4.9 4.9 0 0 0 2.7-9.4l-2.4-.9 2.4-1a6.5 6.5 0 0 0 -1.4-12.3l-.6-.1-.2-.6a8.6 8.6 0 0 0 -8.3-6.5z" fill="#fff"/><path d="m76.5 38.8a6.4 6.4 0 0 1 1.6.2 6.3 6.3 0 1 0 -7.7 9.3l1 .5a6.3 6.3 0 0 1 1.3-8.8 6.2 6.2 0 0 1 3.8-1.2z" fill="#ffec91"/><path d="m79.5 48a1 1 0 0 1 -.6-1.9 5.6 5.6 0 0 0 2.4-5.7 1 1 0 0 1 2-.4 7.5 7.5 0 0 1 -3.3 7.9 1 1 0 0 1 -.5.1zm-1.2 10.3a1.2 1.2 0 0 1 -.4-.1 1 1 0 0 1 -.6-1.3 5.6 5.6 0 0 1 6.8-3.4 1 1 0 0 1 .7 1.3 1 1 0 0 1 -1.2.7 3.6 3.6 0 0 0 -4.4 2.1 1 1 0 0 1 -1 .6zm-5.4 42.7a21 21 0 0 1 -16.8-8.5 34 34 0 0 1 -3.7-7c-1.7-4.2-3.5-8.4-7-11.2a14.7 14.7 0 0 0 -8.7-2.8 1.7 1.7 0 0 1 -1.7-1.7v-2a1.7 1.7 0 0 1 1.7-1.8c11.2.2 15.8 5.5 21 11.5a64.2 64.2 0 0 0 7.5 7.7v-4.2h22.5l.2.9c0 .3 1.2 9.1-3.6 14.7-2.5 3-6.2 4.4-11 4.4zm-35.9-31.5a16.7 16.7 0 0 1 9.5 3.2c4 3.1 6 7.8 7.8 12a32.3 32.3 0 0 0 3.4 6.6 18.9 18.9 0 0 0 15.6 7.7c4.2 0 7.3-1.2 9.5-3.7 3.4-4 3.3-10 3.2-12.3h-18.8v3a1.6 1.6 0 0 1 -1.7 1.7 1.6 1.6 0 0 1 -1-.4 63.3 63.3 0 0 1 -8.3-8.4c-5-5.9-9.1-10.6-19.2-10.9z" fill="#fff"/><path d="m78.9 85.4c0 2.4-.6 6-2.7 8.4a8.4 8.4 0 0 1 -5.3 2.7 21 21 0 0 0 2.5.1c3.4 0 5.9-1 7.6-2.8 2-2.5 2.6-6 2.7-8.4z" fill="#ffec91"/><path d="m66.1 80a1 1 0 0 1 -1-1v-1.8a3.1 3.1 0 0 1 3.1-3.2h16.8a3.1 3.1 0 0 1 3.1 3.2v1.8a1 1 0 1 1 -2 0v-1.8a1.1 1.1 0 0 0 -1-1.2h-17a1.1 1.1 0 0 0 -1 1.1v1.9a1 1 0 0 1 -1 1zm-7.1-4.2a1 1 0 0 1 -.8-.3 1 1 0 0 1 0-1.4l8.6-8.6a1 1 0 1 1 1.4 1.4l-8.6 8.6a1 1 0 0 1 -.7.3zm-24 23.9a1 1 0 0 1 -.7-.3 1 1 0 0 1 0-1.4l14-14a1 1 0 1 1 1.4 1.4l-14 14a1 1 0 0 1 -.7.3zm55.8-55.8a1 1 0 0 1 -.7-.3 1 1 0 0 1 0-1.5l6.7-6.6a1 1 0 0 1 1.4 0 1 1 0 0 1 0 1.4l-6.6 6.7a1 1 0 0 1 -.8.3z" fill="#fff"/></svg>