<svg viewBox="0 0 132 132" width="132" height="132" xmlns="http://www.w3.org/2000/svg"><path d="m65.3 59.4c-3 0-7.2-.3-10.9-.6a43.6 43.6 0 0 1 -7.4-1.4 16 16 0 0 1 5.3 5c5 7.3 21.5 7.6 26.7 0a15.7 15.7 0 0 1 6.5-5.5 43 43 0 0 1 -9.4 1.9c-3.6.3-7.8.6-10.8.6z" fill="#ffec91"/><path d="m89 94.1a14.4 14.4 0 0 1 -11.3-5.1c-4.7-5.8-19.4-5.6-24 0a14.4 14.4 0 0 1 -11.3 5.1z" fill="#ffec91"/><g fill="#fff"><path d="m27 93.1h76.7v2h-76.7zm57.7-13.1a5 5 0 0 1 -2.8-1c-1.9-1.4-2.7-3.6-1.9-5a2.4 2.4 0 0 1 1.6-1.1 4.6 4.6 0 0 1 3.5 1c1.9 1.3 2.7 3.5 1.9 5a2.4 2.4 0 0 1 -1.7 1.1 3.4 3.4 0 0 1 -.6 0zm-2.4-5.2a.9.9 0 0 0 -.2 0 .4.4 0 0 0 -.3.2c-.3.4.1 1.5 1.3 2.3a2.7 2.7 0 0 0 1.9.7c.2 0 .3-.2.3-.2.2-.4-.2-1.6-1.3-2.4a3 3 0 0 0 -1.7-.6zm9.7 14.8h-.4a2.4 2.4 0 0 1 -1.7-1c-1-1.3-.3-3.5 1.5-5.1a4.7 4.7 0 0 1 3.4-1.3 2.4 2.4 0 0 1 1.7 1c1 1.4.3 3.6-1.5 5.2a4.8 4.8 0 0 1 -3 1.2zm2.4-5.4a2.9 2.9 0 0 0 -1.7.8c-1 1-1.4 2.1-1.1 2.5a.4.4 0 0 0 .3.1 2.7 2.7 0 0 0 1.8-.8c1.1-.9 1.4-2 1.2-2.4a.4.4 0 0 0 -.3-.2zm-58.9 5.8a5.7 5.7 0 0 1 -2.7-.8 4.6 4.6 0 0 1 -2.4-2.8 2.4 2.4 0 0 1 .4-1.9c1-1.4 3.2-1.5 5.3-.4a4.6 4.6 0 0 1 2.3 2.9 2.4 2.4 0 0 1 -.3 2 3 3 0 0 1 -2.6 1zm-2.2-4.6a1.1 1.1 0 0 0 -.9.3.4.4 0 0 0 0 .3 2.7 2.7 0 0 0 1.4 1.5c1.2.7 2.4.6 2.7.2a.4.4 0 0 0 0-.3 2.6 2.6 0 0 0 -1.4-1.5 3.7 3.7 0 0 0 -1.8-.5zm16.9-3.3a5 5 0 0 1 -2.8-1c-1.9-1.4-2.7-3.6-1.8-5a2.4 2.4 0 0 1 1.6-1.1 4.6 4.6 0 0 1 3.5 1c1.9 1.4 2.6 3.6 1.8 5a2.4 2.4 0 0 1 -1.7 1.1 3.8 3.8 0 0 1 -.6 0zm-2.4-5.2h-.2a.5.5 0 0 0 -.3.1c-.2.4.1 1.6 1.3 2.4a2.6 2.6 0 0 0 1.9.6l.3-.1c.2-.4-.2-1.6-1.3-2.4a3 3 0 0 0 -1.7-.6zm44-6h-.2a2.7 2.7 0 0 1 -2-.9c-1.1-1.4-.6-4.1 1.4-6a5.4 5.4 0 0 1 3.8-1.8 2.7 2.7 0 0 1 2 1c1.2 1.4.6 4-1.3 6a5.5 5.5 0 0 1 -3.7 1.7zm2.9-6.8a3.5 3.5 0 0 0 -2.3 1.2c-1.3 1.3-1.6 2.9-1.2 3.4a.6.6 0 0 0 .5.2 3.5 3.5 0 0 0 2.4-1.2c1.3-1.4 1.5-2.9 1.1-3.4a.6.6 0 0 0 -.5-.2zm-29.4 15.3c-2.6 0-4.7-1.5-4.7-3.5s2-3.6 4.7-3.6 4.8 1.6 4.8 3.6-2.1 3.5-4.8 3.5zm0-5c-1.6 0-2.7.7-2.7 1.5s1.1 1.5 2.7 1.5 2.8-.8 2.8-1.5-1.1-1.6-2.8-1.6zm-26.9-3.2a3.7 3.7 0 0 1 -.9-.1 2.7 2.7 0 0 1 -1.8-1.3c-1-1.7 0-4.2 2.3-5.7a5.3 5.3 0 0 1 4-1 2.8 2.8 0 0 1 1.8 1.3c1 1.7 0 4.2-2.3 5.7a5.8 5.8 0 0 1 -3.1 1zm2.8-6.2a3.7 3.7 0 0 0 -2 .7c-1.5 1-2 2.4-1.7 3a.7.7 0 0 0 .5.4 3.3 3.3 0 0 0 2.4-.7c1.4-1 2-2.4 1.7-3a.7.7 0 0 0 -.5-.4 1.5 1.5 0 0 0 -.4 0z"/><path d="m62.3 55a1 1 0 0 1 -.4-.1 1 1 0 0 1 -.6-1l1.2-12-6.8-.1a1 1 0 0 1 -.8-1.6l12.7-17.8a1 1 0 0 1 1.1-.3 1 1 0 0 1 .7 1l-1.4 11.9h7a1 1 0 0 1 .8.5 1 1 0 0 1 0 1l-12.8 18.1a1 1 0 0 1 -.8.3zm-4.7-15.2h6a1 1 0 0 1 .8.4 1 1 0 0 1 .2.7l-1 9.3 9.4-13h-6a1 1 0 0 1 -.7-.4 1 1 0 0 1 -.3-.8l1-9.3z"/><path d="m65.3 60.3c-2.4 0-5.8-.2-10.2-.6a41.3 41.3 0 0 1 -13.8-3.7 37.8 37.8 0 0 0 -9.2-3l-5.1-.9.3-2 5.1 1a39.5 39.5 0 0 1 9.8 3 39.4 39.4 0 0 0 13 3.5c4.4.4 7.8.6 10.1.6s5.9-.2 10.1-.6a39.3 39.3 0 0 0 13-3.5 39.5 39.5 0 0 1 9.9-3l5-1 .3 2-5 .9a37.7 37.7 0 0 0 -9.3 3 41.3 41.3 0 0 1 -13.7 3.7c-4.4.3-7.8.5-10.3.5z"/></g></svg>