<svg viewBox="0 0 132 132" width="132" height="132" xmlns="http://www.w3.org/2000/svg"><g fill="#fff"><path d="m97.3 82a5.2 5.2 0 0 1 -5.2-5.2c0-2.5 3.7-7.6 4.4-8.6l.8-1.1.8 1c.7 1 4.4 6.2 4.4 8.7a5.2 5.2 0 0 1 -5.2 5.2zm0-11.5a19 19 0 0 0 -3.2 6.3 3.2 3.2 0 1 0 6.4 0c0-1.1-1.7-4-3.2-6.3z"/><path d="m85.8 67.7a1 1 0 0 1 0-2 2.7 2.7 0 0 0 2.7-2.7v-2.7h-8.4a1 1 0 0 1 0-2h9.4a1 1 0 0 1 1 1v3.7a4.7 4.7 0 0 1 -4.7 4.7zm-13.1 14.7a74.4 74.4 0 0 1 -20.9-3.4 36.8 36.8 0 0 0 -3.7-1 1 1 0 0 1 -.8-1v-16a1 1 0 0 1 2 0v15l3.2.9a72.2 72.2 0 0 0 20.2 3.4 1 1 0 0 1 1 1 1 1 0 0 1 -1 1z"/><path d="m99.3 60.3h-9.8a1 1 0 0 1 0-2h9.8a2.7 2.7 0 1 0 0-5.3h-27.3a1 1 0 0 1 -.3-2l6.6-2.5a3.4 3.4 0 0 0 -1.2-6.5h-.1a23.5 23.5 0 0 0 -12 3.3 27.6 27.6 0 0 0 -4.2 3 28 28 0 0 1 -12.3 6 1 1 0 1 1 -.4-2 26 26 0 0 0 11.4-5.6 29.2 29.2 0 0 1 4.5-3.1 25.5 25.5 0 0 1 13-3.6 5.4 5.4 0 0 1 2 10.4l-1.6.6h22a4.7 4.7 0 1 1 0 9.4zm-16.2 14.7h-9a1 1 0 0 1 0-2h9a2.7 2.7 0 0 0 2.7-2.6v-2.7h-8.4a1 1 0 0 1 0-2h9.4a1 1 0 0 1 1 1v3.7a4.7 4.7 0 0 1 -4.8 4.6z"/><path d="m78.4 82.4h-5.7a1 1 0 0 1 0-2h5.7a2.7 2.7 0 0 0 2.7-2.6v-3.8a1 1 0 0 1 2 0v3.7a4.7 4.7 0 0 1 -4.7 4.6z"/><path d="m43.3 80h-11.3a1 1 0 0 1 -1-1v-28.6a1 1 0 0 1 1-1h11.3a1 1 0 0 1 1 1v28.6a1 1 0 0 1 -1 1zm-10.3-2h9.3v-26.6h-9.3z"/><path d="m37.7 74.3a1.7 1.7 0 1 1 1.6-1.7 1.7 1.7 0 0 1 -1.6 1.7zm0-2a.3.3 0 0 0 -.4.3.3.3 0 0 0 .4.4.3.3 0 0 0 .3-.4.3.3 0 0 0 -.3-.3z"/><path d="m95.5 60.3a1 1 0 0 1 -1-.7 1 1 0 0 1 .7-1.2c.1 0 1.3-.6 1.3-2.6a1 1 0 0 1 2 0 4.4 4.4 0 0 1 -2.7 4.5 1 1 0 0 1 -.3 0z"/></g><path d="m92.7 83.4h9.3v3.9h-9.3z" fill="#ffec91"/></svg>